{"format": "arkscore", "version": 2, "title": "CodeXbyMCP", "measure_width_scale": 1.299999952316284, "tracks": [{"name": "Piano", "instrument": {"name": "Bright Grand", "bankMSB": 0, "bankLSB": 0, "program": 1, "channelHint": -1, "percussion": false, "volume": 113, "pan": 64, "transpose": 0}, "measures": [{"ts_num": 4, "ts_den": 4, "key_fifths": 0, "key_mode": 0, "clef": 0, "tempo": 120, "velocity": 92, "lyrics": "", "expr": [], "segs": [{"start": 0.0, "dur": 1.0, "rest": false, "notes": [{"pitch": 64, "vel": 92, "dur": 1.0, "tieStart": false, "tieEnd": false, "tieGroup": 0}]}, {"start": 1.0, "dur": 1.0, "rest": false, "notes": [{"pitch": 67, "vel": 92, "dur": 1.0, "tieStart": false, "tieEnd": false, "tieGroup": 0}]}, {"start": 2.0, "dur": 2.0, "rest": false, "notes": [{"pitch": 69, "vel": 92, "dur": 2.0, "tieStart": false, "tieEnd": false, "tieGroup": 0}]}]}, {"ts_num": 4, "ts_den": 4, "key_fifths": 0, "key_mode": 0, "clef": 0, "tempo": 120, "velocity": 92, "lyrics": "", "expr": [], "segs": [{"start": 0.0, "dur": 1.0, "rest": false, "notes": [{"pitch": 67, "vel": 92, "dur": 1.0, "tieStart": false, "tieEnd": false, "tieGroup": 0}]}, {"start": 1.0, "dur": 1.0, "rest": false, "notes": [{"pitch": 64, "vel": 92, "dur": 1.0, "tieStart": false, "tieEnd": false, "tieGroup": 0}]}, {"start": 2.0, "dur": 1.0, "rest": false, "notes": [{"pitch": 62, "vel": 92, "dur": 1.0, "tieStart": false, "tieEnd": false, "tieGroup": 0}]}, {"start": 3.0, "dur": 1.0, "rest": false, "notes": [{"pitch": 64, "vel": 92, "dur": 1.0, "tieStart": false, "tieEnd": false, "tieGroup": 0}]}]}, {"ts_num": 4, "ts_den": 4, "key_fifths": 0, "key_mode": 0, "clef": 0, "tempo": 120, "velocity": 92, "lyrics": "", "expr": [], "segs": [{"start": 0.0, "dur": 2.0, "rest": false, "notes": [{"pitch": 60, "vel": 92, "dur": 2.0, "tieStart": false, "tieEnd": false, "tieGroup": 0}]}, {"start": 2.0, "dur": 1.0, "rest": false, "notes": [{"pitch": 62, "vel": 92, "dur": 1.0, "tieStart": false, "tieEnd": false, "tieGroup": 0}]}, {"start": 3.0, "dur": 1.0, "rest": false, "notes": [{"pitch": 65, "vel": 92, "dur": 1.0, "tieStart": false, "tieEnd": false, "tieGroup": 0}]}]}, {"ts_num": 4, "ts_den": 4, "key_fifths": 0, "key_mode": 0, "clef": 0, "tempo": 120, "velocity": 92, "lyrics": "", "expr": [], "segs": [{"start": 0.0, "dur": 1.0, "rest": false, "notes": [{"pitch": 64, "vel": 92, "dur": 1.0, "tieStart": false, "tieEnd": false, "tieGroup": 0}]}, {"start": 1.0, "dur": 1.0, "rest": false, "notes": [{"pitch": 62, "vel": 92, "dur": 1.0, "tieStart": false, "tieEnd": false, "tieGroup": 0}]}, {"start": 2.0, "dur": 2.0, "rest": false, "notes": [{"pitch": 59, "vel": 92, "dur": 2.0, "tieStart": false, "tieEnd": false, "tieGroup": 0}]}]}, {"ts_num": 4, "ts_den": 4, "key_fifths": 0, "key_mode": 0, "clef": 0, "tempo": 120, "velocity": 92, "lyrics": "", "expr": [], "segs": [{"start": 0.0, "dur": 1.0, "rest": false, "notes": [{"pitch": 60, "vel": 92, "dur": 1.0, "tieStart": false, "tieEnd": false, "tieGroup": 0}]}, {"start": 1.0, "dur": 1.0, "rest": false, "notes": [{"pitch": 64, "vel": 92, "dur": 1.0, "tieStart": false, "tieEnd": false, "tieGroup": 0}]}, {"start": 2.0, "dur": 1.0, "rest": false, "notes": [{"pitch": 67, "vel": 92, "dur": 1.0, "tieStart": false, "tieEnd": false, "tieGroup": 0}]}, {"start": 3.0, "dur": 1.0, "rest": false, "notes": [{"pitch": 69, "vel": 92, "dur": 1.0, "tieStart": false, "tieEnd": false, "tieGroup": 0}]}]}, {"ts_num": 4, "ts_den": 4, "key_fifths": 0, "key_mode": 0, "clef": 0, "tempo": 120, "velocity": 92, "lyrics": "", "expr": [], "segs": [{"start": 0.0, "dur": 1.0, "rest": false, "notes": [{"pitch": 67, "vel": 92, "dur": 1.0, "tieStart": false, "tieEnd": false, "tieGroup": 0}]}, {"start": 1.0, "dur": 1.0, "rest": false, "notes": [{"pitch": 64, "vel": 92, "dur": 1.0, "tieStart": false, "tieEnd": false, "tieGroup": 0}]}, {"start": 2.0, "dur": 1.0, "rest": false, "notes": [{"pitch": 62, "vel": 92, "dur": 1.0, "tieStart": false, "tieEnd": false, "tieGroup": 0}]}, {"start": 3.0, "dur": 1.0, "rest": false, "notes": [{"pitch": 59, "vel": 92, "dur": 1.0, "tieStart": false, "tieEnd": false, "tieGroup": 0}]}]}, {"ts_num": 4, "ts_den": 4, "key_fifths": 0, "key_mode": 0, "clef": 0, "tempo": 120, "velocity": 92, "lyrics": "", "expr": [], "segs": [{"start": 0.0, "dur": 2.0, "rest": false, "notes": [{"pitch": 57, "vel": 92, "dur": 2.0, "tieStart": false, "tieEnd": false, "tieGroup": 0}]}, {"start": 2.0, "dur": 1.0, "rest": false, "notes": [{"pitch": 60, "vel": 92, "dur": 1.0, "tieStart": false, "tieEnd": false, "tieGroup": 0}]}, {"start": 3.0, "dur": 1.0, "rest": false, "notes": [{"pitch": 64, "vel": 92, "dur": 1.0, "tieStart": false, "tieEnd": false, "tieGroup": 0}]}]}, {"ts_num": 4, "ts_den": 4, "key_fifths": 0, "key_mode": 0, "clef": 0, "tempo": 120, "velocity": 92, "lyrics": "", "expr": [], "segs": [{"start": 0.0, "dur": 1.0, "rest": false, "notes": [{"pitch": 62, "vel": 92, "dur": 1.0, "tieStart": false, "tieEnd": false, "tieGroup": 0}]}, {"start": 1.0, "dur": 1.0, "rest": false, "notes": [{"pitch": 59, "vel": 92, "dur": 1.0, "tieStart": false, "tieEnd": false, "tieGroup": 0}]}, {"start": 2.0, "dur": 2.0, "rest": false, "notes": [{"pitch": 55, "vel": 92, "dur": 2.0, "tieStart": false, "tieEnd": false, "tieGroup": 0}]}]}, {"ts_num": 4, "ts_den": 4, "key_fifths": 0, "key_mode": 0, "clef": 0, "tempo": 120, "velocity": 92, "lyrics": "", "expr": [], "segs": [{"start": 0.0, "dur": 1.0, "rest": false, "notes": [{"pitch": 60, "vel": 92, "dur": 1.0, "tieStart": false, "tieEnd": false, "tieGroup": 0}]}, {"start": 1.0, "dur": 1.0, "rest": false, "notes": [{"pitch": 65, "vel": 92, "dur": 1.0, "tieStart": false, "tieEnd": false, "tieGroup": 0}]}, {"start": 2.0, "dur": 1.0, "rest": false, "notes": [{"pitch": 69, "vel": 92, "dur": 1.0, "tieStart": false, "tieEnd": false, "tieGroup": 0}]}, {"start": 3.0, "dur": 1.0, "rest": false, "notes": [{"pitch": 67, "vel": 92, "dur": 1.0, "tieStart": false, "tieEnd": false, "tieGroup": 0}]}]}, {"ts_num": 4, "ts_den": 4, "key_fifths": 0, "key_mode": 0, "clef": 0, "tempo": 120, "velocity": 92, "lyrics": "", "expr": [], "segs": [{"start": 0.0, "dur": 2.0, "rest": false, "notes": [{"pitch": 64, "vel": 92, "dur": 2.0, "tieStart": false, "tieEnd": false, "tieGroup": 0}]}, {"start": 2.0, "dur": 1.0, "rest": false, "notes": [{"pitch": 67, "vel": 92, "dur": 1.0, "tieStart": false, "tieEnd": false, "tieGroup": 0}]}, {"start": 3.0, "dur": 1.0, "rest": false, "notes": [{"pitch": 64, "vel": 92, "dur": 1.0, "tieStart": false, "tieEnd": false, "tieGroup": 0}]}]}, {"ts_num": 4, "ts_den": 4, "key_fifths": 0, "key_mode": 0, "clef": 0, "tempo": 120, "velocity": 92, "lyrics": "", "expr": [], "segs": [{"start": 0.0, "dur": 1.0, "rest": false, "notes": [{"pitch": 62, "vel": 92, "dur": 1.0, "tieStart": false, "tieEnd": false, "tieGroup": 0}]}, {"start": 1.0, "dur": 1.0, "rest": false, "notes": [{"pitch": 65, "vel": 92, "dur": 1.0, "tieStart": false, "tieEnd": false, "tieGroup": 0}]}, {"start": 2.0, "dur": 1.0, "rest": false, "notes": [{"pitch": 69, "vel": 92, "dur": 1.0, "tieStart": false, "tieEnd": false, "tieGroup": 0}]}, {"start": 3.0, "dur": 1.0, "rest": false, "notes": [{"pitch": 65, "vel": 92, "dur": 1.0, "tieStart": false, "tieEnd": false, "tieGroup": 0}]}]}, {"ts_num": 4, "ts_den": 4, "key_fifths": 0, "key_mode": 0, "clef": 0, "tempo": 120, "velocity": 92, "lyrics": "", "expr": [], "segs": [{"start": 0.0, "dur": 2.0, "rest": false, "notes": [{"pitch": 67, "vel": 92, "dur": 2.0, "tieStart": false, "tieEnd": false, "tieGroup": 0}]}, {"start": 2.0, "dur": 1.0, "rest": false, "notes": [{"pitch": 64, "vel": 92, "dur": 1.0, "tieStart": false, "tieEnd": false, "tieGroup": 0}]}, {"start": 3.0, "dur": 1.0, "rest": false, "notes": [{"pitch": 62, "vel": 92, "dur": 1.0, "tieStart": false, "tieEnd": false, "tieGroup": 0}]}]}, {"ts_num": 4, "ts_den": 4, "key_fifths": 0, "key_mode": 0, "clef": 0, "tempo": 120, "velocity": 92, "lyrics": "", "expr": [], "segs": [{"start": 0.0, "dur": 1.0, "rest": false, "notes": [{"pitch": 64, "vel": 92, "dur": 1.0, "tieStart": false, "tieEnd": false, "tieGroup": 0}]}, {"start": 1.0, "dur": 1.0, "rest": false, "notes": [{"pitch": 67, "vel": 92, "dur": 1.0, "tieStart": false, "tieEnd": false, "tieGroup": 0}]}, {"start": 2.0, "dur": 2.0, "rest": false, "notes": [{"pitch": 69, "vel": 92, "dur": 2.0, "tieStart": false, "tieEnd": false, "tieGroup": 0}]}]}, {"ts_num": 4, "ts_den": 4, "key_fifths": 0, "key_mode": 0, "clef": 0, "tempo": 120, "velocity": 92, "lyrics": "", "expr": [], "segs": [{"start": 0.0, "dur": 1.0, "rest": false, "notes": [{"pitch": 67, "vel": 92, "dur": 1.0, "tieStart": false, "tieEnd": false, "tieGroup": 0}]}, {"start": 1.0, "dur": 1.0, "rest": false, "notes": [{"pitch": 64, "vel": 92, "dur": 1.0, "tieStart": false, "tieEnd": false, "tieGroup": 0}]}, {"start": 2.0, "dur": 1.0, "rest": false, "notes": [{"pitch": 60, "vel": 92, "dur": 1.0, "tieStart": false, "tieEnd": false, "tieGroup": 0}]}, {"start": 3.0, "dur": 1.0, "rest": false, "notes": [{"pitch": 62, "vel": 92, "dur": 1.0, "tieStart": false, "tieEnd": false, "tieGroup": 0}]}]}, {"ts_num": 4, "ts_den": 4, "key_fifths": 0, "key_mode": 0, "clef": 0, "tempo": 120, "velocity": 92, "lyrics": "", "expr": [], "segs": [{"start": 0.0, "dur": 2.0, "rest": false, "notes": [{"pitch": 65, "vel": 92, "dur": 2.0, "tieStart": false, "tieEnd": false, "tieGroup": 0}]}, {"start": 2.0, "dur": 1.0, "rest": false, "notes": [{"pitch": 64, "vel": 92, "dur": 1.0, "tieStart": false, "tieEnd": false, "tieGroup": 0}]}, {"start": 3.0, "dur": 1.0, "rest": false, "notes": [{"pitch": 62, "vel": 92, "dur": 1.0, "tieStart": false, "tieEnd": false, "tieGroup": 0}]}]}, {"ts_num": 4, "ts_den": 4, "key_fifths": 0, "key_mode": 0, "clef": 0, "tempo": 120, "velocity": 92, "lyrics": "", "expr": [], "segs": [{"start": 0.0, "dur": 1.0, "rest": false, "notes": [{"pitch": 62, "vel": 92, "dur": 1.0, "tieStart": false, "tieEnd": false, "tieGroup": 0}]}, {"start": 1.0, "dur": 1.0, "rest": false, "notes": [{"pitch": 59, "vel": 92, "dur": 1.0, "tieStart": false, "tieEnd": false, "tieGroup": 0}]}, {"start": 2.0, "dur": 2.0, "rest": false, "notes": [{"pitch": 55, "vel": 92, "dur": 2.0, "tieStart": false, "tieEnd": false, "tieGroup": 0}]}]}, {"ts_num": 4, "ts_den": 4, "key_fifths": 0, "key_mode": 0, "clef": 0, "tempo": 120, "velocity": 92, "lyrics": "", "expr": [], "segs": [{"start": 0.0, "dur": 1.0, "rest": false, "notes": [{"pitch": 64, "vel": 92, "dur": 1.0, "tieStart": false, "tieEnd": false, "tieGroup": 0}]}, {"start": 1.0, "dur": 1.0, "rest": false, "notes": [{"pitch": 67, "vel": 92, "dur": 1.0, "tieStart": false, "tieEnd": false, "tieGroup": 0}]}, {"start": 2.0, "dur": 1.0, "rest": false, "notes": [{"pitch": 71, "vel": 92, "dur": 1.0, "tieStart": false, "tieEnd": false, "tieGroup": 0}]}, {"start": 3.0, "dur": 1.0, "rest": false, "notes": [{"pitch": 67, "vel": 92, "dur": 1.0, "tieStart": false, "tieEnd": false, "tieGroup": 0}]}]}, {"ts_num": 4, "ts_den": 4, "key_fifths": 0, "key_mode": 0, "clef": 0, "tempo": 120, "velocity": 92, "lyrics": "", "expr": [], "segs": [{"start": 0.0, "dur": 2.0, "rest": false, "notes": [{"pitch": 69, "vel": 92, "dur": 2.0, "tieStart": false, "tieEnd": false, "tieGroup": 0}]}, {"start": 2.0, "dur": 1.0, "rest": false, "notes": [{"pitch": 67, "vel": 92, "dur": 1.0, "tieStart": false, "tieEnd": false, "tieGroup": 0}]}, {"start": 3.0, "dur": 1.0, "rest": false, "notes": [{"pitch": 64, "vel": 92, "dur": 1.0, "tieStart": false, "tieEnd": false, "tieGroup": 0}]}]}, {"ts_num": 4, "ts_den": 4, "key_fifths": 0, "key_mode": 0, "clef": 0, "tempo": 120, "velocity": 92, "lyrics": "", "expr": [], "segs": [{"start": 0.0, "dur": 1.0, "rest": false, "notes": [{"pitch": 65, "vel": 92, "dur": 1.0, "tieStart": false, "tieEnd": false, "tieGroup": 0}]}, {"start": 1.0, "dur": 1.0, "rest": false, "notes": [{"pitch": 69, "vel": 92, "dur": 1.0, "tieStart": false, "tieEnd": false, "tieGroup": 0}]}, {"start": 2.0, "dur": 1.0, "rest": false, "notes": [{"pitch": 74, "vel": 92, "dur": 1.0, "tieStart": false, "tieEnd": false, "tieGroup": 0}]}, {"start": 3.0, "dur": 1.0, "rest": false, "notes": [{"pitch": 72, "vel": 92, "dur": 1.0, "tieStart": false, "tieEnd": false, "tieGroup": 0}]}]}, {"ts_num": 4, "ts_den": 4, "key_fifths": 0, "key_mode": 0, "clef": 0, "tempo": 120, "velocity": 92, "lyrics": "", "expr": [], "segs": [{"start": 0.0, "dur": 1.0, "rest": false, "notes": [{"pitch": 71, "vel": 92, "dur": 1.0, "tieStart": false, "tieEnd": false, "tieGroup": 0}]}, {"start": 1.0, "dur": 1.0, "rest": false, "notes": [{"pitch": 67, "vel": 92, "dur": 1.0, "tieStart": false, "tieEnd": false, "tieGroup": 0}]}, {"start": 2.0, "dur": 2.0, "rest": false, "notes": [{"pitch": 62, "vel": 92, "dur": 2.0, "tieStart": false, "tieEnd": false, "tieGroup": 0}]}]}, {"ts_num": 4, "ts_den": 4, "key_fifths": 0, "key_mode": 0, "clef": 0, "tempo": 120, "velocity": 92, "lyrics": "", "expr": [], "segs": [{"start": 0.0, "dur": 2.0, "rest": false, "notes": [{"pitch": 64, "vel": 92, "dur": 2.0, "tieStart": false, "tieEnd": false, "tieGroup": 0}]}, {"start": 2.0, "dur": 1.0, "rest": false, "notes": [{"pitch": 67, "vel": 92, "dur": 1.0, "tieStart": false, "tieEnd": false, "tieGroup": 0}]}, {"start": 3.0, "dur": 1.0, "rest": false, "notes": [{"pitch": 69, "vel": 92, "dur": 1.0, "tieStart": false, "tieEnd": false, "tieGroup": 0}]}]}, {"ts_num": 4, "ts_den": 4, "key_fifths": 0, "key_mode": 0, "clef": 0, "tempo": 120, "velocity": 92, "lyrics": "", "expr": [], "segs": [{"start": 0.0, "dur": 1.0, "rest": false, "notes": [{"pitch": 67, "vel": 92, "dur": 1.0, "tieStart": false, "tieEnd": false, "tieGroup": 0}]}, {"start": 1.0, "dur": 1.0, "rest": false, "notes": [{"pitch": 62, "vel": 92, "dur": 1.0, "tieStart": false, "tieEnd": false, "tieGroup": 0}]}, {"start": 2.0, "dur": 1.0, "rest": false, "notes": [{"pitch": 59, "vel": 92, "dur": 1.0, "tieStart": false, "tieEnd": false, "tieGroup": 0}]}, {"start": 3.0, "dur": 1.0, "rest": false, "notes": [{"pitch": 62, "vel": 92, "dur": 1.0, "tieStart": false, "tieEnd": false, "tieGroup": 0}]}]}, {"ts_num": 4, "ts_den": 4, "key_fifths": 0, "key_mode": 0, "clef": 0, "tempo": 120, "velocity": 92, "lyrics": "", "expr": [], "segs": [{"start": 0.0, "dur": 1.0, "rest": false, "notes": [{"pitch": 60, "vel": 92, "dur": 1.0, "tieStart": false, "tieEnd": false, "tieGroup": 0}]}, {"start": 1.0, "dur": 1.0, "rest": false, "notes": [{"pitch": 64, "vel": 92, "dur": 1.0, "tieStart": false, "tieEnd": false, "tieGroup": 0}]}, {"start": 2.0, "dur": 1.0, "rest": false, "notes": [{"pitch": 69, "vel": 92, "dur": 1.0, "tieStart": false, "tieEnd": false, "tieGroup": 0}]}, {"start": 3.0, "dur": 1.0, "rest": false, "notes": [{"pitch": 67, "vel": 92, "dur": 1.0, "tieStart": false, "tieEnd": false, "tieGroup": 0}]}]}, {"ts_num": 4, "ts_den": 4, "key_fifths": 0, "key_mode": 0, "clef": 0, "tempo": 120, "velocity": 92, "lyrics": "", "expr": [], "segs": [{"start": 0.0, "dur": 2.0, "rest": false, "notes": [{"pitch": 65, "vel": 92, "dur": 2.0, "tieStart": false, "tieEnd": false, "tieGroup": 0}]}, {"start": 2.0, "dur": 1.0, "rest": false, "notes": [{"pitch": 64, "vel": 92, "dur": 1.0, "tieStart": false, "tieEnd": false, "tieGroup": 0}]}, {"start": 3.0, "dur": 1.0, "rest": false, "notes": [{"pitch": 60, "vel": 92, "dur": 1.0, "tieStart": false, "tieEnd": false, "tieGroup": 0}]}]}, {"ts_num": 4, "ts_den": 4, "key_fifths": 0, "key_mode": 0, "clef": 0, "tempo": 120, "velocity": 92, "lyrics": "", "expr": [], "segs": [{"start": 0.0, "dur": 1.0, "rest": false, "notes": [{"pitch": 62, "vel": 92, "dur": 1.0, "tieStart": false, "tieEnd": false, "tieGroup": 0}]}, {"start": 1.0, "dur": 1.0, "rest": false, "notes": [{"pitch": 65, "vel": 92, "dur": 1.0, "tieStart": false, "tieEnd": false, "tieGroup": 0}]}, {"start": 2.0, "dur": 2.0, "rest": false, "notes": [{"pitch": 69, "vel": 92, "dur": 2.0, "tieStart": false, "tieEnd": false, "tieGroup": 0}]}]}, {"ts_num": 4, "ts_den": 4, "key_fifths": 0, "key_mode": 0, "clef": 0, "tempo": 120, "velocity": 92, "lyrics": "", "expr": [], "segs": [{"start": 0.0, "dur": 1.0, "rest": false, "notes": [{"pitch": 67, "vel": 92, "dur": 1.0, "tieStart": false, "tieEnd": false, "tieGroup": 0}]}, {"start": 1.0, "dur": 1.0, "rest": false, "notes": [{"pitch": 71, "vel": 92, "dur": 1.0, "tieStart": false, "tieEnd": false, "tieGroup": 0}]}, {"start": 2.0, "dur": 1.0, "rest": false, "notes": [{"pitch": 74, "vel": 92, "dur": 1.0, "tieStart": false, "tieEnd": false, "tieGroup": 0}]}, {"start": 3.0, "dur": 1.0, "rest": false, "notes": [{"pitch": 71, "vel": 92, "dur": 1.0, "tieStart": false, "tieEnd": false, "tieGroup": 0}]}]}, {"ts_num": 4, "ts_den": 4, "key_fifths": 0, "key_mode": 0, "clef": 0, "tempo": 120, "velocity": 92, "lyrics": "", "expr": [], "segs": [{"start": 0.0, "dur": 2.0, "rest": false, "notes": [{"pitch": 76, "vel": 92, "dur": 2.0, "tieStart": false, "tieEnd": false, "tieGroup": 0}]}, {"start": 2.0, "dur": 1.0, "rest": false, "notes": [{"pitch": 72, "vel": 92, "dur": 1.0, "tieStart": false, "tieEnd": false, "tieGroup": 0}]}, {"start": 3.0, "dur": 1.0, "rest": false, "notes": [{"pitch": 67, "vel": 92, "dur": 1.0, "tieStart": false, "tieEnd": false, "tieGroup": 0}]}]}, {"ts_num": 4, "ts_den": 4, "key_fifths": 0, "key_mode": 0, "clef": 0, "tempo": 120, "velocity": 92, "lyrics": "", "expr": [], "segs": [{"start": 0.0, "dur": 1.0, "rest": false, "notes": [{"pitch": 64, "vel": 92, "dur": 1.0, "tieStart": false, "tieEnd": false, "tieGroup": 0}]}, {"start": 1.0, "dur": 1.0, "rest": false, "notes": [{"pitch": 67, "vel": 92, "dur": 1.0, "tieStart": false, "tieEnd": false, "tieGroup": 0}]}, {"start": 2.0, "dur": 2.0, "rest": false, "notes": [{"pitch": 72, "vel": 92, "dur": 2.0, "tieStart": false, "tieEnd": false, "tieGroup": 0}]}]}, {"ts_num": 4, "ts_den": 4, "key_fifths": 0, "key_mode": 0, "clef": 0, "tempo": 120, "velocity": 92, "lyrics": "", "expr": [], "segs": [{"start": 0.0, "dur": 1.0, "rest": false, "notes": [{"pitch": 69, "vel": 92, "dur": 1.0, "tieStart": false, "tieEnd": false, "tieGroup": 0}]}, {"start": 1.0, "dur": 1.0, "rest": false, "notes": [{"pitch": 67, "vel": 92, "dur": 1.0, "tieStart": false, "tieEnd": false, "tieGroup": 0}]}, {"start": 2.0, "dur": 1.0, "rest": false, "notes": [{"pitch": 65, "vel": 92, "dur": 1.0, "tieStart": false, "tieEnd": false, "tieGroup": 0}]}, {"start": 3.0, "dur": 1.0, "rest": false, "notes": [{"pitch": 64, "vel": 92, "dur": 1.0, "tieStart": false, "tieEnd": false, "tieGroup": 0}]}]}, {"ts_num": 4, "ts_den": 4, "key_fifths": 0, "key_mode": 0, "clef": 0, "tempo": 120, "velocity": 92, "lyrics": "", "expr": [], "segs": [{"start": 0.0, "dur": 1.0, "rest": false, "notes": [{"pitch": 62, "vel": 92, "dur": 1.0, "tieStart": false, "tieEnd": false, "tieGroup": 0}]}, {"start": 1.0, "dur": 1.0, "rest": false, "notes": [{"pitch": 67, "vel": 92, "dur": 1.0, "tieStart": false, "tieEnd": false, "tieGroup": 0}]}, {"start": 2.0, "dur": 1.0, "rest": false, "notes": [{"pitch": 71, "vel": 92, "dur": 1.0, "tieStart": false, "tieEnd": false, "tieGroup": 0}]}, {"start": 3.0, "dur": 1.0, "rest": false, "notes": [{"pitch": 69, "vel": 92, "dur": 1.0, "tieStart": false, "tieEnd": false, "tieGroup": 0}]}]}, {"ts_num": 4, "ts_den": 4, "key_fifths": 0, "key_mode": 0, "clef": 0, "tempo": 120, "velocity": 92, "lyrics": "", "expr": [], "segs": [{"start": 0.0, "dur": 2.0, "rest": false, "notes": [{"pitch": 67, "vel": 92, "dur": 2.0, "tieStart": false, "tieEnd": false, "tieGroup": 0}]}, {"start": 2.0, "dur": 1.0, "rest": false, "notes": [{"pitch": 64, "vel": 92, "dur": 1.0, "tieStart": false, "tieEnd": false, "tieGroup": 0}]}, {"start": 3.0, "dur": 1.0, "rest": false, "notes": [{"pitch": 62, "vel": 92, "dur": 1.0, "tieStart": false, "tieEnd": false, "tieGroup": 0}]}]}, {"ts_num": 4, "ts_den": 4, "key_fifths": 0, "key_mode": 0, "clef": 0, "tempo": 120, "velocity": 92, "lyrics": "", "expr": [], "segs": [{"start": 0.0, "dur": 1.0, "rest": false, "notes": [{"pitch": 64, "vel": 92, "dur": 1.0, "tieStart": false, "tieEnd": false, "tieGroup": 0}]}, {"start": 1.0, "dur": 1.0, "rest": false, "notes": [{"pitch": 69, "vel": 92, "dur": 1.0, "tieStart": false, "tieEnd": false, "tieGroup": 0}]}, {"start": 2.0, "dur": 2.0, "rest": false, "notes": [{"pitch": 72, "vel": 92, "dur": 2.0, "tieStart": false, "tieEnd": false, "tieGroup": 0}]}]}, {"ts_num": 4, "ts_den": 4, "key_fifths": 0, "key_mode": 0, "clef": 0, "tempo": 120, "velocity": 92, "lyrics": "", "expr": [], "segs": [{"start": 0.0, "dur": 1.0, "rest": false, "notes": [{"pitch": 65, "vel": 92, "dur": 1.0, "tieStart": false, "tieEnd": false, "tieGroup": 0}]}, {"start": 1.0, "dur": 1.0, "rest": false, "notes": [{"pitch": 62, "vel": 92, "dur": 1.0, "tieStart": false, "tieEnd": false, "tieGroup": 0}]}, {"start": 2.0, "dur": 1.0, "rest": false, "notes": [{"pitch": 60, "vel": 92, "dur": 1.0, "tieStart": false, "tieEnd": false, "tieGroup": 0}]}, {"start": 3.0, "dur": 1.0, "rest": false, "notes": [{"pitch": 62, "vel": 92, "dur": 1.0, "tieStart": false, "tieEnd": false, "tieGroup": 0}]}]}, {"ts_num": 4, "ts_den": 4, "key_fifths": 0, "key_mode": 0, "clef": 0, "tempo": 120, "velocity": 92, "lyrics": "", "expr": [], "segs": [{"start": 0.0, "dur": 2.0, "rest": false, "notes": [{"pitch": 67, "vel": 92, "dur": 2.0, "tieStart": false, "tieEnd": false, "tieGroup": 0}]}, {"start": 2.0, "dur": 1.0, "rest": false, "notes": [{"pitch": 65, "vel": 92, "dur": 1.0, "tieStart": false, "tieEnd": false, "tieGroup": 0}]}, {"start": 3.0, "dur": 1.0, "rest": false, "notes": [{"pitch": 64, "vel": 92, "dur": 1.0, "tieStart": false, "tieEnd": false, "tieGroup": 0}]}]}, {"ts_num": 4, "ts_den": 4, "key_fifths": 0, "key_mode": 0, "clef": 0, "tempo": 120, "velocity": 92, "lyrics": "", "expr": [], "segs": [{"start": 0.0, "dur": 1.0, "rest": false, "notes": [{"pitch": 64, "vel": 92, "dur": 1.0, "tieStart": false, "tieEnd": false, "tieGroup": 0}]}, {"start": 1.0, "dur": 1.0, "rest": false, "notes": [{"pitch": 67, "vel": 92, "dur": 1.0, "tieStart": false, "tieEnd": false, "tieGroup": 0}]}, {"start": 2.0, "dur": 2.0, "rest": false, "notes": [{"pitch": 72, "vel": 92, "dur": 2.0, "tieStart": false, "tieEnd": false, "tieGroup": 0}]}]}, {"ts_num": 4, "ts_den": 4, "key_fifths": 0, "key_mode": 0, "clef": 0, "tempo": 120, "velocity": 92, "lyrics": "", "expr": [], "segs": [{"start": 0.0, "dur": 1.0, "rest": false, "notes": [{"pitch": 69, "vel": 92, "dur": 1.0, "tieStart": false, "tieEnd": false, "tieGroup": 0}]}, {"start": 1.0, "dur": 1.0, "rest": false, "notes": [{"pitch": 67, "vel": 92, "dur": 1.0, "tieStart": false, "tieEnd": false, "tieGroup": 0}]}, {"start": 2.0, "dur": 2.0, "rest": false, "notes": [{"pitch": 64, "vel": 92, "dur": 2.0, "tieStart": false, "tieEnd": false, "tieGroup": 0}]}]}, {"ts_num": 4, "ts_den": 4, "key_fifths": 0, "key_mode": 0, "clef": 0, "tempo": 120, "velocity": 92, "lyrics": "", "expr": [], "segs": [{"start": 0.0, "dur": 2.0, "rest": false, "notes": [{"pitch": 65, "vel": 92, "dur": 2.0, "tieStart": false, "tieEnd": false, "tieGroup": 0}]}, {"start": 2.0, "dur": 1.0, "rest": false, "notes": [{"pitch": 64, "vel": 92, "dur": 1.0, "tieStart": false, "tieEnd": false, "tieGroup": 0}]}, {"start": 3.0, "dur": 1.0, "rest": false, "notes": [{"pitch": 62, "vel": 92, "dur": 1.0, "tieStart": false, "tieEnd": false, "tieGroup": 0}]}]}, {"ts_num": 4, "ts_den": 4, "key_fifths": 0, "key_mode": 0, "clef": 0, "tempo": 120, "velocity": 92, "lyrics": "", "expr": [], "segs": [{"start": 0.0, "dur": 1.0, "rest": false, "notes": [{"pitch": 62, "vel": 92, "dur": 1.0, "tieStart": false, "tieEnd": false, "tieGroup": 0}]}, {"start": 1.0, "dur": 1.0, "rest": false, "notes": [{"pitch": 59, "vel": 92, "dur": 1.0, "tieStart": false, "tieEnd": false, "tieGroup": 0}]}, {"start": 2.0, "dur": 1.0, "rest": false, "notes": [{"pitch": 55, "vel": 92, "dur": 1.0, "tieStart": false, "tieEnd": false, "tieGroup": 0}]}, {"start": 3.0, "dur": 1.0, "rest": false, "notes": [{"pitch": 62, "vel": 92, "dur": 1.0, "tieStart": false, "tieEnd": false, "tieGroup": 0}]}]}, {"ts_num": 4, "ts_den": 4, "key_fifths": 0, "key_mode": 0, "clef": 0, "tempo": 120, "velocity": 92, "lyrics": "", "expr": [], "segs": [{"start": 0.0, "dur": 1.0, "rest": false, "notes": [{"pitch": 64, "vel": 92, "dur": 1.0, "tieStart": false, "tieEnd": false, "tieGroup": 0}]}, {"start": 1.0, "dur": 1.0, "rest": false, "notes": [{"pitch": 62, "vel": 92, "dur": 1.0, "tieStart": false, "tieEnd": false, "tieGroup": 0}]}, {"start": 2.0, "dur": 2.0, "rest": false, "notes": [{"pitch": 60, "vel": 92, "dur": 2.0, "tieStart": false, "tieEnd": false, "tieGroup": 0}]}]}, {"ts_num": 4, "ts_den": 4, "key_fifths": 0, "key_mode": 0, "clef": 0, "tempo": 120, "velocity": 92, "lyrics": "", "expr": [], "segs": [{"start": 0.0, "dur": 1.0, "rest": false, "notes": [{"pitch": 60, "vel": 92, "dur": 1.0, "tieStart": false, "tieEnd": false, "tieGroup": 0}]}, {"start": 1.0, "dur": 1.0, "rest": false, "notes": [{"pitch": 64, "vel": 92, "dur": 1.0, "tieStart": false, "tieEnd": false, "tieGroup": 0}]}, {"start": 2.0, "dur": 2.0, "rest": false, "notes": [{"pitch": 67, "vel": 92, "dur": 2.0, "tieStart": false, "tieEnd": false, "tieGroup": 0}]}]}, {"ts_num": 4, "ts_den": 4, "key_fifths": 0, "key_mode": 0, "clef": 0, "tempo": 120, "velocity": 92, "lyrics": "", "expr": [], "segs": [{"start": 0.0, "dur": 2.0, "rest": false, "notes": [{"pitch": 67, "vel": 92, "dur": 2.0, "tieStart": false, "tieEnd": false, "tieGroup": 0}]}, {"start": 2.0, "dur": 2.0, "rest": true, "notes": []}]}, {"ts_num": 4, "ts_den": 4, "key_fifths": 0, "key_mode": 0, "clef": 0, "tempo": 120, "velocity": 92, "lyrics": "", "expr": [], "segs": [{"start": 0.0, "dur": 4.0, "rest": true, "notes": []}]}, {"ts_num": 4, "ts_den": 4, "key_fifths": 0, "key_mode": 0, "clef": 0, "tempo": 120, "velocity": 92, "lyrics": "", "expr": [], "segs": [{"start": 0.0, "dur": 4.0, "rest": true, "notes": []}]}, {"ts_num": 4, "ts_den": 4, "key_fifths": 0, "key_mode": 0, "clef": 0, "tempo": 120, "velocity": 92, "lyrics": "", "expr": [], "segs": [{"start": 0.0, "dur": 4.0, "rest": true, "notes": []}]}]}, {"name": "반주 코드 비트", "instrument": {"name": "Stereo Grand", "bankMSB": 0, "bankLSB": 0, "program": 0, "channelHint": -1, "percussion": false, "volume": 64, "pan": 54, "transpose": 0}, "measures": [{"ts_num": 4, "ts_den": 4, "key_fifths": 0, "key_mode": 0, "clef": 1, "tempo": 120, "velocity": 100, "lyrics": "", "expr": [], "segs": [{"start": 0.0, "dur": 0.5, "rest": false, "notes": [{"pitch": 43, "vel": 81, "dur": 0.5, "tieStart": false, "tieEnd": false, "tieGroup": 0}, {"pitch": 45, "vel": 77, "dur": 0.5, "tieStart": false, "tieEnd": false, "tieGroup": 0}]}, {"start": 0.5, "dur": 0.5, "rest": false, "notes": [{"pitch": 55, "vel": 97, "dur": 0.5, "tieStart": false, "tieEnd": false, "tieGroup": 0}]}, {"start": 1.0, "dur": 0.5, "rest": false, "notes": [{"pitch": 60, "vel": 89, "dur": 0.5, "tieStart": false, "tieEnd": false, "tieGroup": 0}]}, {"start": 1.5, "dur": 0.5, "rest": false, "notes": [{"pitch": 60, "vel": 65, "dur": 0.5, "tieStart": false, "tieEnd": false, "tieGroup": 0}]}, {"start": 2.0, "dur": 0.5, "rest": false, "notes": [{"pitch": 52, "vel": 81, "dur": 0.5, "tieStart": false, "tieEnd": false, "tieGroup": 0}, {"pitch": 57, "vel": 77, "dur": 0.5, "tieStart": false, "tieEnd": false, "tieGroup": 0}]}, {"start": 2.5, "dur": 0.5, "rest": false, "notes": [{"pitch": 55, "vel": 97, "dur": 0.5, "tieStart": false, "tieEnd": false, "tieGroup": 0}]}, {"start": 3.0, "dur": 0.5, "rest": false, "notes": [{"pitch": 60, "vel": 89, "dur": 0.5, "tieStart": false, "tieEnd": false, "tieGroup": 0}]}, {"start": 3.5, "dur": 0.5, "rest": false, "notes": [{"pitch": 60, "vel": 65, "dur": 0.5, "tieStart": false, "tieEnd": false, "tieGroup": 0}]}]}, {"ts_num": 4, "ts_den": 4, "key_fifths": 0, "key_mode": 0, "clef": 1, "tempo": 120, "velocity": 100, "lyrics": "", "expr": [], "segs": [{"start": 0.0, "dur": 1.0, "rest": false, "notes": [{"pitch": 52, "vel": 65, "dur": 1.0, "tieStart": false, "tieEnd": false, "tieGroup": 0}, {"pitch": 55, "vel": 61, "dur": 1.0, "tieStart": false, "tieEnd": false, "tieGroup": 0}, {"pitch": 59, "vel": 57, "dur": 1.0, "tieStart": false, "tieEnd": false, "tieGroup": 0}, {"pitch": 62, "vel": 53, "dur": 1.0, "tieStart": false, "tieEnd": false, "tieGroup": 0}, {"pitch": 64, "vel": 49, "dur": 1.0, "tieStart": false, "tieEnd": false, "tieGroup": 0}]}, {"start": 1.0, "dur": 1.0, "rest": false, "notes": [{"pitch": 47, "vel": 65, "dur": 1.0, "tieStart": false, "tieEnd": false, "tieGroup": 0}, {"pitch": 50, "vel": 61, "dur": 1.0, "tieStart": false, "tieEnd": false, "tieGroup": 0}, {"pitch": 52, "vel": 57, "dur": 1.0, "tieStart": false, "tieEnd": false, "tieGroup": 0}, {"pitch": 55, "vel": 53, "dur": 1.0, "tieStart": false, "tieEnd": false, "tieGroup": 0}]}, {"start": 2.0, "dur": 1.0, "rest": false, "notes": [{"pitch": 52, "vel": 73, "dur": 1.0, "tieStart": false, "tieEnd": false, "tieGroup": 0}, {"pitch": 64, "vel": 69, "dur": 1.0, "tieStart": false, "tieEnd": false, "tieGroup": 0}, {"pitch": 67, "vel": 65, "dur": 1.0, "tieStart": false, "tieEnd": false, "tieGroup": 0}, {"pitch": 71, "vel": 61, "dur": 1.0, "tieStart": false, "tieEnd": false, "tieGroup": 0}, {"pitch": 74, "vel": 57, "dur": 1.0, "tieStart": false, "tieEnd": false, "tieGroup": 0}]}, {"start": 3.0, "dur": 1.0, "rest": false, "notes": [{"pitch": 52, "vel": 73, "dur": 1.0, "tieStart": false, "tieEnd": false, "tieGroup": 0}, {"pitch": 59, "vel": 69, "dur": 1.0, "tieStart": false, "tieEnd": false, "tieGroup": 0}, {"pitch": 62, "vel": 65, "dur": 1.0, "tieStart": false, "tieEnd": false, "tieGroup": 0}, {"pitch": 64, "vel": 61, "dur": 1.0, "tieStart": false, "tieEnd": false, "tieGroup": 0}, {"pitch": 67, "vel": 57, "dur": 1.0, "tieStart": false, "tieEnd": false, "tieGroup": 0}]}]}, {"ts_num": 4, "ts_den": 4, "key_fifths": 0, "key_mode": 0, "clef": 1, "tempo": 120, "velocity": 100, "lyrics": "", "expr": [], "segs": [{"start": 0.0, "dur": 0.5, "rest": false, "notes": [{"pitch": 50, "vel": 73, "dur": 0.5, "tieStart": false, "tieEnd": false, "tieGroup": 0}]}, {"start": 0.5, "dur": 1.0, "rest": false, "notes": [{"pitch": 48, "vel": 81, "dur": 1.0, "tieStart": false, "tieEnd": false, "tieGroup": 0}]}, {"start": 1.5, "dur": 0.5, "rest": false, "notes": [{"pitch": 50, "vel": 73, "dur": 0.5, "tieStart": false, "tieEnd": false, "tieGroup": 0}]}, {"start": 2.0, "dur": 0.5, "rest": false, "notes": [{"pitch": 69, "vel": 81, "dur": 0.5, "tieStart": false, "tieEnd": false, "tieGroup": 0}]}, {"start": 2.5, "dur": 0.5, "rest": false, "notes": [{"pitch": 60, "vel": 73, "dur": 0.5, "tieStart": false, "tieEnd": false, "tieGroup": 0}]}, {"start": 3.0, "dur": 0.5, "rest": false, "notes": [{"pitch": 48, "vel": 81, "dur": 0.5, "tieStart": false, "tieEnd": false, "tieGroup": 0}, {"pitch": 62, "vel": 77, "dur": 0.5, "tieStart": false, "tieEnd": false, "tieGroup": 0}]}, {"start": 3.5, "dur": 0.5, "rest": false, "notes": [{"pitch": 50, "vel": 73, "dur": 0.5, "tieStart": false, "tieEnd": false, "tieGroup": 0}]}]}, {"ts_num": 4, "ts_den": 4, "key_fifths": 0, "key_mode": 0, "clef": 1, "tempo": 120, "velocity": 100, "lyrics": "", "expr": [], "segs": [{"start": 0.0, "dur": 0.5, "rest": false, "notes": [{"pitch": 50, "vel": 97, "dur": 0.5, "tieStart": false, "tieEnd": false, "tieGroup": 0}, {"pitch": 52, "vel": 93, "dur": 0.5, "tieStart": false, "tieEnd": false, "tieGroup": 0}]}, {"start": 0.5, "dur": 0.5, "rest": false, "notes": [{"pitch": 47, "vel": 89, "dur": 0.5, "tieStart": false, "tieEnd": false, "tieGroup": 0}]}, {"start": 1.0, "dur": 0.5, "rest": false, "notes": [{"pitch": 50, "vel": 97, "dur": 0.5, "tieStart": false, "tieEnd": false, "tieGroup": 0}]}, {"start": 1.5, "dur": 0.5, "rest": false, "notes": [{"pitch": 64, "vel": 97, "dur": 0.5, "tieStart": false, "tieEnd": false, "tieGroup": 0}]}, {"start": 2.0, "dur": 0.5, "rest": false, "notes": [{"pitch": 59, "vel": 97, "dur": 0.5, "tieStart": false, "tieEnd": false, "tieGroup": 0}, {"pitch": 64, "vel": 93, "dur": 0.5, "tieStart": false, "tieEnd": false, "tieGroup": 0}]}, {"start": 2.5, "dur": 0.5, "rest": false, "notes": [{"pitch": 47, "vel": 89, "dur": 0.5, "tieStart": false, "tieEnd": false, "tieGroup": 0}]}, {"start": 3.0, "dur": 0.5, "rest": false, "notes": [{"pitch": 50, "vel": 97, "dur": 0.5, "tieStart": false, "tieEnd": false, "tieGroup": 0}]}, {"start": 3.5, "dur": 0.5, "rest": false, "notes": [{"pitch": 64, "vel": 97, "dur": 0.5, "tieStart": false, "tieEnd": false, "tieGroup": 0}]}]}, {"ts_num": 4, "ts_den": 4, "key_fifths": 0, "key_mode": 0, "clef": 1, "tempo": 120, "velocity": 100, "lyrics": "", "expr": [], "segs": [{"start": 0.0, "dur": 1.0, "rest": false, "notes": [{"pitch": 45, "vel": 89, "dur": 1.0, "tieStart": false, "tieEnd": false, "tieGroup": 0}, {"pitch": 55, "vel": 85, "dur": 1.0, "tieStart": false, "tieEnd": false, "tieGroup": 0}, {"pitch": 57, "vel": 81, "dur": 1.0, "tieStart": false, "tieEnd": false, "tieGroup": 0}, {"pitch": 60, "vel": 77, "dur": 1.0, "tieStart": false, "tieEnd": false, "tieGroup": 0}, {"pitch": 64, "vel": 73, "dur": 1.0, "tieStart": false, "tieEnd": false, "tieGroup": 0}]}, {"start": 1.0, "dur": 1.0, "rest": false, "notes": [{"pitch": 45, "vel": 89, "dur": 1.0, "tieStart": false, "tieEnd": false, "tieGroup": 0}, {"pitch": 57, "vel": 85, "dur": 1.0, "tieStart": false, "tieEnd": false, "tieGroup": 0}, {"pitch": 60, "vel": 81, "dur": 1.0, "tieStart": false, "tieEnd": false, "tieGroup": 0}, {"pitch": 64, "vel": 77, "dur": 1.0, "tieStart": false, "tieEnd": false, "tieGroup": 0}, {"pitch": 67, "vel": 73, "dur": 1.0, "tieStart": false, "tieEnd": false, "tieGroup": 0}]}, {"start": 2.0, "dur": 1.0, "rest": false, "notes": [{"pitch": 43, "vel": 89, "dur": 1.0, "tieStart": false, "tieEnd": false, "tieGroup": 0}, {"pitch": 45, "vel": 85, "dur": 1.0, "tieStart": false, "tieEnd": false, "tieGroup": 0}, {"pitch": 48, "vel": 81, "dur": 1.0, "tieStart": false, "tieEnd": false, "tieGroup": 0}, {"pitch": 52, "vel": 77, "dur": 1.0, "tieStart": false, "tieEnd": false, "tieGroup": 0}]}, {"start": 3.0, "dur": 1.0, "rest": false, "notes": [{"pitch": 45, "vel": 73, "dur": 1.0, "tieStart": false, "tieEnd": false, "tieGroup": 0}, {"pitch": 55, "vel": 69, "dur": 1.0, "tieStart": false, "tieEnd": false, "tieGroup": 0}, {"pitch": 57, "vel": 65, "dur": 1.0, "tieStart": false, "tieEnd": false, "tieGroup": 0}, {"pitch": 60, "vel": 61, "dur": 1.0, "tieStart": false, "tieEnd": false, "tieGroup": 0}, {"pitch": 64, "vel": 57, "dur": 1.0, "tieStart": false, "tieEnd": false, "tieGroup": 0}]}]}, {"ts_num": 4, "ts_den": 4, "key_fifths": 0, "key_mode": 0, "clef": 1, "tempo": 120, "velocity": 100, "lyrics": "", "expr": [], "segs": [{"start": 0.0, "dur": 1.0, "rest": false, "notes": [{"pitch": 50, "vel": 81, "dur": 1.0, "tieStart": false, "tieEnd": false, "tieGroup": 0}, {"pitch": 52, "vel": 77, "dur": 1.0, "tieStart": false, "tieEnd": false, "tieGroup": 0}, {"pitch": 55, "vel": 73, "dur": 1.0, "tieStart": false, "tieEnd": false, "tieGroup": 0}, {"pitch": 59, "vel": 69, "dur": 1.0, "tieStart": false, "tieEnd": false, "tieGroup": 0}]}, {"start": 1.0, "dur": 1.0, "rest": false, "notes": [{"pitch": 52, "vel": 97, "dur": 1.0, "tieStart": false, "tieEnd": false, "tieGroup": 0}, {"pitch": 59, "vel": 93, "dur": 1.0, "tieStart": false, "tieEnd": false, "tieGroup": 0}, {"pitch": 62, "vel": 89, "dur": 1.0, "tieStart": false, "tieEnd": false, "tieGroup": 0}, {"pitch": 64, "vel": 85, "dur": 1.0, "tieStart": false, "tieEnd": false, "tieGroup": 0}, {"pitch": 67, "vel": 81, "dur": 1.0, "tieStart": false, "tieEnd": false, "tieGroup": 0}]}, {"start": 2.0, "dur": 1.0, "rest": false, "notes": [{"pitch": 52, "vel": 97, "dur": 1.0, "tieStart": false, "tieEnd": false, "tieGroup": 0}, {"pitch": 55, "vel": 93, "dur": 1.0, "tieStart": false, "tieEnd": false, "tieGroup": 0}, {"pitch": 59, "vel": 89, "dur": 1.0, "tieStart": false, "tieEnd": false, "tieGroup": 0}, {"pitch": 62, "vel": 85, "dur": 1.0, "tieStart": false, "tieEnd": false, "tieGroup": 0}, {"pitch": 64, "vel": 81, "dur": 1.0, "tieStart": false, "tieEnd": false, "tieGroup": 0}]}, {"start": 3.0, "dur": 1.0, "rest": false, "notes": [{"pitch": 43, "vel": 97, "dur": 1.0, "tieStart": false, "tieEnd": false, "tieGroup": 0}, {"pitch": 47, "vel": 93, "dur": 1.0, "tieStart": false, "tieEnd": false, "tieGroup": 0}, {"pitch": 50, "vel": 89, "dur": 1.0, "tieStart": false, "tieEnd": false, "tieGroup": 0}, {"pitch": 52, "vel": 85, "dur": 1.0, "tieStart": false, "tieEnd": false, "tieGroup": 0}]}]}, {"ts_num": 4, "ts_den": 4, "key_fifths": 0, "key_mode": 0, "clef": 1, "tempo": 120, "velocity": 100, "lyrics": "", "expr": [], "segs": [{"start": 0.0, "dur": 0.5, "rest": false, "notes": [{"pitch": 45, "vel": 89, "dur": 0.5, "tieStart": false, "tieEnd": false, "tieGroup": 0}, {"pitch": 52, "vel": 85, "dur": 0.5, "tieStart": false, "tieEnd": false, "tieGroup": 0}]}, {"start": 0.5, "dur": 1.0, "rest": false, "notes": [{"pitch": 55, "vel": 89, "dur": 1.0, "tieStart": false, "tieEnd": false, "tieGroup": 0}]}, {"start": 1.5, "dur": 0.5, "rest": false, "notes": [{"pitch": 60, "vel": 97, "dur": 0.5, "tieStart": false, "tieEnd": false, "tieGroup": 0}]}, {"start": 2.0, "dur": 0.5, "rest": false, "notes": [{"pitch": 57, "vel": 89, "dur": 0.5, "tieStart": false, "tieEnd": false, "tieGroup": 0}, {"pitch": 64, "vel": 85, "dur": 0.5, "tieStart": false, "tieEnd": false, "tieGroup": 0}]}, {"start": 2.5, "dur": 0.5, "rest": false, "notes": [{"pitch": 60, "vel": 89, "dur": 0.5, "tieStart": false, "tieEnd": false, "tieGroup": 0}]}, {"start": 3.0, "dur": 0.5, "rest": false, "notes": [{"pitch": 55, "vel": 89, "dur": 0.5, "tieStart": false, "tieEnd": false, "tieGroup": 0}]}, {"start": 3.5, "dur": 0.5, "rest": false, "notes": [{"pitch": 60, "vel": 97, "dur": 0.5, "tieStart": false, "tieEnd": false, "tieGroup": 0}]}]}, {"ts_num": 4, "ts_den": 4, "key_fifths": 0, "key_mode": 0, "clef": 1, "tempo": 120, "velocity": 100, "lyrics": "", "expr": [], "segs": [{"start": 0.0, "dur": 0.5, "rest": false, "notes": [{"pitch": 52, "vel": 97, "dur": 0.5, "tieStart": false, "tieEnd": false, "tieGroup": 0}, {"pitch": 59, "vel": 93, "dur": 0.5, "tieStart": false, "tieEnd": false, "tieGroup": 0}]}, {"start": 0.5, "dur": 1.0, "rest": false, "notes": [{"pitch": 64, "vel": 89, "dur": 1.0, "tieStart": false, "tieEnd": false, "tieGroup": 0}]}, {"start": 1.5, "dur": 0.5, "rest": false, "notes": [{"pitch": 59, "vel": 89, "dur": 0.5, "tieStart": false, "tieEnd": false, "tieGroup": 0}, {"pitch": 64, "vel": 85, "dur": 0.5, "tieStart": false, "tieEnd": false, "tieGroup": 0}]}, {"start": 2.0, "dur": 0.5, "rest": false, "notes": [{"pitch": 64, "vel": 81, "dur": 0.5, "tieStart": false, "tieEnd": false, "tieGroup": 0}]}, {"start": 2.5, "dur": 0.5, "rest": false, "notes": [{"pitch": 67, "vel": 97, "dur": 0.5, "tieStart": false, "tieEnd": false, "tieGroup": 0}]}, {"start": 3.0, "dur": 0.5, "rest": false, "notes": [{"pitch": 64, "vel": 89, "dur": 0.5, "tieStart": false, "tieEnd": false, "tieGroup": 0}]}, {"start": 3.5, "dur": 0.5, "rest": false, "notes": [{"pitch": 59, "vel": 89, "dur": 0.5, "tieStart": false, "tieEnd": false, "tieGroup": 0}]}]}, {"ts_num": 4, "ts_den": 4, "key_fifths": 0, "key_mode": 0, "clef": 1, "tempo": 120, "velocity": 100, "lyrics": "", "expr": [], "segs": [{"start": 0.0, "dur": 1.0, "rest": false, "notes": [{"pitch": 45, "vel": 73, "dur": 1.0, "tieStart": false, "tieEnd": false, "tieGroup": 0}, {"pitch": 60, "vel": 69, "dur": 1.0, "tieStart": false, "tieEnd": false, "tieGroup": 0}, {"pitch": 64, "vel": 65, "dur": 1.0, "tieStart": false, "tieEnd": false, "tieGroup": 0}, {"pitch": 67, "vel": 61, "dur": 1.0, "tieStart": false, "tieEnd": false, "tieGroup": 0}, {"pitch": 69, "vel": 57, "dur": 1.0, "tieStart": false, "tieEnd": false, "tieGroup": 0}]}, {"start": 1.0, "dur": 1.0, "rest": false, "notes": [{"pitch": 45, "vel": 81, "dur": 1.0, "tieStart": false, "tieEnd": false, "tieGroup": 0}, {"pitch": 57, "vel": 77, "dur": 1.0, "tieStart": false, "tieEnd": false, "tieGroup": 0}, {"pitch": 60, "vel": 73, "dur": 1.0, "tieStart": false, "tieEnd": false, "tieGroup": 0}, {"pitch": 64, "vel": 69, "dur": 1.0, "tieStart": false, "tieEnd": false, "tieGroup": 0}, {"pitch": 67, "vel": 65, "dur": 1.0, "tieStart": false, "tieEnd": false, "tieGroup": 0}]}, {"start": 2.0, "dur": 1.0, "rest": false, "notes": [{"pitch": 45, "vel": 81, "dur": 1.0, "tieStart": false, "tieEnd": false, "tieGroup": 0}, {"pitch": 57, "vel": 77, "dur": 1.0, "tieStart": false, "tieEnd": false, "tieGroup": 0}, {"pitch": 60, "vel": 73, "dur": 1.0, "tieStart": false, "tieEnd": false, "tieGroup": 0}, {"pitch": 64, "vel": 69, "dur": 1.0, "tieStart": false, "tieEnd": false, "tieGroup": 0}, {"pitch": 67, "vel": 65, "dur": 1.0, "tieStart": false, "tieEnd": false, "tieGroup": 0}]}, {"start": 3.0, "dur": 1.0, "rest": false, "notes": [{"pitch": 45, "vel": 73, "dur": 1.0, "tieStart": false, "tieEnd": false, "tieGroup": 0}, {"pitch": 57, "vel": 69, "dur": 1.0, "tieStart": false, "tieEnd": false, "tieGroup": 0}, {"pitch": 60, "vel": 65, "dur": 1.0, "tieStart": false, "tieEnd": false, "tieGroup": 0}, {"pitch": 64, "vel": 61, "dur": 1.0, "tieStart": false, "tieEnd": false, "tieGroup": 0}, {"pitch": 67, "vel": 57, "dur": 1.0, "tieStart": false, "tieEnd": false, "tieGroup": 0}]}]}, {"ts_num": 4, "ts_den": 4, "key_fifths": 0, "key_mode": 0, "clef": 1, "tempo": 120, "velocity": 100, "lyrics": "", "expr": [], "segs": [{"start": 0.0, "dur": 0.5, "rest": false, "notes": [{"pitch": 52, "vel": 73, "dur": 0.5, "tieStart": false, "tieEnd": false, "tieGroup": 0}, {"pitch": 53, "vel": 69, "dur": 0.5, "tieStart": false, "tieEnd": false, "tieGroup": 0}]}, {"start": 0.5, "dur": 0.5, "rest": false, "notes": [{"pitch": 47, "vel": 73, "dur": 0.5, "tieStart": false, "tieEnd": false, "tieGroup": 0}]}, {"start": 1.0, "dur": 0.5, "rest": false, "notes": [{"pitch": 55, "vel": 73, "dur": 0.5, "tieStart": false, "tieEnd": false, "tieGroup": 0}]}, {"start": 1.5, "dur": 0.5, "rest": false, "notes": [{"pitch": 52, "vel": 97, "dur": 0.5, "tieStart": false, "tieEnd": false, "tieGroup": 0}, {"pitch": 64, "vel": 93, "dur": 0.5, "tieStart": false, "tieEnd": false, "tieGroup": 0}]}, {"start": 2.0, "dur": 0.5, "rest": false, "notes": [{"pitch": 64, "vel": 73, "dur": 0.5, "tieStart": false, "tieEnd": false, "tieGroup": 0}]}, {"start": 2.5, "dur": 0.5, "rest": false, "notes": [{"pitch": 52, "vel": 73, "dur": 0.5, "tieStart": false, "tieEnd": false, "tieGroup": 0}]}, {"start": 3.0, "dur": 0.5, "rest": false, "notes": [{"pitch": 59, "vel": 73, "dur": 0.5, "tieStart": false, "tieEnd": false, "tieGroup": 0}]}, {"start": 3.5, "dur": 0.5, "rest": false, "notes": [{"pitch": 43, "vel": 97, "dur": 0.5, "tieStart": false, "tieEnd": false, "tieGroup": 0}]}]}, {"ts_num": 4, "ts_den": 4, "key_fifths": 0, "key_mode": 0, "clef": 1, "tempo": 120, "velocity": 100, "lyrics": "", "expr": [], "segs": [{"start": 0.0, "dur": 1.0, "rest": false, "notes": [{"pitch": 50, "vel": 105, "dur": 1.0, "tieStart": false, "tieEnd": false, "tieGroup": 0}, {"pitch": 62, "vel": 101, "dur": 1.0, "tieStart": false, "tieEnd": false, "tieGroup": 0}, {"pitch": 65, "vel": 97, "dur": 1.0, "tieStart": false, "tieEnd": false, "tieGroup": 0}, {"pitch": 69, "vel": 93, "dur": 1.0, "tieStart": false, "tieEnd": false, "tieGroup": 0}]}, {"start": 1.0, "dur": 1.0, "rest": false, "notes": [{"pitch": 50, "vel": 105, "dur": 1.0, "tieStart": false, "tieEnd": false, "tieGroup": 0}, {"pitch": 62, "vel": 101, "dur": 1.0, "tieStart": false, "tieEnd": false, "tieGroup": 0}, {"pitch": 64, "vel": 97, "dur": 1.0, "tieStart": false, "tieEnd": false, "tieGroup": 0}, {"pitch": 65, "vel": 93, "dur": 1.0, "tieStart": false, "tieEnd": false, "tieGroup": 0}, {"pitch": 69, "vel": 89, "dur": 1.0, "tieStart": false, "tieEnd": false, "tieGroup": 0}]}, {"start": 2.0, "dur": 1.0, "rest": false, "notes": [{"pitch": 50, "vel": 105, "dur": 1.0, "tieStart": false, "tieEnd": false, "tieGroup": 0}, {"pitch": 62, "vel": 101, "dur": 1.0, "tieStart": false, "tieEnd": false, "tieGroup": 0}, {"pitch": 65, "vel": 97, "dur": 1.0, "tieStart": false, "tieEnd": false, "tieGroup": 0}, {"pitch": 69, "vel": 93, "dur": 1.0, "tieStart": false, "tieEnd": false, "tieGroup": 0}]}, {"start": 3.0, "dur": 1.0, "rest": false, "notes": [{"pitch": 50, "vel": 105, "dur": 1.0, "tieStart": false, "tieEnd": false, "tieGroup": 0}, {"pitch": 62, "vel": 101, "dur": 1.0, "tieStart": false, "tieEnd": false, "tieGroup": 0}, {"pitch": 65, "vel": 97, "dur": 1.0, "tieStart": false, "tieEnd": false, "tieGroup": 0}, {"pitch": 74, "vel": 93, "dur": 1.0, "tieStart": false, "tieEnd": false, "tieGroup": 0}]}]}, {"ts_num": 4, "ts_den": 4, "key_fifths": 0, "key_mode": 0, "clef": 1, "tempo": 120, "velocity": 100, "lyrics": "", "expr": [], "segs": [{"start": 0.0, "dur": 0.5, "rest": false, "notes": [{"pitch": 50, "vel": 81, "dur": 0.5, "tieStart": false, "tieEnd": false, "tieGroup": 0}, {"pitch": 52, "vel": 77, "dur": 0.5, "tieStart": false, "tieEnd": false, "tieGroup": 0}]}, {"start": 0.5, "dur": 0.5, "rest": false, "notes": [{"pitch": 50, "vel": 89, "dur": 0.5, "tieStart": false, "tieEnd": false, "tieGroup": 0}, {"pitch": 64, "vel": 85, "dur": 0.5, "tieStart": false, "tieEnd": false, "tieGroup": 0}]}, {"start": 1.0, "dur": 0.5, "rest": false, "notes": [{"pitch": 50, "vel": 89, "dur": 0.5, "tieStart": false, "tieEnd": false, "tieGroup": 0}]}, {"start": 1.5, "dur": 0.5, "rest": false, "notes": [{"pitch": 67, "vel": 89, "dur": 0.5, "tieStart": false, "tieEnd": false, "tieGroup": 0}]}, {"start": 2.0, "dur": 0.5, "rest": false, "notes": [{"pitch": 59, "vel": 81, "dur": 0.5, "tieStart": false, "tieEnd": false, "tieGroup": 0}]}, {"start": 2.5, "dur": 0.5, "rest": false, "notes": [{"pitch": 50, "vel": 89, "dur": 0.5, "tieStart": false, "tieEnd": false, "tieGroup": 0}]}, {"start": 3.0, "dur": 0.5, "rest": false, "notes": [{"pitch": 50, "vel": 89, "dur": 0.5, "tieStart": false, "tieEnd": false, "tieGroup": 0}, {"pitch": 64, "vel": 85, "dur": 0.5, "tieStart": false, "tieEnd": false, "tieGroup": 0}]}, {"start": 3.5, "dur": 0.5, "rest": false, "notes": [{"pitch": 67, "vel": 89, "dur": 0.5, "tieStart": false, "tieEnd": false, "tieGroup": 0}]}]}, {"ts_num": 4, "ts_den": 4, "key_fifths": 0, "key_mode": 0, "clef": 1, "tempo": 120, "velocity": 100, "lyrics": "", "expr": [], "segs": [{"start": 0.0, "dur": 0.5, "rest": false, "notes": [{"pitch": 45, "vel": 89, "dur": 0.5, "tieStart": false, "tieEnd": false, "tieGroup": 0}, {"pitch": 55, "vel": 85, "dur": 0.5, "tieStart": false, "tieEnd": false, "tieGroup": 0}]}, {"start": 0.5, "dur": 1.0, "rest": false, "notes": [{"pitch": 43, "vel": 73, "dur": 1.0, "tieStart": false, "tieEnd": false, "tieGroup": 0}]}, {"start": 1.5, "dur": 0.5, "rest": false, "notes": [{"pitch": 55, "vel": 81, "dur": 0.5, "tieStart": false, "tieEnd": false, "tieGroup": 0}, {"pitch": 57, "vel": 77, "dur": 0.5, "tieStart": false, "tieEnd": false, "tieGroup": 0}]}, {"start": 2.0, "dur": 0.5, "rest": false, "notes": [{"pitch": 64, "vel": 81, "dur": 0.5, "tieStart": false, "tieEnd": false, "tieGroup": 0}]}, {"start": 2.5, "dur": 0.5, "rest": false, "notes": [{"pitch": 64, "vel": 89, "dur": 0.5, "tieStart": false, "tieEnd": false, "tieGroup": 0}]}, {"start": 3.0, "dur": 0.5, "rest": false, "notes": [{"pitch": 43, "vel": 73, "dur": 0.5, "tieStart": false, "tieEnd": false, "tieGroup": 0}]}, {"start": 3.5, "dur": 0.5, "rest": false, "notes": [{"pitch": 55, "vel": 81, "dur": 0.5, "tieStart": false, "tieEnd": false, "tieGroup": 0}]}]}, {"ts_num": 4, "ts_den": 4, "key_fifths": 0, "key_mode": 0, "clef": 1, "tempo": 120, "velocity": 100, "lyrics": "", "expr": [], "segs": [{"start": 0.0, "dur": 0.5, "rest": false, "notes": [{"pitch": 45, "vel": 81, "dur": 0.5, "tieStart": false, "tieEnd": false, "tieGroup": 0}, {"pitch": 60, "vel": 77, "dur": 0.5, "tieStart": false, "tieEnd": false, "tieGroup": 0}]}, {"start": 0.5, "dur": 0.5, "rest": false, "notes": [{"pitch": 55, "vel": 60, "dur": 0.5, "tieStart": false, "tieEnd": false, "tieGroup": 0}]}, {"start": 1.0, "dur": 0.5, "rest": false, "notes": [{"pitch": 52, "vel": 65, "dur": 0.5, "tieStart": false, "tieEnd": false, "tieGroup": 0}, {"pitch": 57, "vel": 61, "dur": 0.5, "tieStart": false, "tieEnd": false, "tieGroup": 0}]}, {"start": 1.5, "dur": 0.5, "rest": false, "notes": [{"pitch": 67, "vel": 81, "dur": 0.5, "tieStart": false, "tieEnd": false, "tieGroup": 0}]}, {"start": 2.0, "dur": 1.0, "rest": false, "notes": [{"pitch": 69, "vel": 81, "dur": 1.0, "tieStart": false, "tieEnd": false, "tieGroup": 0}]}, {"start": 3.0, "dur": 0.5, "rest": false, "notes": [{"pitch": 55, "vel": 60, "dur": 0.5, "tieStart": false, "tieEnd": false, "tieGroup": 0}]}, {"start": 3.5, "dur": 0.5, "rest": false, "notes": [{"pitch": 52, "vel": 65, "dur": 0.5, "tieStart": false, "tieEnd": false, "tieGroup": 0}]}]}, {"ts_num": 4, "ts_den": 4, "key_fifths": 0, "key_mode": 0, "clef": 1, "tempo": 120, "velocity": 100, "lyrics": "", "expr": [], "segs": [{"start": 0.0, "dur": 0.5, "rest": false, "notes": [{"pitch": 53, "vel": 65, "dur": 0.5, "tieStart": false, "tieEnd": false, "tieGroup": 0}, {"pitch": 57, "vel": 61, "dur": 0.5, "tieStart": false, "tieEnd": false, "tieGroup": 0}]}, {"start": 0.5, "dur": 1.0, "rest": false, "notes": [{"pitch": 53, "vel": 65, "dur": 1.0, "tieStart": false, "tieEnd": false, "tieGroup": 0}]}, {"start": 1.5, "dur": 0.5, "rest": false, "notes": [{"pitch": 48, "vel": 81, "dur": 0.5, "tieStart": false, "tieEnd": false, "tieGroup": 0}]}, {"start": 2.0, "dur": 0.5, "rest": false, "notes": [{"pitch": 65, "vel": 73, "dur": 0.5, "tieStart": false, "tieEnd": false, "tieGroup": 0}, {"pitch": 69, "vel": 69, "dur": 0.5, "tieStart": false, "tieEnd": false, "tieGroup": 0}]}, {"start": 2.5, "dur": 0.5, "rest": false, "notes": [{"pitch": 65, "vel": 65, "dur": 0.5, "tieStart": false, "tieEnd": false, "tieGroup": 0}]}, {"start": 3.0, "dur": 0.5, "rest": false, "notes": [{"pitch": 53, "vel": 65, "dur": 0.5, "tieStart": false, "tieEnd": false, "tieGroup": 0}]}, {"start": 3.5, "dur": 0.5, "rest": false, "notes": [{"pitch": 48, "vel": 81, "dur": 0.5, "tieStart": false, "tieEnd": false, "tieGroup": 0}]}]}, {"ts_num": 4, "ts_den": 4, "key_fifths": 0, "key_mode": 0, "clef": 1, "tempo": 120, "velocity": 100, "lyrics": "", "expr": [], "segs": [{"start": 0.0, "dur": 0.5, "rest": false, "notes": [{"pitch": 43, "vel": 81, "dur": 0.5, "tieStart": false, "tieEnd": false, "tieGroup": 0}, {"pitch": 52, "vel": 77, "dur": 0.5, "tieStart": false, "tieEnd": false, "tieGroup": 0}]}, {"start": 0.5, "dur": 1.0, "rest": false, "notes": [{"pitch": 43, "vel": 81, "dur": 1.0, "tieStart": false, "tieEnd": false, "tieGroup": 0}]}, {"start": 1.5, "dur": 0.5, "rest": false, "notes": [{"pitch": 52, "vel": 105, "dur": 0.5, "tieStart": false, "tieEnd": false, "tieGroup": 0}]}, {"start": 2.0, "dur": 0.5, "rest": false, "notes": [{"pitch": 64, "vel": 105, "dur": 0.5, "tieStart": false, "tieEnd": false, "tieGroup": 0}]}, {"start": 2.5, "dur": 0.5, "rest": false, "notes": [{"pitch": 52, "vel": 81, "dur": 0.5, "tieStart": false, "tieEnd": false, "tieGroup": 0}, {"pitch": 64, "vel": 77, "dur": 0.5, "tieStart": false, "tieEnd": false, "tieGroup": 0}]}, {"start": 3.0, "dur": 0.5, "rest": false, "notes": [{"pitch": 43, "vel": 81, "dur": 0.5, "tieStart": false, "tieEnd": false, "tieGroup": 0}]}, {"start": 3.5, "dur": 0.5, "rest": false, "notes": [{"pitch": 52, "vel": 105, "dur": 0.5, "tieStart": false, "tieEnd": false, "tieGroup": 0}]}]}, {"ts_num": 4, "ts_den": 4, "key_fifths": 0, "key_mode": 0, "clef": 1, "tempo": 120, "velocity": 100, "lyrics": "", "expr": [], "segs": [{"start": 0.0, "dur": 1.0, "rest": false, "notes": [{"pitch": 52, "vel": 89, "dur": 1.0, "tieStart": false, "tieEnd": false, "tieGroup": 0}, {"pitch": 64, "vel": 85, "dur": 1.0, "tieStart": false, "tieEnd": false, "tieGroup": 0}, {"pitch": 67, "vel": 81, "dur": 1.0, "tieStart": false, "tieEnd": false, "tieGroup": 0}, {"pitch": 71, "vel": 77, "dur": 1.0, "tieStart": false, "tieEnd": false, "tieGroup": 0}, {"pitch": 74, "vel": 73, "dur": 1.0, "tieStart": false, "tieEnd": false, "tieGroup": 0}]}, {"start": 1.0, "dur": 1.0, "rest": false, "notes": [{"pitch": 52, "vel": 89, "dur": 1.0, "tieStart": false, "tieEnd": false, "tieGroup": 0}, {"pitch": 59, "vel": 85, "dur": 1.0, "tieStart": false, "tieEnd": false, "tieGroup": 0}, {"pitch": 62, "vel": 81, "dur": 1.0, "tieStart": false, "tieEnd": false, "tieGroup": 0}, {"pitch": 64, "vel": 77, "dur": 1.0, "tieStart": false, "tieEnd": false, "tieGroup": 0}, {"pitch": 67, "vel": 73, "dur": 1.0, "tieStart": false, "tieEnd": false, "tieGroup": 0}]}, {"start": 2.0, "dur": 1.0, "rest": false, "notes": [{"pitch": 52, "vel": 73, "dur": 1.0, "tieStart": false, "tieEnd": false, "tieGroup": 0}, {"pitch": 62, "vel": 69, "dur": 1.0, "tieStart": false, "tieEnd": false, "tieGroup": 0}, {"pitch": 64, "vel": 65, "dur": 1.0, "tieStart": false, "tieEnd": false, "tieGroup": 0}, {"pitch": 67, "vel": 61, "dur": 1.0, "tieStart": false, "tieEnd": false, "tieGroup": 0}, {"pitch": 71, "vel": 57, "dur": 1.0, "tieStart": false, "tieEnd": false, "tieGroup": 0}]}, {"start": 3.0, "dur": 1.0, "rest": false, "notes": [{"pitch": 52, "vel": 73, "dur": 1.0, "tieStart": false, "tieEnd": false, "tieGroup": 0}, {"pitch": 64, "vel": 69, "dur": 1.0, "tieStart": false, "tieEnd": false, "tieGroup": 0}, {"pitch": 67, "vel": 65, "dur": 1.0, "tieStart": false, "tieEnd": false, "tieGroup": 0}, {"pitch": 71, "vel": 61, "dur": 1.0, "tieStart": false, "tieEnd": false, "tieGroup": 0}, {"pitch": 74, "vel": 57, "dur": 1.0, "tieStart": false, "tieEnd": false, "tieGroup": 0}]}]}, {"ts_num": 4, "ts_den": 4, "key_fifths": 0, "key_mode": 0, "clef": 1, "tempo": 120, "velocity": 100, "lyrics": "", "expr": [], "segs": [{"start": 0.0, "dur": 0.5, "rest": false, "notes": [{"pitch": 45, "vel": 89, "dur": 0.5, "tieStart": false, "tieEnd": false, "tieGroup": 0}, {"pitch": 57, "vel": 85, "dur": 0.5, "tieStart": false, "tieEnd": false, "tieGroup": 0}]}, {"start": 0.5, "dur": 1.0, "rest": false, "notes": [{"pitch": 43, "vel": 73, "dur": 1.0, "tieStart": false, "tieEnd": false, "tieGroup": 0}]}, {"start": 1.5, "dur": 0.5, "rest": false, "notes": [{"pitch": 57, "vel": 65, "dur": 0.5, "tieStart": false, "tieEnd": false, "tieGroup": 0}]}, {"start": 2.0, "dur": 0.5, "rest": false, "notes": [{"pitch": 57, "vel": 81, "dur": 0.5, "tieStart": false, "tieEnd": false, "tieGroup": 0}, {"pitch": 64, "vel": 77, "dur": 0.5, "tieStart": false, "tieEnd": false, "tieGroup": 0}]}, {"start": 2.5, "dur": 0.5, "rest": false, "notes": [{"pitch": 67, "vel": 89, "dur": 0.5, "tieStart": false, "tieEnd": false, "tieGroup": 0}]}, {"start": 3.0, "dur": 0.5, "rest": false, "notes": [{"pitch": 43, "vel": 73, "dur": 0.5, "tieStart": false, "tieEnd": false, "tieGroup": 0}]}, {"start": 3.5, "dur": 0.5, "rest": false, "notes": [{"pitch": 57, "vel": 65, "dur": 0.5, "tieStart": false, "tieEnd": false, "tieGroup": 0}]}]}, {"ts_num": 4, "ts_den": 4, "key_fifths": 0, "key_mode": 0, "clef": 1, "tempo": 120, "velocity": 100, "lyrics": "", "expr": [], "segs": [{"start": 0.0, "dur": 1.0, "rest": false, "notes": [{"pitch": 50, "vel": 60, "dur": 1.0, "tieStart": false, "tieEnd": false, "tieGroup": 0}, {"pitch": 62, "vel": 56, "dur": 1.0, "tieStart": false, "tieEnd": false, "tieGroup": 0}, {"pitch": 65, "vel": 52, "dur": 1.0, "tieStart": false, "tieEnd": false, "tieGroup": 0}, {"pitch": 69, "vel": 48, "dur": 1.0, "tieStart": false, "tieEnd": false, "tieGroup": 0}, {"pitch": 72, "vel": 44, "dur": 1.0, "tieStart": false, "tieEnd": false, "tieGroup": 0}]}, {"start": 1.0, "dur": 1.0, "rest": false, "notes": [{"pitch": 50, "vel": 89, "dur": 1.0, "tieStart": false, "tieEnd": false, "tieGroup": 0}, {"pitch": 62, "vel": 85, "dur": 1.0, "tieStart": false, "tieEnd": false, "tieGroup": 0}, {"pitch": 65, "vel": 81, "dur": 1.0, "tieStart": false, "tieEnd": false, "tieGroup": 0}, {"pitch": 69, "vel": 77, "dur": 1.0, "tieStart": false, "tieEnd": false, "tieGroup": 0}, {"pitch": 72, "vel": 73, "dur": 1.0, "tieStart": false, "tieEnd": false, "tieGroup": 0}]}, {"start": 2.0, "dur": 1.0, "rest": false, "notes": [{"pitch": 50, "vel": 81, "dur": 1.0, "tieStart": false, "tieEnd": false, "tieGroup": 0}, {"pitch": 62, "vel": 77, "dur": 1.0, "tieStart": false, "tieEnd": false, "tieGroup": 0}, {"pitch": 65, "vel": 73, "dur": 1.0, "tieStart": false, "tieEnd": false, "tieGroup": 0}, {"pitch": 69, "vel": 69, "dur": 1.0, "tieStart": false, "tieEnd": false, "tieGroup": 0}, {"pitch": 72, "vel": 65, "dur": 1.0, "tieStart": false, "tieEnd": false, "tieGroup": 0}]}, {"start": 3.0, "dur": 1.0, "rest": false, "notes": [{"pitch": 45, "vel": 81, "dur": 1.0, "tieStart": false, "tieEnd": false, "tieGroup": 0}, {"pitch": 48, "vel": 77, "dur": 1.0, "tieStart": false, "tieEnd": false, "tieGroup": 0}, {"pitch": 50, "vel": 73, "dur": 1.0, "tieStart": false, "tieEnd": false, "tieGroup": 0}, {"pitch": 53, "vel": 69, "dur": 1.0, "tieStart": false, "tieEnd": false, "tieGroup": 0}]}]}, {"ts_num": 4, "ts_den": 4, "key_fifths": 0, "key_mode": 0, "clef": 1, "tempo": 120, "velocity": 100, "lyrics": "", "expr": [], "segs": [{"start": 0.0, "dur": 0.5, "rest": false, "notes": [{"pitch": 43, "vel": 81, "dur": 0.5, "tieStart": false, "tieEnd": false, "tieGroup": 0}, {"pitch": 55, "vel": 77, "dur": 0.5, "tieStart": false, "tieEnd": false, "tieGroup": 0}]}, {"start": 0.5, "dur": 0.5, "rest": false, "notes": [{"pitch": 55, "vel": 73, "dur": 0.5, "tieStart": false, "tieEnd": false, "tieGroup": 0}]}, {"start": 1.0, "dur": 0.5, "rest": false, "notes": [{"pitch": 59, "vel": 81, "dur": 0.5, "tieStart": false, "tieEnd": false, "tieGroup": 0}]}, {"start": 1.5, "dur": 0.5, "rest": false, "notes": [{"pitch": 62, "vel": 73, "dur": 0.5, "tieStart": false, "tieEnd": false, "tieGroup": 0}]}, {"start": 2.0, "dur": 0.5, "rest": false, "notes": [{"pitch": 55, "vel": 81, "dur": 0.5, "tieStart": false, "tieEnd": false, "tieGroup": 0}, {"pitch": 65, "vel": 77, "dur": 0.5, "tieStart": false, "tieEnd": false, "tieGroup": 0}]}, {"start": 2.5, "dur": 0.5, "rest": false, "notes": [{"pitch": 55, "vel": 73, "dur": 0.5, "tieStart": false, "tieEnd": false, "tieGroup": 0}]}, {"start": 3.0, "dur": 0.5, "rest": false, "notes": [{"pitch": 59, "vel": 81, "dur": 0.5, "tieStart": false, "tieEnd": false, "tieGroup": 0}]}, {"start": 3.5, "dur": 0.5, "rest": false, "notes": [{"pitch": 62, "vel": 73, "dur": 0.5, "tieStart": false, "tieEnd": false, "tieGroup": 0}]}]}, {"ts_num": 4, "ts_den": 4, "key_fifths": 0, "key_mode": 0, "clef": 1, "tempo": 120, "velocity": 100, "lyrics": "", "expr": [], "segs": [{"start": 0.0, "dur": 1.0, "rest": false, "notes": [{"pitch": 43, "vel": 89, "dur": 1.0, "tieStart": false, "tieEnd": false, "tieGroup": 0}, {"pitch": 45, "vel": 85, "dur": 1.0, "tieStart": false, "tieEnd": false, "tieGroup": 0}]}, {"start": 1.0, "dur": 0.5, "rest": false, "notes": [{"pitch": 43, "vel": 81, "dur": 0.5, "tieStart": false, "tieEnd": false, "tieGroup": 0}]}, {"start": 1.5, "dur": 0.5, "rest": false, "notes": [{"pitch": 57, "vel": 89, "dur": 0.5, "tieStart": false, "tieEnd": false, "tieGroup": 0}, {"pitch": 64, "vel": 85, "dur": 0.5, "tieStart": false, "tieEnd": false, "tieGroup": 0}]}, {"start": 2.0, "dur": 0.5, "rest": false, "notes": [{"pitch": 57, "vel": 81, "dur": 0.5, "tieStart": false, "tieEnd": false, "tieGroup": 0}]}, {"start": 2.5, "dur": 1.0, "rest": false, "notes": [{"pitch": 52, "vel": 89, "dur": 1.0, "tieStart": false, "tieEnd": false, "tieGroup": 0}]}, {"start": 3.5, "dur": 0.5, "rest": false, "notes": [{"pitch": 43, "vel": 81, "dur": 0.5, "tieStart": false, "tieEnd": false, "tieGroup": 0}]}]}, {"ts_num": 4, "ts_den": 4, "key_fifths": 0, "key_mode": 0, "clef": 1, "tempo": 120, "velocity": 100, "lyrics": "", "expr": [], "segs": [{"start": 0.0, "dur": 1.0, "rest": false, "notes": [{"pitch": 50, "vel": 73, "dur": 1.0, "tieStart": false, "tieEnd": false, "tieGroup": 0}, {"pitch": 52, "vel": 69, "dur": 1.0, "tieStart": false, "tieEnd": false, "tieGroup": 0}]}, {"start": 1.0, "dur": 0.5, "rest": false, "notes": [{"pitch": 62, "vel": 73, "dur": 0.5, "tieStart": false, "tieEnd": false, "tieGroup": 0}]}, {"start": 1.5, "dur": 0.5, "rest": false, "notes": [{"pitch": 52, "vel": 81, "dur": 0.5, "tieStart": false, "tieEnd": false, "tieGroup": 0}]}, {"start": 2.0, "dur": 0.5, "rest": false, "notes": [{"pitch": 62, "vel": 81, "dur": 0.5, "tieStart": false, "tieEnd": false, "tieGroup": 0}, {"pitch": 64, "vel": 77, "dur": 0.5, "tieStart": false, "tieEnd": false, "tieGroup": 0}]}, {"start": 2.5, "dur": 1.0, "rest": false, "notes": [{"pitch": 59, "vel": 73, "dur": 1.0, "tieStart": false, "tieEnd": false, "tieGroup": 0}]}, {"start": 3.5, "dur": 0.5, "rest": false, "notes": [{"pitch": 62, "vel": 73, "dur": 0.5, "tieStart": false, "tieEnd": false, "tieGroup": 0}]}]}, {"ts_num": 4, "ts_den": 4, "key_fifths": 0, "key_mode": 0, "clef": 1, "tempo": 120, "velocity": 100, "lyrics": "", "expr": [], "segs": [{"start": 0.0, "dur": 1.0, "rest": false, "notes": [{"pitch": 45, "vel": 89, "dur": 1.0, "tieStart": false, "tieEnd": false, "tieGroup": 0}, {"pitch": 60, "vel": 85, "dur": 1.0, "tieStart": false, "tieEnd": false, "tieGroup": 0}, {"pitch": 64, "vel": 81, "dur": 1.0, "tieStart": false, "tieEnd": false, "tieGroup": 0}, {"pitch": 67, "vel": 77, "dur": 1.0, "tieStart": false, "tieEnd": false, "tieGroup": 0}, {"pitch": 69, "vel": 73, "dur": 1.0, "tieStart": false, "tieEnd": false, "tieGroup": 0}]}, {"start": 1.0, "dur": 1.0, "rest": false, "notes": [{"pitch": 45, "vel": 81, "dur": 1.0, "tieStart": false, "tieEnd": false, "tieGroup": 0}, {"pitch": 57, "vel": 77, "dur": 1.0, "tieStart": false, "tieEnd": false, "tieGroup": 0}, {"pitch": 60, "vel": 73, "dur": 1.0, "tieStart": false, "tieEnd": false, "tieGroup": 0}, {"pitch": 64, "vel": 69, "dur": 1.0, "tieStart": false, "tieEnd": false, "tieGroup": 0}, {"pitch": 67, "vel": 65, "dur": 1.0, "tieStart": false, "tieEnd": false, "tieGroup": 0}]}, {"start": 2.0, "dur": 1.0, "rest": false, "notes": [{"pitch": 45, "vel": 73, "dur": 1.0, "tieStart": false, "tieEnd": false, "tieGroup": 0}, {"pitch": 57, "vel": 69, "dur": 1.0, "tieStart": false, "tieEnd": false, "tieGroup": 0}, {"pitch": 60, "vel": 65, "dur": 1.0, "tieStart": false, "tieEnd": false, "tieGroup": 0}, {"pitch": 64, "vel": 61, "dur": 1.0, "tieStart": false, "tieEnd": false, "tieGroup": 0}, {"pitch": 67, "vel": 57, "dur": 1.0, "tieStart": false, "tieEnd": false, "tieGroup": 0}]}, {"start": 3.0, "dur": 1.0, "rest": false, "notes": [{"pitch": 45, "vel": 73, "dur": 1.0, "tieStart": false, "tieEnd": false, "tieGroup": 0}, {"pitch": 57, "vel": 69, "dur": 1.0, "tieStart": false, "tieEnd": false, "tieGroup": 0}, {"pitch": 60, "vel": 65, "dur": 1.0, "tieStart": false, "tieEnd": false, "tieGroup": 0}, {"pitch": 64, "vel": 61, "dur": 1.0, "tieStart": false, "tieEnd": false, "tieGroup": 0}, {"pitch": 67, "vel": 57, "dur": 1.0, "tieStart": false, "tieEnd": false, "tieGroup": 0}]}]}, {"ts_num": 4, "ts_den": 4, "key_fifths": 0, "key_mode": 0, "clef": 1, "tempo": 120, "velocity": 100, "lyrics": "", "expr": [], "segs": [{"start": 0.0, "dur": 0.5, "rest": false, "notes": [{"pitch": 48, "vel": 65, "dur": 0.5, "tieStart": false, "tieEnd": false, "tieGroup": 0}, {"pitch": 53, "vel": 61, "dur": 0.5, "tieStart": false, "tieEnd": false, "tieGroup": 0}]}, {"start": 0.5, "dur": 0.5, "rest": false, "notes": [{"pitch": 60, "vel": 73, "dur": 0.5, "tieStart": false, "tieEnd": false, "tieGroup": 0}]}, {"start": 1.0, "dur": 0.5, "rest": false, "notes": [{"pitch": 48, "vel": 60, "dur": 0.5, "tieStart": false, "tieEnd": false, "tieGroup": 0}]}, {"start": 1.5, "dur": 0.5, "rest": false, "notes": [{"pitch": 62, "vel": 65, "dur": 0.5, "tieStart": false, "tieEnd": false, "tieGroup": 0}, {"pitch": 65, "vel": 61, "dur": 0.5, "tieStart": false, "tieEnd": false, "tieGroup": 0}]}, {"start": 2.0, "dur": 1.0, "rest": false, "notes": [{"pitch": 57, "vel": 65, "dur": 1.0, "tieStart": false, "tieEnd": false, "tieGroup": 0}]}, {"start": 3.0, "dur": 0.5, "rest": false, "notes": [{"pitch": 60, "vel": 73, "dur": 0.5, "tieStart": false, "tieEnd": false, "tieGroup": 0}]}, {"start": 3.5, "dur": 0.5, "rest": false, "notes": [{"pitch": 48, "vel": 60, "dur": 0.5, "tieStart": false, "tieEnd": false, "tieGroup": 0}]}]}, {"ts_num": 4, "ts_den": 4, "key_fifths": 0, "key_mode": 0, "clef": 1, "tempo": 120, "velocity": 100, "lyrics": "", "expr": [], "segs": [{"start": 0.0, "dur": 0.5, "rest": false, "notes": [{"pitch": 50, "vel": 89, "dur": 0.5, "tieStart": false, "tieEnd": false, "tieGroup": 0}, {"pitch": 57, "vel": 85, "dur": 0.5, "tieStart": false, "tieEnd": false, "tieGroup": 0}]}, {"start": 0.5, "dur": 0.5, "rest": false, "notes": [{"pitch": 45, "vel": 97, "dur": 0.5, "tieStart": false, "tieEnd": false, "tieGroup": 0}]}, {"start": 1.0, "dur": 0.5, "rest": false, "notes": [{"pitch": 60, "vel": 81, "dur": 0.5, "tieStart": false, "tieEnd": false, "tieGroup": 0}]}, {"start": 1.5, "dur": 0.5, "rest": false, "notes": [{"pitch": 69, "vel": 81, "dur": 0.5, "tieStart": false, "tieEnd": false, "tieGroup": 0}]}, {"start": 2.0, "dur": 1.0, "rest": false, "notes": [{"pitch": 65, "vel": 89, "dur": 1.0, "tieStart": false, "tieEnd": false, "tieGroup": 0}]}, {"start": 3.0, "dur": 0.5, "rest": false, "notes": [{"pitch": 45, "vel": 97, "dur": 0.5, "tieStart": false, "tieEnd": false, "tieGroup": 0}, {"pitch": 62, "vel": 93, "dur": 0.5, "tieStart": false, "tieEnd": false, "tieGroup": 0}]}, {"start": 3.5, "dur": 0.5, "rest": false, "notes": [{"pitch": 60, "vel": 81, "dur": 0.5, "tieStart": false, "tieEnd": false, "tieGroup": 0}]}]}, {"ts_num": 4, "ts_den": 4, "key_fifths": 0, "key_mode": 0, "clef": 1, "tempo": 120, "velocity": 100, "lyrics": "", "expr": [], "segs": [{"start": 0.0, "dur": 0.5, "rest": false, "notes": [{"pitch": 43, "vel": 81, "dur": 0.5, "tieStart": false, "tieEnd": false, "tieGroup": 0}, {"pitch": 59, "vel": 77, "dur": 0.5, "tieStart": false, "tieEnd": false, "tieGroup": 0}]}, {"start": 0.5, "dur": 0.5, "rest": false, "notes": [{"pitch": 59, "vel": 73, "dur": 0.5, "tieStart": false, "tieEnd": false, "tieGroup": 0}]}, {"start": 1.0, "dur": 0.5, "rest": false, "notes": [{"pitch": 53, "vel": 73, "dur": 0.5, "tieStart": false, "tieEnd": false, "tieGroup": 0}]}, {"start": 1.5, "dur": 0.5, "rest": false, "notes": [{"pitch": 65, "vel": 81, "dur": 0.5, "tieStart": false, "tieEnd": false, "tieGroup": 0}]}, {"start": 2.0, "dur": 1.0, "rest": false, "notes": [{"pitch": 67, "vel": 81, "dur": 1.0, "tieStart": false, "tieEnd": false, "tieGroup": 0}]}, {"start": 3.0, "dur": 0.5, "rest": false, "notes": [{"pitch": 55, "vel": 73, "dur": 0.5, "tieStart": false, "tieEnd": false, "tieGroup": 0}, {"pitch": 59, "vel": 69, "dur": 0.5, "tieStart": false, "tieEnd": false, "tieGroup": 0}]}, {"start": 3.5, "dur": 0.5, "rest": false, "notes": [{"pitch": 53, "vel": 73, "dur": 0.5, "tieStart": false, "tieEnd": false, "tieGroup": 0}]}]}, {"ts_num": 4, "ts_den": 4, "key_fifths": 0, "key_mode": 0, "clef": 1, "tempo": 120, "velocity": 100, "lyrics": "", "expr": [], "segs": [{"start": 0.0, "dur": 1.0, "rest": false, "notes": [{"pitch": 48, "vel": 89, "dur": 1.0, "tieStart": false, "tieEnd": false, "tieGroup": 0}, {"pitch": 64, "vel": 85, "dur": 1.0, "tieStart": false, "tieEnd": false, "tieGroup": 0}]}, {"start": 1.0, "dur": 0.5, "rest": false, "notes": [{"pitch": 59, "vel": 89, "dur": 0.5, "tieStart": false, "tieEnd": false, "tieGroup": 0}, {"pitch": 60, "vel": 85, "dur": 0.5, "tieStart": false, "tieEnd": false, "tieGroup": 0}]}, {"start": 1.5, "dur": 0.5, "rest": false, "notes": [{"pitch": 67, "vel": 89, "dur": 0.5, "tieStart": false, "tieEnd": false, "tieGroup": 0}]}, {"start": 2.0, "dur": 0.5, "rest": false, "notes": [{"pitch": 71, "vel": 89, "dur": 0.5, "tieStart": false, "tieEnd": false, "tieGroup": 0}]}, {"start": 2.5, "dur": 1.0, "rest": false, "notes": [{"pitch": 72, "vel": 89, "dur": 1.0, "tieStart": false, "tieEnd": false, "tieGroup": 0}]}, {"start": 3.5, "dur": 0.5, "rest": false, "notes": [{"pitch": 59, "vel": 89, "dur": 0.5, "tieStart": false, "tieEnd": false, "tieGroup": 0}]}]}, {"ts_num": 4, "ts_den": 4, "key_fifths": 0, "key_mode": 0, "clef": 1, "tempo": 120, "velocity": 100, "lyrics": "", "expr": [], "segs": [{"start": 0.0, "dur": 0.5, "rest": false, "notes": [{"pitch": 48, "vel": 81, "dur": 0.5, "tieStart": false, "tieEnd": false, "tieGroup": 0}, {"pitch": 55, "vel": 77, "dur": 0.5, "tieStart": false, "tieEnd": false, "tieGroup": 0}]}, {"start": 0.5, "dur": 0.5, "rest": false, "notes": [{"pitch": 52, "vel": 73, "dur": 0.5, "tieStart": false, "tieEnd": false, "tieGroup": 0}]}, {"start": 1.0, "dur": 0.5, "rest": false, "notes": [{"pitch": 57, "vel": 73, "dur": 0.5, "tieStart": false, "tieEnd": false, "tieGroup": 0}, {"pitch": 60, "vel": 69, "dur": 0.5, "tieStart": false, "tieEnd": false, "tieGroup": 0}]}, {"start": 1.5, "dur": 0.5, "rest": false, "notes": [{"pitch": 55, "vel": 81, "dur": 0.5, "tieStart": false, "tieEnd": false, "tieGroup": 0}]}, {"start": 2.0, "dur": 0.5, "rest": false, "notes": [{"pitch": 64, "vel": 81, "dur": 0.5, "tieStart": false, "tieEnd": false, "tieGroup": 0}]}, {"start": 2.5, "dur": 0.5, "rest": false, "notes": [{"pitch": 52, "vel": 73, "dur": 0.5, "tieStart": false, "tieEnd": false, "tieGroup": 0}]}, {"start": 3.0, "dur": 0.5, "rest": false, "notes": [{"pitch": 57, "vel": 73, "dur": 0.5, "tieStart": false, "tieEnd": false, "tieGroup": 0}]}, {"start": 3.5, "dur": 0.5, "rest": false, "notes": [{"pitch": 55, "vel": 81, "dur": 0.5, "tieStart": false, "tieEnd": false, "tieGroup": 0}, {"pitch": 60, "vel": 77, "dur": 0.5, "tieStart": false, "tieEnd": false, "tieGroup": 0}]}]}, {"ts_num": 4, "ts_den": 4, "key_fifths": 0, "key_mode": 0, "clef": 1, "tempo": 120, "velocity": 100, "lyrics": "", "expr": [], "segs": [{"start": 0.0, "dur": 0.5, "rest": false, "notes": [{"pitch": 43, "vel": 81, "dur": 0.5, "tieStart": false, "tieEnd": false, "tieGroup": 0}, {"pitch": 45, "vel": 77, "dur": 0.5, "tieStart": false, "tieEnd": false, "tieGroup": 0}]}, {"start": 0.5, "dur": 0.5, "rest": false, "notes": [{"pitch": 57, "vel": 81, "dur": 0.5, "tieStart": false, "tieEnd": false, "tieGroup": 0}]}, {"start": 1.0, "dur": 0.5, "rest": false, "notes": [{"pitch": 55, "vel": 73, "dur": 0.5, "tieStart": false, "tieEnd": false, "tieGroup": 0}, {"pitch": 57, "vel": 69, "dur": 0.5, "tieStart": false, "tieEnd": false, "tieGroup": 0}]}, {"start": 1.5, "dur": 0.5, "rest": false, "notes": [{"pitch": 57, "vel": 60, "dur": 0.5, "tieStart": false, "tieEnd": false, "tieGroup": 0}]}, {"start": 2.0, "dur": 1.0, "rest": false, "notes": [{"pitch": 52, "vel": 81, "dur": 1.0, "tieStart": false, "tieEnd": false, "tieGroup": 0}]}, {"start": 3.0, "dur": 0.5, "rest": false, "notes": [{"pitch": 57, "vel": 81, "dur": 0.5, "tieStart": false, "tieEnd": false, "tieGroup": 0}]}, {"start": 3.5, "dur": 0.5, "rest": false, "notes": [{"pitch": 55, "vel": 73, "dur": 0.5, "tieStart": false, "tieEnd": false, "tieGroup": 0}]}]}, {"ts_num": 4, "ts_den": 4, "key_fifths": 0, "key_mode": 0, "clef": 1, "tempo": 120, "velocity": 100, "lyrics": "", "expr": [], "segs": [{"start": 0.0, "dur": 1.0, "rest": false, "notes": [{"pitch": 52, "vel": 81, "dur": 1.0, "tieStart": false, "tieEnd": false, "tieGroup": 0}, {"pitch": 59, "vel": 77, "dur": 1.0, "tieStart": false, "tieEnd": false, "tieGroup": 0}, {"pitch": 62, "vel": 73, "dur": 1.0, "tieStart": false, "tieEnd": false, "tieGroup": 0}, {"pitch": 64, "vel": 69, "dur": 1.0, "tieStart": false, "tieEnd": false, "tieGroup": 0}, {"pitch": 67, "vel": 65, "dur": 1.0, "tieStart": false, "tieEnd": false, "tieGroup": 0}]}, {"start": 1.0, "dur": 1.0, "rest": false, "notes": [{"pitch": 52, "vel": 73, "dur": 1.0, "tieStart": false, "tieEnd": false, "tieGroup": 0}, {"pitch": 59, "vel": 69, "dur": 1.0, "tieStart": false, "tieEnd": false, "tieGroup": 0}, {"pitch": 62, "vel": 65, "dur": 1.0, "tieStart": false, "tieEnd": false, "tieGroup": 0}, {"pitch": 64, "vel": 61, "dur": 1.0, "tieStart": false, "tieEnd": false, "tieGroup": 0}, {"pitch": 67, "vel": 57, "dur": 1.0, "tieStart": false, "tieEnd": false, "tieGroup": 0}]}, {"start": 2.0, "dur": 1.0, "rest": false, "notes": [{"pitch": 52, "vel": 73, "dur": 1.0, "tieStart": false, "tieEnd": false, "tieGroup": 0}, {"pitch": 59, "vel": 69, "dur": 1.0, "tieStart": false, "tieEnd": false, "tieGroup": 0}, {"pitch": 62, "vel": 65, "dur": 1.0, "tieStart": false, "tieEnd": false, "tieGroup": 0}, {"pitch": 64, "vel": 61, "dur": 1.0, "tieStart": false, "tieEnd": false, "tieGroup": 0}, {"pitch": 67, "vel": 57, "dur": 1.0, "tieStart": false, "tieEnd": false, "tieGroup": 0}]}, {"start": 3.0, "dur": 1.0, "rest": false, "notes": [{"pitch": 43, "vel": 73, "dur": 1.0, "tieStart": false, "tieEnd": false, "tieGroup": 0}, {"pitch": 47, "vel": 69, "dur": 1.0, "tieStart": false, "tieEnd": false, "tieGroup": 0}, {"pitch": 50, "vel": 65, "dur": 1.0, "tieStart": false, "tieEnd": false, "tieGroup": 0}, {"pitch": 52, "vel": 61, "dur": 1.0, "tieStart": false, "tieEnd": false, "tieGroup": 0}]}]}, {"ts_num": 4, "ts_den": 4, "key_fifths": 0, "key_mode": 0, "clef": 1, "tempo": 120, "velocity": 100, "lyrics": "", "expr": [], "segs": [{"start": 0.0, "dur": 1.0, "rest": false, "notes": [{"pitch": 52, "vel": 89, "dur": 1.0, "tieStart": false, "tieEnd": false, "tieGroup": 0}, {"pitch": 62, "vel": 85, "dur": 1.0, "tieStart": false, "tieEnd": false, "tieGroup": 0}]}, {"start": 1.0, "dur": 0.5, "rest": false, "notes": [{"pitch": 43, "vel": 81, "dur": 0.5, "tieStart": false, "tieEnd": false, "tieGroup": 0}]}, {"start": 1.5, "dur": 0.5, "rest": false, "notes": [{"pitch": 59, "vel": 81, "dur": 0.5, "tieStart": false, "tieEnd": false, "tieGroup": 0}]}, {"start": 2.0, "dur": 0.5, "rest": false, "notes": [{"pitch": 50, "vel": 89, "dur": 0.5, "tieStart": false, "tieEnd": false, "tieGroup": 0}]}, {"start": 2.5, "dur": 1.0, "rest": false, "notes": [{"pitch": 64, "vel": 89, "dur": 1.0, "tieStart": false, "tieEnd": false, "tieGroup": 0}, {"pitch": 71, "vel": 85, "dur": 1.0, "tieStart": false, "tieEnd": false, "tieGroup": 0}]}, {"start": 3.5, "dur": 0.5, "rest": false, "notes": [{"pitch": 43, "vel": 81, "dur": 0.5, "tieStart": false, "tieEnd": false, "tieGroup": 0}]}]}, {"ts_num": 4, "ts_den": 4, "key_fifths": 0, "key_mode": 0, "clef": 1, "tempo": 120, "velocity": 100, "lyrics": "", "expr": [], "segs": [{"start": 0.0, "dur": 0.5, "rest": false, "notes": [{"pitch": 45, "vel": 73, "dur": 0.5, "tieStart": false, "tieEnd": false, "tieGroup": 0}, {"pitch": 57, "vel": 69, "dur": 0.5, "tieStart": false, "tieEnd": false, "tieGroup": 0}]}, {"start": 0.5, "dur": 0.5, "rest": false, "notes": [{"pitch": 57, "vel": 89, "dur": 0.5, "tieStart": false, "tieEnd": false, "tieGroup": 0}]}, {"start": 1.0, "dur": 0.5, "rest": false, "notes": [{"pitch": 60, "vel": 89, "dur": 0.5, "tieStart": false, "tieEnd": false, "tieGroup": 0}]}, {"start": 1.5, "dur": 0.5, "rest": false, "notes": [{"pitch": 64, "vel": 89, "dur": 0.5, "tieStart": false, "tieEnd": false, "tieGroup": 0}]}, {"start": 2.0, "dur": 0.5, "rest": false, "notes": [{"pitch": 67, "vel": 73, "dur": 0.5, "tieStart": false, "tieEnd": false, "tieGroup": 0}]}, {"start": 2.5, "dur": 0.5, "rest": false, "notes": [{"pitch": 57, "vel": 89, "dur": 0.5, "tieStart": false, "tieEnd": false, "tieGroup": 0}]}, {"start": 3.0, "dur": 0.5, "rest": false, "notes": [{"pitch": 57, "vel": 89, "dur": 0.5, "tieStart": false, "tieEnd": false, "tieGroup": 0}, {"pitch": 60, "vel": 85, "dur": 0.5, "tieStart": false, "tieEnd": false, "tieGroup": 0}]}, {"start": 3.5, "dur": 0.5, "rest": false, "notes": [{"pitch": 64, "vel": 89, "dur": 0.5, "tieStart": false, "tieEnd": false, "tieGroup": 0}]}]}, {"ts_num": 4, "ts_den": 4, "key_fifths": 0, "key_mode": 0, "clef": 1, "tempo": 120, "velocity": 100, "lyrics": "", "expr": [], "segs": [{"start": 0.0, "dur": 0.5, "rest": false, "notes": [{"pitch": 50, "vel": 97, "dur": 0.5, "tieStart": false, "tieEnd": false, "tieGroup": 0}, {"pitch": 60, "vel": 93, "dur": 0.5, "tieStart": false, "tieEnd": false, "tieGroup": 0}]}, {"start": 0.5, "dur": 0.5, "rest": false, "notes": [{"pitch": 62, "vel": 81, "dur": 0.5, "tieStart": false, "tieEnd": false, "tieGroup": 0}]}, {"start": 1.0, "dur": 0.5, "rest": false, "notes": [{"pitch": 65, "vel": 81, "dur": 0.5, "tieStart": false, "tieEnd": false, "tieGroup": 0}]}, {"start": 1.5, "dur": 0.5, "rest": false, "notes": [{"pitch": 62, "vel": 81, "dur": 0.5, "tieStart": false, "tieEnd": false, "tieGroup": 0}, {"pitch": 72, "vel": 77, "dur": 0.5, "tieStart": false, "tieEnd": false, "tieGroup": 0}]}, {"start": 2.0, "dur": 1.0, "rest": false, "notes": [{"pitch": 69, "vel": 97, "dur": 1.0, "tieStart": false, "tieEnd": false, "tieGroup": 0}]}, {"start": 3.0, "dur": 0.5, "rest": false, "notes": [{"pitch": 62, "vel": 81, "dur": 0.5, "tieStart": false, "tieEnd": false, "tieGroup": 0}]}, {"start": 3.5, "dur": 0.5, "rest": false, "notes": [{"pitch": 65, "vel": 81, "dur": 0.5, "tieStart": false, "tieEnd": false, "tieGroup": 0}]}]}, {"ts_num": 4, "ts_den": 4, "key_fifths": 0, "key_mode": 0, "clef": 1, "tempo": 120, "velocity": 100, "lyrics": "", "expr": [], "segs": [{"start": 0.0, "dur": 0.5, "rest": false, "notes": [{"pitch": 43, "vel": 97, "dur": 0.5, "tieStart": false, "tieEnd": false, "tieGroup": 0}, {"pitch": 55, "vel": 93, "dur": 0.5, "tieStart": false, "tieEnd": false, "tieGroup": 0}]}, {"start": 0.5, "dur": 0.5, "rest": false, "notes": [{"pitch": 55, "vel": 97, "dur": 0.5, "tieStart": false, "tieEnd": false, "tieGroup": 0}]}, {"start": 1.0, "dur": 0.5, "rest": false, "notes": [{"pitch": 62, "vel": 73, "dur": 0.5, "tieStart": false, "tieEnd": false, "tieGroup": 0}]}, {"start": 1.5, "dur": 0.5, "rest": false, "notes": [{"pitch": 62, "vel": 73, "dur": 0.5, "tieStart": false, "tieEnd": false, "tieGroup": 0}]}, {"start": 2.0, "dur": 0.5, "rest": false, "notes": [{"pitch": 65, "vel": 97, "dur": 0.5, "tieStart": false, "tieEnd": false, "tieGroup": 0}]}, {"start": 2.5, "dur": 0.5, "rest": false, "notes": [{"pitch": 55, "vel": 97, "dur": 0.5, "tieStart": false, "tieEnd": false, "tieGroup": 0}]}, {"start": 3.0, "dur": 0.5, "rest": false, "notes": [{"pitch": 55, "vel": 73, "dur": 0.5, "tieStart": false, "tieEnd": false, "tieGroup": 0}, {"pitch": 62, "vel": 69, "dur": 0.5, "tieStart": false, "tieEnd": false, "tieGroup": 0}]}, {"start": 3.5, "dur": 0.5, "rest": false, "notes": [{"pitch": 62, "vel": 73, "dur": 0.5, "tieStart": false, "tieEnd": false, "tieGroup": 0}]}]}, {"ts_num": 4, "ts_den": 4, "key_fifths": 0, "key_mode": 0, "clef": 1, "tempo": 120, "velocity": 100, "lyrics": "", "expr": [], "segs": [{"start": 0.0, "dur": 0.5, "rest": false, "notes": [{"pitch": 48, "vel": 81, "dur": 0.5, "tieStart": false, "tieEnd": false, "tieGroup": 0}, {"pitch": 52, "vel": 77, "dur": 0.5, "tieStart": false, "tieEnd": false, "tieGroup": 0}]}, {"start": 0.5, "dur": 0.5, "rest": false, "notes": [{"pitch": 64, "vel": 73, "dur": 0.5, "tieStart": false, "tieEnd": false, "tieGroup": 0}]}, {"start": 1.0, "dur": 0.5, "rest": false, "notes": [{"pitch": 55, "vel": 81, "dur": 0.5, "tieStart": false, "tieEnd": false, "tieGroup": 0}, {"pitch": 60, "vel": 77, "dur": 0.5, "tieStart": false, "tieEnd": false, "tieGroup": 0}]}, {"start": 1.5, "dur": 0.5, "rest": false, "notes": [{"pitch": 59, "vel": 73, "dur": 0.5, "tieStart": false, "tieEnd": false, "tieGroup": 0}]}, {"start": 2.0, "dur": 1.0, "rest": false, "notes": [{"pitch": 60, "vel": 81, "dur": 1.0, "tieStart": false, "tieEnd": false, "tieGroup": 0}]}, {"start": 3.0, "dur": 0.5, "rest": false, "notes": [{"pitch": 64, "vel": 73, "dur": 0.5, "tieStart": false, "tieEnd": false, "tieGroup": 0}]}, {"start": 3.5, "dur": 0.5, "rest": false, "notes": [{"pitch": 55, "vel": 81, "dur": 0.5, "tieStart": false, "tieEnd": false, "tieGroup": 0}]}]}, {"ts_num": 4, "ts_den": 4, "key_fifths": 0, "key_mode": 0, "clef": 1, "tempo": 120, "velocity": 100, "lyrics": "", "expr": [], "segs": [{"start": 0.0, "dur": 0.5, "rest": false, "notes": [{"pitch": 45, "vel": 73, "dur": 0.5, "tieStart": false, "tieEnd": false, "tieGroup": 0}, {"pitch": 52, "vel": 69, "dur": 0.5, "tieStart": false, "tieEnd": false, "tieGroup": 0}]}, {"start": 0.5, "dur": 1.0, "rest": false, "notes": [{"pitch": 55, "vel": 81, "dur": 1.0, "tieStart": false, "tieEnd": false, "tieGroup": 0}]}, {"start": 1.5, "dur": 0.5, "rest": false, "notes": [{"pitch": 57, "vel": 81, "dur": 0.5, "tieStart": false, "tieEnd": false, "tieGroup": 0}]}, {"start": 2.0, "dur": 0.5, "rest": false, "notes": [{"pitch": 64, "vel": 81, "dur": 0.5, "tieStart": false, "tieEnd": false, "tieGroup": 0}]}, {"start": 2.5, "dur": 0.5, "rest": false, "notes": [{"pitch": 60, "vel": 73, "dur": 0.5, "tieStart": false, "tieEnd": false, "tieGroup": 0}]}, {"start": 3.0, "dur": 0.5, "rest": false, "notes": [{"pitch": 55, "vel": 81, "dur": 0.5, "tieStart": false, "tieEnd": false, "tieGroup": 0}]}, {"start": 3.5, "dur": 0.5, "rest": false, "notes": [{"pitch": 57, "vel": 81, "dur": 0.5, "tieStart": false, "tieEnd": false, "tieGroup": 0}]}]}, {"ts_num": 4, "ts_den": 4, "key_fifths": 0, "key_mode": 0, "clef": 1, "tempo": 120, "velocity": 100, "lyrics": "", "expr": [], "segs": [{"start": 0.0, "dur": 0.5, "rest": false, "notes": [{"pitch": 52, "vel": 81, "dur": 0.5, "tieStart": false, "tieEnd": false, "tieGroup": 0}, {"pitch": 53, "vel": 77, "dur": 0.5, "tieStart": false, "tieEnd": false, "tieGroup": 0}]}, {"start": 0.5, "dur": 0.5, "rest": false, "notes": [{"pitch": 60, "vel": 81, "dur": 0.5, "tieStart": false, "tieEnd": false, "tieGroup": 0}, {"pitch": 65, "vel": 77, "dur": 0.5, "tieStart": false, "tieEnd": false, "tieGroup": 0}]}, {"start": 1.0, "dur": 0.5, "rest": false, "notes": [{"pitch": 69, "vel": 81, "dur": 0.5, "tieStart": false, "tieEnd": false, "tieGroup": 0}]}, {"start": 1.5, "dur": 0.5, "rest": false, "notes": [{"pitch": 60, "vel": 89, "dur": 0.5, "tieStart": false, "tieEnd": false, "tieGroup": 0}]}, {"start": 2.0, "dur": 0.5, "rest": false, "notes": [{"pitch": 60, "vel": 81, "dur": 0.5, "tieStart": false, "tieEnd": false, "tieGroup": 0}]}, {"start": 2.5, "dur": 0.5, "rest": false, "notes": [{"pitch": 60, "vel": 81, "dur": 0.5, "tieStart": false, "tieEnd": false, "tieGroup": 0}]}, {"start": 3.0, "dur": 0.5, "rest": false, "notes": [{"pitch": 65, "vel": 81, "dur": 0.5, "tieStart": false, "tieEnd": false, "tieGroup": 0}, {"pitch": 69, "vel": 77, "dur": 0.5, "tieStart": false, "tieEnd": false, "tieGroup": 0}]}, {"start": 3.5, "dur": 0.5, "rest": false, "notes": [{"pitch": 60, "vel": 89, "dur": 0.5, "tieStart": false, "tieEnd": false, "tieGroup": 0}]}]}, {"ts_num": 4, "ts_den": 4, "key_fifths": 0, "key_mode": 0, "clef": 1, "tempo": 120, "velocity": 100, "lyrics": "", "expr": [], "segs": [{"start": 0.0, "dur": 1.0, "rest": false, "notes": [{"pitch": 52, "vel": 89, "dur": 1.0, "tieStart": false, "tieEnd": false, "tieGroup": 0}, {"pitch": 62, "vel": 85, "dur": 1.0, "tieStart": false, "tieEnd": false, "tieGroup": 0}]}, {"start": 1.0, "dur": 0.5, "rest": false, "notes": [{"pitch": 50, "vel": 89, "dur": 0.5, "tieStart": false, "tieEnd": false, "tieGroup": 0}]}, {"start": 1.5, "dur": 0.5, "rest": false, "notes": [{"pitch": 62, "vel": 89, "dur": 0.5, "tieStart": false, "tieEnd": false, "tieGroup": 0}]}, {"start": 2.0, "dur": 0.5, "rest": false, "notes": [{"pitch": 62, "vel": 89, "dur": 0.5, "tieStart": false, "tieEnd": false, "tieGroup": 0}]}, {"start": 2.5, "dur": 1.0, "rest": false, "notes": [{"pitch": 71, "vel": 89, "dur": 1.0, "tieStart": false, "tieEnd": false, "tieGroup": 0}]}, {"start": 3.5, "dur": 0.5, "rest": false, "notes": [{"pitch": 50, "vel": 89, "dur": 0.5, "tieStart": false, "tieEnd": false, "tieGroup": 0}, {"pitch": 64, "vel": 85, "dur": 0.5, "tieStart": false, "tieEnd": false, "tieGroup": 0}]}]}, {"ts_num": 4, "ts_den": 4, "key_fifths": 0, "key_mode": 0, "clef": 1, "tempo": 120, "velocity": 100, "lyrics": "", "expr": [], "segs": [{"start": 0.0, "dur": 0.5, "rest": false, "notes": [{"pitch": 43, "vel": 105, "dur": 0.5, "tieStart": false, "tieEnd": false, "tieGroup": 0}, {"pitch": 48, "vel": 101, "dur": 0.5, "tieStart": false, "tieEnd": false, "tieGroup": 0}]}, {"start": 0.5, "dur": 1.0, "rest": false, "notes": [{"pitch": 48, "vel": 105, "dur": 1.0, "tieStart": false, "tieEnd": false, "tieGroup": 0}]}, {"start": 1.5, "dur": 0.5, "rest": false, "notes": [{"pitch": 55, "vel": 105, "dur": 0.5, "tieStart": false, "tieEnd": false, "tieGroup": 0}]}, {"start": 2.0, "dur": 0.5, "rest": false, "notes": [{"pitch": 57, "vel": 105, "dur": 0.5, "tieStart": false, "tieEnd": false, "tieGroup": 0}, {"pitch": 60, "vel": 101, "dur": 0.5, "tieStart": false, "tieEnd": false, "tieGroup": 0}]}, {"start": 2.5, "dur": 0.5, "rest": false, "notes": [{"pitch": 52, "vel": 105, "dur": 0.5, "tieStart": false, "tieEnd": false, "tieGroup": 0}]}, {"start": 3.0, "dur": 0.5, "rest": false, "notes": [{"pitch": 48, "vel": 105, "dur": 0.5, "tieStart": false, "tieEnd": false, "tieGroup": 0}]}, {"start": 3.5, "dur": 0.5, "rest": false, "notes": [{"pitch": 55, "vel": 105, "dur": 0.5, "tieStart": false, "tieEnd": false, "tieGroup": 0}]}]}, {"ts_num": 4, "ts_den": 4, "key_fifths": 0, "key_mode": 0, "clef": 1, "tempo": 120, "velocity": 100, "lyrics": "", "expr": [], "segs": [{"start": 0.0, "dur": 1.0, "rest": false, "notes": [{"pitch": 48, "vel": 89, "dur": 1.0, "tieStart": false, "tieEnd": false, "tieGroup": 0}, {"pitch": 59, "vel": 85, "dur": 1.0, "tieStart": false, "tieEnd": false, "tieGroup": 0}]}, {"start": 1.0, "dur": 0.5, "rest": false, "notes": [{"pitch": 60, "vel": 81, "dur": 0.5, "tieStart": false, "tieEnd": false, "tieGroup": 0}]}, {"start": 1.5, "dur": 0.5, "rest": false, "notes": [{"pitch": 55, "vel": 89, "dur": 0.5, "tieStart": false, "tieEnd": false, "tieGroup": 0}, {"pitch": 60, "vel": 85, "dur": 0.5, "tieStart": false, "tieEnd": false, "tieGroup": 0}]}, {"start": 2.0, "dur": 0.5, "rest": false, "notes": [{"pitch": 55, "vel": 89, "dur": 0.5, "tieStart": false, "tieEnd": false, "tieGroup": 0}]}, {"start": 2.5, "dur": 1.0, "rest": false, "notes": [{"pitch": 67, "vel": 89, "dur": 1.0, "tieStart": false, "tieEnd": false, "tieGroup": 0}]}, {"start": 3.5, "dur": 0.5, "rest": false, "notes": [{"pitch": 60, "vel": 81, "dur": 0.5, "tieStart": false, "tieEnd": false, "tieGroup": 0}]}]}, {"ts_num": 4, "ts_den": 4, "key_fifths": 0, "key_mode": 0, "clef": 1, "tempo": 120, "velocity": 100, "lyrics": "", "expr": [], "segs": [{"start": 0.0, "dur": 0.75, "rest": true, "notes": []}, {"start": 0.75, "dur": 3.0, "rest": false, "notes": [{"pitch": 62, "vel": 89, "dur": 3.0, "tieStart": false, "tieEnd": false, "tieGroup": 1}]}, {"start": 3.75, "dur": 0.25, "rest": false, "notes": [{"pitch": 43, "vel": 89, "dur": 0.25, "tieStart": false, "tieEnd": false, "tieGroup": 0}, {"pitch": 47, "vel": 85, "dur": 0.25, "tieStart": false, "tieEnd": false, "tieGroup": 0}, {"pitch": 59, "vel": 81, "dur": 0.25, "tieStart": false, "tieEnd": false, "tieGroup": 0}]}]}, {"ts_num": 4, "ts_den": 4, "key_fifths": 0, "key_mode": 0, "clef": 1, "tempo": 120, "velocity": 100, "lyrics": "", "expr": [], "segs": [{"start": 0.0, "dur": 2.0, "rest": false, "notes": [{"pitch": 40, "vel": 81, "dur": 2.0, "tieStart": false, "tieEnd": false, "tieGroup": 0}, {"pitch": 43, "vel": 77, "dur": 2.0, "tieStart": false, "tieEnd": false, "tieGroup": 0}, {"pitch": 48, "vel": 73, "dur": 2.0, "tieStart": false, "tieEnd": false, "tieGroup": 0}]}, {"start": 2.0, "dur": 1.0, "rest": false, "notes": [{"pitch": 40, "vel": 81, "dur": 1.0, "tieStart": false, "tieEnd": false, "tieGroup": 0}, {"pitch": 48, "vel": 77, "dur": 1.0, "tieStart": false, "tieEnd": false, "tieGroup": 0}, {"pitch": 52, "vel": 73, "dur": 1.0, "tieStart": false, "tieEnd": false, "tieGroup": 0}]}, {"start": 3.0, "dur": 1.0, "rest": false, "notes": [{"pitch": 55, "vel": 81, "dur": 1.0, "tieStart": false, "tieEnd": false, "tieGroup": 0}]}]}, {"ts_num": 4, "ts_den": 4, "key_fifths": 0, "key_mode": 0, "clef": 1, "tempo": 120, "velocity": 100, "lyrics": "", "expr": [], "segs": [{"start": 0.0, "dur": 2.0, "rest": false, "notes": [{"pitch": 48, "vel": 81, "dur": 2.0, "tieStart": false, "tieEnd": false, "tieGroup": 0}, {"pitch": 52, "vel": 77, "dur": 2.0, "tieStart": false, "tieEnd": false, "tieGroup": 0}, {"pitch": 64, "vel": 73, "dur": 2.0, "tieStart": false, "tieEnd": false, "tieGroup": 0}]}, {"start": 2.0, "dur": 2.0, "rest": false, "notes": [{"pitch": 48, "vel": 81, "dur": 2.0, "tieStart": false, "tieEnd": false, "tieGroup": 0}, {"pitch": 64, "vel": 77, "dur": 2.0, "tieStart": false, "tieEnd": false, "tieGroup": 0}, {"pitch": 72, "vel": 73, "dur": 2.0, "tieStart": false, "tieEnd": false, "tieGroup": 0}]}]}, {"ts_num": 4, "ts_den": 4, "key_fifths": 0, "key_mode": 0, "clef": 1, "tempo": 120, "velocity": 100, "lyrics": "", "expr": [], "segs": [{"start": 0.0, "dur": 4.0, "rest": true, "notes": []}]}]}, {"name": "반주 AI 자유형", "instrument": {"name": "Stereo Grand", "bankMSB": 0, "bankLSB": 0, "program": 0, "channelHint": -1, "percussion": false, "volume": 68, "pan": 64, "transpose": 0}, "measures": [{"ts_num": 4, "ts_den": 4, "key_fifths": 0, "key_mode": 0, "clef": 1, "tempo": 120, "velocity": 100, "lyrics": "", "expr": [], "segs": [{"start": 0.0, "dur": 1.0, "rest": false, "notes": [{"pitch": 45, "vel": 89, "dur": 1.0, "tieStart": false, "tieEnd": false, "tieGroup": 0}, {"pitch": 55, "vel": 85, "dur": 1.0, "tieStart": false, "tieEnd": false, "tieGroup": 0}, {"pitch": 57, "vel": 81, "dur": 1.0, "tieStart": false, "tieEnd": false, "tieGroup": 0}, {"pitch": 60, "vel": 77, "dur": 1.0, "tieStart": false, "tieEnd": false, "tieGroup": 0}, {"pitch": 72, "vel": 73, "dur": 1.0, "tieStart": false, "tieEnd": false, "tieGroup": 0}]}, {"start": 1.0, "dur": 1.0, "rest": false, "notes": [{"pitch": 67, "vel": 81, "dur": 1.0, "tieStart": false, "tieEnd": false, "tieGroup": 0}]}, {"start": 2.0, "dur": 1.0, "rest": false, "notes": [{"pitch": 45, "vel": 89, "dur": 1.0, "tieStart": false, "tieEnd": false, "tieGroup": 0}, {"pitch": 60, "vel": 85, "dur": 1.0, "tieStart": false, "tieEnd": false, "tieGroup": 0}, {"pitch": 64, "vel": 81, "dur": 1.0, "tieStart": false, "tieEnd": false, "tieGroup": 0}, {"pitch": 67, "vel": 77, "dur": 1.0, "tieStart": false, "tieEnd": false, "tieGroup": 0}, {"pitch": 79, "vel": 73, "dur": 1.0, "tieStart": false, "tieEnd": false, "tieGroup": 0}]}, {"start": 3.0, "dur": 1.0, "rest": false, "notes": [{"pitch": 67, "vel": 77, "dur": 1.0, "tieStart": false, "tieEnd": false, "tieGroup": 0}]}]}, {"ts_num": 4, "ts_den": 4, "key_fifths": 0, "key_mode": 0, "clef": 1, "tempo": 120, "velocity": 100, "lyrics": "", "expr": [], "segs": [{"start": 0.0, "dur": 1.5, "rest": false, "notes": [{"pitch": 50, "vel": 73, "dur": 1.5, "tieStart": false, "tieEnd": false, "tieGroup": 0}, {"pitch": 52, "vel": 69, "dur": 1.5, "tieStart": false, "tieEnd": false, "tieGroup": 0}, {"pitch": 55, "vel": 65, "dur": 1.5, "tieStart": false, "tieEnd": false, "tieGroup": 0}, {"pitch": 67, "vel": 61, "dur": 1.5, "tieStart": false, "tieEnd": false, "tieGroup": 0}]}, {"start": 1.5, "dur": 1.5, "rest": false, "notes": [{"pitch": 52, "vel": 81, "dur": 1.5, "tieStart": false, "tieEnd": false, "tieGroup": 0}, {"pitch": 67, "vel": 77, "dur": 1.5, "tieStart": false, "tieEnd": false, "tieGroup": 0}, {"pitch": 71, "vel": 73, "dur": 1.5, "tieStart": false, "tieEnd": false, "tieGroup": 0}, {"pitch": 74, "vel": 69, "dur": 1.5, "tieStart": false, "tieEnd": false, "tieGroup": 0}, {"pitch": 86, "vel": 65, "dur": 1.5, "tieStart": false, "tieEnd": false, "tieGroup": 0}]}, {"start": 3.0, "dur": 1.0, "rest": false, "notes": [{"pitch": 62, "vel": 73, "dur": 1.0, "tieStart": false, "tieEnd": false, "tieGroup": 0}]}]}, {"ts_num": 4, "ts_den": 4, "key_fifths": 0, "key_mode": 0, "clef": 1, "tempo": 120, "velocity": 100, "lyrics": "", "expr": [], "segs": [{"start": 0.0, "dur": 2.0, "rest": false, "notes": [{"pitch": 48, "vel": 73, "dur": 2.0, "tieStart": false, "tieEnd": false, "tieGroup": 0}, {"pitch": 50, "vel": 69, "dur": 2.0, "tieStart": false, "tieEnd": false, "tieGroup": 0}, {"pitch": 53, "vel": 65, "dur": 2.0, "tieStart": false, "tieEnd": false, "tieGroup": 0}, {"pitch": 64, "vel": 61, "dur": 2.0, "tieStart": false, "tieEnd": false, "tieGroup": 0}]}, {"start": 2.0, "dur": 2.0, "rest": false, "notes": [{"pitch": 50, "vel": 50, "dur": 2.0, "tieStart": false, "tieEnd": false, "tieGroup": 0}, {"pitch": 53, "vel": 46, "dur": 2.0, "tieStart": false, "tieEnd": false, "tieGroup": 0}, {"pitch": 57, "vel": 42, "dur": 2.0, "tieStart": false, "tieEnd": false, "tieGroup": 0}, {"pitch": 67, "vel": 38, "dur": 2.0, "tieStart": false, "tieEnd": false, "tieGroup": 0}]}]}, {"ts_num": 4, "ts_den": 4, "key_fifths": 0, "key_mode": 0, "clef": 1, "tempo": 120, "velocity": 100, "lyrics": "", "expr": [], "segs": [{"start": 0.0, "dur": 2.0, "rest": false, "notes": [{"pitch": 47, "vel": 73, "dur": 2.0, "tieStart": false, "tieEnd": false, "tieGroup": 0}, {"pitch": 52, "vel": 69, "dur": 2.0, "tieStart": false, "tieEnd": false, "tieGroup": 0}, {"pitch": 64, "vel": 65, "dur": 2.0, "tieStart": false, "tieEnd": false, "tieGroup": 0}]}, {"start": 2.0, "dur": 2.0, "rest": false, "notes": [{"pitch": 47, "vel": 73, "dur": 2.0, "tieStart": false, "tieEnd": false, "tieGroup": 0}, {"pitch": 50, "vel": 69, "dur": 2.0, "tieStart": false, "tieEnd": false, "tieGroup": 0}, {"pitch": 52, "vel": 65, "dur": 2.0, "tieStart": false, "tieEnd": false, "tieGroup": 0}, {"pitch": 64, "vel": 61, "dur": 2.0, "tieStart": false, "tieEnd": false, "tieGroup": 0}]}]}, {"ts_num": 4, "ts_den": 4, "key_fifths": 0, "key_mode": 0, "clef": 1, "tempo": 120, "velocity": 100, "lyrics": "", "expr": [], "segs": [{"start": 0.0, "dur": 1.0, "rest": false, "notes": [{"pitch": 45, "vel": 89, "dur": 1.0, "tieStart": false, "tieEnd": false, "tieGroup": 0}, {"pitch": 60, "vel": 85, "dur": 1.0, "tieStart": false, "tieEnd": false, "tieGroup": 0}, {"pitch": 67, "vel": 81, "dur": 1.0, "tieStart": false, "tieEnd": false, "tieGroup": 0}, {"pitch": 76, "vel": 77, "dur": 1.0, "tieStart": false, "tieEnd": false, "tieGroup": 0}]}, {"start": 1.0, "dur": 1.0, "rest": false, "notes": [{"pitch": 45, "vel": 97, "dur": 1.0, "tieStart": false, "tieEnd": false, "tieGroup": 0}, {"pitch": 60, "vel": 93, "dur": 1.0, "tieStart": false, "tieEnd": false, "tieGroup": 0}, {"pitch": 64, "vel": 89, "dur": 1.0, "tieStart": false, "tieEnd": false, "tieGroup": 0}, {"pitch": 67, "vel": 85, "dur": 1.0, "tieStart": false, "tieEnd": false, "tieGroup": 0}, {"pitch": 76, "vel": 81, "dur": 1.0, "tieStart": false, "tieEnd": false, "tieGroup": 0}]}, {"start": 2.0, "dur": 1.0, "rest": false, "notes": [{"pitch": 55, "vel": 77, "dur": 1.0, "tieStart": false, "tieEnd": false, "tieGroup": 0}]}, {"start": 3.0, "dur": 1.0, "rest": false, "notes": [{"pitch": 45, "vel": 89, "dur": 1.0, "tieStart": false, "tieEnd": false, "tieGroup": 0}, {"pitch": 55, "vel": 85, "dur": 1.0, "tieStart": false, "tieEnd": false, "tieGroup": 0}, {"pitch": 60, "vel": 81, "dur": 1.0, "tieStart": false, "tieEnd": false, "tieGroup": 0}, {"pitch": 72, "vel": 77, "dur": 1.0, "tieStart": false, "tieEnd": false, "tieGroup": 0}]}]}, {"ts_num": 4, "ts_den": 4, "key_fifths": 0, "key_mode": 0, "clef": 1, "tempo": 120, "velocity": 100, "lyrics": "", "expr": [], "segs": [{"start": 0.0, "dur": 4.0, "rest": false, "notes": [{"pitch": 50, "vel": 81, "dur": 4.0, "tieStart": false, "tieEnd": false, "tieGroup": 0}, {"pitch": 52, "vel": 77, "dur": 4.0, "tieStart": false, "tieEnd": false, "tieGroup": 0}, {"pitch": 55, "vel": 73, "dur": 4.0, "tieStart": false, "tieEnd": false, "tieGroup": 0}, {"pitch": 67, "vel": 69, "dur": 4.0, "tieStart": false, "tieEnd": false, "tieGroup": 0}]}]}, {"ts_num": 4, "ts_den": 4, "key_fifths": 0, "key_mode": 0, "clef": 1, "tempo": 120, "velocity": 100, "lyrics": "", "expr": [], "segs": [{"start": 0.0, "dur": 1.0, "rest": false, "notes": [{"pitch": 45, "vel": 57, "dur": 1.0, "tieStart": false, "tieEnd": false, "tieGroup": 0}, {"pitch": 48, "vel": 53, "dur": 1.0, "tieStart": false, "tieEnd": false, "tieGroup": 0}, {"pitch": 55, "vel": 49, "dur": 1.0, "tieStart": false, "tieEnd": false, "tieGroup": 0}, {"pitch": 64, "vel": 45, "dur": 1.0, "tieStart": false, "tieEnd": false, "tieGroup": 0}]}, {"start": 1.0, "dur": 1.0, "rest": false, "notes": [{"pitch": 45, "vel": 57, "dur": 1.0, "tieStart": false, "tieEnd": false, "tieGroup": 0}, {"pitch": 52, "vel": 53, "dur": 1.0, "tieStart": false, "tieEnd": false, "tieGroup": 0}, {"pitch": 55, "vel": 49, "dur": 1.0, "tieStart": false, "tieEnd": false, "tieGroup": 0}, {"pitch": 57, "vel": 45, "dur": 1.0, "tieStart": false, "tieEnd": false, "tieGroup": 0}, {"pitch": 67, "vel": 41, "dur": 1.0, "tieStart": false, "tieEnd": false, "tieGroup": 0}]}, {"start": 2.0, "dur": 1.0, "rest": false, "notes": [{"pitch": 60, "vel": 45, "dur": 1.0, "tieStart": false, "tieEnd": false, "tieGroup": 0}, {"pitch": 72, "vel": 41, "dur": 1.0, "tieStart": false, "tieEnd": false, "tieGroup": 0}]}, {"start": 3.0, "dur": 1.0, "rest": false, "notes": [{"pitch": 45, "vel": 65, "dur": 1.0, "tieStart": false, "tieEnd": false, "tieGroup": 0}, {"pitch": 67, "vel": 57, "dur": 1.0, "tieStart": false, "tieEnd": false, "tieGroup": 0}, {"pitch": 69, "vel": 53, "dur": 1.0, "tieStart": false, "tieEnd": false, "tieGroup": 0}]}]}, {"ts_num": 4, "ts_den": 4, "key_fifths": 0, "key_mode": 0, "clef": 1, "tempo": 120, "velocity": 100, "lyrics": "", "expr": [], "segs": [{"start": 0.0, "dur": 2.0, "rest": false, "notes": [{"pitch": 52, "vel": 97, "dur": 2.0, "tieStart": false, "tieEnd": false, "tieGroup": 0}, {"pitch": 59, "vel": 93, "dur": 2.0, "tieStart": false, "tieEnd": false, "tieGroup": 0}, {"pitch": 62, "vel": 89, "dur": 2.0, "tieStart": false, "tieEnd": false, "tieGroup": 0}, {"pitch": 64, "vel": 85, "dur": 2.0, "tieStart": false, "tieEnd": false, "tieGroup": 0}, {"pitch": 76, "vel": 81, "dur": 2.0, "tieStart": false, "tieEnd": false, "tieGroup": 0}]}, {"start": 2.0, "dur": 2.0, "rest": false, "notes": [{"pitch": 52, "vel": 97, "dur": 2.0, "tieStart": false, "tieEnd": false, "tieGroup": 0}, {"pitch": 62, "vel": 93, "dur": 2.0, "tieStart": false, "tieEnd": false, "tieGroup": 0}, {"pitch": 64, "vel": 89, "dur": 2.0, "tieStart": false, "tieEnd": false, "tieGroup": 0}, {"pitch": 67, "vel": 85, "dur": 2.0, "tieStart": false, "tieEnd": false, "tieGroup": 0}, {"pitch": 79, "vel": 81, "dur": 2.0, "tieStart": false, "tieEnd": false, "tieGroup": 0}]}]}, {"ts_num": 4, "ts_den": 4, "key_fifths": 0, "key_mode": 0, "clef": 1, "tempo": 120, "velocity": 100, "lyrics": "", "expr": [], "segs": [{"start": 0.0, "dur": 0.75, "rest": false, "notes": [{"pitch": 43, "vel": 97, "dur": 0.75, "tieStart": false, "tieEnd": false, "tieGroup": 0}, {"pitch": 45, "vel": 93, "dur": 0.75, "tieStart": false, "tieEnd": false, "tieGroup": 0}, {"pitch": 48, "vel": 89, "dur": 0.75, "tieStart": false, "tieEnd": false, "tieGroup": 0}, {"pitch": 55, "vel": 85, "dur": 0.75, "tieStart": false, "tieEnd": false, "tieGroup": 0}]}, {"start": 0.75, "dur": 1.0, "rest": false, "notes": [{"pitch": 45, "vel": 89, "dur": 1.0, "tieStart": false, "tieEnd": false, "tieGroup": 0}, {"pitch": 60, "vel": 85, "dur": 1.0, "tieStart": false, "tieEnd": false, "tieGroup": 0}, {"pitch": 64, "vel": 81, "dur": 1.0, "tieStart": false, "tieEnd": false, "tieGroup": 0}, {"pitch": 67, "vel": 77, "dur": 1.0, "tieStart": false, "tieEnd": false, "tieGroup": 0}, {"pitch": 76, "vel": 73, "dur": 1.0, "tieStart": false, "tieEnd": false, "tieGroup": 0}]}, {"start": 1.75, "dur": 0.25, "rest": false, "notes": [{"pitch": 43, "vel": 97, "dur": 0.25, "tieStart": false, "tieEnd": false, "tieGroup": 0}]}, {"start": 2.0, "dur": 1.0, "rest": false, "notes": [{"pitch": 45, "vel": 81, "dur": 1.0, "tieStart": false, "tieEnd": false, "tieGroup": 0}, {"pitch": 60, "vel": 77, "dur": 1.0, "tieStart": false, "tieEnd": false, "tieGroup": 0}, {"pitch": 67, "vel": 73, "dur": 1.0, "tieStart": false, "tieEnd": false, "tieGroup": 0}]}, {"start": 3.0, "dur": 1.0, "rest": false, "notes": [{"pitch": 64, "vel": 81, "dur": 1.0, "tieStart": false, "tieEnd": false, "tieGroup": 0}, {"pitch": 67, "vel": 77, "dur": 1.0, "tieStart": false, "tieEnd": false, "tieGroup": 0}, {"pitch": 79, "vel": 73, "dur": 1.0, "tieStart": false, "tieEnd": false, "tieGroup": 0}]}]}, {"ts_num": 4, "ts_den": 4, "key_fifths": 0, "key_mode": 0, "clef": 1, "tempo": 120, "velocity": 100, "lyrics": "", "expr": [], "segs": [{"start": 0.0, "dur": 1.0, "rest": true, "notes": []}, {"start": 1.0, "dur": 1.0, "rest": false, "notes": [{"pitch": 52, "vel": 81, "dur": 1.0, "tieStart": false, "tieEnd": false, "tieGroup": 2}, {"pitch": 55, "vel": 77, "dur": 1.0, "tieStart": false, "tieEnd": false, "tieGroup": 0}, {"pitch": 64, "vel": 73, "dur": 1.0, "tieStart": false, "tieEnd": false, "tieGroup": 0}]}, {"start": 2.0, "dur": 2.0, "rest": false, "notes": [{"pitch": 43, "vel": 81, "dur": 2.0, "tieStart": false, "tieEnd": false, "tieGroup": 0}, {"pitch": 52, "vel": 77, "dur": 2.0, "tieStart": false, "tieEnd": false, "tieGroup": 0}, {"pitch": 59, "vel": 73, "dur": 2.0, "tieStart": false, "tieEnd": false, "tieGroup": 0}]}]}, {"ts_num": 4, "ts_den": 4, "key_fifths": 0, "key_mode": 0, "clef": 1, "tempo": 120, "velocity": 100, "lyrics": "", "expr": [], "segs": [{"start": 0.0, "dur": 1.75, "rest": false, "notes": [{"pitch": 45, "vel": 89, "dur": 1.75, "tieStart": false, "tieEnd": false, "tieGroup": 0}, {"pitch": 50, "vel": 85, "dur": 1.75, "tieStart": false, "tieEnd": false, "tieGroup": 0}, {"pitch": 55, "vel": 81, "dur": 1.75, "tieStart": false, "tieEnd": false, "tieGroup": 0}]}, {"start": 1.75, "dur": 1.75, "rest": false, "notes": [{"pitch": 72, "vel": 69, "dur": 1.75, "tieStart": false, "tieEnd": false, "tieGroup": 0}]}, {"start": 3.5, "dur": 0.5, "rest": false, "notes": [{"pitch": 50, "vel": 65, "dur": 0.5, "tieStart": false, "tieEnd": false, "tieGroup": 0}, {"pitch": 53, "vel": 61, "dur": 0.5, "tieStart": false, "tieEnd": false, "tieGroup": 0}, {"pitch": 55, "vel": 57, "dur": 0.5, "tieStart": false, "tieEnd": false, "tieGroup": 0}]}]}, {"ts_num": 4, "ts_den": 4, "key_fifths": 0, "key_mode": 0, "clef": 1, "tempo": 120, "velocity": 100, "lyrics": "", "expr": [], "segs": [{"start": 0.0, "dur": 1.0, "rest": false, "notes": [{"pitch": 50, "vel": 81, "dur": 1.0, "tieStart": false, "tieEnd": false, "tieGroup": 0}, {"pitch": 52, "vel": 77, "dur": 1.0, "tieStart": false, "tieEnd": false, "tieGroup": 0}, {"pitch": 55, "vel": 73, "dur": 1.0, "tieStart": false, "tieEnd": false, "tieGroup": 0}, {"pitch": 67, "vel": 69, "dur": 1.0, "tieStart": false, "tieEnd": false, "tieGroup": 0}]}, {"start": 1.0, "dur": 1.0, "rest": false, "notes": [{"pitch": 59, "vel": 73, "dur": 1.0, "tieStart": false, "tieEnd": false, "tieGroup": 0}, {"pitch": 62, "vel": 69, "dur": 1.0, "tieStart": false, "tieEnd": false, "tieGroup": 0}, {"pitch": 71, "vel": 65, "dur": 1.0, "tieStart": false, "tieEnd": false, "tieGroup": 0}]}, {"start": 2.0, "dur": 1.0, "rest": false, "notes": [{"pitch": 52, "vel": 89, "dur": 1.0, "tieStart": false, "tieEnd": false, "tieGroup": 0}, {"pitch": 62, "vel": 81, "dur": 1.0, "tieStart": false, "tieEnd": false, "tieGroup": 0}, {"pitch": 64, "vel": 77, "dur": 1.0, "tieStart": false, "tieEnd": false, "tieGroup": 0}]}, {"start": 3.0, "dur": 1.0, "rest": false, "notes": [{"pitch": 50, "vel": 81, "dur": 1.0, "tieStart": false, "tieEnd": false, "tieGroup": 0}, {"pitch": 55, "vel": 73, "dur": 1.0, "tieStart": false, "tieEnd": false, "tieGroup": 0}, {"pitch": 67, "vel": 69, "dur": 1.0, "tieStart": false, "tieEnd": false, "tieGroup": 0}]}]}, {"ts_num": 4, "ts_den": 4, "key_fifths": 0, "key_mode": 0, "clef": 1, "tempo": 120, "velocity": 100, "lyrics": "", "expr": [], "segs": [{"start": 0.0, "dur": 1.5, "rest": true, "notes": []}, {"start": 1.5, "dur": 2.5, "rest": false, "notes": [{"pitch": 45, "vel": 89, "dur": 2.5, "tieStart": false, "tieEnd": false, "tieGroup": 3}, {"pitch": 55, "vel": 85, "dur": 2.5, "tieStart": false, "tieEnd": false, "tieGroup": 0}, {"pitch": 57, "vel": 81, "dur": 2.5, "tieStart": false, "tieEnd": false, "tieGroup": 0}, {"pitch": 60, "vel": 77, "dur": 2.5, "tieStart": false, "tieEnd": false, "tieGroup": 0}, {"pitch": 71, "vel": 73, "dur": 2.5, "tieStart": false, "tieEnd": false, "tieGroup": 0}]}]}, {"ts_num": 4, "ts_den": 4, "key_fifths": 0, "key_mode": 0, "clef": 1, "tempo": 120, "velocity": 100, "lyrics": "", "expr": [], "segs": [{"start": 0.0, "dur": 1.0, "rest": false, "notes": [{"pitch": 43, "vel": 89, "dur": 1.0, "tieStart": false, "tieEnd": false, "tieGroup": 0}, {"pitch": 45, "vel": 85, "dur": 1.0, "tieStart": false, "tieEnd": false, "tieGroup": 0}, {"pitch": 48, "vel": 81, "dur": 1.0, "tieStart": false, "tieEnd": false, "tieGroup": 0}, {"pitch": 60, "vel": 77, "dur": 1.0, "tieStart": false, "tieEnd": false, "tieGroup": 0}]}, {"start": 1.0, "dur": 1.0, "rest": false, "notes": [{"pitch": 55, "vel": 85, "dur": 1.0, "tieStart": false, "tieEnd": false, "tieGroup": 0}]}, {"start": 2.0, "dur": 1.0, "rest": false, "notes": [{"pitch": 45, "vel": 89, "dur": 1.0, "tieStart": false, "tieEnd": false, "tieGroup": 0}, {"pitch": 55, "vel": 85, "dur": 1.0, "tieStart": false, "tieEnd": false, "tieGroup": 0}, {"pitch": 57, "vel": 81, "dur": 1.0, "tieStart": false, "tieEnd": false, "tieGroup": 0}, {"pitch": 60, "vel": 77, "dur": 1.0, "tieStart": false, "tieEnd": false, "tieGroup": 0}, {"pitch": 72, "vel": 73, "dur": 1.0, "tieStart": false, "tieEnd": false, "tieGroup": 0}]}, {"start": 3.0, "dur": 1.0, "rest": false, "notes": [{"pitch": 64, "vel": 77, "dur": 1.0, "tieStart": false, "tieEnd": false, "tieGroup": 0}, {"pitch": 76, "vel": 73, "dur": 1.0, "tieStart": false, "tieEnd": false, "tieGroup": 0}]}]}, {"ts_num": 4, "ts_den": 4, "key_fifths": 0, "key_mode": 0, "clef": 1, "tempo": 120, "velocity": 100, "lyrics": "", "expr": [], "segs": [{"start": 0.0, "dur": 1.0, "rest": true, "notes": []}, {"start": 1.0, "dur": 3.0, "rest": false, "notes": [{"pitch": 48, "vel": 81, "dur": 3.0, "tieStart": false, "tieEnd": false, "tieGroup": 4}, {"pitch": 50, "vel": 77, "dur": 3.0, "tieStart": false, "tieEnd": false, "tieGroup": 0}, {"pitch": 53, "vel": 73, "dur": 3.0, "tieStart": false, "tieEnd": false, "tieGroup": 0}, {"pitch": 65, "vel": 69, "dur": 3.0, "tieStart": false, "tieEnd": false, "tieGroup": 0}]}]}, {"ts_num": 4, "ts_den": 4, "key_fifths": 0, "key_mode": 0, "clef": 1, "tempo": 120, "velocity": 100, "lyrics": "", "expr": [], "segs": [{"start": 0.0, "dur": 4.0, "rest": true, "notes": []}]}, {"ts_num": 4, "ts_den": 4, "key_fifths": 0, "key_mode": 0, "clef": 1, "tempo": 120, "velocity": 100, "lyrics": "", "expr": [], "segs": [{"start": 0.0, "dur": 1.0, "rest": false, "notes": [{"pitch": 43, "vel": 81, "dur": 1.0, "tieStart": false, "tieEnd": false, "tieGroup": 0}, {"pitch": 47, "vel": 77, "dur": 1.0, "tieStart": false, "tieEnd": false, "tieGroup": 0}, {"pitch": 50, "vel": 73, "dur": 1.0, "tieStart": false, "tieEnd": false, "tieGroup": 0}, {"pitch": 52, "vel": 69, "dur": 1.0, "tieStart": false, "tieEnd": false, "tieGroup": 0}, {"pitch": 55, "vel": 65, "dur": 1.0, "tieStart": false, "tieEnd": false, "tieGroup": 0}]}, {"start": 1.0, "dur": 1.0, "rest": false, "notes": [{"pitch": 52, "vel": 89, "dur": 1.0, "tieStart": false, "tieEnd": false, "tieGroup": 0}, {"pitch": 62, "vel": 85, "dur": 1.0, "tieStart": false, "tieEnd": false, "tieGroup": 0}, {"pitch": 64, "vel": 81, "dur": 1.0, "tieStart": false, "tieEnd": false, "tieGroup": 0}, {"pitch": 67, "vel": 77, "dur": 1.0, "tieStart": false, "tieEnd": false, "tieGroup": 0}, {"pitch": 79, "vel": 73, "dur": 1.0, "tieStart": false, "tieEnd": false, "tieGroup": 0}]}, {"start": 2.0, "dur": 1.0, "rest": false, "notes": [{"pitch": 59, "vel": 73, "dur": 1.0, "tieStart": false, "tieEnd": false, "tieGroup": 0}, {"pitch": 62, "vel": 69, "dur": 1.0, "tieStart": false, "tieEnd": false, "tieGroup": 0}, {"pitch": 71, "vel": 65, "dur": 1.0, "tieStart": false, "tieEnd": false, "tieGroup": 0}]}, {"start": 3.0, "dur": 1.0, "rest": false, "notes": [{"pitch": 52, "vel": 89, "dur": 1.0, "tieStart": false, "tieEnd": false, "tieGroup": 0}, {"pitch": 62, "vel": 81, "dur": 1.0, "tieStart": false, "tieEnd": false, "tieGroup": 0}, {"pitch": 64, "vel": 77, "dur": 1.0, "tieStart": false, "tieEnd": false, "tieGroup": 0}, {"pitch": 76, "vel": 73, "dur": 1.0, "tieStart": false, "tieEnd": false, "tieGroup": 0}]}]}, {"ts_num": 4, "ts_den": 4, "key_fifths": 0, "key_mode": 0, "clef": 1, "tempo": 120, "velocity": 100, "lyrics": "", "expr": [], "segs": [{"start": 0.0, "dur": 1.0, "rest": false, "notes": [{"pitch": 45, "vel": 97, "dur": 1.0, "tieStart": false, "tieEnd": false, "tieGroup": 0}, {"pitch": 60, "vel": 93, "dur": 1.0, "tieStart": false, "tieEnd": false, "tieGroup": 0}, {"pitch": 64, "vel": 89, "dur": 1.0, "tieStart": false, "tieEnd": false, "tieGroup": 0}, {"pitch": 67, "vel": 85, "dur": 1.0, "tieStart": false, "tieEnd": false, "tieGroup": 0}, {"pitch": 79, "vel": 81, "dur": 1.0, "tieStart": false, "tieEnd": false, "tieGroup": 0}]}, {"start": 1.0, "dur": 1.0, "rest": false, "notes": [{"pitch": 45, "vel": 97, "dur": 1.0, "tieStart": false, "tieEnd": false, "tieGroup": 0}, {"pitch": 60, "vel": 93, "dur": 1.0, "tieStart": false, "tieEnd": false, "tieGroup": 0}, {"pitch": 67, "vel": 89, "dur": 1.0, "tieStart": false, "tieEnd": false, "tieGroup": 0}, {"pitch": 69, "vel": 85, "dur": 1.0, "tieStart": false, "tieEnd": false, "tieGroup": 0}]}, {"start": 2.0, "dur": 1.0, "rest": false, "notes": [{"pitch": 64, "vel": 89, "dur": 1.0, "tieStart": false, "tieEnd": false, "tieGroup": 0}, {"pitch": 67, "vel": 85, "dur": 1.0, "tieStart": false, "tieEnd": false, "tieGroup": 0}, {"pitch": 76, "vel": 81, "dur": 1.0, "tieStart": false, "tieEnd": false, "tieGroup": 0}]}, {"start": 3.0, "dur": 1.0, "rest": false, "notes": [{"pitch": 45, "vel": 97, "dur": 1.0, "tieStart": false, "tieEnd": false, "tieGroup": 0}, {"pitch": 60, "vel": 93, "dur": 1.0, "tieStart": false, "tieEnd": false, "tieGroup": 0}, {"pitch": 64, "vel": 89, "dur": 1.0, "tieStart": false, "tieEnd": false, "tieGroup": 0}, {"pitch": 67, "vel": 85, "dur": 1.0, "tieStart": false, "tieEnd": false, "tieGroup": 0}, {"pitch": 69, "vel": 81, "dur": 1.0, "tieStart": false, "tieEnd": false, "tieGroup": 0}]}]}, {"ts_num": 4, "ts_den": 4, "key_fifths": 0, "key_mode": 0, "clef": 1, "tempo": 120, "velocity": 100, "lyrics": "", "expr": [], "segs": [{"start": 0.0, "dur": 1.0, "rest": false, "notes": [{"pitch": 50, "vel": 114, "dur": 1.0, "tieStart": false, "tieEnd": false, "tieGroup": 0}, {"pitch": 60, "vel": 110, "dur": 1.0, "tieStart": false, "tieEnd": false, "tieGroup": 0}, {"pitch": 62, "vel": 106, "dur": 1.0, "tieStart": false, "tieEnd": false, "tieGroup": 0}, {"pitch": 65, "vel": 102, "dur": 1.0, "tieStart": false, "tieEnd": false, "tieGroup": 0}, {"pitch": 77, "vel": 98, "dur": 1.0, "tieStart": false, "tieEnd": false, "tieGroup": 0}]}, {"start": 1.0, "dur": 3.0, "rest": false, "notes": [{"pitch": 50, "vel": 114, "dur": 3.0, "tieStart": false, "tieEnd": false, "tieGroup": 0}, {"pitch": 65, "vel": 110, "dur": 3.0, "tieStart": false, "tieEnd": false, "tieGroup": 0}, {"pitch": 69, "vel": 106, "dur": 3.0, "tieStart": false, "tieEnd": false, "tieGroup": 0}, {"pitch": 72, "vel": 102, "dur": 3.0, "tieStart": false, "tieEnd": false, "tieGroup": 0}, {"pitch": 74, "vel": 98, "dur": 3.0, "tieStart": false, "tieEnd": false, "tieGroup": 0}]}]}, {"ts_num": 4, "ts_den": 4, "key_fifths": 0, "key_mode": 0, "clef": 1, "tempo": 120, "velocity": 100, "lyrics": "", "expr": [], "segs": [{"start": 0.0, "dur": 1.0, "rest": false, "notes": [{"pitch": 43, "vel": 114, "dur": 1.0, "tieStart": false, "tieEnd": false, "tieGroup": 0}, {"pitch": 47, "vel": 110, "dur": 1.0, "tieStart": false, "tieEnd": false, "tieGroup": 0}, {"pitch": 50, "vel": 106, "dur": 1.0, "tieStart": false, "tieEnd": false, "tieGroup": 0}, {"pitch": 55, "vel": 102, "dur": 1.0, "tieStart": false, "tieEnd": false, "tieGroup": 0}]}, {"start": 1.0, "dur": 3.0, "rest": false, "notes": [{"pitch": 43, "vel": 89, "dur": 3.0, "tieStart": false, "tieEnd": false, "tieGroup": 0}, {"pitch": 55, "vel": 85, "dur": 3.0, "tieStart": false, "tieEnd": false, "tieGroup": 0}, {"pitch": 59, "vel": 81, "dur": 3.0, "tieStart": false, "tieEnd": false, "tieGroup": 0}, {"pitch": 62, "vel": 77, "dur": 3.0, "tieStart": false, "tieEnd": false, "tieGroup": 0}, {"pitch": 71, "vel": 73, "dur": 3.0, "tieStart": false, "tieEnd": false, "tieGroup": 0}]}]}, {"ts_num": 4, "ts_den": 4, "key_fifths": 0, "key_mode": 0, "clef": 1, "tempo": 120, "velocity": 100, "lyrics": "", "expr": [], "segs": [{"start": 0.0, "dur": 4.0, "rest": true, "notes": []}]}, {"ts_num": 4, "ts_den": 4, "key_fifths": 0, "key_mode": 0, "clef": 1, "tempo": 120, "velocity": 100, "lyrics": "", "expr": [], "segs": [{"start": 0.0, "dur": 0.25, "rest": false, "notes": [{"pitch": 43, "vel": 97, "dur": 0.25, "tieStart": false, "tieEnd": false, "tieGroup": 0}, {"pitch": 47, "vel": 93, "dur": 0.25, "tieStart": false, "tieEnd": false, "tieGroup": 0}, {"pitch": 50, "vel": 89, "dur": 0.25, "tieStart": false, "tieEnd": false, "tieGroup": 0}, {"pitch": 52, "vel": 85, "dur": 0.25, "tieStart": false, "tieEnd": false, "tieGroup": 0}, {"pitch": 59, "vel": 81, "dur": 0.25, "tieStart": false, "tieEnd": false, "tieGroup": 0}]}, {"start": 0.25, "dur": 0.25, "rest": false, "notes": [{"pitch": 50, "vel": 97, "dur": 0.25, "tieStart": false, "tieEnd": false, "tieGroup": 0}, {"pitch": 52, "vel": 93, "dur": 0.25, "tieStart": false, "tieEnd": false, "tieGroup": 0}, {"pitch": 55, "vel": 89, "dur": 0.25, "tieStart": false, "tieEnd": false, "tieGroup": 0}, {"pitch": 67, "vel": 85, "dur": 0.25, "tieStart": false, "tieEnd": false, "tieGroup": 0}]}, {"start": 0.5, "dur": 1.0, "rest": false, "notes": [{"pitch": 47, "vel": 93, "dur": 1.0, "tieStart": false, "tieEnd": false, "tieGroup": 0}, {"pitch": 50, "vel": 89, "dur": 1.0, "tieStart": false, "tieEnd": false, "tieGroup": 0}, {"pitch": 59, "vel": 81, "dur": 1.0, "tieStart": false, "tieEnd": false, "tieGroup": 0}]}, {"start": 1.5, "dur": 0.25, "rest": false, "notes": [{"pitch": 52, "vel": 97, "dur": 0.25, "tieStart": false, "tieEnd": false, "tieGroup": 0}, {"pitch": 55, "vel": 93, "dur": 0.25, "tieStart": false, "tieEnd": false, "tieGroup": 0}, {"pitch": 62, "vel": 85, "dur": 0.25, "tieStart": false, "tieEnd": false, "tieGroup": 0}]}, {"start": 1.75, "dur": 0.75, "rest": false, "notes": [{"pitch": 59, "vel": 101, "dur": 0.75, "tieStart": false, "tieEnd": false, "tieGroup": 0}]}, {"start": 2.5, "dur": 1.5, "rest": false, "notes": [{"pitch": 43, "vel": 97, "dur": 1.5, "tieStart": false, "tieEnd": false, "tieGroup": 0}, {"pitch": 50, "vel": 89, "dur": 1.5, "tieStart": false, "tieEnd": false, "tieGroup": 0}, {"pitch": 52, "vel": 85, "dur": 1.5, "tieStart": false, "tieEnd": false, "tieGroup": 0}, {"pitch": 55, "vel": 81, "dur": 1.5, "tieStart": false, "tieEnd": false, "tieGroup": 0}]}]}, {"ts_num": 4, "ts_den": 4, "key_fifths": 0, "key_mode": 0, "clef": 1, "tempo": 120, "velocity": 100, "lyrics": "", "expr": [], "segs": [{"start": 0.0, "dur": 1.0, "rest": false, "notes": [{"pitch": 45, "vel": 89, "dur": 1.0, "tieStart": false, "tieEnd": false, "tieGroup": 0}, {"pitch": 60, "vel": 85, "dur": 1.0, "tieStart": false, "tieEnd": false, "tieGroup": 0}, {"pitch": 64, "vel": 81, "dur": 1.0, "tieStart": false, "tieEnd": false, "tieGroup": 0}, {"pitch": 67, "vel": 77, "dur": 1.0, "tieStart": false, "tieEnd": false, "tieGroup": 0}, {"pitch": 69, "vel": 73, "dur": 1.0, "tieStart": false, "tieEnd": false, "tieGroup": 0}]}, {"start": 1.0, "dur": 1.0, "rest": false, "notes": [{"pitch": 67, "vel": 61, "dur": 1.0, "tieStart": false, "tieEnd": false, "tieGroup": 0}, {"pitch": 71, "vel": 57, "dur": 1.0, "tieStart": false, "tieEnd": false, "tieGroup": 0}]}, {"start": 2.0, "dur": 1.0, "rest": false, "notes": [{"pitch": 45, "vel": 73, "dur": 1.0, "tieStart": false, "tieEnd": false, "tieGroup": 0}, {"pitch": 60, "vel": 69, "dur": 1.0, "tieStart": false, "tieEnd": false, "tieGroup": 0}, {"pitch": 64, "vel": 65, "dur": 1.0, "tieStart": false, "tieEnd": false, "tieGroup": 0}, {"pitch": 67, "vel": 61, "dur": 1.0, "tieStart": false, "tieEnd": false, "tieGroup": 0}, {"pitch": 79, "vel": 57, "dur": 1.0, "tieStart": false, "tieEnd": false, "tieGroup": 0}]}, {"start": 3.0, "dur": 1.0, "rest": false, "notes": [{"pitch": 67, "vel": 69, "dur": 1.0, "tieStart": false, "tieEnd": false, "tieGroup": 0}, {"pitch": 74, "vel": 65, "dur": 1.0, "tieStart": false, "tieEnd": false, "tieGroup": 0}]}]}, {"ts_num": 4, "ts_den": 4, "key_fifths": 0, "key_mode": 0, "clef": 1, "tempo": 120, "velocity": 100, "lyrics": "", "expr": [], "segs": [{"start": 0.0, "dur": 4.0, "rest": true, "notes": []}]}, {"ts_num": 4, "ts_den": 4, "key_fifths": 0, "key_mode": 0, "clef": 1, "tempo": 120, "velocity": 100, "lyrics": "", "expr": [], "segs": [{"start": 0.0, "dur": 1.0, "rest": false, "notes": [{"pitch": 45, "vel": 81, "dur": 1.0, "tieStart": false, "tieEnd": false, "tieGroup": 0}, {"pitch": 48, "vel": 77, "dur": 1.0, "tieStart": false, "tieEnd": false, "tieGroup": 0}, {"pitch": 50, "vel": 73, "dur": 1.0, "tieStart": false, "tieEnd": false, "tieGroup": 0}, {"pitch": 55, "vel": 69, "dur": 1.0, "tieStart": false, "tieEnd": false, "tieGroup": 0}]}, {"start": 1.0, "dur": 1.0, "rest": false, "notes": [{"pitch": 50, "vel": 81, "dur": 1.0, "tieStart": false, "tieEnd": false, "tieGroup": 0}, {"pitch": 57, "vel": 77, "dur": 1.0, "tieStart": false, "tieEnd": false, "tieGroup": 0}, {"pitch": 62, "vel": 73, "dur": 1.0, "tieStart": false, "tieEnd": false, "tieGroup": 0}, {"pitch": 71, "vel": 69, "dur": 1.0, "tieStart": false, "tieEnd": false, "tieGroup": 0}]}, {"start": 2.0, "dur": 1.0, "rest": false, "notes": [{"pitch": 48, "vel": 77, "dur": 1.0, "tieStart": false, "tieEnd": false, "tieGroup": 0}, {"pitch": 55, "vel": 69, "dur": 1.0, "tieStart": false, "tieEnd": false, "tieGroup": 0}]}, {"start": 3.0, "dur": 1.0, "rest": false, "notes": [{"pitch": 50, "vel": 89, "dur": 1.0, "tieStart": false, "tieEnd": false, "tieGroup": 0}, {"pitch": 57, "vel": 85, "dur": 1.0, "tieStart": false, "tieEnd": false, "tieGroup": 0}, {"pitch": 60, "vel": 81, "dur": 1.0, "tieStart": false, "tieEnd": false, "tieGroup": 0}, {"pitch": 62, "vel": 77, "dur": 1.0, "tieStart": false, "tieEnd": false, "tieGroup": 0}, {"pitch": 74, "vel": 73, "dur": 1.0, "tieStart": false, "tieEnd": false, "tieGroup": 0}]}]}, {"ts_num": 4, "ts_den": 4, "key_fifths": 0, "key_mode": 0, "clef": 1, "tempo": 120, "velocity": 100, "lyrics": "", "expr": [], "segs": [{"start": 0.0, "dur": 0.25, "rest": true, "notes": []}, {"start": 0.25, "dur": 3.75, "rest": false, "notes": [{"pitch": 43, "vel": 89, "dur": 3.75, "tieStart": false, "tieEnd": false, "tieGroup": 5}, {"pitch": 55, "vel": 85, "dur": 3.75, "tieStart": false, "tieEnd": false, "tieGroup": 0}, {"pitch": 59, "vel": 81, "dur": 3.75, "tieStart": false, "tieEnd": false, "tieGroup": 0}, {"pitch": 62, "vel": 77, "dur": 3.75, "tieStart": false, "tieEnd": false, "tieGroup": 0}, {"pitch": 72, "vel": 73, "dur": 3.75, "tieStart": false, "tieEnd": false, "tieGroup": 0}]}]}, {"ts_num": 4, "ts_den": 4, "key_fifths": 0, "key_mode": 0, "clef": 1, "tempo": 120, "velocity": 100, "lyrics": "", "expr": [], "segs": [{"start": 0.0, "dur": 1.0, "rest": false, "notes": [{"pitch": 47, "vel": 89, "dur": 1.0, "tieStart": false, "tieEnd": false, "tieGroup": 0}, {"pitch": 48, "vel": 85, "dur": 1.0, "tieStart": false, "tieEnd": false, "tieGroup": 0}, {"pitch": 52, "vel": 81, "dur": 1.0, "tieStart": false, "tieEnd": false, "tieGroup": 0}, {"pitch": 62, "vel": 77, "dur": 1.0, "tieStart": false, "tieEnd": false, "tieGroup": 0}]}, {"start": 1.0, "dur": 3.0, "rest": false, "notes": [{"pitch": 48, "vel": 97, "dur": 3.0, "tieStart": false, "tieEnd": false, "tieGroup": 0}, {"pitch": 52, "vel": 93, "dur": 3.0, "tieStart": false, "tieEnd": false, "tieGroup": 0}, {"pitch": 55, "vel": 89, "dur": 3.0, "tieStart": false, "tieEnd": false, "tieGroup": 0}, {"pitch": 57, "vel": 85, "dur": 3.0, "tieStart": false, "tieEnd": false, "tieGroup": 0}, {"pitch": 67, "vel": 81, "dur": 3.0, "tieStart": false, "tieEnd": false, "tieGroup": 0}]}]}, {"ts_num": 4, "ts_den": 4, "key_fifths": 0, "key_mode": 0, "clef": 1, "tempo": 120, "velocity": 100, "lyrics": "", "expr": [], "segs": [{"start": 0.0, "dur": 0.25, "rest": true, "notes": []}, {"start": 0.25, "dur": 1.0, "rest": false, "notes": [{"pitch": 48, "vel": 89, "dur": 1.0, "tieStart": false, "tieEnd": false, "tieGroup": 6}, {"pitch": 59, "vel": 85, "dur": 1.0, "tieStart": false, "tieEnd": false, "tieGroup": 0}, {"pitch": 60, "vel": 81, "dur": 1.0, "tieStart": false, "tieEnd": false, "tieGroup": 0}, {"pitch": 64, "vel": 77, "dur": 1.0, "tieStart": false, "tieEnd": false, "tieGroup": 0}, {"pitch": 74, "vel": 73, "dur": 1.0, "tieStart": false, "tieEnd": false, "tieGroup": 0}]}, {"start": 1.25, "dur": 1.0, "rest": false, "notes": [{"pitch": 67, "vel": 81, "dur": 1.0, "tieStart": false, "tieEnd": false, "tieGroup": 0}, {"pitch": 69, "vel": 77, "dur": 1.0, "tieStart": false, "tieEnd": false, "tieGroup": 0}, {"pitch": 79, "vel": 73, "dur": 1.0, "tieStart": false, "tieEnd": false, "tieGroup": 0}]}, {"start": 2.25, "dur": 1.0, "rest": false, "notes": [{"pitch": 48, "vel": 89, "dur": 1.0, "tieStart": false, "tieEnd": false, "tieGroup": 0}, {"pitch": 64, "vel": 85, "dur": 1.0, "tieStart": false, "tieEnd": false, "tieGroup": 0}, {"pitch": 71, "vel": 81, "dur": 1.0, "tieStart": false, "tieEnd": false, "tieGroup": 0}]}, {"start": 3.25, "dur": 0.75, "rest": false, "notes": [{"pitch": 67, "vel": 81, "dur": 0.75, "tieStart": false, "tieEnd": false, "tieGroup": 0}, {"pitch": 69, "vel": 77, "dur": 0.75, "tieStart": false, "tieEnd": false, "tieGroup": 0}]}]}, {"ts_num": 4, "ts_den": 4, "key_fifths": 0, "key_mode": 0, "clef": 1, "tempo": 120, "velocity": 100, "lyrics": "", "expr": [], "segs": [{"start": 0.0, "dur": 1.0, "rest": false, "notes": [{"pitch": 43, "vel": 73, "dur": 1.0, "tieStart": false, "tieEnd": false, "tieGroup": 0}, {"pitch": 45, "vel": 69, "dur": 1.0, "tieStart": false, "tieEnd": false, "tieGroup": 0}, {"pitch": 48, "vel": 65, "dur": 1.0, "tieStart": false, "tieEnd": false, "tieGroup": 0}, {"pitch": 57, "vel": 61, "dur": 1.0, "tieStart": false, "tieEnd": false, "tieGroup": 0}]}, {"start": 1.0, "dur": 1.75, "rest": false, "notes": [{"pitch": 43, "vel": 81, "dur": 1.75, "tieStart": false, "tieEnd": false, "tieGroup": 0}, {"pitch": 45, "vel": 77, "dur": 1.75, "tieStart": false, "tieEnd": false, "tieGroup": 0}, {"pitch": 48, "vel": 73, "dur": 1.75, "tieStart": false, "tieEnd": false, "tieGroup": 0}, {"pitch": 60, "vel": 69, "dur": 1.75, "tieStart": false, "tieEnd": false, "tieGroup": 0}]}, {"start": 2.75, "dur": 1.0, "rest": false, "notes": [{"pitch": 45, "vel": 73, "dur": 1.0, "tieStart": false, "tieEnd": false, "tieGroup": 0}, {"pitch": 55, "vel": 69, "dur": 1.0, "tieStart": false, "tieEnd": false, "tieGroup": 0}, {"pitch": 57, "vel": 65, "dur": 1.0, "tieStart": false, "tieEnd": false, "tieGroup": 0}, {"pitch": 60, "vel": 61, "dur": 1.0, "tieStart": false, "tieEnd": false, "tieGroup": 0}, {"pitch": 72, "vel": 57, "dur": 1.0, "tieStart": false, "tieEnd": false, "tieGroup": 0}]}, {"start": 3.75, "dur": 0.25, "rest": false, "notes": [{"pitch": 64, "vel": 69, "dur": 0.25, "tieStart": false, "tieEnd": false, "tieGroup": 0}, {"pitch": 76, "vel": 65, "dur": 0.25, "tieStart": false, "tieEnd": false, "tieGroup": 0}]}]}, {"ts_num": 4, "ts_den": 4, "key_fifths": 0, "key_mode": 0, "clef": 1, "tempo": 120, "velocity": 100, "lyrics": "", "expr": [], "segs": [{"start": 0.0, "dur": 1.0, "rest": false, "notes": [{"pitch": 52, "vel": 89, "dur": 1.0, "tieStart": false, "tieEnd": false, "tieGroup": 0}, {"pitch": 62, "vel": 85, "dur": 1.0, "tieStart": false, "tieEnd": false, "tieGroup": 0}, {"pitch": 67, "vel": 81, "dur": 1.0, "tieStart": false, "tieEnd": false, "tieGroup": 0}, {"pitch": 79, "vel": 77, "dur": 1.0, "tieStart": false, "tieEnd": false, "tieGroup": 0}]}, {"start": 1.0, "dur": 1.0, "rest": false, "notes": [{"pitch": 59, "vel": 85, "dur": 1.0, "tieStart": false, "tieEnd": false, "tieGroup": 0}, {"pitch": 62, "vel": 81, "dur": 1.0, "tieStart": false, "tieEnd": false, "tieGroup": 0}, {"pitch": 74, "vel": 73, "dur": 1.0, "tieStart": false, "tieEnd": false, "tieGroup": 0}]}, {"start": 2.0, "dur": 1.0, "rest": false, "notes": [{"pitch": 52, "vel": 89, "dur": 1.0, "tieStart": false, "tieEnd": false, "tieGroup": 0}, {"pitch": 62, "vel": 81, "dur": 1.0, "tieStart": false, "tieEnd": false, "tieGroup": 0}, {"pitch": 64, "vel": 77, "dur": 1.0, "tieStart": false, "tieEnd": false, "tieGroup": 0}]}, {"start": 3.0, "dur": 1.0, "rest": false, "notes": [{"pitch": 62, "vel": 85, "dur": 1.0, "tieStart": false, "tieEnd": false, "tieGroup": 0}, {"pitch": 67, "vel": 81, "dur": 1.0, "tieStart": false, "tieEnd": false, "tieGroup": 0}, {"pitch": 79, "vel": 77, "dur": 1.0, "tieStart": false, "tieEnd": false, "tieGroup": 0}]}]}, {"ts_num": 4, "ts_den": 4, "key_fifths": 0, "key_mode": 0, "clef": 1, "tempo": 120, "velocity": 100, "lyrics": "", "expr": [], "segs": [{"start": 0.0, "dur": 1.0, "rest": false, "notes": [{"pitch": 50, "vel": 89, "dur": 1.0, "tieStart": false, "tieEnd": false, "tieGroup": 0}, {"pitch": 52, "vel": 85, "dur": 1.0, "tieStart": false, "tieEnd": false, "tieGroup": 0}, {"pitch": 55, "vel": 81, "dur": 1.0, "tieStart": false, "tieEnd": false, "tieGroup": 0}, {"pitch": 67, "vel": 77, "dur": 1.0, "tieStart": false, "tieEnd": false, "tieGroup": 0}]}, {"start": 1.0, "dur": 1.0, "rest": false, "notes": [{"pitch": 47, "vel": 89, "dur": 1.0, "tieStart": false, "tieEnd": false, "tieGroup": 0}, {"pitch": 50, "vel": 85, "dur": 1.0, "tieStart": false, "tieEnd": false, "tieGroup": 0}]}, {"start": 2.0, "dur": 1.0, "rest": false, "notes": [{"pitch": 43, "vel": 97, "dur": 1.0, "tieStart": false, "tieEnd": false, "tieGroup": 0}, {"pitch": 50, "vel": 89, "dur": 1.0, "tieStart": false, "tieEnd": false, "tieGroup": 0}, {"pitch": 52, "vel": 85, "dur": 1.0, "tieStart": false, "tieEnd": false, "tieGroup": 0}]}, {"start": 3.0, "dur": 1.0, "rest": false, "notes": [{"pitch": 50, "vel": 81, "dur": 1.0, "tieStart": false, "tieEnd": false, "tieGroup": 0}]}]}, {"ts_num": 4, "ts_den": 4, "key_fifths": 0, "key_mode": 0, "clef": 1, "tempo": 120, "velocity": 100, "lyrics": "", "expr": [], "segs": [{"start": 0.0, "dur": 1.0, "rest": false, "notes": [{"pitch": 45, "vel": 73, "dur": 1.0, "tieStart": false, "tieEnd": false, "tieGroup": 0}, {"pitch": 48, "vel": 69, "dur": 1.0, "tieStart": false, "tieEnd": false, "tieGroup": 0}, {"pitch": 52, "vel": 65, "dur": 1.0, "tieStart": false, "tieEnd": false, "tieGroup": 0}, {"pitch": 62, "vel": 61, "dur": 1.0, "tieStart": false, "tieEnd": false, "tieGroup": 0}]}, {"start": 1.0, "dur": 1.0, "rest": false, "notes": [{"pitch": 45, "vel": 81, "dur": 1.0, "tieStart": false, "tieEnd": false, "tieGroup": 0}, {"pitch": 48, "vel": 77, "dur": 1.0, "tieStart": false, "tieEnd": false, "tieGroup": 0}, {"pitch": 52, "vel": 73, "dur": 1.0, "tieStart": false, "tieEnd": false, "tieGroup": 0}, {"pitch": 62, "vel": 69, "dur": 1.0, "tieStart": false, "tieEnd": false, "tieGroup": 0}]}, {"start": 2.0, "dur": 1.0, "rest": false, "notes": [{"pitch": 45, "vel": 65, "dur": 1.0, "tieStart": false, "tieEnd": false, "tieGroup": 0}, {"pitch": 48, "vel": 61, "dur": 1.0, "tieStart": false, "tieEnd": false, "tieGroup": 0}, {"pitch": 52, "vel": 57, "dur": 1.0, "tieStart": false, "tieEnd": false, "tieGroup": 0}, {"pitch": 55, "vel": 53, "dur": 1.0, "tieStart": false, "tieEnd": false, "tieGroup": 0}, {"pitch": 64, "vel": 49, "dur": 1.0, "tieStart": false, "tieEnd": false, "tieGroup": 0}]}, {"start": 3.0, "dur": 1.0, "rest": false, "notes": [{"pitch": 45, "vel": 73, "dur": 1.0, "tieStart": false, "tieEnd": false, "tieGroup": 0}, {"pitch": 60, "vel": 69, "dur": 1.0, "tieStart": false, "tieEnd": false, "tieGroup": 0}, {"pitch": 64, "vel": 65, "dur": 1.0, "tieStart": false, "tieEnd": false, "tieGroup": 0}, {"pitch": 67, "vel": 61, "dur": 1.0, "tieStart": false, "tieEnd": false, "tieGroup": 0}, {"pitch": 76, "vel": 57, "dur": 1.0, "tieStart": false, "tieEnd": false, "tieGroup": 0}]}]}, {"ts_num": 4, "ts_den": 4, "key_fifths": 0, "key_mode": 0, "clef": 1, "tempo": 120, "velocity": 100, "lyrics": "", "expr": [], "segs": [{"start": 0.0, "dur": 1.0, "rest": true, "notes": []}, {"start": 1.0, "dur": 1.0, "rest": false, "notes": [{"pitch": 50, "vel": 73, "dur": 1.0, "tieStart": false, "tieEnd": false, "tieGroup": 7}, {"pitch": 57, "vel": 69, "dur": 1.0, "tieStart": false, "tieEnd": false, "tieGroup": 0}, {"pitch": 60, "vel": 65, "dur": 1.0, "tieStart": false, "tieEnd": false, "tieGroup": 0}, {"pitch": 62, "vel": 61, "dur": 1.0, "tieStart": false, "tieEnd": false, "tieGroup": 0}, {"pitch": 72, "vel": 57, "dur": 1.0, "tieStart": false, "tieEnd": false, "tieGroup": 0}]}, {"start": 2.0, "dur": 1.0, "rest": false, "notes": [{"pitch": 65, "vel": 73, "dur": 1.0, "tieStart": false, "tieEnd": false, "tieGroup": 0}, {"pitch": 77, "vel": 69, "dur": 1.0, "tieStart": false, "tieEnd": false, "tieGroup": 0}]}, {"start": 3.0, "dur": 1.0, "rest": false, "notes": [{"pitch": 50, "vel": 81, "dur": 1.0, "tieStart": false, "tieEnd": false, "tieGroup": 0}, {"pitch": 60, "vel": 77, "dur": 1.0, "tieStart": false, "tieEnd": false, "tieGroup": 0}, {"pitch": 62, "vel": 73, "dur": 1.0, "tieStart": false, "tieEnd": false, "tieGroup": 0}, {"pitch": 76, "vel": 65, "dur": 1.0, "tieStart": false, "tieEnd": false, "tieGroup": 0}]}]}, {"ts_num": 4, "ts_den": 4, "key_fifths": 0, "key_mode": 0, "clef": 1, "tempo": 120, "velocity": 100, "lyrics": "", "expr": [], "segs": [{"start": 0.0, "dur": 1.0, "rest": false, "notes": [{"pitch": 43, "vel": 73, "dur": 1.0, "tieStart": false, "tieEnd": false, "tieGroup": 0}, {"pitch": 55, "vel": 69, "dur": 1.0, "tieStart": false, "tieEnd": false, "tieGroup": 0}, {"pitch": 59, "vel": 65, "dur": 1.0, "tieStart": false, "tieEnd": false, "tieGroup": 0}, {"pitch": 62, "vel": 61, "dur": 1.0, "tieStart": false, "tieEnd": false, "tieGroup": 0}, {"pitch": 72, "vel": 57, "dur": 1.0, "tieStart": false, "tieEnd": false, "tieGroup": 0}]}, {"start": 1.0, "dur": 1.0, "rest": false, "notes": [{"pitch": 43, "vel": 89, "dur": 1.0, "tieStart": false, "tieEnd": false, "tieGroup": 0}, {"pitch": 55, "vel": 85, "dur": 1.0, "tieStart": false, "tieEnd": false, "tieGroup": 0}, {"pitch": 59, "vel": 81, "dur": 1.0, "tieStart": false, "tieEnd": false, "tieGroup": 0}, {"pitch": 62, "vel": 77, "dur": 1.0, "tieStart": false, "tieEnd": false, "tieGroup": 0}, {"pitch": 72, "vel": 73, "dur": 1.0, "tieStart": false, "tieEnd": false, "tieGroup": 0}]}, {"start": 2.0, "dur": 1.0, "rest": false, "notes": [{"pitch": 43, "vel": 81, "dur": 1.0, "tieStart": false, "tieEnd": false, "tieGroup": 0}, {"pitch": 47, "vel": 77, "dur": 1.0, "tieStart": false, "tieEnd": false, "tieGroup": 0}, {"pitch": 50, "vel": 73, "dur": 1.0, "tieStart": false, "tieEnd": false, "tieGroup": 0}, {"pitch": 60, "vel": 69, "dur": 1.0, "tieStart": false, "tieEnd": false, "tieGroup": 0}]}, {"start": 3.0, "dur": 1.0, "rest": false, "notes": [{"pitch": 65, "vel": 77, "dur": 1.0, "tieStart": false, "tieEnd": false, "tieGroup": 0}]}]}, {"ts_num": 4, "ts_den": 4, "key_fifths": 0, "key_mode": 0, "clef": 1, "tempo": 120, "velocity": 100, "lyrics": "", "expr": [], "segs": [{"start": 0.0, "dur": 1.0, "rest": false, "notes": [{"pitch": 48, "vel": 89, "dur": 1.0, "tieStart": false, "tieEnd": false, "tieGroup": 0}, {"pitch": 60, "vel": 85, "dur": 1.0, "tieStart": false, "tieEnd": false, "tieGroup": 0}, {"pitch": 64, "vel": 81, "dur": 1.0, "tieStart": false, "tieEnd": false, "tieGroup": 0}, {"pitch": 67, "vel": 77, "dur": 1.0, "tieStart": false, "tieEnd": false, "tieGroup": 0}, {"pitch": 69, "vel": 73, "dur": 1.0, "tieStart": false, "tieEnd": false, "tieGroup": 0}]}, {"start": 1.0, "dur": 1.0, "rest": false, "notes": [{"pitch": 48, "vel": 81, "dur": 1.0, "tieStart": false, "tieEnd": false, "tieGroup": 0}, {"pitch": 60, "vel": 77, "dur": 1.0, "tieStart": false, "tieEnd": false, "tieGroup": 0}, {"pitch": 67, "vel": 73, "dur": 1.0, "tieStart": false, "tieEnd": false, "tieGroup": 0}, {"pitch": 79, "vel": 69, "dur": 1.0, "tieStart": false, "tieEnd": false, "tieGroup": 0}]}, {"start": 2.0, "dur": 1.0, "rest": false, "notes": [{"pitch": 47, "vel": 77, "dur": 1.0, "tieStart": false, "tieEnd": false, "tieGroup": 0}]}, {"start": 3.0, "dur": 1.0, "rest": false, "notes": [{"pitch": 48, "vel": 65, "dur": 1.0, "tieStart": false, "tieEnd": false, "tieGroup": 0}, {"pitch": 55, "vel": 61, "dur": 1.0, "tieStart": false, "tieEnd": false, "tieGroup": 0}, {"pitch": 57, "vel": 57, "dur": 1.0, "tieStart": false, "tieEnd": false, "tieGroup": 0}, {"pitch": 60, "vel": 53, "dur": 1.0, "tieStart": false, "tieEnd": false, "tieGroup": 0}]}]}, {"ts_num": 4, "ts_den": 4, "key_fifths": 0, "key_mode": 0, "clef": 1, "tempo": 120, "velocity": 100, "lyrics": "", "expr": [], "segs": [{"start": 0.0, "dur": 1.5, "rest": false, "notes": [{"pitch": 45, "vel": 81, "dur": 1.5, "tieStart": false, "tieEnd": false, "tieGroup": 0}, {"pitch": 52, "vel": 77, "dur": 1.5, "tieStart": false, "tieEnd": false, "tieGroup": 0}, {"pitch": 55, "vel": 73, "dur": 1.5, "tieStart": false, "tieEnd": false, "tieGroup": 0}, {"pitch": 57, "vel": 69, "dur": 1.5, "tieStart": false, "tieEnd": false, "tieGroup": 0}, {"pitch": 69, "vel": 65, "dur": 1.5, "tieStart": false, "tieEnd": false, "tieGroup": 0}]}, {"start": 1.5, "dur": 1.5, "rest": false, "notes": [{"pitch": 55, "vel": 73, "dur": 1.5, "tieStart": false, "tieEnd": false, "tieGroup": 0}]}, {"start": 3.0, "dur": 1.0, "rest": false, "notes": [{"pitch": 45, "vel": 81, "dur": 1.0, "tieStart": false, "tieEnd": false, "tieGroup": 0}, {"pitch": 55, "vel": 77, "dur": 1.0, "tieStart": false, "tieEnd": false, "tieGroup": 0}, {"pitch": 57, "vel": 73, "dur": 1.0, "tieStart": false, "tieEnd": false, "tieGroup": 0}, {"pitch": 60, "vel": 69, "dur": 1.0, "tieStart": false, "tieEnd": false, "tieGroup": 0}, {"pitch": 72, "vel": 65, "dur": 1.0, "tieStart": false, "tieEnd": false, "tieGroup": 0}]}]}, {"ts_num": 4, "ts_den": 4, "key_fifths": 0, "key_mode": 0, "clef": 1, "tempo": 120, "velocity": 100, "lyrics": "", "expr": [], "segs": [{"start": 0.0, "dur": 1.0, "rest": false, "notes": [{"pitch": 53, "vel": 81, "dur": 1.0, "tieStart": false, "tieEnd": false, "tieGroup": 0}, {"pitch": 60, "vel": 77, "dur": 1.0, "tieStart": false, "tieEnd": false, "tieGroup": 0}, {"pitch": 62, "vel": 73, "dur": 1.0, "tieStart": false, "tieEnd": false, "tieGroup": 0}, {"pitch": 65, "vel": 69, "dur": 1.0, "tieStart": false, "tieEnd": false, "tieGroup": 0}, {"pitch": 76, "vel": 65, "dur": 1.0, "tieStart": false, "tieEnd": false, "tieGroup": 0}]}, {"start": 1.0, "dur": 3.0, "rest": false, "notes": [{"pitch": 45, "vel": 81, "dur": 3.0, "tieStart": false, "tieEnd": false, "tieGroup": 0}, {"pitch": 57, "vel": 69, "dur": 3.0, "tieStart": false, "tieEnd": false, "tieGroup": 0}]}]}, {"ts_num": 4, "ts_den": 4, "key_fifths": 0, "key_mode": 0, "clef": 1, "tempo": 120, "velocity": 100, "lyrics": "", "expr": [], "segs": [{"start": 0.0, "dur": 1.0, "rest": false, "notes": [{"pitch": 52, "vel": 89, "dur": 1.0, "tieStart": false, "tieEnd": false, "tieGroup": 0}, {"pitch": 55, "vel": 85, "dur": 1.0, "tieStart": false, "tieEnd": false, "tieGroup": 0}, {"pitch": 59, "vel": 81, "dur": 1.0, "tieStart": false, "tieEnd": false, "tieGroup": 0}, {"pitch": 62, "vel": 77, "dur": 1.0, "tieStart": false, "tieEnd": false, "tieGroup": 0}, {"pitch": 71, "vel": 73, "dur": 1.0, "tieStart": false, "tieEnd": false, "tieGroup": 0}]}, {"start": 1.0, "dur": 3.0, "rest": false, "notes": [{"pitch": 69, "vel": 81, "dur": 3.0, "tieStart": false, "tieEnd": false, "tieGroup": 0}]}]}, {"ts_num": 4, "ts_den": 4, "key_fifths": 0, "key_mode": 0, "clef": 1, "tempo": 120, "velocity": 100, "lyrics": "", "expr": [], "segs": [{"start": 0.0, "dur": 1.5, "rest": true, "notes": []}, {"start": 1.5, "dur": 1.0, "rest": false, "notes": [{"pitch": 48, "vel": 50, "dur": 1.0, "tieStart": false, "tieEnd": false, "tieGroup": 8}, {"pitch": 55, "vel": 46, "dur": 1.0, "tieStart": false, "tieEnd": false, "tieGroup": 0}, {"pitch": 57, "vel": 42, "dur": 1.0, "tieStart": false, "tieEnd": false, "tieGroup": 0}, {"pitch": 60, "vel": 38, "dur": 1.0, "tieStart": false, "tieEnd": false, "tieGroup": 0}, {"pitch": 72, "vel": 34, "dur": 1.0, "tieStart": false, "tieEnd": false, "tieGroup": 0}]}, {"start": 2.5, "dur": 1.0, "rest": false, "notes": [{"pitch": 59, "vel": 49, "dur": 1.0, "tieStart": false, "tieEnd": false, "tieGroup": 0}]}, {"start": 3.5, "dur": 0.5, "rest": false, "notes": [{"pitch": 48, "vel": 50, "dur": 0.5, "tieStart": false, "tieEnd": false, "tieGroup": 0}, {"pitch": 60, "vel": 46, "dur": 0.5, "tieStart": false, "tieEnd": false, "tieGroup": 0}, {"pitch": 64, "vel": 42, "dur": 0.5, "tieStart": false, "tieEnd": false, "tieGroup": 0}, {"pitch": 67, "vel": 38, "dur": 0.5, "tieStart": false, "tieEnd": false, "tieGroup": 0}, {"pitch": 76, "vel": 34, "dur": 0.5, "tieStart": false, "tieEnd": false, "tieGroup": 0}]}]}, {"ts_num": 4, "ts_den": 4, "key_fifths": 0, "key_mode": 0, "clef": 1, "tempo": 120, "velocity": 100, "lyrics": "", "expr": [], "segs": [{"start": 0.0, "dur": 1.0, "rest": false, "notes": [{"pitch": 48, "vel": 89, "dur": 1.0, "tieStart": false, "tieEnd": false, "tieGroup": 0}, {"pitch": 60, "vel": 85, "dur": 1.0, "tieStart": false, "tieEnd": false, "tieGroup": 0}, {"pitch": 67, "vel": 81, "dur": 1.0, "tieStart": false, "tieEnd": false, "tieGroup": 0}, {"pitch": 76, "vel": 77, "dur": 1.0, "tieStart": false, "tieEnd": false, "tieGroup": 0}]}, {"start": 1.0, "dur": 1.0, "rest": false, "notes": [{"pitch": 48, "vel": 65, "dur": 1.0, "tieStart": false, "tieEnd": false, "tieGroup": 0}, {"pitch": 60, "vel": 61, "dur": 1.0, "tieStart": false, "tieEnd": false, "tieGroup": 0}, {"pitch": 64, "vel": 57, "dur": 1.0, "tieStart": false, "tieEnd": false, "tieGroup": 0}, {"pitch": 67, "vel": 53, "dur": 1.0, "tieStart": false, "tieEnd": false, "tieGroup": 0}, {"pitch": 76, "vel": 49, "dur": 1.0, "tieStart": false, "tieEnd": false, "tieGroup": 0}]}, {"start": 2.0, "dur": 1.0, "rest": false, "notes": [{"pitch": 48, "vel": 73, "dur": 1.0, "tieStart": false, "tieEnd": false, "tieGroup": 0}, {"pitch": 60, "vel": 69, "dur": 1.0, "tieStart": false, "tieEnd": false, "tieGroup": 0}, {"pitch": 64, "vel": 65, "dur": 1.0, "tieStart": false, "tieEnd": false, "tieGroup": 0}, {"pitch": 67, "vel": 61, "dur": 1.0, "tieStart": false, "tieEnd": false, "tieGroup": 0}, {"pitch": 76, "vel": 57, "dur": 1.0, "tieStart": false, "tieEnd": false, "tieGroup": 0}]}, {"start": 3.0, "dur": 1.0, "rest": false, "notes": [{"pitch": 59, "vel": 93, "dur": 1.0, "tieStart": false, "tieEnd": false, "tieGroup": 0}]}]}, {"ts_num": 4, "ts_den": 4, "key_fifths": 0, "key_mode": 0, "clef": 1, "tempo": 120, "velocity": 100, "lyrics": "", "expr": [], "segs": [{"start": 0.0, "dur": 2.0, "rest": false, "notes": [{"pitch": 43, "vel": 81, "dur": 2.0, "tieStart": false, "tieEnd": false, "tieGroup": 0}, {"pitch": 47, "vel": 77, "dur": 2.0, "tieStart": false, "tieEnd": false, "tieGroup": 0}, {"pitch": 48, "vel": 73, "dur": 2.0, "tieStart": false, "tieEnd": false, "tieGroup": 0}]}, {"start": 2.0, "dur": 2.0, "rest": false, "notes": [{"pitch": 43, "vel": 65, "dur": 2.0, "tieStart": false, "tieEnd": false, "tieGroup": 0}, {"pitch": 59, "vel": 61, "dur": 2.0, "tieStart": false, "tieEnd": false, "tieGroup": 0}, {"pitch": 62, "vel": 57, "dur": 2.0, "tieStart": false, "tieEnd": false, "tieGroup": 0}, {"pitch": 64, "vel": 53, "dur": 2.0, "tieStart": false, "tieEnd": false, "tieGroup": 0}]}]}, {"ts_num": 4, "ts_den": 4, "key_fifths": 0, "key_mode": 0, "clef": 1, "tempo": 120, "velocity": 100, "lyrics": "", "expr": [], "segs": [{"start": 0.0, "dur": 4.0, "rest": true, "notes": []}]}, {"ts_num": 4, "ts_den": 4, "key_fifths": 0, "key_mode": 0, "clef": 1, "tempo": 120, "velocity": 100, "lyrics": "", "expr": [], "segs": [{"start": 0.0, "dur": 2.0, "rest": false, "notes": [{"pitch": 48, "vel": 73, "dur": 2.0, "tieStart": false, "tieEnd": false, "tieGroup": 0}, {"pitch": 55, "vel": 69, "dur": 2.0, "tieStart": false, "tieEnd": false, "tieGroup": 0}, {"pitch": 62, "vel": 65, "dur": 2.0, "tieStart": false, "tieEnd": false, "tieGroup": 0}, {"pitch": 72, "vel": 61, "dur": 2.0, "tieStart": false, "tieEnd": false, "tieGroup": 0}]}, {"start": 2.0, "dur": 2.0, "rest": false, "notes": [{"pitch": 48, "vel": 81, "dur": 2.0, "tieStart": false, "tieEnd": false, "tieGroup": 0}, {"pitch": 60, "vel": 77, "dur": 2.0, "tieStart": false, "tieEnd": false, "tieGroup": 0}, {"pitch": 64, "vel": 73, "dur": 2.0, "tieStart": false, "tieEnd": false, "tieGroup": 0}, {"pitch": 76, "vel": 69, "dur": 2.0, "tieStart": false, "tieEnd": false, "tieGroup": 0}]}]}, {"ts_num": 4, "ts_den": 4, "key_fifths": 0, "key_mode": 0, "clef": 1, "tempo": 120, "velocity": 100, "lyrics": "", "expr": [], "segs": [{"start": 0.0, "dur": 4.0, "rest": true, "notes": []}]}]}, {"name": "반주 아르페지오", "instrument": {"name": "Slap Bass 2", "bankMSB": 0, "bankLSB": 0, "program": 37, "channelHint": -1, "percussion": false, "volume": 104, "pan": 64, "transpose": 0}, "measures": [{"ts_num": 4, "ts_den": 4, "key_fifths": 0, "key_mode": 0, "clef": 1, "tempo": 120, "velocity": 100, "lyrics": "", "expr": [], "segs": [{"start": 0.0, "dur": 1.0, "rest": false, "notes": [{"pitch": 45, "vel": 89, "dur": 1.0, "tieStart": false, "tieEnd": false, "tieGroup": 0}, {"pitch": 55, "vel": 85, "dur": 1.0, "tieStart": false, "tieEnd": false, "tieGroup": 0}]}, {"start": 1.0, "dur": 0.5, "rest": false, "notes": [{"pitch": 52, "vel": 89, "dur": 0.5, "tieStart": false, "tieEnd": false, "tieGroup": 0}]}, {"start": 1.5, "dur": 0.5, "rest": false, "notes": [{"pitch": 57, "vel": 89, "dur": 0.5, "tieStart": false, "tieEnd": false, "tieGroup": 0}, {"pitch": 64, "vel": 85, "dur": 0.5, "tieStart": false, "tieEnd": false, "tieGroup": 0}]}, {"start": 2.0, "dur": 0.5, "rest": false, "notes": [{"pitch": 60, "vel": 89, "dur": 0.5, "tieStart": false, "tieEnd": false, "tieGroup": 0}]}, {"start": 2.5, "dur": 1.0, "rest": false, "notes": [{"pitch": 64, "vel": 89, "dur": 1.0, "tieStart": false, "tieEnd": false, "tieGroup": 0}]}, {"start": 3.5, "dur": 0.5, "rest": false, "notes": [{"pitch": 52, "vel": 89, "dur": 0.5, "tieStart": false, "tieEnd": false, "tieGroup": 0}]}]}, {"ts_num": 4, "ts_den": 4, "key_fifths": 0, "key_mode": 0, "clef": 1, "tempo": 120, "velocity": 100, "lyrics": "", "expr": [], "segs": [{"start": 0.0, "dur": 1.0, "rest": false, "notes": [{"pitch": 52, "vel": 89, "dur": 1.0, "tieStart": false, "tieEnd": false, "tieGroup": 0}, {"pitch": 59, "vel": 85, "dur": 1.0, "tieStart": false, "tieEnd": false, "tieGroup": 0}]}, {"start": 1.0, "dur": 0.5, "rest": false, "notes": [{"pitch": 62, "vel": 89, "dur": 0.5, "tieStart": false, "tieEnd": false, "tieGroup": 0}]}, {"start": 1.5, "dur": 0.5, "rest": false, "notes": [{"pitch": 64, "vel": 97, "dur": 0.5, "tieStart": false, "tieEnd": false, "tieGroup": 0}]}, {"start": 2.0, "dur": 0.5, "rest": false, "notes": [{"pitch": 64, "vel": 81, "dur": 0.5, "tieStart": false, "tieEnd": false, "tieGroup": 0}]}, {"start": 2.5, "dur": 1.0, "rest": false, "notes": [{"pitch": 67, "vel": 89, "dur": 1.0, "tieStart": false, "tieEnd": false, "tieGroup": 0}]}, {"start": 3.5, "dur": 0.5, "rest": false, "notes": [{"pitch": 62, "vel": 89, "dur": 0.5, "tieStart": false, "tieEnd": false, "tieGroup": 0}, {"pitch": 64, "vel": 85, "dur": 0.5, "tieStart": false, "tieEnd": false, "tieGroup": 0}]}]}, {"ts_num": 4, "ts_den": 4, "key_fifths": 0, "key_mode": 0, "clef": 1, "tempo": 120, "velocity": 100, "lyrics": "", "expr": [], "segs": [{"start": 0.0, "dur": 1.0, "rest": false, "notes": [{"pitch": 50, "vel": 89, "dur": 1.0, "tieStart": false, "tieEnd": false, "tieGroup": 0}, {"pitch": 57, "vel": 85, "dur": 1.0, "tieStart": false, "tieEnd": false, "tieGroup": 0}]}, {"start": 1.0, "dur": 0.5, "rest": false, "notes": [{"pitch": 53, "vel": 97, "dur": 0.5, "tieStart": false, "tieEnd": false, "tieGroup": 0}, {"pitch": 62, "vel": 93, "dur": 0.5, "tieStart": false, "tieEnd": false, "tieGroup": 0}]}, {"start": 1.5, "dur": 0.5, "rest": false, "notes": [{"pitch": 48, "vel": 97, "dur": 0.5, "tieStart": false, "tieEnd": false, "tieGroup": 0}]}, {"start": 2.0, "dur": 0.5, "rest": false, "notes": [{"pitch": 50, "vel": 97, "dur": 0.5, "tieStart": false, "tieEnd": false, "tieGroup": 0}]}, {"start": 2.5, "dur": 1.0, "rest": false, "notes": [{"pitch": 65, "vel": 89, "dur": 1.0, "tieStart": false, "tieEnd": false, "tieGroup": 0}]}, {"start": 3.5, "dur": 0.5, "rest": false, "notes": [{"pitch": 53, "vel": 97, "dur": 0.5, "tieStart": false, "tieEnd": false, "tieGroup": 0}]}]}, {"ts_num": 4, "ts_den": 4, "key_fifths": 0, "key_mode": 0, "clef": 1, "tempo": 120, "velocity": 100, "lyrics": "", "expr": [], "segs": [{"start": 0.0, "dur": 0.5, "rest": false, "notes": [{"pitch": 52, "vel": 89, "dur": 0.5, "tieStart": false, "tieEnd": false, "tieGroup": 0}, {"pitch": 62, "vel": 85, "dur": 0.5, "tieStart": false, "tieEnd": false, "tieGroup": 0}]}, {"start": 0.5, "dur": 0.5, "rest": false, "notes": [{"pitch": 47, "vel": 97, "dur": 0.5, "tieStart": false, "tieEnd": false, "tieGroup": 0}]}, {"start": 1.0, "dur": 0.5, "rest": false, "notes": [{"pitch": 47, "vel": 97, "dur": 0.5, "tieStart": false, "tieEnd": false, "tieGroup": 0}, {"pitch": 64, "vel": 93, "dur": 0.5, "tieStart": false, "tieEnd": false, "tieGroup": 0}]}, {"start": 1.5, "dur": 0.5, "rest": false, "notes": [{"pitch": 67, "vel": 97, "dur": 0.5, "tieStart": false, "tieEnd": false, "tieGroup": 0}]}, {"start": 2.0, "dur": 1.0, "rest": false, "notes": [{"pitch": 71, "vel": 89, "dur": 1.0, "tieStart": false, "tieEnd": false, "tieGroup": 0}]}, {"start": 3.0, "dur": 0.5, "rest": false, "notes": [{"pitch": 47, "vel": 97, "dur": 0.5, "tieStart": false, "tieEnd": false, "tieGroup": 0}]}, {"start": 3.5, "dur": 0.5, "rest": false, "notes": [{"pitch": 47, "vel": 97, "dur": 0.5, "tieStart": false, "tieEnd": false, "tieGroup": 0}]}]}, {"ts_num": 4, "ts_den": 4, "key_fifths": 0, "key_mode": 0, "clef": 1, "tempo": 120, "velocity": 100, "lyrics": "", "expr": [], "segs": [{"start": 0.0, "dur": 1.0, "rest": false, "notes": [{"pitch": 45, "vel": 89, "dur": 1.0, "tieStart": false, "tieEnd": false, "tieGroup": 0}, {"pitch": 55, "vel": 85, "dur": 1.0, "tieStart": false, "tieEnd": false, "tieGroup": 0}]}, {"start": 1.0, "dur": 0.5, "rest": false, "notes": [{"pitch": 60, "vel": 89, "dur": 0.5, "tieStart": false, "tieEnd": false, "tieGroup": 0}]}, {"start": 1.5, "dur": 0.5, "rest": false, "notes": [{"pitch": 57, "vel": 89, "dur": 0.5, "tieStart": false, "tieEnd": false, "tieGroup": 0}]}, {"start": 2.0, "dur": 0.5, "rest": false, "notes": [{"pitch": 57, "vel": 73, "dur": 0.5, "tieStart": false, "tieEnd": false, "tieGroup": 0}, {"pitch": 67, "vel": 69, "dur": 0.5, "tieStart": false, "tieEnd": false, "tieGroup": 0}]}, {"start": 2.5, "dur": 1.0, "rest": false, "notes": [{"pitch": 64, "vel": 89, "dur": 1.0, "tieStart": false, "tieEnd": false, "tieGroup": 0}]}, {"start": 3.5, "dur": 0.5, "rest": false, "notes": [{"pitch": 60, "vel": 89, "dur": 0.5, "tieStart": false, "tieEnd": false, "tieGroup": 0}]}]}, {"ts_num": 4, "ts_den": 4, "key_fifths": 0, "key_mode": 0, "clef": 1, "tempo": 120, "velocity": 100, "lyrics": "", "expr": [], "segs": [{"start": 0.0, "dur": 1.0, "rest": false, "notes": [{"pitch": 52, "vel": 97, "dur": 1.0, "tieStart": false, "tieEnd": false, "tieGroup": 0}, {"pitch": 62, "vel": 93, "dur": 1.0, "tieStart": false, "tieEnd": false, "tieGroup": 0}]}, {"start": 1.0, "dur": 0.5, "rest": false, "notes": [{"pitch": 55, "vel": 73, "dur": 0.5, "tieStart": false, "tieEnd": false, "tieGroup": 0}]}, {"start": 1.5, "dur": 0.5, "rest": false, "notes": [{"pitch": 64, "vel": 89, "dur": 0.5, "tieStart": false, "tieEnd": false, "tieGroup": 0}]}, {"start": 2.0, "dur": 0.5, "rest": false, "notes": [{"pitch": 64, "vel": 73, "dur": 0.5, "tieStart": false, "tieEnd": false, "tieGroup": 0}]}, {"start": 2.5, "dur": 1.0, "rest": false, "notes": [{"pitch": 71, "vel": 97, "dur": 1.0, "tieStart": false, "tieEnd": false, "tieGroup": 0}]}, {"start": 3.5, "dur": 0.5, "rest": false, "notes": [{"pitch": 55, "vel": 73, "dur": 0.5, "tieStart": false, "tieEnd": false, "tieGroup": 0}]}]}, {"ts_num": 4, "ts_den": 4, "key_fifths": 0, "key_mode": 0, "clef": 1, "tempo": 120, "velocity": 100, "lyrics": "", "expr": [], "segs": [{"start": 0.0, "dur": 0.5, "rest": false, "notes": [{"pitch": 43, "vel": 89, "dur": 0.5, "tieStart": false, "tieEnd": false, "tieGroup": 0}, {"pitch": 45, "vel": 85, "dur": 0.5, "tieStart": false, "tieEnd": false, "tieGroup": 0}]}, {"start": 0.5, "dur": 0.5, "rest": false, "notes": [{"pitch": 60, "vel": 89, "dur": 0.5, "tieStart": false, "tieEnd": false, "tieGroup": 0}]}, {"start": 1.0, "dur": 0.5, "rest": false, "notes": [{"pitch": 64, "vel": 89, "dur": 0.5, "tieStart": false, "tieEnd": false, "tieGroup": 0}]}, {"start": 1.5, "dur": 0.5, "rest": false, "notes": [{"pitch": 67, "vel": 89, "dur": 0.5, "tieStart": false, "tieEnd": false, "tieGroup": 0}]}, {"start": 2.0, "dur": 1.0, "rest": false, "notes": [{"pitch": 52, "vel": 89, "dur": 1.0, "tieStart": false, "tieEnd": false, "tieGroup": 0}, {"pitch": 57, "vel": 85, "dur": 1.0, "tieStart": false, "tieEnd": false, "tieGroup": 0}]}, {"start": 3.0, "dur": 0.5, "rest": false, "notes": [{"pitch": 60, "vel": 89, "dur": 0.5, "tieStart": false, "tieEnd": false, "tieGroup": 0}]}, {"start": 3.5, "dur": 0.5, "rest": false, "notes": [{"pitch": 64, "vel": 89, "dur": 0.5, "tieStart": false, "tieEnd": false, "tieGroup": 0}]}]}, {"ts_num": 4, "ts_den": 4, "key_fifths": 0, "key_mode": 0, "clef": 1, "tempo": 120, "velocity": 100, "lyrics": "", "expr": [], "segs": [{"start": 0.0, "dur": 1.0, "rest": false, "notes": [{"pitch": 43, "vel": 81, "dur": 1.0, "tieStart": false, "tieEnd": false, "tieGroup": 0}, {"pitch": 52, "vel": 77, "dur": 1.0, "tieStart": false, "tieEnd": false, "tieGroup": 0}]}, {"start": 1.0, "dur": 0.5, "rest": false, "notes": [{"pitch": 62, "vel": 97, "dur": 0.5, "tieStart": false, "tieEnd": false, "tieGroup": 0}]}, {"start": 1.5, "dur": 0.5, "rest": false, "notes": [{"pitch": 71, "vel": 89, "dur": 0.5, "tieStart": false, "tieEnd": false, "tieGroup": 0}]}, {"start": 2.0, "dur": 0.5, "rest": false, "notes": [{"pitch": 62, "vel": 73, "dur": 0.5, "tieStart": false, "tieEnd": false, "tieGroup": 0}]}, {"start": 2.5, "dur": 1.0, "rest": false, "notes": [{"pitch": 52, "vel": 81, "dur": 1.0, "tieStart": false, "tieEnd": false, "tieGroup": 0}]}, {"start": 3.5, "dur": 0.5, "rest": false, "notes": [{"pitch": 62, "vel": 97, "dur": 0.5, "tieStart": false, "tieEnd": false, "tieGroup": 0}, {"pitch": 64, "vel": 93, "dur": 0.5, "tieStart": false, "tieEnd": false, "tieGroup": 0}]}]}, {"ts_num": 4, "ts_den": 4, "key_fifths": 0, "key_mode": 0, "clef": 1, "tempo": 120, "velocity": 100, "lyrics": "", "expr": [], "segs": [{"start": 0.0, "dur": 1.0, "rest": false, "notes": [{"pitch": 45, "vel": 81, "dur": 1.0, "tieStart": false, "tieEnd": false, "tieGroup": 0}, {"pitch": 55, "vel": 77, "dur": 1.0, "tieStart": false, "tieEnd": false, "tieGroup": 0}]}, {"start": 1.0, "dur": 0.5, "rest": false, "notes": [{"pitch": 43, "vel": 81, "dur": 0.5, "tieStart": false, "tieEnd": false, "tieGroup": 0}]}, {"start": 1.5, "dur": 0.5, "rest": false, "notes": [{"pitch": 52, "vel": 73, "dur": 0.5, "tieStart": false, "tieEnd": false, "tieGroup": 0}]}, {"start": 2.0, "dur": 0.5, "rest": false, "notes": [{"pitch": 48, "vel": 60, "dur": 0.5, "tieStart": false, "tieEnd": false, "tieGroup": 0}, {"pitch": 57, "vel": 56, "dur": 0.5, "tieStart": false, "tieEnd": false, "tieGroup": 0}]}, {"start": 2.5, "dur": 1.0, "rest": false, "notes": [{"pitch": 64, "vel": 81, "dur": 1.0, "tieStart": false, "tieEnd": false, "tieGroup": 0}]}, {"start": 3.5, "dur": 0.5, "rest": false, "notes": [{"pitch": 43, "vel": 81, "dur": 0.5, "tieStart": false, "tieEnd": false, "tieGroup": 0}]}]}, {"ts_num": 4, "ts_den": 4, "key_fifths": 0, "key_mode": 0, "clef": 1, "tempo": 120, "velocity": 100, "lyrics": "", "expr": [], "segs": [{"start": 0.0, "dur": 0.5, "rest": false, "notes": [{"pitch": 52, "vel": 73, "dur": 0.5, "tieStart": false, "tieEnd": false, "tieGroup": 0}, {"pitch": 55, "vel": 69, "dur": 0.5, "tieStart": false, "tieEnd": false, "tieGroup": 0}]}, {"start": 0.5, "dur": 0.5, "rest": false, "notes": [{"pitch": 52, "vel": 73, "dur": 0.5, "tieStart": false, "tieEnd": false, "tieGroup": 0}]}, {"start": 1.0, "dur": 0.5, "rest": false, "notes": [{"pitch": 67, "vel": 73, "dur": 0.5, "tieStart": false, "tieEnd": false, "tieGroup": 0}]}, {"start": 1.5, "dur": 0.5, "rest": false, "notes": [{"pitch": 64, "vel": 73, "dur": 0.5, "tieStart": false, "tieEnd": false, "tieGroup": 0}, {"pitch": 67, "vel": 69, "dur": 0.5, "tieStart": false, "tieEnd": false, "tieGroup": 0}]}, {"start": 2.0, "dur": 1.0, "rest": false, "notes": [{"pitch": 55, "vel": 73, "dur": 1.0, "tieStart": false, "tieEnd": false, "tieGroup": 0}]}, {"start": 3.0, "dur": 0.5, "rest": false, "notes": [{"pitch": 55, "vel": 73, "dur": 0.5, "tieStart": false, "tieEnd": false, "tieGroup": 0}]}, {"start": 3.5, "dur": 0.5, "rest": false, "notes": [{"pitch": 71, "vel": 73, "dur": 0.5, "tieStart": false, "tieEnd": false, "tieGroup": 0}]}]}, {"ts_num": 4, "ts_den": 4, "key_fifths": 0, "key_mode": 0, "clef": 1, "tempo": 120, "velocity": 100, "lyrics": "", "expr": [], "segs": [{"start": 0.0, "dur": 0.5, "rest": false, "notes": [{"pitch": 45, "vel": 89, "dur": 0.5, "tieStart": false, "tieEnd": false, "tieGroup": 0}, {"pitch": 50, "vel": 85, "dur": 0.5, "tieStart": false, "tieEnd": false, "tieGroup": 0}]}, {"start": 0.5, "dur": 0.5, "rest": false, "notes": [{"pitch": 53, "vel": 89, "dur": 0.5, "tieStart": false, "tieEnd": false, "tieGroup": 0}]}, {"start": 1.0, "dur": 0.5, "rest": false, "notes": [{"pitch": 65, "vel": 97, "dur": 0.5, "tieStart": false, "tieEnd": false, "tieGroup": 0}]}, {"start": 1.5, "dur": 0.5, "rest": false, "notes": [{"pitch": 65, "vel": 73, "dur": 0.5, "tieStart": false, "tieEnd": false, "tieGroup": 0}]}, {"start": 2.0, "dur": 1.0, "rest": false, "notes": [{"pitch": 53, "vel": 89, "dur": 1.0, "tieStart": false, "tieEnd": false, "tieGroup": 0}, {"pitch": 62, "vel": 85, "dur": 1.0, "tieStart": false, "tieEnd": false, "tieGroup": 0}]}, {"start": 3.0, "dur": 0.5, "rest": false, "notes": [{"pitch": 57, "vel": 89, "dur": 0.5, "tieStart": false, "tieEnd": false, "tieGroup": 0}]}, {"start": 3.5, "dur": 0.5, "rest": false, "notes": [{"pitch": 69, "vel": 97, "dur": 0.5, "tieStart": false, "tieEnd": false, "tieGroup": 0}]}]}, {"ts_num": 4, "ts_den": 4, "key_fifths": 0, "key_mode": 0, "clef": 1, "tempo": 120, "velocity": 100, "lyrics": "", "expr": [], "segs": [{"start": 0.0, "dur": 0.5, "rest": false, "notes": [{"pitch": 52, "vel": 89, "dur": 0.5, "tieStart": false, "tieEnd": false, "tieGroup": 0}, {"pitch": 64, "vel": 85, "dur": 0.5, "tieStart": false, "tieEnd": false, "tieGroup": 0}]}, {"start": 0.5, "dur": 0.5, "rest": false, "notes": [{"pitch": 50, "vel": 81, "dur": 0.5, "tieStart": false, "tieEnd": false, "tieGroup": 0}]}, {"start": 1.0, "dur": 0.5, "rest": false, "notes": [{"pitch": 62, "vel": 73, "dur": 0.5, "tieStart": false, "tieEnd": false, "tieGroup": 0}]}, {"start": 1.5, "dur": 0.5, "rest": false, "notes": [{"pitch": 62, "vel": 81, "dur": 0.5, "tieStart": false, "tieEnd": false, "tieGroup": 0}]}, {"start": 2.0, "dur": 1.0, "rest": false, "notes": [{"pitch": 64, "vel": 89, "dur": 1.0, "tieStart": false, "tieEnd": false, "tieGroup": 0}, {"pitch": 74, "vel": 85, "dur": 1.0, "tieStart": false, "tieEnd": false, "tieGroup": 0}]}, {"start": 3.0, "dur": 0.5, "rest": false, "notes": [{"pitch": 50, "vel": 81, "dur": 0.5, "tieStart": false, "tieEnd": false, "tieGroup": 0}]}, {"start": 3.5, "dur": 0.5, "rest": false, "notes": [{"pitch": 62, "vel": 73, "dur": 0.5, "tieStart": false, "tieEnd": false, "tieGroup": 0}]}]}, {"ts_num": 4, "ts_den": 4, "key_fifths": 0, "key_mode": 0, "clef": 1, "tempo": 120, "velocity": 100, "lyrics": "", "expr": [], "segs": [{"start": 0.0, "dur": 0.5, "rest": false, "notes": [{"pitch": 45, "vel": 81, "dur": 0.5, "tieStart": false, "tieEnd": false, "tieGroup": 0}, {"pitch": 55, "vel": 77, "dur": 0.5, "tieStart": false, "tieEnd": false, "tieGroup": 0}]}, {"start": 0.5, "dur": 0.5, "rest": false, "notes": [{"pitch": 60, "vel": 73, "dur": 0.5, "tieStart": false, "tieEnd": false, "tieGroup": 0}]}, {"start": 1.0, "dur": 0.5, "rest": false, "notes": [{"pitch": 45, "vel": 73, "dur": 0.5, "tieStart": false, "tieEnd": false, "tieGroup": 0}]}, {"start": 1.5, "dur": 0.5, "rest": false, "notes": [{"pitch": 67, "vel": 60, "dur": 0.5, "tieStart": false, "tieEnd": false, "tieGroup": 0}]}, {"start": 2.0, "dur": 1.0, "rest": false, "notes": [{"pitch": 64, "vel": 81, "dur": 1.0, "tieStart": false, "tieEnd": false, "tieGroup": 0}]}, {"start": 3.0, "dur": 0.5, "rest": false, "notes": [{"pitch": 57, "vel": 73, "dur": 0.5, "tieStart": false, "tieEnd": false, "tieGroup": 0}, {"pitch": 60, "vel": 69, "dur": 0.5, "tieStart": false, "tieEnd": false, "tieGroup": 0}]}, {"start": 3.5, "dur": 0.5, "rest": false, "notes": [{"pitch": 45, "vel": 73, "dur": 0.5, "tieStart": false, "tieEnd": false, "tieGroup": 0}]}]}, {"ts_num": 4, "ts_den": 4, "key_fifths": 0, "key_mode": 0, "clef": 1, "tempo": 120, "velocity": 100, "lyrics": "", "expr": [], "segs": [{"start": 0.0, "dur": 0.5, "rest": false, "notes": [{"pitch": 45, "vel": 60, "dur": 0.5, "tieStart": false, "tieEnd": false, "tieGroup": 0}, {"pitch": 52, "vel": 56, "dur": 0.5, "tieStart": false, "tieEnd": false, "tieGroup": 0}]}, {"start": 0.5, "dur": 1.0, "rest": false, "notes": [{"pitch": 57, "vel": 89, "dur": 1.0, "tieStart": false, "tieEnd": false, "tieGroup": 0}]}, {"start": 1.5, "dur": 0.5, "rest": false, "notes": [{"pitch": 60, "vel": 89, "dur": 0.5, "tieStart": false, "tieEnd": false, "tieGroup": 0}]}, {"start": 2.0, "dur": 0.5, "rest": false, "notes": [{"pitch": 48, "vel": 81, "dur": 0.5, "tieStart": false, "tieEnd": false, "tieGroup": 0}]}, {"start": 2.5, "dur": 0.5, "rest": false, "notes": [{"pitch": 60, "vel": 60, "dur": 0.5, "tieStart": false, "tieEnd": false, "tieGroup": 0}]}, {"start": 3.0, "dur": 0.5, "rest": false, "notes": [{"pitch": 57, "vel": 89, "dur": 0.5, "tieStart": false, "tieEnd": false, "tieGroup": 0}]}, {"start": 3.5, "dur": 0.5, "rest": false, "notes": [{"pitch": 60, "vel": 89, "dur": 0.5, "tieStart": false, "tieEnd": false, "tieGroup": 0}]}]}, {"ts_num": 4, "ts_den": 4, "key_fifths": 0, "key_mode": 0, "clef": 1, "tempo": 120, "velocity": 100, "lyrics": "", "expr": [], "segs": [{"start": 0.0, "dur": 0.5, "rest": false, "notes": [{"pitch": 53, "vel": 65, "dur": 0.5, "tieStart": false, "tieEnd": false, "tieGroup": 0}, {"pitch": 57, "vel": 61, "dur": 0.5, "tieStart": false, "tieEnd": false, "tieGroup": 0}]}, {"start": 0.5, "dur": 0.5, "rest": false, "notes": [{"pitch": 45, "vel": 73, "dur": 0.5, "tieStart": false, "tieEnd": false, "tieGroup": 0}]}, {"start": 1.0, "dur": 0.5, "rest": false, "notes": [{"pitch": 50, "vel": 65, "dur": 0.5, "tieStart": false, "tieEnd": false, "tieGroup": 0}]}, {"start": 1.5, "dur": 0.5, "rest": false, "notes": [{"pitch": 65, "vel": 81, "dur": 0.5, "tieStart": false, "tieEnd": false, "tieGroup": 0}]}, {"start": 2.0, "dur": 1.0, "rest": false, "notes": [{"pitch": 65, "vel": 65, "dur": 1.0, "tieStart": false, "tieEnd": false, "tieGroup": 0}]}, {"start": 3.0, "dur": 0.5, "rest": false, "notes": [{"pitch": 45, "vel": 73, "dur": 0.5, "tieStart": false, "tieEnd": false, "tieGroup": 0}]}, {"start": 3.5, "dur": 0.5, "rest": false, "notes": [{"pitch": 50, "vel": 65, "dur": 0.5, "tieStart": false, "tieEnd": false, "tieGroup": 0}]}]}, {"ts_num": 4, "ts_den": 4, "key_fifths": 0, "key_mode": 0, "clef": 1, "tempo": 120, "velocity": 100, "lyrics": "", "expr": [], "segs": [{"start": 0.0, "dur": 1.0, "rest": false, "notes": [{"pitch": 43, "vel": 97, "dur": 1.0, "tieStart": false, "tieEnd": false, "tieGroup": 0}, {"pitch": 52, "vel": 93, "dur": 1.0, "tieStart": false, "tieEnd": false, "tieGroup": 0}]}, {"start": 1.0, "dur": 0.5, "rest": false, "notes": [{"pitch": 55, "vel": 97, "dur": 0.5, "tieStart": false, "tieEnd": false, "tieGroup": 0}]}, {"start": 1.5, "dur": 0.5, "rest": false, "notes": [{"pitch": 55, "vel": 97, "dur": 0.5, "tieStart": false, "tieEnd": false, "tieGroup": 0}]}, {"start": 2.0, "dur": 0.5, "rest": false, "notes": [{"pitch": 55, "vel": 81, "dur": 0.5, "tieStart": false, "tieEnd": false, "tieGroup": 0}]}, {"start": 2.5, "dur": 1.0, "rest": false, "notes": [{"pitch": 52, "vel": 97, "dur": 1.0, "tieStart": false, "tieEnd": false, "tieGroup": 0}, {"pitch": 64, "vel": 93, "dur": 1.0, "tieStart": false, "tieEnd": false, "tieGroup": 0}]}, {"start": 3.5, "dur": 0.5, "rest": false, "notes": [{"pitch": 55, "vel": 97, "dur": 0.5, "tieStart": false, "tieEnd": false, "tieGroup": 0}]}]}, {"ts_num": 4, "ts_den": 4, "key_fifths": 0, "key_mode": 0, "clef": 1, "tempo": 120, "velocity": 100, "lyrics": "", "expr": [], "segs": [{"start": 0.0, "dur": 1.0, "rest": false, "notes": [{"pitch": 47, "vel": 81, "dur": 1.0, "tieStart": false, "tieEnd": false, "tieGroup": 0}, {"pitch": 52, "vel": 77, "dur": 1.0, "tieStart": false, "tieEnd": false, "tieGroup": 0}]}, {"start": 1.0, "dur": 0.5, "rest": false, "notes": [{"pitch": 59, "vel": 81, "dur": 0.5, "tieStart": false, "tieEnd": false, "tieGroup": 0}]}, {"start": 1.5, "dur": 0.5, "rest": false, "notes": [{"pitch": 52, "vel": 73, "dur": 0.5, "tieStart": false, "tieEnd": false, "tieGroup": 0}, {"pitch": 64, "vel": 69, "dur": 0.5, "tieStart": false, "tieEnd": false, "tieGroup": 0}]}, {"start": 2.0, "dur": 0.5, "rest": false, "notes": [{"pitch": 62, "vel": 65, "dur": 0.5, "tieStart": false, "tieEnd": false, "tieGroup": 0}]}, {"start": 2.5, "dur": 1.0, "rest": false, "notes": [{"pitch": 55, "vel": 81, "dur": 1.0, "tieStart": false, "tieEnd": false, "tieGroup": 0}]}, {"start": 3.5, "dur": 0.5, "rest": false, "notes": [{"pitch": 59, "vel": 81, "dur": 0.5, "tieStart": false, "tieEnd": false, "tieGroup": 0}]}]}, {"ts_num": 4, "ts_den": 4, "key_fifths": 0, "key_mode": 0, "clef": 1, "tempo": 120, "velocity": 100, "lyrics": "", "expr": [], "segs": [{"start": 0.0, "dur": 1.0, "rest": false, "notes": [{"pitch": 43, "vel": 81, "dur": 1.0, "tieStart": false, "tieEnd": false, "tieGroup": 0}, {"pitch": 45, "vel": 77, "dur": 1.0, "tieStart": false, "tieEnd": false, "tieGroup": 0}]}, {"start": 1.0, "dur": 0.5, "rest": false, "notes": [{"pitch": 48, "vel": 73, "dur": 0.5, "tieStart": false, "tieEnd": false, "tieGroup": 0}, {"pitch": 57, "vel": 69, "dur": 0.5, "tieStart": false, "tieEnd": false, "tieGroup": 0}]}, {"start": 1.5, "dur": 0.5, "rest": false, "notes": [{"pitch": 57, "vel": 89, "dur": 0.5, "tieStart": false, "tieEnd": false, "tieGroup": 0}]}, {"start": 2.0, "dur": 0.5, "rest": false, "notes": [{"pitch": 67, "vel": 97, "dur": 0.5, "tieStart": false, "tieEnd": false, "tieGroup": 0}]}, {"start": 2.5, "dur": 1.0, "rest": false, "notes": [{"pitch": 52, "vel": 81, "dur": 1.0, "tieStart": false, "tieEnd": false, "tieGroup": 0}]}, {"start": 3.5, "dur": 0.5, "rest": false, "notes": [{"pitch": 48, "vel": 73, "dur": 0.5, "tieStart": false, "tieEnd": false, "tieGroup": 0}]}]}, {"ts_num": 4, "ts_den": 4, "key_fifths": 0, "key_mode": 0, "clef": 1, "tempo": 120, "velocity": 100, "lyrics": "", "expr": [], "segs": [{"start": 0.0, "dur": 0.5, "rest": false, "notes": [{"pitch": 50, "vel": 73, "dur": 0.5, "tieStart": false, "tieEnd": false, "tieGroup": 0}, {"pitch": 65, "vel": 69, "dur": 0.5, "tieStart": false, "tieEnd": false, "tieGroup": 0}]}, {"start": 0.5, "dur": 0.5, "rest": false, "notes": [{"pitch": 60, "vel": 73, "dur": 0.5, "tieStart": false, "tieEnd": false, "tieGroup": 0}]}, {"start": 1.0, "dur": 0.5, "rest": false, "notes": [{"pitch": 53, "vel": 89, "dur": 0.5, "tieStart": false, "tieEnd": false, "tieGroup": 0}]}, {"start": 1.5, "dur": 0.5, "rest": false, "notes": [{"pitch": 62, "vel": 89, "dur": 0.5, "tieStart": false, "tieEnd": false, "tieGroup": 0}]}, {"start": 2.0, "dur": 1.0, "rest": false, "notes": [{"pitch": 62, "vel": 73, "dur": 1.0, "tieStart": false, "tieEnd": false, "tieGroup": 0}, {"pitch": 74, "vel": 69, "dur": 1.0, "tieStart": false, "tieEnd": false, "tieGroup": 0}]}, {"start": 3.0, "dur": 0.5, "rest": false, "notes": [{"pitch": 60, "vel": 73, "dur": 0.5, "tieStart": false, "tieEnd": false, "tieGroup": 0}]}, {"start": 3.5, "dur": 0.5, "rest": false, "notes": [{"pitch": 53, "vel": 89, "dur": 0.5, "tieStart": false, "tieEnd": false, "tieGroup": 0}]}]}, {"ts_num": 4, "ts_den": 4, "key_fifths": 0, "key_mode": 0, "clef": 1, "tempo": 120, "velocity": 100, "lyrics": "", "expr": [], "segs": [{"start": 0.0, "dur": 0.5, "rest": false, "notes": [{"pitch": 43, "vel": 73, "dur": 0.5, "tieStart": false, "tieEnd": false, "tieGroup": 0}, {"pitch": 55, "vel": 69, "dur": 0.5, "tieStart": false, "tieEnd": false, "tieGroup": 0}]}, {"start": 0.5, "dur": 0.5, "rest": false, "notes": [{"pitch": 50, "vel": 65, "dur": 0.5, "tieStart": false, "tieEnd": false, "tieGroup": 0}, {"pitch": 55, "vel": 61, "dur": 0.5, "tieStart": false, "tieEnd": false, "tieGroup": 0}]}, {"start": 1.0, "dur": 0.5, "rest": false, "notes": [{"pitch": 55, "vel": 65, "dur": 0.5, "tieStart": false, "tieEnd": false, "tieGroup": 0}]}, {"start": 1.5, "dur": 0.5, "rest": false, "notes": [{"pitch": 50, "vel": 81, "dur": 0.5, "tieStart": false, "tieEnd": false, "tieGroup": 0}]}, {"start": 2.0, "dur": 1.0, "rest": false, "notes": [{"pitch": 65, "vel": 73, "dur": 1.0, "tieStart": false, "tieEnd": false, "tieGroup": 0}]}, {"start": 3.0, "dur": 0.5, "rest": false, "notes": [{"pitch": 50, "vel": 65, "dur": 0.5, "tieStart": false, "tieEnd": false, "tieGroup": 0}]}, {"start": 3.5, "dur": 0.5, "rest": false, "notes": [{"pitch": 55, "vel": 65, "dur": 0.5, "tieStart": false, "tieEnd": false, "tieGroup": 0}]}]}, {"ts_num": 4, "ts_den": 4, "key_fifths": 0, "key_mode": 0, "clef": 1, "tempo": 120, "velocity": 100, "lyrics": "", "expr": [], "segs": [{"start": 0.0, "dur": 0.5, "rest": false, "notes": [{"pitch": 45, "vel": 73, "dur": 0.5, "tieStart": false, "tieEnd": false, "tieGroup": 0}, {"pitch": 57, "vel": 69, "dur": 0.5, "tieStart": false, "tieEnd": false, "tieGroup": 0}]}, {"start": 0.5, "dur": 1.0, "rest": false, "notes": [{"pitch": 57, "vel": 73, "dur": 1.0, "tieStart": false, "tieEnd": false, "tieGroup": 0}]}, {"start": 1.5, "dur": 0.5, "rest": false, "notes": [{"pitch": 60, "vel": 73, "dur": 0.5, "tieStart": false, "tieEnd": false, "tieGroup": 0}]}, {"start": 2.0, "dur": 0.5, "rest": false, "notes": [{"pitch": 64, "vel": 73, "dur": 0.5, "tieStart": false, "tieEnd": false, "tieGroup": 0}]}, {"start": 2.5, "dur": 0.5, "rest": false, "notes": [{"pitch": 57, "vel": 73, "dur": 0.5, "tieStart": false, "tieEnd": false, "tieGroup": 0}, {"pitch": 67, "vel": 69, "dur": 0.5, "tieStart": false, "tieEnd": false, "tieGroup": 0}]}, {"start": 3.0, "dur": 0.5, "rest": false, "notes": [{"pitch": 57, "vel": 73, "dur": 0.5, "tieStart": false, "tieEnd": false, "tieGroup": 0}]}, {"start": 3.5, "dur": 0.5, "rest": false, "notes": [{"pitch": 60, "vel": 73, "dur": 0.5, "tieStart": false, "tieEnd": false, "tieGroup": 0}]}]}, {"ts_num": 4, "ts_den": 4, "key_fifths": 0, "key_mode": 0, "clef": 1, "tempo": 120, "velocity": 100, "lyrics": "", "expr": [], "segs": [{"start": 0.0, "dur": 0.5, "rest": false, "notes": [{"pitch": 52, "vel": 89, "dur": 0.5, "tieStart": false, "tieEnd": false, "tieGroup": 0}, {"pitch": 62, "vel": 85, "dur": 0.5, "tieStart": false, "tieEnd": false, "tieGroup": 0}]}, {"start": 0.5, "dur": 0.5, "rest": false, "notes": [{"pitch": 55, "vel": 89, "dur": 0.5, "tieStart": false, "tieEnd": false, "tieGroup": 0}]}, {"start": 1.0, "dur": 0.5, "rest": false, "notes": [{"pitch": 64, "vel": 89, "dur": 0.5, "tieStart": false, "tieEnd": false, "tieGroup": 0}]}, {"start": 1.5, "dur": 0.5, "rest": false, "notes": [{"pitch": 55, "vel": 73, "dur": 0.5, "tieStart": false, "tieEnd": false, "tieGroup": 0}, {"pitch": 64, "vel": 69, "dur": 0.5, "tieStart": false, "tieEnd": false, "tieGroup": 0}]}, {"start": 2.0, "dur": 0.5, "rest": false, "notes": [{"pitch": 71, "vel": 89, "dur": 0.5, "tieStart": false, "tieEnd": false, "tieGroup": 0}]}, {"start": 2.5, "dur": 0.5, "rest": false, "notes": [{"pitch": 55, "vel": 89, "dur": 0.5, "tieStart": false, "tieEnd": false, "tieGroup": 0}]}, {"start": 3.0, "dur": 0.5, "rest": false, "notes": [{"pitch": 64, "vel": 89, "dur": 0.5, "tieStart": false, "tieEnd": false, "tieGroup": 0}]}, {"start": 3.5, "dur": 0.5, "rest": false, "notes": [{"pitch": 55, "vel": 73, "dur": 0.5, "tieStart": false, "tieEnd": false, "tieGroup": 0}]}]}, {"ts_num": 4, "ts_den": 4, "key_fifths": 0, "key_mode": 0, "clef": 1, "tempo": 120, "velocity": 100, "lyrics": "", "expr": [], "segs": [{"start": 0.0, "dur": 1.0, "rest": false, "notes": [{"pitch": 43, "vel": 89, "dur": 1.0, "tieStart": false, "tieEnd": false, "tieGroup": 0}, {"pitch": 45, "vel": 85, "dur": 1.0, "tieStart": false, "tieEnd": false, "tieGroup": 0}]}, {"start": 1.0, "dur": 0.5, "rest": false, "notes": [{"pitch": 60, "vel": 73, "dur": 0.5, "tieStart": false, "tieEnd": false, "tieGroup": 0}]}, {"start": 1.5, "dur": 0.5, "rest": false, "notes": [{"pitch": 57, "vel": 81, "dur": 0.5, "tieStart": false, "tieEnd": false, "tieGroup": 0}]}, {"start": 2.0, "dur": 0.5, "rest": false, "notes": [{"pitch": 48, "vel": 81, "dur": 0.5, "tieStart": false, "tieEnd": false, "tieGroup": 0}]}, {"start": 2.5, "dur": 1.0, "rest": false, "notes": [{"pitch": 52, "vel": 89, "dur": 1.0, "tieStart": false, "tieEnd": false, "tieGroup": 0}]}, {"start": 3.5, "dur": 0.5, "rest": false, "notes": [{"pitch": 60, "vel": 73, "dur": 0.5, "tieStart": false, "tieEnd": false, "tieGroup": 0}]}]}, {"ts_num": 4, "ts_den": 4, "key_fifths": 0, "key_mode": 0, "clef": 1, "tempo": 120, "velocity": 100, "lyrics": "", "expr": [], "segs": [{"start": 0.0, "dur": 0.5, "rest": false, "notes": [{"pitch": 48, "vel": 81, "dur": 0.5, "tieStart": false, "tieEnd": false, "tieGroup": 0}, {"pitch": 53, "vel": 77, "dur": 0.5, "tieStart": false, "tieEnd": false, "tieGroup": 0}]}, {"start": 0.5, "dur": 1.0, "rest": false, "notes": [{"pitch": 60, "vel": 73, "dur": 1.0, "tieStart": false, "tieEnd": false, "tieGroup": 0}]}, {"start": 1.5, "dur": 0.5, "rest": false, "notes": [{"pitch": 65, "vel": 73, "dur": 0.5, "tieStart": false, "tieEnd": false, "tieGroup": 0}]}, {"start": 2.0, "dur": 0.5, "rest": false, "notes": [{"pitch": 64, "vel": 73, "dur": 0.5, "tieStart": false, "tieEnd": false, "tieGroup": 0}, {"pitch": 65, "vel": 69, "dur": 0.5, "tieStart": false, "tieEnd": false, "tieGroup": 0}]}, {"start": 2.5, "dur": 0.5, "rest": false, "notes": [{"pitch": 57, "vel": 81, "dur": 0.5, "tieStart": false, "tieEnd": false, "tieGroup": 0}]}, {"start": 3.0, "dur": 0.5, "rest": false, "notes": [{"pitch": 60, "vel": 73, "dur": 0.5, "tieStart": false, "tieEnd": false, "tieGroup": 0}]}, {"start": 3.5, "dur": 0.5, "rest": false, "notes": [{"pitch": 65, "vel": 73, "dur": 0.5, "tieStart": false, "tieEnd": false, "tieGroup": 0}]}]}, {"ts_num": 4, "ts_den": 4, "key_fifths": 0, "key_mode": 0, "clef": 1, "tempo": 120, "velocity": 100, "lyrics": "", "expr": [], "segs": [{"start": 0.0, "dur": 0.5, "rest": false, "notes": [{"pitch": 48, "vel": 65, "dur": 0.5, "tieStart": false, "tieEnd": false, "tieGroup": 0}, {"pitch": 50, "vel": 61, "dur": 0.5, "tieStart": false, "tieEnd": false, "tieGroup": 0}]}, {"start": 0.5, "dur": 1.0, "rest": false, "notes": [{"pitch": 57, "vel": 65, "dur": 1.0, "tieStart": false, "tieEnd": false, "tieGroup": 0}]}, {"start": 1.5, "dur": 0.5, "rest": false, "notes": [{"pitch": 50, "vel": 60, "dur": 0.5, "tieStart": false, "tieEnd": false, "tieGroup": 0}, {"pitch": 62, "vel": 56, "dur": 0.5, "tieStart": false, "tieEnd": false, "tieGroup": 0}]}, {"start": 2.0, "dur": 0.5, "rest": false, "notes": [{"pitch": 53, "vel": 60, "dur": 0.5, "tieStart": false, "tieEnd": false, "tieGroup": 0}]}, {"start": 2.5, "dur": 0.5, "rest": false, "notes": [{"pitch": 57, "vel": 65, "dur": 0.5, "tieStart": false, "tieEnd": false, "tieGroup": 0}]}, {"start": 3.0, "dur": 0.5, "rest": false, "notes": [{"pitch": 57, "vel": 65, "dur": 0.5, "tieStart": false, "tieEnd": false, "tieGroup": 0}]}, {"start": 3.5, "dur": 0.5, "rest": false, "notes": [{"pitch": 50, "vel": 60, "dur": 0.5, "tieStart": false, "tieEnd": false, "tieGroup": 0}]}]}, {"ts_num": 4, "ts_den": 4, "key_fifths": 0, "key_mode": 0, "clef": 1, "tempo": 120, "velocity": 100, "lyrics": "", "expr": [], "segs": [{"start": 0.0, "dur": 0.5, "rest": false, "notes": [{"pitch": 43, "vel": 89, "dur": 0.5, "tieStart": false, "tieEnd": false, "tieGroup": 0}, {"pitch": 55, "vel": 85, "dur": 0.5, "tieStart": false, "tieEnd": false, "tieGroup": 0}]}, {"start": 0.5, "dur": 1.0, "rest": false, "notes": [{"pitch": 53, "vel": 65, "dur": 1.0, "tieStart": false, "tieEnd": false, "tieGroup": 0}]}, {"start": 1.5, "dur": 0.5, "rest": false, "notes": [{"pitch": 55, "vel": 81, "dur": 0.5, "tieStart": false, "tieEnd": false, "tieGroup": 0}, {"pitch": 59, "vel": 77, "dur": 0.5, "tieStart": false, "tieEnd": false, "tieGroup": 0}]}, {"start": 2.0, "dur": 0.5, "rest": false, "notes": [{"pitch": 62, "vel": 89, "dur": 0.5, "tieStart": false, "tieEnd": false, "tieGroup": 0}]}, {"start": 2.5, "dur": 0.5, "rest": false, "notes": [{"pitch": 65, "vel": 89, "dur": 0.5, "tieStart": false, "tieEnd": false, "tieGroup": 0}]}, {"start": 3.0, "dur": 0.5, "rest": false, "notes": [{"pitch": 53, "vel": 65, "dur": 0.5, "tieStart": false, "tieEnd": false, "tieGroup": 0}]}, {"start": 3.5, "dur": 0.5, "rest": false, "notes": [{"pitch": 59, "vel": 81, "dur": 0.5, "tieStart": false, "tieEnd": false, "tieGroup": 0}]}]}, {"ts_num": 4, "ts_den": 4, "key_fifths": 0, "key_mode": 0, "clef": 1, "tempo": 120, "velocity": 100, "lyrics": "", "expr": [], "segs": [{"start": 0.0, "dur": 0.5, "rest": false, "notes": [{"pitch": 48, "vel": 89, "dur": 0.5, "tieStart": false, "tieEnd": false, "tieGroup": 0}, {"pitch": 59, "vel": 85, "dur": 0.5, "tieStart": false, "tieEnd": false, "tieGroup": 0}]}, {"start": 0.5, "dur": 0.5, "rest": false, "notes": [{"pitch": 43, "vel": 97, "dur": 0.5, "tieStart": false, "tieEnd": false, "tieGroup": 0}]}, {"start": 1.0, "dur": 0.5, "rest": false, "notes": [{"pitch": 55, "vel": 114, "dur": 0.5, "tieStart": false, "tieEnd": false, "tieGroup": 0}]}, {"start": 1.5, "dur": 0.5, "rest": false, "notes": [{"pitch": 57, "vel": 114, "dur": 0.5, "tieStart": false, "tieEnd": false, "tieGroup": 0}]}, {"start": 2.0, "dur": 0.5, "rest": false, "notes": [{"pitch": 60, "vel": 89, "dur": 0.5, "tieStart": false, "tieEnd": false, "tieGroup": 0}, {"pitch": 67, "vel": 85, "dur": 0.5, "tieStart": false, "tieEnd": false, "tieGroup": 0}]}, {"start": 2.5, "dur": 0.5, "rest": false, "notes": [{"pitch": 43, "vel": 97, "dur": 0.5, "tieStart": false, "tieEnd": false, "tieGroup": 0}]}, {"start": 3.0, "dur": 0.5, "rest": false, "notes": [{"pitch": 55, "vel": 114, "dur": 0.5, "tieStart": false, "tieEnd": false, "tieGroup": 0}]}, {"start": 3.5, "dur": 0.5, "rest": false, "notes": [{"pitch": 57, "vel": 114, "dur": 0.5, "tieStart": false, "tieEnd": false, "tieGroup": 0}]}]}, {"ts_num": 4, "ts_den": 4, "key_fifths": 0, "key_mode": 0, "clef": 1, "tempo": 120, "velocity": 100, "lyrics": "", "expr": [], "segs": [{"start": 0.0, "dur": 1.0, "rest": false, "notes": [{"pitch": 48, "vel": 81, "dur": 1.0, "tieStart": false, "tieEnd": false, "tieGroup": 0}, {"pitch": 55, "vel": 77, "dur": 1.0, "tieStart": false, "tieEnd": false, "tieGroup": 0}]}, {"start": 1.0, "dur": 0.5, "rest": false, "notes": [{"pitch": 60, "vel": 73, "dur": 0.5, "tieStart": false, "tieEnd": false, "tieGroup": 0}]}, {"start": 1.5, "dur": 0.5, "rest": false, "notes": [{"pitch": 60, "vel": 73, "dur": 0.5, "tieStart": false, "tieEnd": false, "tieGroup": 0}, {"pitch": 67, "vel": 69, "dur": 0.5, "tieStart": false, "tieEnd": false, "tieGroup": 0}]}, {"start": 2.0, "dur": 0.5, "rest": false, "notes": [{"pitch": 69, "vel": 73, "dur": 0.5, "tieStart": false, "tieEnd": false, "tieGroup": 0}]}, {"start": 2.5, "dur": 1.0, "rest": false, "notes": [{"pitch": 64, "vel": 81, "dur": 1.0, "tieStart": false, "tieEnd": false, "tieGroup": 0}]}, {"start": 3.5, "dur": 0.5, "rest": false, "notes": [{"pitch": 60, "vel": 73, "dur": 0.5, "tieStart": false, "tieEnd": false, "tieGroup": 0}]}]}, {"ts_num": 4, "ts_den": 4, "key_fifths": 0, "key_mode": 0, "clef": 1, "tempo": 120, "velocity": 100, "lyrics": "", "expr": [], "segs": [{"start": 0.0, "dur": 0.5, "rest": false, "notes": [{"pitch": 45, "vel": 81, "dur": 0.5, "tieStart": false, "tieEnd": false, "tieGroup": 0}, {"pitch": 52, "vel": 77, "dur": 0.5, "tieStart": false, "tieEnd": false, "tieGroup": 0}]}, {"start": 0.5, "dur": 0.5, "rest": false, "notes": [{"pitch": 55, "vel": 65, "dur": 0.5, "tieStart": false, "tieEnd": false, "tieGroup": 0}]}, {"start": 1.0, "dur": 0.5, "rest": false, "notes": [{"pitch": 60, "vel": 60, "dur": 0.5, "tieStart": false, "tieEnd": false, "tieGroup": 0}]}, {"start": 1.5, "dur": 0.5, "rest": false, "notes": [{"pitch": 60, "vel": 65, "dur": 0.5, "tieStart": false, "tieEnd": false, "tieGroup": 0}]}, {"start": 2.0, "dur": 0.5, "rest": false, "notes": [{"pitch": 57, "vel": 81, "dur": 0.5, "tieStart": false, "tieEnd": false, "tieGroup": 0}, {"pitch": 60, "vel": 77, "dur": 0.5, "tieStart": false, "tieEnd": false, "tieGroup": 0}]}, {"start": 2.5, "dur": 0.5, "rest": false, "notes": [{"pitch": 55, "vel": 65, "dur": 0.5, "tieStart": false, "tieEnd": false, "tieGroup": 0}]}, {"start": 3.0, "dur": 0.5, "rest": false, "notes": [{"pitch": 60, "vel": 60, "dur": 0.5, "tieStart": false, "tieEnd": false, "tieGroup": 0}]}, {"start": 3.5, "dur": 0.5, "rest": false, "notes": [{"pitch": 60, "vel": 65, "dur": 0.5, "tieStart": false, "tieEnd": false, "tieGroup": 0}]}]}, {"ts_num": 4, "ts_den": 4, "key_fifths": 0, "key_mode": 0, "clef": 1, "tempo": 120, "velocity": 100, "lyrics": "", "expr": [], "segs": [{"start": 0.0, "dur": 0.5, "rest": false, "notes": [{"pitch": 52, "vel": 89, "dur": 0.5, "tieStart": false, "tieEnd": false, "tieGroup": 0}, {"pitch": 59, "vel": 85, "dur": 0.5, "tieStart": false, "tieEnd": false, "tieGroup": 0}]}, {"start": 0.5, "dur": 0.5, "rest": false, "notes": [{"pitch": 50, "vel": 73, "dur": 0.5, "tieStart": false, "tieEnd": false, "tieGroup": 0}]}, {"start": 1.0, "dur": 0.5, "rest": false, "notes": [{"pitch": 71, "vel": 73, "dur": 0.5, "tieStart": false, "tieEnd": false, "tieGroup": 0}]}, {"start": 1.5, "dur": 0.5, "rest": false, "notes": [{"pitch": 74, "vel": 73, "dur": 0.5, "tieStart": false, "tieEnd": false, "tieGroup": 0}]}, {"start": 2.0, "dur": 1.0, "rest": false, "notes": [{"pitch": 67, "vel": 89, "dur": 1.0, "tieStart": false, "tieEnd": false, "tieGroup": 0}]}, {"start": 3.0, "dur": 0.5, "rest": false, "notes": [{"pitch": 50, "vel": 73, "dur": 0.5, "tieStart": false, "tieEnd": false, "tieGroup": 0}, {"pitch": 64, "vel": 69, "dur": 0.5, "tieStart": false, "tieEnd": false, "tieGroup": 0}]}, {"start": 3.5, "dur": 0.5, "rest": false, "notes": [{"pitch": 71, "vel": 73, "dur": 0.5, "tieStart": false, "tieEnd": false, "tieGroup": 0}]}]}, {"ts_num": 4, "ts_den": 4, "key_fifths": 0, "key_mode": 0, "clef": 1, "tempo": 120, "velocity": 100, "lyrics": "", "expr": [], "segs": [{"start": 0.0, "dur": 0.5, "rest": false, "notes": [{"pitch": 47, "vel": 73, "dur": 0.5, "tieStart": false, "tieEnd": false, "tieGroup": 0}, {"pitch": 52, "vel": 69, "dur": 0.5, "tieStart": false, "tieEnd": false, "tieGroup": 0}]}, {"start": 0.5, "dur": 1.0, "rest": false, "notes": [{"pitch": 47, "vel": 81, "dur": 1.0, "tieStart": false, "tieEnd": false, "tieGroup": 0}, {"pitch": 64, "vel": 77, "dur": 1.0, "tieStart": false, "tieEnd": false, "tieGroup": 0}]}, {"start": 1.5, "dur": 0.5, "rest": false, "notes": [{"pitch": 52, "vel": 89, "dur": 0.5, "tieStart": false, "tieEnd": false, "tieGroup": 0}]}, {"start": 2.0, "dur": 0.5, "rest": false, "notes": [{"pitch": 62, "vel": 89, "dur": 0.5, "tieStart": false, "tieEnd": false, "tieGroup": 0}]}, {"start": 2.5, "dur": 0.5, "rest": false, "notes": [{"pitch": 55, "vel": 73, "dur": 0.5, "tieStart": false, "tieEnd": false, "tieGroup": 0}]}, {"start": 3.0, "dur": 0.5, "rest": false, "notes": [{"pitch": 47, "vel": 81, "dur": 0.5, "tieStart": false, "tieEnd": false, "tieGroup": 0}]}, {"start": 3.5, "dur": 0.5, "rest": false, "notes": [{"pitch": 52, "vel": 89, "dur": 0.5, "tieStart": false, "tieEnd": false, "tieGroup": 0}, {"pitch": 64, "vel": 85, "dur": 0.5, "tieStart": false, "tieEnd": false, "tieGroup": 0}]}]}, {"ts_num": 4, "ts_den": 4, "key_fifths": 0, "key_mode": 0, "clef": 1, "tempo": 120, "velocity": 100, "lyrics": "", "expr": [], "segs": [{"start": 0.0, "dur": 1.0, "rest": false, "notes": [{"pitch": 45, "vel": 81, "dur": 1.0, "tieStart": false, "tieEnd": false, "tieGroup": 0}, {"pitch": 60, "vel": 77, "dur": 1.0, "tieStart": false, "tieEnd": false, "tieGroup": 0}]}, {"start": 1.0, "dur": 0.5, "rest": false, "notes": [{"pitch": 60, "vel": 89, "dur": 0.5, "tieStart": false, "tieEnd": false, "tieGroup": 0}]}, {"start": 1.5, "dur": 0.5, "rest": false, "notes": [{"pitch": 64, "vel": 81, "dur": 0.5, "tieStart": false, "tieEnd": false, "tieGroup": 0}]}, {"start": 2.0, "dur": 0.5, "rest": false, "notes": [{"pitch": 67, "vel": 73, "dur": 0.5, "tieStart": false, "tieEnd": false, "tieGroup": 0}]}, {"start": 2.5, "dur": 1.0, "rest": false, "notes": [{"pitch": 69, "vel": 81, "dur": 1.0, "tieStart": false, "tieEnd": false, "tieGroup": 0}]}, {"start": 3.5, "dur": 0.5, "rest": false, "notes": [{"pitch": 57, "vel": 89, "dur": 0.5, "tieStart": false, "tieEnd": false, "tieGroup": 0}, {"pitch": 60, "vel": 85, "dur": 0.5, "tieStart": false, "tieEnd": false, "tieGroup": 0}]}]}, {"ts_num": 4, "ts_den": 4, "key_fifths": 0, "key_mode": 0, "clef": 1, "tempo": 120, "velocity": 100, "lyrics": "", "expr": [], "segs": [{"start": 0.0, "dur": 0.5, "rest": false, "notes": [{"pitch": 50, "vel": 81, "dur": 0.5, "tieStart": false, "tieEnd": false, "tieGroup": 0}]}, {"start": 0.5, "dur": 0.5, "rest": false, "notes": [{"pitch": 45, "vel": 73, "dur": 0.5, "tieStart": false, "tieEnd": false, "tieGroup": 0}]}, {"start": 1.0, "dur": 0.5, "rest": false, "notes": [{"pitch": 60, "vel": 81, "dur": 0.5, "tieStart": false, "tieEnd": false, "tieGroup": 0}]}, {"start": 1.5, "dur": 0.5, "rest": false, "notes": [{"pitch": 69, "vel": 89, "dur": 0.5, "tieStart": false, "tieEnd": false, "tieGroup": 0}]}, {"start": 2.0, "dur": 0.5, "rest": false, "notes": [{"pitch": 60, "vel": 81, "dur": 0.5, "tieStart": false, "tieEnd": false, "tieGroup": 0}, {"pitch": 62, "vel": 77, "dur": 0.5, "tieStart": false, "tieEnd": false, "tieGroup": 0}]}, {"start": 2.5, "dur": 0.5, "rest": false, "notes": [{"pitch": 45, "vel": 73, "dur": 0.5, "tieStart": false, "tieEnd": false, "tieGroup": 0}]}, {"start": 3.0, "dur": 0.5, "rest": false, "notes": [{"pitch": 60, "vel": 81, "dur": 0.5, "tieStart": false, "tieEnd": false, "tieGroup": 0}]}, {"start": 3.5, "dur": 0.5, "rest": false, "notes": [{"pitch": 69, "vel": 89, "dur": 0.5, "tieStart": false, "tieEnd": false, "tieGroup": 0}]}]}, {"ts_num": 4, "ts_den": 4, "key_fifths": 0, "key_mode": 0, "clef": 1, "tempo": 120, "velocity": 100, "lyrics": "", "expr": [], "segs": [{"start": 0.0, "dur": 1.0, "rest": false, "notes": [{"pitch": 43, "vel": 89, "dur": 1.0, "tieStart": false, "tieEnd": false, "tieGroup": 0}, {"pitch": 59, "vel": 85, "dur": 1.0, "tieStart": false, "tieEnd": false, "tieGroup": 0}]}, {"start": 1.0, "dur": 0.5, "rest": false, "notes": [{"pitch": 50, "vel": 97, "dur": 0.5, "tieStart": false, "tieEnd": false, "tieGroup": 0}]}, {"start": 1.5, "dur": 0.5, "rest": false, "notes": [{"pitch": 50, "vel": 97, "dur": 0.5, "tieStart": false, "tieEnd": false, "tieGroup": 0}]}, {"start": 2.0, "dur": 0.5, "rest": false, "notes": [{"pitch": 65, "vel": 105, "dur": 0.5, "tieStart": false, "tieEnd": false, "tieGroup": 0}]}, {"start": 2.5, "dur": 1.0, "rest": false, "notes": [{"pitch": 67, "vel": 89, "dur": 1.0, "tieStart": false, "tieEnd": false, "tieGroup": 0}]}, {"start": 3.5, "dur": 0.5, "rest": false, "notes": [{"pitch": 50, "vel": 97, "dur": 0.5, "tieStart": false, "tieEnd": false, "tieGroup": 0}, {"pitch": 55, "vel": 93, "dur": 0.5, "tieStart": false, "tieEnd": false, "tieGroup": 0}]}]}, {"ts_num": 4, "ts_den": 4, "key_fifths": 0, "key_mode": 0, "clef": 1, "tempo": 120, "velocity": 100, "lyrics": "", "expr": [], "segs": [{"start": 0.0, "dur": 0.5, "rest": false, "notes": [{"pitch": 43, "vel": 81, "dur": 0.5, "tieStart": false, "tieEnd": false, "tieGroup": 0}, {"pitch": 48, "vel": 77, "dur": 0.5, "tieStart": false, "tieEnd": false, "tieGroup": 0}]}, {"start": 0.5, "dur": 1.0, "rest": false, "notes": [{"pitch": 60, "vel": 73, "dur": 1.0, "tieStart": false, "tieEnd": false, "tieGroup": 0}]}, {"start": 1.5, "dur": 0.5, "rest": false, "notes": [{"pitch": 59, "vel": 73, "dur": 0.5, "tieStart": false, "tieEnd": false, "tieGroup": 0}]}, {"start": 2.0, "dur": 0.5, "rest": false, "notes": [{"pitch": 55, "vel": 81, "dur": 0.5, "tieStart": false, "tieEnd": false, "tieGroup": 0}]}, {"start": 2.5, "dur": 0.5, "rest": false, "notes": [{"pitch": 52, "vel": 81, "dur": 0.5, "tieStart": false, "tieEnd": false, "tieGroup": 0}, {"pitch": 60, "vel": 77, "dur": 0.5, "tieStart": false, "tieEnd": false, "tieGroup": 0}]}, {"start": 3.0, "dur": 0.5, "rest": false, "notes": [{"pitch": 60, "vel": 73, "dur": 0.5, "tieStart": false, "tieEnd": false, "tieGroup": 0}]}, {"start": 3.5, "dur": 0.5, "rest": false, "notes": [{"pitch": 59, "vel": 73, "dur": 0.5, "tieStart": false, "tieEnd": false, "tieGroup": 0}]}]}, {"ts_num": 4, "ts_den": 4, "key_fifths": 0, "key_mode": 0, "clef": 1, "tempo": 120, "velocity": 100, "lyrics": "", "expr": [], "segs": [{"start": 0.0, "dur": 1.0, "rest": false, "notes": [{"pitch": 45, "vel": 97, "dur": 1.0, "tieStart": false, "tieEnd": false, "tieGroup": 0}, {"pitch": 55, "vel": 93, "dur": 1.0, "tieStart": false, "tieEnd": false, "tieGroup": 0}]}, {"start": 1.0, "dur": 0.5, "rest": false, "notes": [{"pitch": 57, "vel": 97, "dur": 0.5, "tieStart": false, "tieEnd": false, "tieGroup": 0}, {"pitch": 60, "vel": 93, "dur": 0.5, "tieStart": false, "tieEnd": false, "tieGroup": 0}]}, {"start": 1.5, "dur": 0.5, "rest": false, "notes": [{"pitch": 64, "vel": 97, "dur": 0.5, "tieStart": false, "tieEnd": false, "tieGroup": 0}]}, {"start": 2.0, "dur": 0.5, "rest": false, "notes": [{"pitch": 67, "vel": 97, "dur": 0.5, "tieStart": false, "tieEnd": false, "tieGroup": 0}]}, {"start": 2.5, "dur": 1.0, "rest": false, "notes": [{"pitch": 64, "vel": 97, "dur": 1.0, "tieStart": false, "tieEnd": false, "tieGroup": 0}]}, {"start": 3.5, "dur": 0.5, "rest": false, "notes": [{"pitch": 60, "vel": 97, "dur": 0.5, "tieStart": false, "tieEnd": false, "tieGroup": 0}]}]}, {"ts_num": 4, "ts_den": 4, "key_fifths": 0, "key_mode": 0, "clef": 1, "tempo": 120, "velocity": 100, "lyrics": "", "expr": [], "segs": [{"start": 0.0, "dur": 1.0, "rest": false, "notes": [{"pitch": 53, "vel": 73, "dur": 1.0, "tieStart": false, "tieEnd": false, "tieGroup": 0}, {"pitch": 69, "vel": 69, "dur": 1.0, "tieStart": false, "tieEnd": false, "tieGroup": 0}]}, {"start": 1.0, "dur": 0.5, "rest": false, "notes": [{"pitch": 57, "vel": 60, "dur": 0.5, "tieStart": false, "tieEnd": false, "tieGroup": 0}]}, {"start": 1.5, "dur": 0.5, "rest": false, "notes": [{"pitch": 72, "vel": 73, "dur": 0.5, "tieStart": false, "tieEnd": false, "tieGroup": 0}]}, {"start": 2.0, "dur": 0.5, "rest": false, "notes": [{"pitch": 64, "vel": 65, "dur": 0.5, "tieStart": false, "tieEnd": false, "tieGroup": 0}, {"pitch": 65, "vel": 61, "dur": 0.5, "tieStart": false, "tieEnd": false, "tieGroup": 0}]}, {"start": 2.5, "dur": 1.0, "rest": false, "notes": [{"pitch": 77, "vel": 73, "dur": 1.0, "tieStart": false, "tieEnd": false, "tieGroup": 0}]}, {"start": 3.5, "dur": 0.5, "rest": false, "notes": [{"pitch": 57, "vel": 60, "dur": 0.5, "tieStart": false, "tieEnd": false, "tieGroup": 0}]}]}, {"ts_num": 4, "ts_den": 4, "key_fifths": 0, "key_mode": 0, "clef": 1, "tempo": 120, "velocity": 100, "lyrics": "", "expr": [], "segs": [{"start": 0.0, "dur": 0.5, "rest": false, "notes": [{"pitch": 52, "vel": 97, "dur": 0.5, "tieStart": false, "tieEnd": false, "tieGroup": 0}, {"pitch": 64, "vel": 93, "dur": 0.5, "tieStart": false, "tieEnd": false, "tieGroup": 0}]}, {"start": 0.5, "dur": 0.5, "rest": false, "notes": [{"pitch": 62, "vel": 97, "dur": 0.5, "tieStart": false, "tieEnd": false, "tieGroup": 0}]}, {"start": 1.0, "dur": 0.5, "rest": false, "notes": [{"pitch": 64, "vel": 97, "dur": 0.5, "tieStart": false, "tieEnd": false, "tieGroup": 0}]}, {"start": 1.5, "dur": 0.5, "rest": false, "notes": [{"pitch": 71, "vel": 97, "dur": 0.5, "tieStart": false, "tieEnd": false, "tieGroup": 0}]}, {"start": 2.0, "dur": 0.5, "rest": false, "notes": [{"pitch": 74, "vel": 97, "dur": 0.5, "tieStart": false, "tieEnd": false, "tieGroup": 0}]}, {"start": 2.5, "dur": 0.5, "rest": false, "notes": [{"pitch": 62, "vel": 97, "dur": 0.5, "tieStart": false, "tieEnd": false, "tieGroup": 0}]}, {"start": 3.0, "dur": 0.5, "rest": false, "notes": [{"pitch": 64, "vel": 97, "dur": 0.5, "tieStart": false, "tieEnd": false, "tieGroup": 0}]}, {"start": 3.5, "dur": 0.5, "rest": false, "notes": [{"pitch": 64, "vel": 97, "dur": 0.5, "tieStart": false, "tieEnd": false, "tieGroup": 0}, {"pitch": 71, "vel": 93, "dur": 0.5, "tieStart": false, "tieEnd": false, "tieGroup": 0}]}]}, {"ts_num": 4, "ts_den": 4, "key_fifths": 0, "key_mode": 0, "clef": 1, "tempo": 120, "velocity": 100, "lyrics": "", "expr": [], "segs": [{"start": 0.0, "dur": 1.0, "rest": false, "notes": [{"pitch": 48, "vel": 105, "dur": 1.0, "tieStart": false, "tieEnd": false, "tieGroup": 0}, {"pitch": 64, "vel": 101, "dur": 1.0, "tieStart": false, "tieEnd": false, "tieGroup": 0}]}, {"start": 1.0, "dur": 0.5, "rest": false, "notes": [{"pitch": 64, "vel": 105, "dur": 0.5, "tieStart": false, "tieEnd": false, "tieGroup": 0}]}, {"start": 1.5, "dur": 0.5, "rest": false, "notes": [{"pitch": 64, "vel": 105, "dur": 0.5, "tieStart": false, "tieEnd": false, "tieGroup": 0}]}, {"start": 2.0, "dur": 0.5, "rest": false, "notes": [{"pitch": 60, "vel": 105, "dur": 0.5, "tieStart": false, "tieEnd": false, "tieGroup": 0}, {"pitch": 71, "vel": 101, "dur": 0.5, "tieStart": false, "tieEnd": false, "tieGroup": 0}]}, {"start": 2.5, "dur": 1.0, "rest": false, "notes": [{"pitch": 72, "vel": 105, "dur": 1.0, "tieStart": false, "tieEnd": false, "tieGroup": 0}]}, {"start": 3.5, "dur": 0.5, "rest": false, "notes": [{"pitch": 64, "vel": 105, "dur": 0.5, "tieStart": false, "tieEnd": false, "tieGroup": 0}]}]}, {"ts_num": 4, "ts_den": 4, "key_fifths": 0, "key_mode": 0, "clef": 1, "tempo": 120, "velocity": 100, "lyrics": "", "expr": [], "segs": [{"start": 0.0, "dur": 0.5, "rest": false, "notes": [{"pitch": 48, "vel": 105, "dur": 0.5, "tieStart": false, "tieEnd": false, "tieGroup": 0}, {"pitch": 60, "vel": 101, "dur": 0.5, "tieStart": false, "tieEnd": false, "tieGroup": 0}]}, {"start": 0.5, "dur": 0.5, "rest": false, "notes": [{"pitch": 60, "vel": 105, "dur": 0.5, "tieStart": false, "tieEnd": false, "tieGroup": 0}]}, {"start": 1.0, "dur": 0.5, "rest": false, "notes": [{"pitch": 57, "vel": 105, "dur": 0.5, "tieStart": false, "tieEnd": false, "tieGroup": 0}]}, {"start": 1.5, "dur": 0.5, "rest": false, "notes": [{"pitch": 64, "vel": 105, "dur": 0.5, "tieStart": false, "tieEnd": false, "tieGroup": 0}]}, {"start": 2.0, "dur": 0.5, "rest": false, "notes": [{"pitch": 69, "vel": 105, "dur": 0.5, "tieStart": false, "tieEnd": false, "tieGroup": 0}]}, {"start": 2.5, "dur": 0.5, "rest": false, "notes": [{"pitch": 60, "vel": 105, "dur": 0.5, "tieStart": false, "tieEnd": false, "tieGroup": 0}]}, {"start": 3.0, "dur": 0.5, "rest": false, "notes": [{"pitch": 57, "vel": 105, "dur": 0.5, "tieStart": false, "tieEnd": false, "tieGroup": 0}]}, {"start": 3.5, "dur": 0.5, "rest": false, "notes": [{"pitch": 64, "vel": 105, "dur": 0.5, "tieStart": false, "tieEnd": false, "tieGroup": 0}]}]}, {"ts_num": 4, "ts_den": 4, "key_fifths": 0, "key_mode": 0, "clef": 1, "tempo": 120, "velocity": 100, "lyrics": "", "expr": [], "segs": [{"start": 0.0, "dur": 1.0, "rest": false, "notes": [{"pitch": 43, "vel": 81, "dur": 1.0, "tieStart": false, "tieEnd": false, "tieGroup": 0}, {"pitch": 59, "vel": 77, "dur": 1.0, "tieStart": false, "tieEnd": false, "tieGroup": 0}]}, {"start": 1.0, "dur": 0.5, "rest": false, "notes": [{"pitch": 59, "vel": 73, "dur": 0.5, "tieStart": false, "tieEnd": false, "tieGroup": 0}]}, {"start": 1.5, "dur": 0.5, "rest": false, "notes": [{"pitch": 59, "vel": 60, "dur": 0.5, "tieStart": false, "tieEnd": false, "tieGroup": 0}]}, {"start": 2.0, "dur": 0.5, "rest": false, "notes": [{"pitch": 67, "vel": 65, "dur": 0.5, "tieStart": false, "tieEnd": false, "tieGroup": 0}]}, {"start": 2.5, "dur": 1.0, "rest": false, "notes": [{"pitch": 69, "vel": 81, "dur": 1.0, "tieStart": false, "tieEnd": false, "tieGroup": 0}]}, {"start": 3.5, "dur": 0.5, "rest": false, "notes": [{"pitch": 55, "vel": 73, "dur": 0.5, "tieStart": false, "tieEnd": false, "tieGroup": 0}, {"pitch": 62, "vel": 69, "dur": 0.5, "tieStart": false, "tieEnd": false, "tieGroup": 0}]}]}, {"ts_num": 4, "ts_den": 4, "key_fifths": 0, "key_mode": 0, "clef": 1, "tempo": 120, "velocity": 100, "lyrics": "", "expr": [], "segs": [{"start": 0.0, "dur": 0.5, "rest": false, "notes": [{"pitch": 48, "vel": 81, "dur": 0.5, "tieStart": false, "tieEnd": false, "tieGroup": 0}]}, {"start": 0.5, "dur": 0.5, "rest": false, "notes": [{"pitch": 55, "vel": 73, "dur": 0.5, "tieStart": false, "tieEnd": false, "tieGroup": 0}]}, {"start": 1.0, "dur": 0.5, "rest": false, "notes": [{"pitch": 64, "vel": 73, "dur": 0.5, "tieStart": false, "tieEnd": false, "tieGroup": 0}]}, {"start": 1.5, "dur": 0.5, "rest": false, "notes": [{"pitch": 67, "vel": 73, "dur": 0.5, "tieStart": false, "tieEnd": false, "tieGroup": 0}]}, {"start": 2.0, "dur": 0.5, "rest": false, "notes": [{"pitch": 55, "vel": 81, "dur": 0.5, "tieStart": false, "tieEnd": false, "tieGroup": 0}]}, {"start": 2.5, "dur": 0.5, "rest": false, "notes": [{"pitch": 60, "vel": 73, "dur": 0.5, "tieStart": false, "tieEnd": false, "tieGroup": 0}]}, {"start": 3.0, "dur": 0.5, "rest": false, "notes": [{"pitch": 67, "vel": 73, "dur": 0.5, "tieStart": false, "tieEnd": false, "tieGroup": 0}]}, {"start": 3.5, "dur": 0.5, "rest": false, "notes": [{"pitch": 60, "vel": 73, "dur": 0.5, "tieStart": false, "tieEnd": false, "tieGroup": 0}]}]}, {"ts_num": 4, "ts_den": 4, "key_fifths": 0, "key_mode": 0, "clef": 1, "tempo": 120, "velocity": 100, "lyrics": "", "expr": [], "segs": [{"start": 0.0, "dur": 0.5, "rest": false, "notes": [{"pitch": 48, "vel": 81, "dur": 0.5, "tieStart": false, "tieEnd": false, "tieGroup": 0}, {"pitch": 60, "vel": 77, "dur": 0.5, "tieStart": false, "tieEnd": false, "tieGroup": 0}]}, {"start": 0.5, "dur": 1.0, "rest": false, "notes": [{"pitch": 60, "vel": 81, "dur": 1.0, "tieStart": false, "tieEnd": false, "tieGroup": 0}]}, {"start": 1.5, "dur": 0.5, "rest": false, "notes": [{"pitch": 60, "vel": 81, "dur": 0.5, "tieStart": false, "tieEnd": false, "tieGroup": 0}]}, {"start": 2.0, "dur": 0.5, "rest": false, "notes": [{"pitch": 50, "vel": 81, "dur": 0.5, "tieStart": false, "tieEnd": false, "tieGroup": 0}]}, {"start": 2.5, "dur": 0.5, "rest": false, "notes": [{"pitch": 60, "vel": 81, "dur": 0.5, "tieStart": false, "tieEnd": false, "tieGroup": 0}]}, {"start": 3.0, "dur": 0.5, "rest": false, "notes": [{"pitch": 64, "vel": 81, "dur": 0.5, "tieStart": false, "tieEnd": false, "tieGroup": 0}]}, {"start": 3.5, "dur": 0.5, "rest": false, "notes": [{"pitch": 64, "vel": 81, "dur": 0.5, "tieStart": false, "tieEnd": false, "tieGroup": 0}]}]}, {"ts_num": 4, "ts_den": 4, "key_fifths": 0, "key_mode": 0, "clef": 1, "tempo": 120, "velocity": 100, "lyrics": "", "expr": [], "segs": [{"start": 0.0, "dur": 4.0, "rest": true, "notes": []}]}]}, {"name": "반주 코드 비트", "instrument": {"name": "Stereo Grand", "bankMSB": 0, "bankLSB": 0, "program": 0, "channelHint": -1, "percussion": false, "volume": 72, "pan": 64, "transpose": 0}, "measures": [{"ts_num": 4, "ts_den": 4, "key_fifths": 0, "key_mode": 0, "clef": 1, "tempo": 120, "velocity": 100, "lyrics": "", "expr": [], "segs": [{"start": 0.0, "dur": 1.0, "rest": false, "notes": [{"pitch": 45, "vel": 65, "dur": 1.0, "tieStart": false, "tieEnd": false, "tieGroup": 0}, {"pitch": 52, "vel": 61, "dur": 1.0, "tieStart": false, "tieEnd": false, "tieGroup": 0}, {"pitch": 55, "vel": 57, "dur": 1.0, "tieStart": false, "tieEnd": false, "tieGroup": 0}, {"pitch": 57, "vel": 53, "dur": 1.0, "tieStart": false, "tieEnd": false, "tieGroup": 0}, {"pitch": 60, "vel": 49, "dur": 1.0, "tieStart": false, "tieEnd": false, "tieGroup": 0}]}, {"start": 1.0, "dur": 1.0, "rest": false, "notes": [{"pitch": 45, "vel": 60, "dur": 1.0, "tieStart": false, "tieEnd": false, "tieGroup": 0}, {"pitch": 57, "vel": 56, "dur": 1.0, "tieStart": false, "tieEnd": false, "tieGroup": 0}, {"pitch": 60, "vel": 52, "dur": 1.0, "tieStart": false, "tieEnd": false, "tieGroup": 0}, {"pitch": 64, "vel": 48, "dur": 1.0, "tieStart": false, "tieEnd": false, "tieGroup": 0}, {"pitch": 67, "vel": 44, "dur": 1.0, "tieStart": false, "tieEnd": false, "tieGroup": 0}]}, {"start": 2.0, "dur": 2.0, "rest": false, "notes": [{"pitch": 45, "vel": 60, "dur": 2.0, "tieStart": false, "tieEnd": false, "tieGroup": 0}, {"pitch": 52, "vel": 56, "dur": 2.0, "tieStart": false, "tieEnd": false, "tieGroup": 0}, {"pitch": 55, "vel": 52, "dur": 2.0, "tieStart": false, "tieEnd": false, "tieGroup": 0}, {"pitch": 57, "vel": 48, "dur": 2.0, "tieStart": false, "tieEnd": false, "tieGroup": 0}, {"pitch": 60, "vel": 44, "dur": 2.0, "tieStart": false, "tieEnd": false, "tieGroup": 0}]}]}, {"ts_num": 4, "ts_den": 4, "key_fifths": 0, "key_mode": 0, "clef": 1, "tempo": 120, "velocity": 100, "lyrics": "", "expr": [], "segs": [{"start": 0.0, "dur": 1.0, "rest": false, "notes": [{"pitch": 52, "vel": 89, "dur": 1.0, "tieStart": false, "tieEnd": false, "tieGroup": 0}, {"pitch": 62, "vel": 85, "dur": 1.0, "tieStart": false, "tieEnd": false, "tieGroup": 0}, {"pitch": 64, "vel": 81, "dur": 1.0, "tieStart": false, "tieEnd": false, "tieGroup": 0}, {"pitch": 67, "vel": 77, "dur": 1.0, "tieStart": false, "tieEnd": false, "tieGroup": 0}, {"pitch": 71, "vel": 73, "dur": 1.0, "tieStart": false, "tieEnd": false, "tieGroup": 0}]}, {"start": 1.0, "dur": 1.0, "rest": false, "notes": [{"pitch": 52, "vel": 89, "dur": 1.0, "tieStart": false, "tieEnd": false, "tieGroup": 0}, {"pitch": 59, "vel": 85, "dur": 1.0, "tieStart": false, "tieEnd": false, "tieGroup": 0}, {"pitch": 62, "vel": 81, "dur": 1.0, "tieStart": false, "tieEnd": false, "tieGroup": 0}, {"pitch": 64, "vel": 77, "dur": 1.0, "tieStart": false, "tieEnd": false, "tieGroup": 0}, {"pitch": 67, "vel": 73, "dur": 1.0, "tieStart": false, "tieEnd": false, "tieGroup": 0}]}, {"start": 2.0, "dur": 1.0, "rest": false, "notes": [{"pitch": 52, "vel": 73, "dur": 1.0, "tieStart": false, "tieEnd": false, "tieGroup": 0}, {"pitch": 55, "vel": 69, "dur": 1.0, "tieStart": false, "tieEnd": false, "tieGroup": 0}, {"pitch": 59, "vel": 65, "dur": 1.0, "tieStart": false, "tieEnd": false, "tieGroup": 0}, {"pitch": 62, "vel": 61, "dur": 1.0, "tieStart": false, "tieEnd": false, "tieGroup": 0}, {"pitch": 64, "vel": 57, "dur": 1.0, "tieStart": false, "tieEnd": false, "tieGroup": 0}]}, {"start": 3.0, "dur": 1.0, "rest": false, "notes": [{"pitch": 52, "vel": 73, "dur": 1.0, "tieStart": false, "tieEnd": false, "tieGroup": 0}, {"pitch": 59, "vel": 69, "dur": 1.0, "tieStart": false, "tieEnd": false, "tieGroup": 0}, {"pitch": 62, "vel": 65, "dur": 1.0, "tieStart": false, "tieEnd": false, "tieGroup": 0}, {"pitch": 64, "vel": 61, "dur": 1.0, "tieStart": false, "tieEnd": false, "tieGroup": 0}, {"pitch": 67, "vel": 57, "dur": 1.0, "tieStart": false, "tieEnd": false, "tieGroup": 0}]}]}, {"ts_num": 4, "ts_den": 4, "key_fifths": 0, "key_mode": 0, "clef": 1, "tempo": 120, "velocity": 100, "lyrics": "", "expr": [], "segs": [{"start": 0.0, "dur": 2.0, "rest": false, "notes": [{"pitch": 50, "vel": 89, "dur": 2.0, "tieStart": false, "tieEnd": false, "tieGroup": 0}, {"pitch": 65, "vel": 85, "dur": 2.0, "tieStart": false, "tieEnd": false, "tieGroup": 0}, {"pitch": 69, "vel": 81, "dur": 2.0, "tieStart": false, "tieEnd": false, "tieGroup": 0}, {"pitch": 72, "vel": 77, "dur": 2.0, "tieStart": false, "tieEnd": false, "tieGroup": 0}, {"pitch": 74, "vel": 73, "dur": 2.0, "tieStart": false, "tieEnd": false, "tieGroup": 0}]}, {"start": 2.0, "dur": 1.0, "rest": false, "notes": [{"pitch": 50, "vel": 73, "dur": 1.0, "tieStart": false, "tieEnd": false, "tieGroup": 0}, {"pitch": 60, "vel": 69, "dur": 1.0, "tieStart": false, "tieEnd": false, "tieGroup": 0}, {"pitch": 62, "vel": 65, "dur": 1.0, "tieStart": false, "tieEnd": false, "tieGroup": 0}, {"pitch": 65, "vel": 61, "dur": 1.0, "tieStart": false, "tieEnd": false, "tieGroup": 0}, {"pitch": 69, "vel": 57, "dur": 1.0, "tieStart": false, "tieEnd": false, "tieGroup": 0}]}, {"start": 3.0, "dur": 1.0, "rest": false, "notes": [{"pitch": 50, "vel": 81, "dur": 1.0, "tieStart": false, "tieEnd": false, "tieGroup": 0}, {"pitch": 65, "vel": 77, "dur": 1.0, "tieStart": false, "tieEnd": false, "tieGroup": 0}, {"pitch": 69, "vel": 73, "dur": 1.0, "tieStart": false, "tieEnd": false, "tieGroup": 0}, {"pitch": 72, "vel": 69, "dur": 1.0, "tieStart": false, "tieEnd": false, "tieGroup": 0}, {"pitch": 74, "vel": 65, "dur": 1.0, "tieStart": false, "tieEnd": false, "tieGroup": 0}]}]}, {"ts_num": 4, "ts_den": 4, "key_fifths": 0, "key_mode": 0, "clef": 1, "tempo": 120, "velocity": 100, "lyrics": "", "expr": [], "segs": [{"start": 0.0, "dur": 1.0, "rest": false, "notes": [{"pitch": 43, "vel": 81, "dur": 1.0, "tieStart": false, "tieEnd": false, "tieGroup": 0}, {"pitch": 47, "vel": 77, "dur": 1.0, "tieStart": false, "tieEnd": false, "tieGroup": 0}, {"pitch": 50, "vel": 73, "dur": 1.0, "tieStart": false, "tieEnd": false, "tieGroup": 0}, {"pitch": 52, "vel": 69, "dur": 1.0, "tieStart": false, "tieEnd": false, "tieGroup": 0}]}, {"start": 1.0, "dur": 1.0, "rest": false, "notes": [{"pitch": 50, "vel": 81, "dur": 1.0, "tieStart": false, "tieEnd": false, "tieGroup": 0}, {"pitch": 52, "vel": 77, "dur": 1.0, "tieStart": false, "tieEnd": false, "tieGroup": 0}, {"pitch": 55, "vel": 73, "dur": 1.0, "tieStart": false, "tieEnd": false, "tieGroup": 0}, {"pitch": 59, "vel": 69, "dur": 1.0, "tieStart": false, "tieEnd": false, "tieGroup": 0}]}, {"start": 2.0, "dur": 2.0, "rest": false, "notes": [{"pitch": 52, "vel": 97, "dur": 2.0, "tieStart": false, "tieEnd": false, "tieGroup": 0}, {"pitch": 59, "vel": 93, "dur": 2.0, "tieStart": false, "tieEnd": false, "tieGroup": 0}, {"pitch": 62, "vel": 89, "dur": 2.0, "tieStart": false, "tieEnd": false, "tieGroup": 0}, {"pitch": 64, "vel": 85, "dur": 2.0, "tieStart": false, "tieEnd": false, "tieGroup": 0}, {"pitch": 67, "vel": 81, "dur": 2.0, "tieStart": false, "tieEnd": false, "tieGroup": 0}]}]}, {"ts_num": 4, "ts_den": 4, "key_fifths": 0, "key_mode": 0, "clef": 1, "tempo": 120, "velocity": 100, "lyrics": "", "expr": [], "segs": [{"start": 0.0, "dur": 1.0, "rest": false, "notes": [{"pitch": 45, "vel": 97, "dur": 1.0, "tieStart": false, "tieEnd": false, "tieGroup": 0}, {"pitch": 60, "vel": 93, "dur": 1.0, "tieStart": false, "tieEnd": false, "tieGroup": 0}, {"pitch": 64, "vel": 89, "dur": 1.0, "tieStart": false, "tieEnd": false, "tieGroup": 0}, {"pitch": 67, "vel": 85, "dur": 1.0, "tieStart": false, "tieEnd": false, "tieGroup": 0}, {"pitch": 69, "vel": 81, "dur": 1.0, "tieStart": false, "tieEnd": false, "tieGroup": 0}]}, {"start": 1.0, "dur": 1.0, "rest": false, "notes": [{"pitch": 45, "vel": 97, "dur": 1.0, "tieStart": false, "tieEnd": false, "tieGroup": 0}, {"pitch": 60, "vel": 93, "dur": 1.0, "tieStart": false, "tieEnd": false, "tieGroup": 0}, {"pitch": 64, "vel": 89, "dur": 1.0, "tieStart": false, "tieEnd": false, "tieGroup": 0}, {"pitch": 67, "vel": 85, "dur": 1.0, "tieStart": false, "tieEnd": false, "tieGroup": 0}, {"pitch": 69, "vel": 81, "dur": 1.0, "tieStart": false, "tieEnd": false, "tieGroup": 0}]}, {"start": 2.0, "dur": 1.0, "rest": false, "notes": [{"pitch": 45, "vel": 60, "dur": 1.0, "tieStart": false, "tieEnd": false, "tieGroup": 0}, {"pitch": 48, "vel": 56, "dur": 1.0, "tieStart": false, "tieEnd": false, "tieGroup": 0}, {"pitch": 52, "vel": 52, "dur": 1.0, "tieStart": false, "tieEnd": false, "tieGroup": 0}, {"pitch": 55, "vel": 48, "dur": 1.0, "tieStart": false, "tieEnd": false, "tieGroup": 0}, {"pitch": 57, "vel": 44, "dur": 1.0, "tieStart": false, "tieEnd": false, "tieGroup": 0}]}, {"start": 3.0, "dur": 1.0, "rest": false, "notes": [{"pitch": 45, "vel": 114, "dur": 1.0, "tieStart": false, "tieEnd": false, "tieGroup": 0}, {"pitch": 55, "vel": 110, "dur": 1.0, "tieStart": false, "tieEnd": false, "tieGroup": 0}, {"pitch": 57, "vel": 106, "dur": 1.0, "tieStart": false, "tieEnd": false, "tieGroup": 0}, {"pitch": 60, "vel": 102, "dur": 1.0, "tieStart": false, "tieEnd": false, "tieGroup": 0}, {"pitch": 64, "vel": 98, "dur": 1.0, "tieStart": false, "tieEnd": false, "tieGroup": 0}]}]}, {"ts_num": 4, "ts_den": 4, "key_fifths": 0, "key_mode": 0, "clef": 1, "tempo": 120, "velocity": 100, "lyrics": "", "expr": [], "segs": [{"start": 0.0, "dur": 1.0, "rest": false, "notes": [{"pitch": 43, "vel": 97, "dur": 1.0, "tieStart": false, "tieEnd": false, "tieGroup": 0}, {"pitch": 47, "vel": 93, "dur": 1.0, "tieStart": false, "tieEnd": false, "tieGroup": 0}, {"pitch": 50, "vel": 89, "dur": 1.0, "tieStart": false, "tieEnd": false, "tieGroup": 0}, {"pitch": 52, "vel": 85, "dur": 1.0, "tieStart": false, "tieEnd": false, "tieGroup": 0}]}, {"start": 1.0, "dur": 1.0, "rest": false, "notes": [{"pitch": 52, "vel": 97, "dur": 1.0, "tieStart": false, "tieEnd": false, "tieGroup": 0}, {"pitch": 62, "vel": 93, "dur": 1.0, "tieStart": false, "tieEnd": false, "tieGroup": 0}, {"pitch": 64, "vel": 89, "dur": 1.0, "tieStart": false, "tieEnd": false, "tieGroup": 0}, {"pitch": 67, "vel": 85, "dur": 1.0, "tieStart": false, "tieEnd": false, "tieGroup": 0}, {"pitch": 71, "vel": 81, "dur": 1.0, "tieStart": false, "tieEnd": false, "tieGroup": 0}]}, {"start": 2.0, "dur": 1.0, "rest": false, "notes": [{"pitch": 52, "vel": 81, "dur": 1.0, "tieStart": false, "tieEnd": false, "tieGroup": 0}, {"pitch": 55, "vel": 77, "dur": 1.0, "tieStart": false, "tieEnd": false, "tieGroup": 0}, {"pitch": 59, "vel": 73, "dur": 1.0, "tieStart": false, "tieEnd": false, "tieGroup": 0}, {"pitch": 62, "vel": 69, "dur": 1.0, "tieStart": false, "tieEnd": false, "tieGroup": 0}, {"pitch": 64, "vel": 65, "dur": 1.0, "tieStart": false, "tieEnd": false, "tieGroup": 0}]}, {"start": 3.0, "dur": 1.0, "rest": false, "notes": [{"pitch": 52, "vel": 97, "dur": 1.0, "tieStart": false, "tieEnd": false, "tieGroup": 0}, {"pitch": 55, "vel": 93, "dur": 1.0, "tieStart": false, "tieEnd": false, "tieGroup": 0}, {"pitch": 59, "vel": 89, "dur": 1.0, "tieStart": false, "tieEnd": false, "tieGroup": 0}, {"pitch": 62, "vel": 85, "dur": 1.0, "tieStart": false, "tieEnd": false, "tieGroup": 0}, {"pitch": 64, "vel": 81, "dur": 1.0, "tieStart": false, "tieEnd": false, "tieGroup": 0}]}]}, {"ts_num": 4, "ts_den": 4, "key_fifths": 0, "key_mode": 0, "clef": 1, "tempo": 120, "velocity": 100, "lyrics": "", "expr": [], "segs": [{"start": 0.0, "dur": 2.0, "rest": false, "notes": [{"pitch": 45, "vel": 65, "dur": 2.0, "tieStart": false, "tieEnd": false, "tieGroup": 0}, {"pitch": 52, "vel": 61, "dur": 2.0, "tieStart": false, "tieEnd": false, "tieGroup": 0}, {"pitch": 55, "vel": 57, "dur": 2.0, "tieStart": false, "tieEnd": false, "tieGroup": 0}, {"pitch": 57, "vel": 53, "dur": 2.0, "tieStart": false, "tieEnd": false, "tieGroup": 0}, {"pitch": 60, "vel": 49, "dur": 2.0, "tieStart": false, "tieEnd": false, "tieGroup": 0}]}, {"start": 2.0, "dur": 1.0, "rest": false, "notes": [{"pitch": 45, "vel": 73, "dur": 1.0, "tieStart": false, "tieEnd": false, "tieGroup": 0}, {"pitch": 48, "vel": 69, "dur": 1.0, "tieStart": false, "tieEnd": false, "tieGroup": 0}, {"pitch": 52, "vel": 65, "dur": 1.0, "tieStart": false, "tieEnd": false, "tieGroup": 0}, {"pitch": 55, "vel": 61, "dur": 1.0, "tieStart": false, "tieEnd": false, "tieGroup": 0}, {"pitch": 57, "vel": 57, "dur": 1.0, "tieStart": false, "tieEnd": false, "tieGroup": 0}]}, {"start": 3.0, "dur": 1.0, "rest": false, "notes": [{"pitch": 43, "vel": 89, "dur": 1.0, "tieStart": false, "tieEnd": false, "tieGroup": 0}, {"pitch": 45, "vel": 85, "dur": 1.0, "tieStart": false, "tieEnd": false, "tieGroup": 0}, {"pitch": 48, "vel": 81, "dur": 1.0, "tieStart": false, "tieEnd": false, "tieGroup": 0}, {"pitch": 52, "vel": 77, "dur": 1.0, "tieStart": false, "tieEnd": false, "tieGroup": 0}]}]}, {"ts_num": 4, "ts_den": 4, "key_fifths": 0, "key_mode": 0, "clef": 1, "tempo": 120, "velocity": 100, "lyrics": "", "expr": [], "segs": [{"start": 0.0, "dur": 1.0, "rest": false, "notes": [{"pitch": 52, "vel": 97, "dur": 1.0, "tieStart": false, "tieEnd": false, "tieGroup": 0}, {"pitch": 62, "vel": 93, "dur": 1.0, "tieStart": false, "tieEnd": false, "tieGroup": 0}, {"pitch": 64, "vel": 89, "dur": 1.0, "tieStart": false, "tieEnd": false, "tieGroup": 0}, {"pitch": 67, "vel": 85, "dur": 1.0, "tieStart": false, "tieEnd": false, "tieGroup": 0}, {"pitch": 71, "vel": 81, "dur": 1.0, "tieStart": false, "tieEnd": false, "tieGroup": 0}]}, {"start": 1.0, "dur": 1.0, "rest": false, "notes": [{"pitch": 52, "vel": 97, "dur": 1.0, "tieStart": false, "tieEnd": false, "tieGroup": 0}, {"pitch": 62, "vel": 93, "dur": 1.0, "tieStart": false, "tieEnd": false, "tieGroup": 0}, {"pitch": 64, "vel": 89, "dur": 1.0, "tieStart": false, "tieEnd": false, "tieGroup": 0}, {"pitch": 67, "vel": 85, "dur": 1.0, "tieStart": false, "tieEnd": false, "tieGroup": 0}, {"pitch": 71, "vel": 81, "dur": 1.0, "tieStart": false, "tieEnd": false, "tieGroup": 0}]}, {"start": 2.0, "dur": 2.0, "rest": false, "notes": [{"pitch": 52, "vel": 97, "dur": 2.0, "tieStart": false, "tieEnd": false, "tieGroup": 0}, {"pitch": 55, "vel": 93, "dur": 2.0, "tieStart": false, "tieEnd": false, "tieGroup": 0}, {"pitch": 59, "vel": 89, "dur": 2.0, "tieStart": false, "tieEnd": false, "tieGroup": 0}, {"pitch": 62, "vel": 85, "dur": 2.0, "tieStart": false, "tieEnd": false, "tieGroup": 0}, {"pitch": 64, "vel": 81, "dur": 2.0, "tieStart": false, "tieEnd": false, "tieGroup": 0}]}]}, {"ts_num": 4, "ts_den": 4, "key_fifths": 0, "key_mode": 0, "clef": 1, "tempo": 120, "velocity": 100, "lyrics": "", "expr": [], "segs": [{"start": 0.0, "dur": 1.0, "rest": false, "notes": [{"pitch": 45, "vel": 89, "dur": 1.0, "tieStart": false, "tieEnd": false, "tieGroup": 0}, {"pitch": 52, "vel": 85, "dur": 1.0, "tieStart": false, "tieEnd": false, "tieGroup": 0}, {"pitch": 55, "vel": 81, "dur": 1.0, "tieStart": false, "tieEnd": false, "tieGroup": 0}, {"pitch": 57, "vel": 77, "dur": 1.0, "tieStart": false, "tieEnd": false, "tieGroup": 0}, {"pitch": 60, "vel": 73, "dur": 1.0, "tieStart": false, "tieEnd": false, "tieGroup": 0}]}, {"start": 1.0, "dur": 1.0, "rest": false, "notes": [{"pitch": 45, "vel": 97, "dur": 1.0, "tieStart": false, "tieEnd": false, "tieGroup": 0}, {"pitch": 60, "vel": 93, "dur": 1.0, "tieStart": false, "tieEnd": false, "tieGroup": 0}, {"pitch": 64, "vel": 89, "dur": 1.0, "tieStart": false, "tieEnd": false, "tieGroup": 0}, {"pitch": 67, "vel": 85, "dur": 1.0, "tieStart": false, "tieEnd": false, "tieGroup": 0}, {"pitch": 69, "vel": 81, "dur": 1.0, "tieStart": false, "tieEnd": false, "tieGroup": 0}]}, {"start": 2.0, "dur": 1.0, "rest": false, "notes": [{"pitch": 45, "vel": 81, "dur": 1.0, "tieStart": false, "tieEnd": false, "tieGroup": 0}, {"pitch": 55, "vel": 77, "dur": 1.0, "tieStart": false, "tieEnd": false, "tieGroup": 0}, {"pitch": 57, "vel": 73, "dur": 1.0, "tieStart": false, "tieEnd": false, "tieGroup": 0}, {"pitch": 60, "vel": 69, "dur": 1.0, "tieStart": false, "tieEnd": false, "tieGroup": 0}, {"pitch": 64, "vel": 65, "dur": 1.0, "tieStart": false, "tieEnd": false, "tieGroup": 0}]}, {"start": 3.0, "dur": 1.0, "rest": false, "notes": [{"pitch": 45, "vel": 81, "dur": 1.0, "tieStart": false, "tieEnd": false, "tieGroup": 0}, {"pitch": 60, "vel": 77, "dur": 1.0, "tieStart": false, "tieEnd": false, "tieGroup": 0}, {"pitch": 64, "vel": 73, "dur": 1.0, "tieStart": false, "tieEnd": false, "tieGroup": 0}, {"pitch": 67, "vel": 69, "dur": 1.0, "tieStart": false, "tieEnd": false, "tieGroup": 0}, {"pitch": 69, "vel": 65, "dur": 1.0, "tieStart": false, "tieEnd": false, "tieGroup": 0}]}]}, {"ts_num": 4, "ts_den": 4, "key_fifths": 0, "key_mode": 0, "clef": 1, "tempo": 120, "velocity": 100, "lyrics": "", "expr": [], "segs": [{"start": 0.0, "dur": 2.0, "rest": false, "notes": [{"pitch": 52, "vel": 65, "dur": 2.0, "tieStart": false, "tieEnd": false, "tieGroup": 0}, {"pitch": 55, "vel": 61, "dur": 2.0, "tieStart": false, "tieEnd": false, "tieGroup": 0}, {"pitch": 59, "vel": 57, "dur": 2.0, "tieStart": false, "tieEnd": false, "tieGroup": 0}, {"pitch": 64, "vel": 53, "dur": 2.0, "tieStart": false, "tieEnd": false, "tieGroup": 0}]}, {"start": 2.0, "dur": 1.0, "rest": false, "notes": [{"pitch": 43, "vel": 73, "dur": 1.0, "tieStart": false, "tieEnd": false, "tieGroup": 0}, {"pitch": 47, "vel": 69, "dur": 1.0, "tieStart": false, "tieEnd": false, "tieGroup": 0}, {"pitch": 52, "vel": 65, "dur": 1.0, "tieStart": false, "tieEnd": false, "tieGroup": 0}, {"pitch": 53, "vel": 61, "dur": 1.0, "tieStart": false, "tieEnd": false, "tieGroup": 0}]}, {"start": 3.0, "dur": 1.0, "rest": false, "notes": [{"pitch": 52, "vel": 81, "dur": 1.0, "tieStart": false, "tieEnd": false, "tieGroup": 0}, {"pitch": 59, "vel": 77, "dur": 1.0, "tieStart": false, "tieEnd": false, "tieGroup": 0}, {"pitch": 64, "vel": 73, "dur": 1.0, "tieStart": false, "tieEnd": false, "tieGroup": 0}, {"pitch": 67, "vel": 69, "dur": 1.0, "tieStart": false, "tieEnd": false, "tieGroup": 0}]}]}, {"ts_num": 4, "ts_den": 4, "key_fifths": 0, "key_mode": 0, "clef": 1, "tempo": 120, "velocity": 100, "lyrics": "", "expr": [], "segs": [{"start": 0.0, "dur": 1.0, "rest": false, "notes": [{"pitch": 50, "vel": 89, "dur": 1.0, "tieStart": false, "tieEnd": false, "tieGroup": 0}, {"pitch": 53, "vel": 85, "dur": 1.0, "tieStart": false, "tieEnd": false, "tieGroup": 0}, {"pitch": 57, "vel": 81, "dur": 1.0, "tieStart": false, "tieEnd": false, "tieGroup": 0}]}, {"start": 1.0, "dur": 1.0, "rest": false, "notes": [{"pitch": 50, "vel": 89, "dur": 1.0, "tieStart": false, "tieEnd": false, "tieGroup": 0}, {"pitch": 57, "vel": 85, "dur": 1.0, "tieStart": false, "tieEnd": false, "tieGroup": 0}, {"pitch": 62, "vel": 81, "dur": 1.0, "tieStart": false, "tieEnd": false, "tieGroup": 0}, {"pitch": 65, "vel": 77, "dur": 1.0, "tieStart": false, "tieEnd": false, "tieGroup": 0}]}, {"start": 2.0, "dur": 1.0, "rest": false, "notes": [{"pitch": 50, "vel": 73, "dur": 1.0, "tieStart": false, "tieEnd": false, "tieGroup": 0}, {"pitch": 57, "vel": 69, "dur": 1.0, "tieStart": false, "tieEnd": false, "tieGroup": 0}, {"pitch": 62, "vel": 65, "dur": 1.0, "tieStart": false, "tieEnd": false, "tieGroup": 0}, {"pitch": 64, "vel": 61, "dur": 1.0, "tieStart": false, "tieEnd": false, "tieGroup": 0}, {"pitch": 65, "vel": 57, "dur": 1.0, "tieStart": false, "tieEnd": false, "tieGroup": 0}]}, {"start": 3.0, "dur": 1.0, "rest": false, "notes": [{"pitch": 50, "vel": 89, "dur": 1.0, "tieStart": false, "tieEnd": false, "tieGroup": 0}, {"pitch": 62, "vel": 85, "dur": 1.0, "tieStart": false, "tieEnd": false, "tieGroup": 0}, {"pitch": 65, "vel": 81, "dur": 1.0, "tieStart": false, "tieEnd": false, "tieGroup": 0}, {"pitch": 69, "vel": 77, "dur": 1.0, "tieStart": false, "tieEnd": false, "tieGroup": 0}]}]}, {"ts_num": 4, "ts_den": 4, "key_fifths": 0, "key_mode": 0, "clef": 1, "tempo": 120, "velocity": 100, "lyrics": "", "expr": [], "segs": [{"start": 0.0, "dur": 2.0, "rest": false, "notes": [{"pitch": 52, "vel": 97, "dur": 2.0, "tieStart": false, "tieEnd": false, "tieGroup": 0}, {"pitch": 55, "vel": 93, "dur": 2.0, "tieStart": false, "tieEnd": false, "tieGroup": 0}, {"pitch": 59, "vel": 89, "dur": 2.0, "tieStart": false, "tieEnd": false, "tieGroup": 0}, {"pitch": 62, "vel": 85, "dur": 2.0, "tieStart": false, "tieEnd": false, "tieGroup": 0}]}, {"start": 2.0, "dur": 1.0, "rest": false, "notes": [{"pitch": 47, "vel": 97, "dur": 1.0, "tieStart": false, "tieEnd": false, "tieGroup": 0}, {"pitch": 50, "vel": 93, "dur": 1.0, "tieStart": false, "tieEnd": false, "tieGroup": 0}, {"pitch": 52, "vel": 89, "dur": 1.0, "tieStart": false, "tieEnd": false, "tieGroup": 0}, {"pitch": 55, "vel": 85, "dur": 1.0, "tieStart": false, "tieEnd": false, "tieGroup": 0}]}, {"start": 3.0, "dur": 1.0, "rest": false, "notes": [{"pitch": 52, "vel": 97, "dur": 1.0, "tieStart": false, "tieEnd": false, "tieGroup": 0}, {"pitch": 62, "vel": 93, "dur": 1.0, "tieStart": false, "tieEnd": false, "tieGroup": 0}, {"pitch": 64, "vel": 89, "dur": 1.0, "tieStart": false, "tieEnd": false, "tieGroup": 0}, {"pitch": 67, "vel": 85, "dur": 1.0, "tieStart": false, "tieEnd": false, "tieGroup": 0}, {"pitch": 71, "vel": 81, "dur": 1.0, "tieStart": false, "tieEnd": false, "tieGroup": 0}]}]}, {"ts_num": 4, "ts_den": 4, "key_fifths": 0, "key_mode": 0, "clef": 1, "tempo": 120, "velocity": 100, "lyrics": "", "expr": [], "segs": [{"start": 0.0, "dur": 1.0, "rest": false, "notes": [{"pitch": 45, "vel": 89, "dur": 1.0, "tieStart": false, "tieEnd": false, "tieGroup": 0}, {"pitch": 60, "vel": 85, "dur": 1.0, "tieStart": false, "tieEnd": false, "tieGroup": 0}, {"pitch": 64, "vel": 81, "dur": 1.0, "tieStart": false, "tieEnd": false, "tieGroup": 0}, {"pitch": 67, "vel": 77, "dur": 1.0, "tieStart": false, "tieEnd": false, "tieGroup": 0}, {"pitch": 69, "vel": 73, "dur": 1.0, "tieStart": false, "tieEnd": false, "tieGroup": 0}]}, {"start": 1.0, "dur": 1.0, "rest": false, "notes": [{"pitch": 43, "vel": 81, "dur": 1.0, "tieStart": false, "tieEnd": false, "tieGroup": 0}, {"pitch": 45, "vel": 77, "dur": 1.0, "tieStart": false, "tieEnd": false, "tieGroup": 0}, {"pitch": 48, "vel": 73, "dur": 1.0, "tieStart": false, "tieEnd": false, "tieGroup": 0}, {"pitch": 52, "vel": 69, "dur": 1.0, "tieStart": false, "tieEnd": false, "tieGroup": 0}]}, {"start": 2.0, "dur": 2.0, "rest": false, "notes": [{"pitch": 45, "vel": 73, "dur": 2.0, "tieStart": false, "tieEnd": false, "tieGroup": 0}, {"pitch": 55, "vel": 69, "dur": 2.0, "tieStart": false, "tieEnd": false, "tieGroup": 0}, {"pitch": 57, "vel": 65, "dur": 2.0, "tieStart": false, "tieEnd": false, "tieGroup": 0}, {"pitch": 60, "vel": 61, "dur": 2.0, "tieStart": false, "tieEnd": false, "tieGroup": 0}, {"pitch": 64, "vel": 57, "dur": 2.0, "tieStart": false, "tieEnd": false, "tieGroup": 0}]}]}, {"ts_num": 4, "ts_den": 4, "key_fifths": 0, "key_mode": 0, "clef": 1, "tempo": 120, "velocity": 100, "lyrics": "", "expr": [], "segs": [{"start": 0.0, "dur": 1.0, "rest": false, "notes": [{"pitch": 45, "vel": 97, "dur": 1.0, "tieStart": false, "tieEnd": false, "tieGroup": 0}, {"pitch": 57, "vel": 93, "dur": 1.0, "tieStart": false, "tieEnd": false, "tieGroup": 0}, {"pitch": 60, "vel": 89, "dur": 1.0, "tieStart": false, "tieEnd": false, "tieGroup": 0}, {"pitch": 64, "vel": 85, "dur": 1.0, "tieStart": false, "tieEnd": false, "tieGroup": 0}, {"pitch": 67, "vel": 81, "dur": 1.0, "tieStart": false, "tieEnd": false, "tieGroup": 0}]}, {"start": 1.0, "dur": 1.0, "rest": false, "notes": [{"pitch": 45, "vel": 89, "dur": 1.0, "tieStart": false, "tieEnd": false, "tieGroup": 0}, {"pitch": 55, "vel": 85, "dur": 1.0, "tieStart": false, "tieEnd": false, "tieGroup": 0}, {"pitch": 57, "vel": 81, "dur": 1.0, "tieStart": false, "tieEnd": false, "tieGroup": 0}, {"pitch": 60, "vel": 77, "dur": 1.0, "tieStart": false, "tieEnd": false, "tieGroup": 0}, {"pitch": 64, "vel": 73, "dur": 1.0, "tieStart": false, "tieEnd": false, "tieGroup": 0}]}, {"start": 2.0, "dur": 1.0, "rest": false, "notes": [{"pitch": 45, "vel": 97, "dur": 1.0, "tieStart": false, "tieEnd": false, "tieGroup": 0}, {"pitch": 57, "vel": 93, "dur": 1.0, "tieStart": false, "tieEnd": false, "tieGroup": 0}, {"pitch": 60, "vel": 89, "dur": 1.0, "tieStart": false, "tieEnd": false, "tieGroup": 0}, {"pitch": 64, "vel": 85, "dur": 1.0, "tieStart": false, "tieEnd": false, "tieGroup": 0}, {"pitch": 67, "vel": 81, "dur": 1.0, "tieStart": false, "tieEnd": false, "tieGroup": 0}]}, {"start": 3.0, "dur": 1.0, "rest": false, "notes": [{"pitch": 45, "vel": 89, "dur": 1.0, "tieStart": false, "tieEnd": false, "tieGroup": 0}, {"pitch": 57, "vel": 85, "dur": 1.0, "tieStart": false, "tieEnd": false, "tieGroup": 0}, {"pitch": 60, "vel": 81, "dur": 1.0, "tieStart": false, "tieEnd": false, "tieGroup": 0}, {"pitch": 64, "vel": 77, "dur": 1.0, "tieStart": false, "tieEnd": false, "tieGroup": 0}, {"pitch": 67, "vel": 73, "dur": 1.0, "tieStart": false, "tieEnd": false, "tieGroup": 0}]}]}, {"ts_num": 4, "ts_den": 4, "key_fifths": 0, "key_mode": 0, "clef": 1, "tempo": 120, "velocity": 100, "lyrics": "", "expr": [], "segs": [{"start": 0.0, "dur": 2.0, "rest": false, "notes": [{"pitch": 53, "vel": 60, "dur": 2.0, "tieStart": false, "tieEnd": false, "tieGroup": 0}, {"pitch": 57, "vel": 56, "dur": 2.0, "tieStart": false, "tieEnd": false, "tieGroup": 0}, {"pitch": 60, "vel": 52, "dur": 2.0, "tieStart": false, "tieEnd": false, "tieGroup": 0}, {"pitch": 62, "vel": 48, "dur": 2.0, "tieStart": false, "tieEnd": false, "tieGroup": 0}, {"pitch": 65, "vel": 44, "dur": 2.0, "tieStart": false, "tieEnd": false, "tieGroup": 0}]}, {"start": 2.0, "dur": 1.0, "rest": false, "notes": [{"pitch": 53, "vel": 73, "dur": 1.0, "tieStart": false, "tieEnd": false, "tieGroup": 0}, {"pitch": 64, "vel": 69, "dur": 1.0, "tieStart": false, "tieEnd": false, "tieGroup": 0}, {"pitch": 65, "vel": 65, "dur": 1.0, "tieStart": false, "tieEnd": false, "tieGroup": 0}, {"pitch": 69, "vel": 61, "dur": 1.0, "tieStart": false, "tieEnd": false, "tieGroup": 0}, {"pitch": 72, "vel": 57, "dur": 1.0, "tieStart": false, "tieEnd": false, "tieGroup": 0}]}, {"start": 3.0, "dur": 1.0, "rest": false, "notes": [{"pitch": 53, "vel": 81, "dur": 1.0, "tieStart": false, "tieEnd": false, "tieGroup": 0}, {"pitch": 60, "vel": 77, "dur": 1.0, "tieStart": false, "tieEnd": false, "tieGroup": 0}, {"pitch": 62, "vel": 73, "dur": 1.0, "tieStart": false, "tieEnd": false, "tieGroup": 0}, {"pitch": 65, "vel": 69, "dur": 1.0, "tieStart": false, "tieEnd": false, "tieGroup": 0}, {"pitch": 69, "vel": 65, "dur": 1.0, "tieStart": false, "tieEnd": false, "tieGroup": 0}]}]}, {"ts_num": 4, "ts_den": 4, "key_fifths": 0, "key_mode": 0, "clef": 1, "tempo": 120, "velocity": 100, "lyrics": "", "expr": [], "segs": [{"start": 0.0, "dur": 1.0, "rest": false, "notes": [{"pitch": 50, "vel": 89, "dur": 1.0, "tieStart": false, "tieEnd": false, "tieGroup": 0}, {"pitch": 52, "vel": 85, "dur": 1.0, "tieStart": false, "tieEnd": false, "tieGroup": 0}, {"pitch": 55, "vel": 81, "dur": 1.0, "tieStart": false, "tieEnd": false, "tieGroup": 0}, {"pitch": 59, "vel": 77, "dur": 1.0, "tieStart": false, "tieEnd": false, "tieGroup": 0}]}, {"start": 1.0, "dur": 1.0, "rest": false, "notes": [{"pitch": 52, "vel": 113, "dur": 1.0, "tieStart": false, "tieEnd": false, "tieGroup": 0}, {"pitch": 62, "vel": 109, "dur": 1.0, "tieStart": false, "tieEnd": false, "tieGroup": 0}, {"pitch": 64, "vel": 105, "dur": 1.0, "tieStart": false, "tieEnd": false, "tieGroup": 0}, {"pitch": 67, "vel": 101, "dur": 1.0, "tieStart": false, "tieEnd": false, "tieGroup": 0}, {"pitch": 71, "vel": 97, "dur": 1.0, "tieStart": false, "tieEnd": false, "tieGroup": 0}]}, {"start": 2.0, "dur": 2.0, "rest": false, "notes": [{"pitch": 52, "vel": 97, "dur": 2.0, "tieStart": false, "tieEnd": false, "tieGroup": 0}, {"pitch": 55, "vel": 93, "dur": 2.0, "tieStart": false, "tieEnd": false, "tieGroup": 0}, {"pitch": 59, "vel": 89, "dur": 2.0, "tieStart": false, "tieEnd": false, "tieGroup": 0}, {"pitch": 62, "vel": 85, "dur": 2.0, "tieStart": false, "tieEnd": false, "tieGroup": 0}, {"pitch": 64, "vel": 81, "dur": 2.0, "tieStart": false, "tieEnd": false, "tieGroup": 0}]}]}, {"ts_num": 4, "ts_den": 4, "key_fifths": 0, "key_mode": 0, "clef": 1, "tempo": 120, "velocity": 100, "lyrics": "", "expr": [], "segs": [{"start": 0.0, "dur": 1.0, "rest": false, "notes": [{"pitch": 52, "vel": 89, "dur": 1.0, "tieStart": false, "tieEnd": false, "tieGroup": 0}, {"pitch": 59, "vel": 85, "dur": 1.0, "tieStart": false, "tieEnd": false, "tieGroup": 0}, {"pitch": 62, "vel": 81, "dur": 1.0, "tieStart": false, "tieEnd": false, "tieGroup": 0}, {"pitch": 64, "vel": 77, "dur": 1.0, "tieStart": false, "tieEnd": false, "tieGroup": 0}, {"pitch": 67, "vel": 73, "dur": 1.0, "tieStart": false, "tieEnd": false, "tieGroup": 0}]}, {"start": 1.0, "dur": 1.0, "rest": false, "notes": [{"pitch": 52, "vel": 65, "dur": 1.0, "tieStart": false, "tieEnd": false, "tieGroup": 0}, {"pitch": 59, "vel": 61, "dur": 1.0, "tieStart": false, "tieEnd": false, "tieGroup": 0}, {"pitch": 62, "vel": 57, "dur": 1.0, "tieStart": false, "tieEnd": false, "tieGroup": 0}, {"pitch": 64, "vel": 53, "dur": 1.0, "tieStart": false, "tieEnd": false, "tieGroup": 0}, {"pitch": 67, "vel": 49, "dur": 1.0, "tieStart": false, "tieEnd": false, "tieGroup": 0}]}, {"start": 2.0, "dur": 1.0, "rest": false, "notes": [{"pitch": 52, "vel": 73, "dur": 1.0, "tieStart": false, "tieEnd": false, "tieGroup": 0}, {"pitch": 62, "vel": 69, "dur": 1.0, "tieStart": false, "tieEnd": false, "tieGroup": 0}, {"pitch": 64, "vel": 65, "dur": 1.0, "tieStart": false, "tieEnd": false, "tieGroup": 0}, {"pitch": 67, "vel": 61, "dur": 1.0, "tieStart": false, "tieEnd": false, "tieGroup": 0}, {"pitch": 71, "vel": 57, "dur": 1.0, "tieStart": false, "tieEnd": false, "tieGroup": 0}]}, {"start": 3.0, "dur": 1.0, "rest": false, "notes": [{"pitch": 52, "vel": 73, "dur": 1.0, "tieStart": false, "tieEnd": false, "tieGroup": 0}, {"pitch": 67, "vel": 69, "dur": 1.0, "tieStart": false, "tieEnd": false, "tieGroup": 0}, {"pitch": 71, "vel": 65, "dur": 1.0, "tieStart": false, "tieEnd": false, "tieGroup": 0}, {"pitch": 74, "vel": 61, "dur": 1.0, "tieStart": false, "tieEnd": false, "tieGroup": 0}, {"pitch": 76, "vel": 57, "dur": 1.0, "tieStart": false, "tieEnd": false, "tieGroup": 0}]}]}, {"ts_num": 4, "ts_den": 4, "key_fifths": 0, "key_mode": 0, "clef": 1, "tempo": 120, "velocity": 100, "lyrics": "", "expr": [], "segs": [{"start": 0.0, "dur": 2.0, "rest": false, "notes": [{"pitch": 45, "vel": 89, "dur": 2.0, "tieStart": false, "tieEnd": false, "tieGroup": 0}, {"pitch": 60, "vel": 85, "dur": 2.0, "tieStart": false, "tieEnd": false, "tieGroup": 0}, {"pitch": 64, "vel": 81, "dur": 2.0, "tieStart": false, "tieEnd": false, "tieGroup": 0}, {"pitch": 67, "vel": 77, "dur": 2.0, "tieStart": false, "tieEnd": false, "tieGroup": 0}, {"pitch": 69, "vel": 73, "dur": 2.0, "tieStart": false, "tieEnd": false, "tieGroup": 0}]}, {"start": 2.0, "dur": 1.0, "rest": false, "notes": [{"pitch": 45, "vel": 89, "dur": 1.0, "tieStart": false, "tieEnd": false, "tieGroup": 0}, {"pitch": 60, "vel": 85, "dur": 1.0, "tieStart": false, "tieEnd": false, "tieGroup": 0}, {"pitch": 64, "vel": 81, "dur": 1.0, "tieStart": false, "tieEnd": false, "tieGroup": 0}, {"pitch": 67, "vel": 77, "dur": 1.0, "tieStart": false, "tieEnd": false, "tieGroup": 0}, {"pitch": 69, "vel": 73, "dur": 1.0, "tieStart": false, "tieEnd": false, "tieGroup": 0}]}, {"start": 3.0, "dur": 1.0, "rest": false, "notes": [{"pitch": 45, "vel": 89, "dur": 1.0, "tieStart": false, "tieEnd": false, "tieGroup": 0}, {"pitch": 60, "vel": 85, "dur": 1.0, "tieStart": false, "tieEnd": false, "tieGroup": 0}, {"pitch": 64, "vel": 81, "dur": 1.0, "tieStart": false, "tieEnd": false, "tieGroup": 0}, {"pitch": 67, "vel": 77, "dur": 1.0, "tieStart": false, "tieEnd": false, "tieGroup": 0}, {"pitch": 69, "vel": 73, "dur": 1.0, "tieStart": false, "tieEnd": false, "tieGroup": 0}]}]}, {"ts_num": 4, "ts_den": 4, "key_fifths": 0, "key_mode": 0, "clef": 1, "tempo": 120, "velocity": 100, "lyrics": "", "expr": [], "segs": [{"start": 0.0, "dur": 1.0, "rest": false, "notes": [{"pitch": 50, "vel": 60, "dur": 1.0, "tieStart": false, "tieEnd": false, "tieGroup": 0}, {"pitch": 62, "vel": 56, "dur": 1.0, "tieStart": false, "tieEnd": false, "tieGroup": 0}, {"pitch": 65, "vel": 52, "dur": 1.0, "tieStart": false, "tieEnd": false, "tieGroup": 0}, {"pitch": 69, "vel": 48, "dur": 1.0, "tieStart": false, "tieEnd": false, "tieGroup": 0}, {"pitch": 72, "vel": 44, "dur": 1.0, "tieStart": false, "tieEnd": false, "tieGroup": 0}]}, {"start": 1.0, "dur": 1.0, "rest": false, "notes": [{"pitch": 50, "vel": 73, "dur": 1.0, "tieStart": false, "tieEnd": false, "tieGroup": 0}, {"pitch": 60, "vel": 69, "dur": 1.0, "tieStart": false, "tieEnd": false, "tieGroup": 0}, {"pitch": 62, "vel": 65, "dur": 1.0, "tieStart": false, "tieEnd": false, "tieGroup": 0}, {"pitch": 65, "vel": 61, "dur": 1.0, "tieStart": false, "tieEnd": false, "tieGroup": 0}, {"pitch": 69, "vel": 57, "dur": 1.0, "tieStart": false, "tieEnd": false, "tieGroup": 0}]}, {"start": 2.0, "dur": 1.0, "rest": false, "notes": [{"pitch": 45, "vel": 73, "dur": 1.0, "tieStart": false, "tieEnd": false, "tieGroup": 0}, {"pitch": 48, "vel": 69, "dur": 1.0, "tieStart": false, "tieEnd": false, "tieGroup": 0}, {"pitch": 50, "vel": 65, "dur": 1.0, "tieStart": false, "tieEnd": false, "tieGroup": 0}, {"pitch": 53, "vel": 61, "dur": 1.0, "tieStart": false, "tieEnd": false, "tieGroup": 0}]}, {"start": 3.0, "dur": 1.0, "rest": false, "notes": [{"pitch": 50, "vel": 81, "dur": 1.0, "tieStart": false, "tieEnd": false, "tieGroup": 0}, {"pitch": 60, "vel": 77, "dur": 1.0, "tieStart": false, "tieEnd": false, "tieGroup": 0}, {"pitch": 62, "vel": 73, "dur": 1.0, "tieStart": false, "tieEnd": false, "tieGroup": 0}, {"pitch": 65, "vel": 69, "dur": 1.0, "tieStart": false, "tieEnd": false, "tieGroup": 0}, {"pitch": 69, "vel": 65, "dur": 1.0, "tieStart": false, "tieEnd": false, "tieGroup": 0}]}]}, {"ts_num": 4, "ts_den": 4, "key_fifths": 0, "key_mode": 0, "clef": 1, "tempo": 120, "velocity": 100, "lyrics": "", "expr": [], "segs": [{"start": 0.0, "dur": 1.0, "rest": false, "notes": [{"pitch": 43, "vel": 81, "dur": 1.0, "tieStart": false, "tieEnd": false, "tieGroup": 0}, {"pitch": 47, "vel": 77, "dur": 1.0, "tieStart": false, "tieEnd": false, "tieGroup": 0}, {"pitch": 50, "vel": 73, "dur": 1.0, "tieStart": false, "tieEnd": false, "tieGroup": 0}, {"pitch": 53, "vel": 69, "dur": 1.0, "tieStart": false, "tieEnd": false, "tieGroup": 0}]}, {"start": 1.0, "dur": 1.0, "rest": false, "notes": [{"pitch": 43, "vel": 81, "dur": 1.0, "tieStart": false, "tieEnd": false, "tieGroup": 0}, {"pitch": 50, "vel": 77, "dur": 1.0, "tieStart": false, "tieEnd": false, "tieGroup": 0}, {"pitch": 53, "vel": 73, "dur": 1.0, "tieStart": false, "tieEnd": false, "tieGroup": 0}, {"pitch": 55, "vel": 69, "dur": 1.0, "tieStart": false, "tieEnd": false, "tieGroup": 0}, {"pitch": 59, "vel": 65, "dur": 1.0, "tieStart": false, "tieEnd": false, "tieGroup": 0}]}, {"start": 2.0, "dur": 2.0, "rest": false, "notes": [{"pitch": 43, "vel": 89, "dur": 2.0, "tieStart": false, "tieEnd": false, "tieGroup": 0}, {"pitch": 55, "vel": 85, "dur": 2.0, "tieStart": false, "tieEnd": false, "tieGroup": 0}, {"pitch": 59, "vel": 81, "dur": 2.0, "tieStart": false, "tieEnd": false, "tieGroup": 0}, {"pitch": 62, "vel": 77, "dur": 2.0, "tieStart": false, "tieEnd": false, "tieGroup": 0}, {"pitch": 65, "vel": 73, "dur": 2.0, "tieStart": false, "tieEnd": false, "tieGroup": 0}]}]}, {"ts_num": 4, "ts_den": 4, "key_fifths": 0, "key_mode": 0, "clef": 1, "tempo": 120, "velocity": 100, "lyrics": "", "expr": [], "segs": [{"start": 0.0, "dur": 2.0, "rest": false, "notes": [{"pitch": 45, "vel": 114, "dur": 2.0, "tieStart": false, "tieEnd": false, "tieGroup": 0}, {"pitch": 57, "vel": 110, "dur": 2.0, "tieStart": false, "tieEnd": false, "tieGroup": 0}, {"pitch": 60, "vel": 106, "dur": 2.0, "tieStart": false, "tieEnd": false, "tieGroup": 0}, {"pitch": 64, "vel": 102, "dur": 2.0, "tieStart": false, "tieEnd": false, "tieGroup": 0}, {"pitch": 67, "vel": 98, "dur": 2.0, "tieStart": false, "tieEnd": false, "tieGroup": 0}]}, {"start": 2.0, "dur": 1.0, "rest": false, "notes": [{"pitch": 45, "vel": 73, "dur": 1.0, "tieStart": false, "tieEnd": false, "tieGroup": 0}, {"pitch": 57, "vel": 69, "dur": 1.0, "tieStart": false, "tieEnd": false, "tieGroup": 0}, {"pitch": 60, "vel": 65, "dur": 1.0, "tieStart": false, "tieEnd": false, "tieGroup": 0}, {"pitch": 64, "vel": 61, "dur": 1.0, "tieStart": false, "tieEnd": false, "tieGroup": 0}, {"pitch": 67, "vel": 57, "dur": 1.0, "tieStart": false, "tieEnd": false, "tieGroup": 0}]}, {"start": 3.0, "dur": 1.0, "rest": false, "notes": [{"pitch": 45, "vel": 114, "dur": 1.0, "tieStart": false, "tieEnd": false, "tieGroup": 0}, {"pitch": 57, "vel": 110, "dur": 1.0, "tieStart": false, "tieEnd": false, "tieGroup": 0}, {"pitch": 60, "vel": 106, "dur": 1.0, "tieStart": false, "tieEnd": false, "tieGroup": 0}, {"pitch": 64, "vel": 102, "dur": 1.0, "tieStart": false, "tieEnd": false, "tieGroup": 0}, {"pitch": 67, "vel": 98, "dur": 1.0, "tieStart": false, "tieEnd": false, "tieGroup": 0}]}]}, {"ts_num": 4, "ts_den": 4, "key_fifths": 0, "key_mode": 0, "clef": 1, "tempo": 120, "velocity": 100, "lyrics": "", "expr": [], "segs": [{"start": 0.0, "dur": 1.0, "rest": false, "notes": [{"pitch": 52, "vel": 89, "dur": 1.0, "tieStart": false, "tieEnd": false, "tieGroup": 0}, {"pitch": 64, "vel": 85, "dur": 1.0, "tieStart": false, "tieEnd": false, "tieGroup": 0}, {"pitch": 67, "vel": 81, "dur": 1.0, "tieStart": false, "tieEnd": false, "tieGroup": 0}, {"pitch": 71, "vel": 77, "dur": 1.0, "tieStart": false, "tieEnd": false, "tieGroup": 0}, {"pitch": 74, "vel": 73, "dur": 1.0, "tieStart": false, "tieEnd": false, "tieGroup": 0}]}, {"start": 1.0, "dur": 1.0, "rest": false, "notes": [{"pitch": 50, "vel": 81, "dur": 1.0, "tieStart": false, "tieEnd": false, "tieGroup": 0}, {"pitch": 52, "vel": 77, "dur": 1.0, "tieStart": false, "tieEnd": false, "tieGroup": 0}, {"pitch": 55, "vel": 73, "dur": 1.0, "tieStart": false, "tieEnd": false, "tieGroup": 0}, {"pitch": 59, "vel": 69, "dur": 1.0, "tieStart": false, "tieEnd": false, "tieGroup": 0}]}, {"start": 2.0, "dur": 1.0, "rest": false, "notes": [{"pitch": 52, "vel": 65, "dur": 1.0, "tieStart": false, "tieEnd": false, "tieGroup": 0}, {"pitch": 64, "vel": 61, "dur": 1.0, "tieStart": false, "tieEnd": false, "tieGroup": 0}, {"pitch": 67, "vel": 57, "dur": 1.0, "tieStart": false, "tieEnd": false, "tieGroup": 0}, {"pitch": 71, "vel": 53, "dur": 1.0, "tieStart": false, "tieEnd": false, "tieGroup": 0}, {"pitch": 74, "vel": 49, "dur": 1.0, "tieStart": false, "tieEnd": false, "tieGroup": 0}]}, {"start": 3.0, "dur": 1.0, "rest": false, "notes": [{"pitch": 52, "vel": 65, "dur": 1.0, "tieStart": false, "tieEnd": false, "tieGroup": 0}, {"pitch": 55, "vel": 61, "dur": 1.0, "tieStart": false, "tieEnd": false, "tieGroup": 0}, {"pitch": 59, "vel": 57, "dur": 1.0, "tieStart": false, "tieEnd": false, "tieGroup": 0}, {"pitch": 62, "vel": 53, "dur": 1.0, "tieStart": false, "tieEnd": false, "tieGroup": 0}, {"pitch": 64, "vel": 49, "dur": 1.0, "tieStart": false, "tieEnd": false, "tieGroup": 0}]}]}, {"ts_num": 4, "ts_den": 4, "key_fifths": 0, "key_mode": 0, "clef": 1, "tempo": 120, "velocity": 100, "lyrics": "", "expr": [], "segs": [{"start": 0.0, "dur": 1.0, "rest": false, "notes": [{"pitch": 45, "vel": 89, "dur": 1.0, "tieStart": false, "tieEnd": false, "tieGroup": 0}, {"pitch": 60, "vel": 85, "dur": 1.0, "tieStart": false, "tieEnd": false, "tieGroup": 0}, {"pitch": 64, "vel": 81, "dur": 1.0, "tieStart": false, "tieEnd": false, "tieGroup": 0}, {"pitch": 67, "vel": 77, "dur": 1.0, "tieStart": false, "tieEnd": false, "tieGroup": 0}, {"pitch": 69, "vel": 73, "dur": 1.0, "tieStart": false, "tieEnd": false, "tieGroup": 0}]}, {"start": 1.0, "dur": 1.0, "rest": false, "notes": [{"pitch": 45, "vel": 89, "dur": 1.0, "tieStart": false, "tieEnd": false, "tieGroup": 0}, {"pitch": 60, "vel": 85, "dur": 1.0, "tieStart": false, "tieEnd": false, "tieGroup": 0}, {"pitch": 64, "vel": 81, "dur": 1.0, "tieStart": false, "tieEnd": false, "tieGroup": 0}, {"pitch": 67, "vel": 77, "dur": 1.0, "tieStart": false, "tieEnd": false, "tieGroup": 0}, {"pitch": 69, "vel": 73, "dur": 1.0, "tieStart": false, "tieEnd": false, "tieGroup": 0}]}, {"start": 2.0, "dur": 1.0, "rest": false, "notes": [{"pitch": 45, "vel": 81, "dur": 1.0, "tieStart": false, "tieEnd": false, "tieGroup": 0}, {"pitch": 60, "vel": 77, "dur": 1.0, "tieStart": false, "tieEnd": false, "tieGroup": 0}, {"pitch": 64, "vel": 73, "dur": 1.0, "tieStart": false, "tieEnd": false, "tieGroup": 0}, {"pitch": 67, "vel": 69, "dur": 1.0, "tieStart": false, "tieEnd": false, "tieGroup": 0}, {"pitch": 69, "vel": 65, "dur": 1.0, "tieStart": false, "tieEnd": false, "tieGroup": 0}]}, {"start": 3.0, "dur": 1.0, "rest": false, "notes": [{"pitch": 45, "vel": 81, "dur": 1.0, "tieStart": false, "tieEnd": false, "tieGroup": 0}, {"pitch": 60, "vel": 77, "dur": 1.0, "tieStart": false, "tieEnd": false, "tieGroup": 0}, {"pitch": 64, "vel": 73, "dur": 1.0, "tieStart": false, "tieEnd": false, "tieGroup": 0}, {"pitch": 67, "vel": 69, "dur": 1.0, "tieStart": false, "tieEnd": false, "tieGroup": 0}, {"pitch": 72, "vel": 65, "dur": 1.0, "tieStart": false, "tieEnd": false, "tieGroup": 0}]}]}, {"ts_num": 4, "ts_den": 4, "key_fifths": 0, "key_mode": 0, "clef": 1, "tempo": 120, "velocity": 100, "lyrics": "", "expr": [], "segs": [{"start": 0.0, "dur": 2.0, "rest": false, "notes": [{"pitch": 53, "vel": 97, "dur": 2.0, "tieStart": false, "tieEnd": false, "tieGroup": 0}, {"pitch": 60, "vel": 93, "dur": 2.0, "tieStart": false, "tieEnd": false, "tieGroup": 0}, {"pitch": 62, "vel": 89, "dur": 2.0, "tieStart": false, "tieEnd": false, "tieGroup": 0}, {"pitch": 65, "vel": 85, "dur": 2.0, "tieStart": false, "tieEnd": false, "tieGroup": 0}, {"pitch": 69, "vel": 81, "dur": 2.0, "tieStart": false, "tieEnd": false, "tieGroup": 0}]}, {"start": 2.0, "dur": 1.0, "rest": false, "notes": [{"pitch": 53, "vel": 81, "dur": 1.0, "tieStart": false, "tieEnd": false, "tieGroup": 0}, {"pitch": 64, "vel": 77, "dur": 1.0, "tieStart": false, "tieEnd": false, "tieGroup": 0}, {"pitch": 65, "vel": 73, "dur": 1.0, "tieStart": false, "tieEnd": false, "tieGroup": 0}, {"pitch": 69, "vel": 69, "dur": 1.0, "tieStart": false, "tieEnd": false, "tieGroup": 0}, {"pitch": 72, "vel": 65, "dur": 1.0, "tieStart": false, "tieEnd": false, "tieGroup": 0}]}, {"start": 3.0, "dur": 1.0, "rest": false, "notes": [{"pitch": 50, "vel": 73, "dur": 1.0, "tieStart": false, "tieEnd": false, "tieGroup": 0}, {"pitch": 53, "vel": 69, "dur": 1.0, "tieStart": false, "tieEnd": false, "tieGroup": 0}, {"pitch": 57, "vel": 65, "dur": 1.0, "tieStart": false, "tieEnd": false, "tieGroup": 0}, {"pitch": 60, "vel": 61, "dur": 1.0, "tieStart": false, "tieEnd": false, "tieGroup": 0}]}]}, {"ts_num": 4, "ts_den": 4, "key_fifths": 0, "key_mode": 0, "clef": 1, "tempo": 120, "velocity": 100, "lyrics": "", "expr": [], "segs": [{"start": 0.0, "dur": 1.0, "rest": false, "notes": [{"pitch": 48, "vel": 81, "dur": 1.0, "tieStart": false, "tieEnd": false, "tieGroup": 0}, {"pitch": 50, "vel": 77, "dur": 1.0, "tieStart": false, "tieEnd": false, "tieGroup": 0}, {"pitch": 53, "vel": 73, "dur": 1.0, "tieStart": false, "tieEnd": false, "tieGroup": 0}, {"pitch": 57, "vel": 69, "dur": 1.0, "tieStart": false, "tieEnd": false, "tieGroup": 0}]}, {"start": 1.0, "dur": 1.0, "rest": false, "notes": [{"pitch": 50, "vel": 81, "dur": 1.0, "tieStart": false, "tieEnd": false, "tieGroup": 0}, {"pitch": 57, "vel": 77, "dur": 1.0, "tieStart": false, "tieEnd": false, "tieGroup": 0}, {"pitch": 60, "vel": 73, "dur": 1.0, "tieStart": false, "tieEnd": false, "tieGroup": 0}, {"pitch": 62, "vel": 69, "dur": 1.0, "tieStart": false, "tieEnd": false, "tieGroup": 0}, {"pitch": 65, "vel": 65, "dur": 1.0, "tieStart": false, "tieEnd": false, "tieGroup": 0}]}, {"start": 2.0, "dur": 2.0, "rest": false, "notes": [{"pitch": 50, "vel": 73, "dur": 2.0, "tieStart": false, "tieEnd": false, "tieGroup": 0}, {"pitch": 62, "vel": 69, "dur": 2.0, "tieStart": false, "tieEnd": false, "tieGroup": 0}, {"pitch": 65, "vel": 65, "dur": 2.0, "tieStart": false, "tieEnd": false, "tieGroup": 0}, {"pitch": 69, "vel": 61, "dur": 2.0, "tieStart": false, "tieEnd": false, "tieGroup": 0}, {"pitch": 72, "vel": 57, "dur": 2.0, "tieStart": false, "tieEnd": false, "tieGroup": 0}]}]}, {"ts_num": 4, "ts_den": 4, "key_fifths": 0, "key_mode": 0, "clef": 1, "tempo": 120, "velocity": 100, "lyrics": "", "expr": [], "segs": [{"start": 0.0, "dur": 1.0, "rest": false, "notes": [{"pitch": 43, "vel": 73, "dur": 1.0, "tieStart": false, "tieEnd": false, "tieGroup": 0}, {"pitch": 55, "vel": 69, "dur": 1.0, "tieStart": false, "tieEnd": false, "tieGroup": 0}, {"pitch": 59, "vel": 65, "dur": 1.0, "tieStart": false, "tieEnd": false, "tieGroup": 0}, {"pitch": 62, "vel": 61, "dur": 1.0, "tieStart": false, "tieEnd": false, "tieGroup": 0}, {"pitch": 65, "vel": 57, "dur": 1.0, "tieStart": false, "tieEnd": false, "tieGroup": 0}]}, {"start": 1.0, "dur": 1.0, "rest": false, "notes": [{"pitch": 43, "vel": 81, "dur": 1.0, "tieStart": false, "tieEnd": false, "tieGroup": 0}, {"pitch": 50, "vel": 77, "dur": 1.0, "tieStart": false, "tieEnd": false, "tieGroup": 0}, {"pitch": 53, "vel": 73, "dur": 1.0, "tieStart": false, "tieEnd": false, "tieGroup": 0}, {"pitch": 55, "vel": 69, "dur": 1.0, "tieStart": false, "tieEnd": false, "tieGroup": 0}, {"pitch": 59, "vel": 65, "dur": 1.0, "tieStart": false, "tieEnd": false, "tieGroup": 0}]}, {"start": 2.0, "dur": 1.0, "rest": false, "notes": [{"pitch": 43, "vel": 89, "dur": 1.0, "tieStart": false, "tieEnd": false, "tieGroup": 0}, {"pitch": 55, "vel": 85, "dur": 1.0, "tieStart": false, "tieEnd": false, "tieGroup": 0}, {"pitch": 59, "vel": 81, "dur": 1.0, "tieStart": false, "tieEnd": false, "tieGroup": 0}, {"pitch": 62, "vel": 77, "dur": 1.0, "tieStart": false, "tieEnd": false, "tieGroup": 0}, {"pitch": 65, "vel": 73, "dur": 1.0, "tieStart": false, "tieEnd": false, "tieGroup": 0}]}, {"start": 3.0, "dur": 1.0, "rest": false, "notes": [{"pitch": 43, "vel": 73, "dur": 1.0, "tieStart": false, "tieEnd": false, "tieGroup": 0}, {"pitch": 53, "vel": 69, "dur": 1.0, "tieStart": false, "tieEnd": false, "tieGroup": 0}, {"pitch": 55, "vel": 65, "dur": 1.0, "tieStart": false, "tieEnd": false, "tieGroup": 0}, {"pitch": 59, "vel": 61, "dur": 1.0, "tieStart": false, "tieEnd": false, "tieGroup": 0}, {"pitch": 62, "vel": 57, "dur": 1.0, "tieStart": false, "tieEnd": false, "tieGroup": 0}]}]}, {"ts_num": 4, "ts_den": 4, "key_fifths": 0, "key_mode": 0, "clef": 1, "tempo": 120, "velocity": 100, "lyrics": "", "expr": [], "segs": [{"start": 0.0, "dur": 2.0, "rest": false, "notes": [{"pitch": 48, "vel": 89, "dur": 2.0, "tieStart": false, "tieEnd": false, "tieGroup": 0}, {"pitch": 60, "vel": 85, "dur": 2.0, "tieStart": false, "tieEnd": false, "tieGroup": 0}, {"pitch": 64, "vel": 81, "dur": 2.0, "tieStart": false, "tieEnd": false, "tieGroup": 0}, {"pitch": 67, "vel": 77, "dur": 2.0, "tieStart": false, "tieEnd": false, "tieGroup": 0}, {"pitch": 71, "vel": 73, "dur": 2.0, "tieStart": false, "tieEnd": false, "tieGroup": 0}]}, {"start": 2.0, "dur": 1.0, "rest": false, "notes": [{"pitch": 48, "vel": 81, "dur": 1.0, "tieStart": false, "tieEnd": false, "tieGroup": 0}, {"pitch": 60, "vel": 77, "dur": 1.0, "tieStart": false, "tieEnd": false, "tieGroup": 0}, {"pitch": 64, "vel": 73, "dur": 1.0, "tieStart": false, "tieEnd": false, "tieGroup": 0}, {"pitch": 67, "vel": 69, "dur": 1.0, "tieStart": false, "tieEnd": false, "tieGroup": 0}, {"pitch": 69, "vel": 65, "dur": 1.0, "tieStart": false, "tieEnd": false, "tieGroup": 0}]}, {"start": 3.0, "dur": 1.0, "rest": false, "notes": [{"pitch": 48, "vel": 81, "dur": 1.0, "tieStart": false, "tieEnd": false, "tieGroup": 0}, {"pitch": 60, "vel": 77, "dur": 1.0, "tieStart": false, "tieEnd": false, "tieGroup": 0}, {"pitch": 64, "vel": 73, "dur": 1.0, "tieStart": false, "tieEnd": false, "tieGroup": 0}, {"pitch": 67, "vel": 69, "dur": 1.0, "tieStart": false, "tieEnd": false, "tieGroup": 0}, {"pitch": 71, "vel": 65, "dur": 1.0, "tieStart": false, "tieEnd": false, "tieGroup": 0}]}]}, {"ts_num": 4, "ts_den": 4, "key_fifths": 0, "key_mode": 0, "clef": 1, "tempo": 120, "velocity": 100, "lyrics": "", "expr": [], "segs": [{"start": 0.0, "dur": 1.0, "rest": false, "notes": [{"pitch": 48, "vel": 81, "dur": 1.0, "tieStart": false, "tieEnd": false, "tieGroup": 0}, {"pitch": 55, "vel": 77, "dur": 1.0, "tieStart": false, "tieEnd": false, "tieGroup": 0}, {"pitch": 59, "vel": 73, "dur": 1.0, "tieStart": false, "tieEnd": false, "tieGroup": 0}, {"pitch": 60, "vel": 69, "dur": 1.0, "tieStart": false, "tieEnd": false, "tieGroup": 0}, {"pitch": 64, "vel": 65, "dur": 1.0, "tieStart": false, "tieEnd": false, "tieGroup": 0}]}, {"start": 1.0, "dur": 1.0, "rest": false, "notes": [{"pitch": 43, "vel": 81, "dur": 1.0, "tieStart": false, "tieEnd": false, "tieGroup": 0}, {"pitch": 45, "vel": 77, "dur": 1.0, "tieStart": false, "tieEnd": false, "tieGroup": 0}, {"pitch": 48, "vel": 73, "dur": 1.0, "tieStart": false, "tieEnd": false, "tieGroup": 0}, {"pitch": 52, "vel": 69, "dur": 1.0, "tieStart": false, "tieEnd": false, "tieGroup": 0}]}, {"start": 2.0, "dur": 2.0, "rest": false, "notes": [{"pitch": 48, "vel": 73, "dur": 2.0, "tieStart": false, "tieEnd": false, "tieGroup": 0}, {"pitch": 52, "vel": 69, "dur": 2.0, "tieStart": false, "tieEnd": false, "tieGroup": 0}, {"pitch": 55, "vel": 65, "dur": 2.0, "tieStart": false, "tieEnd": false, "tieGroup": 0}, {"pitch": 59, "vel": 61, "dur": 2.0, "tieStart": false, "tieEnd": false, "tieGroup": 0}, {"pitch": 60, "vel": 57, "dur": 2.0, "tieStart": false, "tieEnd": false, "tieGroup": 0}]}]}, {"ts_num": 4, "ts_den": 4, "key_fifths": 0, "key_mode": 0, "clef": 1, "tempo": 120, "velocity": 100, "lyrics": "", "expr": [], "segs": [{"start": 0.0, "dur": 1.0, "rest": false, "notes": [{"pitch": 45, "vel": 89, "dur": 1.0, "tieStart": false, "tieEnd": false, "tieGroup": 0}, {"pitch": 48, "vel": 85, "dur": 1.0, "tieStart": false, "tieEnd": false, "tieGroup": 0}, {"pitch": 52, "vel": 81, "dur": 1.0, "tieStart": false, "tieEnd": false, "tieGroup": 0}, {"pitch": 55, "vel": 77, "dur": 1.0, "tieStart": false, "tieEnd": false, "tieGroup": 0}]}, {"start": 1.0, "dur": 1.0, "rest": false, "notes": [{"pitch": 45, "vel": 89, "dur": 1.0, "tieStart": false, "tieEnd": false, "tieGroup": 0}, {"pitch": 48, "vel": 85, "dur": 1.0, "tieStart": false, "tieEnd": false, "tieGroup": 0}, {"pitch": 52, "vel": 81, "dur": 1.0, "tieStart": false, "tieEnd": false, "tieGroup": 0}, {"pitch": 55, "vel": 77, "dur": 1.0, "tieStart": false, "tieEnd": false, "tieGroup": 0}, {"pitch": 57, "vel": 73, "dur": 1.0, "tieStart": false, "tieEnd": false, "tieGroup": 0}]}, {"start": 2.0, "dur": 1.0, "rest": false, "notes": [{"pitch": 45, "vel": 73, "dur": 1.0, "tieStart": false, "tieEnd": false, "tieGroup": 0}, {"pitch": 55, "vel": 69, "dur": 1.0, "tieStart": false, "tieEnd": false, "tieGroup": 0}, {"pitch": 57, "vel": 65, "dur": 1.0, "tieStart": false, "tieEnd": false, "tieGroup": 0}, {"pitch": 60, "vel": 61, "dur": 1.0, "tieStart": false, "tieEnd": false, "tieGroup": 0}, {"pitch": 64, "vel": 57, "dur": 1.0, "tieStart": false, "tieEnd": false, "tieGroup": 0}]}, {"start": 3.0, "dur": 1.0, "rest": false, "notes": [{"pitch": 45, "vel": 73, "dur": 1.0, "tieStart": false, "tieEnd": false, "tieGroup": 0}, {"pitch": 57, "vel": 69, "dur": 1.0, "tieStart": false, "tieEnd": false, "tieGroup": 0}, {"pitch": 60, "vel": 65, "dur": 1.0, "tieStart": false, "tieEnd": false, "tieGroup": 0}, {"pitch": 64, "vel": 61, "dur": 1.0, "tieStart": false, "tieEnd": false, "tieGroup": 0}, {"pitch": 67, "vel": 57, "dur": 1.0, "tieStart": false, "tieEnd": false, "tieGroup": 0}]}]}, {"ts_num": 4, "ts_den": 4, "key_fifths": 0, "key_mode": 0, "clef": 1, "tempo": 120, "velocity": 100, "lyrics": "", "expr": [], "segs": [{"start": 0.0, "dur": 1.0, "rest": false, "notes": [{"pitch": 52, "vel": 81, "dur": 1.0, "tieStart": false, "tieEnd": false, "tieGroup": 0}, {"pitch": 62, "vel": 77, "dur": 1.0, "tieStart": false, "tieEnd": false, "tieGroup": 0}, {"pitch": 64, "vel": 73, "dur": 1.0, "tieStart": false, "tieEnd": false, "tieGroup": 0}, {"pitch": 67, "vel": 69, "dur": 1.0, "tieStart": false, "tieEnd": false, "tieGroup": 0}, {"pitch": 71, "vel": 65, "dur": 1.0, "tieStart": false, "tieEnd": false, "tieGroup": 0}]}, {"start": 1.0, "dur": 1.0, "rest": false, "notes": [{"pitch": 52, "vel": 73, "dur": 1.0, "tieStart": false, "tieEnd": false, "tieGroup": 0}, {"pitch": 59, "vel": 69, "dur": 1.0, "tieStart": false, "tieEnd": false, "tieGroup": 0}, {"pitch": 62, "vel": 65, "dur": 1.0, "tieStart": false, "tieEnd": false, "tieGroup": 0}, {"pitch": 64, "vel": 61, "dur": 1.0, "tieStart": false, "tieEnd": false, "tieGroup": 0}, {"pitch": 67, "vel": 57, "dur": 1.0, "tieStart": false, "tieEnd": false, "tieGroup": 0}]}, {"start": 2.0, "dur": 1.0, "rest": false, "notes": [{"pitch": 52, "vel": 81, "dur": 1.0, "tieStart": false, "tieEnd": false, "tieGroup": 0}, {"pitch": 55, "vel": 77, "dur": 1.0, "tieStart": false, "tieEnd": false, "tieGroup": 0}, {"pitch": 59, "vel": 73, "dur": 1.0, "tieStart": false, "tieEnd": false, "tieGroup": 0}, {"pitch": 62, "vel": 69, "dur": 1.0, "tieStart": false, "tieEnd": false, "tieGroup": 0}, {"pitch": 64, "vel": 65, "dur": 1.0, "tieStart": false, "tieEnd": false, "tieGroup": 0}]}, {"start": 3.0, "dur": 1.0, "rest": false, "notes": [{"pitch": 43, "vel": 89, "dur": 1.0, "tieStart": false, "tieEnd": false, "tieGroup": 0}, {"pitch": 47, "vel": 85, "dur": 1.0, "tieStart": false, "tieEnd": false, "tieGroup": 0}, {"pitch": 50, "vel": 81, "dur": 1.0, "tieStart": false, "tieEnd": false, "tieGroup": 0}, {"pitch": 52, "vel": 77, "dur": 1.0, "tieStart": false, "tieEnd": false, "tieGroup": 0}]}]}, {"ts_num": 4, "ts_den": 4, "key_fifths": 0, "key_mode": 0, "clef": 1, "tempo": 120, "velocity": 100, "lyrics": "", "expr": [], "segs": [{"start": 0.0, "dur": 2.0, "rest": false, "notes": [{"pitch": 50, "vel": 73, "dur": 2.0, "tieStart": false, "tieEnd": false, "tieGroup": 0}, {"pitch": 52, "vel": 69, "dur": 2.0, "tieStart": false, "tieEnd": false, "tieGroup": 0}, {"pitch": 55, "vel": 65, "dur": 2.0, "tieStart": false, "tieEnd": false, "tieGroup": 0}, {"pitch": 59, "vel": 61, "dur": 2.0, "tieStart": false, "tieEnd": false, "tieGroup": 0}]}, {"start": 2.0, "dur": 1.0, "rest": false, "notes": [{"pitch": 52, "vel": 73, "dur": 1.0, "tieStart": false, "tieEnd": false, "tieGroup": 0}, {"pitch": 59, "vel": 69, "dur": 1.0, "tieStart": false, "tieEnd": false, "tieGroup": 0}, {"pitch": 62, "vel": 65, "dur": 1.0, "tieStart": false, "tieEnd": false, "tieGroup": 0}, {"pitch": 64, "vel": 61, "dur": 1.0, "tieStart": false, "tieEnd": false, "tieGroup": 0}, {"pitch": 67, "vel": 57, "dur": 1.0, "tieStart": false, "tieEnd": false, "tieGroup": 0}]}, {"start": 3.0, "dur": 1.0, "rest": false, "notes": [{"pitch": 52, "vel": 73, "dur": 1.0, "tieStart": false, "tieEnd": false, "tieGroup": 0}, {"pitch": 64, "vel": 69, "dur": 1.0, "tieStart": false, "tieEnd": false, "tieGroup": 0}, {"pitch": 67, "vel": 65, "dur": 1.0, "tieStart": false, "tieEnd": false, "tieGroup": 0}, {"pitch": 71, "vel": 61, "dur": 1.0, "tieStart": false, "tieEnd": false, "tieGroup": 0}, {"pitch": 74, "vel": 57, "dur": 1.0, "tieStart": false, "tieEnd": false, "tieGroup": 0}]}]}, {"ts_num": 4, "ts_den": 4, "key_fifths": 0, "key_mode": 0, "clef": 1, "tempo": 120, "velocity": 100, "lyrics": "", "expr": [], "segs": [{"start": 0.0, "dur": 1.0, "rest": false, "notes": [{"pitch": 45, "vel": 89, "dur": 1.0, "tieStart": false, "tieEnd": false, "tieGroup": 0}, {"pitch": 60, "vel": 85, "dur": 1.0, "tieStart": false, "tieEnd": false, "tieGroup": 0}, {"pitch": 64, "vel": 81, "dur": 1.0, "tieStart": false, "tieEnd": false, "tieGroup": 0}, {"pitch": 67, "vel": 77, "dur": 1.0, "tieStart": false, "tieEnd": false, "tieGroup": 0}, {"pitch": 69, "vel": 73, "dur": 1.0, "tieStart": false, "tieEnd": false, "tieGroup": 0}]}, {"start": 1.0, "dur": 1.0, "rest": false, "notes": [{"pitch": 45, "vel": 89, "dur": 1.0, "tieStart": false, "tieEnd": false, "tieGroup": 0}, {"pitch": 55, "vel": 85, "dur": 1.0, "tieStart": false, "tieEnd": false, "tieGroup": 0}, {"pitch": 57, "vel": 81, "dur": 1.0, "tieStart": false, "tieEnd": false, "tieGroup": 0}, {"pitch": 60, "vel": 77, "dur": 1.0, "tieStart": false, "tieEnd": false, "tieGroup": 0}, {"pitch": 64, "vel": 73, "dur": 1.0, "tieStart": false, "tieEnd": false, "tieGroup": 0}]}, {"start": 2.0, "dur": 2.0, "rest": false, "notes": [{"pitch": 45, "vel": 89, "dur": 2.0, "tieStart": false, "tieEnd": false, "tieGroup": 0}, {"pitch": 60, "vel": 85, "dur": 2.0, "tieStart": false, "tieEnd": false, "tieGroup": 0}, {"pitch": 64, "vel": 81, "dur": 2.0, "tieStart": false, "tieEnd": false, "tieGroup": 0}, {"pitch": 67, "vel": 77, "dur": 2.0, "tieStart": false, "tieEnd": false, "tieGroup": 0}, {"pitch": 69, "vel": 73, "dur": 2.0, "tieStart": false, "tieEnd": false, "tieGroup": 0}]}]}, {"ts_num": 4, "ts_den": 4, "key_fifths": 0, "key_mode": 0, "clef": 1, "tempo": 120, "velocity": 100, "lyrics": "", "expr": [], "segs": [{"start": 0.0, "dur": 1.0, "rest": false, "notes": [{"pitch": 50, "vel": 73, "dur": 1.0, "tieStart": false, "tieEnd": false, "tieGroup": 0}, {"pitch": 53, "vel": 69, "dur": 1.0, "tieStart": false, "tieEnd": false, "tieGroup": 0}, {"pitch": 57, "vel": 65, "dur": 1.0, "tieStart": false, "tieEnd": false, "tieGroup": 0}, {"pitch": 60, "vel": 61, "dur": 1.0, "tieStart": false, "tieEnd": false, "tieGroup": 0}]}, {"start": 1.0, "dur": 1.0, "rest": false, "notes": [{"pitch": 45, "vel": 89, "dur": 1.0, "tieStart": false, "tieEnd": false, "tieGroup": 0}, {"pitch": 48, "vel": 85, "dur": 1.0, "tieStart": false, "tieEnd": false, "tieGroup": 0}, {"pitch": 50, "vel": 81, "dur": 1.0, "tieStart": false, "tieEnd": false, "tieGroup": 0}, {"pitch": 53, "vel": 77, "dur": 1.0, "tieStart": false, "tieEnd": false, "tieGroup": 0}]}, {"start": 2.0, "dur": 1.0, "rest": false, "notes": [{"pitch": 50, "vel": 89, "dur": 1.0, "tieStart": false, "tieEnd": false, "tieGroup": 0}, {"pitch": 62, "vel": 85, "dur": 1.0, "tieStart": false, "tieEnd": false, "tieGroup": 0}, {"pitch": 65, "vel": 81, "dur": 1.0, "tieStart": false, "tieEnd": false, "tieGroup": 0}, {"pitch": 69, "vel": 77, "dur": 1.0, "tieStart": false, "tieEnd": false, "tieGroup": 0}, {"pitch": 72, "vel": 73, "dur": 1.0, "tieStart": false, "tieEnd": false, "tieGroup": 0}]}, {"start": 3.0, "dur": 1.0, "rest": false, "notes": [{"pitch": 50, "vel": 89, "dur": 1.0, "tieStart": false, "tieEnd": false, "tieGroup": 0}, {"pitch": 60, "vel": 85, "dur": 1.0, "tieStart": false, "tieEnd": false, "tieGroup": 0}, {"pitch": 62, "vel": 81, "dur": 1.0, "tieStart": false, "tieEnd": false, "tieGroup": 0}, {"pitch": 65, "vel": 77, "dur": 1.0, "tieStart": false, "tieEnd": false, "tieGroup": 0}, {"pitch": 69, "vel": 73, "dur": 1.0, "tieStart": false, "tieEnd": false, "tieGroup": 0}]}]}, {"ts_num": 4, "ts_den": 4, "key_fifths": 0, "key_mode": 0, "clef": 1, "tempo": 120, "velocity": 100, "lyrics": "", "expr": [], "segs": [{"start": 0.0, "dur": 2.0, "rest": false, "notes": [{"pitch": 43, "vel": 81, "dur": 2.0, "tieStart": false, "tieEnd": false, "tieGroup": 0}, {"pitch": 47, "vel": 77, "dur": 2.0, "tieStart": false, "tieEnd": false, "tieGroup": 0}, {"pitch": 50, "vel": 73, "dur": 2.0, "tieStart": false, "tieEnd": false, "tieGroup": 0}, {"pitch": 53, "vel": 69, "dur": 2.0, "tieStart": false, "tieEnd": false, "tieGroup": 0}]}, {"start": 2.0, "dur": 1.0, "rest": false, "notes": [{"pitch": 43, "vel": 73, "dur": 1.0, "tieStart": false, "tieEnd": false, "tieGroup": 0}, {"pitch": 53, "vel": 69, "dur": 1.0, "tieStart": false, "tieEnd": false, "tieGroup": 0}, {"pitch": 55, "vel": 65, "dur": 1.0, "tieStart": false, "tieEnd": false, "tieGroup": 0}, {"pitch": 59, "vel": 61, "dur": 1.0, "tieStart": false, "tieEnd": false, "tieGroup": 0}, {"pitch": 62, "vel": 57, "dur": 1.0, "tieStart": false, "tieEnd": false, "tieGroup": 0}]}, {"start": 3.0, "dur": 1.0, "rest": false, "notes": [{"pitch": 43, "vel": 81, "dur": 1.0, "tieStart": false, "tieEnd": false, "tieGroup": 0}, {"pitch": 55, "vel": 77, "dur": 1.0, "tieStart": false, "tieEnd": false, "tieGroup": 0}, {"pitch": 59, "vel": 73, "dur": 1.0, "tieStart": false, "tieEnd": false, "tieGroup": 0}, {"pitch": 62, "vel": 69, "dur": 1.0, "tieStart": false, "tieEnd": false, "tieGroup": 0}, {"pitch": 65, "vel": 65, "dur": 1.0, "tieStart": false, "tieEnd": false, "tieGroup": 0}]}]}, {"ts_num": 4, "ts_den": 4, "key_fifths": 0, "key_mode": 0, "clef": 1, "tempo": 120, "velocity": 100, "lyrics": "", "expr": [], "segs": [{"start": 0.0, "dur": 1.0, "rest": false, "notes": [{"pitch": 48, "vel": 97, "dur": 1.0, "tieStart": false, "tieEnd": false, "tieGroup": 0}, {"pitch": 60, "vel": 93, "dur": 1.0, "tieStart": false, "tieEnd": false, "tieGroup": 0}, {"pitch": 64, "vel": 89, "dur": 1.0, "tieStart": false, "tieEnd": false, "tieGroup": 0}, {"pitch": 67, "vel": 85, "dur": 1.0, "tieStart": false, "tieEnd": false, "tieGroup": 0}, {"pitch": 71, "vel": 81, "dur": 1.0, "tieStart": false, "tieEnd": false, "tieGroup": 0}]}, {"start": 1.0, "dur": 1.0, "rest": false, "notes": [{"pitch": 43, "vel": 97, "dur": 1.0, "tieStart": false, "tieEnd": false, "tieGroup": 0}, {"pitch": 45, "vel": 93, "dur": 1.0, "tieStart": false, "tieEnd": false, "tieGroup": 0}, {"pitch": 48, "vel": 89, "dur": 1.0, "tieStart": false, "tieEnd": false, "tieGroup": 0}, {"pitch": 52, "vel": 85, "dur": 1.0, "tieStart": false, "tieEnd": false, "tieGroup": 0}]}, {"start": 2.0, "dur": 2.0, "rest": false, "notes": [{"pitch": 48, "vel": 73, "dur": 2.0, "tieStart": false, "tieEnd": false, "tieGroup": 0}, {"pitch": 60, "vel": 69, "dur": 2.0, "tieStart": false, "tieEnd": false, "tieGroup": 0}, {"pitch": 64, "vel": 65, "dur": 2.0, "tieStart": false, "tieEnd": false, "tieGroup": 0}, {"pitch": 67, "vel": 61, "dur": 2.0, "tieStart": false, "tieEnd": false, "tieGroup": 0}, {"pitch": 71, "vel": 57, "dur": 2.0, "tieStart": false, "tieEnd": false, "tieGroup": 0}]}]}, {"ts_num": 4, "ts_den": 4, "key_fifths": 0, "key_mode": 0, "clef": 1, "tempo": 120, "velocity": 100, "lyrics": "", "expr": [], "segs": [{"start": 0.0, "dur": 1.0, "rest": false, "notes": [{"pitch": 45, "vel": 65, "dur": 1.0, "tieStart": false, "tieEnd": false, "tieGroup": 0}, {"pitch": 52, "vel": 61, "dur": 1.0, "tieStart": false, "tieEnd": false, "tieGroup": 0}, {"pitch": 55, "vel": 57, "dur": 1.0, "tieStart": false, "tieEnd": false, "tieGroup": 0}, {"pitch": 57, "vel": 53, "dur": 1.0, "tieStart": false, "tieEnd": false, "tieGroup": 0}, {"pitch": 60, "vel": 49, "dur": 1.0, "tieStart": false, "tieEnd": false, "tieGroup": 0}]}, {"start": 1.0, "dur": 1.0, "rest": false, "notes": [{"pitch": 45, "vel": 60, "dur": 1.0, "tieStart": false, "tieEnd": false, "tieGroup": 0}, {"pitch": 60, "vel": 56, "dur": 1.0, "tieStart": false, "tieEnd": false, "tieGroup": 0}, {"pitch": 64, "vel": 52, "dur": 1.0, "tieStart": false, "tieEnd": false, "tieGroup": 0}, {"pitch": 67, "vel": 48, "dur": 1.0, "tieStart": false, "tieEnd": false, "tieGroup": 0}, {"pitch": 69, "vel": 44, "dur": 1.0, "tieStart": false, "tieEnd": false, "tieGroup": 0}]}, {"start": 2.0, "dur": 2.0, "rest": false, "notes": [{"pitch": 45, "vel": 65, "dur": 2.0, "tieStart": false, "tieEnd": false, "tieGroup": 0}, {"pitch": 52, "vel": 61, "dur": 2.0, "tieStart": false, "tieEnd": false, "tieGroup": 0}, {"pitch": 55, "vel": 57, "dur": 2.0, "tieStart": false, "tieEnd": false, "tieGroup": 0}, {"pitch": 57, "vel": 53, "dur": 2.0, "tieStart": false, "tieEnd": false, "tieGroup": 0}, {"pitch": 60, "vel": 49, "dur": 2.0, "tieStart": false, "tieEnd": false, "tieGroup": 0}]}]}, {"ts_num": 4, "ts_den": 4, "key_fifths": 0, "key_mode": 0, "clef": 1, "tempo": 120, "velocity": 100, "lyrics": "", "expr": [], "segs": [{"start": 0.0, "dur": 2.0, "rest": false, "notes": [{"pitch": 53, "vel": 81, "dur": 2.0, "tieStart": false, "tieEnd": false, "tieGroup": 0}, {"pitch": 57, "vel": 77, "dur": 2.0, "tieStart": false, "tieEnd": false, "tieGroup": 0}, {"pitch": 60, "vel": 73, "dur": 2.0, "tieStart": false, "tieEnd": false, "tieGroup": 0}, {"pitch": 62, "vel": 69, "dur": 2.0, "tieStart": false, "tieEnd": false, "tieGroup": 0}, {"pitch": 65, "vel": 65, "dur": 2.0, "tieStart": false, "tieEnd": false, "tieGroup": 0}]}, {"start": 2.0, "dur": 1.0, "rest": false, "notes": [{"pitch": 52, "vel": 65, "dur": 1.0, "tieStart": false, "tieEnd": false, "tieGroup": 0}, {"pitch": 53, "vel": 61, "dur": 1.0, "tieStart": false, "tieEnd": false, "tieGroup": 0}, {"pitch": 57, "vel": 57, "dur": 1.0, "tieStart": false, "tieEnd": false, "tieGroup": 0}, {"pitch": 60, "vel": 53, "dur": 1.0, "tieStart": false, "tieEnd": false, "tieGroup": 0}]}, {"start": 3.0, "dur": 1.0, "rest": false, "notes": [{"pitch": 50, "vel": 81, "dur": 1.0, "tieStart": false, "tieEnd": false, "tieGroup": 0}, {"pitch": 53, "vel": 77, "dur": 1.0, "tieStart": false, "tieEnd": false, "tieGroup": 0}, {"pitch": 57, "vel": 73, "dur": 1.0, "tieStart": false, "tieEnd": false, "tieGroup": 0}, {"pitch": 60, "vel": 69, "dur": 1.0, "tieStart": false, "tieEnd": false, "tieGroup": 0}]}]}, {"ts_num": 4, "ts_den": 4, "key_fifths": 0, "key_mode": 0, "clef": 1, "tempo": 120, "velocity": 100, "lyrics": "", "expr": [], "segs": [{"start": 0.0, "dur": 1.0, "rest": false, "notes": [{"pitch": 52, "vel": 89, "dur": 1.0, "tieStart": false, "tieEnd": false, "tieGroup": 0}, {"pitch": 62, "vel": 85, "dur": 1.0, "tieStart": false, "tieEnd": false, "tieGroup": 0}, {"pitch": 64, "vel": 81, "dur": 1.0, "tieStart": false, "tieEnd": false, "tieGroup": 0}, {"pitch": 67, "vel": 77, "dur": 1.0, "tieStart": false, "tieEnd": false, "tieGroup": 0}, {"pitch": 71, "vel": 73, "dur": 1.0, "tieStart": false, "tieEnd": false, "tieGroup": 0}]}, {"start": 1.0, "dur": 1.0, "rest": false, "notes": [{"pitch": 52, "vel": 89, "dur": 1.0, "tieStart": false, "tieEnd": false, "tieGroup": 0}, {"pitch": 59, "vel": 85, "dur": 1.0, "tieStart": false, "tieEnd": false, "tieGroup": 0}, {"pitch": 62, "vel": 81, "dur": 1.0, "tieStart": false, "tieEnd": false, "tieGroup": 0}, {"pitch": 64, "vel": 77, "dur": 1.0, "tieStart": false, "tieEnd": false, "tieGroup": 0}, {"pitch": 67, "vel": 73, "dur": 1.0, "tieStart": false, "tieEnd": false, "tieGroup": 0}]}, {"start": 2.0, "dur": 1.0, "rest": false, "notes": [{"pitch": 52, "vel": 81, "dur": 1.0, "tieStart": false, "tieEnd": false, "tieGroup": 0}, {"pitch": 59, "vel": 77, "dur": 1.0, "tieStart": false, "tieEnd": false, "tieGroup": 0}, {"pitch": 62, "vel": 73, "dur": 1.0, "tieStart": false, "tieEnd": false, "tieGroup": 0}, {"pitch": 64, "vel": 69, "dur": 1.0, "tieStart": false, "tieEnd": false, "tieGroup": 0}, {"pitch": 67, "vel": 65, "dur": 1.0, "tieStart": false, "tieEnd": false, "tieGroup": 0}]}, {"start": 3.0, "dur": 1.0, "rest": false, "notes": [{"pitch": 52, "vel": 73, "dur": 1.0, "tieStart": false, "tieEnd": false, "tieGroup": 0}, {"pitch": 55, "vel": 69, "dur": 1.0, "tieStart": false, "tieEnd": false, "tieGroup": 0}, {"pitch": 59, "vel": 65, "dur": 1.0, "tieStart": false, "tieEnd": false, "tieGroup": 0}, {"pitch": 62, "vel": 61, "dur": 1.0, "tieStart": false, "tieEnd": false, "tieGroup": 0}, {"pitch": 64, "vel": 57, "dur": 1.0, "tieStart": false, "tieEnd": false, "tieGroup": 0}]}]}, {"ts_num": 4, "ts_den": 4, "key_fifths": 0, "key_mode": 0, "clef": 1, "tempo": 120, "velocity": 100, "lyrics": "", "expr": [], "segs": [{"start": 0.0, "dur": 1.0, "rest": false, "notes": [{"pitch": 43, "vel": 73, "dur": 1.0, "tieStart": false, "tieEnd": false, "tieGroup": 0}, {"pitch": 45, "vel": 69, "dur": 1.0, "tieStart": false, "tieEnd": false, "tieGroup": 0}, {"pitch": 48, "vel": 65, "dur": 1.0, "tieStart": false, "tieEnd": false, "tieGroup": 0}, {"pitch": 52, "vel": 61, "dur": 1.0, "tieStart": false, "tieEnd": false, "tieGroup": 0}]}, {"start": 1.0, "dur": 1.0, "rest": false, "notes": [{"pitch": 48, "vel": 81, "dur": 1.0, "tieStart": false, "tieEnd": false, "tieGroup": 0}, {"pitch": 64, "vel": 77, "dur": 1.0, "tieStart": false, "tieEnd": false, "tieGroup": 0}, {"pitch": 67, "vel": 73, "dur": 1.0, "tieStart": false, "tieEnd": false, "tieGroup": 0}, {"pitch": 71, "vel": 69, "dur": 1.0, "tieStart": false, "tieEnd": false, "tieGroup": 0}, {"pitch": 72, "vel": 65, "dur": 1.0, "tieStart": false, "tieEnd": false, "tieGroup": 0}]}, {"start": 2.0, "dur": 2.0, "rest": false, "notes": [{"pitch": 43, "vel": 81, "dur": 2.0, "tieStart": false, "tieEnd": false, "tieGroup": 0}, {"pitch": 45, "vel": 77, "dur": 2.0, "tieStart": false, "tieEnd": false, "tieGroup": 0}, {"pitch": 48, "vel": 73, "dur": 2.0, "tieStart": false, "tieEnd": false, "tieGroup": 0}, {"pitch": 52, "vel": 69, "dur": 2.0, "tieStart": false, "tieEnd": false, "tieGroup": 0}]}]}, {"ts_num": 4, "ts_den": 4, "key_fifths": 0, "key_mode": 0, "clef": 1, "tempo": 120, "velocity": 100, "lyrics": "", "expr": [], "segs": [{"start": 0.0, "dur": 1.0, "rest": false, "notes": [{"pitch": 48, "vel": 81, "dur": 1.0, "tieStart": false, "tieEnd": false, "tieGroup": 0}, {"pitch": 52, "vel": 77, "dur": 1.0, "tieStart": false, "tieEnd": false, "tieGroup": 0}, {"pitch": 55, "vel": 73, "dur": 1.0, "tieStart": false, "tieEnd": false, "tieGroup": 0}, {"pitch": 57, "vel": 69, "dur": 1.0, "tieStart": false, "tieEnd": false, "tieGroup": 0}, {"pitch": 60, "vel": 65, "dur": 1.0, "tieStart": false, "tieEnd": false, "tieGroup": 0}]}, {"start": 1.0, "dur": 1.0, "rest": false, "notes": [{"pitch": 48, "vel": 73, "dur": 1.0, "tieStart": false, "tieEnd": false, "tieGroup": 0}, {"pitch": 55, "vel": 69, "dur": 1.0, "tieStart": false, "tieEnd": false, "tieGroup": 0}, {"pitch": 59, "vel": 65, "dur": 1.0, "tieStart": false, "tieEnd": false, "tieGroup": 0}, {"pitch": 60, "vel": 61, "dur": 1.0, "tieStart": false, "tieEnd": false, "tieGroup": 0}, {"pitch": 64, "vel": 57, "dur": 1.0, "tieStart": false, "tieEnd": false, "tieGroup": 0}]}, {"start": 2.0, "dur": 2.0, "rest": false, "notes": [{"pitch": 48, "vel": 73, "dur": 2.0, "tieStart": false, "tieEnd": false, "tieGroup": 0}, {"pitch": 52, "vel": 69, "dur": 2.0, "tieStart": false, "tieEnd": false, "tieGroup": 0}, {"pitch": 55, "vel": 65, "dur": 2.0, "tieStart": false, "tieEnd": false, "tieGroup": 0}, {"pitch": 57, "vel": 61, "dur": 2.0, "tieStart": false, "tieEnd": false, "tieGroup": 0}]}]}, {"ts_num": 4, "ts_den": 4, "key_fifths": 0, "key_mode": 0, "clef": 1, "tempo": 120, "velocity": 100, "lyrics": "", "expr": [], "segs": [{"start": 0.0, "dur": 2.0, "rest": false, "notes": [{"pitch": 43, "vel": 81, "dur": 2.0, "tieStart": false, "tieEnd": false, "tieGroup": 0}, {"pitch": 59, "vel": 77, "dur": 2.0, "tieStart": false, "tieEnd": false, "tieGroup": 0}, {"pitch": 62, "vel": 73, "dur": 2.0, "tieStart": false, "tieEnd": false, "tieGroup": 0}, {"pitch": 67, "vel": 69, "dur": 2.0, "tieStart": false, "tieEnd": false, "tieGroup": 0}]}, {"start": 2.0, "dur": 1.0, "rest": false, "notes": [{"pitch": 43, "vel": 89, "dur": 1.0, "tieStart": false, "tieEnd": false, "tieGroup": 0}, {"pitch": 47, "vel": 85, "dur": 1.0, "tieStart": false, "tieEnd": false, "tieGroup": 0}, {"pitch": 50, "vel": 81, "dur": 1.0, "tieStart": false, "tieEnd": false, "tieGroup": 0}]}, {"start": 3.0, "dur": 1.0, "rest": false, "notes": [{"pitch": 43, "vel": 65, "dur": 1.0, "tieStart": false, "tieEnd": false, "tieGroup": 0}, {"pitch": 55, "vel": 61, "dur": 1.0, "tieStart": false, "tieEnd": false, "tieGroup": 0}, {"pitch": 57, "vel": 57, "dur": 1.0, "tieStart": false, "tieEnd": false, "tieGroup": 0}, {"pitch": 59, "vel": 53, "dur": 1.0, "tieStart": false, "tieEnd": false, "tieGroup": 0}, {"pitch": 62, "vel": 49, "dur": 1.0, "tieStart": false, "tieEnd": false, "tieGroup": 0}]}]}, {"ts_num": 4, "ts_den": 4, "key_fifths": 0, "key_mode": 0, "clef": 1, "tempo": 120, "velocity": 100, "lyrics": "", "expr": [], "segs": [{"start": 0.0, "dur": 1.0, "rest": false, "notes": [{"pitch": 43, "vel": 73, "dur": 1.0, "tieStart": false, "tieEnd": false, "tieGroup": 0}, {"pitch": 48, "vel": 69, "dur": 1.0, "tieStart": false, "tieEnd": false, "tieGroup": 0}, {"pitch": 52, "vel": 65, "dur": 1.0, "tieStart": false, "tieEnd": false, "tieGroup": 0}]}, {"start": 1.0, "dur": 2.0, "rest": false, "notes": [{"pitch": 48, "vel": 81, "dur": 2.0, "tieStart": false, "tieEnd": false, "tieGroup": 0}, {"pitch": 60, "vel": 77, "dur": 2.0, "tieStart": false, "tieEnd": false, "tieGroup": 0}, {"pitch": 64, "vel": 73, "dur": 2.0, "tieStart": false, "tieEnd": false, "tieGroup": 0}, {"pitch": 67, "vel": 69, "dur": 2.0, "tieStart": false, "tieEnd": false, "tieGroup": 0}]}, {"start": 3.0, "dur": 1.0, "rest": false, "notes": [{"pitch": 48, "vel": 97, "dur": 1.0, "tieStart": false, "tieEnd": false, "tieGroup": 0}, {"pitch": 60, "vel": 93, "dur": 1.0, "tieStart": false, "tieEnd": false, "tieGroup": 0}, {"pitch": 62, "vel": 89, "dur": 1.0, "tieStart": false, "tieEnd": false, "tieGroup": 0}, {"pitch": 64, "vel": 85, "dur": 1.0, "tieStart": false, "tieEnd": false, "tieGroup": 0}, {"pitch": 67, "vel": 81, "dur": 1.0, "tieStart": false, "tieEnd": false, "tieGroup": 0}]}]}, {"ts_num": 4, "ts_den": 4, "key_fifths": 0, "key_mode": 0, "clef": 1, "tempo": 120, "velocity": 100, "lyrics": "", "expr": [], "segs": [{"start": 0.0, "dur": 1.0, "rest": false, "notes": [{"pitch": 48, "vel": 73, "dur": 1.0, "tieStart": false, "tieEnd": false, "tieGroup": 0}, {"pitch": 60, "vel": 69, "dur": 1.0, "tieStart": false, "tieEnd": false, "tieGroup": 0}, {"pitch": 62, "vel": 65, "dur": 1.0, "tieStart": false, "tieEnd": false, "tieGroup": 0}, {"pitch": 64, "vel": 61, "dur": 1.0, "tieStart": false, "tieEnd": false, "tieGroup": 0}, {"pitch": 67, "vel": 57, "dur": 1.0, "tieStart": false, "tieEnd": false, "tieGroup": 0}]}, {"start": 1.0, "dur": 1.0, "rest": false, "notes": [{"pitch": 48, "vel": 81, "dur": 1.0, "tieStart": false, "tieEnd": false, "tieGroup": 0}, {"pitch": 64, "vel": 77, "dur": 1.0, "tieStart": false, "tieEnd": false, "tieGroup": 0}, {"pitch": 67, "vel": 73, "dur": 1.0, "tieStart": false, "tieEnd": false, "tieGroup": 0}, {"pitch": 72, "vel": 69, "dur": 1.0, "tieStart": false, "tieEnd": false, "tieGroup": 0}]}, {"start": 2.0, "dur": 2.0, "rest": false, "notes": [{"pitch": 48, "vel": 73, "dur": 2.0, "tieStart": false, "tieEnd": false, "tieGroup": 0}, {"pitch": 55, "vel": 69, "dur": 2.0, "tieStart": false, "tieEnd": false, "tieGroup": 0}, {"pitch": 60, "vel": 65, "dur": 2.0, "tieStart": false, "tieEnd": false, "tieGroup": 0}, {"pitch": 64, "vel": 61, "dur": 2.0, "tieStart": false, "tieEnd": false, "tieGroup": 0}]}]}, {"ts_num": 4, "ts_den": 4, "key_fifths": 0, "key_mode": 0, "clef": 1, "tempo": 120, "velocity": 100, "lyrics": "", "expr": [], "segs": [{"start": 0.0, "dur": 4.0, "rest": true, "notes": []}]}]}, {"name": "반주 드럼 그루브", "instrument": {"name": "반주 드럼 그루브", "bankMSB": 0, "bankLSB": 0, "program": 0, "channelHint": -1, "percussion": true, "volume": 100, "pan": 64, "transpose": 0}, "measures": [{"ts_num": 4, "ts_den": 4, "key_fifths": 0, "key_mode": 0, "clef": 1, "tempo": 120, "velocity": 100, "lyrics": "", "expr": [], "segs": [{"start": 0.0, "dur": 1.0, "rest": false, "notes": [{"pitch": 36, "vel": 100, "dur": 1.0, "tieStart": false, "tieEnd": false, "tieGroup": 0}, {"pitch": 42, "vel": 70, "dur": 1.0, "tieStart": false, "tieEnd": false, "tieGroup": 0}]}, {"start": 1.0, "dur": 1.0, "rest": false, "notes": [{"pitch": 42, "vel": 70, "dur": 1.0, "tieStart": false, "tieEnd": false, "tieGroup": 0}]}, {"start": 2.0, "dur": 1.0, "rest": false, "notes": [{"pitch": 38, "vel": 95, "dur": 1.0, "tieStart": false, "tieEnd": false, "tieGroup": 0}, {"pitch": 42, "vel": 70, "dur": 1.0, "tieStart": false, "tieEnd": false, "tieGroup": 0}]}, {"start": 3.0, "dur": 1.0, "rest": false, "notes": [{"pitch": 42, "vel": 70, "dur": 1.0, "tieStart": false, "tieEnd": false, "tieGroup": 0}]}]}, {"ts_num": 4, "ts_den": 4, "key_fifths": 0, "key_mode": 0, "clef": 1, "tempo": 120, "velocity": 100, "lyrics": "", "expr": [], "segs": [{"start": 0.0, "dur": 1.0, "rest": false, "notes": [{"pitch": 36, "vel": 100, "dur": 1.0, "tieStart": false, "tieEnd": false, "tieGroup": 0}, {"pitch": 42, "vel": 70, "dur": 1.0, "tieStart": false, "tieEnd": false, "tieGroup": 0}]}, {"start": 1.0, "dur": 1.0, "rest": false, "notes": [{"pitch": 42, "vel": 70, "dur": 1.0, "tieStart": false, "tieEnd": false, "tieGroup": 0}]}, {"start": 2.0, "dur": 1.0, "rest": false, "notes": [{"pitch": 38, "vel": 95, "dur": 1.0, "tieStart": false, "tieEnd": false, "tieGroup": 0}, {"pitch": 42, "vel": 70, "dur": 1.0, "tieStart": false, "tieEnd": false, "tieGroup": 0}]}, {"start": 3.0, "dur": 1.0, "rest": false, "notes": [{"pitch": 42, "vel": 70, "dur": 1.0, "tieStart": false, "tieEnd": false, "tieGroup": 0}]}]}, {"ts_num": 4, "ts_den": 4, "key_fifths": 0, "key_mode": 0, "clef": 1, "tempo": 120, "velocity": 100, "lyrics": "", "expr": [], "segs": [{"start": 0.0, "dur": 1.0, "rest": false, "notes": [{"pitch": 36, "vel": 100, "dur": 1.0, "tieStart": false, "tieEnd": false, "tieGroup": 0}, {"pitch": 42, "vel": 70, "dur": 1.0, "tieStart": false, "tieEnd": false, "tieGroup": 0}]}, {"start": 1.0, "dur": 1.0, "rest": false, "notes": [{"pitch": 42, "vel": 70, "dur": 1.0, "tieStart": false, "tieEnd": false, "tieGroup": 0}]}, {"start": 2.0, "dur": 1.0, "rest": false, "notes": [{"pitch": 38, "vel": 95, "dur": 1.0, "tieStart": false, "tieEnd": false, "tieGroup": 0}, {"pitch": 42, "vel": 70, "dur": 1.0, "tieStart": false, "tieEnd": false, "tieGroup": 0}]}, {"start": 3.0, "dur": 1.0, "rest": false, "notes": [{"pitch": 42, "vel": 70, "dur": 1.0, "tieStart": false, "tieEnd": false, "tieGroup": 0}]}]}, {"ts_num": 4, "ts_den": 4, "key_fifths": 0, "key_mode": 0, "clef": 1, "tempo": 120, "velocity": 100, "lyrics": "", "expr": [], "segs": [{"start": 0.0, "dur": 1.0, "rest": false, "notes": [{"pitch": 36, "vel": 100, "dur": 1.0, "tieStart": false, "tieEnd": false, "tieGroup": 0}, {"pitch": 42, "vel": 70, "dur": 1.0, "tieStart": false, "tieEnd": false, "tieGroup": 0}]}, {"start": 1.0, "dur": 1.0, "rest": false, "notes": [{"pitch": 42, "vel": 70, "dur": 1.0, "tieStart": false, "tieEnd": false, "tieGroup": 0}]}, {"start": 2.0, "dur": 1.0, "rest": false, "notes": [{"pitch": 38, "vel": 95, "dur": 1.0, "tieStart": false, "tieEnd": false, "tieGroup": 0}, {"pitch": 42, "vel": 70, "dur": 1.0, "tieStart": false, "tieEnd": false, "tieGroup": 0}]}, {"start": 3.0, "dur": 1.0, "rest": false, "notes": [{"pitch": 42, "vel": 70, "dur": 1.0, "tieStart": false, "tieEnd": false, "tieGroup": 0}]}]}, {"ts_num": 4, "ts_den": 4, "key_fifths": 0, "key_mode": 0, "clef": 1, "tempo": 120, "velocity": 100, "lyrics": "", "expr": [], "segs": [{"start": 0.0, "dur": 1.0, "rest": false, "notes": [{"pitch": 36, "vel": 100, "dur": 1.0, "tieStart": false, "tieEnd": false, "tieGroup": 0}, {"pitch": 42, "vel": 70, "dur": 1.0, "tieStart": false, "tieEnd": false, "tieGroup": 0}]}, {"start": 1.0, "dur": 1.0, "rest": false, "notes": [{"pitch": 42, "vel": 70, "dur": 1.0, "tieStart": false, "tieEnd": false, "tieGroup": 0}]}, {"start": 2.0, "dur": 1.0, "rest": false, "notes": [{"pitch": 38, "vel": 95, "dur": 1.0, "tieStart": false, "tieEnd": false, "tieGroup": 0}, {"pitch": 42, "vel": 70, "dur": 1.0, "tieStart": false, "tieEnd": false, "tieGroup": 0}]}, {"start": 3.0, "dur": 1.0, "rest": false, "notes": [{"pitch": 42, "vel": 70, "dur": 1.0, "tieStart": false, "tieEnd": false, "tieGroup": 0}]}]}, {"ts_num": 4, "ts_den": 4, "key_fifths": 0, "key_mode": 0, "clef": 1, "tempo": 120, "velocity": 100, "lyrics": "", "expr": [], "segs": [{"start": 0.0, "dur": 1.0, "rest": false, "notes": [{"pitch": 36, "vel": 100, "dur": 1.0, "tieStart": false, "tieEnd": false, "tieGroup": 0}, {"pitch": 42, "vel": 70, "dur": 1.0, "tieStart": false, "tieEnd": false, "tieGroup": 0}]}, {"start": 1.0, "dur": 1.0, "rest": false, "notes": [{"pitch": 42, "vel": 70, "dur": 1.0, "tieStart": false, "tieEnd": false, "tieGroup": 0}]}, {"start": 2.0, "dur": 1.0, "rest": false, "notes": [{"pitch": 38, "vel": 95, "dur": 1.0, "tieStart": false, "tieEnd": false, "tieGroup": 0}, {"pitch": 42, "vel": 70, "dur": 1.0, "tieStart": false, "tieEnd": false, "tieGroup": 0}]}, {"start": 3.0, "dur": 1.0, "rest": false, "notes": [{"pitch": 42, "vel": 70, "dur": 1.0, "tieStart": false, "tieEnd": false, "tieGroup": 0}]}]}, {"ts_num": 4, "ts_den": 4, "key_fifths": 0, "key_mode": 0, "clef": 1, "tempo": 120, "velocity": 100, "lyrics": "", "expr": [], "segs": [{"start": 0.0, "dur": 1.0, "rest": false, "notes": [{"pitch": 36, "vel": 100, "dur": 1.0, "tieStart": false, "tieEnd": false, "tieGroup": 0}, {"pitch": 42, "vel": 70, "dur": 1.0, "tieStart": false, "tieEnd": false, "tieGroup": 0}]}, {"start": 1.0, "dur": 1.0, "rest": false, "notes": [{"pitch": 42, "vel": 70, "dur": 1.0, "tieStart": false, "tieEnd": false, "tieGroup": 0}]}, {"start": 2.0, "dur": 1.0, "rest": false, "notes": [{"pitch": 38, "vel": 95, "dur": 1.0, "tieStart": false, "tieEnd": false, "tieGroup": 0}, {"pitch": 42, "vel": 70, "dur": 1.0, "tieStart": false, "tieEnd": false, "tieGroup": 0}]}, {"start": 3.0, "dur": 1.0, "rest": false, "notes": [{"pitch": 42, "vel": 70, "dur": 1.0, "tieStart": false, "tieEnd": false, "tieGroup": 0}]}]}, {"ts_num": 4, "ts_den": 4, "key_fifths": 0, "key_mode": 0, "clef": 1, "tempo": 120, "velocity": 100, "lyrics": "", "expr": [], "segs": [{"start": 0.0, "dur": 1.0, "rest": false, "notes": [{"pitch": 36, "vel": 100, "dur": 1.0, "tieStart": false, "tieEnd": false, "tieGroup": 0}, {"pitch": 42, "vel": 70, "dur": 1.0, "tieStart": false, "tieEnd": false, "tieGroup": 0}]}, {"start": 1.0, "dur": 1.0, "rest": false, "notes": [{"pitch": 42, "vel": 70, "dur": 1.0, "tieStart": false, "tieEnd": false, "tieGroup": 0}]}, {"start": 2.0, "dur": 1.0, "rest": false, "notes": [{"pitch": 38, "vel": 95, "dur": 1.0, "tieStart": false, "tieEnd": false, "tieGroup": 0}, {"pitch": 42, "vel": 70, "dur": 1.0, "tieStart": false, "tieEnd": false, "tieGroup": 0}]}, {"start": 3.0, "dur": 1.0, "rest": false, "notes": [{"pitch": 42, "vel": 70, "dur": 1.0, "tieStart": false, "tieEnd": false, "tieGroup": 0}]}]}, {"ts_num": 4, "ts_den": 4, "key_fifths": 0, "key_mode": 0, "clef": 1, "tempo": 120, "velocity": 100, "lyrics": "", "expr": [], "segs": [{"start": 0.0, "dur": 1.0, "rest": false, "notes": [{"pitch": 36, "vel": 100, "dur": 1.0, "tieStart": false, "tieEnd": false, "tieGroup": 0}, {"pitch": 42, "vel": 70, "dur": 1.0, "tieStart": false, "tieEnd": false, "tieGroup": 0}]}, {"start": 1.0, "dur": 1.0, "rest": false, "notes": [{"pitch": 42, "vel": 70, "dur": 1.0, "tieStart": false, "tieEnd": false, "tieGroup": 0}]}, {"start": 2.0, "dur": 1.0, "rest": false, "notes": [{"pitch": 38, "vel": 95, "dur": 1.0, "tieStart": false, "tieEnd": false, "tieGroup": 0}, {"pitch": 42, "vel": 70, "dur": 1.0, "tieStart": false, "tieEnd": false, "tieGroup": 0}]}, {"start": 3.0, "dur": 1.0, "rest": false, "notes": [{"pitch": 42, "vel": 70, "dur": 1.0, "tieStart": false, "tieEnd": false, "tieGroup": 0}]}]}, {"ts_num": 4, "ts_den": 4, "key_fifths": 0, "key_mode": 0, "clef": 1, "tempo": 120, "velocity": 100, "lyrics": "", "expr": [], "segs": [{"start": 0.0, "dur": 1.0, "rest": false, "notes": [{"pitch": 36, "vel": 100, "dur": 1.0, "tieStart": false, "tieEnd": false, "tieGroup": 0}, {"pitch": 42, "vel": 70, "dur": 1.0, "tieStart": false, "tieEnd": false, "tieGroup": 0}]}, {"start": 1.0, "dur": 1.0, "rest": false, "notes": [{"pitch": 42, "vel": 70, "dur": 1.0, "tieStart": false, "tieEnd": false, "tieGroup": 0}]}, {"start": 2.0, "dur": 1.0, "rest": false, "notes": [{"pitch": 38, "vel": 95, "dur": 1.0, "tieStart": false, "tieEnd": false, "tieGroup": 0}, {"pitch": 42, "vel": 70, "dur": 1.0, "tieStart": false, "tieEnd": false, "tieGroup": 0}]}, {"start": 3.0, "dur": 1.0, "rest": false, "notes": [{"pitch": 42, "vel": 70, "dur": 1.0, "tieStart": false, "tieEnd": false, "tieGroup": 0}]}]}, {"ts_num": 4, "ts_den": 4, "key_fifths": 0, "key_mode": 0, "clef": 1, "tempo": 120, "velocity": 100, "lyrics": "", "expr": [], "segs": [{"start": 0.0, "dur": 1.0, "rest": false, "notes": [{"pitch": 36, "vel": 100, "dur": 1.0, "tieStart": false, "tieEnd": false, "tieGroup": 0}, {"pitch": 42, "vel": 70, "dur": 1.0, "tieStart": false, "tieEnd": false, "tieGroup": 0}]}, {"start": 1.0, "dur": 1.0, "rest": false, "notes": [{"pitch": 42, "vel": 70, "dur": 1.0, "tieStart": false, "tieEnd": false, "tieGroup": 0}]}, {"start": 2.0, "dur": 1.0, "rest": false, "notes": [{"pitch": 38, "vel": 95, "dur": 1.0, "tieStart": false, "tieEnd": false, "tieGroup": 0}, {"pitch": 42, "vel": 70, "dur": 1.0, "tieStart": false, "tieEnd": false, "tieGroup": 0}]}, {"start": 3.0, "dur": 1.0, "rest": false, "notes": [{"pitch": 42, "vel": 70, "dur": 1.0, "tieStart": false, "tieEnd": false, "tieGroup": 0}]}]}, {"ts_num": 4, "ts_den": 4, "key_fifths": 0, "key_mode": 0, "clef": 1, "tempo": 120, "velocity": 100, "lyrics": "", "expr": [], "segs": [{"start": 0.0, "dur": 1.0, "rest": false, "notes": [{"pitch": 36, "vel": 100, "dur": 1.0, "tieStart": false, "tieEnd": false, "tieGroup": 0}, {"pitch": 42, "vel": 70, "dur": 1.0, "tieStart": false, "tieEnd": false, "tieGroup": 0}]}, {"start": 1.0, "dur": 1.0, "rest": false, "notes": [{"pitch": 42, "vel": 70, "dur": 1.0, "tieStart": false, "tieEnd": false, "tieGroup": 0}]}, {"start": 2.0, "dur": 1.0, "rest": false, "notes": [{"pitch": 38, "vel": 95, "dur": 1.0, "tieStart": false, "tieEnd": false, "tieGroup": 0}, {"pitch": 42, "vel": 70, "dur": 1.0, "tieStart": false, "tieEnd": false, "tieGroup": 0}]}, {"start": 3.0, "dur": 1.0, "rest": false, "notes": [{"pitch": 42, "vel": 70, "dur": 1.0, "tieStart": false, "tieEnd": false, "tieGroup": 0}]}]}, {"ts_num": 4, "ts_den": 4, "key_fifths": 0, "key_mode": 0, "clef": 1, "tempo": 120, "velocity": 100, "lyrics": "", "expr": [], "segs": [{"start": 0.0, "dur": 1.0, "rest": false, "notes": [{"pitch": 36, "vel": 100, "dur": 1.0, "tieStart": false, "tieEnd": false, "tieGroup": 0}, {"pitch": 42, "vel": 70, "dur": 1.0, "tieStart": false, "tieEnd": false, "tieGroup": 0}]}, {"start": 1.0, "dur": 1.0, "rest": false, "notes": [{"pitch": 42, "vel": 70, "dur": 1.0, "tieStart": false, "tieEnd": false, "tieGroup": 0}]}, {"start": 2.0, "dur": 1.0, "rest": false, "notes": [{"pitch": 38, "vel": 95, "dur": 1.0, "tieStart": false, "tieEnd": false, "tieGroup": 0}, {"pitch": 42, "vel": 70, "dur": 1.0, "tieStart": false, "tieEnd": false, "tieGroup": 0}]}, {"start": 3.0, "dur": 1.0, "rest": false, "notes": [{"pitch": 42, "vel": 70, "dur": 1.0, "tieStart": false, "tieEnd": false, "tieGroup": 0}]}]}, {"ts_num": 4, "ts_den": 4, "key_fifths": 0, "key_mode": 0, "clef": 1, "tempo": 120, "velocity": 100, "lyrics": "", "expr": [], "segs": [{"start": 0.0, "dur": 1.0, "rest": false, "notes": [{"pitch": 36, "vel": 100, "dur": 1.0, "tieStart": false, "tieEnd": false, "tieGroup": 0}, {"pitch": 42, "vel": 70, "dur": 1.0, "tieStart": false, "tieEnd": false, "tieGroup": 0}]}, {"start": 1.0, "dur": 1.0, "rest": false, "notes": [{"pitch": 42, "vel": 70, "dur": 1.0, "tieStart": false, "tieEnd": false, "tieGroup": 0}]}, {"start": 2.0, "dur": 1.0, "rest": false, "notes": [{"pitch": 38, "vel": 95, "dur": 1.0, "tieStart": false, "tieEnd": false, "tieGroup": 0}, {"pitch": 42, "vel": 70, "dur": 1.0, "tieStart": false, "tieEnd": false, "tieGroup": 0}]}, {"start": 3.0, "dur": 1.0, "rest": false, "notes": [{"pitch": 42, "vel": 70, "dur": 1.0, "tieStart": false, "tieEnd": false, "tieGroup": 0}]}]}, {"ts_num": 4, "ts_den": 4, "key_fifths": 0, "key_mode": 0, "clef": 1, "tempo": 120, "velocity": 100, "lyrics": "", "expr": [], "segs": [{"start": 0.0, "dur": 1.0, "rest": false, "notes": [{"pitch": 36, "vel": 100, "dur": 1.0, "tieStart": false, "tieEnd": false, "tieGroup": 0}, {"pitch": 42, "vel": 70, "dur": 1.0, "tieStart": false, "tieEnd": false, "tieGroup": 0}]}, {"start": 1.0, "dur": 1.0, "rest": false, "notes": [{"pitch": 42, "vel": 70, "dur": 1.0, "tieStart": false, "tieEnd": false, "tieGroup": 0}]}, {"start": 2.0, "dur": 1.0, "rest": false, "notes": [{"pitch": 38, "vel": 95, "dur": 1.0, "tieStart": false, "tieEnd": false, "tieGroup": 0}, {"pitch": 42, "vel": 70, "dur": 1.0, "tieStart": false, "tieEnd": false, "tieGroup": 0}]}, {"start": 3.0, "dur": 1.0, "rest": false, "notes": [{"pitch": 42, "vel": 70, "dur": 1.0, "tieStart": false, "tieEnd": false, "tieGroup": 0}]}]}, {"ts_num": 4, "ts_den": 4, "key_fifths": 0, "key_mode": 0, "clef": 1, "tempo": 120, "velocity": 100, "lyrics": "", "expr": [], "segs": [{"start": 0.0, "dur": 1.0, "rest": false, "notes": [{"pitch": 36, "vel": 100, "dur": 1.0, "tieStart": false, "tieEnd": false, "tieGroup": 0}, {"pitch": 42, "vel": 70, "dur": 1.0, "tieStart": false, "tieEnd": false, "tieGroup": 0}]}, {"start": 1.0, "dur": 1.0, "rest": false, "notes": [{"pitch": 42, "vel": 70, "dur": 1.0, "tieStart": false, "tieEnd": false, "tieGroup": 0}]}, {"start": 2.0, "dur": 1.0, "rest": false, "notes": [{"pitch": 38, "vel": 95, "dur": 1.0, "tieStart": false, "tieEnd": false, "tieGroup": 0}, {"pitch": 42, "vel": 70, "dur": 1.0, "tieStart": false, "tieEnd": false, "tieGroup": 0}]}, {"start": 3.0, "dur": 1.0, "rest": false, "notes": [{"pitch": 42, "vel": 70, "dur": 1.0, "tieStart": false, "tieEnd": false, "tieGroup": 0}]}]}, {"ts_num": 4, "ts_den": 4, "key_fifths": 0, "key_mode": 0, "clef": 1, "tempo": 120, "velocity": 100, "lyrics": "", "expr": [], "segs": [{"start": 0.0, "dur": 1.0, "rest": false, "notes": [{"pitch": 36, "vel": 100, "dur": 1.0, "tieStart": false, "tieEnd": false, "tieGroup": 0}, {"pitch": 42, "vel": 70, "dur": 1.0, "tieStart": false, "tieEnd": false, "tieGroup": 0}]}, {"start": 1.0, "dur": 1.0, "rest": false, "notes": [{"pitch": 42, "vel": 70, "dur": 1.0, "tieStart": false, "tieEnd": false, "tieGroup": 0}]}, {"start": 2.0, "dur": 1.0, "rest": false, "notes": [{"pitch": 38, "vel": 95, "dur": 1.0, "tieStart": false, "tieEnd": false, "tieGroup": 0}, {"pitch": 42, "vel": 70, "dur": 1.0, "tieStart": false, "tieEnd": false, "tieGroup": 0}]}, {"start": 3.0, "dur": 1.0, "rest": false, "notes": [{"pitch": 42, "vel": 70, "dur": 1.0, "tieStart": false, "tieEnd": false, "tieGroup": 0}]}]}, {"ts_num": 4, "ts_den": 4, "key_fifths": 0, "key_mode": 0, "clef": 1, "tempo": 120, "velocity": 100, "lyrics": "", "expr": [], "segs": [{"start": 0.0, "dur": 1.0, "rest": false, "notes": [{"pitch": 36, "vel": 100, "dur": 1.0, "tieStart": false, "tieEnd": false, "tieGroup": 0}, {"pitch": 42, "vel": 70, "dur": 1.0, "tieStart": false, "tieEnd": false, "tieGroup": 0}]}, {"start": 1.0, "dur": 1.0, "rest": false, "notes": [{"pitch": 42, "vel": 70, "dur": 1.0, "tieStart": false, "tieEnd": false, "tieGroup": 0}]}, {"start": 2.0, "dur": 1.0, "rest": false, "notes": [{"pitch": 38, "vel": 95, "dur": 1.0, "tieStart": false, "tieEnd": false, "tieGroup": 0}, {"pitch": 42, "vel": 70, "dur": 1.0, "tieStart": false, "tieEnd": false, "tieGroup": 0}]}, {"start": 3.0, "dur": 1.0, "rest": false, "notes": [{"pitch": 42, "vel": 70, "dur": 1.0, "tieStart": false, "tieEnd": false, "tieGroup": 0}]}]}, {"ts_num": 4, "ts_den": 4, "key_fifths": 0, "key_mode": 0, "clef": 1, "tempo": 120, "velocity": 100, "lyrics": "", "expr": [], "segs": [{"start": 0.0, "dur": 1.0, "rest": false, "notes": [{"pitch": 36, "vel": 100, "dur": 1.0, "tieStart": false, "tieEnd": false, "tieGroup": 0}, {"pitch": 42, "vel": 70, "dur": 1.0, "tieStart": false, "tieEnd": false, "tieGroup": 0}]}, {"start": 1.0, "dur": 1.0, "rest": false, "notes": [{"pitch": 42, "vel": 70, "dur": 1.0, "tieStart": false, "tieEnd": false, "tieGroup": 0}]}, {"start": 2.0, "dur": 1.0, "rest": false, "notes": [{"pitch": 38, "vel": 95, "dur": 1.0, "tieStart": false, "tieEnd": false, "tieGroup": 0}, {"pitch": 42, "vel": 70, "dur": 1.0, "tieStart": false, "tieEnd": false, "tieGroup": 0}]}, {"start": 3.0, "dur": 1.0, "rest": false, "notes": [{"pitch": 42, "vel": 70, "dur": 1.0, "tieStart": false, "tieEnd": false, "tieGroup": 0}]}]}, {"ts_num": 4, "ts_den": 4, "key_fifths": 0, "key_mode": 0, "clef": 1, "tempo": 120, "velocity": 100, "lyrics": "", "expr": [], "segs": [{"start": 0.0, "dur": 1.0, "rest": false, "notes": [{"pitch": 36, "vel": 100, "dur": 1.0, "tieStart": false, "tieEnd": false, "tieGroup": 0}, {"pitch": 42, "vel": 70, "dur": 1.0, "tieStart": false, "tieEnd": false, "tieGroup": 0}]}, {"start": 1.0, "dur": 1.0, "rest": false, "notes": [{"pitch": 42, "vel": 70, "dur": 1.0, "tieStart": false, "tieEnd": false, "tieGroup": 0}]}, {"start": 2.0, "dur": 1.0, "rest": false, "notes": [{"pitch": 38, "vel": 95, "dur": 1.0, "tieStart": false, "tieEnd": false, "tieGroup": 0}, {"pitch": 42, "vel": 70, "dur": 1.0, "tieStart": false, "tieEnd": false, "tieGroup": 0}]}, {"start": 3.0, "dur": 1.0, "rest": false, "notes": [{"pitch": 42, "vel": 70, "dur": 1.0, "tieStart": false, "tieEnd": false, "tieGroup": 0}]}]}, {"ts_num": 4, "ts_den": 4, "key_fifths": 0, "key_mode": 0, "clef": 1, "tempo": 120, "velocity": 100, "lyrics": "", "expr": [], "segs": [{"start": 0.0, "dur": 1.0, "rest": false, "notes": [{"pitch": 36, "vel": 100, "dur": 1.0, "tieStart": false, "tieEnd": false, "tieGroup": 0}, {"pitch": 42, "vel": 70, "dur": 1.0, "tieStart": false, "tieEnd": false, "tieGroup": 0}]}, {"start": 1.0, "dur": 1.0, "rest": false, "notes": [{"pitch": 42, "vel": 70, "dur": 1.0, "tieStart": false, "tieEnd": false, "tieGroup": 0}]}, {"start": 2.0, "dur": 1.0, "rest": false, "notes": [{"pitch": 38, "vel": 95, "dur": 1.0, "tieStart": false, "tieEnd": false, "tieGroup": 0}, {"pitch": 42, "vel": 70, "dur": 1.0, "tieStart": false, "tieEnd": false, "tieGroup": 0}]}, {"start": 3.0, "dur": 1.0, "rest": false, "notes": [{"pitch": 42, "vel": 70, "dur": 1.0, "tieStart": false, "tieEnd": false, "tieGroup": 0}]}]}, {"ts_num": 4, "ts_den": 4, "key_fifths": 0, "key_mode": 0, "clef": 1, "tempo": 120, "velocity": 100, "lyrics": "", "expr": [], "segs": [{"start": 0.0, "dur": 1.0, "rest": false, "notes": [{"pitch": 36, "vel": 100, "dur": 1.0, "tieStart": false, "tieEnd": false, "tieGroup": 0}, {"pitch": 42, "vel": 70, "dur": 1.0, "tieStart": false, "tieEnd": false, "tieGroup": 0}]}, {"start": 1.0, "dur": 1.0, "rest": false, "notes": [{"pitch": 42, "vel": 70, "dur": 1.0, "tieStart": false, "tieEnd": false, "tieGroup": 0}]}, {"start": 2.0, "dur": 1.0, "rest": false, "notes": [{"pitch": 38, "vel": 95, "dur": 1.0, "tieStart": false, "tieEnd": false, "tieGroup": 0}, {"pitch": 42, "vel": 70, "dur": 1.0, "tieStart": false, "tieEnd": false, "tieGroup": 0}]}, {"start": 3.0, "dur": 1.0, "rest": false, "notes": [{"pitch": 42, "vel": 70, "dur": 1.0, "tieStart": false, "tieEnd": false, "tieGroup": 0}]}]}, {"ts_num": 4, "ts_den": 4, "key_fifths": 0, "key_mode": 0, "clef": 1, "tempo": 120, "velocity": 100, "lyrics": "", "expr": [], "segs": [{"start": 0.0, "dur": 1.0, "rest": false, "notes": [{"pitch": 36, "vel": 100, "dur": 1.0, "tieStart": false, "tieEnd": false, "tieGroup": 0}, {"pitch": 42, "vel": 70, "dur": 1.0, "tieStart": false, "tieEnd": false, "tieGroup": 0}]}, {"start": 1.0, "dur": 1.0, "rest": false, "notes": [{"pitch": 42, "vel": 70, "dur": 1.0, "tieStart": false, "tieEnd": false, "tieGroup": 0}]}, {"start": 2.0, "dur": 1.0, "rest": false, "notes": [{"pitch": 38, "vel": 95, "dur": 1.0, "tieStart": false, "tieEnd": false, "tieGroup": 0}, {"pitch": 42, "vel": 70, "dur": 1.0, "tieStart": false, "tieEnd": false, "tieGroup": 0}]}, {"start": 3.0, "dur": 1.0, "rest": false, "notes": [{"pitch": 42, "vel": 70, "dur": 1.0, "tieStart": false, "tieEnd": false, "tieGroup": 0}]}]}, {"ts_num": 4, "ts_den": 4, "key_fifths": 0, "key_mode": 0, "clef": 1, "tempo": 120, "velocity": 100, "lyrics": "", "expr": [], "segs": [{"start": 0.0, "dur": 1.0, "rest": false, "notes": [{"pitch": 36, "vel": 100, "dur": 1.0, "tieStart": false, "tieEnd": false, "tieGroup": 0}, {"pitch": 42, "vel": 70, "dur": 1.0, "tieStart": false, "tieEnd": false, "tieGroup": 0}]}, {"start": 1.0, "dur": 1.0, "rest": false, "notes": [{"pitch": 42, "vel": 70, "dur": 1.0, "tieStart": false, "tieEnd": false, "tieGroup": 0}]}, {"start": 2.0, "dur": 1.0, "rest": false, "notes": [{"pitch": 38, "vel": 95, "dur": 1.0, "tieStart": false, "tieEnd": false, "tieGroup": 0}, {"pitch": 42, "vel": 70, "dur": 1.0, "tieStart": false, "tieEnd": false, "tieGroup": 0}]}, {"start": 3.0, "dur": 1.0, "rest": false, "notes": [{"pitch": 42, "vel": 70, "dur": 1.0, "tieStart": false, "tieEnd": false, "tieGroup": 0}]}]}, {"ts_num": 4, "ts_den": 4, "key_fifths": 0, "key_mode": 0, "clef": 1, "tempo": 120, "velocity": 100, "lyrics": "", "expr": [], "segs": [{"start": 0.0, "dur": 1.0, "rest": false, "notes": [{"pitch": 36, "vel": 100, "dur": 1.0, "tieStart": false, "tieEnd": false, "tieGroup": 0}, {"pitch": 42, "vel": 70, "dur": 1.0, "tieStart": false, "tieEnd": false, "tieGroup": 0}]}, {"start": 1.0, "dur": 1.0, "rest": false, "notes": [{"pitch": 42, "vel": 70, "dur": 1.0, "tieStart": false, "tieEnd": false, "tieGroup": 0}]}, {"start": 2.0, "dur": 1.0, "rest": false, "notes": [{"pitch": 38, "vel": 95, "dur": 1.0, "tieStart": false, "tieEnd": false, "tieGroup": 0}, {"pitch": 42, "vel": 70, "dur": 1.0, "tieStart": false, "tieEnd": false, "tieGroup": 0}]}, {"start": 3.0, "dur": 1.0, "rest": false, "notes": [{"pitch": 42, "vel": 70, "dur": 1.0, "tieStart": false, "tieEnd": false, "tieGroup": 0}]}]}, {"ts_num": 4, "ts_den": 4, "key_fifths": 0, "key_mode": 0, "clef": 1, "tempo": 120, "velocity": 100, "lyrics": "", "expr": [], "segs": [{"start": 0.0, "dur": 1.0, "rest": false, "notes": [{"pitch": 36, "vel": 100, "dur": 1.0, "tieStart": false, "tieEnd": false, "tieGroup": 0}, {"pitch": 42, "vel": 70, "dur": 1.0, "tieStart": false, "tieEnd": false, "tieGroup": 0}]}, {"start": 1.0, "dur": 1.0, "rest": false, "notes": [{"pitch": 42, "vel": 70, "dur": 1.0, "tieStart": false, "tieEnd": false, "tieGroup": 0}]}, {"start": 2.0, "dur": 1.0, "rest": false, "notes": [{"pitch": 38, "vel": 95, "dur": 1.0, "tieStart": false, "tieEnd": false, "tieGroup": 0}, {"pitch": 42, "vel": 70, "dur": 1.0, "tieStart": false, "tieEnd": false, "tieGroup": 0}]}, {"start": 3.0, "dur": 1.0, "rest": false, "notes": [{"pitch": 42, "vel": 70, "dur": 1.0, "tieStart": false, "tieEnd": false, "tieGroup": 0}]}]}, {"ts_num": 4, "ts_den": 4, "key_fifths": 0, "key_mode": 0, "clef": 1, "tempo": 120, "velocity": 100, "lyrics": "", "expr": [], "segs": [{"start": 0.0, "dur": 1.0, "rest": false, "notes": [{"pitch": 36, "vel": 100, "dur": 1.0, "tieStart": false, "tieEnd": false, "tieGroup": 0}, {"pitch": 42, "vel": 70, "dur": 1.0, "tieStart": false, "tieEnd": false, "tieGroup": 0}]}, {"start": 1.0, "dur": 1.0, "rest": false, "notes": [{"pitch": 42, "vel": 70, "dur": 1.0, "tieStart": false, "tieEnd": false, "tieGroup": 0}]}, {"start": 2.0, "dur": 1.0, "rest": false, "notes": [{"pitch": 38, "vel": 95, "dur": 1.0, "tieStart": false, "tieEnd": false, "tieGroup": 0}, {"pitch": 42, "vel": 70, "dur": 1.0, "tieStart": false, "tieEnd": false, "tieGroup": 0}]}, {"start": 3.0, "dur": 1.0, "rest": false, "notes": [{"pitch": 42, "vel": 70, "dur": 1.0, "tieStart": false, "tieEnd": false, "tieGroup": 0}]}]}, {"ts_num": 4, "ts_den": 4, "key_fifths": 0, "key_mode": 0, "clef": 1, "tempo": 120, "velocity": 100, "lyrics": "", "expr": [], "segs": [{"start": 0.0, "dur": 1.0, "rest": false, "notes": [{"pitch": 36, "vel": 100, "dur": 1.0, "tieStart": false, "tieEnd": false, "tieGroup": 0}, {"pitch": 42, "vel": 70, "dur": 1.0, "tieStart": false, "tieEnd": false, "tieGroup": 0}]}, {"start": 1.0, "dur": 1.0, "rest": false, "notes": [{"pitch": 42, "vel": 70, "dur": 1.0, "tieStart": false, "tieEnd": false, "tieGroup": 0}]}, {"start": 2.0, "dur": 1.0, "rest": false, "notes": [{"pitch": 38, "vel": 95, "dur": 1.0, "tieStart": false, "tieEnd": false, "tieGroup": 0}, {"pitch": 42, "vel": 70, "dur": 1.0, "tieStart": false, "tieEnd": false, "tieGroup": 0}]}, {"start": 3.0, "dur": 1.0, "rest": false, "notes": [{"pitch": 42, "vel": 70, "dur": 1.0, "tieStart": false, "tieEnd": false, "tieGroup": 0}]}]}, {"ts_num": 4, "ts_den": 4, "key_fifths": 0, "key_mode": 0, "clef": 1, "tempo": 120, "velocity": 100, "lyrics": "", "expr": [], "segs": [{"start": 0.0, "dur": 1.0, "rest": false, "notes": [{"pitch": 36, "vel": 100, "dur": 1.0, "tieStart": false, "tieEnd": false, "tieGroup": 0}, {"pitch": 42, "vel": 70, "dur": 1.0, "tieStart": false, "tieEnd": false, "tieGroup": 0}]}, {"start": 1.0, "dur": 1.0, "rest": false, "notes": [{"pitch": 42, "vel": 70, "dur": 1.0, "tieStart": false, "tieEnd": false, "tieGroup": 0}]}, {"start": 2.0, "dur": 1.0, "rest": false, "notes": [{"pitch": 38, "vel": 95, "dur": 1.0, "tieStart": false, "tieEnd": false, "tieGroup": 0}, {"pitch": 42, "vel": 70, "dur": 1.0, "tieStart": false, "tieEnd": false, "tieGroup": 0}]}, {"start": 3.0, "dur": 1.0, "rest": false, "notes": [{"pitch": 42, "vel": 70, "dur": 1.0, "tieStart": false, "tieEnd": false, "tieGroup": 0}]}]}, {"ts_num": 4, "ts_den": 4, "key_fifths": 0, "key_mode": 0, "clef": 1, "tempo": 120, "velocity": 100, "lyrics": "", "expr": [], "segs": [{"start": 0.0, "dur": 1.0, "rest": false, "notes": [{"pitch": 36, "vel": 100, "dur": 1.0, "tieStart": false, "tieEnd": false, "tieGroup": 0}, {"pitch": 42, "vel": 70, "dur": 1.0, "tieStart": false, "tieEnd": false, "tieGroup": 0}]}, {"start": 1.0, "dur": 1.0, "rest": false, "notes": [{"pitch": 42, "vel": 70, "dur": 1.0, "tieStart": false, "tieEnd": false, "tieGroup": 0}]}, {"start": 2.0, "dur": 1.0, "rest": false, "notes": [{"pitch": 38, "vel": 95, "dur": 1.0, "tieStart": false, "tieEnd": false, "tieGroup": 0}, {"pitch": 42, "vel": 70, "dur": 1.0, "tieStart": false, "tieEnd": false, "tieGroup": 0}]}, {"start": 3.0, "dur": 1.0, "rest": false, "notes": [{"pitch": 42, "vel": 70, "dur": 1.0, "tieStart": false, "tieEnd": false, "tieGroup": 0}]}]}, {"ts_num": 4, "ts_den": 4, "key_fifths": 0, "key_mode": 0, "clef": 1, "tempo": 120, "velocity": 100, "lyrics": "", "expr": [], "segs": [{"start": 0.0, "dur": 1.0, "rest": false, "notes": [{"pitch": 36, "vel": 100, "dur": 1.0, "tieStart": false, "tieEnd": false, "tieGroup": 0}, {"pitch": 42, "vel": 70, "dur": 1.0, "tieStart": false, "tieEnd": false, "tieGroup": 0}]}, {"start": 1.0, "dur": 1.0, "rest": false, "notes": [{"pitch": 42, "vel": 70, "dur": 1.0, "tieStart": false, "tieEnd": false, "tieGroup": 0}]}, {"start": 2.0, "dur": 1.0, "rest": false, "notes": [{"pitch": 38, "vel": 95, "dur": 1.0, "tieStart": false, "tieEnd": false, "tieGroup": 0}, {"pitch": 42, "vel": 70, "dur": 1.0, "tieStart": false, "tieEnd": false, "tieGroup": 0}]}, {"start": 3.0, "dur": 1.0, "rest": false, "notes": [{"pitch": 42, "vel": 70, "dur": 1.0, "tieStart": false, "tieEnd": false, "tieGroup": 0}]}]}, {"ts_num": 4, "ts_den": 4, "key_fifths": 0, "key_mode": 0, "clef": 1, "tempo": 120, "velocity": 100, "lyrics": "", "expr": [], "segs": [{"start": 0.0, "dur": 1.0, "rest": false, "notes": [{"pitch": 36, "vel": 100, "dur": 1.0, "tieStart": false, "tieEnd": false, "tieGroup": 0}, {"pitch": 42, "vel": 70, "dur": 1.0, "tieStart": false, "tieEnd": false, "tieGroup": 0}]}, {"start": 1.0, "dur": 1.0, "rest": false, "notes": [{"pitch": 42, "vel": 70, "dur": 1.0, "tieStart": false, "tieEnd": false, "tieGroup": 0}]}, {"start": 2.0, "dur": 1.0, "rest": false, "notes": [{"pitch": 38, "vel": 95, "dur": 1.0, "tieStart": false, "tieEnd": false, "tieGroup": 0}, {"pitch": 42, "vel": 70, "dur": 1.0, "tieStart": false, "tieEnd": false, "tieGroup": 0}]}, {"start": 3.0, "dur": 1.0, "rest": false, "notes": [{"pitch": 42, "vel": 70, "dur": 1.0, "tieStart": false, "tieEnd": false, "tieGroup": 0}]}]}, {"ts_num": 4, "ts_den": 4, "key_fifths": 0, "key_mode": 0, "clef": 1, "tempo": 120, "velocity": 100, "lyrics": "", "expr": [], "segs": [{"start": 0.0, "dur": 1.0, "rest": false, "notes": [{"pitch": 36, "vel": 100, "dur": 1.0, "tieStart": false, "tieEnd": false, "tieGroup": 0}, {"pitch": 42, "vel": 70, "dur": 1.0, "tieStart": false, "tieEnd": false, "tieGroup": 0}]}, {"start": 1.0, "dur": 1.0, "rest": false, "notes": [{"pitch": 42, "vel": 70, "dur": 1.0, "tieStart": false, "tieEnd": false, "tieGroup": 0}]}, {"start": 2.0, "dur": 1.0, "rest": false, "notes": [{"pitch": 38, "vel": 95, "dur": 1.0, "tieStart": false, "tieEnd": false, "tieGroup": 0}, {"pitch": 42, "vel": 70, "dur": 1.0, "tieStart": false, "tieEnd": false, "tieGroup": 0}]}, {"start": 3.0, "dur": 1.0, "rest": false, "notes": [{"pitch": 42, "vel": 70, "dur": 1.0, "tieStart": false, "tieEnd": false, "tieGroup": 0}]}]}, {"ts_num": 4, "ts_den": 4, "key_fifths": 0, "key_mode": 0, "clef": 1, "tempo": 120, "velocity": 100, "lyrics": "", "expr": [], "segs": [{"start": 0.0, "dur": 1.0, "rest": false, "notes": [{"pitch": 36, "vel": 100, "dur": 1.0, "tieStart": false, "tieEnd": false, "tieGroup": 0}, {"pitch": 42, "vel": 70, "dur": 1.0, "tieStart": false, "tieEnd": false, "tieGroup": 0}]}, {"start": 1.0, "dur": 1.0, "rest": false, "notes": [{"pitch": 42, "vel": 70, "dur": 1.0, "tieStart": false, "tieEnd": false, "tieGroup": 0}]}, {"start": 2.0, "dur": 1.0, "rest": false, "notes": [{"pitch": 38, "vel": 95, "dur": 1.0, "tieStart": false, "tieEnd": false, "tieGroup": 0}, {"pitch": 42, "vel": 70, "dur": 1.0, "tieStart": false, "tieEnd": false, "tieGroup": 0}]}, {"start": 3.0, "dur": 1.0, "rest": false, "notes": [{"pitch": 42, "vel": 70, "dur": 1.0, "tieStart": false, "tieEnd": false, "tieGroup": 0}]}]}, {"ts_num": 4, "ts_den": 4, "key_fifths": 0, "key_mode": 0, "clef": 1, "tempo": 120, "velocity": 100, "lyrics": "", "expr": [], "segs": [{"start": 0.0, "dur": 1.0, "rest": false, "notes": [{"pitch": 36, "vel": 100, "dur": 1.0, "tieStart": false, "tieEnd": false, "tieGroup": 0}, {"pitch": 42, "vel": 70, "dur": 1.0, "tieStart": false, "tieEnd": false, "tieGroup": 0}]}, {"start": 1.0, "dur": 1.0, "rest": false, "notes": [{"pitch": 42, "vel": 70, "dur": 1.0, "tieStart": false, "tieEnd": false, "tieGroup": 0}]}, {"start": 2.0, "dur": 1.0, "rest": false, "notes": [{"pitch": 38, "vel": 95, "dur": 1.0, "tieStart": false, "tieEnd": false, "tieGroup": 0}, {"pitch": 42, "vel": 70, "dur": 1.0, "tieStart": false, "tieEnd": false, "tieGroup": 0}]}, {"start": 3.0, "dur": 1.0, "rest": false, "notes": [{"pitch": 42, "vel": 70, "dur": 1.0, "tieStart": false, "tieEnd": false, "tieGroup": 0}]}]}, {"ts_num": 4, "ts_den": 4, "key_fifths": 0, "key_mode": 0, "clef": 1, "tempo": 120, "velocity": 100, "lyrics": "", "expr": [], "segs": [{"start": 0.0, "dur": 1.0, "rest": false, "notes": [{"pitch": 36, "vel": 100, "dur": 1.0, "tieStart": false, "tieEnd": false, "tieGroup": 0}, {"pitch": 42, "vel": 70, "dur": 1.0, "tieStart": false, "tieEnd": false, "tieGroup": 0}]}, {"start": 1.0, "dur": 1.0, "rest": false, "notes": [{"pitch": 42, "vel": 70, "dur": 1.0, "tieStart": false, "tieEnd": false, "tieGroup": 0}]}, {"start": 2.0, "dur": 1.0, "rest": false, "notes": [{"pitch": 38, "vel": 95, "dur": 1.0, "tieStart": false, "tieEnd": false, "tieGroup": 0}, {"pitch": 42, "vel": 70, "dur": 1.0, "tieStart": false, "tieEnd": false, "tieGroup": 0}]}, {"start": 3.0, "dur": 1.0, "rest": false, "notes": [{"pitch": 42, "vel": 70, "dur": 1.0, "tieStart": false, "tieEnd": false, "tieGroup": 0}]}]}, {"ts_num": 4, "ts_den": 4, "key_fifths": 0, "key_mode": 0, "clef": 1, "tempo": 120, "velocity": 100, "lyrics": "", "expr": [], "segs": [{"start": 0.0, "dur": 1.0, "rest": false, "notes": [{"pitch": 36, "vel": 100, "dur": 1.0, "tieStart": false, "tieEnd": false, "tieGroup": 0}, {"pitch": 42, "vel": 70, "dur": 1.0, "tieStart": false, "tieEnd": false, "tieGroup": 0}]}, {"start": 1.0, "dur": 1.0, "rest": false, "notes": [{"pitch": 42, "vel": 70, "dur": 1.0, "tieStart": false, "tieEnd": false, "tieGroup": 0}]}, {"start": 2.0, "dur": 1.0, "rest": false, "notes": [{"pitch": 38, "vel": 95, "dur": 1.0, "tieStart": false, "tieEnd": false, "tieGroup": 0}, {"pitch": 42, "vel": 70, "dur": 1.0, "tieStart": false, "tieEnd": false, "tieGroup": 0}]}, {"start": 3.0, "dur": 1.0, "rest": false, "notes": [{"pitch": 42, "vel": 70, "dur": 1.0, "tieStart": false, "tieEnd": false, "tieGroup": 0}]}]}, {"ts_num": 4, "ts_den": 4, "key_fifths": 0, "key_mode": 0, "clef": 1, "tempo": 120, "velocity": 100, "lyrics": "", "expr": [], "segs": [{"start": 0.0, "dur": 1.0, "rest": false, "notes": [{"pitch": 36, "vel": 100, "dur": 1.0, "tieStart": false, "tieEnd": false, "tieGroup": 0}, {"pitch": 42, "vel": 70, "dur": 1.0, "tieStart": false, "tieEnd": false, "tieGroup": 0}]}, {"start": 1.0, "dur": 1.0, "rest": false, "notes": [{"pitch": 42, "vel": 70, "dur": 1.0, "tieStart": false, "tieEnd": false, "tieGroup": 0}]}, {"start": 2.0, "dur": 1.0, "rest": false, "notes": [{"pitch": 38, "vel": 95, "dur": 1.0, "tieStart": false, "tieEnd": false, "tieGroup": 0}, {"pitch": 42, "vel": 70, "dur": 1.0, "tieStart": false, "tieEnd": false, "tieGroup": 0}]}, {"start": 3.0, "dur": 1.0, "rest": false, "notes": [{"pitch": 42, "vel": 70, "dur": 1.0, "tieStart": false, "tieEnd": false, "tieGroup": 0}]}]}, {"ts_num": 4, "ts_den": 4, "key_fifths": 0, "key_mode": 0, "clef": 1, "tempo": 120, "velocity": 100, "lyrics": "", "expr": [], "segs": [{"start": 0.0, "dur": 1.0, "rest": false, "notes": [{"pitch": 36, "vel": 100, "dur": 1.0, "tieStart": false, "tieEnd": false, "tieGroup": 0}, {"pitch": 42, "vel": 70, "dur": 1.0, "tieStart": false, "tieEnd": false, "tieGroup": 0}]}, {"start": 1.0, "dur": 1.0, "rest": false, "notes": [{"pitch": 42, "vel": 70, "dur": 1.0, "tieStart": false, "tieEnd": false, "tieGroup": 0}]}, {"start": 2.0, "dur": 1.0, "rest": false, "notes": [{"pitch": 38, "vel": 95, "dur": 1.0, "tieStart": false, "tieEnd": false, "tieGroup": 0}, {"pitch": 42, "vel": 70, "dur": 1.0, "tieStart": false, "tieEnd": false, "tieGroup": 0}]}, {"start": 3.0, "dur": 1.0, "rest": false, "notes": [{"pitch": 42, "vel": 70, "dur": 1.0, "tieStart": false, "tieEnd": false, "tieGroup": 0}]}]}, {"ts_num": 4, "ts_den": 4, "key_fifths": 0, "key_mode": 0, "clef": 1, "tempo": 120, "velocity": 100, "lyrics": "", "expr": [], "segs": [{"start": 0.0, "dur": 1.0, "rest": false, "notes": [{"pitch": 36, "vel": 100, "dur": 1.0, "tieStart": false, "tieEnd": false, "tieGroup": 0}, {"pitch": 42, "vel": 70, "dur": 1.0, "tieStart": false, "tieEnd": false, "tieGroup": 0}]}, {"start": 1.0, "dur": 1.0, "rest": false, "notes": [{"pitch": 42, "vel": 70, "dur": 1.0, "tieStart": false, "tieEnd": false, "tieGroup": 0}]}, {"start": 2.0, "dur": 1.0, "rest": false, "notes": [{"pitch": 38, "vel": 95, "dur": 1.0, "tieStart": false, "tieEnd": false, "tieGroup": 0}, {"pitch": 42, "vel": 70, "dur": 1.0, "tieStart": false, "tieEnd": false, "tieGroup": 0}]}, {"start": 3.0, "dur": 1.0, "rest": false, "notes": [{"pitch": 42, "vel": 70, "dur": 1.0, "tieStart": false, "tieEnd": false, "tieGroup": 0}]}]}, {"ts_num": 4, "ts_den": 4, "key_fifths": 0, "key_mode": 0, "clef": 1, "tempo": 120, "velocity": 100, "lyrics": "", "expr": [], "segs": [{"start": 0.0, "dur": 1.0, "rest": false, "notes": [{"pitch": 36, "vel": 100, "dur": 1.0, "tieStart": false, "tieEnd": false, "tieGroup": 0}, {"pitch": 42, "vel": 70, "dur": 1.0, "tieStart": false, "tieEnd": false, "tieGroup": 0}]}, {"start": 1.0, "dur": 1.0, "rest": false, "notes": [{"pitch": 42, "vel": 70, "dur": 1.0, "tieStart": false, "tieEnd": false, "tieGroup": 0}]}, {"start": 2.0, "dur": 1.0, "rest": false, "notes": [{"pitch": 38, "vel": 95, "dur": 1.0, "tieStart": false, "tieEnd": false, "tieGroup": 0}, {"pitch": 42, "vel": 70, "dur": 1.0, "tieStart": false, "tieEnd": false, "tieGroup": 0}]}, {"start": 3.0, "dur": 1.0, "rest": false, "notes": [{"pitch": 42, "vel": 70, "dur": 1.0, "tieStart": false, "tieEnd": false, "tieGroup": 0}]}]}, {"ts_num": 4, "ts_den": 4, "key_fifths": 0, "key_mode": 0, "clef": 1, "tempo": 120, "velocity": 100, "lyrics": "", "expr": [], "segs": [{"start": 0.0, "dur": 1.0, "rest": false, "notes": [{"pitch": 36, "vel": 100, "dur": 1.0, "tieStart": false, "tieEnd": false, "tieGroup": 0}, {"pitch": 42, "vel": 70, "dur": 1.0, "tieStart": false, "tieEnd": false, "tieGroup": 0}]}, {"start": 1.0, "dur": 1.0, "rest": false, "notes": [{"pitch": 42, "vel": 70, "dur": 1.0, "tieStart": false, "tieEnd": false, "tieGroup": 0}]}, {"start": 2.0, "dur": 1.0, "rest": false, "notes": [{"pitch": 38, "vel": 95, "dur": 1.0, "tieStart": false, "tieEnd": false, "tieGroup": 0}, {"pitch": 42, "vel": 70, "dur": 1.0, "tieStart": false, "tieEnd": false, "tieGroup": 0}]}, {"start": 3.0, "dur": 1.0, "rest": false, "notes": [{"pitch": 42, "vel": 70, "dur": 1.0, "tieStart": false, "tieEnd": false, "tieGroup": 0}]}]}, {"ts_num": 4, "ts_den": 4, "key_fifths": 0, "key_mode": 0, "clef": 1, "tempo": 120, "velocity": 100, "lyrics": "", "expr": [], "segs": [{"start": 0.0, "dur": 1.0, "rest": false, "notes": [{"pitch": 36, "vel": 100, "dur": 1.0, "tieStart": false, "tieEnd": false, "tieGroup": 0}, {"pitch": 42, "vel": 70, "dur": 1.0, "tieStart": false, "tieEnd": false, "tieGroup": 0}]}, {"start": 1.0, "dur": 1.0, "rest": false, "notes": [{"pitch": 42, "vel": 70, "dur": 1.0, "tieStart": false, "tieEnd": false, "tieGroup": 0}]}, {"start": 2.0, "dur": 1.0, "rest": false, "notes": [{"pitch": 38, "vel": 95, "dur": 1.0, "tieStart": false, "tieEnd": false, "tieGroup": 0}, {"pitch": 42, "vel": 70, "dur": 1.0, "tieStart": false, "tieEnd": false, "tieGroup": 0}]}, {"start": 3.0, "dur": 1.0, "rest": false, "notes": [{"pitch": 42, "vel": 70, "dur": 1.0, "tieStart": false, "tieEnd": false, "tieGroup": 0}]}]}, {"ts_num": 4, "ts_den": 4, "key_fifths": 0, "key_mode": 0, "clef": 1, "tempo": 120, "velocity": 100, "lyrics": "", "expr": [], "segs": [{"start": 0.0, "dur": 4.0, "rest": true, "notes": []}]}]}], "output_filters": []}