{"format": "arkscore", "version": 2, "title": "Rhc", "measure_width_scale": 1.299999952316284, "tracks": [{"name": "Piano High", "instrument": {"name": "Bright Grand Piano", "bankMSB": 0, "bankLSB": 0, "program": 1, "channelHint": -1, "percussion": false, "volume": 112, "pan": 64, "transpose": 0}, "measures": [{"ts_num": 4, "ts_den": 4, "key_fifths": 0, "key_mode": 0, "clef": 0, "tempo": 120, "velocity": 100, "lyrics": "", "expr": [], "segs": [{"start": 0.0, "dur": 0.5, "rest": false, "notes": [{"pitch": 69, "vel": 100, "dur": 0.5, "tieStart": false, "tieEnd": false, "tieGroup": 0}, {"pitch": 71, "vel": 93, "dur": 0.5, "tieStart": false, "tieEnd": false, "tieGroup": 0}]}, {"start": 0.5, "dur": 0.5, "rest": true, "notes": []}, {"start": 1.0, "dur": 0.5, "rest": false, "notes": [{"pitch": 60, "vel": 97, "dur": 0.5, "tieStart": true, "tieEnd": false, "tieGroup": 232}]}, {"start": 1.5, "dur": 0.5, "rest": false, "notes": [{"pitch": 60, "vel": 97, "dur": 0.5, "tieStart": false, "tieEnd": true, "tieGroup": 232}, {"pitch": 69, "vel": 100, "dur": 0.5, "tieStart": false, "tieEnd": false, "tieGroup": 1}]}, {"start": 2.0, "dur": 0.5, "rest": false, "notes": [{"pitch": 64, "vel": 100, "dur": 0.5, "tieStart": false, "tieEnd": false, "tieGroup": 0}]}, {"start": 2.5, "dur": 0.5, "rest": false, "notes": [{"pitch": 64, "vel": 97, "dur": 0.5, "tieStart": false, "tieEnd": false, "tieGroup": 0}, {"pitch": 71, "vel": 93, "dur": 0.5, "tieStart": false, "tieEnd": false, "tieGroup": 0}]}, {"start": 3.0, "dur": 0.5, "rest": false, "notes": [{"pitch": 60, "vel": 93, "dur": 0.5, "tieStart": true, "tieEnd": false, "tieGroup": 234}]}, {"start": 3.5, "dur": 0.5, "rest": false, "notes": [{"pitch": 60, "vel": 93, "dur": 0.5, "tieStart": false, "tieEnd": true, "tieGroup": 234}, {"pitch": 67, "vel": 100, "dur": 0.5, "tieStart": false, "tieEnd": false, "tieGroup": 2}]}]}, {"ts_num": 4, "ts_den": 4, "key_fifths": 0, "key_mode": 0, "clef": 0, "tempo": 120, "velocity": 100, "lyrics": "", "expr": [], "segs": [{"start": 0.0, "dur": 1.0, "rest": false, "notes": [{"pitch": 64, "vel": 93, "dur": 1.0, "tieStart": true, "tieEnd": false, "tieGroup": 238}, {"pitch": 69, "vel": 97, "dur": 1.0, "tieStart": false, "tieEnd": false, "tieGroup": 0}]}, {"start": 1.0, "dur": 0.5, "rest": false, "notes": [{"pitch": 64, "vel": 93, "dur": 0.5, "tieStart": false, "tieEnd": true, "tieGroup": 238}, {"pitch": 71, "vel": 97, "dur": 0.5, "tieStart": true, "tieEnd": false, "tieGroup": 235}]}, {"start": 1.5, "dur": 0.5, "rest": false, "notes": [{"pitch": 64, "vel": 97, "dur": 0.5, "tieStart": true, "tieEnd": false, "tieGroup": 239}, {"pitch": 69, "vel": 97, "dur": 0.5, "tieStart": true, "tieEnd": false, "tieGroup": 240}, {"pitch": 71, "vel": 97, "dur": 0.5, "tieStart": false, "tieEnd": true, "tieGroup": 235}]}, {"start": 2.0, "dur": 0.5, "rest": false, "notes": [{"pitch": 64, "vel": 97, "dur": 0.5, "tieStart": false, "tieEnd": true, "tieGroup": 239}, {"pitch": 69, "vel": 97, "dur": 0.5, "tieStart": false, "tieEnd": true, "tieGroup": 240}]}, {"start": 2.5, "dur": 0.25, "rest": false, "notes": [{"pitch": 60, "vel": 93, "dur": 0.25, "tieStart": true, "tieEnd": false, "tieGroup": 242}, {"pitch": 64, "vel": 97, "dur": 0.25, "tieStart": true, "tieEnd": false, "tieGroup": 243}, {"pitch": 67, "vel": 97, "dur": 0.25, "tieStart": false, "tieEnd": false, "tieGroup": 0}, {"pitch": 69, "vel": 97, "dur": 0.25, "tieStart": true, "tieEnd": false, "tieGroup": 244}]}, {"start": 2.75, "dur": 0.25, "rest": false, "notes": [{"pitch": 60, "vel": 93, "dur": 0.25, "tieStart": false, "tieEnd": true, "tieGroup": 242}, {"pitch": 64, "vel": 97, "dur": 0.25, "tieStart": false, "tieEnd": true, "tieGroup": 243}, {"pitch": 69, "vel": 97, "dur": 0.25, "tieStart": false, "tieEnd": true, "tieGroup": 244}]}, {"start": 3.0, "dur": 1.0, "rest": false, "notes": [{"pitch": 60, "vel": 93, "dur": 1.0, "tieStart": false, "tieEnd": false, "tieGroup": 0}, {"pitch": 69, "vel": 97, "dur": 1.0, "tieStart": false, "tieEnd": false, "tieGroup": 241}]}]}, {"ts_num": 4, "ts_den": 4, "key_fifths": 0, "key_mode": 0, "clef": 0, "tempo": 120, "velocity": 100, "lyrics": "", "expr": [], "segs": [{"start": 0.0, "dur": 1.0, "rest": false, "notes": [{"pitch": 60, "vel": 93, "dur": 1.0, "tieStart": true, "tieEnd": false, "tieGroup": 247}, {"pitch": 64, "vel": 97, "dur": 1.0, "tieStart": true, "tieEnd": false, "tieGroup": 248}, {"pitch": 69, "vel": 97, "dur": 1.0, "tieStart": false, "tieEnd": false, "tieGroup": 0}]}, {"start": 1.0, "dur": 0.5, "rest": false, "notes": [{"pitch": 60, "vel": 93, "dur": 0.5, "tieStart": false, "tieEnd": true, "tieGroup": 247}, {"pitch": 64, "vel": 97, "dur": 0.5, "tieStart": false, "tieEnd": true, "tieGroup": 248}, {"pitch": 71, "vel": 97, "dur": 0.5, "tieStart": true, "tieEnd": false, "tieGroup": 245}]}, {"start": 1.5, "dur": 0.5, "rest": false, "notes": [{"pitch": 60, "vel": 97, "dur": 0.5, "tieStart": true, "tieEnd": false, "tieGroup": 250}, {"pitch": 69, "vel": 93, "dur": 0.5, "tieStart": true, "tieEnd": false, "tieGroup": 251}, {"pitch": 71, "vel": 97, "dur": 0.5, "tieStart": false, "tieEnd": true, "tieGroup": 245}]}, {"start": 2.0, "dur": 0.5, "rest": false, "notes": [{"pitch": 60, "vel": 97, "dur": 0.5, "tieStart": false, "tieEnd": true, "tieGroup": 250}, {"pitch": 69, "vel": 93, "dur": 0.5, "tieStart": false, "tieEnd": true, "tieGroup": 251}]}, {"start": 2.5, "dur": 0.25, "rest": false, "notes": [{"pitch": 60, "vel": 97, "dur": 0.25, "tieStart": true, "tieEnd": false, "tieGroup": 254}, {"pitch": 64, "vel": 97, "dur": 0.25, "tieStart": true, "tieEnd": false, "tieGroup": 255}, {"pitch": 67, "vel": 97, "dur": 0.25, "tieStart": false, "tieEnd": false, "tieGroup": 0}, {"pitch": 69, "vel": 93, "dur": 0.25, "tieStart": true, "tieEnd": false, "tieGroup": 256}]}, {"start": 2.75, "dur": 0.25, "rest": false, "notes": [{"pitch": 60, "vel": 97, "dur": 0.25, "tieStart": false, "tieEnd": true, "tieGroup": 254}, {"pitch": 64, "vel": 97, "dur": 0.25, "tieStart": false, "tieEnd": true, "tieGroup": 255}, {"pitch": 69, "vel": 93, "dur": 0.25, "tieStart": false, "tieEnd": true, "tieGroup": 256}]}, {"start": 3.0, "dur": 1.0, "rest": false, "notes": [{"pitch": 60, "vel": 97, "dur": 1.0, "tieStart": false, "tieEnd": false, "tieGroup": 0}, {"pitch": 64, "vel": 97, "dur": 1.0, "tieStart": false, "tieEnd": false, "tieGroup": 0}, {"pitch": 69, "vel": 97, "dur": 1.0, "tieStart": false, "tieEnd": false, "tieGroup": 252}]}]}, {"ts_num": 4, "ts_den": 4, "key_fifths": 0, "key_mode": 0, "clef": 0, "tempo": 120, "velocity": 100, "lyrics": "", "expr": [], "segs": [{"start": 0.0, "dur": 1.0, "rest": false, "notes": [{"pitch": 64, "vel": 97, "dur": 1.0, "tieStart": false, "tieEnd": false, "tieGroup": 0}, {"pitch": 67, "vel": 89, "dur": 1.0, "tieStart": false, "tieEnd": false, "tieGroup": 0}, {"pitch": 71, "vel": 85, "dur": 1.0, "tieStart": false, "tieEnd": false, "tieGroup": 0}]}, {"start": 1.0, "dur": 1.0, "rest": false, "notes": [{"pitch": 64, "vel": 89, "dur": 1.0, "tieStart": false, "tieEnd": false, "tieGroup": 0}, {"pitch": 66, "vel": 85, "dur": 1.0, "tieStart": false, "tieEnd": false, "tieGroup": 0}, {"pitch": 67, "vel": 81, "dur": 1.0, "tieStart": false, "tieEnd": false, "tieGroup": 0}, {"pitch": 71, "vel": 97, "dur": 1.0, "tieStart": false, "tieEnd": false, "tieGroup": 0}]}, {"start": 2.0, "dur": 0.75, "rest": false, "notes": [{"pitch": 64, "vel": 93, "dur": 0.75, "tieStart": true, "tieEnd": false, "tieGroup": 258}, {"pitch": 67, "vel": 89, "dur": 0.75, "tieStart": true, "tieEnd": false, "tieGroup": 259}, {"pitch": 71, "vel": 85, "dur": 0.75, "tieStart": true, "tieEnd": false, "tieGroup": 260}]}, {"start": 2.75, "dur": 0.25, "rest": false, "notes": [{"pitch": 64, "vel": 93, "dur": 0.25, "tieStart": false, "tieEnd": true, "tieGroup": 258}, {"pitch": 67, "vel": 89, "dur": 0.25, "tieStart": false, "tieEnd": true, "tieGroup": 259}, {"pitch": 69, "vel": 97, "dur": 0.25, "tieStart": false, "tieEnd": false, "tieGroup": 0}, {"pitch": 71, "vel": 85, "dur": 0.25, "tieStart": false, "tieEnd": true, "tieGroup": 260}]}, {"start": 3.0, "dur": 1.0, "rest": false, "notes": [{"pitch": 64, "vel": 97, "dur": 1.0, "tieStart": false, "tieEnd": false, "tieGroup": 0}, {"pitch": 67, "vel": 85, "dur": 1.0, "tieStart": false, "tieEnd": false, "tieGroup": 0}]}]}, {"ts_num": 4, "ts_den": 4, "key_fifths": 0, "key_mode": 0, "clef": 0, "tempo": 120, "velocity": 100, "lyrics": "", "expr": [], "segs": [{"start": 0.0, "dur": 1.0, "rest": false, "notes": [{"pitch": 69, "vel": 97, "dur": 1.0, "tieStart": false, "tieEnd": false, "tieGroup": 0}]}, {"start": 1.0, "dur": 1.0, "rest": false, "notes": [{"pitch": 64, "vel": 97, "dur": 1.0, "tieStart": false, "tieEnd": false, "tieGroup": 0}]}, {"start": 2.0, "dur": 0.75, "rest": false, "notes": [{"pitch": 64, "vel": 97, "dur": 0.75, "tieStart": false, "tieEnd": false, "tieGroup": 0}]}, {"start": 2.75, "dur": 0.25, "rest": false, "notes": [{"pitch": 69, "vel": 97, "dur": 0.25, "tieStart": false, "tieEnd": false, "tieGroup": 0}]}, {"start": 3.0, "dur": 0.25, "rest": false, "notes": [{"pitch": 71, "vel": 97, "dur": 0.25, "tieStart": false, "tieEnd": false, "tieGroup": 0}]}, {"start": 3.25, "dur": 0.75, "rest": false, "notes": [{"pitch": 69, "vel": 97, "dur": 0.75, "tieStart": false, "tieEnd": false, "tieGroup": 0}]}]}, {"ts_num": 4, "ts_den": 4, "key_fifths": 0, "key_mode": 0, "clef": 0, "tempo": 120, "velocity": 100, "lyrics": "", "expr": [], "segs": [{"start": 0.0, "dur": 1.0, "rest": false, "notes": [{"pitch": 69, "vel": 97, "dur": 1.0, "tieStart": false, "tieEnd": false, "tieGroup": 0}]}, {"start": 1.0, "dur": 1.0, "rest": false, "notes": [{"pitch": 60, "vel": 97, "dur": 1.0, "tieStart": false, "tieEnd": false, "tieGroup": 0}, {"pitch": 64, "vel": 97, "dur": 1.0, "tieStart": false, "tieEnd": false, "tieGroup": 0}, {"pitch": 69, "vel": 97, "dur": 1.0, "tieStart": false, "tieEnd": false, "tieGroup": 0}]}, {"start": 2.0, "dur": 0.75, "rest": false, "notes": [{"pitch": 60, "vel": 97, "dur": 0.75, "tieStart": true, "tieEnd": false, "tieGroup": 264}, {"pitch": 64, "vel": 93, "dur": 0.75, "tieStart": true, "tieEnd": false, "tieGroup": 265}]}, {"start": 2.75, "dur": 0.25, "rest": false, "notes": [{"pitch": 60, "vel": 97, "dur": 0.25, "tieStart": false, "tieEnd": true, "tieGroup": 264}, {"pitch": 64, "vel": 93, "dur": 0.25, "tieStart": false, "tieEnd": true, "tieGroup": 265}, {"pitch": 69, "vel": 97, "dur": 0.25, "tieStart": false, "tieEnd": false, "tieGroup": 0}]}, {"start": 3.0, "dur": 0.25, "rest": false, "notes": [{"pitch": 64, "vel": 93, "dur": 0.25, "tieStart": true, "tieEnd": false, "tieGroup": 267}, {"pitch": 71, "vel": 97, "dur": 0.25, "tieStart": false, "tieEnd": false, "tieGroup": 0}]}, {"start": 3.25, "dur": 0.75, "rest": false, "notes": [{"pitch": 64, "vel": 93, "dur": 0.75, "tieStart": false, "tieEnd": true, "tieGroup": 267}, {"pitch": 69, "vel": 97, "dur": 0.75, "tieStart": false, "tieEnd": false, "tieGroup": 0}]}]}, {"ts_num": 4, "ts_den": 4, "key_fifths": 0, "key_mode": 0, "clef": 0, "tempo": 120, "velocity": 100, "lyrics": "", "expr": [], "segs": [{"start": 0.0, "dur": 1.0, "rest": false, "notes": [{"pitch": 64, "vel": 97, "dur": 1.0, "tieStart": false, "tieEnd": false, "tieGroup": 0}, {"pitch": 69, "vel": 97, "dur": 1.0, "tieStart": false, "tieEnd": false, "tieGroup": 0}]}, {"start": 1.0, "dur": 0.5, "rest": false, "notes": [{"pitch": 71, "vel": 97, "dur": 0.5, "tieStart": true, "tieEnd": false, "tieGroup": 269}]}, {"start": 1.5, "dur": 0.5, "rest": false, "notes": [{"pitch": 71, "vel": 97, "dur": 0.5, "tieStart": false, "tieEnd": true, "tieGroup": 269}]}, {"start": 2.0, "dur": 1.0, "rest": false, "notes": [{"pitch": 64, "vel": 93, "dur": 1.0, "tieStart": false, "tieEnd": false, "tieGroup": 0}, {"pitch": 69, "vel": 97, "dur": 1.0, "tieStart": false, "tieEnd": false, "tieGroup": 0}]}, {"start": 3.0, "dur": 1.0, "rest": false, "notes": [{"pitch": 60, "vel": 97, "dur": 1.0, "tieStart": false, "tieEnd": false, "tieGroup": 0}, {"pitch": 72, "vel": 97, "dur": 1.0, "tieStart": false, "tieEnd": false, "tieGroup": 0}]}]}, {"ts_num": 4, "ts_den": 4, "key_fifths": 0, "key_mode": 0, "clef": 0, "tempo": 120, "velocity": 100, "lyrics": "", "expr": [], "segs": [{"start": 0.0, "dur": 1.0, "rest": false, "notes": [{"pitch": 60, "vel": 85, "dur": 1.0, "tieStart": false, "tieEnd": false, "tieGroup": 0}, {"pitch": 72, "vel": 97, "dur": 1.0, "tieStart": false, "tieEnd": false, "tieGroup": 0}]}, {"start": 1.0, "dur": 1.0, "rest": false, "notes": [{"pitch": 60, "vel": 93, "dur": 1.0, "tieStart": false, "tieEnd": false, "tieGroup": 0}, {"pitch": 64, "vel": 89, "dur": 1.0, "tieStart": false, "tieEnd": false, "tieGroup": 0}, {"pitch": 67, "vel": 97, "dur": 1.0, "tieStart": false, "tieEnd": false, "tieGroup": 0}]}, {"start": 2.0, "dur": 1.0, "rest": false, "notes": [{"pitch": 64, "vel": 93, "dur": 1.0, "tieStart": false, "tieEnd": false, "tieGroup": 0}, {"pitch": 67, "vel": 89, "dur": 1.0, "tieStart": false, "tieEnd": false, "tieGroup": 0}, {"pitch": 72, "vel": 97, "dur": 1.0, "tieStart": false, "tieEnd": false, "tieGroup": 0}]}, {"start": 3.0, "dur": 0.5, "rest": false, "notes": [{"pitch": 62, "vel": 93, "dur": 0.5, "tieStart": true, "tieEnd": false, "tieGroup": 271}, {"pitch": 64, "vel": 89, "dur": 0.5, "tieStart": true, "tieEnd": false, "tieGroup": 272}, {"pitch": 67, "vel": 85, "dur": 0.5, "tieStart": true, "tieEnd": false, "tieGroup": 273}, {"pitch": 71, "vel": 97, "dur": 0.5, "tieStart": false, "tieEnd": false, "tieGroup": 0}, {"pitch": 72, "vel": 81, "dur": 0.5, "tieStart": true, "tieEnd": false, "tieGroup": 274}]}, {"start": 3.5, "dur": 0.5, "rest": false, "notes": [{"pitch": 62, "vel": 93, "dur": 0.5, "tieStart": false, "tieEnd": true, "tieGroup": 271}, {"pitch": 64, "vel": 89, "dur": 0.5, "tieStart": false, "tieEnd": true, "tieGroup": 272}, {"pitch": 67, "vel": 85, "dur": 0.5, "tieStart": false, "tieEnd": true, "tieGroup": 273}, {"pitch": 72, "vel": 81, "dur": 0.5, "tieStart": false, "tieEnd": true, "tieGroup": 274}]}]}, {"ts_num": 4, "ts_den": 4, "key_fifths": 0, "key_mode": 0, "clef": 0, "tempo": 120, "velocity": 100, "lyrics": "", "expr": [], "segs": [{"start": 0.0, "dur": 0.5, "rest": false, "notes": [{"pitch": 69, "vel": 97, "dur": 0.5, "tieStart": true, "tieEnd": false, "tieGroup": 275}]}, {"start": 0.5, "dur": 0.5, "rest": false, "notes": [{"pitch": 69, "vel": 97, "dur": 0.5, "tieStart": false, "tieEnd": true, "tieGroup": 275}]}, {"start": 1.0, "dur": 0.5, "rest": false, "notes": [{"pitch": 69, "vel": 93, "dur": 0.5, "tieStart": true, "tieEnd": false, "tieGroup": 277}]}, {"start": 1.5, "dur": 0.5, "rest": false, "notes": [{"pitch": 69, "vel": 93, "dur": 0.5, "tieStart": false, "tieEnd": true, "tieGroup": 277}, {"pitch": 72, "vel": 97, "dur": 0.5, "tieStart": false, "tieEnd": false, "tieGroup": 3}]}, {"start": 2.0, "dur": 0.5, "rest": false, "notes": [{"pitch": 60, "vel": 97, "dur": 0.5, "tieStart": false, "tieEnd": false, "tieGroup": 0}, {"pitch": 69, "vel": 97, "dur": 0.5, "tieStart": false, "tieEnd": false, "tieGroup": 0}, {"pitch": 72, "vel": 97, "dur": 0.5, "tieStart": true, "tieEnd": false, "tieGroup": 278}]}, {"start": 2.5, "dur": 0.5, "rest": false, "notes": [{"pitch": 72, "vel": 97, "dur": 0.5, "tieStart": false, "tieEnd": true, "tieGroup": 278}]}, {"start": 3.0, "dur": 1.0, "rest": false, "notes": [{"pitch": 64, "vel": 97, "dur": 1.0, "tieStart": false, "tieEnd": false, "tieGroup": 0}, {"pitch": 67, "vel": 97, "dur": 1.0, "tieStart": false, "tieEnd": false, "tieGroup": 0}]}]}, {"ts_num": 4, "ts_den": 4, "key_fifths": 0, "key_mode": 0, "clef": 0, "tempo": 120, "velocity": 100, "lyrics": "", "expr": [], "segs": [{"start": 0.0, "dur": 0.5, "rest": false, "notes": [{"pitch": 67, "vel": 97, "dur": 0.5, "tieStart": true, "tieEnd": false, "tieGroup": 279}]}, {"start": 0.5, "dur": 0.5, "rest": false, "notes": [{"pitch": 67, "vel": 97, "dur": 0.5, "tieStart": false, "tieEnd": true, "tieGroup": 279}]}, {"start": 1.0, "dur": 1.0, "rest": false, "notes": [{"pitch": 62, "vel": 97, "dur": 1.0, "tieStart": false, "tieEnd": false, "tieGroup": 0}]}, {"start": 2.0, "dur": 0.5, "rest": false, "notes": [{"pitch": 65, "vel": 97, "dur": 0.5, "tieStart": true, "tieEnd": false, "tieGroup": 280}]}, {"start": 2.5, "dur": 0.5, "rest": false, "notes": [{"pitch": 65, "vel": 97, "dur": 0.5, "tieStart": false, "tieEnd": true, "tieGroup": 280}]}, {"start": 3.0, "dur": 1.0, "rest": false, "notes": [{"pitch": 62, "vel": 97, "dur": 1.0, "tieStart": false, "tieEnd": false, "tieGroup": 0}]}]}, {"ts_num": 4, "ts_den": 4, "key_fifths": 0, "key_mode": 0, "clef": 0, "tempo": 120, "velocity": 100, "lyrics": "", "expr": [], "segs": [{"start": 0.0, "dur": 0.5, "rest": false, "notes": [{"pitch": 62, "vel": 97, "dur": 0.5, "tieStart": false, "tieEnd": false, "tieGroup": 0}]}, {"start": 0.5, "dur": 0.5, "rest": true, "notes": []}, {"start": 1.0, "dur": 1.0, "rest": false, "notes": [{"pitch": 65, "vel": 97, "dur": 1.0, "tieStart": false, "tieEnd": false, "tieGroup": 4}]}, {"start": 2.0, "dur": 0.5, "rest": false, "notes": [{"pitch": 67, "vel": 97, "dur": 0.5, "tieStart": false, "tieEnd": false, "tieGroup": 0}]}, {"start": 2.5, "dur": 0.5, "rest": true, "notes": []}, {"start": 3.0, "dur": 1.0, "rest": false, "notes": [{"pitch": 62, "vel": 93, "dur": 1.0, "tieStart": false, "tieEnd": false, "tieGroup": 483}, {"pitch": 64, "vel": 97, "dur": 1.0, "tieStart": false, "tieEnd": false, "tieGroup": 5}]}]}, {"ts_num": 4, "ts_den": 4, "key_fifths": 0, "key_mode": 0, "clef": 0, "tempo": 120, "velocity": 100, "lyrics": "", "expr": [], "segs": [{"start": 0.0, "dur": 1.0, "rest": false, "notes": [{"pitch": 60, "vel": 93, "dur": 1.0, "tieStart": false, "tieEnd": false, "tieGroup": 0}, {"pitch": 64, "vel": 89, "dur": 1.0, "tieStart": false, "tieEnd": false, "tieGroup": 0}, {"pitch": 69, "vel": 97, "dur": 1.0, "tieStart": false, "tieEnd": false, "tieGroup": 0}]}, {"start": 1.0, "dur": 1.0, "rest": false, "notes": [{"pitch": 60, "vel": 89, "dur": 1.0, "tieStart": false, "tieEnd": false, "tieGroup": 0}, {"pitch": 64, "vel": 85, "dur": 1.0, "tieStart": false, "tieEnd": false, "tieGroup": 0}, {"pitch": 72, "vel": 97, "dur": 1.0, "tieStart": false, "tieEnd": false, "tieGroup": 0}]}, {"start": 2.0, "dur": 1.0, "rest": false, "notes": [{"pitch": 60, "vel": 89, "dur": 1.0, "tieStart": false, "tieEnd": false, "tieGroup": 0}, {"pitch": 64, "vel": 85, "dur": 1.0, "tieStart": false, "tieEnd": false, "tieGroup": 0}, {"pitch": 71, "vel": 81, "dur": 1.0, "tieStart": false, "tieEnd": false, "tieGroup": 0}, {"pitch": 76, "vel": 97, "dur": 1.0, "tieStart": false, "tieEnd": false, "tieGroup": 0}]}, {"start": 3.0, "dur": 0.25, "rest": false, "notes": [{"pitch": 60, "vel": 89, "dur": 0.25, "tieStart": true, "tieEnd": false, "tieGroup": 283}, {"pitch": 64, "vel": 85, "dur": 0.25, "tieStart": true, "tieEnd": false, "tieGroup": 284}, {"pitch": 69, "vel": 97, "dur": 0.25, "tieStart": false, "tieEnd": false, "tieGroup": 0}]}, {"start": 3.25, "dur": 0.75, "rest": false, "notes": [{"pitch": 60, "vel": 89, "dur": 0.75, "tieStart": false, "tieEnd": true, "tieGroup": 283}, {"pitch": 64, "vel": 85, "dur": 0.75, "tieStart": false, "tieEnd": true, "tieGroup": 284}, {"pitch": 72, "vel": 97, "dur": 0.75, "tieStart": false, "tieEnd": false, "tieGroup": 0}]}]}, {"ts_num": 4, "ts_den": 4, "key_fifths": 0, "key_mode": 0, "clef": 0, "tempo": 120, "velocity": 100, "lyrics": "", "expr": [], "segs": [{"start": 0.0, "dur": 0.5, "rest": false, "notes": [{"pitch": 60, "vel": 93, "dur": 0.5, "tieStart": true, "tieEnd": false, "tieGroup": 286}]}, {"start": 0.5, "dur": 0.5, "rest": false, "notes": [{"pitch": 60, "vel": 93, "dur": 0.5, "tieStart": false, "tieEnd": true, "tieGroup": 286}, {"pitch": 69, "vel": 97, "dur": 0.5, "tieStart": false, "tieEnd": false, "tieGroup": 6}]}, {"start": 1.0, "dur": 0.5, "rest": false, "notes": [{"pitch": 60, "vel": 97, "dur": 0.5, "tieStart": false, "tieEnd": false, "tieGroup": 0}, {"pitch": 67, "vel": 97, "dur": 0.5, "tieStart": true, "tieEnd": false, "tieGroup": 287}]}, {"start": 1.5, "dur": 0.5, "rest": false, "notes": [{"pitch": 64, "vel": 97, "dur": 0.5, "tieStart": false, "tieEnd": false, "tieGroup": 0}, {"pitch": 67, "vel": 97, "dur": 0.5, "tieStart": false, "tieEnd": true, "tieGroup": 287}]}, {"start": 2.0, "dur": 0.5, "rest": false, "notes": [{"pitch": 64, "vel": 93, "dur": 0.5, "tieStart": false, "tieEnd": false, "tieGroup": 0}, {"pitch": 69, "vel": 97, "dur": 0.5, "tieStart": true, "tieEnd": false, "tieGroup": 288}]}, {"start": 2.5, "dur": 1.0, "rest": false, "notes": [{"pitch": 60, "vel": 97, "dur": 1.0, "tieStart": false, "tieEnd": false, "tieGroup": 0}, {"pitch": 69, "vel": 97, "dur": 1.0, "tieStart": true, "tieEnd": true, "tieGroup": 288}]}, {"start": 3.5, "dur": 0.5, "rest": false, "notes": [{"pitch": 64, "vel": 97, "dur": 0.5, "tieStart": false, "tieEnd": false, "tieGroup": 0}, {"pitch": 69, "vel": 97, "dur": 0.5, "tieStart": false, "tieEnd": true, "tieGroup": 288}]}]}, {"ts_num": 4, "ts_den": 4, "key_fifths": 0, "key_mode": 0, "clef": 0, "tempo": 120, "velocity": 100, "lyrics": "", "expr": [], "segs": [{"start": 0.0, "dur": 0.5, "rest": false, "notes": [{"pitch": 72, "vel": 97, "dur": 0.5, "tieStart": false, "tieEnd": false, "tieGroup": 0}]}, {"start": 0.5, "dur": 0.5, "rest": true, "notes": []}, {"start": 1.0, "dur": 0.5, "rest": false, "notes": [{"pitch": 60, "vel": 97, "dur": 0.5, "tieStart": false, "tieEnd": false, "tieGroup": 486}, {"pitch": 69, "vel": 97, "dur": 0.5, "tieStart": false, "tieEnd": false, "tieGroup": 7}]}, {"start": 1.5, "dur": 0.5, "rest": true, "notes": []}, {"start": 2.0, "dur": 0.5, "rest": false, "notes": [{"pitch": 64, "vel": 97, "dur": 0.5, "tieStart": true, "tieEnd": false, "tieGroup": 289}, {"pitch": 74, "vel": 97, "dur": 0.5, "tieStart": false, "tieEnd": false, "tieGroup": 8}]}, {"start": 2.5, "dur": 0.5, "rest": false, "notes": [{"pitch": 64, "vel": 97, "dur": 0.5, "tieStart": false, "tieEnd": true, "tieGroup": 289}, {"pitch": 69, "vel": 97, "dur": 0.5, "tieStart": false, "tieEnd": false, "tieGroup": 0}]}, {"start": 3.0, "dur": 0.5, "rest": true, "notes": []}, {"start": 3.5, "dur": 0.5, "rest": false, "notes": [{"pitch": 60, "vel": 93, "dur": 0.5, "tieStart": false, "tieEnd": false, "tieGroup": 488}, {"pitch": 67, "vel": 97, "dur": 0.5, "tieStart": false, "tieEnd": false, "tieGroup": 9}]}]}, {"ts_num": 4, "ts_den": 4, "key_fifths": 0, "key_mode": 0, "clef": 0, "tempo": 120, "velocity": 100, "lyrics": "", "expr": [], "segs": [{"start": 0.0, "dur": 1.0, "rest": false, "notes": [{"pitch": 72, "vel": 97, "dur": 1.0, "tieStart": false, "tieEnd": false, "tieGroup": 0}]}, {"start": 1.0, "dur": 0.5, "rest": false, "notes": [{"pitch": 69, "vel": 97, "dur": 0.5, "tieStart": true, "tieEnd": false, "tieGroup": 290}]}, {"start": 1.5, "dur": 0.5, "rest": false, "notes": [{"pitch": 69, "vel": 97, "dur": 0.5, "tieStart": false, "tieEnd": true, "tieGroup": 290}]}, {"start": 2.0, "dur": 0.5, "rest": false, "notes": [{"pitch": 64, "vel": 97, "dur": 0.5, "tieStart": false, "tieEnd": false, "tieGroup": 0}, {"pitch": 74, "vel": 97, "dur": 0.5, "tieStart": true, "tieEnd": false, "tieGroup": 291}]}, {"start": 2.5, "dur": 0.5, "rest": false, "notes": [{"pitch": 74, "vel": 97, "dur": 0.5, "tieStart": false, "tieEnd": true, "tieGroup": 291}]}, {"start": 3.0, "dur": 0.5, "rest": false, "notes": [{"pitch": 69, "vel": 97, "dur": 0.5, "tieStart": true, "tieEnd": false, "tieGroup": 292}]}, {"start": 3.5, "dur": 0.5, "rest": false, "notes": [{"pitch": 60, "vel": 93, "dur": 0.5, "tieStart": false, "tieEnd": false, "tieGroup": 0}, {"pitch": 69, "vel": 97, "dur": 0.5, "tieStart": false, "tieEnd": true, "tieGroup": 292}]}]}, {"ts_num": 4, "ts_den": 4, "key_fifths": 0, "key_mode": 0, "clef": 0, "tempo": 120, "velocity": 100, "lyrics": "", "expr": [], "segs": [{"start": 0.0, "dur": 1.0, "rest": false, "notes": [{"pitch": 60, "vel": 93, "dur": 1.0, "tieStart": false, "tieEnd": false, "tieGroup": 0}, {"pitch": 64, "vel": 97, "dur": 1.0, "tieStart": false, "tieEnd": false, "tieGroup": 0}, {"pitch": 69, "vel": 85, "dur": 1.0, "tieStart": false, "tieEnd": false, "tieGroup": 0}]}, {"start": 1.0, "dur": 1.0, "rest": false, "notes": [{"pitch": 60, "vel": 93, "dur": 1.0, "tieStart": false, "tieEnd": false, "tieGroup": 0}, {"pitch": 64, "vel": 89, "dur": 1.0, "tieStart": false, "tieEnd": false, "tieGroup": 0}, {"pitch": 67, "vel": 97, "dur": 1.0, "tieStart": false, "tieEnd": false, "tieGroup": 0}, {"pitch": 69, "vel": 85, "dur": 1.0, "tieStart": false, "tieEnd": false, "tieGroup": 0}]}, {"start": 2.0, "dur": 1.0, "rest": false, "notes": [{"pitch": 60, "vel": 93, "dur": 1.0, "tieStart": false, "tieEnd": false, "tieGroup": 0}, {"pitch": 64, "vel": 89, "dur": 1.0, "tieStart": false, "tieEnd": false, "tieGroup": 0}, {"pitch": 69, "vel": 97, "dur": 1.0, "tieStart": false, "tieEnd": false, "tieGroup": 0}]}, {"start": 3.0, "dur": 0.25, "rest": false, "notes": [{"pitch": 60, "vel": 85, "dur": 0.25, "tieStart": true, "tieEnd": false, "tieGroup": 297}, {"pitch": 64, "vel": 81, "dur": 0.25, "tieStart": true, "tieEnd": false, "tieGroup": 298}, {"pitch": 67, "vel": 97, "dur": 0.25, "tieStart": false, "tieEnd": false, "tieGroup": 0}]}, {"start": 3.25, "dur": 0.75, "rest": false, "notes": [{"pitch": 60, "vel": 85, "dur": 0.75, "tieStart": false, "tieEnd": true, "tieGroup": 297}, {"pitch": 64, "vel": 81, "dur": 0.75, "tieStart": false, "tieEnd": true, "tieGroup": 298}, {"pitch": 69, "vel": 97, "dur": 0.75, "tieStart": false, "tieEnd": false, "tieGroup": 0}]}]}, {"ts_num": 4, "ts_den": 4, "key_fifths": 0, "key_mode": 0, "clef": 0, "tempo": 120, "velocity": 100, "lyrics": "", "expr": [], "segs": [{"start": 0.0, "dur": 0.5, "rest": false, "notes": [{"pitch": 64, "vel": 97, "dur": 0.5, "tieStart": true, "tieEnd": false, "tieGroup": 299}]}, {"start": 0.5, "dur": 0.5, "rest": false, "notes": [{"pitch": 64, "vel": 97, "dur": 0.5, "tieStart": false, "tieEnd": true, "tieGroup": 299}]}, {"start": 1.0, "dur": 0.5, "rest": false, "notes": [{"pitch": 71, "vel": 97, "dur": 0.5, "tieStart": true, "tieEnd": false, "tieGroup": 300}]}, {"start": 1.5, "dur": 0.5, "rest": false, "notes": [{"pitch": 64, "vel": 93, "dur": 0.5, "tieStart": false, "tieEnd": false, "tieGroup": 0}, {"pitch": 71, "vel": 97, "dur": 0.5, "tieStart": false, "tieEnd": true, "tieGroup": 300}]}, {"start": 2.0, "dur": 1.0, "rest": false, "notes": [{"pitch": 69, "vel": 97, "dur": 1.0, "tieStart": false, "tieEnd": false, "tieGroup": 0}]}, {"start": 3.0, "dur": 0.25, "rest": false, "notes": [{"pitch": 60, "vel": 97, "dur": 0.25, "tieStart": true, "tieEnd": false, "tieGroup": 302}, {"pitch": 71, "vel": 97, "dur": 0.25, "tieStart": false, "tieEnd": false, "tieGroup": 0}]}, {"start": 3.25, "dur": 0.25, "rest": false, "notes": [{"pitch": 60, "vel": 97, "dur": 0.25, "tieStart": false, "tieEnd": true, "tieGroup": 302}, {"pitch": 72, "vel": 97, "dur": 0.25, "tieStart": true, "tieEnd": false, "tieGroup": 301}]}, {"start": 3.5, "dur": 0.5, "rest": false, "notes": [{"pitch": 72, "vel": 97, "dur": 0.5, "tieStart": false, "tieEnd": true, "tieGroup": 301}]}]}, {"ts_num": 4, "ts_den": 4, "key_fifths": 0, "key_mode": 0, "clef": 0, "tempo": 120, "velocity": 100, "lyrics": "", "expr": [], "segs": [{"start": 0.0, "dur": 0.5, "rest": false, "notes": [{"pitch": 65, "vel": 93, "dur": 0.5, "tieStart": false, "tieEnd": false, "tieGroup": 0}, {"pitch": 69, "vel": 97, "dur": 0.5, "tieStart": true, "tieEnd": false, "tieGroup": 303}]}, {"start": 0.5, "dur": 0.5, "rest": false, "notes": [{"pitch": 65, "vel": 97, "dur": 0.5, "tieStart": false, "tieEnd": false, "tieGroup": 0}, {"pitch": 69, "vel": 97, "dur": 0.5, "tieStart": false, "tieEnd": true, "tieGroup": 303}]}, {"start": 1.0, "dur": 0.5, "rest": false, "notes": [{"pitch": 62, "vel": 97, "dur": 0.5, "tieStart": false, "tieEnd": false, "tieGroup": 0}, {"pitch": 71, "vel": 97, "dur": 0.5, "tieStart": true, "tieEnd": false, "tieGroup": 304}]}, {"start": 1.5, "dur": 0.5, "rest": false, "notes": [{"pitch": 62, "vel": 105, "dur": 0.5, "tieStart": false, "tieEnd": false, "tieGroup": 0}, {"pitch": 71, "vel": 97, "dur": 0.5, "tieStart": true, "tieEnd": true, "tieGroup": 304}, {"pitch": 74, "vel": 101, "dur": 0.5, "tieStart": false, "tieEnd": false, "tieGroup": 0}]}, {"start": 2.0, "dur": 1.0, "rest": false, "notes": [{"pitch": 65, "vel": 97, "dur": 1.0, "tieStart": false, "tieEnd": false, "tieGroup": 0}, {"pitch": 71, "vel": 97, "dur": 1.0, "tieStart": false, "tieEnd": true, "tieGroup": 304}]}, {"start": 3.0, "dur": 0.25, "rest": false, "notes": [{"pitch": 69, "vel": 97, "dur": 0.25, "tieStart": true, "tieEnd": false, "tieGroup": 306}, {"pitch": 74, "vel": 97, "dur": 0.25, "tieStart": false, "tieEnd": false, "tieGroup": 0}]}, {"start": 3.25, "dur": 0.25, "rest": false, "notes": [{"pitch": 69, "vel": 97, "dur": 0.25, "tieStart": false, "tieEnd": true, "tieGroup": 306}, {"pitch": 74, "vel": 97, "dur": 0.25, "tieStart": true, "tieEnd": false, "tieGroup": 305}]}, {"start": 3.5, "dur": 0.5, "rest": false, "notes": [{"pitch": 65, "vel": 97, "dur": 0.5, "tieStart": false, "tieEnd": false, "tieGroup": 0}, {"pitch": 74, "vel": 97, "dur": 0.5, "tieStart": false, "tieEnd": true, "tieGroup": 305}]}]}, {"ts_num": 4, "ts_den": 4, "key_fifths": 0, "key_mode": 0, "clef": 0, "tempo": 120, "velocity": 100, "lyrics": "", "expr": [], "segs": [{"start": 0.0, "dur": 1.0, "rest": false, "notes": [{"pitch": 65, "vel": 93, "dur": 1.0, "tieStart": false, "tieEnd": false, "tieGroup": 0}, {"pitch": 69, "vel": 97, "dur": 1.0, "tieStart": true, "tieEnd": false, "tieGroup": 307}]}, {"start": 1.0, "dur": 0.5, "rest": false, "notes": [{"pitch": 65, "vel": 97, "dur": 0.5, "tieStart": false, "tieEnd": false, "tieGroup": 0}, {"pitch": 69, "vel": 97, "dur": 0.5, "tieStart": true, "tieEnd": true, "tieGroup": 307}]}, {"start": 1.5, "dur": 0.5, "rest": false, "notes": [{"pitch": 69, "vel": 97, "dur": 0.5, "tieStart": false, "tieEnd": true, "tieGroup": 307}]}, {"start": 2.0, "dur": 0.5, "rest": false, "notes": [{"pitch": 62, "vel": 97, "dur": 0.5, "tieStart": false, "tieEnd": false, "tieGroup": 0}, {"pitch": 69, "vel": 97, "dur": 0.5, "tieStart": false, "tieEnd": false, "tieGroup": 0}, {"pitch": 74, "vel": 93, "dur": 0.5, "tieStart": false, "tieEnd": false, "tieGroup": 0}]}, {"start": 2.5, "dur": 1.0, "rest": false, "notes": [{"pitch": 65, "vel": 97, "dur": 1.0, "tieStart": false, "tieEnd": false, "tieGroup": 0}, {"pitch": 74, "vel": 97, "dur": 1.0, "tieStart": true, "tieEnd": false, "tieGroup": 308}]}, {"start": 3.5, "dur": 0.25, "rest": false, "notes": [{"pitch": 69, "vel": 97, "dur": 0.25, "tieStart": true, "tieEnd": false, "tieGroup": 309}, {"pitch": 74, "vel": 97, "dur": 0.25, "tieStart": false, "tieEnd": true, "tieGroup": 308}]}, {"start": 3.75, "dur": 0.25, "rest": false, "notes": [{"pitch": 69, "vel": 97, "dur": 0.25, "tieStart": false, "tieEnd": true, "tieGroup": 309}]}]}, {"ts_num": 4, "ts_den": 4, "key_fifths": 0, "key_mode": 0, "clef": 0, "tempo": 120, "velocity": 100, "lyrics": "", "expr": [], "segs": [{"start": 0.0, "dur": 1.0, "rest": false, "notes": [{"pitch": 72, "vel": 97, "dur": 1.0, "tieStart": false, "tieEnd": false, "tieGroup": 0}]}, {"start": 1.0, "dur": 1.0, "rest": false, "notes": [{"pitch": 71, "vel": 97, "dur": 1.0, "tieStart": false, "tieEnd": false, "tieGroup": 0}]}, {"start": 2.0, "dur": 1.0, "rest": false, "notes": [{"pitch": 72, "vel": 97, "dur": 1.0, "tieStart": false, "tieEnd": false, "tieGroup": 0}]}, {"start": 3.0, "dur": 0.5, "rest": false, "notes": [{"pitch": 71, "vel": 97, "dur": 0.5, "tieStart": false, "tieEnd": false, "tieGroup": 0}]}, {"start": 3.5, "dur": 0.5, "rest": false, "notes": [{"pitch": 64, "vel": 97, "dur": 0.5, "tieStart": false, "tieEnd": false, "tieGroup": 0}]}]}, {"ts_num": 4, "ts_den": 4, "key_fifths": 0, "key_mode": 0, "clef": 0, "tempo": 120, "velocity": 100, "lyrics": "", "expr": [], "segs": [{"start": 0.0, "dur": 0.5, "rest": true, "notes": []}, {"start": 0.5, "dur": 0.5, "rest": false, "notes": [{"pitch": 71, "vel": 97, "dur": 0.5, "tieStart": false, "tieEnd": false, "tieGroup": 10}]}, {"start": 1.0, "dur": 0.5, "rest": false, "notes": [{"pitch": 64, "vel": 97, "dur": 0.5, "tieStart": false, "tieEnd": false, "tieGroup": 0}]}, {"start": 1.5, "dur": 0.5, "rest": false, "notes": [{"pitch": 64, "vel": 97, "dur": 0.5, "tieStart": false, "tieEnd": false, "tieGroup": 315}]}, {"start": 2.0, "dur": 0.5, "rest": false, "notes": [{"pitch": 64, "vel": 97, "dur": 0.5, "tieStart": false, "tieEnd": false, "tieGroup": 0}, {"pitch": 71, "vel": 97, "dur": 0.5, "tieStart": true, "tieEnd": false, "tieGroup": 316}]}, {"start": 2.5, "dur": 0.5, "rest": false, "notes": [{"pitch": 71, "vel": 97, "dur": 0.5, "tieStart": false, "tieEnd": true, "tieGroup": 316}]}, {"start": 3.0, "dur": 0.5, "rest": false, "notes": [{"pitch": 69, "vel": 97, "dur": 0.5, "tieStart": true, "tieEnd": false, "tieGroup": 317}]}, {"start": 3.5, "dur": 0.5, "rest": false, "notes": [{"pitch": 67, "vel": 97, "dur": 0.5, "tieStart": false, "tieEnd": false, "tieGroup": 0}, {"pitch": 69, "vel": 97, "dur": 0.5, "tieStart": false, "tieEnd": true, "tieGroup": 317}]}]}, {"ts_num": 4, "ts_den": 4, "key_fifths": 0, "key_mode": 0, "clef": 0, "tempo": 120, "velocity": 100, "lyrics": "", "expr": [], "segs": [{"start": 0.0, "dur": 1.0, "rest": false, "notes": [{"pitch": 62, "vel": 100, "dur": 1.0, "tieStart": false, "tieEnd": false, "tieGroup": 319}]}, {"start": 1.0, "dur": 0.5, "rest": false, "notes": [{"pitch": 62, "vel": 97, "dur": 0.5, "tieStart": false, "tieEnd": false, "tieGroup": 0}, {"pitch": 64, "vel": 93, "dur": 0.5, "tieStart": false, "tieEnd": false, "tieGroup": 0}]}, {"start": 1.5, "dur": 0.5, "rest": false, "notes": [{"pitch": 62, "vel": 100, "dur": 0.5, "tieStart": false, "tieEnd": false, "tieGroup": 319}]}, {"start": 2.0, "dur": 0.5, "rest": false, "notes": [{"pitch": 65, "vel": 97, "dur": 0.5, "tieStart": false, "tieEnd": false, "tieGroup": 0}, {"pitch": 69, "vel": 100, "dur": 0.5, "tieStart": true, "tieEnd": false, "tieGroup": 320}]}, {"start": 2.5, "dur": 0.5, "rest": false, "notes": [{"pitch": 69, "vel": 100, "dur": 0.5, "tieStart": false, "tieEnd": true, "tieGroup": 320}]}, {"start": 3.0, "dur": 0.5, "rest": false, "notes": [{"pitch": 71, "vel": 100, "dur": 0.5, "tieStart": false, "tieEnd": false, "tieGroup": 0}]}, {"start": 3.5, "dur": 0.5, "rest": false, "notes": [{"pitch": 64, "vel": 97, "dur": 0.5, "tieStart": false, "tieEnd": false, "tieGroup": 0}, {"pitch": 74, "vel": 100, "dur": 0.5, "tieStart": false, "tieEnd": false, "tieGroup": 0}]}]}, {"ts_num": 4, "ts_den": 4, "key_fifths": 0, "key_mode": 0, "clef": 0, "tempo": 120, "velocity": 100, "lyrics": "", "expr": [], "segs": [{"start": 0.0, "dur": 0.5, "rest": false, "notes": [{"pitch": 64, "vel": 37, "dur": 0.5, "tieStart": true, "tieEnd": false, "tieGroup": 323}]}, {"start": 0.5, "dur": 0.5, "rest": false, "notes": [{"pitch": 60, "vel": 97, "dur": 0.5, "tieStart": true, "tieEnd": false, "tieGroup": 11}, {"pitch": 64, "vel": 37, "dur": 0.5, "tieStart": false, "tieEnd": true, "tieGroup": 323}]}, {"start": 1.0, "dur": 0.5, "rest": false, "notes": [{"pitch": 60, "vel": 97, "dur": 0.5, "tieStart": false, "tieEnd": true, "tieGroup": 11}]}, {"start": 1.5, "dur": 0.5, "rest": false, "notes": [{"pitch": 67, "vel": 97, "dur": 0.5, "tieStart": false, "tieEnd": false, "tieGroup": 0}]}, {"start": 2.0, "dur": 0.5, "rest": false, "notes": [{"pitch": 60, "vel": 97, "dur": 0.5, "tieStart": false, "tieEnd": false, "tieGroup": 0}, {"pitch": 72, "vel": 97, "dur": 0.5, "tieStart": true, "tieEnd": false, "tieGroup": 324}]}, {"start": 2.5, "dur": 0.5, "rest": false, "notes": [{"pitch": 64, "vel": 41, "dur": 0.5, "tieStart": true, "tieEnd": false, "tieGroup": 326}, {"pitch": 72, "vel": 97, "dur": 0.5, "tieStart": false, "tieEnd": true, "tieGroup": 324}]}, {"start": 3.0, "dur": 0.5, "rest": false, "notes": [{"pitch": 64, "vel": 41, "dur": 0.5, "tieStart": false, "tieEnd": true, "tieGroup": 326}, {"pitch": 71, "vel": 97, "dur": 0.5, "tieStart": true, "tieEnd": false, "tieGroup": 325}]}, {"start": 3.5, "dur": 0.5, "rest": false, "notes": [{"pitch": 60, "vel": 93, "dur": 0.5, "tieStart": false, "tieEnd": false, "tieGroup": 0}, {"pitch": 71, "vel": 97, "dur": 0.5, "tieStart": false, "tieEnd": true, "tieGroup": 325}]}]}, {"ts_num": 4, "ts_den": 4, "key_fifths": 0, "key_mode": 0, "clef": 0, "tempo": 120, "velocity": 100, "lyrics": "", "expr": [], "segs": [{"start": 0.0, "dur": 0.5, "rest": false, "notes": [{"pitch": 60, "vel": 101, "dur": 0.5, "tieStart": false, "tieEnd": false, "tieGroup": 0}, {"pitch": 64, "vel": 97, "dur": 0.5, "tieStart": false, "tieEnd": false, "tieGroup": 0}, {"pitch": 69, "vel": 93, "dur": 0.5, "tieStart": false, "tieEnd": false, "tieGroup": 0}]}, {"start": 0.5, "dur": 1.0, "rest": false, "notes": [{"pitch": 60, "vel": 101, "dur": 1.0, "tieStart": false, "tieEnd": false, "tieGroup": 0}, {"pitch": 64, "vel": 97, "dur": 1.0, "tieStart": false, "tieEnd": false, "tieGroup": 0}, {"pitch": 69, "vel": 97, "dur": 1.0, "tieStart": false, "tieEnd": false, "tieGroup": 12}, {"pitch": 71, "vel": 89, "dur": 1.0, "tieStart": false, "tieEnd": false, "tieGroup": 0}]}, {"start": 1.5, "dur": 0.5, "rest": false, "notes": [{"pitch": 60, "vel": 101, "dur": 0.5, "tieStart": false, "tieEnd": false, "tieGroup": 0}, {"pitch": 64, "vel": 97, "dur": 0.5, "tieStart": false, "tieEnd": false, "tieGroup": 0}, {"pitch": 67, "vel": 97, "dur": 0.5, "tieStart": false, "tieEnd": false, "tieGroup": 0}, {"pitch": 69, "vel": 93, "dur": 0.5, "tieStart": false, "tieEnd": false, "tieGroup": 0}]}, {"start": 2.0, "dur": 1.0, "rest": false, "notes": [{"pitch": 67, "vel": 97, "dur": 1.0, "tieStart": false, "tieEnd": false, "tieGroup": 0}]}, {"start": 3.0, "dur": 1.0, "rest": false, "notes": [{"pitch": 60, "vel": 101, "dur": 1.0, "tieStart": false, "tieEnd": false, "tieGroup": 0}, {"pitch": 64, "vel": 97, "dur": 1.0, "tieStart": false, "tieEnd": false, "tieGroup": 0}, {"pitch": 69, "vel": 93, "dur": 1.0, "tieStart": false, "tieEnd": false, "tieGroup": 0}, {"pitch": 72, "vel": 97, "dur": 1.0, "tieStart": false, "tieEnd": false, "tieGroup": 0}]}]}, {"ts_num": 4, "ts_den": 4, "key_fifths": 0, "key_mode": 0, "clef": 0, "tempo": 120, "velocity": 100, "lyrics": "", "expr": [], "segs": [{"start": 0.0, "dur": 0.5, "rest": false, "notes": [{"pitch": 62, "vel": 93, "dur": 0.5, "tieStart": true, "tieEnd": false, "tieGroup": 328}]}, {"start": 0.5, "dur": 0.5, "rest": false, "notes": [{"pitch": 62, "vel": 93, "dur": 0.5, "tieStart": false, "tieEnd": true, "tieGroup": 328}, {"pitch": 74, "vel": 97, "dur": 0.5, "tieStart": true, "tieEnd": false, "tieGroup": 13}]}, {"start": 1.0, "dur": 0.5, "rest": false, "notes": [{"pitch": 74, "vel": 97, "dur": 0.5, "tieStart": true, "tieEnd": true, "tieGroup": 13}]}, {"start": 1.5, "dur": 0.25, "rest": false, "notes": [{"pitch": 61, "vel": 97, "dur": 0.25, "tieStart": true, "tieEnd": false, "tieGroup": 330}, {"pitch": 74, "vel": 97, "dur": 0.25, "tieStart": false, "tieEnd": true, "tieGroup": 13}]}, {"start": 1.75, "dur": 0.25, "rest": false, "notes": [{"pitch": 61, "vel": 97, "dur": 0.25, "tieStart": false, "tieEnd": true, "tieGroup": 330}, {"pitch": 71, "vel": 97, "dur": 0.25, "tieStart": true, "tieEnd": false, "tieGroup": 329}]}, {"start": 2.0, "dur": 0.5, "rest": false, "notes": [{"pitch": 71, "vel": 97, "dur": 0.5, "tieStart": false, "tieEnd": true, "tieGroup": 329}]}, {"start": 2.5, "dur": 0.25, "rest": false, "notes": [{"pitch": 71, "vel": 93, "dur": 0.25, "tieStart": true, "tieEnd": false, "tieGroup": 333}]}, {"start": 2.75, "dur": 0.75, "rest": false, "notes": [{"pitch": 71, "vel": 93, "dur": 0.75, "tieStart": false, "tieEnd": true, "tieGroup": 333}, {"pitch": 77, "vel": 97, "dur": 0.75, "tieStart": true, "tieEnd": false, "tieGroup": 331}]}, {"start": 3.5, "dur": 0.25, "rest": false, "notes": [{"pitch": 77, "vel": 97, "dur": 0.25, "tieStart": false, "tieEnd": true, "tieGroup": 331}]}, {"start": 3.75, "dur": 0.25, "rest": true, "notes": []}]}, {"ts_num": 4, "ts_den": 4, "key_fifths": 0, "key_mode": 0, "clef": 0, "tempo": 120, "velocity": 100, "lyrics": "", "expr": [], "segs": [{"start": 0.0, "dur": 0.5, "rest": false, "notes": [{"pitch": 69, "vel": 93, "dur": 0.5, "tieStart": true, "tieEnd": false, "tieGroup": 336}]}, {"start": 0.5, "dur": 0.5, "rest": false, "notes": [{"pitch": 69, "vel": 93, "dur": 0.5, "tieStart": false, "tieEnd": true, "tieGroup": 336}, {"pitch": 72, "vel": 97, "dur": 0.5, "tieStart": true, "tieEnd": false, "tieGroup": 14}]}, {"start": 1.0, "dur": 0.5, "rest": false, "notes": [{"pitch": 65, "vel": 97, "dur": 0.5, "tieStart": false, "tieEnd": false, "tieGroup": 0}, {"pitch": 72, "vel": 97, "dur": 0.5, "tieStart": true, "tieEnd": true, "tieGroup": 14}]}, {"start": 1.5, "dur": 0.25, "rest": false, "notes": [{"pitch": 65, "vel": 97, "dur": 0.25, "tieStart": true, "tieEnd": false, "tieGroup": 338}, {"pitch": 69, "vel": 93, "dur": 0.25, "tieStart": true, "tieEnd": false, "tieGroup": 339}, {"pitch": 72, "vel": 97, "dur": 0.25, "tieStart": false, "tieEnd": true, "tieGroup": 14}]}, {"start": 1.75, "dur": 0.25, "rest": false, "notes": [{"pitch": 65, "vel": 97, "dur": 0.25, "tieStart": false, "tieEnd": true, "tieGroup": 338}, {"pitch": 69, "vel": 93, "dur": 0.25, "tieStart": false, "tieEnd": true, "tieGroup": 339}, {"pitch": 71, "vel": 97, "dur": 0.25, "tieStart": true, "tieEnd": false, "tieGroup": 337}]}, {"start": 2.0, "dur": 0.5, "rest": false, "notes": [{"pitch": 71, "vel": 97, "dur": 0.5, "tieStart": true, "tieEnd": true, "tieGroup": 337}, {"pitch": 72, "vel": 97, "dur": 0.5, "tieStart": false, "tieEnd": false, "tieGroup": 0}]}, {"start": 2.5, "dur": 0.25, "rest": false, "notes": [{"pitch": 69, "vel": 97, "dur": 0.25, "tieStart": true, "tieEnd": false, "tieGroup": 341}, {"pitch": 71, "vel": 97, "dur": 0.25, "tieStart": false, "tieEnd": true, "tieGroup": 337}]}, {"start": 2.75, "dur": 0.75, "rest": false, "notes": [{"pitch": 69, "vel": 97, "dur": 0.75, "tieStart": false, "tieEnd": true, "tieGroup": 341}, {"pitch": 77, "vel": 97, "dur": 0.75, "tieStart": true, "tieEnd": false, "tieGroup": 340}]}, {"start": 3.5, "dur": 0.5, "rest": false, "notes": [{"pitch": 69, "vel": 97, "dur": 0.5, "tieStart": false, "tieEnd": false, "tieGroup": 0}, {"pitch": 77, "vel": 97, "dur": 0.5, "tieStart": false, "tieEnd": true, "tieGroup": 340}]}]}, {"ts_num": 4, "ts_den": 4, "key_fifths": 0, "key_mode": 0, "clef": 0, "tempo": 120, "velocity": 100, "lyrics": "", "expr": [], "segs": [{"start": 0.0, "dur": 0.5, "rest": false, "notes": [{"pitch": 65, "vel": 93, "dur": 0.5, "tieStart": false, "tieEnd": false, "tieGroup": 0}, {"pitch": 67, "vel": 97, "dur": 0.5, "tieStart": false, "tieEnd": false, "tieGroup": 0}]}, {"start": 0.5, "dur": 0.5, "rest": false, "notes": [{"pitch": 65, "vel": 105, "dur": 0.5, "tieStart": false, "tieEnd": false, "tieGroup": 0}, {"pitch": 72, "vel": 97, "dur": 0.5, "tieStart": true, "tieEnd": false, "tieGroup": 342}]}, {"start": 1.0, "dur": 0.5, "rest": false, "notes": [{"pitch": 69, "vel": 97, "dur": 0.5, "tieStart": false, "tieEnd": false, "tieGroup": 0}, {"pitch": 72, "vel": 97, "dur": 0.5, "tieStart": false, "tieEnd": true, "tieGroup": 342}]}, {"start": 1.5, "dur": 0.5, "rest": false, "notes": [{"pitch": 71, "vel": 97, "dur": 0.5, "tieStart": true, "tieEnd": false, "tieGroup": 343}]}, {"start": 2.0, "dur": 0.5, "rest": false, "notes": [{"pitch": 71, "vel": 97, "dur": 0.5, "tieStart": false, "tieEnd": true, "tieGroup": 343}, {"pitch": 72, "vel": 97, "dur": 0.5, "tieStart": true, "tieEnd": false, "tieGroup": 345}]}, {"start": 2.5, "dur": 0.5, "rest": false, "notes": [{"pitch": 69, "vel": 97, "dur": 0.5, "tieStart": false, "tieEnd": false, "tieGroup": 344}, {"pitch": 72, "vel": 97, "dur": 0.5, "tieStart": false, "tieEnd": true, "tieGroup": 345}]}, {"start": 3.0, "dur": 0.5, "rest": false, "notes": [{"pitch": 69, "vel": 105, "dur": 0.5, "tieStart": false, "tieEnd": false, "tieGroup": 0}]}, {"start": 3.5, "dur": 0.5, "rest": false, "notes": [{"pitch": 65, "vel": 97, "dur": 0.5, "tieStart": false, "tieEnd": false, "tieGroup": 0}, {"pitch": 69, "vel": 97, "dur": 0.5, "tieStart": false, "tieEnd": false, "tieGroup": 344}, {"pitch": 72, "vel": 93, "dur": 0.5, "tieStart": false, "tieEnd": false, "tieGroup": 0}]}]}, {"ts_num": 4, "ts_den": 4, "key_fifths": 0, "key_mode": 0, "clef": 0, "tempo": 120, "velocity": 100, "lyrics": "", "expr": [], "segs": [{"start": 0.0, "dur": 0.5, "rest": false, "notes": [{"pitch": 64, "vel": 89, "dur": 0.5, "tieStart": false, "tieEnd": false, "tieGroup": 0}, {"pitch": 66, "vel": 85, "dur": 0.5, "tieStart": false, "tieEnd": false, "tieGroup": 0}, {"pitch": 67, "vel": 81, "dur": 0.5, "tieStart": false, "tieEnd": false, "tieGroup": 0}, {"pitch": 71, "vel": 97, "dur": 0.5, "tieStart": false, "tieEnd": false, "tieGroup": 0}]}, {"start": 0.5, "dur": 1.0, "rest": false, "notes": [{"pitch": 64, "vel": 93, "dur": 1.0, "tieStart": false, "tieEnd": false, "tieGroup": 0}, {"pitch": 67, "vel": 89, "dur": 1.0, "tieStart": false, "tieEnd": false, "tieGroup": 0}, {"pitch": 71, "vel": 85, "dur": 1.0, "tieStart": false, "tieEnd": false, "tieGroup": 0}, {"pitch": 72, "vel": 97, "dur": 1.0, "tieStart": false, "tieEnd": false, "tieGroup": 0}]}, {"start": 1.5, "dur": 1.5, "rest": false, "notes": [{"pitch": 64, "vel": 85, "dur": 1.5, "tieStart": false, "tieEnd": false, "tieGroup": 0}, {"pitch": 67, "vel": 97, "dur": 1.5, "tieStart": false, "tieEnd": false, "tieGroup": 0}]}, {"start": 3.0, "dur": 1.0, "rest": false, "notes": [{"pitch": 64, "vel": 85, "dur": 1.0, "tieStart": false, "tieEnd": false, "tieGroup": 0}, {"pitch": 69, "vel": 97, "dur": 1.0, "tieStart": false, "tieEnd": false, "tieGroup": 0}]}]}, {"ts_num": 4, "ts_den": 4, "key_fifths": 0, "key_mode": 0, "clef": 0, "tempo": 120, "velocity": 100, "lyrics": "", "expr": [], "segs": [{"start": 0.0, "dur": 0.5, "rest": false, "notes": [{"pitch": 66, "vel": 93, "dur": 0.5, "tieStart": false, "tieEnd": false, "tieGroup": 0}, {"pitch": 71, "vel": 97, "dur": 0.5, "tieStart": true, "tieEnd": false, "tieGroup": 346}]}, {"start": 0.5, "dur": 0.5, "rest": false, "notes": [{"pitch": 67, "vel": 97, "dur": 0.5, "tieStart": false, "tieEnd": false, "tieGroup": 0}, {"pitch": 71, "vel": 97, "dur": 0.5, "tieStart": false, "tieEnd": true, "tieGroup": 346}]}, {"start": 1.0, "dur": 0.5, "rest": false, "notes": [{"pitch": 71, "vel": 97, "dur": 0.5, "tieStart": false, "tieEnd": false, "tieGroup": 0}, {"pitch": 76, "vel": 97, "dur": 0.5, "tieStart": true, "tieEnd": false, "tieGroup": 347}]}, {"start": 1.5, "dur": 0.5, "rest": false, "notes": [{"pitch": 71, "vel": 97, "dur": 0.5, "tieStart": false, "tieEnd": false, "tieGroup": 0}, {"pitch": 76, "vel": 97, "dur": 0.5, "tieStart": false, "tieEnd": true, "tieGroup": 347}]}, {"start": 2.0, "dur": 0.75, "rest": false, "notes": [{"pitch": 71, "vel": 97, "dur": 0.75, "tieStart": false, "tieEnd": false, "tieGroup": 0}, {"pitch": 76, "vel": 97, "dur": 0.75, "tieStart": true, "tieEnd": false, "tieGroup": 348}]}, {"start": 2.75, "dur": 0.25, "rest": false, "notes": [{"pitch": 72, "vel": 97, "dur": 0.25, "tieStart": false, "tieEnd": false, "tieGroup": 0}, {"pitch": 76, "vel": 97, "dur": 0.25, "tieStart": false, "tieEnd": true, "tieGroup": 348}]}, {"start": 3.0, "dur": 0.5, "rest": false, "notes": [{"pitch": 64, "vel": 97, "dur": 0.5, "tieStart": false, "tieEnd": false, "tieGroup": 0}, {"pitch": 71, "vel": 97, "dur": 0.5, "tieStart": true, "tieEnd": false, "tieGroup": 349}]}, {"start": 3.5, "dur": 0.5, "rest": false, "notes": [{"pitch": 71, "vel": 97, "dur": 0.5, "tieStart": false, "tieEnd": true, "tieGroup": 349}, {"pitch": 76, "vel": 97, "dur": 0.5, "tieStart": false, "tieEnd": false, "tieGroup": 0}]}]}, {"ts_num": 4, "ts_den": 4, "key_fifths": 0, "key_mode": 0, "clef": 0, "tempo": 120, "velocity": 100, "lyrics": "", "expr": [], "segs": [{"start": 0.0, "dur": 1.0, "rest": false, "notes": [{"pitch": 67, "vel": 93, "dur": 1.0, "tieStart": false, "tieEnd": false, "tieGroup": 0}, {"pitch": 71, "vel": 97, "dur": 1.0, "tieStart": false, "tieEnd": false, "tieGroup": 0}]}, {"start": 1.0, "dur": 0.5, "rest": false, "notes": [{"pitch": 64, "vel": 97, "dur": 0.5, "tieStart": false, "tieEnd": false, "tieGroup": 0}, {"pitch": 67, "vel": 97, "dur": 0.5, "tieStart": true, "tieEnd": false, "tieGroup": 350}]}, {"start": 1.5, "dur": 0.5, "rest": false, "notes": [{"pitch": 67, "vel": 97, "dur": 0.5, "tieStart": false, "tieEnd": true, "tieGroup": 350}, {"pitch": 71, "vel": 97, "dur": 0.5, "tieStart": false, "tieEnd": false, "tieGroup": 0}]}, {"start": 2.0, "dur": 0.5, "rest": false, "notes": [{"pitch": 71, "vel": 97, "dur": 0.5, "tieStart": true, "tieEnd": false, "tieGroup": 351}, {"pitch": 76, "vel": 97, "dur": 0.5, "tieStart": false, "tieEnd": false, "tieGroup": 0}]}, {"start": 2.5, "dur": 0.25, "rest": false, "notes": [{"pitch": 67, "vel": 97, "dur": 0.25, "tieStart": true, "tieEnd": false, "tieGroup": 353}, {"pitch": 71, "vel": 97, "dur": 0.25, "tieStart": false, "tieEnd": true, "tieGroup": 351}]}, {"start": 2.75, "dur": 0.25, "rest": false, "notes": [{"pitch": 67, "vel": 97, "dur": 0.25, "tieStart": true, "tieEnd": true, "tieGroup": 353}]}, {"start": 3.0, "dur": 0.5, "rest": false, "notes": [{"pitch": 67, "vel": 97, "dur": 0.5, "tieStart": false, "tieEnd": true, "tieGroup": 353}, {"pitch": 72, "vel": 97, "dur": 0.5, "tieStart": true, "tieEnd": false, "tieGroup": 352}]}, {"start": 3.5, "dur": 0.5, "rest": false, "notes": [{"pitch": 71, "vel": 97, "dur": 0.5, "tieStart": false, "tieEnd": false, "tieGroup": 0}, {"pitch": 72, "vel": 97, "dur": 0.5, "tieStart": false, "tieEnd": true, "tieGroup": 352}]}]}, {"ts_num": 4, "ts_den": 4, "key_fifths": 0, "key_mode": 0, "clef": 0, "tempo": 120, "velocity": 100, "lyrics": "", "expr": [], "segs": [{"start": 0.0, "dur": 0.5, "rest": false, "notes": [{"pitch": 64, "vel": 97, "dur": 0.5, "tieStart": false, "tieEnd": false, "tieGroup": 0}]}, {"start": 0.5, "dur": 0.5, "rest": false, "notes": [{"pitch": 67, "vel": 97, "dur": 0.5, "tieStart": false, "tieEnd": false, "tieGroup": 0}, {"pitch": 71, "vel": 97, "dur": 0.5, "tieStart": true, "tieEnd": false, "tieGroup": 15}]}, {"start": 1.0, "dur": 0.5, "rest": false, "notes": [{"pitch": 64, "vel": 97, "dur": 0.5, "tieStart": false, "tieEnd": false, "tieGroup": 0}, {"pitch": 71, "vel": 97, "dur": 0.5, "tieStart": true, "tieEnd": true, "tieGroup": 15}]}, {"start": 1.5, "dur": 0.5, "rest": false, "notes": [{"pitch": 71, "vel": 97, "dur": 0.5, "tieStart": false, "tieEnd": true, "tieGroup": 15}]}, {"start": 2.0, "dur": 0.5, "rest": false, "notes": [{"pitch": 64, "vel": 97, "dur": 0.5, "tieStart": false, "tieEnd": false, "tieGroup": 0}, {"pitch": 71, "vel": 97, "dur": 0.5, "tieStart": true, "tieEnd": false, "tieGroup": 354}]}, {"start": 2.5, "dur": 0.5, "rest": false, "notes": [{"pitch": 71, "vel": 97, "dur": 0.5, "tieStart": false, "tieEnd": true, "tieGroup": 354}]}, {"start": 3.0, "dur": 0.5, "rest": false, "notes": [{"pitch": 64, "vel": 97, "dur": 0.5, "tieStart": false, "tieEnd": false, "tieGroup": 0}]}, {"start": 3.5, "dur": 0.5, "rest": false, "notes": [{"pitch": 64, "vel": 97, "dur": 0.5, "tieStart": false, "tieEnd": false, "tieGroup": 355}, {"pitch": 67, "vel": 93, "dur": 0.5, "tieStart": false, "tieEnd": false, "tieGroup": 0}]}]}, {"ts_num": 4, "ts_den": 4, "key_fifths": 0, "key_mode": 0, "clef": 0, "tempo": 120, "velocity": 100, "lyrics": "", "expr": [], "segs": [{"start": 0.0, "dur": 0.5, "rest": false, "notes": [{"pitch": 62, "vel": 97, "dur": 0.5, "tieStart": false, "tieEnd": false, "tieGroup": 0}]}, {"start": 0.5, "dur": 0.5, "rest": true, "notes": []}, {"start": 1.0, "dur": 0.5, "rest": false, "notes": [{"pitch": 64, "vel": 97, "dur": 0.5, "tieStart": false, "tieEnd": false, "tieGroup": 16}, {"pitch": 67, "vel": 85, "dur": 0.5, "tieStart": true, "tieEnd": false, "tieGroup": 359}]}, {"start": 1.5, "dur": 0.5, "rest": false, "notes": [{"pitch": 67, "vel": 85, "dur": 0.5, "tieStart": false, "tieEnd": true, "tieGroup": 359}]}, {"start": 2.0, "dur": 0.5, "rest": false, "notes": [{"pitch": 71, "vel": 97, "dur": 0.5, "tieStart": true, "tieEnd": false, "tieGroup": 17}]}, {"start": 2.5, "dur": 0.5, "rest": false, "notes": [{"pitch": 62, "vel": 81, "dur": 0.5, "tieStart": false, "tieEnd": false, "tieGroup": 0}, {"pitch": 67, "vel": 85, "dur": 0.5, "tieStart": false, "tieEnd": false, "tieGroup": 0}, {"pitch": 71, "vel": 97, "dur": 0.5, "tieStart": false, "tieEnd": true, "tieGroup": 17}]}, {"start": 3.0, "dur": 0.5, "rest": false, "notes": [{"pitch": 72, "vel": 97, "dur": 0.5, "tieStart": false, "tieEnd": false, "tieGroup": 0}]}, {"start": 3.5, "dur": 0.5, "rest": false, "notes": [{"pitch": 71, "vel": 97, "dur": 0.5, "tieStart": false, "tieEnd": false, "tieGroup": 0}]}]}, {"ts_num": 4, "ts_den": 4, "key_fifths": 0, "key_mode": 0, "clef": 0, "tempo": 120, "velocity": 100, "lyrics": "", "expr": [], "segs": [{"start": 0.0, "dur": 1.0, "rest": false, "notes": [{"pitch": 67, "vel": 81, "dur": 1.0, "tieStart": false, "tieEnd": false, "tieGroup": 0}, {"pitch": 74, "vel": 97, "dur": 1.0, "tieStart": false, "tieEnd": false, "tieGroup": 0}]}, {"start": 1.0, "dur": 0.5, "rest": false, "notes": [{"pitch": 72, "vel": 97, "dur": 0.5, "tieStart": true, "tieEnd": false, "tieGroup": 364}]}, {"start": 1.5, "dur": 0.5, "rest": false, "notes": [{"pitch": 72, "vel": 97, "dur": 0.5, "tieStart": false, "tieEnd": true, "tieGroup": 364}]}, {"start": 2.0, "dur": 1.0, "rest": false, "notes": [{"pitch": 62, "vel": 85, "dur": 1.0, "tieStart": false, "tieEnd": false, "tieGroup": 0}, {"pitch": 76, "vel": 97, "dur": 1.0, "tieStart": false, "tieEnd": false, "tieGroup": 0}]}, {"start": 3.0, "dur": 1.0, "rest": false, "notes": [{"pitch": 62, "vel": 85, "dur": 1.0, "tieStart": false, "tieEnd": false, "tieGroup": 0}, {"pitch": 74, "vel": 97, "dur": 1.0, "tieStart": false, "tieEnd": false, "tieGroup": 0}]}]}, {"ts_num": 4, "ts_den": 4, "key_fifths": 0, "key_mode": 0, "clef": 0, "tempo": 120, "velocity": 100, "lyrics": "", "expr": [], "segs": [{"start": 0.0, "dur": 1.0, "rest": false, "notes": [{"pitch": 72, "vel": 81, "dur": 1.0, "tieStart": false, "tieEnd": false, "tieGroup": 0}, {"pitch": 77, "vel": 97, "dur": 1.0, "tieStart": false, "tieEnd": false, "tieGroup": 0}]}, {"start": 1.0, "dur": 0.5, "rest": false, "notes": [{"pitch": 60, "vel": 97, "dur": 0.5, "tieStart": false, "tieEnd": false, "tieGroup": 0}, {"pitch": 69, "vel": 81, "dur": 0.5, "tieStart": false, "tieEnd": false, "tieGroup": 0}, {"pitch": 76, "vel": 97, "dur": 0.5, "tieStart": true, "tieEnd": false, "tieGroup": 365}]}, {"start": 1.5, "dur": 0.5, "rest": false, "notes": [{"pitch": 64, "vel": 97, "dur": 0.5, "tieStart": false, "tieEnd": false, "tieGroup": 0}, {"pitch": 76, "vel": 97, "dur": 0.5, "tieStart": false, "tieEnd": true, "tieGroup": 365}]}, {"start": 2.0, "dur": 1.0, "rest": false, "notes": [{"pitch": 60, "vel": 93, "dur": 1.0, "tieStart": false, "tieEnd": false, "tieGroup": 0}, {"pitch": 65, "vel": 85, "dur": 1.0, "tieStart": false, "tieEnd": false, "tieGroup": 0}, {"pitch": 79, "vel": 100, "dur": 1.0, "tieStart": false, "tieEnd": false, "tieGroup": 0}]}, {"start": 3.0, "dur": 0.25, "rest": false, "notes": [{"pitch": 64, "vel": 93, "dur": 0.25, "tieStart": true, "tieEnd": false, "tieGroup": 368}, {"pitch": 71, "vel": 97, "dur": 0.25, "tieStart": false, "tieEnd": false, "tieGroup": 0}, {"pitch": 79, "vel": 100, "dur": 0.25, "tieStart": false, "tieEnd": false, "tieGroup": 0}]}, {"start": 3.25, "dur": 0.75, "rest": false, "notes": [{"pitch": 64, "vel": 93, "dur": 0.75, "tieStart": false, "tieEnd": true, "tieGroup": 368}, {"pitch": 72, "vel": 97, "dur": 0.75, "tieStart": false, "tieEnd": false, "tieGroup": 0}, {"pitch": 79, "vel": 100, "dur": 0.75, "tieStart": false, "tieEnd": false, "tieGroup": 0}]}]}, {"ts_num": 4, "ts_den": 4, "key_fifths": 0, "key_mode": 0, "clef": 0, "tempo": 120, "velocity": 100, "lyrics": "", "expr": [], "segs": [{"start": 0.0, "dur": 0.5, "rest": false, "notes": [{"pitch": 60, "vel": 93, "dur": 0.5, "tieStart": true, "tieEnd": false, "tieGroup": 372}, {"pitch": 64, "vel": 97, "dur": 0.5, "tieStart": true, "tieEnd": false, "tieGroup": 373}, {"pitch": 74, "vel": 100, "dur": 0.5, "tieStart": false, "tieEnd": false, "tieGroup": 0}]}, {"start": 0.5, "dur": 0.5, "rest": false, "notes": [{"pitch": 60, "vel": 93, "dur": 0.5, "tieStart": false, "tieEnd": true, "tieGroup": 372}, {"pitch": 64, "vel": 97, "dur": 0.5, "tieStart": false, "tieEnd": true, "tieGroup": 373}, {"pitch": 72, "vel": 100, "dur": 0.5, "tieStart": true, "tieEnd": false, "tieGroup": 369}]}, {"start": 1.0, "dur": 0.5, "rest": false, "notes": [{"pitch": 60, "vel": 105, "dur": 0.5, "tieStart": false, "tieEnd": false, "tieGroup": 0}, {"pitch": 69, "vel": 105, "dur": 0.5, "tieStart": false, "tieEnd": false, "tieGroup": 0}, {"pitch": 71, "vel": 105, "dur": 0.5, "tieStart": false, "tieEnd": false, "tieGroup": 0}, {"pitch": 72, "vel": 100, "dur": 0.5, "tieStart": true, "tieEnd": true, "tieGroup": 369}]}, {"start": 1.5, "dur": 0.5, "rest": false, "notes": [{"pitch": 60, "vel": 97, "dur": 0.5, "tieStart": false, "tieEnd": false, "tieGroup": 0}, {"pitch": 67, "vel": 97, "dur": 0.5, "tieStart": false, "tieEnd": false, "tieGroup": 0}, {"pitch": 72, "vel": 100, "dur": 0.5, "tieStart": false, "tieEnd": true, "tieGroup": 369}]}, {"start": 2.0, "dur": 1.0, "rest": false, "notes": [{"pitch": 60, "vel": 93, "dur": 1.0, "tieStart": false, "tieEnd": false, "tieGroup": 0}, {"pitch": 64, "vel": 100, "dur": 1.0, "tieStart": true, "tieEnd": false, "tieGroup": 374}, {"pitch": 71, "vel": 105, "dur": 1.0, "tieStart": false, "tieEnd": false, "tieGroup": 0}]}, {"start": 3.0, "dur": 1.0, "rest": false, "notes": [{"pitch": 64, "vel": 100, "dur": 1.0, "tieStart": false, "tieEnd": true, "tieGroup": 374}]}]}, {"ts_num": 4, "ts_den": 4, "key_fifths": 0, "key_mode": 0, "clef": 0, "tempo": 120, "velocity": 100, "lyrics": "", "expr": [], "segs": [{"start": 0.0, "dur": 1.0, "rest": false, "notes": [{"pitch": 60, "vel": 120, "dur": 1.0, "tieStart": false, "tieEnd": false, "tieGroup": 0}, {"pitch": 65, "vel": 100, "dur": 1.0, "tieStart": true, "tieEnd": false, "tieGroup": 375}]}, {"start": 1.0, "dur": 0.5, "rest": false, "notes": [{"pitch": 65, "vel": 100, "dur": 0.5, "tieStart": true, "tieEnd": true, "tieGroup": 375}, {"pitch": 69, "vel": 97, "dur": 0.5, "tieStart": false, "tieEnd": false, "tieGroup": 0}, {"pitch": 72, "vel": 97, "dur": 0.5, "tieStart": false, "tieEnd": false, "tieGroup": 0}]}, {"start": 1.5, "dur": 0.5, "rest": false, "notes": [{"pitch": 60, "vel": 93, "dur": 0.5, "tieStart": false, "tieEnd": false, "tieGroup": 0}, {"pitch": 65, "vel": 100, "dur": 0.5, "tieStart": false, "tieEnd": true, "tieGroup": 375}, {"pitch": 69, "vel": 97, "dur": 0.5, "tieStart": false, "tieEnd": false, "tieGroup": 0}]}, {"start": 2.0, "dur": 1.0, "rest": false, "notes": [{"pitch": 60, "vel": 97, "dur": 1.0, "tieStart": false, "tieEnd": false, "tieGroup": 0}, {"pitch": 67, "vel": 100, "dur": 1.0, "tieStart": false, "tieEnd": false, "tieGroup": 0}]}, {"start": 3.0, "dur": 1.0, "rest": false, "notes": [{"pitch": 65, "vel": 100, "dur": 1.0, "tieStart": false, "tieEnd": false, "tieGroup": 0}, {"pitch": 69, "vel": 97, "dur": 1.0, "tieStart": false, "tieEnd": false, "tieGroup": 0}]}]}, {"ts_num": 4, "ts_den": 4, "key_fifths": 0, "key_mode": 0, "clef": 0, "tempo": 120, "velocity": 100, "lyrics": "", "expr": [], "segs": [{"start": 0.0, "dur": 0.5, "rest": false, "notes": [{"pitch": 62, "vel": 97, "dur": 0.5, "tieStart": true, "tieEnd": false, "tieGroup": 376}, {"pitch": 67, "vel": 97, "dur": 0.5, "tieStart": false, "tieEnd": false, "tieGroup": 0}]}, {"start": 0.5, "dur": 0.5, "rest": false, "notes": [{"pitch": 62, "vel": 97, "dur": 0.5, "tieStart": false, "tieEnd": true, "tieGroup": 376}]}, {"start": 1.0, "dur": 0.5, "rest": false, "notes": [{"pitch": 67, "vel": 97, "dur": 0.5, "tieStart": true, "tieEnd": false, "tieGroup": 377}]}, {"start": 1.5, "dur": 0.5, "rest": false, "notes": [{"pitch": 67, "vel": 97, "dur": 0.5, "tieStart": false, "tieEnd": true, "tieGroup": 377}]}, {"start": 2.0, "dur": 0.5, "rest": false, "notes": [{"pitch": 67, "vel": 97, "dur": 0.5, "tieStart": true, "tieEnd": false, "tieGroup": 378}]}, {"start": 2.5, "dur": 0.5, "rest": false, "notes": [{"pitch": 67, "vel": 97, "dur": 0.5, "tieStart": true, "tieEnd": true, "tieGroup": 378}]}, {"start": 3.0, "dur": 0.5, "rest": false, "notes": [{"pitch": 67, "vel": 97, "dur": 0.5, "tieStart": true, "tieEnd": true, "tieGroup": 378}]}, {"start": 3.5, "dur": 0.5, "rest": false, "notes": [{"pitch": 67, "vel": 97, "dur": 0.5, "tieStart": false, "tieEnd": true, "tieGroup": 378}]}]}, {"ts_num": 4, "ts_den": 4, "key_fifths": 0, "key_mode": 0, "clef": 0, "tempo": 120, "velocity": 100, "lyrics": "", "expr": [], "segs": [{"start": 0.0, "dur": 0.5, "rest": false, "notes": [{"pitch": 62, "vel": 97, "dur": 0.5, "tieStart": true, "tieEnd": false, "tieGroup": 380}]}, {"start": 0.5, "dur": 0.5, "rest": false, "notes": [{"pitch": 62, "vel": 97, "dur": 0.5, "tieStart": false, "tieEnd": true, "tieGroup": 380}]}, {"start": 1.0, "dur": 0.5, "rest": false, "notes": [{"pitch": 67, "vel": 97, "dur": 0.5, "tieStart": true, "tieEnd": false, "tieGroup": 381}]}, {"start": 1.5, "dur": 0.5, "rest": false, "notes": [{"pitch": 67, "vel": 97, "dur": 0.5, "tieStart": false, "tieEnd": true, "tieGroup": 381}]}, {"start": 2.0, "dur": 0.5, "rest": false, "notes": [{"pitch": 67, "vel": 97, "dur": 0.5, "tieStart": true, "tieEnd": false, "tieGroup": 382}]}, {"start": 2.5, "dur": 0.5, "rest": false, "notes": [{"pitch": 67, "vel": 97, "dur": 0.5, "tieStart": true, "tieEnd": true, "tieGroup": 382}]}, {"start": 3.0, "dur": 0.5, "rest": false, "notes": [{"pitch": 62, "vel": 89, "dur": 0.5, "tieStart": false, "tieEnd": false, "tieGroup": 0}, {"pitch": 67, "vel": 97, "dur": 0.5, "tieStart": true, "tieEnd": true, "tieGroup": 382}]}, {"start": 3.5, "dur": 0.5, "rest": false, "notes": [{"pitch": 62, "vel": 89, "dur": 0.5, "tieStart": false, "tieEnd": false, "tieGroup": 0}, {"pitch": 67, "vel": 97, "dur": 0.5, "tieStart": false, "tieEnd": true, "tieGroup": 382}]}]}, {"ts_num": 4, "ts_den": 4, "key_fifths": 0, "key_mode": 0, "clef": 0, "tempo": 120, "velocity": 100, "lyrics": "", "expr": [], "segs": [{"start": 0.0, "dur": 0.5, "rest": false, "notes": [{"pitch": 65, "vel": 97, "dur": 0.5, "tieStart": false, "tieEnd": false, "tieGroup": 0}, {"pitch": 67, "vel": 97, "dur": 0.5, "tieStart": true, "tieEnd": false, "tieGroup": 384}]}, {"start": 0.5, "dur": 0.5, "rest": false, "notes": [{"pitch": 60, "vel": 97, "dur": 0.5, "tieStart": false, "tieEnd": false, "tieGroup": 0}, {"pitch": 67, "vel": 97, "dur": 0.5, "tieStart": false, "tieEnd": true, "tieGroup": 384}]}, {"start": 1.0, "dur": 0.5, "rest": false, "notes": [{"pitch": 60, "vel": 97, "dur": 0.5, "tieStart": false, "tieEnd": false, "tieGroup": 0}]}, {"start": 1.5, "dur": 0.5, "rest": false, "notes": [{"pitch": 60, "vel": 97, "dur": 0.5, "tieStart": false, "tieEnd": false, "tieGroup": 0}, {"pitch": 65, "vel": 93, "dur": 0.5, "tieStart": false, "tieEnd": false, "tieGroup": 0}]}, {"start": 2.0, "dur": 0.5, "rest": true, "notes": []}, {"start": 2.5, "dur": 0.5, "rest": false, "notes": [{"pitch": 65, "vel": 93, "dur": 0.5, "tieStart": false, "tieEnd": false, "tieGroup": 495}]}, {"start": 3.0, "dur": 0.5, "rest": false, "notes": [{"pitch": 60, "vel": 97, "dur": 0.5, "tieStart": false, "tieEnd": false, "tieGroup": 0}]}, {"start": 3.5, "dur": 0.5, "rest": false, "notes": [{"pitch": 60, "vel": 97, "dur": 0.5, "tieStart": false, "tieEnd": false, "tieGroup": 0}]}]}, {"ts_num": 4, "ts_den": 4, "key_fifths": 0, "key_mode": 0, "clef": 0, "tempo": 120, "velocity": 100, "lyrics": "", "expr": [], "segs": [{"start": 0.0, "dur": 0.5, "rest": false, "notes": [{"pitch": 67, "vel": 97, "dur": 0.5, "tieStart": true, "tieEnd": false, "tieGroup": 387}, {"pitch": 71, "vel": 97, "dur": 0.5, "tieStart": false, "tieEnd": false, "tieGroup": 0}]}, {"start": 0.5, "dur": 0.5, "rest": false, "notes": [{"pitch": 67, "vel": 97, "dur": 0.5, "tieStart": false, "tieEnd": true, "tieGroup": 387}, {"pitch": 71, "vel": 97, "dur": 0.5, "tieStart": false, "tieEnd": false, "tieGroup": 0}]}, {"start": 1.0, "dur": 0.5, "rest": false, "notes": [{"pitch": 60, "vel": 97, "dur": 0.5, "tieStart": false, "tieEnd": false, "tieGroup": 0}, {"pitch": 64, "vel": 97, "dur": 0.5, "tieStart": false, "tieEnd": false, "tieGroup": 0}]}, {"start": 1.5, "dur": 0.5, "rest": false, "notes": [{"pitch": 64, "vel": 97, "dur": 0.5, "tieStart": false, "tieEnd": false, "tieGroup": 0}, {"pitch": 66, "vel": 97, "dur": 0.5, "tieStart": false, "tieEnd": false, "tieGroup": 0}]}, {"start": 2.0, "dur": 0.5, "rest": true, "notes": []}, {"start": 2.5, "dur": 0.5, "rest": false, "notes": [{"pitch": 64, "vel": 97, "dur": 0.5, "tieStart": false, "tieEnd": false, "tieGroup": 496}]}, {"start": 3.0, "dur": 0.5, "rest": false, "notes": [{"pitch": 64, "vel": 93, "dur": 0.5, "tieStart": false, "tieEnd": false, "tieGroup": 0}, {"pitch": 67, "vel": 97, "dur": 0.5, "tieStart": false, "tieEnd": false, "tieGroup": 0}]}, {"start": 3.5, "dur": 0.5, "rest": false, "notes": [{"pitch": 67, "vel": 97, "dur": 0.5, "tieStart": false, "tieEnd": false, "tieGroup": 0}]}]}, {"ts_num": 4, "ts_den": 4, "key_fifths": 0, "key_mode": 0, "clef": 0, "tempo": 120, "velocity": 100, "lyrics": "", "expr": [], "segs": [{"start": 0.0, "dur": 0.5, "rest": false, "notes": [{"pitch": 67, "vel": 97, "dur": 0.5, "tieStart": true, "tieEnd": false, "tieGroup": 390}]}, {"start": 0.5, "dur": 0.5, "rest": false, "notes": [{"pitch": 62, "vel": 105, "dur": 0.5, "tieStart": false, "tieEnd": false, "tieGroup": 0}, {"pitch": 67, "vel": 97, "dur": 0.5, "tieStart": false, "tieEnd": true, "tieGroup": 390}]}, {"start": 1.0, "dur": 0.5, "rest": false, "notes": [{"pitch": 62, "vel": 97, "dur": 0.5, "tieStart": true, "tieEnd": false, "tieGroup": 391}]}, {"start": 1.5, "dur": 0.5, "rest": false, "notes": [{"pitch": 62, "vel": 97, "dur": 0.5, "tieStart": false, "tieEnd": true, "tieGroup": 391}]}, {"start": 2.0, "dur": 0.5, "rest": false, "notes": [{"pitch": 65, "vel": 97, "dur": 0.5, "tieStart": true, "tieEnd": false, "tieGroup": 392}]}, {"start": 2.5, "dur": 0.5, "rest": false, "notes": [{"pitch": 65, "vel": 97, "dur": 0.5, "tieStart": true, "tieEnd": true, "tieGroup": 392}]}, {"start": 3.0, "dur": 0.5, "rest": false, "notes": [{"pitch": 62, "vel": 105, "dur": 0.5, "tieStart": false, "tieEnd": false, "tieGroup": 0}, {"pitch": 65, "vel": 97, "dur": 0.5, "tieStart": true, "tieEnd": true, "tieGroup": 392}]}, {"start": 3.5, "dur": 0.5, "rest": false, "notes": [{"pitch": 62, "vel": 105, "dur": 0.5, "tieStart": false, "tieEnd": false, "tieGroup": 0}, {"pitch": 65, "vel": 97, "dur": 0.5, "tieStart": false, "tieEnd": true, "tieGroup": 392}]}]}, {"ts_num": 4, "ts_den": 4, "key_fifths": 0, "key_mode": 0, "clef": 0, "tempo": 120, "velocity": 100, "lyrics": "", "expr": [], "segs": [{"start": 0.0, "dur": 0.5, "rest": false, "notes": [{"pitch": 60, "vel": 97, "dur": 0.5, "tieStart": true, "tieEnd": false, "tieGroup": 394}, {"pitch": 65, "vel": 97, "dur": 0.5, "tieStart": false, "tieEnd": false, "tieGroup": 0}]}, {"start": 0.5, "dur": 0.5, "rest": false, "notes": [{"pitch": 60, "vel": 97, "dur": 0.5, "tieStart": false, "tieEnd": true, "tieGroup": 394}]}, {"start": 1.0, "dur": 0.5, "rest": false, "notes": [{"pitch": 65, "vel": 93, "dur": 0.5, "tieStart": false, "tieEnd": false, "tieGroup": 0}]}, {"start": 1.5, "dur": 0.5, "rest": false, "notes": [{"pitch": 60, "vel": 97, "dur": 0.5, "tieStart": false, "tieEnd": false, "tieGroup": 0}]}, {"start": 2.0, "dur": 1.0, "rest": true, "notes": []}, {"start": 3.0, "dur": 0.5, "rest": false, "notes": [{"pitch": 60, "vel": 97, "dur": 0.5, "tieStart": false, "tieEnd": false, "tieGroup": 497}, {"pitch": 67, "vel": 97, "dur": 0.5, "tieStart": false, "tieEnd": false, "tieGroup": 0}]}, {"start": 3.5, "dur": 0.5, "rest": false, "notes": [{"pitch": 65, "vel": 93, "dur": 0.5, "tieStart": false, "tieEnd": false, "tieGroup": 0}]}]}, {"ts_num": 4, "ts_den": 4, "key_fifths": 0, "key_mode": 0, "clef": 0, "tempo": 120, "velocity": 100, "lyrics": "", "expr": [], "segs": [{"start": 0.0, "dur": 0.5, "rest": false, "notes": [{"pitch": 62, "vel": 97, "dur": 0.5, "tieStart": true, "tieEnd": false, "tieGroup": 398}, {"pitch": 65, "vel": 97, "dur": 0.5, "tieStart": false, "tieEnd": false, "tieGroup": 0}, {"pitch": 69, "vel": 97, "dur": 0.5, "tieStart": false, "tieEnd": false, "tieGroup": 0}]}, {"start": 0.5, "dur": 0.5, "rest": false, "notes": [{"pitch": 62, "vel": 97, "dur": 0.5, "tieStart": false, "tieEnd": true, "tieGroup": 398}]}, {"start": 1.0, "dur": 0.5, "rest": false, "notes": [{"pitch": 67, "vel": 97, "dur": 0.5, "tieStart": true, "tieEnd": false, "tieGroup": 399}]}, {"start": 1.5, "dur": 0.5, "rest": false, "notes": [{"pitch": 62, "vel": 97, "dur": 0.5, "tieStart": false, "tieEnd": false, "tieGroup": 0}, {"pitch": 67, "vel": 97, "dur": 0.5, "tieStart": false, "tieEnd": true, "tieGroup": 399}]}, {"start": 2.0, "dur": 1.0, "rest": false, "notes": [{"pitch": 65, "vel": 97, "dur": 1.0, "tieStart": true, "tieEnd": false, "tieGroup": 400}]}, {"start": 3.0, "dur": 0.5, "rest": false, "notes": [{"pitch": 62, "vel": 97, "dur": 0.5, "tieStart": false, "tieEnd": false, "tieGroup": 0}, {"pitch": 65, "vel": 97, "dur": 0.5, "tieStart": true, "tieEnd": true, "tieGroup": 400}]}, {"start": 3.5, "dur": 0.5, "rest": false, "notes": [{"pitch": 62, "vel": 93, "dur": 0.5, "tieStart": false, "tieEnd": false, "tieGroup": 0}, {"pitch": 65, "vel": 97, "dur": 0.5, "tieStart": false, "tieEnd": true, "tieGroup": 400}]}]}, {"ts_num": 4, "ts_den": 4, "key_fifths": 0, "key_mode": 0, "clef": 0, "tempo": 120, "velocity": 100, "lyrics": "", "expr": [], "segs": [{"start": 0.0, "dur": 0.5, "rest": false, "notes": [{"pitch": 62, "vel": 97, "dur": 0.5, "tieStart": true, "tieEnd": false, "tieGroup": 401}]}, {"start": 0.5, "dur": 0.5, "rest": false, "notes": [{"pitch": 62, "vel": 97, "dur": 0.5, "tieStart": false, "tieEnd": true, "tieGroup": 401}]}, {"start": 1.0, "dur": 0.5, "rest": false, "notes": [{"pitch": 67, "vel": 97, "dur": 0.5, "tieStart": true, "tieEnd": false, "tieGroup": 402}]}, {"start": 1.5, "dur": 0.5, "rest": false, "notes": [{"pitch": 62, "vel": 105, "dur": 0.5, "tieStart": false, "tieEnd": false, "tieGroup": 0}, {"pitch": 67, "vel": 97, "dur": 0.5, "tieStart": false, "tieEnd": true, "tieGroup": 402}]}, {"start": 2.0, "dur": 1.0, "rest": false, "notes": [{"pitch": 67, "vel": 97, "dur": 1.0, "tieStart": true, "tieEnd": false, "tieGroup": 403}]}, {"start": 3.0, "dur": 0.5, "rest": false, "notes": [{"pitch": 67, "vel": 97, "dur": 0.5, "tieStart": true, "tieEnd": true, "tieGroup": 403}]}, {"start": 3.5, "dur": 0.5, "rest": false, "notes": [{"pitch": 62, "vel": 101, "dur": 0.5, "tieStart": false, "tieEnd": false, "tieGroup": 0}, {"pitch": 67, "vel": 97, "dur": 0.5, "tieStart": false, "tieEnd": true, "tieGroup": 403}]}]}, {"ts_num": 4, "ts_den": 4, "key_fifths": 0, "key_mode": 0, "clef": 0, "tempo": 120, "velocity": 100, "lyrics": "", "expr": [], "segs": [{"start": 0.0, "dur": 0.5, "rest": false, "notes": [{"pitch": 67, "vel": 97, "dur": 0.5, "tieStart": true, "tieEnd": false, "tieGroup": 404}]}, {"start": 0.5, "dur": 0.5, "rest": false, "notes": [{"pitch": 67, "vel": 97, "dur": 0.5, "tieStart": false, "tieEnd": true, "tieGroup": 404}]}, {"start": 1.0, "dur": 0.5, "rest": false, "notes": [{"pitch": 69, "vel": 97, "dur": 0.5, "tieStart": true, "tieEnd": false, "tieGroup": 405}]}, {"start": 1.5, "dur": 0.5, "rest": false, "notes": [{"pitch": 69, "vel": 97, "dur": 0.5, "tieStart": false, "tieEnd": true, "tieGroup": 405}]}, {"start": 2.0, "dur": 1.0, "rest": false, "notes": [{"pitch": 67, "vel": 97, "dur": 1.0, "tieStart": true, "tieEnd": false, "tieGroup": 406}]}, {"start": 3.0, "dur": 0.5, "rest": false, "notes": [{"pitch": 62, "vel": 105, "dur": 0.5, "tieStart": false, "tieEnd": false, "tieGroup": 0}, {"pitch": 67, "vel": 97, "dur": 0.5, "tieStart": true, "tieEnd": true, "tieGroup": 406}]}, {"start": 3.5, "dur": 0.5, "rest": false, "notes": [{"pitch": 67, "vel": 97, "dur": 0.5, "tieStart": false, "tieEnd": true, "tieGroup": 406}]}]}, {"ts_num": 4, "ts_den": 4, "key_fifths": 0, "key_mode": 0, "clef": 0, "tempo": 120, "velocity": 100, "lyrics": "", "expr": [], "segs": [{"start": 0.0, "dur": 0.5, "rest": false, "notes": [{"pitch": 67, "vel": 97, "dur": 0.5, "tieStart": true, "tieEnd": false, "tieGroup": 407}]}, {"start": 0.5, "dur": 0.5, "rest": false, "notes": [{"pitch": 67, "vel": 97, "dur": 0.5, "tieStart": false, "tieEnd": true, "tieGroup": 407}]}, {"start": 1.0, "dur": 0.5, "rest": false, "notes": [{"pitch": 62, "vel": 97, "dur": 0.5, "tieStart": true, "tieEnd": false, "tieGroup": 408}]}, {"start": 1.5, "dur": 0.5, "rest": false, "notes": [{"pitch": 62, "vel": 97, "dur": 0.5, "tieStart": false, "tieEnd": true, "tieGroup": 408}]}, {"start": 2.0, "dur": 1.0, "rest": false, "notes": [{"pitch": 62, "vel": 97, "dur": 1.0, "tieStart": false, "tieEnd": false, "tieGroup": 0}, {"pitch": 65, "vel": 97, "dur": 1.0, "tieStart": true, "tieEnd": false, "tieGroup": 409}]}, {"start": 3.0, "dur": 0.5, "rest": false, "notes": [{"pitch": 65, "vel": 97, "dur": 0.5, "tieStart": true, "tieEnd": true, "tieGroup": 409}]}, {"start": 3.5, "dur": 0.5, "rest": false, "notes": [{"pitch": 62, "vel": 101, "dur": 0.5, "tieStart": false, "tieEnd": false, "tieGroup": 0}, {"pitch": 65, "vel": 97, "dur": 0.5, "tieStart": false, "tieEnd": true, "tieGroup": 409}]}]}, {"ts_num": 4, "ts_den": 4, "key_fifths": 0, "key_mode": 0, "clef": 0, "tempo": 120, "velocity": 100, "lyrics": "", "expr": [], "segs": [{"start": 0.0, "dur": 0.5, "rest": false, "notes": [{"pitch": 60, "vel": 97, "dur": 0.5, "tieStart": true, "tieEnd": false, "tieGroup": 410}, {"pitch": 64, "vel": 97, "dur": 0.5, "tieStart": false, "tieEnd": false, "tieGroup": 0}]}, {"start": 0.5, "dur": 0.5, "rest": false, "notes": [{"pitch": 60, "vel": 97, "dur": 0.5, "tieStart": false, "tieEnd": true, "tieGroup": 410}]}, {"start": 1.0, "dur": 0.5, "rest": false, "notes": [{"pitch": 60, "vel": 97, "dur": 0.5, "tieStart": false, "tieEnd": false, "tieGroup": 0}, {"pitch": 62, "vel": 97, "dur": 0.5, "tieStart": false, "tieEnd": false, "tieGroup": 0}, {"pitch": 64, "vel": 97, "dur": 0.5, "tieStart": false, "tieEnd": false, "tieGroup": 0}]}, {"start": 1.5, "dur": 0.5, "rest": false, "notes": [{"pitch": 60, "vel": 97, "dur": 0.5, "tieStart": true, "tieEnd": false, "tieGroup": 411}, {"pitch": 64, "vel": 93, "dur": 0.5, "tieStart": false, "tieEnd": false, "tieGroup": 0}, {"pitch": 67, "vel": 93, "dur": 0.5, "tieStart": false, "tieEnd": false, "tieGroup": 0}]}, {"start": 2.0, "dur": 1.0, "rest": false, "notes": [{"pitch": 60, "vel": 97, "dur": 1.0, "tieStart": true, "tieEnd": true, "tieGroup": 411}, {"pitch": 64, "vel": 97, "dur": 1.0, "tieStart": false, "tieEnd": false, "tieGroup": 0}]}, {"start": 3.0, "dur": 0.5, "rest": false, "notes": [{"pitch": 60, "vel": 97, "dur": 0.5, "tieStart": true, "tieEnd": true, "tieGroup": 411}, {"pitch": 62, "vel": 97, "dur": 0.5, "tieStart": false, "tieEnd": false, "tieGroup": 0}, {"pitch": 64, "vel": 97, "dur": 0.5, "tieStart": false, "tieEnd": false, "tieGroup": 0}]}, {"start": 3.5, "dur": 0.5, "rest": false, "notes": [{"pitch": 60, "vel": 97, "dur": 0.5, "tieStart": false, "tieEnd": true, "tieGroup": 411}, {"pitch": 62, "vel": 97, "dur": 0.5, "tieStart": false, "tieEnd": false, "tieGroup": 0}]}]}, {"ts_num": 4, "ts_den": 4, "key_fifths": 0, "key_mode": 0, "clef": 0, "tempo": 120, "velocity": 100, "lyrics": "", "expr": [], "segs": [{"start": 0.0, "dur": 0.5, "rest": false, "notes": [{"pitch": 60, "vel": 97, "dur": 0.5, "tieStart": true, "tieEnd": false, "tieGroup": 412}, {"pitch": 67, "vel": 97, "dur": 0.5, "tieStart": false, "tieEnd": false, "tieGroup": 0}]}, {"start": 0.5, "dur": 0.5, "rest": false, "notes": [{"pitch": 60, "vel": 97, "dur": 0.5, "tieStart": false, "tieEnd": true, "tieGroup": 412}]}, {"start": 1.0, "dur": 0.5, "rest": false, "notes": [{"pitch": 60, "vel": 97, "dur": 0.5, "tieStart": false, "tieEnd": false, "tieGroup": 0}, {"pitch": 62, "vel": 97, "dur": 0.5, "tieStart": false, "tieEnd": false, "tieGroup": 0}]}, {"start": 1.5, "dur": 0.5, "rest": false, "notes": [{"pitch": 60, "vel": 97, "dur": 0.5, "tieStart": false, "tieEnd": false, "tieGroup": 0}, {"pitch": 64, "vel": 93, "dur": 0.5, "tieStart": false, "tieEnd": false, "tieGroup": 0}]}, {"start": 2.0, "dur": 1.0, "rest": false, "notes": [{"pitch": 60, "vel": 97, "dur": 1.0, "tieStart": false, "tieEnd": false, "tieGroup": 413}, {"pitch": 62, "vel": 93, "dur": 1.0, "tieStart": false, "tieEnd": false, "tieGroup": 0}]}, {"start": 3.0, "dur": 0.5, "rest": false, "notes": [{"pitch": 60, "vel": 97, "dur": 0.5, "tieStart": false, "tieEnd": false, "tieGroup": 0}, {"pitch": 72, "vel": 97, "dur": 0.5, "tieStart": false, "tieEnd": false, "tieGroup": 0}]}, {"start": 3.5, "dur": 0.5, "rest": false, "notes": [{"pitch": 60, "vel": 97, "dur": 0.5, "tieStart": false, "tieEnd": false, "tieGroup": 413}]}]}, {"ts_num": 4, "ts_den": 4, "key_fifths": 0, "key_mode": 0, "clef": 0, "tempo": 120, "velocity": 100, "lyrics": "", "expr": [], "segs": [{"start": 0.0, "dur": 0.5, "rest": false, "notes": [{"pitch": 62, "vel": 97, "dur": 0.5, "tieStart": true, "tieEnd": false, "tieGroup": 414}]}, {"start": 0.5, "dur": 0.5, "rest": false, "notes": [{"pitch": 62, "vel": 97, "dur": 0.5, "tieStart": false, "tieEnd": true, "tieGroup": 414}]}, {"start": 1.0, "dur": 0.5, "rest": false, "notes": [{"pitch": 67, "vel": 97, "dur": 0.5, "tieStart": true, "tieEnd": false, "tieGroup": 416}]}, {"start": 1.5, "dur": 0.5, "rest": false, "notes": [{"pitch": 62, "vel": 93, "dur": 0.5, "tieStart": false, "tieEnd": false, "tieGroup": 0}, {"pitch": 67, "vel": 97, "dur": 0.5, "tieStart": false, "tieEnd": true, "tieGroup": 416}]}, {"start": 2.0, "dur": 0.5, "rest": false, "notes": [{"pitch": 62, "vel": 97, "dur": 0.5, "tieStart": true, "tieEnd": false, "tieGroup": 417}]}, {"start": 2.5, "dur": 0.5, "rest": false, "notes": [{"pitch": 62, "vel": 97, "dur": 0.5, "tieStart": true, "tieEnd": true, "tieGroup": 417}]}, {"start": 3.0, "dur": 0.5, "rest": false, "notes": [{"pitch": 62, "vel": 97, "dur": 0.5, "tieStart": true, "tieEnd": true, "tieGroup": 417}]}, {"start": 3.5, "dur": 0.5, "rest": false, "notes": [{"pitch": 62, "vel": 97, "dur": 0.5, "tieStart": false, "tieEnd": true, "tieGroup": 417}]}]}, {"ts_num": 4, "ts_den": 4, "key_fifths": 0, "key_mode": 0, "clef": 0, "tempo": 120, "velocity": 100, "lyrics": "", "expr": [], "segs": [{"start": 0.0, "dur": 0.5, "rest": false, "notes": [{"pitch": 62, "vel": 97, "dur": 0.5, "tieStart": true, "tieEnd": false, "tieGroup": 419}]}, {"start": 0.5, "dur": 0.5, "rest": false, "notes": [{"pitch": 62, "vel": 97, "dur": 0.5, "tieStart": false, "tieEnd": true, "tieGroup": 419}]}, {"start": 1.0, "dur": 0.5, "rest": false, "notes": [{"pitch": 67, "vel": 97, "dur": 0.5, "tieStart": true, "tieEnd": false, "tieGroup": 421}]}, {"start": 1.5, "dur": 0.5, "rest": false, "notes": [{"pitch": 67, "vel": 97, "dur": 0.5, "tieStart": false, "tieEnd": true, "tieGroup": 421}]}, {"start": 2.0, "dur": 0.5, "rest": false, "notes": [{"pitch": 62, "vel": 97, "dur": 0.5, "tieStart": true, "tieEnd": false, "tieGroup": 422}]}, {"start": 2.5, "dur": 0.5, "rest": false, "notes": [{"pitch": 62, "vel": 97, "dur": 0.5, "tieStart": true, "tieEnd": true, "tieGroup": 422}, {"pitch": 67, "vel": 93, "dur": 0.5, "tieStart": false, "tieEnd": false, "tieGroup": 0}]}, {"start": 3.0, "dur": 0.5, "rest": false, "notes": [{"pitch": 62, "vel": 97, "dur": 0.5, "tieStart": true, "tieEnd": true, "tieGroup": 422}]}, {"start": 3.5, "dur": 0.5, "rest": false, "notes": [{"pitch": 62, "vel": 97, "dur": 0.5, "tieStart": false, "tieEnd": true, "tieGroup": 422}]}]}, {"ts_num": 4, "ts_den": 4, "key_fifths": 0, "key_mode": 0, "clef": 0, "tempo": 120, "velocity": 100, "lyrics": "", "expr": [], "segs": [{"start": 0.0, "dur": 0.5, "rest": false, "notes": [{"pitch": 62, "vel": 97, "dur": 0.5, "tieStart": false, "tieEnd": false, "tieGroup": 0}, {"pitch": 67, "vel": 97, "dur": 0.5, "tieStart": true, "tieEnd": false, "tieGroup": 424}]}, {"start": 0.5, "dur": 0.5, "rest": false, "notes": [{"pitch": 67, "vel": 97, "dur": 0.5, "tieStart": false, "tieEnd": true, "tieGroup": 424}]}, {"start": 1.0, "dur": 0.5, "rest": false, "notes": [{"pitch": 62, "vel": 97, "dur": 0.5, "tieStart": false, "tieEnd": false, "tieGroup": 0}]}, {"start": 1.5, "dur": 0.5, "rest": false, "notes": [{"pitch": 67, "vel": 97, "dur": 0.5, "tieStart": true, "tieEnd": false, "tieGroup": 425}]}, {"start": 2.0, "dur": 0.5, "rest": false, "notes": [{"pitch": 62, "vel": 93, "dur": 0.5, "tieStart": false, "tieEnd": false, "tieGroup": 0}, {"pitch": 67, "vel": 97, "dur": 0.5, "tieStart": true, "tieEnd": true, "tieGroup": 425}]}, {"start": 2.5, "dur": 0.5, "rest": false, "notes": [{"pitch": 67, "vel": 97, "dur": 0.5, "tieStart": true, "tieEnd": true, "tieGroup": 425}]}, {"start": 3.0, "dur": 0.5, "rest": false, "notes": [{"pitch": 67, "vel": 97, "dur": 0.5, "tieStart": true, "tieEnd": true, "tieGroup": 425}]}, {"start": 3.5, "dur": 0.5, "rest": false, "notes": [{"pitch": 67, "vel": 97, "dur": 0.5, "tieStart": false, "tieEnd": true, "tieGroup": 425}]}]}, {"ts_num": 4, "ts_den": 4, "key_fifths": 0, "key_mode": 0, "clef": 0, "tempo": 120, "velocity": 100, "lyrics": "", "expr": [], "segs": [{"start": 0.0, "dur": 0.5, "rest": false, "notes": [{"pitch": 67, "vel": 97, "dur": 0.5, "tieStart": true, "tieEnd": false, "tieGroup": 427}]}, {"start": 0.5, "dur": 0.5, "rest": false, "notes": [{"pitch": 62, "vel": 105, "dur": 0.5, "tieStart": false, "tieEnd": false, "tieGroup": 0}, {"pitch": 67, "vel": 97, "dur": 0.5, "tieStart": false, "tieEnd": true, "tieGroup": 427}]}, {"start": 1.0, "dur": 0.5, "rest": false, "notes": [{"pitch": 62, "vel": 97, "dur": 0.5, "tieStart": true, "tieEnd": false, "tieGroup": 429}]}, {"start": 1.5, "dur": 0.5, "rest": false, "notes": [{"pitch": 62, "vel": 97, "dur": 0.5, "tieStart": false, "tieEnd": true, "tieGroup": 429}]}, {"start": 2.0, "dur": 0.5, "rest": false, "notes": [{"pitch": 62, "vel": 101, "dur": 0.5, "tieStart": false, "tieEnd": false, "tieGroup": 0}, {"pitch": 67, "vel": 97, "dur": 0.5, "tieStart": true, "tieEnd": false, "tieGroup": 430}]}, {"start": 2.5, "dur": 0.5, "rest": false, "notes": [{"pitch": 67, "vel": 97, "dur": 0.5, "tieStart": true, "tieEnd": true, "tieGroup": 430}]}, {"start": 3.0, "dur": 0.5, "rest": false, "notes": [{"pitch": 67, "vel": 97, "dur": 0.5, "tieStart": true, "tieEnd": true, "tieGroup": 430}]}, {"start": 3.5, "dur": 0.5, "rest": false, "notes": [{"pitch": 67, "vel": 97, "dur": 0.5, "tieStart": false, "tieEnd": true, "tieGroup": 430}, {"pitch": 69, "vel": 105, "dur": 0.5, "tieStart": false, "tieEnd": false, "tieGroup": 0}]}]}, {"ts_num": 4, "ts_den": 4, "key_fifths": 0, "key_mode": 0, "clef": 0, "tempo": 120, "velocity": 100, "lyrics": "", "expr": [], "segs": [{"start": 0.0, "dur": 0.5, "rest": false, "notes": [{"pitch": 60, "vel": 93, "dur": 0.5, "tieStart": false, "tieEnd": false, "tieGroup": 0}, {"pitch": 64, "vel": 89, "dur": 0.5, "tieStart": false, "tieEnd": false, "tieGroup": 0}, {"pitch": 69, "vel": 100, "dur": 0.5, "tieStart": true, "tieEnd": false, "tieGroup": 432}]}, {"start": 0.5, "dur": 0.5, "rest": false, "notes": [{"pitch": 64, "vel": 97, "dur": 0.5, "tieStart": false, "tieEnd": false, "tieGroup": 0}, {"pitch": 69, "vel": 100, "dur": 0.5, "tieStart": false, "tieEnd": true, "tieGroup": 432}]}, {"start": 1.0, "dur": 0.5, "rest": false, "notes": [{"pitch": 67, "vel": 100, "dur": 0.5, "tieStart": false, "tieEnd": false, "tieGroup": 0}]}, {"start": 1.5, "dur": 0.5, "rest": false, "notes": [{"pitch": 60, "vel": 97, "dur": 0.5, "tieStart": false, "tieEnd": false, "tieGroup": 0}, {"pitch": 64, "vel": 100, "dur": 0.5, "tieStart": false, "tieEnd": false, "tieGroup": 0}, {"pitch": 69, "vel": 85, "dur": 0.5, "tieStart": false, "tieEnd": false, "tieGroup": 0}, {"pitch": 71, "vel": 81, "dur": 0.5, "tieStart": false, "tieEnd": false, "tieGroup": 0}]}, {"start": 2.0, "dur": 0.5, "rest": false, "notes": [{"pitch": 64, "vel": 100, "dur": 0.5, "tieStart": false, "tieEnd": false, "tieGroup": 0}, {"pitch": 71, "vel": 81, "dur": 0.5, "tieStart": false, "tieEnd": false, "tieGroup": 0}]}, {"start": 2.5, "dur": 0.5, "rest": false, "notes": [{"pitch": 69, "vel": 100, "dur": 0.5, "tieStart": false, "tieEnd": false, "tieGroup": 0}]}, {"start": 3.0, "dur": 0.5, "rest": false, "notes": [{"pitch": 69, "vel": 100, "dur": 0.5, "tieStart": false, "tieEnd": false, "tieGroup": 0}]}, {"start": 3.5, "dur": 0.5, "rest": false, "notes": [{"pitch": 60, "vel": 93, "dur": 0.5, "tieStart": false, "tieEnd": false, "tieGroup": 0}, {"pitch": 69, "vel": 100, "dur": 0.5, "tieStart": false, "tieEnd": false, "tieGroup": 0}, {"pitch": 71, "vel": 81, "dur": 0.5, "tieStart": false, "tieEnd": false, "tieGroup": 0}]}]}, {"ts_num": 4, "ts_den": 4, "key_fifths": 0, "key_mode": 0, "clef": 0, "tempo": 120, "velocity": 100, "lyrics": "", "expr": [], "segs": [{"start": 0.0, "dur": 1.0, "rest": false, "notes": [{"pitch": 69, "vel": 100, "dur": 1.0, "tieStart": false, "tieEnd": false, "tieGroup": 0}]}, {"start": 1.0, "dur": 1.0, "rest": true, "notes": []}, {"start": 2.0, "dur": 1.0, "rest": false, "notes": [{"pitch": 60, "vel": 93, "dur": 1.0, "tieStart": false, "tieEnd": false, "tieGroup": 509}, {"pitch": 64, "vel": 89, "dur": 1.0, "tieStart": false, "tieEnd": false, "tieGroup": 0}]}, {"start": 3.0, "dur": 1.0, "rest": false, "notes": [{"pitch": 60, "vel": 97, "dur": 1.0, "tieStart": false, "tieEnd": false, "tieGroup": 0}]}]}, {"ts_num": 4, "ts_den": 4, "key_fifths": 0, "key_mode": 0, "clef": 0, "tempo": 120, "velocity": 100, "lyrics": "", "expr": [], "segs": [{"start": 0.0, "dur": 0.5, "rest": false, "notes": [{"pitch": 62, "vel": 85, "dur": 0.5, "tieStart": false, "tieEnd": false, "tieGroup": 0}, {"pitch": 67, "vel": 97, "dur": 0.5, "tieStart": true, "tieEnd": false, "tieGroup": 433}, {"pitch": 69, "vel": 81, "dur": 0.5, "tieStart": false, "tieEnd": false, "tieGroup": 0}]}, {"start": 0.5, "dur": 0.5, "rest": false, "notes": [{"pitch": 67, "vel": 97, "dur": 0.5, "tieStart": false, "tieEnd": true, "tieGroup": 433}]}, {"start": 1.0, "dur": 1.0, "rest": false, "notes": [{"pitch": 65, "vel": 97, "dur": 1.0, "tieStart": false, "tieEnd": false, "tieGroup": 0}]}, {"start": 2.0, "dur": 0.5, "rest": false, "notes": [{"pitch": 67, "vel": 97, "dur": 0.5, "tieStart": false, "tieEnd": false, "tieGroup": 0}]}, {"start": 2.5, "dur": 0.5, "rest": false, "notes": [{"pitch": 64, "vel": 97, "dur": 0.5, "tieStart": false, "tieEnd": false, "tieGroup": 0}]}, {"start": 3.0, "dur": 1.0, "rest": false, "notes": [{"pitch": 62, "vel": 97, "dur": 1.0, "tieStart": false, "tieEnd": false, "tieGroup": 0}]}]}, {"ts_num": 4, "ts_den": 4, "key_fifths": 0, "key_mode": 0, "clef": 0, "tempo": 120, "velocity": 100, "lyrics": "", "expr": [], "segs": [{"start": 0.0, "dur": 0.5, "rest": false, "notes": [{"pitch": 67, "vel": 97, "dur": 0.5, "tieStart": true, "tieEnd": false, "tieGroup": 434}, {"pitch": 78, "vel": 81, "dur": 0.5, "tieStart": false, "tieEnd": false, "tieGroup": 0}]}, {"start": 0.5, "dur": 0.5, "rest": false, "notes": [{"pitch": 67, "vel": 97, "dur": 0.5, "tieStart": false, "tieEnd": true, "tieGroup": 434}]}, {"start": 1.0, "dur": 1.0, "rest": false, "notes": [{"pitch": 62, "vel": 97, "dur": 1.0, "tieStart": false, "tieEnd": false, "tieGroup": 0}, {"pitch": 64, "vel": 93, "dur": 1.0, "tieStart": false, "tieEnd": false, "tieGroup": 0}, {"pitch": 67, "vel": 93, "dur": 1.0, "tieStart": false, "tieEnd": false, "tieGroup": 0}]}, {"start": 2.0, "dur": 0.5, "rest": false, "notes": [{"pitch": 67, "vel": 97, "dur": 0.5, "tieStart": false, "tieEnd": false, "tieGroup": 0}, {"pitch": 71, "vel": 89, "dur": 0.5, "tieStart": false, "tieEnd": false, "tieGroup": 0}]}, {"start": 2.5, "dur": 0.25, "rest": false, "notes": [{"pitch": 69, "vel": 97, "dur": 0.25, "tieStart": false, "tieEnd": false, "tieGroup": 0}]}, {"start": 2.75, "dur": 0.25, "rest": false, "notes": [{"pitch": 64, "vel": 97, "dur": 0.25, "tieStart": true, "tieEnd": false, "tieGroup": 436}]}, {"start": 3.0, "dur": 1.0, "rest": false, "notes": [{"pitch": 64, "vel": 97, "dur": 1.0, "tieStart": false, "tieEnd": true, "tieGroup": 436}, {"pitch": 71, "vel": 85, "dur": 1.0, "tieStart": false, "tieEnd": false, "tieGroup": 435}, {"pitch": 76, "vel": 85, "dur": 1.0, "tieStart": false, "tieEnd": false, "tieGroup": 0}]}]}, {"ts_num": 4, "ts_den": 4, "key_fifths": 0, "key_mode": 0, "clef": 0, "tempo": 120, "velocity": 100, "lyrics": "", "expr": [], "segs": [{"start": 0.0, "dur": 1.0, "rest": false, "notes": [{"pitch": 64, "vel": 93, "dur": 1.0, "tieStart": false, "tieEnd": false, "tieGroup": 0}, {"pitch": 66, "vel": 93, "dur": 1.0, "tieStart": false, "tieEnd": false, "tieGroup": 0}, {"pitch": 67, "vel": 97, "dur": 1.0, "tieStart": false, "tieEnd": false, "tieGroup": 0}]}, {"start": 1.0, "dur": 0.5, "rest": false, "notes": [{"pitch": 62, "vel": 97, "dur": 0.5, "tieStart": true, "tieEnd": false, "tieGroup": 438}]}, {"start": 1.5, "dur": 0.5, "rest": false, "notes": [{"pitch": 62, "vel": 97, "dur": 0.5, "tieStart": false, "tieEnd": true, "tieGroup": 438}, {"pitch": 64, "vel": 97, "dur": 0.5, "tieStart": false, "tieEnd": false, "tieGroup": 0}]}, {"start": 2.0, "dur": 0.5, "rest": false, "notes": [{"pitch": 66, "vel": 97, "dur": 0.5, "tieStart": true, "tieEnd": false, "tieGroup": 441}, {"pitch": 67, "vel": 97, "dur": 0.5, "tieStart": false, "tieEnd": false, "tieGroup": 0}]}, {"start": 2.5, "dur": 0.25, "rest": false, "notes": [{"pitch": 66, "vel": 97, "dur": 0.25, "tieStart": true, "tieEnd": true, "tieGroup": 441}, {"pitch": 69, "vel": 97, "dur": 0.25, "tieStart": false, "tieEnd": false, "tieGroup": 0}]}, {"start": 2.75, "dur": 0.25, "rest": false, "notes": [{"pitch": 64, "vel": 97, "dur": 0.25, "tieStart": true, "tieEnd": false, "tieGroup": 439}, {"pitch": 66, "vel": 97, "dur": 0.25, "tieStart": false, "tieEnd": true, "tieGroup": 441}]}, {"start": 3.0, "dur": 1.0, "rest": false, "notes": [{"pitch": 64, "vel": 97, "dur": 1.0, "tieStart": false, "tieEnd": true, "tieGroup": 439}]}]}, {"ts_num": 4, "ts_den": 4, "key_fifths": 0, "key_mode": 0, "clef": 0, "tempo": 120, "velocity": 100, "lyrics": "", "expr": [], "segs": [{"start": 0.0, "dur": 0.5, "rest": false, "notes": [{"pitch": 69, "vel": 97, "dur": 0.5, "tieStart": true, "tieEnd": false, "tieGroup": 444}]}, {"start": 0.5, "dur": 0.5, "rest": false, "notes": [{"pitch": 67, "vel": 97, "dur": 0.5, "tieStart": false, "tieEnd": false, "tieGroup": 0}, {"pitch": 69, "vel": 97, "dur": 0.5, "tieStart": false, "tieEnd": true, "tieGroup": 444}]}, {"start": 1.0, "dur": 0.5, "rest": false, "notes": [{"pitch": 69, "vel": 97, "dur": 0.5, "tieStart": true, "tieEnd": false, "tieGroup": 446}]}, {"start": 1.5, "dur": 0.5, "rest": false, "notes": [{"pitch": 69, "vel": 97, "dur": 0.5, "tieStart": false, "tieEnd": true, "tieGroup": 446}]}, {"start": 2.0, "dur": 0.75, "rest": false, "notes": [{"pitch": 60, "vel": 97, "dur": 0.75, "tieStart": true, "tieEnd": false, "tieGroup": 450}, {"pitch": 64, "vel": 97, "dur": 0.75, "tieStart": false, "tieEnd": false, "tieGroup": 0}]}, {"start": 2.75, "dur": 0.25, "rest": false, "notes": [{"pitch": 60, "vel": 97, "dur": 0.25, "tieStart": false, "tieEnd": true, "tieGroup": 450}, {"pitch": 67, "vel": 97, "dur": 0.25, "tieStart": true, "tieEnd": false, "tieGroup": 447}]}, {"start": 3.0, "dur": 1.0, "rest": false, "notes": [{"pitch": 60, "vel": 81, "dur": 1.0, "tieStart": false, "tieEnd": false, "tieGroup": 0}, {"pitch": 64, "vel": 97, "dur": 1.0, "tieStart": false, "tieEnd": false, "tieGroup": 0}, {"pitch": 67, "vel": 97, "dur": 1.0, "tieStart": false, "tieEnd": true, "tieGroup": 447}, {"pitch": 69, "vel": 97, "dur": 1.0, "tieStart": false, "tieEnd": false, "tieGroup": 0}]}]}, {"ts_num": 4, "ts_den": 4, "key_fifths": 0, "key_mode": 0, "clef": 0, "tempo": 120, "velocity": 100, "lyrics": "", "expr": [], "segs": [{"start": 0.0, "dur": 1.0, "rest": false, "notes": [{"pitch": 60, "vel": 85, "dur": 1.0, "tieStart": false, "tieEnd": false, "tieGroup": 0}, {"pitch": 65, "vel": 97, "dur": 1.0, "tieStart": false, "tieEnd": false, "tieGroup": 0}, {"pitch": 69, "vel": 97, "dur": 1.0, "tieStart": false, "tieEnd": false, "tieGroup": 0}]}, {"start": 1.0, "dur": 0.25, "rest": false, "notes": [{"pitch": 64, "vel": 97, "dur": 0.25, "tieStart": false, "tieEnd": false, "tieGroup": 0}]}, {"start": 1.25, "dur": 0.25, "rest": false, "notes": [{"pitch": 67, "vel": 97, "dur": 0.25, "tieStart": true, "tieEnd": false, "tieGroup": 451}]}, {"start": 1.5, "dur": 0.5, "rest": false, "notes": [{"pitch": 67, "vel": 97, "dur": 0.5, "tieStart": true, "tieEnd": true, "tieGroup": 451}, {"pitch": 69, "vel": 89, "dur": 0.5, "tieStart": false, "tieEnd": false, "tieGroup": 0}, {"pitch": 72, "vel": 85, "dur": 0.5, "tieStart": false, "tieEnd": false, "tieGroup": 0}]}, {"start": 2.0, "dur": 0.5, "rest": false, "notes": [{"pitch": 67, "vel": 97, "dur": 0.5, "tieStart": false, "tieEnd": true, "tieGroup": 451}]}, {"start": 2.5, "dur": 0.5, "rest": false, "notes": [{"pitch": 65, "vel": 97, "dur": 0.5, "tieStart": true, "tieEnd": false, "tieGroup": 453}]}, {"start": 3.0, "dur": 1.0, "rest": false, "notes": [{"pitch": 60, "vel": 97, "dur": 1.0, "tieStart": false, "tieEnd": false, "tieGroup": 0}, {"pitch": 65, "vel": 97, "dur": 1.0, "tieStart": false, "tieEnd": true, "tieGroup": 453}]}]}, {"ts_num": 4, "ts_den": 4, "key_fifths": 0, "key_mode": 0, "clef": 0, "tempo": 120, "velocity": 100, "lyrics": "", "expr": [], "segs": [{"start": 0.0, "dur": 1.0, "rest": false, "notes": [{"pitch": 60, "vel": 89, "dur": 1.0, "tieStart": false, "tieEnd": false, "tieGroup": 0}, {"pitch": 64, "vel": 85, "dur": 1.0, "tieStart": false, "tieEnd": false, "tieGroup": 0}, {"pitch": 67, "vel": 97, "dur": 1.0, "tieStart": false, "tieEnd": false, "tieGroup": 0}]}, {"start": 1.0, "dur": 1.0, "rest": false, "notes": [{"pitch": 60, "vel": 89, "dur": 1.0, "tieStart": false, "tieEnd": false, "tieGroup": 0}, {"pitch": 64, "vel": 97, "dur": 1.0, "tieStart": false, "tieEnd": false, "tieGroup": 0}]}, {"start": 2.0, "dur": 0.5, "rest": false, "notes": [{"pitch": 60, "vel": 93, "dur": 0.5, "tieStart": false, "tieEnd": false, "tieGroup": 0}, {"pitch": 62, "vel": 89, "dur": 0.5, "tieStart": false, "tieEnd": false, "tieGroup": 0}, {"pitch": 64, "vel": 97, "dur": 0.5, "tieStart": false, "tieEnd": false, "tieGroup": 0}, {"pitch": 67, "vel": 81, "dur": 0.5, "tieStart": false, "tieEnd": false, "tieGroup": 0}]}, {"start": 2.5, "dur": 1.5, "rest": false, "notes": [{"pitch": 60, "vel": 93, "dur": 1.5, "tieStart": false, "tieEnd": false, "tieGroup": 0}, {"pitch": 62, "vel": 97, "dur": 1.5, "tieStart": false, "tieEnd": false, "tieGroup": 0}, {"pitch": 64, "vel": 89, "dur": 1.5, "tieStart": false, "tieEnd": false, "tieGroup": 0}, {"pitch": 67, "vel": 85, "dur": 1.5, "tieStart": false, "tieEnd": false, "tieGroup": 0}]}]}, {"ts_num": 4, "ts_den": 4, "key_fifths": 0, "key_mode": 0, "clef": 0, "tempo": 120, "velocity": 100, "lyrics": "", "expr": [], "segs": [{"start": 0.0, "dur": 0.5, "rest": false, "notes": [{"pitch": 67, "vel": 97, "dur": 0.5, "tieStart": true, "tieEnd": false, "tieGroup": 458}]}, {"start": 0.5, "dur": 0.5, "rest": false, "notes": [{"pitch": 67, "vel": 97, "dur": 0.5, "tieStart": false, "tieEnd": true, "tieGroup": 458}]}, {"start": 1.0, "dur": 0.5, "rest": false, "notes": [{"pitch": 62, "vel": 97, "dur": 0.5, "tieStart": true, "tieEnd": false, "tieGroup": 459}]}, {"start": 1.5, "dur": 0.5, "rest": false, "notes": [{"pitch": 62, "vel": 97, "dur": 0.5, "tieStart": false, "tieEnd": true, "tieGroup": 459}]}, {"start": 2.0, "dur": 1.5, "rest": true, "notes": []}, {"start": 3.5, "dur": 0.5, "rest": false, "notes": [{"pitch": 62, "vel": 97, "dur": 0.5, "tieStart": false, "tieEnd": false, "tieGroup": 512}]}]}, {"ts_num": 4, "ts_den": 4, "key_fifths": 0, "key_mode": 0, "clef": 0, "tempo": 120, "velocity": 100, "lyrics": "", "expr": [], "segs": [{"start": 0.0, "dur": 1.0, "rest": true, "notes": []}, {"start": 1.0, "dur": 0.5, "rest": false, "notes": [{"pitch": 62, "vel": 97, "dur": 0.5, "tieStart": false, "tieEnd": false, "tieGroup": 513}]}, {"start": 1.5, "dur": 0.5, "rest": false, "notes": [{"pitch": 60, "vel": 97, "dur": 0.5, "tieStart": true, "tieEnd": false, "tieGroup": 462}, {"pitch": 67, "vel": 81, "dur": 0.5, "tieStart": false, "tieEnd": false, "tieGroup": 0}]}, {"start": 2.0, "dur": 1.0, "rest": false, "notes": [{"pitch": 60, "vel": 97, "dur": 1.0, "tieStart": true, "tieEnd": true, "tieGroup": 462}]}, {"start": 3.0, "dur": 0.5, "rest": false, "notes": [{"pitch": 60, "vel": 97, "dur": 0.5, "tieStart": true, "tieEnd": true, "tieGroup": 462}]}, {"start": 3.5, "dur": 0.5, "rest": false, "notes": [{"pitch": 60, "vel": 97, "dur": 0.5, "tieStart": false, "tieEnd": true, "tieGroup": 462}]}]}, {"ts_num": 4, "ts_den": 4, "key_fifths": 0, "key_mode": 0, "clef": 0, "tempo": 120, "velocity": 100, "lyrics": "", "expr": [], "segs": [{"start": 0.0, "dur": 1.0, "rest": false, "notes": [{"pitch": 60, "vel": 100, "dur": 1.0, "tieStart": false, "tieEnd": false, "tieGroup": 0}]}, {"start": 1.0, "dur": 1.0, "rest": false, "notes": [{"pitch": 64, "vel": 93, "dur": 1.0, "tieStart": true, "tieEnd": false, "tieGroup": 464}, {"pitch": 67, "vel": 89, "dur": 1.0, "tieStart": true, "tieEnd": false, "tieGroup": 465}]}, {"start": 2.0, "dur": 2.0, "rest": false, "notes": [{"pitch": 60, "vel": 100, "dur": 2.0, "tieStart": false, "tieEnd": false, "tieGroup": 18}, {"pitch": 64, "vel": 93, "dur": 2.0, "tieStart": false, "tieEnd": true, "tieGroup": 464}, {"pitch": 67, "vel": 89, "dur": 2.0, "tieStart": false, "tieEnd": true, "tieGroup": 465}]}]}, {"ts_num": 4, "ts_den": 4, "key_fifths": 0, "key_mode": 0, "clef": 0, "tempo": 120, "velocity": 100, "lyrics": "", "expr": [], "segs": [{"start": 0.0, "dur": 1.0, "rest": false, "notes": [{"pitch": 67, "vel": 93, "dur": 1.0, "tieStart": false, "tieEnd": false, "tieGroup": 0}, {"pitch": 71, "vel": 89, "dur": 1.0, "tieStart": false, "tieEnd": false, "tieGroup": 0}, {"pitch": 74, "vel": 85, "dur": 1.0, "tieStart": false, "tieEnd": false, "tieGroup": 0}]}, {"start": 1.0, "dur": 1.0, "rest": false, "notes": [{"pitch": 60, "vel": 100, "dur": 1.0, "tieStart": false, "tieEnd": false, "tieGroup": 0}, {"pitch": 67, "vel": 93, "dur": 1.0, "tieStart": false, "tieEnd": false, "tieGroup": 0}, {"pitch": 71, "vel": 89, "dur": 1.0, "tieStart": false, "tieEnd": false, "tieGroup": 0}, {"pitch": 74, "vel": 85, "dur": 1.0, "tieStart": false, "tieEnd": false, "tieGroup": 0}]}, {"start": 2.0, "dur": 1.0, "rest": false, "notes": [{"pitch": 62, "vel": 100, "dur": 1.0, "tieStart": false, "tieEnd": false, "tieGroup": 0}, {"pitch": 67, "vel": 93, "dur": 1.0, "tieStart": false, "tieEnd": false, "tieGroup": 0}, {"pitch": 71, "vel": 89, "dur": 1.0, "tieStart": false, "tieEnd": false, "tieGroup": 0}, {"pitch": 74, "vel": 85, "dur": 1.0, "tieStart": false, "tieEnd": false, "tieGroup": 0}]}, {"start": 3.0, "dur": 0.5, "rest": false, "notes": [{"pitch": 60, "vel": 100, "dur": 0.5, "tieStart": false, "tieEnd": false, "tieGroup": 0}, {"pitch": 62, "vel": 93, "dur": 0.5, "tieStart": true, "tieEnd": false, "tieGroup": 467}, {"pitch": 67, "vel": 89, "dur": 0.5, "tieStart": true, "tieEnd": false, "tieGroup": 468}, {"pitch": 69, "vel": 85, "dur": 0.5, "tieStart": true, "tieEnd": false, "tieGroup": 469}, {"pitch": 71, "vel": 81, "dur": 0.5, "tieStart": true, "tieEnd": false, "tieGroup": 470}]}, {"start": 3.5, "dur": 0.5, "rest": false, "notes": [{"pitch": 62, "vel": 93, "dur": 0.5, "tieStart": false, "tieEnd": true, "tieGroup": 467}, {"pitch": 67, "vel": 89, "dur": 0.5, "tieStart": false, "tieEnd": true, "tieGroup": 468}, {"pitch": 69, "vel": 85, "dur": 0.5, "tieStart": false, "tieEnd": true, "tieGroup": 469}, {"pitch": 71, "vel": 81, "dur": 0.5, "tieStart": false, "tieEnd": true, "tieGroup": 470}]}]}, {"ts_num": 4, "ts_den": 4, "key_fifths": 0, "key_mode": 0, "clef": 0, "tempo": 120, "velocity": 100, "lyrics": "", "expr": [], "segs": [{"start": 0.0, "dur": 0.5, "rest": false, "notes": [{"pitch": 69, "vel": 100, "dur": 0.5, "tieStart": false, "tieEnd": false, "tieGroup": 0}]}, {"start": 0.5, "dur": 0.5, "rest": false, "notes": [{"pitch": 60, "vel": 94, "dur": 0.5, "tieStart": false, "tieEnd": false, "tieGroup": 473}]}, {"start": 1.0, "dur": 1.0, "rest": false, "notes": [{"pitch": 69, "vel": 100, "dur": 1.0, "tieStart": false, "tieEnd": false, "tieGroup": 19}]}, {"start": 2.0, "dur": 2.0, "rest": false, "notes": [{"pitch": 60, "vel": 100, "dur": 2.0, "tieStart": false, "tieEnd": false, "tieGroup": 0}]}]}, {"ts_num": 4, "ts_den": 4, "key_fifths": 0, "key_mode": 0, "clef": 0, "tempo": 120, "velocity": 100, "lyrics": "", "expr": [], "segs": [{"start": 0.0, "dur": 4.0, "rest": true, "notes": []}]}, {"ts_num": 4, "ts_den": 4, "key_fifths": 0, "key_mode": 0, "clef": 0, "tempo": 120, "velocity": 100, "lyrics": "", "expr": [], "segs": [{"start": 0.0, "dur": 4.0, "rest": true, "notes": []}]}]}, {"name": "Piano Low", "instrument": {"name": "Grand Piano", "bankMSB": 0, "bankLSB": 0, "program": 0, "channelHint": -1, "percussion": false, "volume": 100, "pan": 64, "transpose": 0}, "measures": [{"ts_num": 4, "ts_den": 4, "key_fifths": 0, "key_mode": 0, "clef": 1, "tempo": 120, "velocity": 100, "lyrics": "", "expr": [], "segs": [{"start": 0.0, "dur": 0.5, "rest": false, "notes": [{"pitch": 45, "vel": 97, "dur": 0.5, "tieStart": false, "tieEnd": false, "tieGroup": 0}, {"pitch": 57, "vel": 97, "dur": 0.5, "tieStart": false, "tieEnd": false, "tieGroup": 0}]}, {"start": 0.5, "dur": 0.5, "rest": true, "notes": []}, {"start": 1.0, "dur": 0.5, "rest": false, "notes": [{"pitch": 48, "vel": 97, "dur": 0.5, "tieStart": true, "tieEnd": false, "tieGroup": 231}]}, {"start": 1.5, "dur": 0.5, "rest": false, "notes": [{"pitch": 48, "vel": 97, "dur": 0.5, "tieStart": false, "tieEnd": true, "tieGroup": 231}]}, {"start": 2.0, "dur": 1.0, "rest": true, "notes": []}, {"start": 3.0, "dur": 0.5, "rest": false, "notes": [{"pitch": 57, "vel": 97, "dur": 0.5, "tieStart": true, "tieEnd": false, "tieGroup": 233}]}, {"start": 3.5, "dur": 0.5, "rest": false, "notes": [{"pitch": 57, "vel": 97, "dur": 0.5, "tieStart": false, "tieEnd": true, "tieGroup": 233}]}]}, {"ts_num": 4, "ts_den": 4, "key_fifths": 0, "key_mode": 0, "clef": 1, "tempo": 120, "velocity": 100, "lyrics": "", "expr": [], "segs": [{"start": 0.0, "dur": 1.0, "rest": false, "notes": [{"pitch": 45, "vel": 97, "dur": 1.0, "tieStart": true, "tieEnd": false, "tieGroup": 236}, {"pitch": 57, "vel": 97, "dur": 1.0, "tieStart": true, "tieEnd": false, "tieGroup": 237}]}, {"start": 1.0, "dur": 0.5, "rest": false, "notes": [{"pitch": 45, "vel": 97, "dur": 0.5, "tieStart": false, "tieEnd": true, "tieGroup": 236}, {"pitch": 57, "vel": 97, "dur": 0.5, "tieStart": false, "tieEnd": true, "tieGroup": 237}]}, {"start": 1.5, "dur": 2.5, "rest": true, "notes": []}]}, {"ts_num": 4, "ts_den": 4, "key_fifths": 0, "key_mode": 0, "clef": 1, "tempo": 120, "velocity": 100, "lyrics": "", "expr": [], "segs": [{"start": 0.0, "dur": 1.0, "rest": false, "notes": [{"pitch": 45, "vel": 97, "dur": 1.0, "tieStart": true, "tieEnd": false, "tieGroup": 246}]}, {"start": 1.0, "dur": 0.5, "rest": false, "notes": [{"pitch": 45, "vel": 97, "dur": 0.5, "tieStart": false, "tieEnd": true, "tieGroup": 246}]}, {"start": 1.5, "dur": 0.5, "rest": false, "notes": [{"pitch": 57, "vel": 97, "dur": 0.5, "tieStart": true, "tieEnd": false, "tieGroup": 249}]}, {"start": 2.0, "dur": 0.5, "rest": false, "notes": [{"pitch": 57, "vel": 97, "dur": 0.5, "tieStart": false, "tieEnd": true, "tieGroup": 249}]}, {"start": 2.5, "dur": 0.25, "rest": false, "notes": [{"pitch": 57, "vel": 97, "dur": 0.25, "tieStart": true, "tieEnd": false, "tieGroup": 253}]}, {"start": 2.75, "dur": 0.25, "rest": false, "notes": [{"pitch": 57, "vel": 97, "dur": 0.25, "tieStart": false, "tieEnd": true, "tieGroup": 253}]}, {"start": 3.0, "dur": 1.0, "rest": true, "notes": []}]}, {"ts_num": 4, "ts_den": 4, "key_fifths": 0, "key_mode": 0, "clef": 1, "tempo": 120, "velocity": 100, "lyrics": "", "expr": [], "segs": [{"start": 0.0, "dur": 1.0, "rest": false, "notes": [{"pitch": 52, "vel": 97, "dur": 1.0, "tieStart": false, "tieEnd": false, "tieGroup": 0}]}, {"start": 1.0, "dur": 1.0, "rest": false, "notes": [{"pitch": 52, "vel": 97, "dur": 1.0, "tieStart": false, "tieEnd": false, "tieGroup": 0}, {"pitch": 59, "vel": 93, "dur": 1.0, "tieStart": false, "tieEnd": false, "tieGroup": 0}]}, {"start": 2.0, "dur": 0.75, "rest": false, "notes": [{"pitch": 52, "vel": 97, "dur": 0.75, "tieStart": true, "tieEnd": false, "tieGroup": 257}]}, {"start": 2.75, "dur": 0.25, "rest": false, "notes": [{"pitch": 52, "vel": 97, "dur": 0.25, "tieStart": false, "tieEnd": true, "tieGroup": 257}]}, {"start": 3.0, "dur": 1.0, "rest": false, "notes": [{"pitch": 52, "vel": 97, "dur": 1.0, "tieStart": false, "tieEnd": false, "tieGroup": 0}, {"pitch": 59, "vel": 93, "dur": 1.0, "tieStart": false, "tieEnd": false, "tieGroup": 0}]}]}, {"ts_num": 4, "ts_den": 4, "key_fifths": 0, "key_mode": 0, "clef": 1, "tempo": 120, "velocity": 100, "lyrics": "", "expr": [], "segs": [{"start": 0.0, "dur": 1.0, "rest": false, "notes": [{"pitch": 45, "vel": 97, "dur": 1.0, "tieStart": false, "tieEnd": false, "tieGroup": 0}, {"pitch": 52, "vel": 97, "dur": 1.0, "tieStart": false, "tieEnd": false, "tieGroup": 0}]}, {"start": 1.0, "dur": 1.0, "rest": false, "notes": [{"pitch": 57, "vel": 97, "dur": 1.0, "tieStart": false, "tieEnd": false, "tieGroup": 0}]}, {"start": 2.0, "dur": 0.75, "rest": false, "notes": [{"pitch": 52, "vel": 97, "dur": 0.75, "tieStart": true, "tieEnd": false, "tieGroup": 261}]}, {"start": 2.75, "dur": 0.25, "rest": false, "notes": [{"pitch": 52, "vel": 97, "dur": 0.25, "tieStart": false, "tieEnd": true, "tieGroup": 261}]}, {"start": 3.0, "dur": 0.25, "rest": false, "notes": [{"pitch": 57, "vel": 97, "dur": 0.25, "tieStart": true, "tieEnd": false, "tieGroup": 262}]}, {"start": 3.25, "dur": 0.75, "rest": false, "notes": [{"pitch": 57, "vel": 97, "dur": 0.75, "tieStart": false, "tieEnd": true, "tieGroup": 262}]}]}, {"ts_num": 4, "ts_den": 4, "key_fifths": 0, "key_mode": 0, "clef": 1, "tempo": 120, "velocity": 100, "lyrics": "", "expr": [], "segs": [{"start": 0.0, "dur": 1.0, "rest": false, "notes": [{"pitch": 45, "vel": 97, "dur": 1.0, "tieStart": false, "tieEnd": false, "tieGroup": 0}, {"pitch": 57, "vel": 97, "dur": 1.0, "tieStart": false, "tieEnd": false, "tieGroup": 0}, {"pitch": 59, "vel": 97, "dur": 1.0, "tieStart": false, "tieEnd": false, "tieGroup": 0}]}, {"start": 1.0, "dur": 1.0, "rest": false, "notes": [{"pitch": 59, "vel": 97, "dur": 1.0, "tieStart": false, "tieEnd": false, "tieGroup": 0}]}, {"start": 2.0, "dur": 0.75, "rest": false, "notes": [{"pitch": 57, "vel": 97, "dur": 0.75, "tieStart": true, "tieEnd": false, "tieGroup": 263}]}, {"start": 2.75, "dur": 0.25, "rest": false, "notes": [{"pitch": 57, "vel": 97, "dur": 0.25, "tieStart": false, "tieEnd": true, "tieGroup": 263}]}, {"start": 3.0, "dur": 0.25, "rest": false, "notes": [{"pitch": 57, "vel": 97, "dur": 0.25, "tieStart": true, "tieEnd": false, "tieGroup": 266}]}, {"start": 3.25, "dur": 0.75, "rest": false, "notes": [{"pitch": 57, "vel": 97, "dur": 0.75, "tieStart": false, "tieEnd": true, "tieGroup": 266}]}]}, {"ts_num": 4, "ts_den": 4, "key_fifths": 0, "key_mode": 0, "clef": 1, "tempo": 120, "velocity": 100, "lyrics": "", "expr": [], "segs": [{"start": 0.0, "dur": 1.0, "rest": false, "notes": [{"pitch": 45, "vel": 97, "dur": 1.0, "tieStart": false, "tieEnd": false, "tieGroup": 0}]}, {"start": 1.0, "dur": 0.5, "rest": true, "notes": []}, {"start": 1.5, "dur": 0.5, "rest": false, "notes": [{"pitch": 57, "vel": 97, "dur": 0.5, "tieStart": false, "tieEnd": false, "tieGroup": 268}]}, {"start": 2.0, "dur": 1.0, "rest": false, "notes": [{"pitch": 57, "vel": 97, "dur": 1.0, "tieStart": false, "tieEnd": false, "tieGroup": 0}]}, {"start": 3.0, "dur": 1.0, "rest": true, "notes": []}]}, {"ts_num": 4, "ts_den": 4, "key_fifths": 0, "key_mode": 0, "clef": 1, "tempo": 120, "velocity": 100, "lyrics": "", "expr": [], "segs": [{"start": 0.0, "dur": 1.0, "rest": false, "notes": [{"pitch": 48, "vel": 97, "dur": 1.0, "tieStart": false, "tieEnd": false, "tieGroup": 0}, {"pitch": 52, "vel": 93, "dur": 1.0, "tieStart": false, "tieEnd": false, "tieGroup": 0}, {"pitch": 55, "vel": 89, "dur": 1.0, "tieStart": false, "tieEnd": false, "tieGroup": 0}]}, {"start": 1.0, "dur": 1.0, "rest": false, "notes": [{"pitch": 48, "vel": 97, "dur": 1.0, "tieStart": false, "tieEnd": false, "tieGroup": 0}]}, {"start": 2.0, "dur": 1.0, "rest": false, "notes": [{"pitch": 48, "vel": 97, "dur": 1.0, "tieStart": false, "tieEnd": false, "tieGroup": 0}]}, {"start": 3.0, "dur": 0.5, "rest": false, "notes": [{"pitch": 48, "vel": 97, "dur": 0.5, "tieStart": true, "tieEnd": false, "tieGroup": 270}]}, {"start": 3.5, "dur": 0.5, "rest": false, "notes": [{"pitch": 48, "vel": 97, "dur": 0.5, "tieStart": false, "tieEnd": true, "tieGroup": 270}]}]}, {"ts_num": 4, "ts_den": 4, "key_fifths": 0, "key_mode": 0, "clef": 1, "tempo": 120, "velocity": 100, "lyrics": "", "expr": [], "segs": [{"start": 0.0, "dur": 0.5, "rest": false, "notes": [{"pitch": 45, "vel": 97, "dur": 0.5, "tieStart": false, "tieEnd": false, "tieGroup": 0}, {"pitch": 57, "vel": 97, "dur": 0.5, "tieStart": false, "tieEnd": false, "tieGroup": 0}]}, {"start": 0.5, "dur": 0.5, "rest": true, "notes": []}, {"start": 1.0, "dur": 0.5, "rest": false, "notes": [{"pitch": 59, "vel": 93, "dur": 0.5, "tieStart": true, "tieEnd": false, "tieGroup": 276}]}, {"start": 1.5, "dur": 0.5, "rest": false, "notes": [{"pitch": 59, "vel": 93, "dur": 0.5, "tieStart": false, "tieEnd": true, "tieGroup": 276}]}, {"start": 2.0, "dur": 2.0, "rest": true, "notes": []}]}, {"ts_num": 4, "ts_den": 4, "key_fifths": 0, "key_mode": 0, "clef": 1, "tempo": 120, "velocity": 100, "lyrics": "", "expr": [], "segs": [{"start": 0.0, "dur": 0.5, "rest": false, "notes": [{"pitch": 43, "vel": 97, "dur": 0.5, "tieStart": false, "tieEnd": false, "tieGroup": 0}, {"pitch": 59, "vel": 97, "dur": 0.5, "tieStart": false, "tieEnd": false, "tieGroup": 0}]}, {"start": 0.5, "dur": 0.5, "rest": true, "notes": []}, {"start": 1.0, "dur": 1.0, "rest": false, "notes": [{"pitch": 43, "vel": 97, "dur": 1.0, "tieStart": false, "tieEnd": false, "tieGroup": 479}, {"pitch": 55, "vel": 97, "dur": 1.0, "tieStart": false, "tieEnd": false, "tieGroup": 0}]}, {"start": 2.0, "dur": 0.5, "rest": false, "notes": [{"pitch": 47, "vel": 97, "dur": 0.5, "tieStart": false, "tieEnd": false, "tieGroup": 0}, {"pitch": 59, "vel": 97, "dur": 0.5, "tieStart": false, "tieEnd": false, "tieGroup": 0}]}, {"start": 2.5, "dur": 0.5, "rest": true, "notes": []}, {"start": 3.0, "dur": 1.0, "rest": false, "notes": [{"pitch": 50, "vel": 97, "dur": 1.0, "tieStart": false, "tieEnd": false, "tieGroup": 480}, {"pitch": 55, "vel": 93, "dur": 1.0, "tieStart": false, "tieEnd": false, "tieGroup": 0}]}]}, {"ts_num": 4, "ts_den": 4, "key_fifths": 0, "key_mode": 0, "clef": 1, "tempo": 120, "velocity": 100, "lyrics": "", "expr": [], "segs": [{"start": 0.0, "dur": 0.5, "rest": false, "notes": [{"pitch": 50, "vel": 97, "dur": 0.5, "tieStart": false, "tieEnd": false, "tieGroup": 0}, {"pitch": 53, "vel": 97, "dur": 0.5, "tieStart": false, "tieEnd": false, "tieGroup": 0}]}, {"start": 0.5, "dur": 0.5, "rest": true, "notes": []}, {"start": 1.0, "dur": 1.0, "rest": false, "notes": [{"pitch": 57, "vel": 97, "dur": 1.0, "tieStart": false, "tieEnd": false, "tieGroup": 481}]}, {"start": 2.0, "dur": 0.5, "rest": false, "notes": [{"pitch": 45, "vel": 97, "dur": 0.5, "tieStart": false, "tieEnd": false, "tieGroup": 0}, {"pitch": 50, "vel": 97, "dur": 0.5, "tieStart": false, "tieEnd": false, "tieGroup": 0}]}, {"start": 2.5, "dur": 0.5, "rest": true, "notes": []}, {"start": 3.0, "dur": 1.0, "rest": false, "notes": [{"pitch": 57, "vel": 97, "dur": 1.0, "tieStart": false, "tieEnd": false, "tieGroup": 482}]}]}, {"ts_num": 4, "ts_den": 4, "key_fifths": 0, "key_mode": 0, "clef": 1, "tempo": 120, "velocity": 100, "lyrics": "", "expr": [], "segs": [{"start": 0.0, "dur": 1.0, "rest": false, "notes": [{"pitch": 45, "vel": 97, "dur": 1.0, "tieStart": false, "tieEnd": false, "tieGroup": 0}]}, {"start": 1.0, "dur": 1.0, "rest": false, "notes": [{"pitch": 45, "vel": 97, "dur": 1.0, "tieStart": false, "tieEnd": false, "tieGroup": 0}, {"pitch": 57, "vel": 93, "dur": 1.0, "tieStart": false, "tieEnd": false, "tieGroup": 0}]}, {"start": 2.0, "dur": 1.0, "rest": false, "notes": [{"pitch": 45, "vel": 97, "dur": 1.0, "tieStart": false, "tieEnd": false, "tieGroup": 0}, {"pitch": 57, "vel": 93, "dur": 1.0, "tieStart": false, "tieEnd": false, "tieGroup": 0}]}, {"start": 3.0, "dur": 0.25, "rest": false, "notes": [{"pitch": 45, "vel": 97, "dur": 0.25, "tieStart": true, "tieEnd": false, "tieGroup": 281}, {"pitch": 57, "vel": 93, "dur": 0.25, "tieStart": true, "tieEnd": false, "tieGroup": 282}]}, {"start": 3.25, "dur": 0.75, "rest": false, "notes": [{"pitch": 45, "vel": 97, "dur": 0.75, "tieStart": false, "tieEnd": true, "tieGroup": 281}, {"pitch": 57, "vel": 93, "dur": 0.75, "tieStart": false, "tieEnd": true, "tieGroup": 282}]}]}, {"ts_num": 4, "ts_den": 4, "key_fifths": 0, "key_mode": 0, "clef": 1, "tempo": 120, "velocity": 100, "lyrics": "", "expr": [], "segs": [{"start": 0.0, "dur": 0.5, "rest": false, "notes": [{"pitch": 45, "vel": 97, "dur": 0.5, "tieStart": true, "tieEnd": false, "tieGroup": 285}]}, {"start": 0.5, "dur": 0.5, "rest": false, "notes": [{"pitch": 45, "vel": 97, "dur": 0.5, "tieStart": false, "tieEnd": true, "tieGroup": 285}]}, {"start": 1.0, "dur": 1.0, "rest": true, "notes": []}, {"start": 2.0, "dur": 0.5, "rest": false, "notes": [{"pitch": 57, "vel": 97, "dur": 0.5, "tieStart": false, "tieEnd": false, "tieGroup": 484}]}, {"start": 2.5, "dur": 1.5, "rest": true, "notes": []}]}, {"ts_num": 4, "ts_den": 4, "key_fifths": 0, "key_mode": 0, "clef": 1, "tempo": 120, "velocity": 100, "lyrics": "", "expr": [], "segs": [{"start": 0.0, "dur": 0.5, "rest": false, "notes": [{"pitch": 45, "vel": 97, "dur": 0.5, "tieStart": false, "tieEnd": false, "tieGroup": 0}, {"pitch": 57, "vel": 97, "dur": 0.5, "tieStart": false, "tieEnd": false, "tieGroup": 0}]}, {"start": 0.5, "dur": 0.5, "rest": true, "notes": []}, {"start": 1.0, "dur": 0.5, "rest": false, "notes": [{"pitch": 57, "vel": 93, "dur": 0.5, "tieStart": false, "tieEnd": false, "tieGroup": 485}]}, {"start": 1.5, "dur": 0.5, "rest": false, "notes": [{"pitch": 57, "vel": 97, "dur": 0.5, "tieStart": false, "tieEnd": false, "tieGroup": 0}]}, {"start": 2.0, "dur": 1.0, "rest": true, "notes": []}, {"start": 3.0, "dur": 0.5, "rest": false, "notes": [{"pitch": 57, "vel": 97, "dur": 0.5, "tieStart": false, "tieEnd": false, "tieGroup": 487}]}, {"start": 3.5, "dur": 0.5, "rest": true, "notes": []}]}, {"ts_num": 4, "ts_den": 4, "key_fifths": 0, "key_mode": 0, "clef": 1, "tempo": 120, "velocity": 100, "lyrics": "", "expr": [], "segs": [{"start": 0.0, "dur": 1.0, "rest": false, "notes": [{"pitch": 45, "vel": 97, "dur": 1.0, "tieStart": false, "tieEnd": false, "tieGroup": 0}, {"pitch": 57, "vel": 93, "dur": 1.0, "tieStart": false, "tieEnd": false, "tieGroup": 0}]}, {"start": 1.0, "dur": 0.5, "rest": false, "notes": [{"pitch": 57, "vel": 97, "dur": 0.5, "tieStart": false, "tieEnd": false, "tieGroup": 0}]}, {"start": 1.5, "dur": 0.5, "rest": false, "notes": [{"pitch": 59, "vel": 97, "dur": 0.5, "tieStart": false, "tieEnd": false, "tieGroup": 0}]}, {"start": 2.0, "dur": 0.5, "rest": true, "notes": []}, {"start": 2.5, "dur": 0.5, "rest": false, "notes": [{"pitch": 57, "vel": 97, "dur": 0.5, "tieStart": true, "tieEnd": false, "tieGroup": 293}]}, {"start": 3.0, "dur": 0.5, "rest": false, "notes": [{"pitch": 57, "vel": 97, "dur": 0.5, "tieStart": false, "tieEnd": true, "tieGroup": 293}]}, {"start": 3.5, "dur": 0.5, "rest": false, "notes": [{"pitch": 57, "vel": 97, "dur": 0.5, "tieStart": false, "tieEnd": false, "tieGroup": 0}]}]}, {"ts_num": 4, "ts_den": 4, "key_fifths": 0, "key_mode": 0, "clef": 1, "tempo": 120, "velocity": 100, "lyrics": "", "expr": [], "segs": [{"start": 0.0, "dur": 1.0, "rest": false, "notes": [{"pitch": 45, "vel": 97, "dur": 1.0, "tieStart": false, "tieEnd": false, "tieGroup": 0}]}, {"start": 1.0, "dur": 1.0, "rest": false, "notes": [{"pitch": 45, "vel": 97, "dur": 1.0, "tieStart": false, "tieEnd": false, "tieGroup": 0}]}, {"start": 2.0, "dur": 1.0, "rest": false, "notes": [{"pitch": 45, "vel": 97, "dur": 1.0, "tieStart": false, "tieEnd": false, "tieGroup": 0}]}, {"start": 3.0, "dur": 0.25, "rest": false, "notes": [{"pitch": 45, "vel": 97, "dur": 0.25, "tieStart": true, "tieEnd": false, "tieGroup": 294}, {"pitch": 57, "vel": 93, "dur": 0.25, "tieStart": true, "tieEnd": false, "tieGroup": 295}, {"pitch": 59, "vel": 89, "dur": 0.25, "tieStart": true, "tieEnd": false, "tieGroup": 296}]}, {"start": 3.25, "dur": 0.75, "rest": false, "notes": [{"pitch": 45, "vel": 97, "dur": 0.75, "tieStart": false, "tieEnd": true, "tieGroup": 294}, {"pitch": 57, "vel": 93, "dur": 0.75, "tieStart": false, "tieEnd": true, "tieGroup": 295}, {"pitch": 59, "vel": 89, "dur": 0.75, "tieStart": false, "tieEnd": true, "tieGroup": 296}]}]}, {"ts_num": 4, "ts_den": 4, "key_fifths": 0, "key_mode": 0, "clef": 1, "tempo": 120, "velocity": 100, "lyrics": "", "expr": [], "segs": [{"start": 0.0, "dur": 0.5, "rest": false, "notes": [{"pitch": 45, "vel": 97, "dur": 0.5, "tieStart": false, "tieEnd": false, "tieGroup": 0}, {"pitch": 52, "vel": 93, "dur": 0.5, "tieStart": false, "tieEnd": false, "tieGroup": 0}]}, {"start": 0.5, "dur": 0.5, "rest": false, "notes": [{"pitch": 57, "vel": 97, "dur": 0.5, "tieStart": false, "tieEnd": false, "tieGroup": 0}]}, {"start": 1.0, "dur": 0.5, "rest": false, "notes": [{"pitch": 47, "vel": 97, "dur": 0.5, "tieStart": false, "tieEnd": false, "tieGroup": 0}]}, {"start": 1.5, "dur": 0.5, "rest": false, "notes": [{"pitch": 57, "vel": 97, "dur": 0.5, "tieStart": false, "tieEnd": false, "tieGroup": 0}]}, {"start": 2.0, "dur": 1.0, "rest": false, "notes": [{"pitch": 52, "vel": 97, "dur": 1.0, "tieStart": false, "tieEnd": false, "tieGroup": 0}]}, {"start": 3.0, "dur": 0.5, "rest": true, "notes": []}, {"start": 3.5, "dur": 0.5, "rest": false, "notes": [{"pitch": 47, "vel": 97, "dur": 0.5, "tieStart": false, "tieEnd": false, "tieGroup": 489}]}]}, {"ts_num": 4, "ts_den": 4, "key_fifths": 0, "key_mode": 0, "clef": 1, "tempo": 120, "velocity": 100, "lyrics": "", "expr": [], "segs": [{"start": 0.0, "dur": 0.5, "rest": false, "notes": [{"pitch": 50, "vel": 97, "dur": 0.5, "tieStart": false, "tieEnd": false, "tieGroup": 0}]}, {"start": 0.5, "dur": 3.5, "rest": true, "notes": []}]}, {"ts_num": 4, "ts_den": 4, "key_fifths": 0, "key_mode": 0, "clef": 1, "tempo": 120, "velocity": 100, "lyrics": "", "expr": [], "segs": [{"start": 0.0, "dur": 1.0, "rest": false, "notes": [{"pitch": 50, "vel": 97, "dur": 1.0, "tieStart": false, "tieEnd": false, "tieGroup": 0}]}, {"start": 1.0, "dur": 3.0, "rest": true, "notes": []}]}, {"ts_num": 4, "ts_den": 4, "key_fifths": 0, "key_mode": 0, "clef": 1, "tempo": 120, "velocity": 100, "lyrics": "", "expr": [], "segs": [{"start": 0.0, "dur": 1.0, "rest": false, "notes": [{"pitch": 45, "vel": 97, "dur": 1.0, "tieStart": false, "tieEnd": false, "tieGroup": 0}, {"pitch": 48, "vel": 93, "dur": 1.0, "tieStart": false, "tieEnd": false, "tieGroup": 0}, {"pitch": 52, "vel": 89, "dur": 1.0, "tieStart": false, "tieEnd": false, "tieGroup": 0}]}, {"start": 1.0, "dur": 1.0, "rest": false, "notes": [{"pitch": 45, "vel": 97, "dur": 1.0, "tieStart": false, "tieEnd": false, "tieGroup": 0}, {"pitch": 48, "vel": 93, "dur": 1.0, "tieStart": false, "tieEnd": false, "tieGroup": 0}, {"pitch": 52, "vel": 89, "dur": 1.0, "tieStart": false, "tieEnd": false, "tieGroup": 0}]}, {"start": 2.0, "dur": 1.0, "rest": false, "notes": [{"pitch": 45, "vel": 97, "dur": 1.0, "tieStart": false, "tieEnd": false, "tieGroup": 0}, {"pitch": 47, "vel": 93, "dur": 1.0, "tieStart": false, "tieEnd": false, "tieGroup": 0}, {"pitch": 48, "vel": 89, "dur": 1.0, "tieStart": false, "tieEnd": false, "tieGroup": 0}, {"pitch": 52, "vel": 85, "dur": 1.0, "tieStart": false, "tieEnd": false, "tieGroup": 0}]}, {"start": 3.0, "dur": 0.5, "rest": false, "notes": [{"pitch": 45, "vel": 97, "dur": 0.5, "tieStart": true, "tieEnd": false, "tieGroup": 310}, {"pitch": 48, "vel": 93, "dur": 0.5, "tieStart": true, "tieEnd": false, "tieGroup": 311}, {"pitch": 57, "vel": 89, "dur": 0.5, "tieStart": true, "tieEnd": false, "tieGroup": 312}]}, {"start": 3.5, "dur": 0.5, "rest": false, "notes": [{"pitch": 45, "vel": 97, "dur": 0.5, "tieStart": false, "tieEnd": true, "tieGroup": 310}, {"pitch": 48, "vel": 93, "dur": 0.5, "tieStart": false, "tieEnd": true, "tieGroup": 311}, {"pitch": 57, "vel": 89, "dur": 0.5, "tieStart": false, "tieEnd": true, "tieGroup": 312}]}]}, {"ts_num": 4, "ts_den": 4, "key_fifths": 0, "key_mode": 0, "clef": 1, "tempo": 120, "velocity": 100, "lyrics": "", "expr": [], "segs": [{"start": 0.0, "dur": 0.5, "rest": false, "notes": [{"pitch": 52, "vel": 97, "dur": 0.5, "tieStart": true, "tieEnd": false, "tieGroup": 313}, {"pitch": 55, "vel": 93, "dur": 0.5, "tieStart": true, "tieEnd": false, "tieGroup": 314}]}, {"start": 0.5, "dur": 0.5, "rest": false, "notes": [{"pitch": 52, "vel": 97, "dur": 0.5, "tieStart": false, "tieEnd": true, "tieGroup": 313}, {"pitch": 55, "vel": 93, "dur": 0.5, "tieStart": false, "tieEnd": true, "tieGroup": 314}]}, {"start": 1.0, "dur": 1.5, "rest": true, "notes": []}, {"start": 2.5, "dur": 0.5, "rest": false, "notes": [{"pitch": 55, "vel": 97, "dur": 0.5, "tieStart": true, "tieEnd": false, "tieGroup": 318}]}, {"start": 3.0, "dur": 0.5, "rest": false, "notes": [{"pitch": 55, "vel": 97, "dur": 0.5, "tieStart": false, "tieEnd": true, "tieGroup": 318}]}, {"start": 3.5, "dur": 0.5, "rest": true, "notes": []}]}, {"ts_num": 4, "ts_den": 4, "key_fifths": 0, "key_mode": 0, "clef": 1, "tempo": 120, "velocity": 100, "lyrics": "", "expr": [], "segs": [{"start": 0.0, "dur": 1.0, "rest": false, "notes": [{"pitch": 50, "vel": 97, "dur": 1.0, "tieStart": false, "tieEnd": false, "tieGroup": 0}, {"pitch": 57, "vel": 93, "dur": 1.0, "tieStart": false, "tieEnd": false, "tieGroup": 0}]}, {"start": 1.0, "dur": 1.5, "rest": true, "notes": []}, {"start": 2.5, "dur": 0.5, "rest": false, "notes": [{"pitch": 57, "vel": 97, "dur": 0.5, "tieStart": true, "tieEnd": false, "tieGroup": 321}]}, {"start": 3.0, "dur": 0.5, "rest": false, "notes": [{"pitch": 57, "vel": 97, "dur": 0.5, "tieStart": false, "tieEnd": true, "tieGroup": 321}]}, {"start": 3.5, "dur": 0.5, "rest": true, "notes": []}]}, {"ts_num": 4, "ts_den": 4, "key_fifths": 0, "key_mode": 0, "clef": 1, "tempo": 120, "velocity": 100, "lyrics": "", "expr": [], "segs": [{"start": 0.0, "dur": 0.5, "rest": false, "notes": [{"pitch": 48, "vel": 41, "dur": 0.5, "tieStart": true, "tieEnd": false, "tieGroup": 322}]}, {"start": 0.5, "dur": 0.5, "rest": false, "notes": [{"pitch": 48, "vel": 41, "dur": 0.5, "tieStart": false, "tieEnd": true, "tieGroup": 322}]}, {"start": 1.0, "dur": 0.5, "rest": false, "notes": [{"pitch": 52, "vel": 97, "dur": 0.5, "tieStart": false, "tieEnd": false, "tieGroup": 0}]}, {"start": 1.5, "dur": 0.5, "rest": false, "notes": [{"pitch": 50, "vel": 65, "dur": 0.5, "tieStart": false, "tieEnd": false, "tieGroup": 0}]}, {"start": 2.0, "dur": 1.5, "rest": true, "notes": []}, {"start": 3.5, "dur": 0.5, "rest": false, "notes": [{"pitch": 55, "vel": 97, "dur": 0.5, "tieStart": false, "tieEnd": false, "tieGroup": 490}]}]}, {"ts_num": 4, "ts_den": 4, "key_fifths": 0, "key_mode": 0, "clef": 1, "tempo": 120, "velocity": 100, "lyrics": "", "expr": [], "segs": [{"start": 0.0, "dur": 0.5, "rest": false, "notes": [{"pitch": 45, "vel": 105, "dur": 0.5, "tieStart": false, "tieEnd": false, "tieGroup": 0}]}, {"start": 0.5, "dur": 1.0, "rest": false, "notes": [{"pitch": 45, "vel": 105, "dur": 1.0, "tieStart": false, "tieEnd": false, "tieGroup": 0}]}, {"start": 1.5, "dur": 0.5, "rest": false, "notes": [{"pitch": 45, "vel": 105, "dur": 0.5, "tieStart": false, "tieEnd": false, "tieGroup": 0}]}, {"start": 2.0, "dur": 1.0, "rest": false, "notes": [{"pitch": 45, "vel": 105, "dur": 1.0, "tieStart": false, "tieEnd": false, "tieGroup": 0}, {"pitch": 48, "vel": 101, "dur": 1.0, "tieStart": false, "tieEnd": false, "tieGroup": 0}, {"pitch": 52, "vel": 97, "dur": 1.0, "tieStart": false, "tieEnd": false, "tieGroup": 0}]}, {"start": 3.0, "dur": 1.0, "rest": false, "notes": [{"pitch": 45, "vel": 105, "dur": 1.0, "tieStart": false, "tieEnd": false, "tieGroup": 0}]}]}, {"ts_num": 4, "ts_den": 4, "key_fifths": 0, "key_mode": 0, "clef": 1, "tempo": 120, "velocity": 100, "lyrics": "", "expr": [], "segs": [{"start": 0.0, "dur": 0.5, "rest": false, "notes": [{"pitch": 47, "vel": 97, "dur": 0.5, "tieStart": true, "tieEnd": false, "tieGroup": 327}]}, {"start": 0.5, "dur": 0.5, "rest": false, "notes": [{"pitch": 47, "vel": 97, "dur": 0.5, "tieStart": false, "tieEnd": true, "tieGroup": 327}]}, {"start": 1.0, "dur": 0.5, "rest": false, "notes": [{"pitch": 50, "vel": 97, "dur": 0.5, "tieStart": false, "tieEnd": false, "tieGroup": 0}]}, {"start": 1.5, "dur": 0.5, "rest": true, "notes": []}, {"start": 2.0, "dur": 0.5, "rest": false, "notes": [{"pitch": 59, "vel": 97, "dur": 0.5, "tieStart": false, "tieEnd": false, "tieGroup": 491}]}, {"start": 2.5, "dur": 0.25, "rest": false, "notes": [{"pitch": 59, "vel": 97, "dur": 0.25, "tieStart": true, "tieEnd": false, "tieGroup": 332}]}, {"start": 2.75, "dur": 0.75, "rest": false, "notes": [{"pitch": 59, "vel": 97, "dur": 0.75, "tieStart": false, "tieEnd": true, "tieGroup": 332}]}, {"start": 3.5, "dur": 0.25, "rest": false, "notes": [{"pitch": 50, "vel": 97, "dur": 0.25, "tieStart": true, "tieEnd": false, "tieGroup": 334}]}, {"start": 3.75, "dur": 0.25, "rest": false, "notes": [{"pitch": 50, "vel": 97, "dur": 0.25, "tieStart": false, "tieEnd": true, "tieGroup": 334}]}]}, {"ts_num": 4, "ts_den": 4, "key_fifths": 0, "key_mode": 0, "clef": 1, "tempo": 120, "velocity": 100, "lyrics": "", "expr": [], "segs": [{"start": 0.0, "dur": 0.5, "rest": false, "notes": [{"pitch": 53, "vel": 97, "dur": 0.5, "tieStart": true, "tieEnd": false, "tieGroup": 335}]}, {"start": 0.5, "dur": 0.5, "rest": false, "notes": [{"pitch": 53, "vel": 97, "dur": 0.5, "tieStart": false, "tieEnd": true, "tieGroup": 335}]}, {"start": 1.0, "dur": 3.0, "rest": true, "notes": []}]}, {"ts_num": 4, "ts_den": 4, "key_fifths": 0, "key_mode": 0, "clef": 1, "tempo": 120, "velocity": 100, "lyrics": "", "expr": [], "segs": [{"start": 0.0, "dur": 0.5, "rest": false, "notes": [{"pitch": 53, "vel": 97, "dur": 0.5, "tieStart": false, "tieEnd": false, "tieGroup": 0}]}, {"start": 0.5, "dur": 1.0, "rest": true, "notes": []}, {"start": 1.5, "dur": 0.5, "rest": false, "notes": [{"pitch": 53, "vel": 97, "dur": 0.5, "tieStart": false, "tieEnd": false, "tieGroup": 492}]}, {"start": 2.0, "dur": 2.0, "rest": true, "notes": []}]}, {"ts_num": 4, "ts_den": 4, "key_fifths": 0, "key_mode": 0, "clef": 1, "tempo": 120, "velocity": 100, "lyrics": "", "expr": [], "segs": [{"start": 0.0, "dur": 0.5, "rest": false, "notes": [{"pitch": 52, "vel": 97, "dur": 0.5, "tieStart": false, "tieEnd": false, "tieGroup": 0}, {"pitch": 59, "vel": 93, "dur": 0.5, "tieStart": false, "tieEnd": false, "tieGroup": 0}]}, {"start": 0.5, "dur": 1.0, "rest": false, "notes": [{"pitch": 52, "vel": 97, "dur": 1.0, "tieStart": false, "tieEnd": false, "tieGroup": 0}]}, {"start": 1.5, "dur": 1.5, "rest": false, "notes": [{"pitch": 52, "vel": 97, "dur": 1.5, "tieStart": false, "tieEnd": false, "tieGroup": 0}, {"pitch": 55, "vel": 93, "dur": 1.5, "tieStart": false, "tieEnd": false, "tieGroup": 0}, {"pitch": 59, "vel": 89, "dur": 1.5, "tieStart": false, "tieEnd": false, "tieGroup": 0}]}, {"start": 3.0, "dur": 1.0, "rest": false, "notes": [{"pitch": 52, "vel": 97, "dur": 1.0, "tieStart": false, "tieEnd": false, "tieGroup": 0}, {"pitch": 55, "vel": 93, "dur": 1.0, "tieStart": false, "tieEnd": false, "tieGroup": 0}, {"pitch": 59, "vel": 89, "dur": 1.0, "tieStart": false, "tieEnd": false, "tieGroup": 0}]}]}, {"ts_num": 4, "ts_den": 4, "key_fifths": 0, "key_mode": 0, "clef": 1, "tempo": 120, "velocity": 100, "lyrics": "", "expr": [], "segs": [{"start": 0.0, "dur": 0.5, "rest": false, "notes": [{"pitch": 52, "vel": 97, "dur": 0.5, "tieStart": false, "tieEnd": false, "tieGroup": 0}]}, {"start": 0.5, "dur": 3.5, "rest": true, "notes": []}]}, {"ts_num": 4, "ts_den": 4, "key_fifths": 0, "key_mode": 0, "clef": 1, "tempo": 120, "velocity": 100, "lyrics": "", "expr": [], "segs": [{"start": 0.0, "dur": 1.0, "rest": false, "notes": [{"pitch": 52, "vel": 97, "dur": 1.0, "tieStart": false, "tieEnd": false, "tieGroup": 0}]}, {"start": 1.0, "dur": 3.0, "rest": true, "notes": []}]}, {"ts_num": 4, "ts_den": 4, "key_fifths": 0, "key_mode": 0, "clef": 1, "tempo": 120, "velocity": 100, "lyrics": "", "expr": [], "segs": [{"start": 0.0, "dur": 0.5, "rest": false, "notes": [{"pitch": 43, "vel": 97, "dur": 0.5, "tieStart": false, "tieEnd": false, "tieGroup": 0}, {"pitch": 52, "vel": 97, "dur": 0.5, "tieStart": false, "tieEnd": false, "tieGroup": 0}]}, {"start": 0.5, "dur": 0.5, "rest": false, "notes": [{"pitch": 52, "vel": 97, "dur": 0.5, "tieStart": false, "tieEnd": false, "tieGroup": 0}, {"pitch": 55, "vel": 97, "dur": 0.5, "tieStart": false, "tieEnd": false, "tieGroup": 0}]}, {"start": 1.0, "dur": 0.5, "rest": false, "notes": [{"pitch": 43, "vel": 97, "dur": 0.5, "tieStart": false, "tieEnd": false, "tieGroup": 0}]}, {"start": 1.5, "dur": 0.5, "rest": false, "notes": [{"pitch": 52, "vel": 97, "dur": 0.5, "tieStart": false, "tieEnd": false, "tieGroup": 0}]}, {"start": 2.0, "dur": 0.5, "rest": false, "notes": [{"pitch": 54, "vel": 97, "dur": 0.5, "tieStart": false, "tieEnd": false, "tieGroup": 0}]}, {"start": 2.5, "dur": 0.5, "rest": false, "notes": [{"pitch": 47, "vel": 97, "dur": 0.5, "tieStart": false, "tieEnd": false, "tieGroup": 0}, {"pitch": 54, "vel": 97, "dur": 0.5, "tieStart": false, "tieEnd": false, "tieGroup": 0}]}, {"start": 3.0, "dur": 0.5, "rest": true, "notes": []}, {"start": 3.5, "dur": 0.5, "rest": false, "notes": [{"pitch": 52, "vel": 97, "dur": 0.5, "tieStart": false, "tieEnd": false, "tieGroup": 493}]}]}, {"ts_num": 4, "ts_den": 4, "key_fifths": 0, "key_mode": 0, "clef": 1, "tempo": 120, "velocity": 100, "lyrics": "", "expr": [], "segs": [{"start": 0.0, "dur": 0.5, "rest": false, "notes": [{"pitch": 43, "vel": 97, "dur": 0.5, "tieStart": false, "tieEnd": false, "tieGroup": 0}, {"pitch": 47, "vel": 93, "dur": 0.5, "tieStart": false, "tieEnd": false, "tieGroup": 0}, {"pitch": 55, "vel": 93, "dur": 0.5, "tieStart": false, "tieEnd": false, "tieGroup": 0}, {"pitch": 59, "vel": 85, "dur": 0.5, "tieStart": false, "tieEnd": false, "tieGroup": 0}]}, {"start": 0.5, "dur": 0.5, "rest": true, "notes": []}, {"start": 1.0, "dur": 0.5, "rest": false, "notes": [{"pitch": 47, "vel": 93, "dur": 0.5, "tieStart": true, "tieEnd": false, "tieGroup": 356}, {"pitch": 57, "vel": 89, "dur": 0.5, "tieStart": true, "tieEnd": false, "tieGroup": 357}, {"pitch": 59, "vel": 89, "dur": 0.5, "tieStart": true, "tieEnd": false, "tieGroup": 358}]}, {"start": 1.5, "dur": 0.5, "rest": false, "notes": [{"pitch": 47, "vel": 93, "dur": 0.5, "tieStart": false, "tieEnd": true, "tieGroup": 356}, {"pitch": 57, "vel": 89, "dur": 0.5, "tieStart": false, "tieEnd": true, "tieGroup": 357}, {"pitch": 59, "vel": 89, "dur": 0.5, "tieStart": false, "tieEnd": true, "tieGroup": 358}]}, {"start": 2.0, "dur": 0.5, "rest": true, "notes": []}, {"start": 2.5, "dur": 0.5, "rest": false, "notes": [{"pitch": 55, "vel": 93, "dur": 0.5, "tieStart": false, "tieEnd": false, "tieGroup": 360}]}, {"start": 3.0, "dur": 0.5, "rest": false, "notes": [{"pitch": 43, "vel": 97, "dur": 0.5, "tieStart": true, "tieEnd": false, "tieGroup": 361}, {"pitch": 50, "vel": 89, "dur": 0.5, "tieStart": true, "tieEnd": false, "tieGroup": 362}, {"pitch": 59, "vel": 89, "dur": 0.5, "tieStart": true, "tieEnd": false, "tieGroup": 363}]}, {"start": 3.5, "dur": 0.5, "rest": false, "notes": [{"pitch": 43, "vel": 97, "dur": 0.5, "tieStart": false, "tieEnd": true, "tieGroup": 361}, {"pitch": 50, "vel": 89, "dur": 0.5, "tieStart": false, "tieEnd": true, "tieGroup": 362}, {"pitch": 59, "vel": 89, "dur": 0.5, "tieStart": false, "tieEnd": true, "tieGroup": 363}]}]}, {"ts_num": 4, "ts_den": 4, "key_fifths": 0, "key_mode": 0, "clef": 1, "tempo": 120, "velocity": 100, "lyrics": "", "expr": [], "segs": [{"start": 0.0, "dur": 1.0, "rest": false, "notes": [{"pitch": 43, "vel": 97, "dur": 1.0, "tieStart": false, "tieEnd": false, "tieGroup": 0}, {"pitch": 57, "vel": 85, "dur": 1.0, "tieStart": false, "tieEnd": false, "tieGroup": 0}]}, {"start": 1.0, "dur": 0.5, "rest": false, "notes": [{"pitch": 43, "vel": 97, "dur": 0.5, "tieStart": false, "tieEnd": false, "tieGroup": 0}, {"pitch": 55, "vel": 93, "dur": 0.5, "tieStart": false, "tieEnd": false, "tieGroup": 0}, {"pitch": 59, "vel": 89, "dur": 0.5, "tieStart": false, "tieEnd": false, "tieGroup": 0}]}, {"start": 1.5, "dur": 0.5, "rest": false, "notes": [{"pitch": 50, "vel": 93, "dur": 0.5, "tieStart": false, "tieEnd": false, "tieGroup": 0}, {"pitch": 55, "vel": 93, "dur": 0.5, "tieStart": false, "tieEnd": false, "tieGroup": 0}]}, {"start": 2.0, "dur": 1.0, "rest": false, "notes": [{"pitch": 59, "vel": 81, "dur": 1.0, "tieStart": false, "tieEnd": false, "tieGroup": 0}]}, {"start": 3.0, "dur": 1.0, "rest": false, "notes": [{"pitch": 43, "vel": 97, "dur": 1.0, "tieStart": false, "tieEnd": false, "tieGroup": 0}]}]}, {"ts_num": 4, "ts_den": 4, "key_fifths": 0, "key_mode": 0, "clef": 1, "tempo": 120, "velocity": 100, "lyrics": "", "expr": [], "segs": [{"start": 0.0, "dur": 1.0, "rest": false, "notes": [{"pitch": 45, "vel": 89, "dur": 1.0, "tieStart": false, "tieEnd": false, "tieGroup": 0}, {"pitch": 48, "vel": 97, "dur": 1.0, "tieStart": false, "tieEnd": false, "tieGroup": 0}]}, {"start": 1.0, "dur": 0.5, "rest": false, "notes": [{"pitch": 48, "vel": 97, "dur": 0.5, "tieStart": false, "tieEnd": false, "tieGroup": 0}]}, {"start": 1.5, "dur": 0.5, "rest": false, "notes": [{"pitch": 53, "vel": 85, "dur": 0.5, "tieStart": false, "tieEnd": false, "tieGroup": 0}, {"pitch": 55, "vel": 97, "dur": 0.5, "tieStart": false, "tieEnd": false, "tieGroup": 0}]}, {"start": 2.0, "dur": 1.0, "rest": false, "notes": [{"pitch": 50, "vel": 97, "dur": 1.0, "tieStart": false, "tieEnd": false, "tieGroup": 0}]}, {"start": 3.0, "dur": 0.25, "rest": false, "notes": [{"pitch": 45, "vel": 89, "dur": 0.25, "tieStart": true, "tieEnd": false, "tieGroup": 366}, {"pitch": 57, "vel": 89, "dur": 0.25, "tieStart": true, "tieEnd": false, "tieGroup": 367}]}, {"start": 3.25, "dur": 0.75, "rest": false, "notes": [{"pitch": 45, "vel": 89, "dur": 0.75, "tieStart": false, "tieEnd": true, "tieGroup": 366}, {"pitch": 57, "vel": 89, "dur": 0.75, "tieStart": false, "tieEnd": true, "tieGroup": 367}]}]}, {"ts_num": 4, "ts_den": 4, "key_fifths": 0, "key_mode": 0, "clef": 1, "tempo": 120, "velocity": 100, "lyrics": "", "expr": [], "segs": [{"start": 0.0, "dur": 0.5, "rest": false, "notes": [{"pitch": 45, "vel": 105, "dur": 0.5, "tieStart": true, "tieEnd": false, "tieGroup": 370}, {"pitch": 55, "vel": 93, "dur": 0.5, "tieStart": true, "tieEnd": false, "tieGroup": 371}]}, {"start": 0.5, "dur": 0.5, "rest": false, "notes": [{"pitch": 45, "vel": 105, "dur": 0.5, "tieStart": false, "tieEnd": true, "tieGroup": 370}, {"pitch": 55, "vel": 93, "dur": 0.5, "tieStart": false, "tieEnd": true, "tieGroup": 371}]}, {"start": 1.0, "dur": 0.5, "rest": false, "notes": [{"pitch": 48, "vel": 97, "dur": 0.5, "tieStart": false, "tieEnd": false, "tieGroup": 0}]}, {"start": 1.5, "dur": 0.5, "rest": false, "notes": [{"pitch": 55, "vel": 97, "dur": 0.5, "tieStart": false, "tieEnd": false, "tieGroup": 0}]}, {"start": 2.0, "dur": 1.0, "rest": true, "notes": []}, {"start": 3.0, "dur": 1.0, "rest": false, "notes": [{"pitch": 48, "vel": 97, "dur": 1.0, "tieStart": false, "tieEnd": false, "tieGroup": 494}, {"pitch": 55, "vel": 97, "dur": 1.0, "tieStart": false, "tieEnd": false, "tieGroup": 0}, {"pitch": 57, "vel": 89, "dur": 1.0, "tieStart": false, "tieEnd": false, "tieGroup": 0}]}]}, {"ts_num": 4, "ts_den": 4, "key_fifths": 0, "key_mode": 0, "clef": 1, "tempo": 120, "velocity": 100, "lyrics": "", "expr": [], "segs": [{"start": 0.0, "dur": 1.0, "rest": false, "notes": [{"pitch": 53, "vel": 120, "dur": 1.0, "tieStart": false, "tieEnd": false, "tieGroup": 0}]}, {"start": 1.0, "dur": 0.5, "rest": false, "notes": [{"pitch": 55, "vel": 116, "dur": 0.5, "tieStart": false, "tieEnd": false, "tieGroup": 0}]}, {"start": 1.5, "dur": 0.5, "rest": false, "notes": [{"pitch": 57, "vel": 120, "dur": 0.5, "tieStart": false, "tieEnd": false, "tieGroup": 0}]}, {"start": 2.0, "dur": 1.0, "rest": false, "notes": [{"pitch": 53, "vel": 120, "dur": 1.0, "tieStart": false, "tieEnd": false, "tieGroup": 0}, {"pitch": 57, "vel": 120, "dur": 1.0, "tieStart": false, "tieEnd": false, "tieGroup": 0}]}, {"start": 3.0, "dur": 1.0, "rest": false, "notes": [{"pitch": 57, "vel": 97, "dur": 1.0, "tieStart": false, "tieEnd": false, "tieGroup": 0}]}]}, {"ts_num": 4, "ts_den": 4, "key_fifths": 0, "key_mode": 0, "clef": 1, "tempo": 120, "velocity": 100, "lyrics": "", "expr": [], "segs": [{"start": 0.0, "dur": 0.5, "rest": false, "notes": [{"pitch": 43, "vel": 97, "dur": 0.5, "tieStart": false, "tieEnd": false, "tieGroup": 0}, {"pitch": 57, "vel": 97, "dur": 0.5, "tieStart": false, "tieEnd": false, "tieGroup": 0}]}, {"start": 0.5, "dur": 0.5, "rest": false, "notes": [{"pitch": 50, "vel": 65, "dur": 0.5, "tieStart": false, "tieEnd": false, "tieGroup": 0}]}, {"start": 1.0, "dur": 0.5, "rest": false, "notes": [{"pitch": 50, "vel": 97, "dur": 0.5, "tieStart": false, "tieEnd": false, "tieGroup": 0}, {"pitch": 55, "vel": 61, "dur": 0.5, "tieStart": false, "tieEnd": false, "tieGroup": 0}]}, {"start": 1.5, "dur": 0.5, "rest": false, "notes": [{"pitch": 55, "vel": 65, "dur": 0.5, "tieStart": false, "tieEnd": false, "tieGroup": 0}]}, {"start": 2.0, "dur": 0.5, "rest": true, "notes": []}, {"start": 2.5, "dur": 0.5, "rest": false, "notes": [{"pitch": 55, "vel": 97, "dur": 0.5, "tieStart": false, "tieEnd": false, "tieGroup": 379}]}, {"start": 3.0, "dur": 0.5, "rest": false, "notes": [{"pitch": 57, "vel": 97, "dur": 0.5, "tieStart": false, "tieEnd": false, "tieGroup": 0}, {"pitch": 59, "vel": 93, "dur": 0.5, "tieStart": false, "tieEnd": false, "tieGroup": 0}]}, {"start": 3.5, "dur": 0.5, "rest": false, "notes": [{"pitch": 50, "vel": 57, "dur": 0.5, "tieStart": false, "tieEnd": false, "tieGroup": 0}, {"pitch": 55, "vel": 57, "dur": 0.5, "tieStart": false, "tieEnd": false, "tieGroup": 0}]}]}, {"ts_num": 4, "ts_den": 4, "key_fifths": 0, "key_mode": 0, "clef": 1, "tempo": 120, "velocity": 100, "lyrics": "", "expr": [], "segs": [{"start": 0.0, "dur": 0.5, "rest": false, "notes": [{"pitch": 43, "vel": 97, "dur": 0.5, "tieStart": false, "tieEnd": false, "tieGroup": 0}, {"pitch": 55, "vel": 97, "dur": 0.5, "tieStart": false, "tieEnd": false, "tieGroup": 0}, {"pitch": 59, "vel": 97, "dur": 0.5, "tieStart": false, "tieEnd": false, "tieGroup": 0}]}, {"start": 0.5, "dur": 0.5, "rest": false, "notes": [{"pitch": 55, "vel": 93, "dur": 0.5, "tieStart": false, "tieEnd": false, "tieGroup": 0}]}, {"start": 1.0, "dur": 0.5, "rest": false, "notes": [{"pitch": 55, "vel": 97, "dur": 0.5, "tieStart": false, "tieEnd": false, "tieGroup": 0}]}, {"start": 1.5, "dur": 0.5, "rest": false, "notes": [{"pitch": 55, "vel": 97, "dur": 0.5, "tieStart": false, "tieEnd": false, "tieGroup": 0}, {"pitch": 59, "vel": 85, "dur": 0.5, "tieStart": false, "tieEnd": false, "tieGroup": 0}]}, {"start": 2.0, "dur": 0.5, "rest": true, "notes": []}, {"start": 2.5, "dur": 0.5, "rest": false, "notes": [{"pitch": 55, "vel": 97, "dur": 0.5, "tieStart": false, "tieEnd": false, "tieGroup": 383}, {"pitch": 59, "vel": 89, "dur": 0.5, "tieStart": false, "tieEnd": false, "tieGroup": 0}]}, {"start": 3.0, "dur": 0.5, "rest": false, "notes": [{"pitch": 50, "vel": 97, "dur": 0.5, "tieStart": false, "tieEnd": false, "tieGroup": 0}]}, {"start": 3.5, "dur": 0.5, "rest": false, "notes": [{"pitch": 55, "vel": 89, "dur": 0.5, "tieStart": false, "tieEnd": false, "tieGroup": 0}]}]}, {"ts_num": 4, "ts_den": 4, "key_fifths": 0, "key_mode": 0, "clef": 1, "tempo": 120, "velocity": 100, "lyrics": "", "expr": [], "segs": [{"start": 0.0, "dur": 0.5, "rest": false, "notes": [{"pitch": 45, "vel": 97, "dur": 0.5, "tieStart": false, "tieEnd": false, "tieGroup": 0}, {"pitch": 53, "vel": 97, "dur": 0.5, "tieStart": false, "tieEnd": false, "tieGroup": 0}]}, {"start": 0.5, "dur": 0.5, "rest": false, "notes": [{"pitch": 45, "vel": 97, "dur": 0.5, "tieStart": false, "tieEnd": false, "tieGroup": 0}, {"pitch": 53, "vel": 97, "dur": 0.5, "tieStart": false, "tieEnd": false, "tieGroup": 0}]}, {"start": 1.0, "dur": 0.5, "rest": false, "notes": [{"pitch": 45, "vel": 97, "dur": 0.5, "tieStart": false, "tieEnd": false, "tieGroup": 0}, {"pitch": 53, "vel": 97, "dur": 0.5, "tieStart": false, "tieEnd": false, "tieGroup": 0}, {"pitch": 57, "vel": 97, "dur": 0.5, "tieStart": false, "tieEnd": false, "tieGroup": 0}]}, {"start": 1.5, "dur": 0.5, "rest": false, "notes": [{"pitch": 55, "vel": 97, "dur": 0.5, "tieStart": false, "tieEnd": false, "tieGroup": 0}, {"pitch": 57, "vel": 97, "dur": 0.5, "tieStart": true, "tieEnd": false, "tieGroup": 385}]}, {"start": 2.0, "dur": 0.5, "rest": false, "notes": [{"pitch": 57, "vel": 97, "dur": 0.5, "tieStart": true, "tieEnd": true, "tieGroup": 385}]}, {"start": 2.5, "dur": 0.5, "rest": false, "notes": [{"pitch": 55, "vel": 97, "dur": 0.5, "tieStart": false, "tieEnd": false, "tieGroup": 386}, {"pitch": 57, "vel": 97, "dur": 0.5, "tieStart": true, "tieEnd": true, "tieGroup": 385}]}, {"start": 3.0, "dur": 0.5, "rest": false, "notes": [{"pitch": 53, "vel": 97, "dur": 0.5, "tieStart": false, "tieEnd": false, "tieGroup": 0}, {"pitch": 57, "vel": 97, "dur": 0.5, "tieStart": true, "tieEnd": true, "tieGroup": 385}]}, {"start": 3.5, "dur": 0.5, "rest": false, "notes": [{"pitch": 57, "vel": 97, "dur": 0.5, "tieStart": false, "tieEnd": true, "tieGroup": 385}]}]}, {"ts_num": 4, "ts_den": 4, "key_fifths": 0, "key_mode": 0, "clef": 1, "tempo": 120, "velocity": 100, "lyrics": "", "expr": [], "segs": [{"start": 0.0, "dur": 0.5, "rest": false, "notes": [{"pitch": 52, "vel": 97, "dur": 0.5, "tieStart": false, "tieEnd": false, "tieGroup": 0}]}, {"start": 0.5, "dur": 0.5, "rest": false, "notes": [{"pitch": 55, "vel": 93, "dur": 0.5, "tieStart": false, "tieEnd": false, "tieGroup": 0}]}, {"start": 1.0, "dur": 0.5, "rest": false, "notes": [{"pitch": 52, "vel": 97, "dur": 0.5, "tieStart": false, "tieEnd": false, "tieGroup": 0}]}, {"start": 1.5, "dur": 0.5, "rest": false, "notes": [{"pitch": 59, "vel": 97, "dur": 0.5, "tieStart": true, "tieEnd": false, "tieGroup": 388}]}, {"start": 2.0, "dur": 0.5, "rest": false, "notes": [{"pitch": 59, "vel": 97, "dur": 0.5, "tieStart": true, "tieEnd": true, "tieGroup": 388}]}, {"start": 2.5, "dur": 0.5, "rest": false, "notes": [{"pitch": 52, "vel": 97, "dur": 0.5, "tieStart": false, "tieEnd": false, "tieGroup": 389}, {"pitch": 59, "vel": 97, "dur": 0.5, "tieStart": true, "tieEnd": true, "tieGroup": 388}]}, {"start": 3.0, "dur": 0.5, "rest": false, "notes": [{"pitch": 59, "vel": 97, "dur": 0.5, "tieStart": true, "tieEnd": true, "tieGroup": 388}]}, {"start": 3.5, "dur": 0.5, "rest": false, "notes": [{"pitch": 59, "vel": 97, "dur": 0.5, "tieStart": false, "tieEnd": true, "tieGroup": 388}]}]}, {"ts_num": 4, "ts_den": 4, "key_fifths": 0, "key_mode": 0, "clef": 1, "tempo": 120, "velocity": 100, "lyrics": "", "expr": [], "segs": [{"start": 0.0, "dur": 0.5, "rest": false, "notes": [{"pitch": 43, "vel": 105, "dur": 0.5, "tieStart": false, "tieEnd": false, "tieGroup": 0}, {"pitch": 55, "vel": 105, "dur": 0.5, "tieStart": false, "tieEnd": false, "tieGroup": 0}]}, {"start": 0.5, "dur": 0.5, "rest": false, "notes": [{"pitch": 55, "vel": 101, "dur": 0.5, "tieStart": false, "tieEnd": false, "tieGroup": 0}]}, {"start": 1.0, "dur": 0.5, "rest": false, "notes": [{"pitch": 55, "vel": 105, "dur": 0.5, "tieStart": false, "tieEnd": false, "tieGroup": 0}, {"pitch": 59, "vel": 101, "dur": 0.5, "tieStart": false, "tieEnd": false, "tieGroup": 0}]}, {"start": 1.5, "dur": 0.5, "rest": false, "notes": [{"pitch": 55, "vel": 105, "dur": 0.5, "tieStart": false, "tieEnd": false, "tieGroup": 0}, {"pitch": 59, "vel": 105, "dur": 0.5, "tieStart": false, "tieEnd": false, "tieGroup": 0}]}, {"start": 2.0, "dur": 0.5, "rest": true, "notes": []}, {"start": 2.5, "dur": 0.5, "rest": false, "notes": [{"pitch": 59, "vel": 105, "dur": 0.5, "tieStart": false, "tieEnd": false, "tieGroup": 393}]}, {"start": 3.0, "dur": 0.5, "rest": false, "notes": [{"pitch": 59, "vel": 105, "dur": 0.5, "tieStart": false, "tieEnd": false, "tieGroup": 0}]}, {"start": 3.5, "dur": 0.5, "rest": true, "notes": []}]}, {"ts_num": 4, "ts_den": 4, "key_fifths": 0, "key_mode": 0, "clef": 1, "tempo": 120, "velocity": 100, "lyrics": "", "expr": [], "segs": [{"start": 0.0, "dur": 0.5, "rest": false, "notes": [{"pitch": 43, "vel": 97, "dur": 0.5, "tieStart": false, "tieEnd": false, "tieGroup": 0}, {"pitch": 45, "vel": 97, "dur": 0.5, "tieStart": false, "tieEnd": false, "tieGroup": 0}]}, {"start": 0.5, "dur": 0.5, "rest": false, "notes": [{"pitch": 45, "vel": 97, "dur": 0.5, "tieStart": false, "tieEnd": false, "tieGroup": 0}, {"pitch": 53, "vel": 97, "dur": 0.5, "tieStart": false, "tieEnd": false, "tieGroup": 0}]}, {"start": 1.0, "dur": 0.5, "rest": false, "notes": [{"pitch": 48, "vel": 97, "dur": 0.5, "tieStart": false, "tieEnd": false, "tieGroup": 0}, {"pitch": 57, "vel": 97, "dur": 0.5, "tieStart": true, "tieEnd": false, "tieGroup": 395}]}, {"start": 1.5, "dur": 0.5, "rest": false, "notes": [{"pitch": 43, "vel": 97, "dur": 0.5, "tieStart": false, "tieEnd": false, "tieGroup": 0}, {"pitch": 45, "vel": 97, "dur": 0.5, "tieStart": false, "tieEnd": false, "tieGroup": 0}, {"pitch": 57, "vel": 97, "dur": 0.5, "tieStart": false, "tieEnd": true, "tieGroup": 395}]}, {"start": 2.0, "dur": 0.5, "rest": false, "notes": [{"pitch": 59, "vel": 97, "dur": 0.5, "tieStart": true, "tieEnd": false, "tieGroup": 396}]}, {"start": 2.5, "dur": 0.5, "rest": false, "notes": [{"pitch": 53, "vel": 97, "dur": 0.5, "tieStart": false, "tieEnd": false, "tieGroup": 397}, {"pitch": 59, "vel": 97, "dur": 0.5, "tieStart": true, "tieEnd": true, "tieGroup": 396}]}, {"start": 3.0, "dur": 0.5, "rest": false, "notes": [{"pitch": 59, "vel": 97, "dur": 0.5, "tieStart": true, "tieEnd": true, "tieGroup": 396}]}, {"start": 3.5, "dur": 0.5, "rest": false, "notes": [{"pitch": 45, "vel": 97, "dur": 0.5, "tieStart": false, "tieEnd": false, "tieGroup": 0}, {"pitch": 59, "vel": 97, "dur": 0.5, "tieStart": false, "tieEnd": true, "tieGroup": 396}]}]}, {"ts_num": 4, "ts_den": 4, "key_fifths": 0, "key_mode": 0, "clef": 1, "tempo": 120, "velocity": 100, "lyrics": "", "expr": [], "segs": [{"start": 0.0, "dur": 0.5, "rest": false, "notes": [{"pitch": 50, "vel": 97, "dur": 0.5, "tieStart": false, "tieEnd": false, "tieGroup": 0}]}, {"start": 0.5, "dur": 0.5, "rest": true, "notes": []}, {"start": 1.0, "dur": 0.5, "rest": false, "notes": [{"pitch": 52, "vel": 93, "dur": 0.5, "tieStart": false, "tieEnd": false, "tieGroup": 498}, {"pitch": 53, "vel": 97, "dur": 0.5, "tieStart": false, "tieEnd": false, "tieGroup": 0}, {"pitch": 57, "vel": 97, "dur": 0.5, "tieStart": false, "tieEnd": false, "tieGroup": 0}]}, {"start": 1.5, "dur": 0.5, "rest": false, "notes": [{"pitch": 57, "vel": 93, "dur": 0.5, "tieStart": false, "tieEnd": false, "tieGroup": 0}]}, {"start": 2.0, "dur": 1.0, "rest": false, "notes": [{"pitch": 50, "vel": 97, "dur": 1.0, "tieStart": false, "tieEnd": false, "tieGroup": 0}, {"pitch": 57, "vel": 97, "dur": 1.0, "tieStart": false, "tieEnd": false, "tieGroup": 0}]}, {"start": 3.0, "dur": 0.5, "rest": false, "notes": [{"pitch": 52, "vel": 93, "dur": 0.5, "tieStart": false, "tieEnd": false, "tieGroup": 0}, {"pitch": 53, "vel": 97, "dur": 0.5, "tieStart": false, "tieEnd": false, "tieGroup": 0}]}, {"start": 3.5, "dur": 0.5, "rest": false, "notes": [{"pitch": 53, "vel": 97, "dur": 0.5, "tieStart": false, "tieEnd": false, "tieGroup": 0}]}]}, {"ts_num": 4, "ts_den": 4, "key_fifths": 0, "key_mode": 0, "clef": 1, "tempo": 120, "velocity": 100, "lyrics": "", "expr": [], "segs": [{"start": 0.0, "dur": 0.5, "rest": false, "notes": [{"pitch": 43, "vel": 105, "dur": 0.5, "tieStart": false, "tieEnd": false, "tieGroup": 0}, {"pitch": 50, "vel": 97, "dur": 0.5, "tieStart": false, "tieEnd": false, "tieGroup": 0}, {"pitch": 59, "vel": 105, "dur": 0.5, "tieStart": false, "tieEnd": false, "tieGroup": 0}]}, {"start": 0.5, "dur": 0.5, "rest": true, "notes": []}, {"start": 1.0, "dur": 0.5, "rest": false, "notes": [{"pitch": 55, "vel": 97, "dur": 0.5, "tieStart": false, "tieEnd": false, "tieGroup": 499}, {"pitch": 59, "vel": 105, "dur": 0.5, "tieStart": false, "tieEnd": false, "tieGroup": 0}]}, {"start": 1.5, "dur": 0.5, "rest": false, "notes": [{"pitch": 43, "vel": 105, "dur": 0.5, "tieStart": false, "tieEnd": false, "tieGroup": 0}, {"pitch": 59, "vel": 105, "dur": 0.5, "tieStart": false, "tieEnd": false, "tieGroup": 0}]}, {"start": 2.0, "dur": 1.0, "rest": false, "notes": [{"pitch": 50, "vel": 97, "dur": 1.0, "tieStart": false, "tieEnd": false, "tieGroup": 0}, {"pitch": 55, "vel": 105, "dur": 1.0, "tieStart": false, "tieEnd": false, "tieGroup": 0}]}, {"start": 3.0, "dur": 0.5, "rest": false, "notes": [{"pitch": 55, "vel": 93, "dur": 0.5, "tieStart": false, "tieEnd": false, "tieGroup": 0}, {"pitch": 59, "vel": 97, "dur": 0.5, "tieStart": false, "tieEnd": false, "tieGroup": 0}]}, {"start": 3.5, "dur": 0.5, "rest": false, "notes": [{"pitch": 55, "vel": 97, "dur": 0.5, "tieStart": false, "tieEnd": false, "tieGroup": 0}]}]}, {"ts_num": 4, "ts_den": 4, "key_fifths": 0, "key_mode": 0, "clef": 1, "tempo": 120, "velocity": 100, "lyrics": "", "expr": [], "segs": [{"start": 0.0, "dur": 0.5, "rest": false, "notes": [{"pitch": 43, "vel": 97, "dur": 0.5, "tieStart": false, "tieEnd": false, "tieGroup": 0}, {"pitch": 55, "vel": 105, "dur": 0.5, "tieStart": false, "tieEnd": false, "tieGroup": 0}, {"pitch": 59, "vel": 97, "dur": 0.5, "tieStart": false, "tieEnd": false, "tieGroup": 0}]}, {"start": 0.5, "dur": 0.5, "rest": true, "notes": []}, {"start": 1.0, "dur": 0.5, "rest": false, "notes": [{"pitch": 50, "vel": 105, "dur": 0.5, "tieStart": false, "tieEnd": false, "tieGroup": 500}, {"pitch": 55, "vel": 105, "dur": 0.5, "tieStart": false, "tieEnd": false, "tieGroup": 0}]}, {"start": 1.5, "dur": 0.5, "rest": false, "notes": [{"pitch": 55, "vel": 93, "dur": 0.5, "tieStart": false, "tieEnd": false, "tieGroup": 0}, {"pitch": 59, "vel": 97, "dur": 0.5, "tieStart": false, "tieEnd": false, "tieGroup": 0}]}, {"start": 2.0, "dur": 1.0, "rest": false, "notes": [{"pitch": 43, "vel": 97, "dur": 1.0, "tieStart": false, "tieEnd": false, "tieGroup": 0}, {"pitch": 55, "vel": 105, "dur": 1.0, "tieStart": false, "tieEnd": false, "tieGroup": 0}, {"pitch": 59, "vel": 105, "dur": 1.0, "tieStart": false, "tieEnd": false, "tieGroup": 0}]}, {"start": 3.0, "dur": 0.5, "rest": false, "notes": [{"pitch": 50, "vel": 93, "dur": 0.5, "tieStart": false, "tieEnd": false, "tieGroup": 0}, {"pitch": 59, "vel": 105, "dur": 0.5, "tieStart": false, "tieEnd": false, "tieGroup": 0}]}, {"start": 3.5, "dur": 0.5, "rest": false, "notes": [{"pitch": 50, "vel": 105, "dur": 0.5, "tieStart": false, "tieEnd": false, "tieGroup": 0}, {"pitch": 55, "vel": 97, "dur": 0.5, "tieStart": false, "tieEnd": false, "tieGroup": 0}]}]}, {"ts_num": 4, "ts_den": 4, "key_fifths": 0, "key_mode": 0, "clef": 1, "tempo": 120, "velocity": 100, "lyrics": "", "expr": [], "segs": [{"start": 0.0, "dur": 0.5, "rest": false, "notes": [{"pitch": 43, "vel": 97, "dur": 0.5, "tieStart": false, "tieEnd": false, "tieGroup": 0}, {"pitch": 55, "vel": 105, "dur": 0.5, "tieStart": false, "tieEnd": false, "tieGroup": 0}]}, {"start": 0.5, "dur": 0.5, "rest": true, "notes": []}, {"start": 1.0, "dur": 0.5, "rest": false, "notes": [{"pitch": 55, "vel": 97, "dur": 0.5, "tieStart": false, "tieEnd": false, "tieGroup": 501}, {"pitch": 59, "vel": 97, "dur": 0.5, "tieStart": false, "tieEnd": false, "tieGroup": 0}]}, {"start": 1.5, "dur": 0.5, "rest": false, "notes": [{"pitch": 59, "vel": 97, "dur": 0.5, "tieStart": false, "tieEnd": false, "tieGroup": 0}]}, {"start": 2.0, "dur": 1.0, "rest": false, "notes": [{"pitch": 43, "vel": 97, "dur": 1.0, "tieStart": false, "tieEnd": false, "tieGroup": 0}, {"pitch": 59, "vel": 97, "dur": 1.0, "tieStart": false, "tieEnd": false, "tieGroup": 0}]}, {"start": 3.0, "dur": 0.5, "rest": false, "notes": [{"pitch": 55, "vel": 97, "dur": 0.5, "tieStart": false, "tieEnd": false, "tieGroup": 0}]}, {"start": 3.5, "dur": 0.5, "rest": false, "notes": [{"pitch": 59, "vel": 105, "dur": 0.5, "tieStart": false, "tieEnd": false, "tieGroup": 0}]}]}, {"ts_num": 4, "ts_den": 4, "key_fifths": 0, "key_mode": 0, "clef": 1, "tempo": 120, "velocity": 100, "lyrics": "", "expr": [], "segs": [{"start": 0.0, "dur": 0.5, "rest": false, "notes": [{"pitch": 48, "vel": 97, "dur": 0.5, "tieStart": false, "tieEnd": false, "tieGroup": 0}]}, {"start": 0.5, "dur": 0.5, "rest": true, "notes": []}, {"start": 1.0, "dur": 0.5, "rest": false, "notes": [{"pitch": 55, "vel": 93, "dur": 0.5, "tieStart": false, "tieEnd": false, "tieGroup": 502}]}, {"start": 1.5, "dur": 0.5, "rest": false, "notes": [{"pitch": 55, "vel": 97, "dur": 0.5, "tieStart": false, "tieEnd": false, "tieGroup": 0}]}, {"start": 2.0, "dur": 1.0, "rest": false, "notes": [{"pitch": 55, "vel": 97, "dur": 1.0, "tieStart": false, "tieEnd": false, "tieGroup": 0}]}, {"start": 3.0, "dur": 0.5, "rest": false, "notes": [{"pitch": 55, "vel": 97, "dur": 0.5, "tieStart": false, "tieEnd": false, "tieGroup": 0}]}, {"start": 3.5, "dur": 0.5, "rest": true, "notes": []}]}, {"ts_num": 4, "ts_den": 4, "key_fifths": 0, "key_mode": 0, "clef": 1, "tempo": 120, "velocity": 100, "lyrics": "", "expr": [], "segs": [{"start": 0.0, "dur": 0.5, "rest": false, "notes": [{"pitch": 43, "vel": 97, "dur": 0.5, "tieStart": false, "tieEnd": false, "tieGroup": 0}]}, {"start": 0.5, "dur": 0.5, "rest": true, "notes": []}, {"start": 1.0, "dur": 0.5, "rest": false, "notes": [{"pitch": 48, "vel": 97, "dur": 0.5, "tieStart": false, "tieEnd": false, "tieGroup": 503}]}, {"start": 1.5, "dur": 0.5, "rest": true, "notes": []}, {"start": 2.0, "dur": 1.0, "rest": false, "notes": [{"pitch": 52, "vel": 97, "dur": 1.0, "tieStart": false, "tieEnd": false, "tieGroup": 504}, {"pitch": 55, "vel": 97, "dur": 1.0, "tieStart": false, "tieEnd": false, "tieGroup": 0}]}, {"start": 3.0, "dur": 0.5, "rest": true, "notes": []}, {"start": 3.5, "dur": 0.5, "rest": false, "notes": [{"pitch": 52, "vel": 97, "dur": 0.5, "tieStart": false, "tieEnd": false, "tieGroup": 505}]}]}, {"ts_num": 4, "ts_den": 4, "key_fifths": 0, "key_mode": 0, "clef": 1, "tempo": 120, "velocity": 100, "lyrics": "", "expr": [], "segs": [{"start": 0.0, "dur": 0.5, "rest": false, "notes": [{"pitch": 43, "vel": 97, "dur": 0.5, "tieStart": false, "tieEnd": false, "tieGroup": 0}, {"pitch": 59, "vel": 97, "dur": 0.5, "tieStart": false, "tieEnd": false, "tieGroup": 0}]}, {"start": 0.5, "dur": 0.5, "rest": false, "notes": [{"pitch": 55, "vel": 97, "dur": 0.5, "tieStart": false, "tieEnd": false, "tieGroup": 0}, {"pitch": 59, "vel": 97, "dur": 0.5, "tieStart": false, "tieEnd": false, "tieGroup": 0}]}, {"start": 1.0, "dur": 0.5, "rest": true, "notes": []}, {"start": 1.5, "dur": 0.5, "rest": false, "notes": [{"pitch": 59, "vel": 93, "dur": 0.5, "tieStart": false, "tieEnd": false, "tieGroup": 415}]}, {"start": 2.0, "dur": 0.5, "rest": false, "notes": [{"pitch": 55, "vel": 97, "dur": 0.5, "tieStart": false, "tieEnd": false, "tieGroup": 0}, {"pitch": 59, "vel": 97, "dur": 0.5, "tieStart": false, "tieEnd": false, "tieGroup": 0}]}, {"start": 2.5, "dur": 0.5, "rest": false, "notes": [{"pitch": 59, "vel": 97, "dur": 0.5, "tieStart": false, "tieEnd": false, "tieGroup": 0}]}, {"start": 3.0, "dur": 0.5, "rest": true, "notes": []}, {"start": 3.5, "dur": 0.5, "rest": false, "notes": [{"pitch": 55, "vel": 97, "dur": 0.5, "tieStart": false, "tieEnd": false, "tieGroup": 418}]}]}, {"ts_num": 4, "ts_den": 4, "key_fifths": 0, "key_mode": 0, "clef": 1, "tempo": 120, "velocity": 100, "lyrics": "", "expr": [], "segs": [{"start": 0.0, "dur": 0.5, "rest": false, "notes": [{"pitch": 43, "vel": 97, "dur": 0.5, "tieStart": false, "tieEnd": false, "tieGroup": 0}, {"pitch": 55, "vel": 97, "dur": 0.5, "tieStart": false, "tieEnd": false, "tieGroup": 0}]}, {"start": 0.5, "dur": 0.5, "rest": false, "notes": [{"pitch": 55, "vel": 97, "dur": 0.5, "tieStart": false, "tieEnd": false, "tieGroup": 0}, {"pitch": 59, "vel": 97, "dur": 0.5, "tieStart": false, "tieEnd": false, "tieGroup": 0}]}, {"start": 1.0, "dur": 0.5, "rest": true, "notes": []}, {"start": 1.5, "dur": 0.5, "rest": false, "notes": [{"pitch": 59, "vel": 97, "dur": 0.5, "tieStart": false, "tieEnd": false, "tieGroup": 420}]}, {"start": 2.0, "dur": 0.5, "rest": false, "notes": [{"pitch": 55, "vel": 97, "dur": 0.5, "tieStart": false, "tieEnd": false, "tieGroup": 0}]}, {"start": 2.5, "dur": 0.5, "rest": false, "notes": [{"pitch": 59, "vel": 97, "dur": 0.5, "tieStart": false, "tieEnd": false, "tieGroup": 0}]}, {"start": 3.0, "dur": 0.5, "rest": true, "notes": []}, {"start": 3.5, "dur": 0.5, "rest": false, "notes": [{"pitch": 55, "vel": 97, "dur": 0.5, "tieStart": false, "tieEnd": false, "tieGroup": 423}]}]}, {"ts_num": 4, "ts_den": 4, "key_fifths": 0, "key_mode": 0, "clef": 1, "tempo": 120, "velocity": 100, "lyrics": "", "expr": [], "segs": [{"start": 0.0, "dur": 0.5, "rest": false, "notes": [{"pitch": 43, "vel": 97, "dur": 0.5, "tieStart": false, "tieEnd": false, "tieGroup": 0}, {"pitch": 55, "vel": 97, "dur": 0.5, "tieStart": false, "tieEnd": false, "tieGroup": 0}, {"pitch": 59, "vel": 97, "dur": 0.5, "tieStart": false, "tieEnd": false, "tieGroup": 0}]}, {"start": 0.5, "dur": 0.5, "rest": false, "notes": [{"pitch": 55, "vel": 97, "dur": 0.5, "tieStart": false, "tieEnd": false, "tieGroup": 0}]}, {"start": 1.0, "dur": 0.5, "rest": true, "notes": []}, {"start": 1.5, "dur": 0.5, "rest": false, "notes": [{"pitch": 55, "vel": 97, "dur": 0.5, "tieStart": false, "tieEnd": false, "tieGroup": 506}, {"pitch": 57, "vel": 93, "dur": 0.5, "tieStart": false, "tieEnd": false, "tieGroup": 0}, {"pitch": 59, "vel": 93, "dur": 0.5, "tieStart": false, "tieEnd": false, "tieGroup": 0}]}, {"start": 2.0, "dur": 0.5, "rest": false, "notes": [{"pitch": 43, "vel": 97, "dur": 0.5, "tieStart": false, "tieEnd": false, "tieGroup": 0}]}, {"start": 2.5, "dur": 0.5, "rest": false, "notes": [{"pitch": 55, "vel": 97, "dur": 0.5, "tieStart": false, "tieEnd": false, "tieGroup": 0}]}, {"start": 3.0, "dur": 0.5, "rest": true, "notes": []}, {"start": 3.5, "dur": 0.5, "rest": false, "notes": [{"pitch": 55, "vel": 97, "dur": 0.5, "tieStart": false, "tieEnd": false, "tieGroup": 426}, {"pitch": 57, "vel": 93, "dur": 0.5, "tieStart": false, "tieEnd": false, "tieGroup": 0}, {"pitch": 59, "vel": 97, "dur": 0.5, "tieStart": false, "tieEnd": false, "tieGroup": 0}]}]}, {"ts_num": 4, "ts_den": 4, "key_fifths": 0, "key_mode": 0, "clef": 1, "tempo": 120, "velocity": 100, "lyrics": "", "expr": [], "segs": [{"start": 0.0, "dur": 0.5, "rest": false, "notes": [{"pitch": 43, "vel": 105, "dur": 0.5, "tieStart": false, "tieEnd": false, "tieGroup": 0}, {"pitch": 55, "vel": 97, "dur": 0.5, "tieStart": false, "tieEnd": false, "tieGroup": 0}, {"pitch": 59, "vel": 105, "dur": 0.5, "tieStart": false, "tieEnd": false, "tieGroup": 0}]}, {"start": 0.5, "dur": 0.5, "rest": false, "notes": [{"pitch": 55, "vel": 101, "dur": 0.5, "tieStart": false, "tieEnd": false, "tieGroup": 0}, {"pitch": 59, "vel": 105, "dur": 0.5, "tieStart": false, "tieEnd": false, "tieGroup": 0}]}, {"start": 1.0, "dur": 0.5, "rest": true, "notes": []}, {"start": 1.5, "dur": 0.5, "rest": false, "notes": [{"pitch": 43, "vel": 97, "dur": 0.5, "tieStart": false, "tieEnd": false, "tieGroup": 428}, {"pitch": 55, "vel": 105, "dur": 0.5, "tieStart": false, "tieEnd": false, "tieGroup": 0}]}, {"start": 2.0, "dur": 0.5, "rest": false, "notes": [{"pitch": 59, "vel": 105, "dur": 0.5, "tieStart": false, "tieEnd": false, "tieGroup": 0}]}, {"start": 2.5, "dur": 0.5, "rest": false, "notes": [{"pitch": 43, "vel": 97, "dur": 0.5, "tieStart": false, "tieEnd": false, "tieGroup": 0}, {"pitch": 50, "vel": 97, "dur": 0.5, "tieStart": false, "tieEnd": false, "tieGroup": 0}]}, {"start": 3.0, "dur": 0.5, "rest": true, "notes": []}, {"start": 3.5, "dur": 0.5, "rest": false, "notes": [{"pitch": 55, "vel": 105, "dur": 0.5, "tieStart": false, "tieEnd": false, "tieGroup": 431}]}]}, {"ts_num": 4, "ts_den": 4, "key_fifths": 0, "key_mode": 0, "clef": 1, "tempo": 120, "velocity": 100, "lyrics": "", "expr": [], "segs": [{"start": 0.0, "dur": 0.5, "rest": false, "notes": [{"pitch": 45, "vel": 97, "dur": 0.5, "tieStart": false, "tieEnd": false, "tieGroup": 0}]}, {"start": 0.5, "dur": 0.5, "rest": false, "notes": [{"pitch": 57, "vel": 93, "dur": 0.5, "tieStart": false, "tieEnd": false, "tieGroup": 0}]}, {"start": 1.0, "dur": 1.5, "rest": true, "notes": []}, {"start": 2.5, "dur": 0.5, "rest": false, "notes": [{"pitch": 57, "vel": 97, "dur": 0.5, "tieStart": false, "tieEnd": false, "tieGroup": 507}]}, {"start": 3.0, "dur": 1.0, "rest": true, "notes": []}]}, {"ts_num": 4, "ts_den": 4, "key_fifths": 0, "key_mode": 0, "clef": 1, "tempo": 120, "velocity": 100, "lyrics": "", "expr": [], "segs": [{"start": 0.0, "dur": 1.0, "rest": true, "notes": []}, {"start": 1.0, "dur": 1.0, "rest": false, "notes": [{"pitch": 40, "vel": 97, "dur": 1.0, "tieStart": false, "tieEnd": false, "tieGroup": 508}, {"pitch": 45, "vel": 93, "dur": 1.0, "tieStart": false, "tieEnd": false, "tieGroup": 0}, {"pitch": 48, "vel": 89, "dur": 1.0, "tieStart": false, "tieEnd": false, "tieGroup": 0}]}, {"start": 2.0, "dur": 1.0, "rest": false, "notes": [{"pitch": 45, "vel": 97, "dur": 1.0, "tieStart": false, "tieEnd": false, "tieGroup": 0}]}, {"start": 3.0, "dur": 1.0, "rest": true, "notes": []}]}, {"ts_num": 4, "ts_den": 4, "key_fifths": 0, "key_mode": 0, "clef": 1, "tempo": 120, "velocity": 100, "lyrics": "", "expr": [], "segs": [{"start": 0.0, "dur": 0.5, "rest": false, "notes": [{"pitch": 43, "vel": 97, "dur": 0.5, "tieStart": false, "tieEnd": false, "tieGroup": 0}]}, {"start": 0.5, "dur": 0.5, "rest": true, "notes": []}, {"start": 1.0, "dur": 1.0, "rest": false, "notes": [{"pitch": 43, "vel": 97, "dur": 1.0, "tieStart": false, "tieEnd": false, "tieGroup": 510}, {"pitch": 55, "vel": 93, "dur": 1.0, "tieStart": false, "tieEnd": false, "tieGroup": 0}]}, {"start": 2.0, "dur": 0.5, "rest": false, "notes": [{"pitch": 55, "vel": 93, "dur": 0.5, "tieStart": false, "tieEnd": false, "tieGroup": 0}, {"pitch": 59, "vel": 89, "dur": 0.5, "tieStart": false, "tieEnd": false, "tieGroup": 0}]}, {"start": 2.5, "dur": 0.5, "rest": true, "notes": []}, {"start": 3.0, "dur": 1.0, "rest": false, "notes": [{"pitch": 59, "vel": 89, "dur": 1.0, "tieStart": false, "tieEnd": false, "tieGroup": 511}]}]}, {"ts_num": 4, "ts_den": 4, "key_fifths": 0, "key_mode": 0, "clef": 1, "tempo": 120, "velocity": 100, "lyrics": "", "expr": [], "segs": [{"start": 0.0, "dur": 0.5, "rest": false, "notes": [{"pitch": 52, "vel": 97, "dur": 0.5, "tieStart": false, "tieEnd": false, "tieGroup": 0}]}, {"start": 0.5, "dur": 3.5, "rest": true, "notes": []}]}, {"ts_num": 4, "ts_den": 4, "key_fifths": 0, "key_mode": 0, "clef": 1, "tempo": 120, "velocity": 100, "lyrics": "", "expr": [], "segs": [{"start": 0.0, "dur": 1.0, "rest": false, "notes": [{"pitch": 52, "vel": 97, "dur": 1.0, "tieStart": false, "tieEnd": false, "tieGroup": 0}]}, {"start": 1.0, "dur": 0.5, "rest": true, "notes": []}, {"start": 1.5, "dur": 0.5, "rest": false, "notes": [{"pitch": 52, "vel": 97, "dur": 0.5, "tieStart": false, "tieEnd": false, "tieGroup": 437}]}, {"start": 2.0, "dur": 0.5, "rest": false, "notes": [{"pitch": 55, "vel": 97, "dur": 0.5, "tieStart": true, "tieEnd": false, "tieGroup": 440}]}, {"start": 2.5, "dur": 0.25, "rest": false, "notes": [{"pitch": 55, "vel": 97, "dur": 0.25, "tieStart": true, "tieEnd": true, "tieGroup": 440}]}, {"start": 2.75, "dur": 0.25, "rest": false, "notes": [{"pitch": 55, "vel": 97, "dur": 0.25, "tieStart": false, "tieEnd": true, "tieGroup": 440}]}, {"start": 3.0, "dur": 1.0, "rest": false, "notes": [{"pitch": 59, "vel": 97, "dur": 1.0, "tieStart": false, "tieEnd": false, "tieGroup": 0}]}]}, {"ts_num": 4, "ts_den": 4, "key_fifths": 0, "key_mode": 0, "clef": 1, "tempo": 120, "velocity": 100, "lyrics": "", "expr": [], "segs": [{"start": 0.0, "dur": 0.5, "rest": false, "notes": [{"pitch": 45, "vel": 97, "dur": 0.5, "tieStart": true, "tieEnd": false, "tieGroup": 442}, {"pitch": 59, "vel": 85, "dur": 0.5, "tieStart": true, "tieEnd": false, "tieGroup": 443}]}, {"start": 0.5, "dur": 0.5, "rest": false, "notes": [{"pitch": 45, "vel": 97, "dur": 0.5, "tieStart": false, "tieEnd": true, "tieGroup": 442}, {"pitch": 59, "vel": 85, "dur": 0.5, "tieStart": false, "tieEnd": true, "tieGroup": 443}]}, {"start": 1.0, "dur": 0.5, "rest": true, "notes": []}, {"start": 1.5, "dur": 0.5, "rest": false, "notes": [{"pitch": 45, "vel": 97, "dur": 0.5, "tieStart": false, "tieEnd": false, "tieGroup": 445}, {"pitch": 48, "vel": 93, "dur": 0.5, "tieStart": false, "tieEnd": false, "tieGroup": 0}, {"pitch": 52, "vel": 89, "dur": 0.5, "tieStart": false, "tieEnd": false, "tieGroup": 0}]}, {"start": 2.0, "dur": 0.75, "rest": false, "notes": [{"pitch": 52, "vel": 89, "dur": 0.75, "tieStart": true, "tieEnd": false, "tieGroup": 448}, {"pitch": 57, "vel": 93, "dur": 0.75, "tieStart": true, "tieEnd": false, "tieGroup": 449}]}, {"start": 2.75, "dur": 0.25, "rest": false, "notes": [{"pitch": 52, "vel": 89, "dur": 0.25, "tieStart": false, "tieEnd": true, "tieGroup": 448}, {"pitch": 57, "vel": 93, "dur": 0.25, "tieStart": false, "tieEnd": true, "tieGroup": 449}]}, {"start": 3.0, "dur": 1.0, "rest": false, "notes": [{"pitch": 57, "vel": 85, "dur": 1.0, "tieStart": false, "tieEnd": false, "tieGroup": 0}]}]}, {"ts_num": 4, "ts_den": 4, "key_fifths": 0, "key_mode": 0, "clef": 1, "tempo": 120, "velocity": 100, "lyrics": "", "expr": [], "segs": [{"start": 0.0, "dur": 1.0, "rest": false, "notes": [{"pitch": 48, "vel": 97, "dur": 1.0, "tieStart": false, "tieEnd": false, "tieGroup": 0}]}, {"start": 1.0, "dur": 0.5, "rest": true, "notes": []}, {"start": 1.5, "dur": 0.5, "rest": false, "notes": [{"pitch": 53, "vel": 93, "dur": 0.5, "tieStart": false, "tieEnd": false, "tieGroup": 452}]}, {"start": 2.0, "dur": 0.5, "rest": false, "notes": [{"pitch": 48, "vel": 97, "dur": 0.5, "tieStart": true, "tieEnd": false, "tieGroup": 454}, {"pitch": 53, "vel": 97, "dur": 0.5, "tieStart": true, "tieEnd": false, "tieGroup": 455}, {"pitch": 55, "vel": 93, "dur": 0.5, "tieStart": true, "tieEnd": false, "tieGroup": 456}, {"pitch": 57, "vel": 89, "dur": 0.5, "tieStart": true, "tieEnd": false, "tieGroup": 457}]}, {"start": 2.5, "dur": 0.5, "rest": false, "notes": [{"pitch": 48, "vel": 97, "dur": 0.5, "tieStart": false, "tieEnd": true, "tieGroup": 454}, {"pitch": 53, "vel": 97, "dur": 0.5, "tieStart": false, "tieEnd": true, "tieGroup": 455}, {"pitch": 55, "vel": 93, "dur": 0.5, "tieStart": false, "tieEnd": true, "tieGroup": 456}, {"pitch": 57, "vel": 89, "dur": 0.5, "tieStart": false, "tieEnd": true, "tieGroup": 457}]}, {"start": 3.0, "dur": 1.0, "rest": false, "notes": [{"pitch": 57, "vel": 89, "dur": 1.0, "tieStart": false, "tieEnd": false, "tieGroup": 0}]}]}, {"ts_num": 4, "ts_den": 4, "key_fifths": 0, "key_mode": 0, "clef": 1, "tempo": 120, "velocity": 100, "lyrics": "", "expr": [], "segs": [{"start": 0.0, "dur": 1.0, "rest": false, "notes": [{"pitch": 48, "vel": 97, "dur": 1.0, "tieStart": false, "tieEnd": false, "tieGroup": 0}, {"pitch": 55, "vel": 93, "dur": 1.0, "tieStart": false, "tieEnd": false, "tieGroup": 0}]}, {"start": 1.0, "dur": 1.0, "rest": false, "notes": [{"pitch": 48, "vel": 97, "dur": 1.0, "tieStart": false, "tieEnd": false, "tieGroup": 0}, {"pitch": 55, "vel": 93, "dur": 1.0, "tieStart": false, "tieEnd": false, "tieGroup": 0}]}, {"start": 2.0, "dur": 0.5, "rest": false, "notes": [{"pitch": 48, "vel": 97, "dur": 0.5, "tieStart": false, "tieEnd": false, "tieGroup": 0}]}, {"start": 2.5, "dur": 1.5, "rest": false, "notes": [{"pitch": 48, "vel": 97, "dur": 1.5, "tieStart": false, "tieEnd": false, "tieGroup": 0}]}]}, {"ts_num": 4, "ts_den": 4, "key_fifths": 0, "key_mode": 0, "clef": 1, "tempo": 120, "velocity": 100, "lyrics": "", "expr": [], "segs": [{"start": 0.0, "dur": 0.5, "rest": false, "notes": [{"pitch": 43, "vel": 97, "dur": 0.5, "tieStart": false, "tieEnd": false, "tieGroup": 0}, {"pitch": 47, "vel": 93, "dur": 0.5, "tieStart": false, "tieEnd": false, "tieGroup": 0}]}, {"start": 0.5, "dur": 0.5, "rest": false, "notes": [{"pitch": 43, "vel": 97, "dur": 0.5, "tieStart": false, "tieEnd": false, "tieGroup": 0}, {"pitch": 55, "vel": 97, "dur": 0.5, "tieStart": false, "tieEnd": false, "tieGroup": 0}]}, {"start": 1.0, "dur": 0.5, "rest": false, "notes": [{"pitch": 55, "vel": 97, "dur": 0.5, "tieStart": false, "tieEnd": false, "tieGroup": 0}, {"pitch": 59, "vel": 97, "dur": 0.5, "tieStart": false, "tieEnd": false, "tieGroup": 0}]}, {"start": 1.5, "dur": 0.5, "rest": false, "notes": [{"pitch": 55, "vel": 97, "dur": 0.5, "tieStart": false, "tieEnd": false, "tieGroup": 0}, {"pitch": 59, "vel": 97, "dur": 0.5, "tieStart": false, "tieEnd": false, "tieGroup": 0}]}, {"start": 2.0, "dur": 0.5, "rest": false, "notes": [{"pitch": 55, "vel": 97, "dur": 0.5, "tieStart": false, "tieEnd": false, "tieGroup": 0}]}, {"start": 2.5, "dur": 0.5, "rest": false, "notes": [{"pitch": 47, "vel": 97, "dur": 0.5, "tieStart": false, "tieEnd": false, "tieGroup": 0}, {"pitch": 50, "vel": 97, "dur": 0.5, "tieStart": false, "tieEnd": false, "tieGroup": 0}, {"pitch": 55, "vel": 97, "dur": 0.5, "tieStart": true, "tieEnd": false, "tieGroup": 460}]}, {"start": 3.0, "dur": 0.5, "rest": false, "notes": [{"pitch": 50, "vel": 97, "dur": 0.5, "tieStart": false, "tieEnd": false, "tieGroup": 0}, {"pitch": 55, "vel": 97, "dur": 0.5, "tieStart": true, "tieEnd": true, "tieGroup": 460}]}, {"start": 3.5, "dur": 0.5, "rest": false, "notes": [{"pitch": 55, "vel": 97, "dur": 0.5, "tieStart": false, "tieEnd": true, "tieGroup": 460}]}]}, {"ts_num": 4, "ts_den": 4, "key_fifths": 0, "key_mode": 0, "clef": 1, "tempo": 120, "velocity": 100, "lyrics": "", "expr": [], "segs": [{"start": 0.0, "dur": 0.5, "rest": false, "notes": [{"pitch": 43, "vel": 81, "dur": 0.5, "tieStart": false, "tieEnd": false, "tieGroup": 0}, {"pitch": 55, "vel": 77, "dur": 0.5, "tieStart": false, "tieEnd": false, "tieGroup": 0}, {"pitch": 59, "vel": 97, "dur": 0.5, "tieStart": true, "tieEnd": false, "tieGroup": 461}]}, {"start": 0.5, "dur": 0.5, "rest": false, "notes": [{"pitch": 55, "vel": 81, "dur": 0.5, "tieStart": false, "tieEnd": false, "tieGroup": 0}, {"pitch": 59, "vel": 97, "dur": 0.5, "tieStart": false, "tieEnd": true, "tieGroup": 461}]}, {"start": 1.0, "dur": 0.5, "rest": false, "notes": [{"pitch": 55, "vel": 81, "dur": 0.5, "tieStart": false, "tieEnd": false, "tieGroup": 0}]}, {"start": 1.5, "dur": 0.5, "rest": true, "notes": []}, {"start": 2.0, "dur": 1.0, "rest": false, "notes": [{"pitch": 55, "vel": 81, "dur": 1.0, "tieStart": false, "tieEnd": false, "tieGroup": 514}]}, {"start": 3.0, "dur": 0.5, "rest": false, "notes": [{"pitch": 55, "vel": 81, "dur": 0.5, "tieStart": false, "tieEnd": false, "tieGroup": 0}]}, {"start": 3.5, "dur": 0.5, "rest": false, "notes": [{"pitch": 59, "vel": 81, "dur": 0.5, "tieStart": false, "tieEnd": false, "tieGroup": 0}]}]}, {"ts_num": 4, "ts_den": 4, "key_fifths": 0, "key_mode": 0, "clef": 1, "tempo": 120, "velocity": 100, "lyrics": "", "expr": [], "segs": [{"start": 0.0, "dur": 1.0, "rest": false, "notes": [{"pitch": 48, "vel": 97, "dur": 1.0, "tieStart": false, "tieEnd": false, "tieGroup": 0}, {"pitch": 52, "vel": 93, "dur": 1.0, "tieStart": false, "tieEnd": false, "tieGroup": 0}]}, {"start": 1.0, "dur": 1.0, "rest": false, "notes": [{"pitch": 48, "vel": 97, "dur": 1.0, "tieStart": true, "tieEnd": false, "tieGroup": 463}]}, {"start": 2.0, "dur": 2.0, "rest": false, "notes": [{"pitch": 48, "vel": 97, "dur": 2.0, "tieStart": false, "tieEnd": true, "tieGroup": 463}]}]}, {"ts_num": 4, "ts_den": 4, "key_fifths": 0, "key_mode": 0, "clef": 1, "tempo": 120, "velocity": 100, "lyrics": "", "expr": [], "segs": [{"start": 0.0, "dur": 1.0, "rest": false, "notes": [{"pitch": 43, "vel": 97, "dur": 1.0, "tieStart": false, "tieEnd": false, "tieGroup": 0}, {"pitch": 59, "vel": 100, "dur": 1.0, "tieStart": false, "tieEnd": false, "tieGroup": 0}]}, {"start": 1.0, "dur": 1.0, "rest": false, "notes": [{"pitch": 43, "vel": 97, "dur": 1.0, "tieStart": false, "tieEnd": false, "tieGroup": 0}]}, {"start": 2.0, "dur": 1.0, "rest": false, "notes": [{"pitch": 43, "vel": 97, "dur": 1.0, "tieStart": false, "tieEnd": false, "tieGroup": 0}]}, {"start": 3.0, "dur": 0.5, "rest": false, "notes": [{"pitch": 43, "vel": 97, "dur": 0.5, "tieStart": true, "tieEnd": false, "tieGroup": 466}]}, {"start": 3.5, "dur": 0.5, "rest": false, "notes": [{"pitch": 43, "vel": 97, "dur": 0.5, "tieStart": false, "tieEnd": true, "tieGroup": 466}, {"pitch": 59, "vel": 100, "dur": 0.5, "tieStart": false, "tieEnd": false, "tieGroup": 0}]}]}, {"ts_num": 4, "ts_den": 4, "key_fifths": 0, "key_mode": 0, "clef": 1, "tempo": 120, "velocity": 100, "lyrics": "", "expr": [], "segs": [{"start": 0.0, "dur": 0.5, "rest": false, "notes": [{"pitch": 45, "vel": 94, "dur": 0.5, "tieStart": true, "tieEnd": false, "tieGroup": 471}, {"pitch": 52, "vel": 94, "dur": 0.5, "tieStart": true, "tieEnd": false, "tieGroup": 472}]}, {"start": 0.5, "dur": 0.5, "rest": false, "notes": [{"pitch": 45, "vel": 94, "dur": 0.5, "tieStart": true, "tieEnd": true, "tieGroup": 471}, {"pitch": 52, "vel": 94, "dur": 0.5, "tieStart": true, "tieEnd": true, "tieGroup": 472}]}, {"start": 1.0, "dur": 1.0, "rest": false, "notes": [{"pitch": 45, "vel": 94, "dur": 1.0, "tieStart": false, "tieEnd": true, "tieGroup": 471}, {"pitch": 52, "vel": 94, "dur": 1.0, "tieStart": false, "tieEnd": true, "tieGroup": 472}]}, {"start": 2.0, "dur": 0.75, "rest": false, "notes": [{"pitch": 45, "vel": 94, "dur": 0.75, "tieStart": false, "tieEnd": false, "tieGroup": 0}, {"pitch": 52, "vel": 94, "dur": 0.75, "tieStart": false, "tieEnd": false, "tieGroup": 0}]}, {"start": 2.75, "dur": 0.25, "rest": false, "notes": [{"pitch": 45, "vel": 94, "dur": 0.25, "tieStart": false, "tieEnd": false, "tieGroup": 474}, {"pitch": 48, "vel": 97, "dur": 0.25, "tieStart": false, "tieEnd": false, "tieGroup": 475}, {"pitch": 52, "vel": 94, "dur": 0.25, "tieStart": false, "tieEnd": false, "tieGroup": 476}, {"pitch": 57, "vel": 93, "dur": 0.25, "tieStart": false, "tieEnd": false, "tieGroup": 477}]}, {"start": 3.0, "dur": 1.0, "rest": false, "notes": [{"pitch": 45, "vel": 100, "dur": 1.0, "tieStart": false, "tieEnd": false, "tieGroup": 0}, {"pitch": 52, "vel": 100, "dur": 1.0, "tieStart": false, "tieEnd": false, "tieGroup": 0}]}]}, {"ts_num": 4, "ts_den": 4, "key_fifths": 0, "key_mode": 0, "clef": 1, "tempo": 120, "velocity": 100, "lyrics": "", "expr": [], "segs": [{"start": 0.0, "dur": 4.0, "rest": true, "notes": []}]}, {"ts_num": 4, "ts_den": 4, "key_fifths": 0, "key_mode": 0, "clef": 1, "tempo": 120, "velocity": 100, "lyrics": "", "expr": [], "segs": [{"start": 0.0, "dur": 4.0, "rest": true, "notes": []}]}]}], "output_filters": []}