{"format": "arkscore", "version": 2, "title": "Last Letter — Breakup Ballad", "measure_width_scale": 1.299999952316284, "tracks": [{"name": "Piano Right", "instrument": {"name": "Grand Piano", "bankMSB": 0, "bankLSB": 0, "program": 0, "channelHint": -1, "percussion": false, "volume": 100, "pan": 64, "transpose": 0}, "measures": [{"ts_num": 4, "ts_den": 4, "key_fifths": 0, "key_mode": 0, "clef": 0, "tempo": 120, "velocity": 100, "lyrics": "", "expr": [], "segs": [{"start": 0.0, "dur": 1.0, "rest": false, "notes": [{"pitch": 69, "vel": 55, "dur": 1.0, "tieStart": false, "tieEnd": false, "tieGroup": 0}]}, {"start": 1.0, "dur": 1.0, "rest": false, "notes": [{"pitch": 72, "vel": 52, "dur": 1.0, "tieStart": false, "tieEnd": false, "tieGroup": 0}]}, {"start": 2.0, "dur": 1.0, "rest": false, "notes": [{"pitch": 76, "vel": 50, "dur": 1.0, "tieStart": false, "tieEnd": false, "tieGroup": 0}]}, {"start": 3.0, "dur": 1.0, "rest": false, "notes": [{"pitch": 81, "vel": 48, "dur": 1.0, "tieStart": false, "tieEnd": false, "tieGroup": 0}]}]}, {"ts_num": 4, "ts_den": 4, "key_fifths": 0, "key_mode": 0, "clef": 0, "tempo": 120, "velocity": 100, "lyrics": "", "expr": [], "segs": [{"start": 0.0, "dur": 1.0, "rest": false, "notes": [{"pitch": 65, "vel": 55, "dur": 1.0, "tieStart": false, "tieEnd": false, "tieGroup": 0}]}, {"start": 1.0, "dur": 1.0, "rest": false, "notes": [{"pitch": 69, "vel": 52, "dur": 1.0, "tieStart": false, "tieEnd": false, "tieGroup": 0}]}, {"start": 2.0, "dur": 1.0, "rest": false, "notes": [{"pitch": 72, "vel": 50, "dur": 1.0, "tieStart": false, "tieEnd": false, "tieGroup": 0}]}, {"start": 3.0, "dur": 1.0, "rest": false, "notes": [{"pitch": 77, "vel": 48, "dur": 1.0, "tieStart": false, "tieEnd": false, "tieGroup": 0}]}]}, {"ts_num": 4, "ts_den": 4, "key_fifths": 0, "key_mode": 0, "clef": 0, "tempo": 120, "velocity": 100, "lyrics": "", "expr": [], "segs": [{"start": 0.0, "dur": 1.0, "rest": false, "notes": [{"pitch": 60, "vel": 55, "dur": 1.0, "tieStart": false, "tieEnd": false, "tieGroup": 0}]}, {"start": 1.0, "dur": 1.0, "rest": false, "notes": [{"pitch": 64, "vel": 52, "dur": 1.0, "tieStart": false, "tieEnd": false, "tieGroup": 0}]}, {"start": 2.0, "dur": 1.0, "rest": false, "notes": [{"pitch": 67, "vel": 50, "dur": 1.0, "tieStart": false, "tieEnd": false, "tieGroup": 0}]}, {"start": 3.0, "dur": 1.0, "rest": false, "notes": [{"pitch": 72, "vel": 48, "dur": 1.0, "tieStart": false, "tieEnd": false, "tieGroup": 0}]}]}, {"ts_num": 4, "ts_den": 4, "key_fifths": 0, "key_mode": 0, "clef": 0, "tempo": 120, "velocity": 100, "lyrics": "", "expr": [], "segs": [{"start": 0.0, "dur": 1.0, "rest": false, "notes": [{"pitch": 64, "vel": 58, "dur": 1.0, "tieStart": false, "tieEnd": false, "tieGroup": 0}]}, {"start": 1.0, "dur": 1.0, "rest": false, "notes": [{"pitch": 67, "vel": 55, "dur": 1.0, "tieStart": false, "tieEnd": false, "tieGroup": 0}]}, {"start": 2.0, "dur": 1.0, "rest": false, "notes": [{"pitch": 71, "vel": 52, "dur": 1.0, "tieStart": false, "tieEnd": false, "tieGroup": 0}]}, {"start": 3.0, "dur": 1.0, "rest": false, "notes": [{"pitch": 74, "vel": 50, "dur": 1.0, "tieStart": false, "tieEnd": false, "tieGroup": 0}]}]}, {"ts_num": 4, "ts_den": 4, "key_fifths": 0, "key_mode": 0, "clef": 0, "tempo": 120, "velocity": 100, "lyrics": "", "expr": [], "segs": [{"start": 0.0, "dur": 1.5, "rest": false, "notes": [{"pitch": 69, "vel": 62, "dur": 1.5, "tieStart": false, "tieEnd": false, "tieGroup": 0}]}, {"start": 1.5, "dur": 0.5, "rest": false, "notes": [{"pitch": 67, "vel": 58, "dur": 0.5, "tieStart": false, "tieEnd": false, "tieGroup": 0}]}, {"start": 2.0, "dur": 1.0, "rest": false, "notes": [{"pitch": 64, "vel": 55, "dur": 1.0, "tieStart": false, "tieEnd": false, "tieGroup": 0}]}, {"start": 3.0, "dur": 1.0, "rest": false, "notes": [{"pitch": 72, "vel": 52, "dur": 1.0, "tieStart": false, "tieEnd": false, "tieGroup": 0}]}]}, {"ts_num": 4, "ts_den": 4, "key_fifths": 0, "key_mode": 0, "clef": 0, "tempo": 120, "velocity": 100, "lyrics": "", "expr": [], "segs": [{"start": 0.0, "dur": 1.5, "rest": false, "notes": [{"pitch": 65, "vel": 60, "dur": 1.5, "tieStart": false, "tieEnd": false, "tieGroup": 0}]}, {"start": 1.5, "dur": 0.5, "rest": false, "notes": [{"pitch": 64, "vel": 56, "dur": 0.5, "tieStart": false, "tieEnd": false, "tieGroup": 0}]}, {"start": 2.0, "dur": 1.0, "rest": false, "notes": [{"pitch": 62, "vel": 54, "dur": 1.0, "tieStart": false, "tieEnd": false, "tieGroup": 0}]}, {"start": 3.0, "dur": 1.0, "rest": false, "notes": [{"pitch": 65, "vel": 52, "dur": 1.0, "tieStart": false, "tieEnd": false, "tieGroup": 0}]}]}, {"ts_num": 4, "ts_den": 4, "key_fifths": 0, "key_mode": 0, "clef": 0, "tempo": 120, "velocity": 100, "lyrics": "", "expr": [], "segs": [{"start": 0.0, "dur": 1.0, "rest": false, "notes": [{"pitch": 67, "vel": 62, "dur": 1.0, "tieStart": false, "tieEnd": false, "tieGroup": 0}]}, {"start": 1.0, "dur": 1.0, "rest": false, "notes": [{"pitch": 71, "vel": 60, "dur": 1.0, "tieStart": false, "tieEnd": false, "tieGroup": 0}]}, {"start": 2.0, "dur": 1.5, "rest": false, "notes": [{"pitch": 74, "vel": 58, "dur": 1.5, "tieStart": false, "tieEnd": false, "tieGroup": 0}]}, {"start": 3.5, "dur": 0.5, "rest": false, "notes": [{"pitch": 72, "vel": 55, "dur": 0.5, "tieStart": false, "tieEnd": false, "tieGroup": 0}]}]}, {"ts_num": 4, "ts_den": 4, "key_fifths": 0, "key_mode": 0, "clef": 0, "tempo": 120, "velocity": 100, "lyrics": "", "expr": [], "segs": [{"start": 0.0, "dur": 3.0, "rest": false, "notes": [{"pitch": 72, "vel": 65, "dur": 3.0, "tieStart": false, "tieEnd": false, "tieGroup": 0}]}, {"start": 3.0, "dur": 1.0, "rest": false, "notes": [{"pitch": 71, "vel": 60, "dur": 1.0, "tieStart": false, "tieEnd": false, "tieGroup": 0}]}]}, {"ts_num": 4, "ts_den": 4, "key_fifths": 0, "key_mode": 0, "clef": 0, "tempo": 60, "velocity": 100, "lyrics": "", "expr": [], "segs": [{"start": 0.0, "dur": 1.0, "rest": false, "notes": [{"pitch": 69, "vel": 70, "dur": 1.0, "tieStart": false, "tieEnd": false, "tieGroup": 0}]}, {"start": 1.0, "dur": 0.5, "rest": false, "notes": [{"pitch": 71, "vel": 66, "dur": 0.5, "tieStart": false, "tieEnd": false, "tieGroup": 0}]}, {"start": 1.5, "dur": 0.5, "rest": false, "notes": [{"pitch": 72, "vel": 68, "dur": 0.5, "tieStart": false, "tieEnd": false, "tieGroup": 0}]}, {"start": 2.0, "dur": 1.0, "rest": false, "notes": [{"pitch": 76, "vel": 72, "dur": 1.0, "tieStart": false, "tieEnd": false, "tieGroup": 0}]}, {"start": 3.0, "dur": 1.0, "rest": false, "notes": [{"pitch": 69, "vel": 68, "dur": 1.0, "tieStart": false, "tieEnd": false, "tieGroup": 0}]}]}, {"ts_num": 4, "ts_den": 4, "key_fifths": 0, "key_mode": 0, "clef": 0, "tempo": 60, "velocity": 100, "lyrics": "", "expr": [], "segs": [{"start": 0.0, "dur": 1.5, "rest": false, "notes": [{"pitch": 65, "vel": 68, "dur": 1.5, "tieStart": false, "tieEnd": false, "tieGroup": 0}]}, {"start": 1.5, "dur": 0.5, "rest": false, "notes": [{"pitch": 67, "vel": 65, "dur": 0.5, "tieStart": false, "tieEnd": false, "tieGroup": 0}]}, {"start": 2.0, "dur": 2.0, "rest": false, "notes": [{"pitch": 69, "vel": 63, "dur": 2.0, "tieStart": false, "tieEnd": false, "tieGroup": 0}]}]}, {"ts_num": 4, "ts_den": 4, "key_fifths": 0, "key_mode": 0, "clef": 0, "tempo": 60, "velocity": 100, "lyrics": "", "expr": [], "segs": [{"start": 0.0, "dur": 1.0, "rest": false, "notes": [{"pitch": 74, "vel": 72, "dur": 1.0, "tieStart": false, "tieEnd": false, "tieGroup": 0}]}, {"start": 1.0, "dur": 1.0, "rest": false, "notes": [{"pitch": 72, "vel": 70, "dur": 1.0, "tieStart": false, "tieEnd": false, "tieGroup": 0}]}, {"start": 2.0, "dur": 1.0, "rest": false, "notes": [{"pitch": 69, "vel": 68, "dur": 1.0, "tieStart": false, "tieEnd": false, "tieGroup": 0}]}, {"start": 3.0, "dur": 1.0, "rest": false, "notes": [{"pitch": 65, "vel": 65, "dur": 1.0, "tieStart": false, "tieEnd": false, "tieGroup": 0}]}]}, {"ts_num": 4, "ts_den": 4, "key_fifths": 0, "key_mode": 0, "clef": 0, "tempo": 60, "velocity": 100, "lyrics": "", "expr": [], "segs": [{"start": 0.0, "dur": 1.5, "rest": false, "notes": [{"pitch": 64, "vel": 75, "dur": 1.5, "tieStart": false, "tieEnd": false, "tieGroup": 0}]}, {"start": 1.5, "dur": 0.5, "rest": false, "notes": [{"pitch": 65, "vel": 72, "dur": 0.5, "tieStart": false, "tieEnd": false, "tieGroup": 0}]}, {"start": 2.0, "dur": 1.0, "rest": false, "notes": [{"pitch": 67, "vel": 70, "dur": 1.0, "tieStart": false, "tieEnd": false, "tieGroup": 0}]}, {"start": 3.0, "dur": 1.0, "rest": false, "notes": [{"pitch": 71, "vel": 68, "dur": 1.0, "tieStart": false, "tieEnd": false, "tieGroup": 0}]}]}, {"ts_num": 4, "ts_den": 4, "key_fifths": 0, "key_mode": 0, "clef": 0, "tempo": 60, "velocity": 100, "lyrics": "", "expr": [], "segs": [{"start": 0.0, "dur": 1.0, "rest": false, "notes": [{"pitch": 69, "vel": 78, "dur": 1.0, "tieStart": false, "tieEnd": false, "tieGroup": 0}]}, {"start": 1.0, "dur": 0.5, "rest": false, "notes": [{"pitch": 67, "vel": 75, "dur": 0.5, "tieStart": false, "tieEnd": false, "tieGroup": 0}]}, {"start": 1.5, "dur": 0.5, "rest": false, "notes": [{"pitch": 69, "vel": 78, "dur": 0.5, "tieStart": false, "tieEnd": false, "tieGroup": 0}]}, {"start": 2.0, "dur": 1.0, "rest": false, "notes": [{"pitch": 72, "vel": 76, "dur": 1.0, "tieStart": false, "tieEnd": false, "tieGroup": 0}]}, {"start": 3.0, "dur": 1.0, "rest": false, "notes": [{"pitch": 76, "vel": 74, "dur": 1.0, "tieStart": false, "tieEnd": false, "tieGroup": 0}]}]}, {"ts_num": 4, "ts_den": 4, "key_fifths": 0, "key_mode": 0, "clef": 0, "tempo": 60, "velocity": 100, "lyrics": "", "expr": [], "segs": [{"start": 0.0, "dur": 3.0, "rest": false, "notes": [{"pitch": 67, "vel": 76, "dur": 3.0, "tieStart": false, "tieEnd": false, "tieGroup": 0}]}, {"start": 3.0, "dur": 1.0, "rest": false, "notes": [{"pitch": 65, "vel": 72, "dur": 1.0, "tieStart": false, "tieEnd": false, "tieGroup": 0}]}]}, {"ts_num": 4, "ts_den": 4, "key_fifths": 0, "key_mode": 0, "clef": 0, "tempo": 60, "velocity": 100, "lyrics": "", "expr": [], "segs": [{"start": 0.0, "dur": 1.0, "rest": false, "notes": [{"pitch": 65, "vel": 74, "dur": 1.0, "tieStart": false, "tieEnd": false, "tieGroup": 0}]}, {"start": 1.0, "dur": 1.0, "rest": false, "notes": [{"pitch": 64, "vel": 72, "dur": 1.0, "tieStart": false, "tieEnd": false, "tieGroup": 0}]}, {"start": 2.0, "dur": 1.5, "rest": false, "notes": [{"pitch": 62, "vel": 70, "dur": 1.5, "tieStart": false, "tieEnd": false, "tieGroup": 0}]}, {"start": 3.5, "dur": 0.5, "rest": false, "notes": [{"pitch": 60, "vel": 68, "dur": 0.5, "tieStart": false, "tieEnd": false, "tieGroup": 0}]}]}, {"ts_num": 4, "ts_den": 4, "key_fifths": 0, "key_mode": 0, "clef": 0, "tempo": 60, "velocity": 100, "lyrics": "", "expr": [], "segs": [{"start": 0.0, "dur": 3.0, "rest": false, "notes": [{"pitch": 64, "vel": 80, "dur": 3.0, "tieStart": false, "tieEnd": false, "tieGroup": 0}]}, {"start": 3.0, "dur": 1.0, "rest": false, "notes": [{"pitch": 62, "vel": 76, "dur": 1.0, "tieStart": false, "tieEnd": false, "tieGroup": 0}]}]}, {"ts_num": 4, "ts_den": 4, "key_fifths": 0, "key_mode": 0, "clef": 0, "tempo": 60, "velocity": 100, "lyrics": "", "expr": [], "segs": [{"start": 0.0, "dur": 1.0, "rest": false, "notes": [{"pitch": 69, "vel": 68, "dur": 1.0, "tieStart": false, "tieEnd": false, "tieGroup": 0}]}, {"start": 1.0, "dur": 1.0, "rest": false, "notes": [{"pitch": 67, "vel": 65, "dur": 1.0, "tieStart": false, "tieEnd": false, "tieGroup": 0}]}, {"start": 2.0, "dur": 1.0, "rest": false, "notes": [{"pitch": 64, "vel": 62, "dur": 1.0, "tieStart": false, "tieEnd": false, "tieGroup": 0}]}, {"start": 3.0, "dur": 1.0, "rest": false, "notes": [{"pitch": 60, "vel": 58, "dur": 1.0, "tieStart": false, "tieEnd": false, "tieGroup": 0}]}]}, {"ts_num": 4, "ts_den": 4, "key_fifths": 0, "key_mode": 0, "clef": 0, "tempo": 60, "velocity": 100, "lyrics": "", "expr": [], "segs": [{"start": 0.0, "dur": 1.0, "rest": false, "notes": [{"pitch": 65, "vel": 62, "dur": 1.0, "tieStart": false, "tieEnd": false, "tieGroup": 0}]}, {"start": 1.0, "dur": 1.0, "rest": false, "notes": [{"pitch": 69, "vel": 60, "dur": 1.0, "tieStart": false, "tieEnd": false, "tieGroup": 0}]}, {"start": 2.0, "dur": 2.0, "rest": false, "notes": [{"pitch": 62, "vel": 58, "dur": 2.0, "tieStart": false, "tieEnd": false, "tieGroup": 0}]}]}, {"ts_num": 4, "ts_den": 4, "key_fifths": 0, "key_mode": 0, "clef": 0, "tempo": 60, "velocity": 100, "lyrics": "", "expr": [], "segs": [{"start": 0.0, "dur": 1.5, "rest": false, "notes": [{"pitch": 64, "vel": 60, "dur": 1.5, "tieStart": false, "tieEnd": false, "tieGroup": 0}]}, {"start": 1.5, "dur": 0.5, "rest": false, "notes": [{"pitch": 62, "vel": 56, "dur": 0.5, "tieStart": false, "tieEnd": false, "tieGroup": 0}]}, {"start": 2.0, "dur": 1.0, "rest": false, "notes": [{"pitch": 60, "vel": 54, "dur": 1.0, "tieStart": false, "tieEnd": false, "tieGroup": 0}]}, {"start": 3.0, "dur": 1.0, "rest": false, "notes": [{"pitch": 59, "vel": 50, "dur": 1.0, "tieStart": false, "tieEnd": false, "tieGroup": 0}]}]}, {"ts_num": 4, "ts_den": 4, "key_fifths": 0, "key_mode": 0, "clef": 0, "tempo": 60, "velocity": 100, "lyrics": "", "expr": [], "segs": [{"start": 0.0, "dur": 4.0, "rest": false, "notes": [{"pitch": 57, "vel": 50, "dur": 4.0, "tieStart": false, "tieEnd": false, "tieGroup": 0}]}]}, {"ts_num": 4, "ts_den": 4, "key_fifths": 0, "key_mode": 0, "clef": 0, "tempo": 60, "velocity": 100, "lyrics": "", "expr": [], "segs": [{"start": 0.0, "dur": 4.0, "rest": true, "notes": []}]}]}, {"name": "Piano Left", "instrument": {"name": "Grand Piano", "bankMSB": 0, "bankLSB": 0, "program": 0, "channelHint": -1, "percussion": false, "volume": 90, "pan": 64, "transpose": 0}, "measures": [{"ts_num": 4, "ts_den": 4, "key_fifths": 0, "key_mode": 0, "clef": 1, "tempo": 120, "velocity": 100, "lyrics": "", "expr": [], "segs": [{"start": 0.0, "dur": 2.0, "rest": false, "notes": [{"pitch": 45, "vel": 50, "dur": 2.0, "tieStart": false, "tieEnd": false, "tieGroup": 0}, {"pitch": 52, "vel": 50, "dur": 2.0, "tieStart": false, "tieEnd": false, "tieGroup": 0}]}, {"start": 2.0, "dur": 2.0, "rest": false, "notes": [{"pitch": 45, "vel": 48, "dur": 2.0, "tieStart": false, "tieEnd": false, "tieGroup": 0}, {"pitch": 52, "vel": 48, "dur": 2.0, "tieStart": false, "tieEnd": false, "tieGroup": 0}]}]}, {"ts_num": 4, "ts_den": 4, "key_fifths": 0, "key_mode": 0, "clef": 1, "tempo": 120, "velocity": 100, "lyrics": "", "expr": [], "segs": [{"start": 0.0, "dur": 2.0, "rest": false, "notes": [{"pitch": 41, "vel": 50, "dur": 2.0, "tieStart": false, "tieEnd": false, "tieGroup": 0}, {"pitch": 48, "vel": 50, "dur": 2.0, "tieStart": false, "tieEnd": false, "tieGroup": 0}]}, {"start": 2.0, "dur": 2.0, "rest": false, "notes": [{"pitch": 41, "vel": 48, "dur": 2.0, "tieStart": false, "tieEnd": false, "tieGroup": 0}, {"pitch": 48, "vel": 48, "dur": 2.0, "tieStart": false, "tieEnd": false, "tieGroup": 0}]}]}, {"ts_num": 4, "ts_den": 4, "key_fifths": 0, "key_mode": 0, "clef": 1, "tempo": 120, "velocity": 100, "lyrics": "", "expr": [], "segs": [{"start": 0.0, "dur": 2.0, "rest": false, "notes": [{"pitch": 36, "vel": 50, "dur": 2.0, "tieStart": false, "tieEnd": false, "tieGroup": 0}, {"pitch": 43, "vel": 50, "dur": 2.0, "tieStart": false, "tieEnd": false, "tieGroup": 0}]}, {"start": 2.0, "dur": 2.0, "rest": false, "notes": [{"pitch": 36, "vel": 48, "dur": 2.0, "tieStart": false, "tieEnd": false, "tieGroup": 0}, {"pitch": 43, "vel": 48, "dur": 2.0, "tieStart": false, "tieEnd": false, "tieGroup": 0}]}]}, {"ts_num": 4, "ts_den": 4, "key_fifths": 0, "key_mode": 0, "clef": 1, "tempo": 120, "velocity": 100, "lyrics": "", "expr": [], "segs": [{"start": 0.0, "dur": 2.0, "rest": false, "notes": [{"pitch": 40, "vel": 52, "dur": 2.0, "tieStart": false, "tieEnd": false, "tieGroup": 0}, {"pitch": 47, "vel": 52, "dur": 2.0, "tieStart": false, "tieEnd": false, "tieGroup": 0}]}, {"start": 2.0, "dur": 2.0, "rest": false, "notes": [{"pitch": 40, "vel": 50, "dur": 2.0, "tieStart": false, "tieEnd": false, "tieGroup": 0}, {"pitch": 47, "vel": 50, "dur": 2.0, "tieStart": false, "tieEnd": false, "tieGroup": 0}]}]}, {"ts_num": 4, "ts_den": 4, "key_fifths": 0, "key_mode": 0, "clef": 1, "tempo": 120, "velocity": 100, "lyrics": "", "expr": [], "segs": [{"start": 0.0, "dur": 2.0, "rest": false, "notes": [{"pitch": 45, "vel": 55, "dur": 2.0, "tieStart": false, "tieEnd": false, "tieGroup": 0}, {"pitch": 48, "vel": 55, "dur": 2.0, "tieStart": false, "tieEnd": false, "tieGroup": 0}, {"pitch": 52, "vel": 55, "dur": 2.0, "tieStart": false, "tieEnd": false, "tieGroup": 0}]}, {"start": 2.0, "dur": 2.0, "rest": false, "notes": [{"pitch": 45, "vel": 52, "dur": 2.0, "tieStart": false, "tieEnd": false, "tieGroup": 0}, {"pitch": 52, "vel": 52, "dur": 2.0, "tieStart": false, "tieEnd": false, "tieGroup": 0}]}]}, {"ts_num": 4, "ts_den": 4, "key_fifths": 0, "key_mode": 0, "clef": 1, "tempo": 120, "velocity": 100, "lyrics": "", "expr": [], "segs": [{"start": 0.0, "dur": 2.0, "rest": false, "notes": [{"pitch": 38, "vel": 53, "dur": 2.0, "tieStart": false, "tieEnd": false, "tieGroup": 0}, {"pitch": 41, "vel": 53, "dur": 2.0, "tieStart": false, "tieEnd": false, "tieGroup": 0}, {"pitch": 45, "vel": 53, "dur": 2.0, "tieStart": false, "tieEnd": false, "tieGroup": 0}]}, {"start": 2.0, "dur": 2.0, "rest": false, "notes": [{"pitch": 38, "vel": 50, "dur": 2.0, "tieStart": false, "tieEnd": false, "tieGroup": 0}, {"pitch": 45, "vel": 50, "dur": 2.0, "tieStart": false, "tieEnd": false, "tieGroup": 0}]}]}, {"ts_num": 4, "ts_den": 4, "key_fifths": 0, "key_mode": 0, "clef": 1, "tempo": 120, "velocity": 100, "lyrics": "", "expr": [], "segs": [{"start": 0.0, "dur": 2.0, "rest": false, "notes": [{"pitch": 31, "vel": 55, "dur": 2.0, "tieStart": false, "tieEnd": false, "tieGroup": 0}, {"pitch": 38, "vel": 55, "dur": 2.0, "tieStart": false, "tieEnd": false, "tieGroup": 0}, {"pitch": 47, "vel": 55, "dur": 2.0, "tieStart": false, "tieEnd": false, "tieGroup": 0}]}, {"start": 2.0, "dur": 2.0, "rest": false, "notes": [{"pitch": 31, "vel": 52, "dur": 2.0, "tieStart": false, "tieEnd": false, "tieGroup": 0}, {"pitch": 38, "vel": 52, "dur": 2.0, "tieStart": false, "tieEnd": false, "tieGroup": 0}]}]}, {"ts_num": 4, "ts_den": 4, "key_fifths": 0, "key_mode": 0, "clef": 1, "tempo": 120, "velocity": 100, "lyrics": "", "expr": [], "segs": [{"start": 0.0, "dur": 4.0, "rest": false, "notes": [{"pitch": 36, "vel": 55, "dur": 4.0, "tieStart": false, "tieEnd": false, "tieGroup": 0}, {"pitch": 40, "vel": 55, "dur": 4.0, "tieStart": false, "tieEnd": false, "tieGroup": 0}, {"pitch": 43, "vel": 55, "dur": 4.0, "tieStart": false, "tieEnd": false, "tieGroup": 0}]}]}, {"ts_num": 4, "ts_den": 4, "key_fifths": 0, "key_mode": 0, "clef": 1, "tempo": 60, "velocity": 100, "lyrics": "", "expr": [], "segs": [{"start": 0.0, "dur": 2.0, "rest": false, "notes": [{"pitch": 33, "vel": 62, "dur": 2.0, "tieStart": false, "tieEnd": false, "tieGroup": 0}, {"pitch": 40, "vel": 62, "dur": 2.0, "tieStart": false, "tieEnd": false, "tieGroup": 0}, {"pitch": 45, "vel": 62, "dur": 2.0, "tieStart": false, "tieEnd": false, "tieGroup": 0}]}, {"start": 2.0, "dur": 2.0, "rest": false, "notes": [{"pitch": 33, "vel": 58, "dur": 2.0, "tieStart": false, "tieEnd": false, "tieGroup": 0}, {"pitch": 40, "vel": 58, "dur": 2.0, "tieStart": false, "tieEnd": false, "tieGroup": 0}]}]}, {"ts_num": 4, "ts_den": 4, "key_fifths": 0, "key_mode": 0, "clef": 1, "tempo": 60, "velocity": 100, "lyrics": "", "expr": [], "segs": [{"start": 0.0, "dur": 2.0, "rest": false, "notes": [{"pitch": 29, "vel": 60, "dur": 2.0, "tieStart": false, "tieEnd": false, "tieGroup": 0}, {"pitch": 36, "vel": 60, "dur": 2.0, "tieStart": false, "tieEnd": false, "tieGroup": 0}, {"pitch": 41, "vel": 60, "dur": 2.0, "tieStart": false, "tieEnd": false, "tieGroup": 0}]}, {"start": 2.0, "dur": 2.0, "rest": false, "notes": [{"pitch": 29, "vel": 57, "dur": 2.0, "tieStart": false, "tieEnd": false, "tieGroup": 0}, {"pitch": 36, "vel": 57, "dur": 2.0, "tieStart": false, "tieEnd": false, "tieGroup": 0}]}]}, {"ts_num": 4, "ts_den": 4, "key_fifths": 0, "key_mode": 0, "clef": 1, "tempo": 60, "velocity": 100, "lyrics": "", "expr": [], "segs": [{"start": 0.0, "dur": 2.0, "rest": false, "notes": [{"pitch": 26, "vel": 62, "dur": 2.0, "tieStart": false, "tieEnd": false, "tieGroup": 0}, {"pitch": 33, "vel": 62, "dur": 2.0, "tieStart": false, "tieEnd": false, "tieGroup": 0}, {"pitch": 38, "vel": 62, "dur": 2.0, "tieStart": false, "tieEnd": false, "tieGroup": 0}]}, {"start": 2.0, "dur": 2.0, "rest": false, "notes": [{"pitch": 26, "vel": 58, "dur": 2.0, "tieStart": false, "tieEnd": false, "tieGroup": 0}, {"pitch": 33, "vel": 58, "dur": 2.0, "tieStart": false, "tieEnd": false, "tieGroup": 0}]}]}, {"ts_num": 4, "ts_den": 4, "key_fifths": 0, "key_mode": 0, "clef": 1, "tempo": 60, "velocity": 100, "lyrics": "", "expr": [], "segs": [{"start": 0.0, "dur": 4.0, "rest": false, "notes": [{"pitch": 28, "vel": 65, "dur": 4.0, "tieStart": false, "tieEnd": false, "tieGroup": 0}, {"pitch": 35, "vel": 65, "dur": 4.0, "tieStart": false, "tieEnd": false, "tieGroup": 0}, {"pitch": 40, "vel": 65, "dur": 4.0, "tieStart": false, "tieEnd": false, "tieGroup": 0}]}]}, {"ts_num": 4, "ts_den": 4, "key_fifths": 0, "key_mode": 0, "clef": 1, "tempo": 60, "velocity": 100, "lyrics": "", "expr": [], "segs": [{"start": 0.0, "dur": 2.0, "rest": false, "notes": [{"pitch": 33, "vel": 68, "dur": 2.0, "tieStart": false, "tieEnd": false, "tieGroup": 0}, {"pitch": 40, "vel": 68, "dur": 2.0, "tieStart": false, "tieEnd": false, "tieGroup": 0}, {"pitch": 45, "vel": 68, "dur": 2.0, "tieStart": false, "tieEnd": false, "tieGroup": 0}]}, {"start": 2.0, "dur": 2.0, "rest": false, "notes": [{"pitch": 33, "vel": 64, "dur": 2.0, "tieStart": false, "tieEnd": false, "tieGroup": 0}, {"pitch": 40, "vel": 64, "dur": 2.0, "tieStart": false, "tieEnd": false, "tieGroup": 0}]}]}, {"ts_num": 4, "ts_den": 4, "key_fifths": 0, "key_mode": 0, "clef": 1, "tempo": 60, "velocity": 100, "lyrics": "", "expr": [], "segs": [{"start": 0.0, "dur": 4.0, "rest": false, "notes": [{"pitch": 31, "vel": 66, "dur": 4.0, "tieStart": false, "tieEnd": false, "tieGroup": 0}, {"pitch": 38, "vel": 66, "dur": 4.0, "tieStart": false, "tieEnd": false, "tieGroup": 0}, {"pitch": 47, "vel": 66, "dur": 4.0, "tieStart": false, "tieEnd": false, "tieGroup": 0}]}]}, {"ts_num": 4, "ts_den": 4, "key_fifths": 0, "key_mode": 0, "clef": 1, "tempo": 60, "velocity": 100, "lyrics": "", "expr": [], "segs": [{"start": 0.0, "dur": 4.0, "rest": false, "notes": [{"pitch": 29, "vel": 64, "dur": 4.0, "tieStart": false, "tieEnd": false, "tieGroup": 0}, {"pitch": 36, "vel": 64, "dur": 4.0, "tieStart": false, "tieEnd": false, "tieGroup": 0}, {"pitch": 45, "vel": 64, "dur": 4.0, "tieStart": false, "tieEnd": false, "tieGroup": 0}]}]}, {"ts_num": 4, "ts_den": 4, "key_fifths": 0, "key_mode": 0, "clef": 1, "tempo": 60, "velocity": 100, "lyrics": "", "expr": [], "segs": [{"start": 0.0, "dur": 4.0, "rest": false, "notes": [{"pitch": 28, "vel": 70, "dur": 4.0, "tieStart": false, "tieEnd": false, "tieGroup": 0}, {"pitch": 31, "vel": 70, "dur": 4.0, "tieStart": false, "tieEnd": false, "tieGroup": 0}, {"pitch": 35, "vel": 70, "dur": 4.0, "tieStart": false, "tieEnd": false, "tieGroup": 0}, {"pitch": 38, "vel": 70, "dur": 4.0, "tieStart": false, "tieEnd": false, "tieGroup": 0}]}]}, {"ts_num": 4, "ts_den": 4, "key_fifths": 0, "key_mode": 0, "clef": 1, "tempo": 60, "velocity": 100, "lyrics": "", "expr": [], "segs": [{"start": 0.0, "dur": 2.0, "rest": false, "notes": [{"pitch": 33, "vel": 60, "dur": 2.0, "tieStart": false, "tieEnd": false, "tieGroup": 0}, {"pitch": 40, "vel": 60, "dur": 2.0, "tieStart": false, "tieEnd": false, "tieGroup": 0}, {"pitch": 45, "vel": 60, "dur": 2.0, "tieStart": false, "tieEnd": false, "tieGroup": 0}]}, {"start": 2.0, "dur": 2.0, "rest": false, "notes": [{"pitch": 33, "vel": 56, "dur": 2.0, "tieStart": false, "tieEnd": false, "tieGroup": 0}, {"pitch": 36, "vel": 56, "dur": 2.0, "tieStart": false, "tieEnd": false, "tieGroup": 0}]}]}, {"ts_num": 4, "ts_den": 4, "key_fifths": 0, "key_mode": 0, "clef": 1, "tempo": 60, "velocity": 100, "lyrics": "", "expr": [], "segs": [{"start": 0.0, "dur": 4.0, "rest": false, "notes": [{"pitch": 26, "vel": 55, "dur": 4.0, "tieStart": false, "tieEnd": false, "tieGroup": 0}, {"pitch": 33, "vel": 55, "dur": 4.0, "tieStart": false, "tieEnd": false, "tieGroup": 0}, {"pitch": 41, "vel": 55, "dur": 4.0, "tieStart": false, "tieEnd": false, "tieGroup": 0}]}]}, {"ts_num": 4, "ts_den": 4, "key_fifths": 0, "key_mode": 0, "clef": 1, "tempo": 60, "velocity": 100, "lyrics": "", "expr": [], "segs": [{"start": 0.0, "dur": 4.0, "rest": false, "notes": [{"pitch": 28, "vel": 52, "dur": 4.0, "tieStart": false, "tieEnd": false, "tieGroup": 0}, {"pitch": 31, "vel": 52, "dur": 4.0, "tieStart": false, "tieEnd": false, "tieGroup": 0}, {"pitch": 35, "vel": 52, "dur": 4.0, "tieStart": false, "tieEnd": false, "tieGroup": 0}]}]}, {"ts_num": 4, "ts_den": 4, "key_fifths": 0, "key_mode": 0, "clef": 1, "tempo": 60, "velocity": 100, "lyrics": "", "expr": [], "segs": [{"start": 0.0, "dur": 4.0, "rest": false, "notes": [{"pitch": 33, "vel": 48, "dur": 4.0, "tieStart": false, "tieEnd": false, "tieGroup": 0}, {"pitch": 40, "vel": 48, "dur": 4.0, "tieStart": false, "tieEnd": false, "tieGroup": 0}, {"pitch": 45, "vel": 48, "dur": 4.0, "tieStart": false, "tieEnd": false, "tieGroup": 0}]}]}, {"ts_num": 4, "ts_den": 4, "key_fifths": 0, "key_mode": 0, "clef": 1, "tempo": 60, "velocity": 100, "lyrics": "", "expr": [], "segs": [{"start": 0.0, "dur": 4.0, "rest": true, "notes": []}]}]}], "output_filters": []}