{"format": "arkscore", "version": 2, "title": "Puppy Parade", "measure_width_scale": 1.299999952316284, "tracks": [{"name": "Puppy Melody", "instrument": {"name": "Piano 2", "bankMSB": 0, "bankLSB": 0, "program": 1, "channelHint": -1, "percussion": false, "volume": 100, "pan": 64, "transpose": 0}, "measures": [{"ts_num": 4, "ts_den": 4, "key_fifths": 1, "key_mode": 0, "clef": 0, "tempo": 136, "velocity": 104, "lyrics": "", "expr": [], "segs": [{"start": 0.0, "dur": 0.5, "rest": true, "notes": []}, {"start": 0.5, "dur": 0.5, "rest": false, "notes": [{"pitch": 79, "vel": 106, "dur": 0.5, "tieStart": false, "tieEnd": false, "tieGroup": 1}]}, {"start": 1.0, "dur": 0.5, "rest": false, "notes": [{"pitch": 83, "vel": 111, "dur": 0.5, "tieStart": false, "tieEnd": false, "tieGroup": 0}]}, {"start": 1.5, "dur": 0.5, "rest": false, "notes": [{"pitch": 81, "vel": 107, "dur": 0.5, "tieStart": false, "tieEnd": false, "tieGroup": 0}]}, {"start": 2.0, "dur": 0.5, "rest": false, "notes": [{"pitch": 79, "vel": 104, "dur": 0.5, "tieStart": false, "tieEnd": false, "tieGroup": 0}]}, {"start": 2.5, "dur": 0.5, "rest": true, "notes": []}, {"start": 3.0, "dur": 0.5, "rest": false, "notes": [{"pitch": 86, "vel": 117, "dur": 0.5, "tieStart": false, "tieEnd": false, "tieGroup": 2}]}, {"start": 3.5, "dur": 0.5, "rest": false, "notes": [{"pitch": 83, "vel": 110, "dur": 0.5, "tieStart": false, "tieEnd": false, "tieGroup": 0}]}]}, {"ts_num": 4, "ts_den": 4, "key_fifths": 1, "key_mode": 0, "clef": 0, "tempo": 136, "velocity": 104, "lyrics": "", "expr": [], "segs": [{"start": 0.0, "dur": 0.5, "rest": false, "notes": [{"pitch": 81, "vel": 105, "dur": 0.5, "tieStart": false, "tieEnd": false, "tieGroup": 0}]}, {"start": 0.5, "dur": 0.5, "rest": true, "notes": []}, {"start": 1.0, "dur": 0.5, "rest": false, "notes": [{"pitch": 81, "vel": 107, "dur": 0.5, "tieStart": false, "tieEnd": false, "tieGroup": 3}]}, {"start": 1.5, "dur": 0.5, "rest": false, "notes": [{"pitch": 83, "vel": 111, "dur": 0.5, "tieStart": false, "tieEnd": false, "tieGroup": 0}]}, {"start": 2.0, "dur": 1.0, "rest": false, "notes": [{"pitch": 86, "vel": 116, "dur": 1.0, "tieStart": false, "tieEnd": false, "tieGroup": 0}]}, {"start": 3.0, "dur": 0.5, "rest": false, "notes": [{"pitch": 83, "vel": 109, "dur": 0.5, "tieStart": false, "tieEnd": false, "tieGroup": 0}]}, {"start": 3.5, "dur": 0.5, "rest": false, "notes": [{"pitch": 81, "vel": 105, "dur": 0.5, "tieStart": false, "tieEnd": false, "tieGroup": 0}]}]}, {"ts_num": 4, "ts_den": 4, "key_fifths": 1, "key_mode": 0, "clef": 0, "tempo": 136, "velocity": 104, "lyrics": "", "expr": [], "segs": [{"start": 0.0, "dur": 0.5, "rest": false, "notes": [{"pitch": 79, "vel": 104, "dur": 0.5, "tieStart": false, "tieEnd": false, "tieGroup": 0}]}, {"start": 0.5, "dur": 0.5, "rest": false, "notes": [{"pitch": 76, "vel": 100, "dur": 0.5, "tieStart": false, "tieEnd": false, "tieGroup": 0}]}, {"start": 1.0, "dur": 0.5, "rest": false, "notes": [{"pitch": 79, "vel": 105, "dur": 0.5, "tieStart": false, "tieEnd": false, "tieGroup": 0}]}, {"start": 1.5, "dur": 0.5, "rest": true, "notes": []}, {"start": 2.0, "dur": 0.5, "rest": false, "notes": [{"pitch": 81, "vel": 108, "dur": 0.5, "tieStart": false, "tieEnd": false, "tieGroup": 4}]}, {"start": 2.5, "dur": 0.5, "rest": false, "notes": [{"pitch": 83, "vel": 111, "dur": 0.5, "tieStart": false, "tieEnd": false, "tieGroup": 0}]}, {"start": 3.0, "dur": 0.5, "rest": false, "notes": [{"pitch": 81, "vel": 107, "dur": 0.5, "tieStart": false, "tieEnd": false, "tieGroup": 0}]}, {"start": 3.5, "dur": 0.5, "rest": false, "notes": [{"pitch": 79, "vel": 104, "dur": 0.5, "tieStart": false, "tieEnd": false, "tieGroup": 0}]}]}, {"ts_num": 4, "ts_den": 4, "key_fifths": 1, "key_mode": 0, "clef": 0, "tempo": 136, "velocity": 104, "lyrics": "", "expr": [], "segs": [{"start": 0.0, "dur": 1.0, "rest": false, "notes": [{"pitch": 74, "vel": 103, "dur": 1.0, "tieStart": false, "tieEnd": false, "tieGroup": 0}]}, {"start": 1.0, "dur": 0.5, "rest": false, "notes": [{"pitch": 79, "vel": 105, "dur": 0.5, "tieStart": false, "tieEnd": false, "tieGroup": 0}]}, {"start": 1.5, "dur": 0.5, "rest": false, "notes": [{"pitch": 81, "vel": 109, "dur": 0.5, "tieStart": false, "tieEnd": false, "tieGroup": 0}]}, {"start": 2.0, "dur": 1.5, "rest": false, "notes": [{"pitch": 83, "vel": 113, "dur": 1.5, "tieStart": false, "tieEnd": false, "tieGroup": 0}]}, {"start": 3.5, "dur": 0.5, "rest": true, "notes": []}]}, {"ts_num": 4, "ts_den": 4, "key_fifths": 1, "key_mode": 0, "clef": 0, "tempo": 136, "velocity": 104, "lyrics": "", "expr": [], "segs": [{"start": 0.0, "dur": 0.5, "rest": true, "notes": []}, {"start": 0.5, "dur": 0.5, "rest": false, "notes": [{"pitch": 86, "vel": 117, "dur": 0.5, "tieStart": false, "tieEnd": false, "tieGroup": 5}]}, {"start": 1.0, "dur": 0.5, "rest": false, "notes": [{"pitch": 83, "vel": 110, "dur": 0.5, "tieStart": false, "tieEnd": false, "tieGroup": 0}]}, {"start": 1.5, "dur": 0.5, "rest": false, "notes": [{"pitch": 79, "vel": 104, "dur": 0.5, "tieStart": false, "tieEnd": false, "tieGroup": 0}]}, {"start": 2.0, "dur": 0.5, "rest": false, "notes": [{"pitch": 81, "vel": 108, "dur": 0.5, "tieStart": false, "tieEnd": false, "tieGroup": 0}]}, {"start": 2.5, "dur": 0.5, "rest": true, "notes": []}, {"start": 3.0, "dur": 0.5, "rest": false, "notes": [{"pitch": 83, "vel": 111, "dur": 0.5, "tieStart": false, "tieEnd": false, "tieGroup": 6}]}, {"start": 3.5, "dur": 0.5, "rest": false, "notes": [{"pitch": 86, "vel": 116, "dur": 0.5, "tieStart": false, "tieEnd": false, "tieGroup": 0}]}]}, {"ts_num": 4, "ts_den": 4, "key_fifths": 1, "key_mode": 0, "clef": 0, "tempo": 136, "velocity": 104, "lyrics": "", "expr": [], "segs": [{"start": 0.0, "dur": 0.5, "rest": false, "notes": [{"pitch": 84, "vel": 114, "dur": 0.5, "tieStart": false, "tieEnd": false, "tieGroup": 0}]}, {"start": 0.5, "dur": 0.5, "rest": false, "notes": [{"pitch": 83, "vel": 109, "dur": 0.5, "tieStart": false, "tieEnd": false, "tieGroup": 0}]}, {"start": 1.0, "dur": 1.0, "rest": false, "notes": [{"pitch": 81, "vel": 107, "dur": 1.0, "tieStart": false, "tieEnd": false, "tieGroup": 0}]}, {"start": 2.0, "dur": 0.5, "rest": false, "notes": [{"pitch": 79, "vel": 104, "dur": 0.5, "tieStart": false, "tieEnd": false, "tieGroup": 0}]}, {"start": 2.5, "dur": 0.5, "rest": false, "notes": [{"pitch": 81, "vel": 108, "dur": 0.5, "tieStart": false, "tieEnd": false, "tieGroup": 0}]}, {"start": 3.0, "dur": 0.5, "rest": false, "notes": [{"pitch": 83, "vel": 111, "dur": 0.5, "tieStart": false, "tieEnd": false, "tieGroup": 0}]}, {"start": 3.5, "dur": 0.5, "rest": false, "notes": [{"pitch": 79, "vel": 105, "dur": 0.5, "tieStart": false, "tieEnd": false, "tieGroup": 0}]}]}, {"ts_num": 4, "ts_den": 4, "key_fifths": 1, "key_mode": 0, "clef": 0, "tempo": 136, "velocity": 104, "lyrics": "", "expr": [], "segs": [{"start": 0.0, "dur": 0.5, "rest": false, "notes": [{"pitch": 76, "vel": 100, "dur": 0.5, "tieStart": false, "tieEnd": false, "tieGroup": 0}]}, {"start": 0.5, "dur": 0.5, "rest": false, "notes": [{"pitch": 79, "vel": 104, "dur": 0.5, "tieStart": false, "tieEnd": false, "tieGroup": 0}]}, {"start": 1.0, "dur": 0.5, "rest": false, "notes": [{"pitch": 81, "vel": 108, "dur": 0.5, "tieStart": false, "tieEnd": false, "tieGroup": 0}]}, {"start": 1.5, "dur": 0.5, "rest": false, "notes": [{"pitch": 83, "vel": 111, "dur": 0.5, "tieStart": false, "tieEnd": false, "tieGroup": 0}]}, {"start": 2.0, "dur": 0.5, "rest": false, "notes": [{"pitch": 86, "vel": 116, "dur": 0.5, "tieStart": false, "tieEnd": false, "tieGroup": 0}]}, {"start": 2.5, "dur": 0.5, "rest": false, "notes": [{"pitch": 83, "vel": 109, "dur": 0.5, "tieStart": false, "tieEnd": false, "tieGroup": 0}]}, {"start": 3.0, "dur": 0.5, "rest": false, "notes": [{"pitch": 81, "vel": 106, "dur": 0.5, "tieStart": false, "tieEnd": false, "tieGroup": 0}]}, {"start": 3.5, "dur": 0.5, "rest": false, "notes": [{"pitch": 79, "vel": 103, "dur": 0.5, "tieStart": false, "tieEnd": false, "tieGroup": 0}]}]}, {"ts_num": 4, "ts_den": 4, "key_fifths": 1, "key_mode": 0, "clef": 0, "tempo": 136, "velocity": 104, "lyrics": "", "expr": [], "segs": [{"start": 0.0, "dur": 1.5, "rest": false, "notes": [{"pitch": 79, "vel": 110, "dur": 1.5, "tieStart": false, "tieEnd": false, "tieGroup": 0}]}, {"start": 1.5, "dur": 0.5, "rest": false, "notes": [{"pitch": 76, "vel": 100, "dur": 0.5, "tieStart": false, "tieEnd": false, "tieGroup": 0}]}, {"start": 2.0, "dur": 0.5, "rest": false, "notes": [{"pitch": 79, "vel": 104, "dur": 0.5, "tieStart": false, "tieEnd": false, "tieGroup": 0}]}, {"start": 2.5, "dur": 0.5, "rest": false, "notes": [{"pitch": 81, "vel": 108, "dur": 0.5, "tieStart": false, "tieEnd": false, "tieGroup": 0}]}, {"start": 3.0, "dur": 0.5, "rest": false, "notes": [{"pitch": 83, "vel": 112, "dur": 0.5, "tieStart": false, "tieEnd": false, "tieGroup": 0}]}, {"start": 3.5, "dur": 0.5, "rest": true, "notes": []}]}, {"ts_num": 4, "ts_den": 4, "key_fifths": 1, "key_mode": 0, "clef": 0, "tempo": 136, "velocity": 104, "lyrics": "", "expr": [], "segs": [{"start": 0.0, "dur": 0.5, "rest": true, "notes": []}, {"start": 0.5, "dur": 0.5, "rest": false, "notes": [{"pitch": 79, "vel": 106, "dur": 0.5, "tieStart": false, "tieEnd": false, "tieGroup": 7}]}, {"start": 1.0, "dur": 0.5, "rest": false, "notes": [{"pitch": 81, "vel": 109, "dur": 0.5, "tieStart": false, "tieEnd": false, "tieGroup": 0}]}, {"start": 1.5, "dur": 0.5, "rest": false, "notes": [{"pitch": 83, "vel": 112, "dur": 0.5, "tieStart": false, "tieEnd": false, "tieGroup": 0}]}, {"start": 2.0, "dur": 0.5, "rest": false, "notes": [{"pitch": 86, "vel": 117, "dur": 0.5, "tieStart": false, "tieEnd": false, "tieGroup": 0}]}, {"start": 2.5, "dur": 0.5, "rest": false, "notes": [{"pitch": 88, "vel": 120, "dur": 0.5, "tieStart": false, "tieEnd": false, "tieGroup": 0}]}, {"start": 3.0, "dur": 0.5, "rest": false, "notes": [{"pitch": 86, "vel": 116, "dur": 0.5, "tieStart": false, "tieEnd": false, "tieGroup": 0}]}, {"start": 3.5, "dur": 0.5, "rest": false, "notes": [{"pitch": 83, "vel": 111, "dur": 0.5, "tieStart": false, "tieEnd": false, "tieGroup": 0}]}]}, {"ts_num": 4, "ts_den": 4, "key_fifths": 1, "key_mode": 0, "clef": 0, "tempo": 136, "velocity": 104, "lyrics": "", "expr": [], "segs": [{"start": 0.0, "dur": 1.0, "rest": false, "notes": [{"pitch": 81, "vel": 109, "dur": 1.0, "tieStart": false, "tieEnd": false, "tieGroup": 0}]}, {"start": 1.0, "dur": 0.5, "rest": true, "notes": []}, {"start": 1.5, "dur": 0.5, "rest": false, "notes": [{"pitch": 81, "vel": 107, "dur": 0.5, "tieStart": false, "tieEnd": false, "tieGroup": 8}]}, {"start": 2.0, "dur": 0.5, "rest": false, "notes": [{"pitch": 84, "vel": 113, "dur": 0.5, "tieStart": false, "tieEnd": false, "tieGroup": 0}]}, {"start": 2.5, "dur": 0.5, "rest": false, "notes": [{"pitch": 83, "vel": 110, "dur": 0.5, "tieStart": false, "tieEnd": false, "tieGroup": 0}]}, {"start": 3.0, "dur": 0.5, "rest": false, "notes": [{"pitch": 81, "vel": 106, "dur": 0.5, "tieStart": false, "tieEnd": false, "tieGroup": 0}]}, {"start": 3.5, "dur": 0.5, "rest": false, "notes": [{"pitch": 79, "vel": 103, "dur": 0.5, "tieStart": false, "tieEnd": false, "tieGroup": 0}]}]}, {"ts_num": 4, "ts_den": 4, "key_fifths": 1, "key_mode": 0, "clef": 0, "tempo": 136, "velocity": 104, "lyrics": "", "expr": [], "segs": [{"start": 0.0, "dur": 0.5, "rest": false, "notes": [{"pitch": 79, "vel": 104, "dur": 0.5, "tieStart": false, "tieEnd": false, "tieGroup": 0}]}, {"start": 0.5, "dur": 0.5, "rest": false, "notes": [{"pitch": 83, "vel": 111, "dur": 0.5, "tieStart": false, "tieEnd": false, "tieGroup": 0}]}, {"start": 1.0, "dur": 0.5, "rest": false, "notes": [{"pitch": 86, "vel": 116, "dur": 0.5, "tieStart": false, "tieEnd": false, "tieGroup": 0}]}, {"start": 1.5, "dur": 0.5, "rest": true, "notes": []}, {"start": 2.0, "dur": 0.5, "rest": false, "notes": [{"pitch": 86, "vel": 115, "dur": 0.5, "tieStart": false, "tieEnd": false, "tieGroup": 9}]}, {"start": 2.5, "dur": 0.5, "rest": false, "notes": [{"pitch": 88, "vel": 119, "dur": 0.5, "tieStart": false, "tieEnd": false, "tieGroup": 0}]}, {"start": 3.0, "dur": 0.5, "rest": false, "notes": [{"pitch": 86, "vel": 116, "dur": 0.5, "tieStart": false, "tieEnd": false, "tieGroup": 0}]}, {"start": 3.5, "dur": 0.5, "rest": false, "notes": [{"pitch": 83, "vel": 110, "dur": 0.5, "tieStart": false, "tieEnd": false, "tieGroup": 0}]}]}, {"ts_num": 4, "ts_den": 4, "key_fifths": 1, "key_mode": 0, "clef": 0, "tempo": 136, "velocity": 104, "lyrics": "", "expr": [], "segs": [{"start": 0.0, "dur": 0.5, "rest": false, "notes": [{"pitch": 81, "vel": 107, "dur": 0.5, "tieStart": false, "tieEnd": false, "tieGroup": 0}]}, {"start": 0.5, "dur": 0.5, "rest": false, "notes": [{"pitch": 79, "vel": 103, "dur": 0.5, "tieStart": false, "tieEnd": false, "tieGroup": 0}]}, {"start": 1.0, "dur": 1.0, "rest": false, "notes": [{"pitch": 76, "vel": 100, "dur": 1.0, "tieStart": false, "tieEnd": false, "tieGroup": 0}]}, {"start": 2.0, "dur": 0.5, "rest": true, "notes": []}, {"start": 2.5, "dur": 0.5, "rest": false, "notes": [{"pitch": 79, "vel": 104, "dur": 0.5, "tieStart": false, "tieEnd": false, "tieGroup": 10}]}, {"start": 3.0, "dur": 0.5, "rest": false, "notes": [{"pitch": 81, "vel": 108, "dur": 0.5, "tieStart": false, "tieEnd": false, "tieGroup": 0}]}, {"start": 3.5, "dur": 0.5, "rest": false, "notes": [{"pitch": 83, "vel": 112, "dur": 0.5, "tieStart": false, "tieEnd": false, "tieGroup": 0}]}]}, {"ts_num": 4, "ts_den": 4, "key_fifths": 1, "key_mode": 0, "clef": 0, "tempo": 136, "velocity": 104, "lyrics": "", "expr": [], "segs": [{"start": 0.0, "dur": 0.5, "rest": true, "notes": []}, {"start": 0.5, "dur": 0.5, "rest": false, "notes": [{"pitch": 79, "vel": 106, "dur": 0.5, "tieStart": false, "tieEnd": false, "tieGroup": 11}]}, {"start": 1.0, "dur": 0.5, "rest": false, "notes": [{"pitch": 83, "vel": 111, "dur": 0.5, "tieStart": false, "tieEnd": false, "tieGroup": 0}]}, {"start": 1.5, "dur": 0.5, "rest": false, "notes": [{"pitch": 81, "vel": 107, "dur": 0.5, "tieStart": false, "tieEnd": false, "tieGroup": 0}]}, {"start": 2.0, "dur": 0.5, "rest": false, "notes": [{"pitch": 79, "vel": 104, "dur": 0.5, "tieStart": false, "tieEnd": false, "tieGroup": 0}]}, {"start": 2.5, "dur": 0.5, "rest": false, "notes": [{"pitch": 86, "vel": 116, "dur": 0.5, "tieStart": false, "tieEnd": false, "tieGroup": 0}]}, {"start": 3.0, "dur": 0.5, "rest": false, "notes": [{"pitch": 83, "vel": 110, "dur": 0.5, "tieStart": false, "tieEnd": false, "tieGroup": 0}]}, {"start": 3.5, "dur": 0.5, "rest": false, "notes": [{"pitch": 81, "vel": 106, "dur": 0.5, "tieStart": false, "tieEnd": false, "tieGroup": 0}]}]}, {"ts_num": 4, "ts_den": 4, "key_fifths": 1, "key_mode": 0, "clef": 0, "tempo": 136, "velocity": 104, "lyrics": "", "expr": [], "segs": [{"start": 0.0, "dur": 0.5, "rest": false, "notes": [{"pitch": 79, "vel": 104, "dur": 0.5, "tieStart": false, "tieEnd": false, "tieGroup": 0}]}, {"start": 0.5, "dur": 0.5, "rest": true, "notes": []}, {"start": 1.0, "dur": 0.5, "rest": false, "notes": [{"pitch": 81, "vel": 108, "dur": 0.5, "tieStart": false, "tieEnd": false, "tieGroup": 12}]}, {"start": 1.5, "dur": 0.5, "rest": false, "notes": [{"pitch": 83, "vel": 112, "dur": 0.5, "tieStart": false, "tieEnd": false, "tieGroup": 0}]}, {"start": 2.0, "dur": 1.0, "rest": false, "notes": [{"pitch": 86, "vel": 116, "dur": 1.0, "tieStart": false, "tieEnd": false, "tieGroup": 0}]}, {"start": 3.0, "dur": 0.5, "rest": false, "notes": [{"pitch": 83, "vel": 109, "dur": 0.5, "tieStart": false, "tieEnd": false, "tieGroup": 0}]}, {"start": 3.5, "dur": 0.5, "rest": false, "notes": [{"pitch": 79, "vel": 104, "dur": 0.5, "tieStart": false, "tieEnd": false, "tieGroup": 0}]}]}, {"ts_num": 4, "ts_den": 4, "key_fifths": 1, "key_mode": 0, "clef": 0, "tempo": 136, "velocity": 104, "lyrics": "", "expr": [], "segs": [{"start": 0.0, "dur": 0.5, "rest": false, "notes": [{"pitch": 76, "vel": 100, "dur": 0.5, "tieStart": false, "tieEnd": false, "tieGroup": 0}]}, {"start": 0.5, "dur": 0.5, "rest": false, "notes": [{"pitch": 79, "vel": 104, "dur": 0.5, "tieStart": false, "tieEnd": false, "tieGroup": 0}]}, {"start": 1.0, "dur": 0.5, "rest": false, "notes": [{"pitch": 81, "vel": 108, "dur": 0.5, "tieStart": false, "tieEnd": false, "tieGroup": 0}]}, {"start": 1.5, "dur": 0.5, "rest": true, "notes": []}, {"start": 2.0, "dur": 0.5, "rest": false, "notes": [{"pitch": 83, "vel": 112, "dur": 0.5, "tieStart": false, "tieEnd": false, "tieGroup": 13}]}, {"start": 2.5, "dur": 0.5, "rest": false, "notes": [{"pitch": 81, "vel": 107, "dur": 0.5, "tieStart": false, "tieEnd": false, "tieGroup": 0}]}, {"start": 3.0, "dur": 0.5, "rest": false, "notes": [{"pitch": 79, "vel": 104, "dur": 0.5, "tieStart": false, "tieEnd": false, "tieGroup": 0}]}, {"start": 3.5, "dur": 0.5, "rest": false, "notes": [{"pitch": 76, "vel": 100, "dur": 0.5, "tieStart": false, "tieEnd": false, "tieGroup": 0}]}]}, {"ts_num": 4, "ts_den": 4, "key_fifths": 1, "key_mode": 0, "clef": 0, "tempo": 136, "velocity": 104, "lyrics": "", "expr": [], "segs": [{"start": 0.0, "dur": 1.0, "rest": false, "notes": [{"pitch": 74, "vel": 103, "dur": 1.0, "tieStart": false, "tieEnd": false, "tieGroup": 0}]}, {"start": 1.0, "dur": 0.5, "rest": false, "notes": [{"pitch": 79, "vel": 105, "dur": 0.5, "tieStart": false, "tieEnd": false, "tieGroup": 0}]}, {"start": 1.5, "dur": 0.5, "rest": false, "notes": [{"pitch": 81, "vel": 109, "dur": 0.5, "tieStart": false, "tieEnd": false, "tieGroup": 0}]}, {"start": 2.0, "dur": 0.5, "rest": false, "notes": [{"pitch": 83, "vel": 112, "dur": 0.5, "tieStart": false, "tieEnd": false, "tieGroup": 0}]}, {"start": 2.5, "dur": 0.5, "rest": false, "notes": [{"pitch": 86, "vel": 116, "dur": 0.5, "tieStart": false, "tieEnd": false, "tieGroup": 0}]}, {"start": 3.0, "dur": 0.5, "rest": false, "notes": [{"pitch": 83, "vel": 110, "dur": 0.5, "tieStart": false, "tieEnd": false, "tieGroup": 0}]}, {"start": 3.5, "dur": 0.5, "rest": true, "notes": []}]}, {"ts_num": 4, "ts_den": 4, "key_fifths": 1, "key_mode": 0, "clef": 0, "tempo": 136, "velocity": 104, "lyrics": "", "expr": [], "segs": [{"start": 0.0, "dur": 0.5, "rest": true, "notes": []}, {"start": 0.5, "dur": 0.5, "rest": false, "notes": [{"pitch": 79, "vel": 106, "dur": 0.5, "tieStart": false, "tieEnd": false, "tieGroup": 14}]}, {"start": 1.0, "dur": 0.5, "rest": false, "notes": [{"pitch": 81, "vel": 109, "dur": 0.5, "tieStart": false, "tieEnd": false, "tieGroup": 0}]}, {"start": 1.5, "dur": 0.5, "rest": false, "notes": [{"pitch": 83, "vel": 113, "dur": 0.5, "tieStart": false, "tieEnd": false, "tieGroup": 0}]}, {"start": 2.0, "dur": 0.5, "rest": false, "notes": [{"pitch": 86, "vel": 117, "dur": 0.5, "tieStart": false, "tieEnd": false, "tieGroup": 0}]}, {"start": 2.5, "dur": 0.5, "rest": false, "notes": [{"pitch": 83, "vel": 110, "dur": 0.5, "tieStart": false, "tieEnd": false, "tieGroup": 0}]}, {"start": 3.0, "dur": 0.5, "rest": false, "notes": [{"pitch": 91, "vel": 121, "dur": 0.5, "tieStart": false, "tieEnd": false, "tieGroup": 0}]}, {"start": 3.5, "dur": 0.5, "rest": false, "notes": [{"pitch": 86, "vel": 116, "dur": 0.5, "tieStart": false, "tieEnd": false, "tieGroup": 0}]}]}, {"ts_num": 4, "ts_den": 4, "key_fifths": 1, "key_mode": 0, "clef": 0, "tempo": 136, "velocity": 104, "lyrics": "", "expr": [], "segs": [{"start": 0.0, "dur": 0.5, "rest": false, "notes": [{"pitch": 88, "vel": 119, "dur": 0.5, "tieStart": false, "tieEnd": false, "tieGroup": 0}]}, {"start": 0.5, "dur": 0.5, "rest": false, "notes": [{"pitch": 86, "vel": 115, "dur": 0.5, "tieStart": false, "tieEnd": false, "tieGroup": 0}]}, {"start": 1.0, "dur": 0.5, "rest": false, "notes": [{"pitch": 83, "vel": 110, "dur": 0.5, "tieStart": false, "tieEnd": false, "tieGroup": 0}]}, {"start": 1.5, "dur": 0.5, "rest": false, "notes": [{"pitch": 81, "vel": 106, "dur": 0.5, "tieStart": false, "tieEnd": false, "tieGroup": 0}]}, {"start": 2.0, "dur": 1.0, "rest": false, "notes": [{"pitch": 79, "vel": 108, "dur": 1.0, "tieStart": false, "tieEnd": false, "tieGroup": 0}]}, {"start": 3.0, "dur": 0.5, "rest": false, "notes": [{"pitch": 81, "vel": 107, "dur": 0.5, "tieStart": false, "tieEnd": false, "tieGroup": 0}]}, {"start": 3.5, "dur": 0.5, "rest": false, "notes": [{"pitch": 83, "vel": 112, "dur": 0.5, "tieStart": false, "tieEnd": false, "tieGroup": 0}]}]}, {"ts_num": 4, "ts_den": 4, "key_fifths": 1, "key_mode": 0, "clef": 0, "tempo": 136, "velocity": 104, "lyrics": "", "expr": [], "segs": [{"start": 0.0, "dur": 0.5, "rest": false, "notes": [{"pitch": 84, "vel": 114, "dur": 0.5, "tieStart": false, "tieEnd": false, "tieGroup": 0}]}, {"start": 0.5, "dur": 0.5, "rest": false, "notes": [{"pitch": 83, "vel": 110, "dur": 0.5, "tieStart": false, "tieEnd": false, "tieGroup": 0}]}, {"start": 1.0, "dur": 0.5, "rest": false, "notes": [{"pitch": 81, "vel": 106, "dur": 0.5, "tieStart": false, "tieEnd": false, "tieGroup": 0}]}, {"start": 1.5, "dur": 0.5, "rest": false, "notes": [{"pitch": 79, "vel": 103, "dur": 0.5, "tieStart": false, "tieEnd": false, "tieGroup": 0}]}, {"start": 2.0, "dur": 0.5, "rest": false, "notes": [{"pitch": 76, "vel": 99, "dur": 0.5, "tieStart": false, "tieEnd": false, "tieGroup": 0}]}, {"start": 2.5, "dur": 0.5, "rest": false, "notes": [{"pitch": 79, "vel": 104, "dur": 0.5, "tieStart": false, "tieEnd": false, "tieGroup": 0}]}, {"start": 3.0, "dur": 0.5, "rest": false, "notes": [{"pitch": 81, "vel": 108, "dur": 0.5, "tieStart": false, "tieEnd": false, "tieGroup": 0}]}, {"start": 3.5, "dur": 0.5, "rest": false, "notes": [{"pitch": 83, "vel": 112, "dur": 0.5, "tieStart": false, "tieEnd": false, "tieGroup": 0}]}]}, {"ts_num": 4, "ts_den": 4, "key_fifths": 1, "key_mode": 0, "clef": 0, "tempo": 136, "velocity": 104, "lyrics": "", "expr": [], "segs": [{"start": 0.0, "dur": 0.5, "rest": false, "notes": [{"pitch": 86, "vel": 116, "dur": 0.5, "tieStart": false, "tieEnd": false, "tieGroup": 0}]}, {"start": 0.5, "dur": 0.5, "rest": false, "notes": [{"pitch": 83, "vel": 110, "dur": 0.5, "tieStart": false, "tieEnd": false, "tieGroup": 0}]}, {"start": 1.0, "dur": 0.5, "rest": false, "notes": [{"pitch": 79, "vel": 104, "dur": 0.5, "tieStart": false, "tieEnd": false, "tieGroup": 0}]}, {"start": 1.5, "dur": 0.5, "rest": false, "notes": [{"pitch": 86, "vel": 117, "dur": 0.5, "tieStart": false, "tieEnd": false, "tieGroup": 0}]}, {"start": 2.0, "dur": 1.0, "rest": false, "notes": [{"pitch": 91, "vel": 121, "dur": 1.0, "tieStart": false, "tieEnd": false, "tieGroup": 0}]}, {"start": 3.0, "dur": 0.5, "rest": false, "notes": [{"pitch": 83, "vel": 111, "dur": 0.5, "tieStart": false, "tieEnd": false, "tieGroup": 0}]}, {"start": 3.5, "dur": 0.5, "rest": false, "notes": [{"pitch": 79, "vel": 106, "dur": 0.5, "tieStart": false, "tieEnd": false, "tieGroup": 0}]}]}, {"ts_num": 4, "ts_den": 4, "key_fifths": 1, "key_mode": 0, "clef": 0, "tempo": 136, "velocity": 104, "lyrics": "", "expr": [], "segs": [{"start": 0.0, "dur": 4.0, "rest": true, "notes": []}]}, {"ts_num": 4, "ts_den": 4, "key_fifths": 1, "key_mode": 0, "clef": 0, "tempo": 136, "velocity": 104, "lyrics": "", "expr": [], "segs": [{"start": 0.0, "dur": 4.0, "rest": true, "notes": []}]}, {"ts_num": 4, "ts_den": 4, "key_fifths": 1, "key_mode": 0, "clef": 0, "tempo": 136, "velocity": 104, "lyrics": "", "expr": [], "segs": [{"start": 0.0, "dur": 4.0, "rest": true, "notes": []}]}, {"ts_num": 4, "ts_den": 4, "key_fifths": 1, "key_mode": 0, "clef": 0, "tempo": 136, "velocity": 104, "lyrics": "", "expr": [], "segs": [{"start": 0.0, "dur": 4.0, "rest": true, "notes": []}]}]}, {"name": "Puppy Left Hand", "instrument": {"name": "Piano 1", "bankMSB": 0, "bankLSB": 0, "program": 0, "channelHint": -1, "percussion": false, "volume": 85, "pan": 64, "transpose": 0}, "measures": [{"ts_num": 4, "ts_den": 4, "key_fifths": 1, "key_mode": 0, "clef": 1, "tempo": 136, "velocity": 104, "lyrics": "", "expr": [], "segs": [{"start": 0.0, "dur": 1.0, "rest": false, "notes": [{"pitch": 43, "vel": 88, "dur": 1.0, "tieStart": false, "tieEnd": false, "tieGroup": 0}]}, {"start": 1.0, "dur": 1.0, "rest": false, "notes": [{"pitch": 50, "vel": 80, "dur": 1.0, "tieStart": false, "tieEnd": false, "tieGroup": 0}, {"pitch": 55, "vel": 80, "dur": 1.0, "tieStart": false, "tieEnd": false, "tieGroup": 0}]}, {"start": 2.0, "dur": 1.0, "rest": false, "notes": [{"pitch": 43, "vel": 90, "dur": 1.0, "tieStart": false, "tieEnd": false, "tieGroup": 0}]}, {"start": 3.0, "dur": 1.0, "rest": false, "notes": [{"pitch": 50, "vel": 82, "dur": 1.0, "tieStart": false, "tieEnd": false, "tieGroup": 0}, {"pitch": 55, "vel": 82, "dur": 1.0, "tieStart": false, "tieEnd": false, "tieGroup": 0}]}]}, {"ts_num": 4, "ts_den": 4, "key_fifths": 1, "key_mode": 0, "clef": 1, "tempo": 136, "velocity": 104, "lyrics": "", "expr": [], "segs": [{"start": 0.0, "dur": 1.0, "rest": false, "notes": [{"pitch": 50, "vel": 89, "dur": 1.0, "tieStart": false, "tieEnd": false, "tieGroup": 0}]}, {"start": 1.0, "dur": 1.0, "rest": false, "notes": [{"pitch": 57, "vel": 81, "dur": 1.0, "tieStart": false, "tieEnd": false, "tieGroup": 0}, {"pitch": 62, "vel": 81, "dur": 1.0, "tieStart": false, "tieEnd": false, "tieGroup": 0}]}, {"start": 2.0, "dur": 1.0, "rest": false, "notes": [{"pitch": 50, "vel": 90, "dur": 1.0, "tieStart": false, "tieEnd": false, "tieGroup": 0}]}, {"start": 3.0, "dur": 1.0, "rest": false, "notes": [{"pitch": 57, "vel": 82, "dur": 1.0, "tieStart": false, "tieEnd": false, "tieGroup": 0}, {"pitch": 62, "vel": 82, "dur": 1.0, "tieStart": false, "tieEnd": false, "tieGroup": 0}]}]}, {"ts_num": 4, "ts_den": 4, "key_fifths": 1, "key_mode": 0, "clef": 1, "tempo": 136, "velocity": 104, "lyrics": "", "expr": [], "segs": [{"start": 0.0, "dur": 1.0, "rest": false, "notes": [{"pitch": 52, "vel": 87, "dur": 1.0, "tieStart": false, "tieEnd": false, "tieGroup": 0}]}, {"start": 1.0, "dur": 1.0, "rest": false, "notes": [{"pitch": 59, "vel": 79, "dur": 1.0, "tieStart": false, "tieEnd": false, "tieGroup": 0}, {"pitch": 64, "vel": 79, "dur": 1.0, "tieStart": false, "tieEnd": false, "tieGroup": 0}]}, {"start": 2.0, "dur": 1.0, "rest": false, "notes": [{"pitch": 52, "vel": 88, "dur": 1.0, "tieStart": false, "tieEnd": false, "tieGroup": 0}]}, {"start": 3.0, "dur": 1.0, "rest": false, "notes": [{"pitch": 59, "vel": 80, "dur": 1.0, "tieStart": false, "tieEnd": false, "tieGroup": 0}, {"pitch": 64, "vel": 80, "dur": 1.0, "tieStart": false, "tieEnd": false, "tieGroup": 0}]}]}, {"ts_num": 4, "ts_den": 4, "key_fifths": 1, "key_mode": 0, "clef": 1, "tempo": 136, "velocity": 104, "lyrics": "", "expr": [], "segs": [{"start": 0.0, "dur": 1.0, "rest": false, "notes": [{"pitch": 50, "vel": 88, "dur": 1.0, "tieStart": false, "tieEnd": false, "tieGroup": 0}]}, {"start": 1.0, "dur": 1.0, "rest": false, "notes": [{"pitch": 57, "vel": 80, "dur": 1.0, "tieStart": false, "tieEnd": false, "tieGroup": 0}, {"pitch": 62, "vel": 80, "dur": 1.0, "tieStart": false, "tieEnd": false, "tieGroup": 0}]}, {"start": 2.0, "dur": 1.0, "rest": false, "notes": [{"pitch": 50, "vel": 89, "dur": 1.0, "tieStart": false, "tieEnd": false, "tieGroup": 0}]}, {"start": 3.0, "dur": 1.0, "rest": false, "notes": [{"pitch": 57, "vel": 81, "dur": 1.0, "tieStart": false, "tieEnd": false, "tieGroup": 0}, {"pitch": 62, "vel": 81, "dur": 1.0, "tieStart": false, "tieEnd": false, "tieGroup": 0}]}]}, {"ts_num": 4, "ts_den": 4, "key_fifths": 1, "key_mode": 0, "clef": 1, "tempo": 136, "velocity": 104, "lyrics": "", "expr": [], "segs": [{"start": 0.0, "dur": 1.0, "rest": false, "notes": [{"pitch": 43, "vel": 90, "dur": 1.0, "tieStart": false, "tieEnd": false, "tieGroup": 0}]}, {"start": 1.0, "dur": 1.0, "rest": false, "notes": [{"pitch": 50, "vel": 82, "dur": 1.0, "tieStart": false, "tieEnd": false, "tieGroup": 0}, {"pitch": 55, "vel": 82, "dur": 1.0, "tieStart": false, "tieEnd": false, "tieGroup": 0}]}, {"start": 2.0, "dur": 1.0, "rest": false, "notes": [{"pitch": 43, "vel": 91, "dur": 1.0, "tieStart": false, "tieEnd": false, "tieGroup": 0}]}, {"start": 3.0, "dur": 1.0, "rest": false, "notes": [{"pitch": 50, "vel": 83, "dur": 1.0, "tieStart": false, "tieEnd": false, "tieGroup": 0}, {"pitch": 55, "vel": 83, "dur": 1.0, "tieStart": false, "tieEnd": false, "tieGroup": 0}]}]}, {"ts_num": 4, "ts_den": 4, "key_fifths": 1, "key_mode": 0, "clef": 1, "tempo": 136, "velocity": 104, "lyrics": "", "expr": [], "segs": [{"start": 0.0, "dur": 1.0, "rest": false, "notes": [{"pitch": 48, "vel": 87, "dur": 1.0, "tieStart": false, "tieEnd": false, "tieGroup": 0}]}, {"start": 1.0, "dur": 1.0, "rest": false, "notes": [{"pitch": 55, "vel": 79, "dur": 1.0, "tieStart": false, "tieEnd": false, "tieGroup": 0}, {"pitch": 60, "vel": 79, "dur": 1.0, "tieStart": false, "tieEnd": false, "tieGroup": 0}]}, {"start": 2.0, "dur": 1.0, "rest": false, "notes": [{"pitch": 48, "vel": 88, "dur": 1.0, "tieStart": false, "tieEnd": false, "tieGroup": 0}]}, {"start": 3.0, "dur": 1.0, "rest": false, "notes": [{"pitch": 55, "vel": 80, "dur": 1.0, "tieStart": false, "tieEnd": false, "tieGroup": 0}, {"pitch": 60, "vel": 80, "dur": 1.0, "tieStart": false, "tieEnd": false, "tieGroup": 0}]}]}, {"ts_num": 4, "ts_den": 4, "key_fifths": 1, "key_mode": 0, "clef": 1, "tempo": 136, "velocity": 104, "lyrics": "", "expr": [], "segs": [{"start": 0.0, "dur": 1.0, "rest": false, "notes": [{"pitch": 43, "vel": 89, "dur": 1.0, "tieStart": false, "tieEnd": false, "tieGroup": 0}]}, {"start": 1.0, "dur": 1.0, "rest": false, "notes": [{"pitch": 50, "vel": 81, "dur": 1.0, "tieStart": false, "tieEnd": false, "tieGroup": 0}, {"pitch": 55, "vel": 81, "dur": 1.0, "tieStart": false, "tieEnd": false, "tieGroup": 0}]}, {"start": 2.0, "dur": 1.0, "rest": false, "notes": [{"pitch": 43, "vel": 90, "dur": 1.0, "tieStart": false, "tieEnd": false, "tieGroup": 0}]}, {"start": 3.0, "dur": 1.0, "rest": false, "notes": [{"pitch": 50, "vel": 82, "dur": 1.0, "tieStart": false, "tieEnd": false, "tieGroup": 0}, {"pitch": 55, "vel": 82, "dur": 1.0, "tieStart": false, "tieEnd": false, "tieGroup": 0}]}]}, {"ts_num": 4, "ts_den": 4, "key_fifths": 1, "key_mode": 0, "clef": 1, "tempo": 136, "velocity": 104, "lyrics": "", "expr": [], "segs": [{"start": 0.0, "dur": 1.0, "rest": false, "notes": [{"pitch": 50, "vel": 88, "dur": 1.0, "tieStart": false, "tieEnd": false, "tieGroup": 0}]}, {"start": 1.0, "dur": 1.0, "rest": false, "notes": [{"pitch": 57, "vel": 80, "dur": 1.0, "tieStart": false, "tieEnd": false, "tieGroup": 0}, {"pitch": 62, "vel": 80, "dur": 1.0, "tieStart": false, "tieEnd": false, "tieGroup": 0}]}, {"start": 2.0, "dur": 1.0, "rest": false, "notes": [{"pitch": 50, "vel": 89, "dur": 1.0, "tieStart": false, "tieEnd": false, "tieGroup": 0}]}, {"start": 3.0, "dur": 1.0, "rest": false, "notes": [{"pitch": 57, "vel": 81, "dur": 1.0, "tieStart": false, "tieEnd": false, "tieGroup": 0}, {"pitch": 62, "vel": 81, "dur": 1.0, "tieStart": false, "tieEnd": false, "tieGroup": 0}]}]}, {"ts_num": 4, "ts_den": 4, "key_fifths": 1, "key_mode": 0, "clef": 1, "tempo": 136, "velocity": 104, "lyrics": "", "expr": [], "segs": [{"start": 0.0, "dur": 1.0, "rest": false, "notes": [{"pitch": 43, "vel": 90, "dur": 1.0, "tieStart": false, "tieEnd": false, "tieGroup": 0}]}, {"start": 1.0, "dur": 1.0, "rest": false, "notes": [{"pitch": 50, "vel": 82, "dur": 1.0, "tieStart": false, "tieEnd": false, "tieGroup": 0}, {"pitch": 55, "vel": 82, "dur": 1.0, "tieStart": false, "tieEnd": false, "tieGroup": 0}]}, {"start": 2.0, "dur": 1.0, "rest": false, "notes": [{"pitch": 43, "vel": 91, "dur": 1.0, "tieStart": false, "tieEnd": false, "tieGroup": 0}]}, {"start": 3.0, "dur": 1.0, "rest": false, "notes": [{"pitch": 50, "vel": 83, "dur": 1.0, "tieStart": false, "tieEnd": false, "tieGroup": 0}, {"pitch": 55, "vel": 83, "dur": 1.0, "tieStart": false, "tieEnd": false, "tieGroup": 0}]}]}, {"ts_num": 4, "ts_den": 4, "key_fifths": 1, "key_mode": 0, "clef": 1, "tempo": 136, "velocity": 104, "lyrics": "", "expr": [], "segs": [{"start": 0.0, "dur": 1.0, "rest": false, "notes": [{"pitch": 52, "vel": 89, "dur": 1.0, "tieStart": false, "tieEnd": false, "tieGroup": 0}]}, {"start": 1.0, "dur": 1.0, "rest": false, "notes": [{"pitch": 59, "vel": 81, "dur": 1.0, "tieStart": false, "tieEnd": false, "tieGroup": 0}, {"pitch": 64, "vel": 81, "dur": 1.0, "tieStart": false, "tieEnd": false, "tieGroup": 0}]}, {"start": 2.0, "dur": 1.0, "rest": false, "notes": [{"pitch": 52, "vel": 90, "dur": 1.0, "tieStart": false, "tieEnd": false, "tieGroup": 0}]}, {"start": 3.0, "dur": 1.0, "rest": false, "notes": [{"pitch": 59, "vel": 82, "dur": 1.0, "tieStart": false, "tieEnd": false, "tieGroup": 0}, {"pitch": 64, "vel": 82, "dur": 1.0, "tieStart": false, "tieEnd": false, "tieGroup": 0}]}]}, {"ts_num": 4, "ts_den": 4, "key_fifths": 1, "key_mode": 0, "clef": 1, "tempo": 136, "velocity": 104, "lyrics": "", "expr": [], "segs": [{"start": 0.0, "dur": 1.0, "rest": false, "notes": [{"pitch": 48, "vel": 87, "dur": 1.0, "tieStart": false, "tieEnd": false, "tieGroup": 0}]}, {"start": 1.0, "dur": 1.0, "rest": false, "notes": [{"pitch": 55, "vel": 79, "dur": 1.0, "tieStart": false, "tieEnd": false, "tieGroup": 0}, {"pitch": 60, "vel": 79, "dur": 1.0, "tieStart": false, "tieEnd": false, "tieGroup": 0}]}, {"start": 2.0, "dur": 1.0, "rest": false, "notes": [{"pitch": 50, "vel": 89, "dur": 1.0, "tieStart": false, "tieEnd": false, "tieGroup": 0}]}, {"start": 3.0, "dur": 1.0, "rest": false, "notes": [{"pitch": 57, "vel": 81, "dur": 1.0, "tieStart": false, "tieEnd": false, "tieGroup": 0}, {"pitch": 62, "vel": 81, "dur": 1.0, "tieStart": false, "tieEnd": false, "tieGroup": 0}]}]}, {"ts_num": 4, "ts_den": 4, "key_fifths": 1, "key_mode": 0, "clef": 1, "tempo": 136, "velocity": 104, "lyrics": "", "expr": [], "segs": [{"start": 0.0, "dur": 1.0, "rest": false, "notes": [{"pitch": 43, "vel": 88, "dur": 1.0, "tieStart": false, "tieEnd": false, "tieGroup": 0}]}, {"start": 1.0, "dur": 1.0, "rest": false, "notes": [{"pitch": 50, "vel": 80, "dur": 1.0, "tieStart": false, "tieEnd": false, "tieGroup": 0}, {"pitch": 55, "vel": 80, "dur": 1.0, "tieStart": false, "tieEnd": false, "tieGroup": 0}]}, {"start": 2.0, "dur": 1.0, "rest": false, "notes": [{"pitch": 50, "vel": 87, "dur": 1.0, "tieStart": false, "tieEnd": false, "tieGroup": 0}]}, {"start": 3.0, "dur": 1.0, "rest": false, "notes": [{"pitch": 57, "vel": 79, "dur": 1.0, "tieStart": false, "tieEnd": false, "tieGroup": 0}, {"pitch": 62, "vel": 79, "dur": 1.0, "tieStart": false, "tieEnd": false, "tieGroup": 0}]}]}, {"ts_num": 4, "ts_den": 4, "key_fifths": 1, "key_mode": 0, "clef": 1, "tempo": 136, "velocity": 104, "lyrics": "", "expr": [], "segs": [{"start": 0.0, "dur": 1.0, "rest": false, "notes": [{"pitch": 43, "vel": 90, "dur": 1.0, "tieStart": false, "tieEnd": false, "tieGroup": 0}]}, {"start": 1.0, "dur": 1.0, "rest": false, "notes": [{"pitch": 50, "vel": 82, "dur": 1.0, "tieStart": false, "tieEnd": false, "tieGroup": 0}, {"pitch": 55, "vel": 82, "dur": 1.0, "tieStart": false, "tieEnd": false, "tieGroup": 0}]}, {"start": 2.0, "dur": 1.0, "rest": false, "notes": [{"pitch": 52, "vel": 88, "dur": 1.0, "tieStart": false, "tieEnd": false, "tieGroup": 0}]}, {"start": 3.0, "dur": 1.0, "rest": false, "notes": [{"pitch": 59, "vel": 80, "dur": 1.0, "tieStart": false, "tieEnd": false, "tieGroup": 0}, {"pitch": 64, "vel": 80, "dur": 1.0, "tieStart": false, "tieEnd": false, "tieGroup": 0}]}]}, {"ts_num": 4, "ts_den": 4, "key_fifths": 1, "key_mode": 0, "clef": 1, "tempo": 136, "velocity": 104, "lyrics": "", "expr": [], "segs": [{"start": 0.0, "dur": 1.0, "rest": false, "notes": [{"pitch": 50, "vel": 89, "dur": 1.0, "tieStart": false, "tieEnd": false, "tieGroup": 0}]}, {"start": 1.0, "dur": 1.0, "rest": false, "notes": [{"pitch": 57, "vel": 81, "dur": 1.0, "tieStart": false, "tieEnd": false, "tieGroup": 0}, {"pitch": 62, "vel": 81, "dur": 1.0, "tieStart": false, "tieEnd": false, "tieGroup": 0}]}, {"start": 2.0, "dur": 1.0, "rest": false, "notes": [{"pitch": 50, "vel": 90, "dur": 1.0, "tieStart": false, "tieEnd": false, "tieGroup": 0}]}, {"start": 3.0, "dur": 1.0, "rest": false, "notes": [{"pitch": 57, "vel": 82, "dur": 1.0, "tieStart": false, "tieEnd": false, "tieGroup": 0}, {"pitch": 62, "vel": 82, "dur": 1.0, "tieStart": false, "tieEnd": false, "tieGroup": 0}]}]}, {"ts_num": 4, "ts_den": 4, "key_fifths": 1, "key_mode": 0, "clef": 1, "tempo": 136, "velocity": 104, "lyrics": "", "expr": [], "segs": [{"start": 0.0, "dur": 1.0, "rest": false, "notes": [{"pitch": 52, "vel": 87, "dur": 1.0, "tieStart": false, "tieEnd": false, "tieGroup": 0}]}, {"start": 1.0, "dur": 1.0, "rest": false, "notes": [{"pitch": 59, "vel": 79, "dur": 1.0, "tieStart": false, "tieEnd": false, "tieGroup": 0}, {"pitch": 64, "vel": 79, "dur": 1.0, "tieStart": false, "tieEnd": false, "tieGroup": 0}]}, {"start": 2.0, "dur": 1.0, "rest": false, "notes": [{"pitch": 48, "vel": 87, "dur": 1.0, "tieStart": false, "tieEnd": false, "tieGroup": 0}]}, {"start": 3.0, "dur": 1.0, "rest": false, "notes": [{"pitch": 55, "vel": 79, "dur": 1.0, "tieStart": false, "tieEnd": false, "tieGroup": 0}, {"pitch": 60, "vel": 79, "dur": 1.0, "tieStart": false, "tieEnd": false, "tieGroup": 0}]}]}, {"ts_num": 4, "ts_den": 4, "key_fifths": 1, "key_mode": 0, "clef": 1, "tempo": 136, "velocity": 104, "lyrics": "", "expr": [], "segs": [{"start": 0.0, "dur": 1.0, "rest": false, "notes": [{"pitch": 50, "vel": 89, "dur": 1.0, "tieStart": false, "tieEnd": false, "tieGroup": 0}]}, {"start": 1.0, "dur": 1.0, "rest": false, "notes": [{"pitch": 57, "vel": 81, "dur": 1.0, "tieStart": false, "tieEnd": false, "tieGroup": 0}, {"pitch": 62, "vel": 81, "dur": 1.0, "tieStart": false, "tieEnd": false, "tieGroup": 0}]}, {"start": 2.0, "dur": 1.0, "rest": false, "notes": [{"pitch": 50, "vel": 90, "dur": 1.0, "tieStart": false, "tieEnd": false, "tieGroup": 0}]}, {"start": 3.0, "dur": 1.0, "rest": false, "notes": [{"pitch": 57, "vel": 82, "dur": 1.0, "tieStart": false, "tieEnd": false, "tieGroup": 0}, {"pitch": 62, "vel": 82, "dur": 1.0, "tieStart": false, "tieEnd": false, "tieGroup": 0}]}]}, {"ts_num": 4, "ts_den": 4, "key_fifths": 1, "key_mode": 0, "clef": 1, "tempo": 136, "velocity": 104, "lyrics": "", "expr": [], "segs": [{"start": 0.0, "dur": 1.0, "rest": false, "notes": [{"pitch": 43, "vel": 91, "dur": 1.0, "tieStart": false, "tieEnd": false, "tieGroup": 0}]}, {"start": 1.0, "dur": 1.0, "rest": false, "notes": [{"pitch": 50, "vel": 83, "dur": 1.0, "tieStart": false, "tieEnd": false, "tieGroup": 0}, {"pitch": 55, "vel": 83, "dur": 1.0, "tieStart": false, "tieEnd": false, "tieGroup": 0}]}, {"start": 2.0, "dur": 1.0, "rest": false, "notes": [{"pitch": 43, "vel": 92, "dur": 1.0, "tieStart": false, "tieEnd": false, "tieGroup": 0}]}, {"start": 3.0, "dur": 1.0, "rest": false, "notes": [{"pitch": 50, "vel": 84, "dur": 1.0, "tieStart": false, "tieEnd": false, "tieGroup": 0}, {"pitch": 55, "vel": 84, "dur": 1.0, "tieStart": false, "tieEnd": false, "tieGroup": 0}]}]}, {"ts_num": 4, "ts_den": 4, "key_fifths": 1, "key_mode": 0, "clef": 1, "tempo": 136, "velocity": 104, "lyrics": "", "expr": [], "segs": [{"start": 0.0, "dur": 1.0, "rest": false, "notes": [{"pitch": 52, "vel": 89, "dur": 1.0, "tieStart": false, "tieEnd": false, "tieGroup": 0}]}, {"start": 1.0, "dur": 1.0, "rest": false, "notes": [{"pitch": 59, "vel": 81, "dur": 1.0, "tieStart": false, "tieEnd": false, "tieGroup": 0}, {"pitch": 64, "vel": 81, "dur": 1.0, "tieStart": false, "tieEnd": false, "tieGroup": 0}]}, {"start": 2.0, "dur": 1.0, "rest": false, "notes": [{"pitch": 48, "vel": 88, "dur": 1.0, "tieStart": false, "tieEnd": false, "tieGroup": 0}]}, {"start": 3.0, "dur": 1.0, "rest": false, "notes": [{"pitch": 55, "vel": 80, "dur": 1.0, "tieStart": false, "tieEnd": false, "tieGroup": 0}, {"pitch": 60, "vel": 80, "dur": 1.0, "tieStart": false, "tieEnd": false, "tieGroup": 0}]}]}, {"ts_num": 4, "ts_den": 4, "key_fifths": 1, "key_mode": 0, "clef": 1, "tempo": 136, "velocity": 104, "lyrics": "", "expr": [], "segs": [{"start": 0.0, "dur": 1.0, "rest": false, "notes": [{"pitch": 50, "vel": 89, "dur": 1.0, "tieStart": false, "tieEnd": false, "tieGroup": 0}]}, {"start": 1.0, "dur": 1.0, "rest": false, "notes": [{"pitch": 57, "vel": 81, "dur": 1.0, "tieStart": false, "tieEnd": false, "tieGroup": 0}, {"pitch": 62, "vel": 81, "dur": 1.0, "tieStart": false, "tieEnd": false, "tieGroup": 0}]}, {"start": 2.0, "dur": 1.0, "rest": false, "notes": [{"pitch": 50, "vel": 90, "dur": 1.0, "tieStart": false, "tieEnd": false, "tieGroup": 0}]}, {"start": 3.0, "dur": 1.0, "rest": false, "notes": [{"pitch": 57, "vel": 82, "dur": 1.0, "tieStart": false, "tieEnd": false, "tieGroup": 0}, {"pitch": 62, "vel": 82, "dur": 1.0, "tieStart": false, "tieEnd": false, "tieGroup": 0}]}]}, {"ts_num": 4, "ts_den": 4, "key_fifths": 1, "key_mode": 0, "clef": 1, "tempo": 136, "velocity": 104, "lyrics": "", "expr": [], "segs": [{"start": 0.0, "dur": 1.0, "rest": false, "notes": [{"pitch": 43, "vel": 92, "dur": 1.0, "tieStart": false, "tieEnd": false, "tieGroup": 0}]}, {"start": 1.0, "dur": 1.0, "rest": false, "notes": [{"pitch": 50, "vel": 84, "dur": 1.0, "tieStart": false, "tieEnd": false, "tieGroup": 0}, {"pitch": 55, "vel": 84, "dur": 1.0, "tieStart": false, "tieEnd": false, "tieGroup": 0}]}, {"start": 2.0, "dur": 1.0, "rest": false, "notes": [{"pitch": 43, "vel": 94, "dur": 1.0, "tieStart": false, "tieEnd": false, "tieGroup": 0}]}, {"start": 3.0, "dur": 1.0, "rest": false, "notes": [{"pitch": 50, "vel": 85, "dur": 1.0, "tieStart": false, "tieEnd": false, "tieGroup": 0}, {"pitch": 55, "vel": 85, "dur": 1.0, "tieStart": false, "tieEnd": false, "tieGroup": 0}]}]}, {"ts_num": 4, "ts_den": 4, "key_fifths": 0, "key_mode": 0, "clef": 1, "tempo": 120, "velocity": 100, "lyrics": "", "expr": [], "segs": [{"start": 0.0, "dur": 4.0, "rest": true, "notes": []}]}, {"ts_num": 4, "ts_den": 4, "key_fifths": 0, "key_mode": 0, "clef": 1, "tempo": 120, "velocity": 100, "lyrics": "", "expr": [], "segs": [{"start": 0.0, "dur": 4.0, "rest": true, "notes": []}]}, {"ts_num": 4, "ts_den": 4, "key_fifths": 0, "key_mode": 0, "clef": 1, "tempo": 120, "velocity": 100, "lyrics": "", "expr": [], "segs": [{"start": 0.0, "dur": 4.0, "rest": true, "notes": []}]}, {"ts_num": 4, "ts_den": 4, "key_fifths": 0, "key_mode": 0, "clef": 1, "tempo": 120, "velocity": 100, "lyrics": "", "expr": [], "segs": [{"start": 0.0, "dur": 4.0, "rest": true, "notes": []}]}]}, {"name": "Accomp Chord Beat", "instrument": {"name": "Piano 1", "bankMSB": 0, "bankLSB": 0, "program": 0, "channelHint": -1, "percussion": false, "volume": 74, "pan": 64, "transpose": 0}, "measures": [{"ts_num": 4, "ts_den": 4, "key_fifths": 1, "key_mode": 0, "clef": 0, "tempo": 136, "velocity": 104, "lyrics": "", "expr": [], "segs": [{"start": 0.0, "dur": 0.5, "rest": false, "notes": [{"pitch": 55, "vel": 105, "dur": 0.5, "tieStart": false, "tieEnd": false, "tieGroup": 0}, {"pitch": 71, "vel": 101, "dur": 0.5, "tieStart": false, "tieEnd": false, "tieGroup": 0}]}, {"start": 0.5, "dur": 0.5, "rest": false, "notes": [{"pitch": 67, "vel": 105, "dur": 0.5, "tieStart": false, "tieEnd": false, "tieGroup": 0}]}, {"start": 1.0, "dur": 0.5, "rest": false, "notes": [{"pitch": 69, "vel": 105, "dur": 0.5, "tieStart": false, "tieEnd": false, "tieGroup": 0}]}, {"start": 1.5, "dur": 0.5, "rest": false, "notes": [{"pitch": 79, "vel": 105, "dur": 0.5, "tieStart": false, "tieEnd": false, "tieGroup": 0}]}, {"start": 2.0, "dur": 1.0, "rest": false, "notes": [{"pitch": 71, "vel": 105, "dur": 1.0, "tieStart": false, "tieEnd": false, "tieGroup": 0}]}, {"start": 3.0, "dur": 0.5, "rest": false, "notes": [{"pitch": 71, "vel": 105, "dur": 0.5, "tieStart": false, "tieEnd": false, "tieGroup": 0}]}, {"start": 3.5, "dur": 0.5, "rest": false, "notes": [{"pitch": 67, "vel": 105, "dur": 0.5, "tieStart": false, "tieEnd": false, "tieGroup": 0}, {"pitch": 69, "vel": 101, "dur": 0.5, "tieStart": false, "tieEnd": false, "tieGroup": 0}]}]}, {"ts_num": 4, "ts_den": 4, "key_fifths": 1, "key_mode": 0, "clef": 0, "tempo": 136, "velocity": 104, "lyrics": "", "expr": [], "segs": [{"start": 0.0, "dur": 1.0, "rest": false, "notes": [{"pitch": 45, "vel": 114, "dur": 1.0, "tieStart": false, "tieEnd": false, "tieGroup": 0}, {"pitch": 59, "vel": 110, "dur": 1.0, "tieStart": false, "tieEnd": false, "tieGroup": 0}]}, {"start": 1.0, "dur": 0.5, "rest": false, "notes": [{"pitch": 62, "vel": 114, "dur": 0.5, "tieStart": false, "tieEnd": false, "tieGroup": 0}]}, {"start": 1.5, "dur": 0.5, "rest": false, "notes": [{"pitch": 59, "vel": 114, "dur": 0.5, "tieStart": false, "tieEnd": false, "tieGroup": 0}]}, {"start": 2.0, "dur": 0.5, "rest": false, "notes": [{"pitch": 62, "vel": 114, "dur": 0.5, "tieStart": false, "tieEnd": false, "tieGroup": 0}]}, {"start": 2.5, "dur": 1.0, "rest": false, "notes": [{"pitch": 54, "vel": 114, "dur": 1.0, "tieStart": false, "tieEnd": false, "tieGroup": 0}, {"pitch": 71, "vel": 110, "dur": 1.0, "tieStart": false, "tieEnd": false, "tieGroup": 0}]}, {"start": 3.5, "dur": 0.5, "rest": false, "notes": [{"pitch": 62, "vel": 114, "dur": 0.5, "tieStart": false, "tieEnd": false, "tieGroup": 0}]}]}, {"ts_num": 4, "ts_den": 4, "key_fifths": 1, "key_mode": 0, "clef": 0, "tempo": 136, "velocity": 104, "lyrics": "", "expr": [], "segs": [{"start": 0.0, "dur": 1.0, "rest": false, "notes": [{"pitch": 57, "vel": 114, "dur": 1.0, "tieStart": false, "tieEnd": false, "tieGroup": 0}]}, {"start": 1.0, "dur": 0.5, "rest": false, "notes": [{"pitch": 57, "vel": 114, "dur": 0.5, "tieStart": false, "tieEnd": false, "tieGroup": 0}]}, {"start": 1.5, "dur": 0.5, "rest": false, "notes": [{"pitch": 48, "vel": 114, "dur": 0.5, "tieStart": false, "tieEnd": false, "tieGroup": 0}]}, {"start": 2.0, "dur": 0.5, "rest": false, "notes": [{"pitch": 64, "vel": 114, "dur": 0.5, "tieStart": false, "tieEnd": false, "tieGroup": 0}]}, {"start": 2.5, "dur": 1.0, "rest": false, "notes": [{"pitch": 67, "vel": 114, "dur": 1.0, "tieStart": false, "tieEnd": false, "tieGroup": 0}]}, {"start": 3.5, "dur": 0.5, "rest": false, "notes": [{"pitch": 57, "vel": 114, "dur": 0.5, "tieStart": false, "tieEnd": false, "tieGroup": 0}, {"pitch": 69, "vel": 110, "dur": 0.5, "tieStart": false, "tieEnd": false, "tieGroup": 0}]}]}, {"ts_num": 4, "ts_den": 4, "key_fifths": 1, "key_mode": 0, "clef": 0, "tempo": 136, "velocity": 104, "lyrics": "", "expr": [], "segs": [{"start": 0.0, "dur": 1.0, "rest": false, "notes": [{"pitch": 64, "vel": 114, "dur": 1.0, "tieStart": false, "tieEnd": false, "tieGroup": 0}, {"pitch": 76, "vel": 110, "dur": 1.0, "tieStart": false, "tieEnd": false, "tieGroup": 0}, {"pitch": 79, "vel": 106, "dur": 1.0, "tieStart": false, "tieEnd": false, "tieGroup": 0}, {"pitch": 83, "vel": 102, "dur": 1.0, "tieStart": false, "tieEnd": false, "tieGroup": 0}, {"pitch": 86, "vel": 98, "dur": 1.0, "tieStart": false, "tieEnd": false, "tieGroup": 0}]}, {"start": 1.0, "dur": 0.5, "rest": false, "notes": [{"pitch": 64, "vel": 114, "dur": 0.5, "tieStart": false, "tieEnd": false, "tieGroup": 0}, {"pitch": 67, "vel": 110, "dur": 0.5, "tieStart": false, "tieEnd": false, "tieGroup": 0}, {"pitch": 71, "vel": 106, "dur": 0.5, "tieStart": false, "tieEnd": false, "tieGroup": 0}, {"pitch": 74, "vel": 102, "dur": 0.5, "tieStart": false, "tieEnd": false, "tieGroup": 0}, {"pitch": 76, "vel": 98, "dur": 0.5, "tieStart": false, "tieEnd": false, "tieGroup": 0}]}, {"start": 1.5, "dur": 0.5, "rest": false, "notes": [{"pitch": 64, "vel": 114, "dur": 0.5, "tieStart": false, "tieEnd": false, "tieGroup": 0}, {"pitch": 67, "vel": 110, "dur": 0.5, "tieStart": false, "tieEnd": false, "tieGroup": 0}, {"pitch": 71, "vel": 106, "dur": 0.5, "tieStart": false, "tieEnd": false, "tieGroup": 0}, {"pitch": 74, "vel": 102, "dur": 0.5, "tieStart": false, "tieEnd": false, "tieGroup": 0}, {"pitch": 76, "vel": 98, "dur": 0.5, "tieStart": false, "tieEnd": false, "tieGroup": 0}]}, {"start": 2.0, "dur": 2.0, "rest": false, "notes": [{"pitch": 64, "vel": 114, "dur": 2.0, "tieStart": false, "tieEnd": false, "tieGroup": 0}, {"pitch": 67, "vel": 110, "dur": 2.0, "tieStart": false, "tieEnd": false, "tieGroup": 0}, {"pitch": 71, "vel": 106, "dur": 2.0, "tieStart": false, "tieEnd": false, "tieGroup": 0}, {"pitch": 74, "vel": 102, "dur": 2.0, "tieStart": false, "tieEnd": false, "tieGroup": 0}, {"pitch": 76, "vel": 98, "dur": 2.0, "tieStart": false, "tieEnd": false, "tieGroup": 0}]}]}, {"ts_num": 4, "ts_den": 4, "key_fifths": 1, "key_mode": 0, "clef": 0, "tempo": 136, "velocity": 104, "lyrics": "", "expr": [], "segs": [{"start": 0.0, "dur": 0.5, "rest": false, "notes": [{"pitch": 43, "vel": 113, "dur": 0.5, "tieStart": false, "tieEnd": false, "tieGroup": 0}, {"pitch": 64, "vel": 109, "dur": 0.5, "tieStart": false, "tieEnd": false, "tieGroup": 0}]}, {"start": 0.5, "dur": 0.5, "rest": false, "notes": [{"pitch": 43, "vel": 114, "dur": 0.5, "tieStart": false, "tieEnd": false, "tieGroup": 0}, {"pitch": 76, "vel": 110, "dur": 0.5, "tieStart": false, "tieEnd": false, "tieGroup": 0}]}, {"start": 1.0, "dur": 0.5, "rest": false, "notes": [{"pitch": 47, "vel": 114, "dur": 0.5, "tieStart": false, "tieEnd": false, "tieGroup": 0}]}, {"start": 1.5, "dur": 0.5, "rest": false, "notes": [{"pitch": 50, "vel": 114, "dur": 0.5, "tieStart": false, "tieEnd": false, "tieGroup": 0}]}, {"start": 2.0, "dur": 1.0, "rest": false, "notes": [{"pitch": 52, "vel": 113, "dur": 1.0, "tieStart": false, "tieEnd": false, "tieGroup": 0}]}, {"start": 3.0, "dur": 0.5, "rest": false, "notes": [{"pitch": 43, "vel": 114, "dur": 0.5, "tieStart": false, "tieEnd": false, "tieGroup": 0}]}, {"start": 3.5, "dur": 0.5, "rest": false, "notes": [{"pitch": 47, "vel": 114, "dur": 0.5, "tieStart": false, "tieEnd": false, "tieGroup": 0}, {"pitch": 76, "vel": 110, "dur": 0.5, "tieStart": false, "tieEnd": false, "tieGroup": 0}]}]}, {"ts_num": 4, "ts_den": 4, "key_fifths": 1, "key_mode": 0, "clef": 0, "tempo": 136, "velocity": 104, "lyrics": "", "expr": [], "segs": [{"start": 0.0, "dur": 0.5, "rest": false, "notes": [{"pitch": 57, "vel": 97, "dur": 0.5, "tieStart": false, "tieEnd": false, "tieGroup": 0}, {"pitch": 64, "vel": 93, "dur": 0.5, "tieStart": false, "tieEnd": false, "tieGroup": 0}, {"pitch": 67, "vel": 89, "dur": 0.5, "tieStart": false, "tieEnd": false, "tieGroup": 0}, {"pitch": 69, "vel": 85, "dur": 0.5, "tieStart": false, "tieEnd": false, "tieGroup": 0}, {"pitch": 72, "vel": 81, "dur": 0.5, "tieStart": false, "tieEnd": false, "tieGroup": 0}]}, {"start": 0.5, "dur": 0.5, "rest": false, "notes": [{"pitch": 57, "vel": 97, "dur": 0.5, "tieStart": false, "tieEnd": false, "tieGroup": 0}, {"pitch": 60, "vel": 93, "dur": 0.5, "tieStart": false, "tieEnd": false, "tieGroup": 0}, {"pitch": 64, "vel": 89, "dur": 0.5, "tieStart": false, "tieEnd": false, "tieGroup": 0}, {"pitch": 67, "vel": 85, "dur": 0.5, "tieStart": false, "tieEnd": false, "tieGroup": 0}, {"pitch": 69, "vel": 81, "dur": 0.5, "tieStart": false, "tieEnd": false, "tieGroup": 0}]}, {"start": 1.0, "dur": 1.0, "rest": false, "notes": [{"pitch": 57, "vel": 97, "dur": 1.0, "tieStart": false, "tieEnd": false, "tieGroup": 0}, {"pitch": 67, "vel": 93, "dur": 1.0, "tieStart": false, "tieEnd": false, "tieGroup": 0}, {"pitch": 69, "vel": 89, "dur": 1.0, "tieStart": false, "tieEnd": false, "tieGroup": 0}, {"pitch": 72, "vel": 85, "dur": 1.0, "tieStart": false, "tieEnd": false, "tieGroup": 0}, {"pitch": 76, "vel": 81, "dur": 1.0, "tieStart": false, "tieEnd": false, "tieGroup": 0}]}, {"start": 2.0, "dur": 2.0, "rest": false, "notes": [{"pitch": 57, "vel": 105, "dur": 2.0, "tieStart": false, "tieEnd": false, "tieGroup": 0}, {"pitch": 64, "vel": 101, "dur": 2.0, "tieStart": false, "tieEnd": false, "tieGroup": 0}, {"pitch": 67, "vel": 97, "dur": 2.0, "tieStart": false, "tieEnd": false, "tieGroup": 0}, {"pitch": 69, "vel": 93, "dur": 2.0, "tieStart": false, "tieEnd": false, "tieGroup": 0}, {"pitch": 72, "vel": 89, "dur": 2.0, "tieStart": false, "tieEnd": false, "tieGroup": 0}]}]}, {"ts_num": 4, "ts_den": 4, "key_fifths": 1, "key_mode": 0, "clef": 0, "tempo": 136, "velocity": 104, "lyrics": "", "expr": [], "segs": [{"start": 0.0, "dur": 0.5, "rest": false, "notes": [{"pitch": 64, "vel": 114, "dur": 0.5, "tieStart": false, "tieEnd": false, "tieGroup": 0}, {"pitch": 71, "vel": 110, "dur": 0.5, "tieStart": false, "tieEnd": false, "tieGroup": 0}, {"pitch": 74, "vel": 106, "dur": 0.5, "tieStart": false, "tieEnd": false, "tieGroup": 0}, {"pitch": 76, "vel": 102, "dur": 0.5, "tieStart": false, "tieEnd": false, "tieGroup": 0}, {"pitch": 79, "vel": 98, "dur": 0.5, "tieStart": false, "tieEnd": false, "tieGroup": 0}]}, {"start": 0.5, "dur": 0.5, "rest": false, "notes": [{"pitch": 64, "vel": 114, "dur": 0.5, "tieStart": false, "tieEnd": false, "tieGroup": 0}, {"pitch": 76, "vel": 110, "dur": 0.5, "tieStart": false, "tieEnd": false, "tieGroup": 0}, {"pitch": 79, "vel": 106, "dur": 0.5, "tieStart": false, "tieEnd": false, "tieGroup": 0}, {"pitch": 83, "vel": 102, "dur": 0.5, "tieStart": false, "tieEnd": false, "tieGroup": 0}, {"pitch": 86, "vel": 98, "dur": 0.5, "tieStart": false, "tieEnd": false, "tieGroup": 0}]}, {"start": 1.0, "dur": 0.5, "rest": false, "notes": [{"pitch": 64, "vel": 114, "dur": 0.5, "tieStart": false, "tieEnd": false, "tieGroup": 0}, {"pitch": 71, "vel": 110, "dur": 0.5, "tieStart": false, "tieEnd": false, "tieGroup": 0}, {"pitch": 74, "vel": 106, "dur": 0.5, "tieStart": false, "tieEnd": false, "tieGroup": 0}, {"pitch": 76, "vel": 102, "dur": 0.5, "tieStart": false, "tieEnd": false, "tieGroup": 0}, {"pitch": 79, "vel": 98, "dur": 0.5, "tieStart": false, "tieEnd": false, "tieGroup": 0}]}, {"start": 1.5, "dur": 2.5, "rest": false, "notes": [{"pitch": 64, "vel": 114, "dur": 2.5, "tieStart": false, "tieEnd": false, "tieGroup": 0}, {"pitch": 76, "vel": 110, "dur": 2.5, "tieStart": false, "tieEnd": false, "tieGroup": 0}, {"pitch": 79, "vel": 106, "dur": 2.5, "tieStart": false, "tieEnd": false, "tieGroup": 0}, {"pitch": 83, "vel": 102, "dur": 2.5, "tieStart": false, "tieEnd": false, "tieGroup": 0}, {"pitch": 86, "vel": 98, "dur": 2.5, "tieStart": false, "tieEnd": false, "tieGroup": 0}]}]}, {"ts_num": 4, "ts_den": 4, "key_fifths": 1, "key_mode": 0, "clef": 0, "tempo": 136, "velocity": 104, "lyrics": "", "expr": [], "segs": [{"start": 0.0, "dur": 1.5, "rest": false, "notes": [{"pitch": 64, "vel": 89, "dur": 1.5, "tieStart": false, "tieEnd": false, "tieGroup": 0}, {"pitch": 74, "vel": 85, "dur": 1.5, "tieStart": false, "tieEnd": false, "tieGroup": 0}, {"pitch": 76, "vel": 81, "dur": 1.5, "tieStart": false, "tieEnd": false, "tieGroup": 0}, {"pitch": 79, "vel": 77, "dur": 1.5, "tieStart": false, "tieEnd": false, "tieGroup": 0}, {"pitch": 83, "vel": 73, "dur": 1.5, "tieStart": false, "tieEnd": false, "tieGroup": 0}]}, {"start": 1.5, "dur": 0.5, "rest": false, "notes": [{"pitch": 64, "vel": 89, "dur": 0.5, "tieStart": false, "tieEnd": false, "tieGroup": 0}, {"pitch": 71, "vel": 85, "dur": 0.5, "tieStart": false, "tieEnd": false, "tieGroup": 0}, {"pitch": 74, "vel": 81, "dur": 0.5, "tieStart": false, "tieEnd": false, "tieGroup": 0}, {"pitch": 76, "vel": 77, "dur": 0.5, "tieStart": false, "tieEnd": false, "tieGroup": 0}, {"pitch": 79, "vel": 73, "dur": 0.5, "tieStart": false, "tieEnd": false, "tieGroup": 0}]}, {"start": 2.0, "dur": 0.5, "rest": false, "notes": [{"pitch": 64, "vel": 89, "dur": 0.5, "tieStart": false, "tieEnd": false, "tieGroup": 0}, {"pitch": 76, "vel": 85, "dur": 0.5, "tieStart": false, "tieEnd": false, "tieGroup": 0}, {"pitch": 79, "vel": 81, "dur": 0.5, "tieStart": false, "tieEnd": false, "tieGroup": 0}, {"pitch": 83, "vel": 77, "dur": 0.5, "tieStart": false, "tieEnd": false, "tieGroup": 0}, {"pitch": 86, "vel": 73, "dur": 0.5, "tieStart": false, "tieEnd": false, "tieGroup": 0}]}, {"start": 2.5, "dur": 1.5, "rest": false, "notes": [{"pitch": 64, "vel": 89, "dur": 1.5, "tieStart": false, "tieEnd": false, "tieGroup": 0}, {"pitch": 74, "vel": 85, "dur": 1.5, "tieStart": false, "tieEnd": false, "tieGroup": 0}, {"pitch": 76, "vel": 81, "dur": 1.5, "tieStart": false, "tieEnd": false, "tieGroup": 0}, {"pitch": 79, "vel": 77, "dur": 1.5, "tieStart": false, "tieEnd": false, "tieGroup": 0}, {"pitch": 83, "vel": 73, "dur": 1.5, "tieStart": false, "tieEnd": false, "tieGroup": 0}]}]}, {"ts_num": 4, "ts_den": 4, "key_fifths": 1, "key_mode": 0, "clef": 0, "tempo": 136, "velocity": 104, "lyrics": "", "expr": [], "segs": [{"start": 0.0, "dur": 1.0, "rest": false, "notes": [{"pitch": 47, "vel": 114, "dur": 1.0, "tieStart": false, "tieEnd": false, "tieGroup": 0}, {"pitch": 64, "vel": 110, "dur": 1.0, "tieStart": false, "tieEnd": false, "tieGroup": 0}]}, {"start": 1.0, "dur": 0.5, "rest": false, "notes": [{"pitch": 79, "vel": 114, "dur": 0.5, "tieStart": false, "tieEnd": false, "tieGroup": 0}]}, {"start": 1.5, "dur": 0.5, "rest": false, "notes": [{"pitch": 83, "vel": 114, "dur": 0.5, "tieStart": false, "tieEnd": false, "tieGroup": 0}]}, {"start": 2.0, "dur": 0.5, "rest": false, "notes": [{"pitch": 76, "vel": 114, "dur": 0.5, "tieStart": false, "tieEnd": false, "tieGroup": 0}, {"pitch": 86, "vel": 110, "dur": 0.5, "tieStart": false, "tieEnd": false, "tieGroup": 0}]}, {"start": 2.5, "dur": 1.0, "rest": false, "notes": [{"pitch": 55, "vel": 114, "dur": 1.0, "tieStart": false, "tieEnd": false, "tieGroup": 0}]}, {"start": 3.5, "dur": 0.5, "rest": false, "notes": [{"pitch": 79, "vel": 114, "dur": 0.5, "tieStart": false, "tieEnd": false, "tieGroup": 0}]}]}, {"ts_num": 4, "ts_den": 4, "key_fifths": 1, "key_mode": 0, "clef": 0, "tempo": 136, "velocity": 104, "lyrics": "", "expr": [], "segs": [{"start": 0.0, "dur": 1.5, "rest": false, "notes": [{"pitch": 57, "vel": 114, "dur": 1.5, "tieStart": false, "tieEnd": false, "tieGroup": 0}, {"pitch": 67, "vel": 110, "dur": 1.5, "tieStart": false, "tieEnd": false, "tieGroup": 0}, {"pitch": 69, "vel": 106, "dur": 1.5, "tieStart": false, "tieEnd": false, "tieGroup": 0}, {"pitch": 72, "vel": 102, "dur": 1.5, "tieStart": false, "tieEnd": false, "tieGroup": 0}, {"pitch": 76, "vel": 98, "dur": 1.5, "tieStart": false, "tieEnd": false, "tieGroup": 0}]}, {"start": 1.5, "dur": 0.5, "rest": false, "notes": [{"pitch": 57, "vel": 113, "dur": 0.5, "tieStart": false, "tieEnd": false, "tieGroup": 0}, {"pitch": 67, "vel": 109, "dur": 0.5, "tieStart": false, "tieEnd": false, "tieGroup": 0}, {"pitch": 69, "vel": 105, "dur": 0.5, "tieStart": false, "tieEnd": false, "tieGroup": 0}, {"pitch": 72, "vel": 101, "dur": 0.5, "tieStart": false, "tieEnd": false, "tieGroup": 0}, {"pitch": 76, "vel": 97, "dur": 0.5, "tieStart": false, "tieEnd": false, "tieGroup": 0}]}, {"start": 2.0, "dur": 0.5, "rest": false, "notes": [{"pitch": 57, "vel": 114, "dur": 0.5, "tieStart": false, "tieEnd": false, "tieGroup": 0}, {"pitch": 67, "vel": 110, "dur": 0.5, "tieStart": false, "tieEnd": false, "tieGroup": 0}, {"pitch": 69, "vel": 106, "dur": 0.5, "tieStart": false, "tieEnd": false, "tieGroup": 0}, {"pitch": 72, "vel": 102, "dur": 0.5, "tieStart": false, "tieEnd": false, "tieGroup": 0}, {"pitch": 76, "vel": 98, "dur": 0.5, "tieStart": false, "tieEnd": false, "tieGroup": 0}]}, {"start": 2.5, "dur": 1.5, "rest": false, "notes": [{"pitch": 57, "vel": 114, "dur": 1.5, "tieStart": false, "tieEnd": false, "tieGroup": 0}, {"pitch": 67, "vel": 110, "dur": 1.5, "tieStart": false, "tieEnd": false, "tieGroup": 0}, {"pitch": 69, "vel": 106, "dur": 1.5, "tieStart": false, "tieEnd": false, "tieGroup": 0}, {"pitch": 72, "vel": 102, "dur": 1.5, "tieStart": false, "tieEnd": false, "tieGroup": 0}, {"pitch": 79, "vel": 98, "dur": 1.5, "tieStart": false, "tieEnd": false, "tieGroup": 0}]}]}, {"ts_num": 4, "ts_den": 4, "key_fifths": 1, "key_mode": 0, "clef": 0, "tempo": 136, "velocity": 104, "lyrics": "", "expr": [], "segs": [{"start": 0.0, "dur": 0.5, "rest": false, "notes": [{"pitch": 59, "vel": 114, "dur": 0.5, "tieStart": false, "tieEnd": false, "tieGroup": 0}, {"pitch": 64, "vel": 110, "dur": 0.5, "tieStart": false, "tieEnd": false, "tieGroup": 0}]}, {"start": 0.5, "dur": 0.5, "rest": false, "notes": [{"pitch": 64, "vel": 114, "dur": 0.5, "tieStart": false, "tieEnd": false, "tieGroup": 0}]}, {"start": 1.0, "dur": 0.5, "rest": false, "notes": [{"pitch": 62, "vel": 114, "dur": 0.5, "tieStart": false, "tieEnd": false, "tieGroup": 0}]}, {"start": 1.5, "dur": 0.5, "rest": false, "notes": [{"pitch": 74, "vel": 114, "dur": 0.5, "tieStart": false, "tieEnd": false, "tieGroup": 0}]}, {"start": 2.0, "dur": 1.0, "rest": false, "notes": [{"pitch": 67, "vel": 114, "dur": 1.0, "tieStart": false, "tieEnd": false, "tieGroup": 0}]}, {"start": 3.0, "dur": 0.5, "rest": false, "notes": [{"pitch": 64, "vel": 114, "dur": 0.5, "tieStart": false, "tieEnd": false, "tieGroup": 0}, {"pitch": 76, "vel": 110, "dur": 0.5, "tieStart": false, "tieEnd": false, "tieGroup": 0}]}, {"start": 3.5, "dur": 0.5, "rest": false, "notes": [{"pitch": 62, "vel": 114, "dur": 0.5, "tieStart": false, "tieEnd": false, "tieGroup": 0}]}]}, {"ts_num": 4, "ts_den": 4, "key_fifths": 1, "key_mode": 0, "clef": 0, "tempo": 136, "velocity": 104, "lyrics": "", "expr": [], "segs": [{"start": 0.0, "dur": 0.5, "rest": false, "notes": [{"pitch": 43, "vel": 113, "dur": 0.5, "tieStart": false, "tieEnd": false, "tieGroup": 0}, {"pitch": 45, "vel": 109, "dur": 0.5, "tieStart": false, "tieEnd": false, "tieGroup": 0}, {"pitch": 48, "vel": 105, "dur": 0.5, "tieStart": false, "tieEnd": false, "tieGroup": 0}, {"pitch": 52, "vel": 101, "dur": 0.5, "tieStart": false, "tieEnd": false, "tieGroup": 0}, {"pitch": 57, "vel": 97, "dur": 0.5, "tieStart": false, "tieEnd": false, "tieGroup": 0}]}, {"start": 0.5, "dur": 0.5, "rest": false, "notes": [{"pitch": 43, "vel": 114, "dur": 0.5, "tieStart": false, "tieEnd": false, "tieGroup": 0}, {"pitch": 45, "vel": 110, "dur": 0.5, "tieStart": false, "tieEnd": false, "tieGroup": 0}, {"pitch": 48, "vel": 106, "dur": 0.5, "tieStart": false, "tieEnd": false, "tieGroup": 0}, {"pitch": 52, "vel": 102, "dur": 0.5, "tieStart": false, "tieEnd": false, "tieGroup": 0}, {"pitch": 57, "vel": 98, "dur": 0.5, "tieStart": false, "tieEnd": false, "tieGroup": 0}]}, {"start": 1.0, "dur": 1.5, "rest": false, "notes": [{"pitch": 43, "vel": 114, "dur": 1.5, "tieStart": false, "tieEnd": false, "tieGroup": 0}, {"pitch": 45, "vel": 110, "dur": 1.5, "tieStart": false, "tieEnd": false, "tieGroup": 0}, {"pitch": 48, "vel": 106, "dur": 1.5, "tieStart": false, "tieEnd": false, "tieGroup": 0}, {"pitch": 52, "vel": 102, "dur": 1.5, "tieStart": false, "tieEnd": false, "tieGroup": 0}, {"pitch": 57, "vel": 98, "dur": 1.5, "tieStart": false, "tieEnd": false, "tieGroup": 0}]}, {"start": 2.5, "dur": 1.5, "rest": false, "notes": [{"pitch": 43, "vel": 114, "dur": 1.5, "tieStart": false, "tieEnd": false, "tieGroup": 0}, {"pitch": 45, "vel": 110, "dur": 1.5, "tieStart": false, "tieEnd": false, "tieGroup": 0}, {"pitch": 48, "vel": 106, "dur": 1.5, "tieStart": false, "tieEnd": false, "tieGroup": 0}, {"pitch": 52, "vel": 102, "dur": 1.5, "tieStart": false, "tieEnd": false, "tieGroup": 0}, {"pitch": 55, "vel": 98, "dur": 1.5, "tieStart": false, "tieEnd": false, "tieGroup": 0}]}]}, {"ts_num": 4, "ts_den": 4, "key_fifths": 1, "key_mode": 0, "clef": 0, "tempo": 136, "velocity": 104, "lyrics": "", "expr": [], "segs": [{"start": 0.0, "dur": 0.5, "rest": false, "notes": [{"pitch": 64, "vel": 114, "dur": 0.5, "tieStart": false, "tieEnd": false, "tieGroup": 0}, {"pitch": 79, "vel": 110, "dur": 0.5, "tieStart": false, "tieEnd": false, "tieGroup": 0}]}, {"start": 0.5, "dur": 0.5, "rest": false, "notes": [{"pitch": 64, "vel": 114, "dur": 0.5, "tieStart": false, "tieEnd": false, "tieGroup": 0}, {"pitch": 76, "vel": 110, "dur": 0.5, "tieStart": false, "tieEnd": false, "tieGroup": 0}]}, {"start": 1.0, "dur": 0.5, "rest": false, "notes": [{"pitch": 71, "vel": 114, "dur": 0.5, "tieStart": false, "tieEnd": false, "tieGroup": 0}]}, {"start": 1.5, "dur": 0.5, "rest": false, "notes": [{"pitch": 74, "vel": 114, "dur": 0.5, "tieStart": false, "tieEnd": false, "tieGroup": 0}]}, {"start": 2.0, "dur": 1.0, "rest": false, "notes": [{"pitch": 88, "vel": 114, "dur": 1.0, "tieStart": false, "tieEnd": false, "tieGroup": 0}]}, {"start": 3.0, "dur": 0.5, "rest": false, "notes": [{"pitch": 64, "vel": 114, "dur": 0.5, "tieStart": false, "tieEnd": false, "tieGroup": 0}]}, {"start": 3.5, "dur": 0.5, "rest": false, "notes": [{"pitch": 71, "vel": 114, "dur": 0.5, "tieStart": false, "tieEnd": false, "tieGroup": 0}, {"pitch": 76, "vel": 110, "dur": 0.5, "tieStart": false, "tieEnd": false, "tieGroup": 0}]}]}, {"ts_num": 4, "ts_den": 4, "key_fifths": 1, "key_mode": 0, "clef": 0, "tempo": 136, "velocity": 104, "lyrics": "", "expr": [], "segs": [{"start": 0.0, "dur": 1.0, "rest": false, "notes": [{"pitch": 64, "vel": 114, "dur": 1.0, "tieStart": false, "tieEnd": false, "tieGroup": 0}, {"pitch": 79, "vel": 110, "dur": 1.0, "tieStart": false, "tieEnd": false, "tieGroup": 0}]}, {"start": 1.0, "dur": 0.5, "rest": false, "notes": [{"pitch": 50, "vel": 114, "dur": 0.5, "tieStart": false, "tieEnd": false, "tieGroup": 0}]}, {"start": 1.5, "dur": 0.5, "rest": false, "notes": [{"pitch": 62, "vel": 114, "dur": 0.5, "tieStart": false, "tieEnd": false, "tieGroup": 0}, {"pitch": 76, "vel": 110, "dur": 0.5, "tieStart": false, "tieEnd": false, "tieGroup": 0}]}, {"start": 2.0, "dur": 0.5, "rest": false, "notes": [{"pitch": 67, "vel": 114, "dur": 0.5, "tieStart": false, "tieEnd": false, "tieGroup": 0}]}, {"start": 2.5, "dur": 1.0, "rest": false, "notes": [{"pitch": 88, "vel": 114, "dur": 1.0, "tieStart": false, "tieEnd": false, "tieGroup": 0}]}, {"start": 3.5, "dur": 0.5, "rest": false, "notes": [{"pitch": 50, "vel": 114, "dur": 0.5, "tieStart": false, "tieEnd": false, "tieGroup": 0}]}]}, {"ts_num": 4, "ts_den": 4, "key_fifths": 1, "key_mode": 0, "clef": 0, "tempo": 136, "velocity": 104, "lyrics": "", "expr": [], "segs": [{"start": 0.0, "dur": 0.5, "rest": false, "notes": [{"pitch": 57, "vel": 89, "dur": 0.5, "tieStart": false, "tieEnd": false, "tieGroup": 0}, {"pitch": 69, "vel": 85, "dur": 0.5, "tieStart": false, "tieEnd": false, "tieGroup": 0}, {"pitch": 72, "vel": 81, "dur": 0.5, "tieStart": false, "tieEnd": false, "tieGroup": 0}, {"pitch": 76, "vel": 77, "dur": 0.5, "tieStart": false, "tieEnd": false, "tieGroup": 0}, {"pitch": 79, "vel": 73, "dur": 0.5, "tieStart": false, "tieEnd": false, "tieGroup": 0}]}, {"start": 0.5, "dur": 0.5, "rest": false, "notes": [{"pitch": 57, "vel": 89, "dur": 0.5, "tieStart": false, "tieEnd": false, "tieGroup": 0}, {"pitch": 69, "vel": 85, "dur": 0.5, "tieStart": false, "tieEnd": false, "tieGroup": 0}, {"pitch": 72, "vel": 81, "dur": 0.5, "tieStart": false, "tieEnd": false, "tieGroup": 0}, {"pitch": 76, "vel": 77, "dur": 0.5, "tieStart": false, "tieEnd": false, "tieGroup": 0}, {"pitch": 79, "vel": 73, "dur": 0.5, "tieStart": false, "tieEnd": false, "tieGroup": 0}]}, {"start": 1.0, "dur": 1.0, "rest": false, "notes": [{"pitch": 57, "vel": 113, "dur": 1.0, "tieStart": false, "tieEnd": false, "tieGroup": 0}, {"pitch": 69, "vel": 109, "dur": 1.0, "tieStart": false, "tieEnd": false, "tieGroup": 0}, {"pitch": 72, "vel": 105, "dur": 1.0, "tieStart": false, "tieEnd": false, "tieGroup": 0}, {"pitch": 76, "vel": 101, "dur": 1.0, "tieStart": false, "tieEnd": false, "tieGroup": 0}, {"pitch": 79, "vel": 97, "dur": 1.0, "tieStart": false, "tieEnd": false, "tieGroup": 0}]}, {"start": 2.0, "dur": 2.0, "rest": false, "notes": [{"pitch": 57, "vel": 114, "dur": 2.0, "tieStart": false, "tieEnd": false, "tieGroup": 0}, {"pitch": 69, "vel": 110, "dur": 2.0, "tieStart": false, "tieEnd": false, "tieGroup": 0}, {"pitch": 72, "vel": 106, "dur": 2.0, "tieStart": false, "tieEnd": false, "tieGroup": 0}, {"pitch": 76, "vel": 102, "dur": 2.0, "tieStart": false, "tieEnd": false, "tieGroup": 0}, {"pitch": 79, "vel": 98, "dur": 2.0, "tieStart": false, "tieEnd": false, "tieGroup": 0}]}]}, {"ts_num": 4, "ts_den": 4, "key_fifths": 1, "key_mode": 0, "clef": 0, "tempo": 136, "velocity": 104, "lyrics": "", "expr": [], "segs": [{"start": 0.0, "dur": 1.0, "rest": false, "notes": [{"pitch": 43, "vel": 105, "dur": 1.0, "tieStart": false, "tieEnd": false, "tieGroup": 0}, {"pitch": 47, "vel": 101, "dur": 1.0, "tieStart": false, "tieEnd": false, "tieGroup": 0}, {"pitch": 50, "vel": 97, "dur": 1.0, "tieStart": false, "tieEnd": false, "tieGroup": 0}, {"pitch": 52, "vel": 93, "dur": 1.0, "tieStart": false, "tieEnd": false, "tieGroup": 0}, {"pitch": 64, "vel": 89, "dur": 1.0, "tieStart": false, "tieEnd": false, "tieGroup": 0}]}, {"start": 1.0, "dur": 0.5, "rest": false, "notes": [{"pitch": 43, "vel": 113, "dur": 0.5, "tieStart": false, "tieEnd": false, "tieGroup": 0}, {"pitch": 47, "vel": 109, "dur": 0.5, "tieStart": false, "tieEnd": false, "tieGroup": 0}, {"pitch": 50, "vel": 105, "dur": 0.5, "tieStart": false, "tieEnd": false, "tieGroup": 0}, {"pitch": 52, "vel": 101, "dur": 0.5, "tieStart": false, "tieEnd": false, "tieGroup": 0}, {"pitch": 64, "vel": 97, "dur": 0.5, "tieStart": false, "tieEnd": false, "tieGroup": 0}]}, {"start": 1.5, "dur": 0.5, "rest": false, "notes": [{"pitch": 43, "vel": 113, "dur": 0.5, "tieStart": false, "tieEnd": false, "tieGroup": 0}, {"pitch": 47, "vel": 109, "dur": 0.5, "tieStart": false, "tieEnd": false, "tieGroup": 0}, {"pitch": 50, "vel": 105, "dur": 0.5, "tieStart": false, "tieEnd": false, "tieGroup": 0}, {"pitch": 52, "vel": 101, "dur": 0.5, "tieStart": false, "tieEnd": false, "tieGroup": 0}, {"pitch": 64, "vel": 97, "dur": 0.5, "tieStart": false, "tieEnd": false, "tieGroup": 0}]}, {"start": 2.0, "dur": 2.0, "rest": false, "notes": [{"pitch": 62, "vel": 114, "dur": 2.0, "tieStart": false, "tieEnd": false, "tieGroup": 0}, {"pitch": 64, "vel": 110, "dur": 2.0, "tieStart": false, "tieEnd": false, "tieGroup": 0}, {"pitch": 67, "vel": 106, "dur": 2.0, "tieStart": false, "tieEnd": false, "tieGroup": 0}, {"pitch": 71, "vel": 102, "dur": 2.0, "tieStart": false, "tieEnd": false, "tieGroup": 0}]}]}, {"ts_num": 4, "ts_den": 4, "key_fifths": 1, "key_mode": 0, "clef": 0, "tempo": 136, "velocity": 104, "lyrics": "", "expr": [], "segs": [{"start": 0.0, "dur": 0.5, "rest": false, "notes": [{"pitch": 59, "vel": 114, "dur": 0.5, "tieStart": false, "tieEnd": false, "tieGroup": 0}, {"pitch": 64, "vel": 110, "dur": 0.5, "tieStart": false, "tieEnd": false, "tieGroup": 0}]}, {"start": 0.5, "dur": 0.5, "rest": false, "notes": [{"pitch": 43, "vel": 114, "dur": 0.5, "tieStart": false, "tieEnd": false, "tieGroup": 0}, {"pitch": 76, "vel": 110, "dur": 0.5, "tieStart": false, "tieEnd": false, "tieGroup": 0}]}, {"start": 1.0, "dur": 0.5, "rest": false, "notes": [{"pitch": 64, "vel": 114, "dur": 0.5, "tieStart": false, "tieEnd": false, "tieGroup": 0}]}, {"start": 1.5, "dur": 0.5, "rest": false, "notes": [{"pitch": 64, "vel": 114, "dur": 0.5, "tieStart": false, "tieEnd": false, "tieGroup": 0}]}, {"start": 2.0, "dur": 1.0, "rest": false, "notes": [{"pitch": 67, "vel": 114, "dur": 1.0, "tieStart": false, "tieEnd": false, "tieGroup": 0}]}, {"start": 3.0, "dur": 0.5, "rest": false, "notes": [{"pitch": 43, "vel": 114, "dur": 0.5, "tieStart": false, "tieEnd": false, "tieGroup": 0}]}, {"start": 3.5, "dur": 0.5, "rest": false, "notes": [{"pitch": 64, "vel": 114, "dur": 0.5, "tieStart": false, "tieEnd": false, "tieGroup": 0}, {"pitch": 76, "vel": 110, "dur": 0.5, "tieStart": false, "tieEnd": false, "tieGroup": 0}]}]}, {"ts_num": 4, "ts_den": 4, "key_fifths": 1, "key_mode": 0, "clef": 0, "tempo": 136, "velocity": 104, "lyrics": "", "expr": [], "segs": [{"start": 0.0, "dur": 1.0, "rest": false, "notes": [{"pitch": 62, "vel": 114, "dur": 1.0, "tieStart": false, "tieEnd": false, "tieGroup": 0}, {"pitch": 64, "vel": 110, "dur": 1.0, "tieStart": false, "tieEnd": false, "tieGroup": 0}]}, {"start": 1.0, "dur": 0.5, "rest": false, "notes": [{"pitch": 59, "vel": 114, "dur": 0.5, "tieStart": false, "tieEnd": false, "tieGroup": 0}]}, {"start": 1.5, "dur": 0.5, "rest": false, "notes": [{"pitch": 62, "vel": 114, "dur": 0.5, "tieStart": false, "tieEnd": false, "tieGroup": 0}, {"pitch": 76, "vel": 110, "dur": 0.5, "tieStart": false, "tieEnd": false, "tieGroup": 0}]}, {"start": 2.0, "dur": 0.5, "rest": false, "notes": [{"pitch": 67, "vel": 114, "dur": 0.5, "tieStart": false, "tieEnd": false, "tieGroup": 0}]}, {"start": 2.5, "dur": 1.0, "rest": false, "notes": [{"pitch": 71, "vel": 114, "dur": 1.0, "tieStart": false, "tieEnd": false, "tieGroup": 0}]}, {"start": 3.5, "dur": 0.5, "rest": false, "notes": [{"pitch": 59, "vel": 114, "dur": 0.5, "tieStart": false, "tieEnd": false, "tieGroup": 0}]}]}, {"ts_num": 4, "ts_den": 4, "key_fifths": 1, "key_mode": 0, "clef": 0, "tempo": 136, "velocity": 104, "lyrics": "", "expr": [], "segs": [{"start": 0.0, "dur": 0.5, "rest": false, "notes": [{"pitch": 60, "vel": 114, "dur": 0.5, "tieStart": false, "tieEnd": false, "tieGroup": 0}, {"pitch": 64, "vel": 110, "dur": 0.5, "tieStart": false, "tieEnd": false, "tieGroup": 0}, {"pitch": 67, "vel": 106, "dur": 0.5, "tieStart": false, "tieEnd": false, "tieGroup": 0}, {"pitch": 71, "vel": 102, "dur": 0.5, "tieStart": false, "tieEnd": false, "tieGroup": 0}, {"pitch": 72, "vel": 98, "dur": 0.5, "tieStart": false, "tieEnd": false, "tieGroup": 0}]}, {"start": 0.5, "dur": 0.5, "rest": false, "notes": [{"pitch": 60, "vel": 114, "dur": 0.5, "tieStart": false, "tieEnd": false, "tieGroup": 0}, {"pitch": 67, "vel": 110, "dur": 0.5, "tieStart": false, "tieEnd": false, "tieGroup": 0}, {"pitch": 69, "vel": 106, "dur": 0.5, "tieStart": false, "tieEnd": false, "tieGroup": 0}, {"pitch": 72, "vel": 102, "dur": 0.5, "tieStart": false, "tieEnd": false, "tieGroup": 0}, {"pitch": 76, "vel": 98, "dur": 0.5, "tieStart": false, "tieEnd": false, "tieGroup": 0}]}, {"start": 1.0, "dur": 0.5, "rest": false, "notes": [{"pitch": 60, "vel": 114, "dur": 0.5, "tieStart": false, "tieEnd": false, "tieGroup": 0}, {"pitch": 67, "vel": 110, "dur": 0.5, "tieStart": false, "tieEnd": false, "tieGroup": 0}, {"pitch": 71, "vel": 106, "dur": 0.5, "tieStart": false, "tieEnd": false, "tieGroup": 0}, {"pitch": 72, "vel": 102, "dur": 0.5, "tieStart": false, "tieEnd": false, "tieGroup": 0}, {"pitch": 76, "vel": 98, "dur": 0.5, "tieStart": false, "tieEnd": false, "tieGroup": 0}]}, {"start": 1.5, "dur": 2.5, "rest": false, "notes": [{"pitch": 60, "vel": 114, "dur": 2.5, "tieStart": false, "tieEnd": false, "tieGroup": 0}, {"pitch": 72, "vel": 110, "dur": 2.5, "tieStart": false, "tieEnd": false, "tieGroup": 0}, {"pitch": 76, "vel": 106, "dur": 2.5, "tieStart": false, "tieEnd": false, "tieGroup": 0}, {"pitch": 79, "vel": 102, "dur": 2.5, "tieStart": false, "tieEnd": false, "tieGroup": 0}, {"pitch": 81, "vel": 98, "dur": 2.5, "tieStart": false, "tieEnd": false, "tieGroup": 0}]}]}, {"ts_num": 4, "ts_den": 4, "key_fifths": 1, "key_mode": 0, "clef": 0, "tempo": 136, "velocity": 104, "lyrics": "", "expr": [], "segs": [{"start": 0.0, "dur": 0.5, "rest": false, "notes": [{"pitch": 59, "vel": 114, "dur": 0.5, "tieStart": false, "tieEnd": false, "tieGroup": 0}, {"pitch": 62, "vel": 110, "dur": 0.5, "tieStart": false, "tieEnd": false, "tieGroup": 0}, {"pitch": 64, "vel": 106, "dur": 0.5, "tieStart": false, "tieEnd": false, "tieGroup": 0}, {"pitch": 67, "vel": 102, "dur": 0.5, "tieStart": false, "tieEnd": false, "tieGroup": 0}]}, {"start": 0.5, "dur": 0.5, "rest": false, "notes": [{"pitch": 59, "vel": 114, "dur": 0.5, "tieStart": false, "tieEnd": false, "tieGroup": 0}, {"pitch": 62, "vel": 110, "dur": 0.5, "tieStart": false, "tieEnd": false, "tieGroup": 0}, {"pitch": 64, "vel": 106, "dur": 0.5, "tieStart": false, "tieEnd": false, "tieGroup": 0}, {"pitch": 67, "vel": 102, "dur": 0.5, "tieStart": false, "tieEnd": false, "tieGroup": 0}]}, {"start": 1.0, "dur": 0.5, "rest": false, "notes": [{"pitch": 62, "vel": 114, "dur": 0.5, "tieStart": false, "tieEnd": false, "tieGroup": 0}, {"pitch": 64, "vel": 110, "dur": 0.5, "tieStart": false, "tieEnd": false, "tieGroup": 0}, {"pitch": 67, "vel": 106, "dur": 0.5, "tieStart": false, "tieEnd": false, "tieGroup": 0}, {"pitch": 71, "vel": 102, "dur": 0.5, "tieStart": false, "tieEnd": false, "tieGroup": 0}]}, {"start": 1.5, "dur": 2.5, "rest": false, "notes": [{"pitch": 59, "vel": 114, "dur": 2.5, "tieStart": false, "tieEnd": false, "tieGroup": 0}, {"pitch": 62, "vel": 110, "dur": 2.5, "tieStart": false, "tieEnd": false, "tieGroup": 0}, {"pitch": 64, "vel": 106, "dur": 2.5, "tieStart": false, "tieEnd": false, "tieGroup": 0}, {"pitch": 67, "vel": 102, "dur": 2.5, "tieStart": false, "tieEnd": false, "tieGroup": 0}]}]}, {"ts_num": 4, "ts_den": 4, "key_fifths": 1, "key_mode": 0, "clef": 0, "tempo": 120, "velocity": 100, "lyrics": "", "expr": [], "segs": [{"start": 0.0, "dur": 1.0, "rest": false, "notes": [{"pitch": 57, "vel": 105, "dur": 1.0, "tieStart": false, "tieEnd": false, "tieGroup": 0}, {"pitch": 72, "vel": 101, "dur": 1.0, "tieStart": false, "tieEnd": false, "tieGroup": 0}]}, {"start": 1.0, "dur": 0.5, "rest": false, "notes": [{"pitch": 72, "vel": 114, "dur": 0.5, "tieStart": false, "tieEnd": false, "tieGroup": 0}]}, {"start": 1.5, "dur": 0.5, "rest": false, "notes": [{"pitch": 59, "vel": 114, "dur": 0.5, "tieStart": false, "tieEnd": false, "tieGroup": 0}]}, {"start": 2.0, "dur": 0.5, "rest": false, "notes": [{"pitch": 81, "vel": 114, "dur": 0.5, "tieStart": false, "tieEnd": false, "tieGroup": 0}]}, {"start": 2.5, "dur": 1.0, "rest": false, "notes": [{"pitch": 72, "vel": 105, "dur": 1.0, "tieStart": false, "tieEnd": false, "tieGroup": 0}]}, {"start": 3.5, "dur": 0.5, "rest": false, "notes": [{"pitch": 69, "vel": 114, "dur": 0.5, "tieStart": false, "tieEnd": false, "tieGroup": 0}, {"pitch": 76, "vel": 110, "dur": 0.5, "tieStart": false, "tieEnd": false, "tieGroup": 0}]}]}, {"ts_num": 4, "ts_den": 4, "key_fifths": 1, "key_mode": 0, "clef": 0, "tempo": 120, "velocity": 100, "lyrics": "", "expr": [], "segs": [{"start": 0.0, "dur": 0.5, "rest": false, "notes": [{"pitch": 43, "vel": 94, "dur": 0.5, "tieStart": false, "tieEnd": false, "tieGroup": 0}]}, {"start": 0.5, "dur": 0.5, "rest": false, "notes": [{"pitch": 50, "vel": 94, "dur": 0.5, "tieStart": false, "tieEnd": false, "tieGroup": 0}]}, {"start": 1.0, "dur": 0.5, "rest": true, "notes": []}, {"start": 1.5, "dur": 0.5, "rest": false, "notes": [{"pitch": 59, "vel": 94, "dur": 0.5, "tieStart": false, "tieEnd": false, "tieGroup": 15}]}, {"start": 2.0, "dur": 0.5, "rest": false, "notes": [{"pitch": 43, "vel": 94, "dur": 0.5, "tieStart": false, "tieEnd": false, "tieGroup": 0}]}, {"start": 2.5, "dur": 0.5, "rest": false, "notes": [{"pitch": 50, "vel": 94, "dur": 0.5, "tieStart": false, "tieEnd": false, "tieGroup": 0}]}, {"start": 3.0, "dur": 0.5, "rest": true, "notes": []}, {"start": 3.5, "dur": 0.5, "rest": false, "notes": [{"pitch": 59, "vel": 94, "dur": 0.5, "tieStart": false, "tieEnd": false, "tieGroup": 16}]}]}, {"ts_num": 4, "ts_den": 4, "key_fifths": 1, "key_mode": 0, "clef": 0, "tempo": 120, "velocity": 100, "lyrics": "", "expr": [], "segs": [{"start": 0.0, "dur": 4.0, "rest": true, "notes": []}]}, {"ts_num": 4, "ts_den": 4, "key_fifths": 1, "key_mode": 0, "clef": 0, "tempo": 120, "velocity": 100, "lyrics": "", "expr": [], "segs": [{"start": 0.0, "dur": 4.0, "rest": true, "notes": []}]}]}, {"name": "Puppy Drums", "instrument": {"name": "Standard Drum Kit", "bankMSB": 0, "bankLSB": 0, "program": 0, "channelHint": -1, "percussion": true, "volume": 94, "pan": 64, "transpose": 0}, "measures": [{"ts_num": 4, "ts_den": 4, "key_fifths": 0, "key_mode": 0, "clef": 1, "tempo": 120, "velocity": 100, "lyrics": "", "expr": [], "segs": [{"start": 0.0, "dur": 0.5, "rest": false, "notes": [{"pitch": 36, "vel": 100, "dur": 0.5, "tieStart": false, "tieEnd": false, "tieGroup": 0}, {"pitch": 42, "vel": 72, "dur": 0.5, "tieStart": false, "tieEnd": false, "tieGroup": 0}]}, {"start": 0.5, "dur": 0.5, "rest": false, "notes": [{"pitch": 42, "vel": 58, "dur": 0.5, "tieStart": false, "tieEnd": false, "tieGroup": 0}]}, {"start": 1.0, "dur": 0.5, "rest": false, "notes": [{"pitch": 38, "vel": 96, "dur": 0.5, "tieStart": false, "tieEnd": false, "tieGroup": 0}, {"pitch": 42, "vel": 72, "dur": 0.5, "tieStart": false, "tieEnd": false, "tieGroup": 0}]}, {"start": 1.5, "dur": 0.5, "rest": false, "notes": [{"pitch": 36, "vel": 100, "dur": 0.5, "tieStart": false, "tieEnd": false, "tieGroup": 0}, {"pitch": 42, "vel": 58, "dur": 0.5, "tieStart": false, "tieEnd": false, "tieGroup": 0}]}, {"start": 2.0, "dur": 0.5, "rest": false, "notes": [{"pitch": 36, "vel": 100, "dur": 0.5, "tieStart": false, "tieEnd": false, "tieGroup": 0}, {"pitch": 42, "vel": 72, "dur": 0.5, "tieStart": false, "tieEnd": false, "tieGroup": 0}]}, {"start": 2.5, "dur": 0.5, "rest": false, "notes": [{"pitch": 42, "vel": 58, "dur": 0.5, "tieStart": false, "tieEnd": false, "tieGroup": 0}]}, {"start": 3.0, "dur": 0.5, "rest": false, "notes": [{"pitch": 38, "vel": 96, "dur": 0.5, "tieStart": false, "tieEnd": false, "tieGroup": 0}, {"pitch": 42, "vel": 72, "dur": 0.5, "tieStart": false, "tieEnd": false, "tieGroup": 0}]}, {"start": 3.5, "dur": 0.5, "rest": false, "notes": [{"pitch": 42, "vel": 58, "dur": 0.5, "tieStart": false, "tieEnd": false, "tieGroup": 0}]}]}, {"ts_num": 4, "ts_den": 4, "key_fifths": 0, "key_mode": 0, "clef": 1, "tempo": 120, "velocity": 100, "lyrics": "", "expr": [], "segs": [{"start": 0.0, "dur": 0.5, "rest": false, "notes": [{"pitch": 36, "vel": 100, "dur": 0.5, "tieStart": false, "tieEnd": false, "tieGroup": 0}, {"pitch": 42, "vel": 72, "dur": 0.5, "tieStart": false, "tieEnd": false, "tieGroup": 0}]}, {"start": 0.5, "dur": 0.5, "rest": false, "notes": [{"pitch": 42, "vel": 58, "dur": 0.5, "tieStart": false, "tieEnd": false, "tieGroup": 0}]}, {"start": 1.0, "dur": 0.5, "rest": false, "notes": [{"pitch": 38, "vel": 96, "dur": 0.5, "tieStart": false, "tieEnd": false, "tieGroup": 0}, {"pitch": 42, "vel": 72, "dur": 0.5, "tieStart": false, "tieEnd": false, "tieGroup": 0}]}, {"start": 1.5, "dur": 0.5, "rest": false, "notes": [{"pitch": 36, "vel": 100, "dur": 0.5, "tieStart": false, "tieEnd": false, "tieGroup": 0}, {"pitch": 42, "vel": 58, "dur": 0.5, "tieStart": false, "tieEnd": false, "tieGroup": 0}]}, {"start": 2.0, "dur": 0.5, "rest": false, "notes": [{"pitch": 36, "vel": 100, "dur": 0.5, "tieStart": false, "tieEnd": false, "tieGroup": 0}, {"pitch": 42, "vel": 72, "dur": 0.5, "tieStart": false, "tieEnd": false, "tieGroup": 0}]}, {"start": 2.5, "dur": 0.5, "rest": false, "notes": [{"pitch": 42, "vel": 58, "dur": 0.5, "tieStart": false, "tieEnd": false, "tieGroup": 0}]}, {"start": 3.0, "dur": 0.5, "rest": false, "notes": [{"pitch": 38, "vel": 96, "dur": 0.5, "tieStart": false, "tieEnd": false, "tieGroup": 0}, {"pitch": 42, "vel": 72, "dur": 0.5, "tieStart": false, "tieEnd": false, "tieGroup": 0}]}, {"start": 3.5, "dur": 0.5, "rest": false, "notes": [{"pitch": 42, "vel": 58, "dur": 0.5, "tieStart": false, "tieEnd": false, "tieGroup": 0}]}]}, {"ts_num": 4, "ts_den": 4, "key_fifths": 0, "key_mode": 0, "clef": 1, "tempo": 120, "velocity": 100, "lyrics": "", "expr": [], "segs": [{"start": 0.0, "dur": 0.5, "rest": false, "notes": [{"pitch": 36, "vel": 100, "dur": 0.5, "tieStart": false, "tieEnd": false, "tieGroup": 0}, {"pitch": 42, "vel": 72, "dur": 0.5, "tieStart": false, "tieEnd": false, "tieGroup": 0}]}, {"start": 0.5, "dur": 0.5, "rest": false, "notes": [{"pitch": 42, "vel": 58, "dur": 0.5, "tieStart": false, "tieEnd": false, "tieGroup": 0}]}, {"start": 1.0, "dur": 0.5, "rest": false, "notes": [{"pitch": 38, "vel": 96, "dur": 0.5, "tieStart": false, "tieEnd": false, "tieGroup": 0}, {"pitch": 42, "vel": 72, "dur": 0.5, "tieStart": false, "tieEnd": false, "tieGroup": 0}]}, {"start": 1.5, "dur": 0.5, "rest": false, "notes": [{"pitch": 36, "vel": 100, "dur": 0.5, "tieStart": false, "tieEnd": false, "tieGroup": 0}, {"pitch": 42, "vel": 58, "dur": 0.5, "tieStart": false, "tieEnd": false, "tieGroup": 0}]}, {"start": 2.0, "dur": 0.5, "rest": false, "notes": [{"pitch": 36, "vel": 100, "dur": 0.5, "tieStart": false, "tieEnd": false, "tieGroup": 0}, {"pitch": 42, "vel": 72, "dur": 0.5, "tieStart": false, "tieEnd": false, "tieGroup": 0}]}, {"start": 2.5, "dur": 0.5, "rest": false, "notes": [{"pitch": 42, "vel": 58, "dur": 0.5, "tieStart": false, "tieEnd": false, "tieGroup": 0}]}, {"start": 3.0, "dur": 0.5, "rest": false, "notes": [{"pitch": 38, "vel": 96, "dur": 0.5, "tieStart": false, "tieEnd": false, "tieGroup": 0}, {"pitch": 42, "vel": 72, "dur": 0.5, "tieStart": false, "tieEnd": false, "tieGroup": 0}]}, {"start": 3.5, "dur": 0.5, "rest": false, "notes": [{"pitch": 42, "vel": 58, "dur": 0.5, "tieStart": false, "tieEnd": false, "tieGroup": 0}]}]}, {"ts_num": 4, "ts_den": 4, "key_fifths": 0, "key_mode": 0, "clef": 1, "tempo": 120, "velocity": 100, "lyrics": "", "expr": [], "segs": [{"start": 0.0, "dur": 0.5, "rest": false, "notes": [{"pitch": 36, "vel": 100, "dur": 0.5, "tieStart": false, "tieEnd": false, "tieGroup": 0}, {"pitch": 42, "vel": 72, "dur": 0.5, "tieStart": false, "tieEnd": false, "tieGroup": 0}]}, {"start": 0.5, "dur": 0.5, "rest": false, "notes": [{"pitch": 42, "vel": 58, "dur": 0.5, "tieStart": false, "tieEnd": false, "tieGroup": 0}]}, {"start": 1.0, "dur": 0.5, "rest": false, "notes": [{"pitch": 38, "vel": 96, "dur": 0.5, "tieStart": false, "tieEnd": false, "tieGroup": 0}, {"pitch": 42, "vel": 72, "dur": 0.5, "tieStart": false, "tieEnd": false, "tieGroup": 0}]}, {"start": 1.5, "dur": 0.5, "rest": false, "notes": [{"pitch": 36, "vel": 100, "dur": 0.5, "tieStart": false, "tieEnd": false, "tieGroup": 0}, {"pitch": 42, "vel": 58, "dur": 0.5, "tieStart": false, "tieEnd": false, "tieGroup": 0}]}, {"start": 2.0, "dur": 0.5, "rest": false, "notes": [{"pitch": 36, "vel": 100, "dur": 0.5, "tieStart": false, "tieEnd": false, "tieGroup": 0}, {"pitch": 42, "vel": 72, "dur": 0.5, "tieStart": false, "tieEnd": false, "tieGroup": 0}]}, {"start": 2.5, "dur": 0.5, "rest": false, "notes": [{"pitch": 42, "vel": 58, "dur": 0.5, "tieStart": false, "tieEnd": false, "tieGroup": 0}]}, {"start": 3.0, "dur": 0.5, "rest": false, "notes": [{"pitch": 38, "vel": 96, "dur": 0.5, "tieStart": false, "tieEnd": false, "tieGroup": 0}, {"pitch": 42, "vel": 72, "dur": 0.5, "tieStart": false, "tieEnd": false, "tieGroup": 0}]}, {"start": 3.5, "dur": 0.5, "rest": false, "notes": [{"pitch": 36, "vel": 96, "dur": 0.5, "tieStart": false, "tieEnd": false, "tieGroup": 0}, {"pitch": 42, "vel": 58, "dur": 0.5, "tieStart": false, "tieEnd": false, "tieGroup": 0}]}]}, {"ts_num": 4, "ts_den": 4, "key_fifths": 0, "key_mode": 0, "clef": 1, "tempo": 120, "velocity": 100, "lyrics": "", "expr": [], "segs": [{"start": 0.0, "dur": 0.5, "rest": false, "notes": [{"pitch": 36, "vel": 100, "dur": 0.5, "tieStart": false, "tieEnd": false, "tieGroup": 0}, {"pitch": 42, "vel": 72, "dur": 0.5, "tieStart": false, "tieEnd": false, "tieGroup": 0}]}, {"start": 0.5, "dur": 0.5, "rest": false, "notes": [{"pitch": 42, "vel": 58, "dur": 0.5, "tieStart": false, "tieEnd": false, "tieGroup": 0}]}, {"start": 1.0, "dur": 0.5, "rest": false, "notes": [{"pitch": 38, "vel": 96, "dur": 0.5, "tieStart": false, "tieEnd": false, "tieGroup": 0}, {"pitch": 42, "vel": 72, "dur": 0.5, "tieStart": false, "tieEnd": false, "tieGroup": 0}]}, {"start": 1.5, "dur": 0.5, "rest": false, "notes": [{"pitch": 36, "vel": 100, "dur": 0.5, "tieStart": false, "tieEnd": false, "tieGroup": 0}, {"pitch": 42, "vel": 58, "dur": 0.5, "tieStart": false, "tieEnd": false, "tieGroup": 0}]}, {"start": 2.0, "dur": 0.5, "rest": false, "notes": [{"pitch": 36, "vel": 100, "dur": 0.5, "tieStart": false, "tieEnd": false, "tieGroup": 0}, {"pitch": 42, "vel": 72, "dur": 0.5, "tieStart": false, "tieEnd": false, "tieGroup": 0}]}, {"start": 2.5, "dur": 0.5, "rest": false, "notes": [{"pitch": 42, "vel": 58, "dur": 0.5, "tieStart": false, "tieEnd": false, "tieGroup": 0}]}, {"start": 3.0, "dur": 0.5, "rest": false, "notes": [{"pitch": 38, "vel": 96, "dur": 0.5, "tieStart": false, "tieEnd": false, "tieGroup": 0}, {"pitch": 42, "vel": 72, "dur": 0.5, "tieStart": false, "tieEnd": false, "tieGroup": 0}]}, {"start": 3.5, "dur": 0.5, "rest": false, "notes": [{"pitch": 42, "vel": 58, "dur": 0.5, "tieStart": false, "tieEnd": false, "tieGroup": 0}]}]}, {"ts_num": 4, "ts_den": 4, "key_fifths": 0, "key_mode": 0, "clef": 1, "tempo": 120, "velocity": 100, "lyrics": "", "expr": [], "segs": [{"start": 0.0, "dur": 0.5, "rest": false, "notes": [{"pitch": 36, "vel": 100, "dur": 0.5, "tieStart": false, "tieEnd": false, "tieGroup": 0}, {"pitch": 42, "vel": 72, "dur": 0.5, "tieStart": false, "tieEnd": false, "tieGroup": 0}]}, {"start": 0.5, "dur": 0.5, "rest": false, "notes": [{"pitch": 42, "vel": 58, "dur": 0.5, "tieStart": false, "tieEnd": false, "tieGroup": 0}]}, {"start": 1.0, "dur": 0.5, "rest": false, "notes": [{"pitch": 38, "vel": 96, "dur": 0.5, "tieStart": false, "tieEnd": false, "tieGroup": 0}, {"pitch": 42, "vel": 72, "dur": 0.5, "tieStart": false, "tieEnd": false, "tieGroup": 0}]}, {"start": 1.5, "dur": 0.5, "rest": false, "notes": [{"pitch": 36, "vel": 100, "dur": 0.5, "tieStart": false, "tieEnd": false, "tieGroup": 0}, {"pitch": 42, "vel": 58, "dur": 0.5, "tieStart": false, "tieEnd": false, "tieGroup": 0}]}, {"start": 2.0, "dur": 0.5, "rest": false, "notes": [{"pitch": 36, "vel": 100, "dur": 0.5, "tieStart": false, "tieEnd": false, "tieGroup": 0}, {"pitch": 42, "vel": 72, "dur": 0.5, "tieStart": false, "tieEnd": false, "tieGroup": 0}]}, {"start": 2.5, "dur": 0.5, "rest": false, "notes": [{"pitch": 42, "vel": 58, "dur": 0.5, "tieStart": false, "tieEnd": false, "tieGroup": 0}]}, {"start": 3.0, "dur": 0.5, "rest": false, "notes": [{"pitch": 38, "vel": 96, "dur": 0.5, "tieStart": false, "tieEnd": false, "tieGroup": 0}, {"pitch": 42, "vel": 72, "dur": 0.5, "tieStart": false, "tieEnd": false, "tieGroup": 0}]}, {"start": 3.5, "dur": 0.5, "rest": false, "notes": [{"pitch": 42, "vel": 58, "dur": 0.5, "tieStart": false, "tieEnd": false, "tieGroup": 0}]}]}, {"ts_num": 4, "ts_den": 4, "key_fifths": 0, "key_mode": 0, "clef": 1, "tempo": 120, "velocity": 100, "lyrics": "", "expr": [], "segs": [{"start": 0.0, "dur": 0.5, "rest": false, "notes": [{"pitch": 36, "vel": 100, "dur": 0.5, "tieStart": false, "tieEnd": false, "tieGroup": 0}, {"pitch": 42, "vel": 72, "dur": 0.5, "tieStart": false, "tieEnd": false, "tieGroup": 0}]}, {"start": 0.5, "dur": 0.5, "rest": false, "notes": [{"pitch": 42, "vel": 58, "dur": 0.5, "tieStart": false, "tieEnd": false, "tieGroup": 0}]}, {"start": 1.0, "dur": 0.5, "rest": false, "notes": [{"pitch": 38, "vel": 96, "dur": 0.5, "tieStart": false, "tieEnd": false, "tieGroup": 0}, {"pitch": 42, "vel": 72, "dur": 0.5, "tieStart": false, "tieEnd": false, "tieGroup": 0}]}, {"start": 1.5, "dur": 0.5, "rest": false, "notes": [{"pitch": 36, "vel": 100, "dur": 0.5, "tieStart": false, "tieEnd": false, "tieGroup": 0}, {"pitch": 42, "vel": 58, "dur": 0.5, "tieStart": false, "tieEnd": false, "tieGroup": 0}]}, {"start": 2.0, "dur": 0.5, "rest": false, "notes": [{"pitch": 36, "vel": 100, "dur": 0.5, "tieStart": false, "tieEnd": false, "tieGroup": 0}, {"pitch": 42, "vel": 72, "dur": 0.5, "tieStart": false, "tieEnd": false, "tieGroup": 0}]}, {"start": 2.5, "dur": 0.5, "rest": false, "notes": [{"pitch": 42, "vel": 58, "dur": 0.5, "tieStart": false, "tieEnd": false, "tieGroup": 0}]}, {"start": 3.0, "dur": 0.5, "rest": false, "notes": [{"pitch": 38, "vel": 96, "dur": 0.5, "tieStart": false, "tieEnd": false, "tieGroup": 0}, {"pitch": 42, "vel": 72, "dur": 0.5, "tieStart": false, "tieEnd": false, "tieGroup": 0}]}, {"start": 3.5, "dur": 0.5, "rest": false, "notes": [{"pitch": 42, "vel": 58, "dur": 0.5, "tieStart": false, "tieEnd": false, "tieGroup": 0}]}]}, {"ts_num": 4, "ts_den": 4, "key_fifths": 0, "key_mode": 0, "clef": 1, "tempo": 120, "velocity": 100, "lyrics": "", "expr": [], "segs": [{"start": 0.0, "dur": 0.5, "rest": false, "notes": [{"pitch": 36, "vel": 100, "dur": 0.5, "tieStart": false, "tieEnd": false, "tieGroup": 0}, {"pitch": 42, "vel": 72, "dur": 0.5, "tieStart": false, "tieEnd": false, "tieGroup": 0}]}, {"start": 0.5, "dur": 0.5, "rest": false, "notes": [{"pitch": 42, "vel": 58, "dur": 0.5, "tieStart": false, "tieEnd": false, "tieGroup": 0}]}, {"start": 1.0, "dur": 0.5, "rest": false, "notes": [{"pitch": 38, "vel": 96, "dur": 0.5, "tieStart": false, "tieEnd": false, "tieGroup": 0}, {"pitch": 42, "vel": 72, "dur": 0.5, "tieStart": false, "tieEnd": false, "tieGroup": 0}]}, {"start": 1.5, "dur": 0.5, "rest": false, "notes": [{"pitch": 36, "vel": 100, "dur": 0.5, "tieStart": false, "tieEnd": false, "tieGroup": 0}, {"pitch": 42, "vel": 58, "dur": 0.5, "tieStart": false, "tieEnd": false, "tieGroup": 0}]}, {"start": 2.0, "dur": 0.5, "rest": false, "notes": [{"pitch": 36, "vel": 100, "dur": 0.5, "tieStart": false, "tieEnd": false, "tieGroup": 0}, {"pitch": 42, "vel": 80, "dur": 0.5, "tieStart": false, "tieEnd": false, "tieGroup": 0}]}, {"start": 2.5, "dur": 0.5, "rest": false, "notes": [{"pitch": 42, "vel": 66, "dur": 0.5, "tieStart": false, "tieEnd": false, "tieGroup": 0}, {"pitch": 46, "vel": 78, "dur": 0.5, "tieStart": false, "tieEnd": false, "tieGroup": 0}]}, {"start": 3.0, "dur": 0.5, "rest": false, "notes": [{"pitch": 38, "vel": 96, "dur": 0.5, "tieStart": false, "tieEnd": false, "tieGroup": 0}, {"pitch": 42, "vel": 80, "dur": 0.5, "tieStart": false, "tieEnd": false, "tieGroup": 0}, {"pitch": 45, "vel": 84, "dur": 0.5, "tieStart": false, "tieEnd": false, "tieGroup": 0}]}, {"start": 3.5, "dur": 0.5, "rest": false, "notes": [{"pitch": 36, "vel": 96, "dur": 0.5, "tieStart": false, "tieEnd": false, "tieGroup": 0}, {"pitch": 42, "vel": 66, "dur": 0.5, "tieStart": false, "tieEnd": false, "tieGroup": 0}, {"pitch": 43, "vel": 88, "dur": 0.5, "tieStart": false, "tieEnd": false, "tieGroup": 0}]}]}, {"ts_num": 4, "ts_den": 4, "key_fifths": 0, "key_mode": 0, "clef": 1, "tempo": 120, "velocity": 100, "lyrics": "", "expr": [], "segs": [{"start": 0.0, "dur": 0.5, "rest": false, "notes": [{"pitch": 36, "vel": 100, "dur": 0.5, "tieStart": false, "tieEnd": false, "tieGroup": 0}, {"pitch": 42, "vel": 72, "dur": 0.5, "tieStart": false, "tieEnd": false, "tieGroup": 0}]}, {"start": 0.5, "dur": 0.5, "rest": false, "notes": [{"pitch": 42, "vel": 58, "dur": 0.5, "tieStart": false, "tieEnd": false, "tieGroup": 0}]}, {"start": 1.0, "dur": 0.5, "rest": false, "notes": [{"pitch": 38, "vel": 96, "dur": 0.5, "tieStart": false, "tieEnd": false, "tieGroup": 0}, {"pitch": 42, "vel": 72, "dur": 0.5, "tieStart": false, "tieEnd": false, "tieGroup": 0}]}, {"start": 1.5, "dur": 0.5, "rest": false, "notes": [{"pitch": 36, "vel": 100, "dur": 0.5, "tieStart": false, "tieEnd": false, "tieGroup": 0}, {"pitch": 42, "vel": 58, "dur": 0.5, "tieStart": false, "tieEnd": false, "tieGroup": 0}]}, {"start": 2.0, "dur": 0.5, "rest": false, "notes": [{"pitch": 36, "vel": 100, "dur": 0.5, "tieStart": false, "tieEnd": false, "tieGroup": 0}, {"pitch": 42, "vel": 72, "dur": 0.5, "tieStart": false, "tieEnd": false, "tieGroup": 0}]}, {"start": 2.5, "dur": 0.5, "rest": false, "notes": [{"pitch": 42, "vel": 58, "dur": 0.5, "tieStart": false, "tieEnd": false, "tieGroup": 0}]}, {"start": 3.0, "dur": 0.5, "rest": false, "notes": [{"pitch": 38, "vel": 96, "dur": 0.5, "tieStart": false, "tieEnd": false, "tieGroup": 0}, {"pitch": 42, "vel": 72, "dur": 0.5, "tieStart": false, "tieEnd": false, "tieGroup": 0}]}, {"start": 3.5, "dur": 0.5, "rest": false, "notes": [{"pitch": 42, "vel": 58, "dur": 0.5, "tieStart": false, "tieEnd": false, "tieGroup": 0}]}]}, {"ts_num": 4, "ts_den": 4, "key_fifths": 0, "key_mode": 0, "clef": 1, "tempo": 120, "velocity": 100, "lyrics": "", "expr": [], "segs": [{"start": 0.0, "dur": 0.5, "rest": false, "notes": [{"pitch": 36, "vel": 100, "dur": 0.5, "tieStart": false, "tieEnd": false, "tieGroup": 0}, {"pitch": 42, "vel": 72, "dur": 0.5, "tieStart": false, "tieEnd": false, "tieGroup": 0}]}, {"start": 0.5, "dur": 0.5, "rest": false, "notes": [{"pitch": 42, "vel": 58, "dur": 0.5, "tieStart": false, "tieEnd": false, "tieGroup": 0}]}, {"start": 1.0, "dur": 0.5, "rest": false, "notes": [{"pitch": 38, "vel": 96, "dur": 0.5, "tieStart": false, "tieEnd": false, "tieGroup": 0}, {"pitch": 42, "vel": 72, "dur": 0.5, "tieStart": false, "tieEnd": false, "tieGroup": 0}]}, {"start": 1.5, "dur": 0.5, "rest": false, "notes": [{"pitch": 36, "vel": 100, "dur": 0.5, "tieStart": false, "tieEnd": false, "tieGroup": 0}, {"pitch": 42, "vel": 58, "dur": 0.5, "tieStart": false, "tieEnd": false, "tieGroup": 0}]}, {"start": 2.0, "dur": 0.5, "rest": false, "notes": [{"pitch": 36, "vel": 100, "dur": 0.5, "tieStart": false, "tieEnd": false, "tieGroup": 0}, {"pitch": 42, "vel": 72, "dur": 0.5, "tieStart": false, "tieEnd": false, "tieGroup": 0}]}, {"start": 2.5, "dur": 0.5, "rest": false, "notes": [{"pitch": 42, "vel": 58, "dur": 0.5, "tieStart": false, "tieEnd": false, "tieGroup": 0}]}, {"start": 3.0, "dur": 0.5, "rest": false, "notes": [{"pitch": 38, "vel": 96, "dur": 0.5, "tieStart": false, "tieEnd": false, "tieGroup": 0}, {"pitch": 42, "vel": 72, "dur": 0.5, "tieStart": false, "tieEnd": false, "tieGroup": 0}]}, {"start": 3.5, "dur": 0.5, "rest": false, "notes": [{"pitch": 42, "vel": 58, "dur": 0.5, "tieStart": false, "tieEnd": false, "tieGroup": 0}]}]}, {"ts_num": 4, "ts_den": 4, "key_fifths": 0, "key_mode": 0, "clef": 1, "tempo": 120, "velocity": 100, "lyrics": "", "expr": [], "segs": [{"start": 0.0, "dur": 0.5, "rest": false, "notes": [{"pitch": 36, "vel": 100, "dur": 0.5, "tieStart": false, "tieEnd": false, "tieGroup": 0}, {"pitch": 42, "vel": 72, "dur": 0.5, "tieStart": false, "tieEnd": false, "tieGroup": 0}]}, {"start": 0.5, "dur": 0.5, "rest": false, "notes": [{"pitch": 42, "vel": 58, "dur": 0.5, "tieStart": false, "tieEnd": false, "tieGroup": 0}]}, {"start": 1.0, "dur": 0.5, "rest": false, "notes": [{"pitch": 38, "vel": 96, "dur": 0.5, "tieStart": false, "tieEnd": false, "tieGroup": 0}, {"pitch": 42, "vel": 72, "dur": 0.5, "tieStart": false, "tieEnd": false, "tieGroup": 0}]}, {"start": 1.5, "dur": 0.5, "rest": false, "notes": [{"pitch": 36, "vel": 100, "dur": 0.5, "tieStart": false, "tieEnd": false, "tieGroup": 0}, {"pitch": 42, "vel": 58, "dur": 0.5, "tieStart": false, "tieEnd": false, "tieGroup": 0}]}, {"start": 2.0, "dur": 0.5, "rest": false, "notes": [{"pitch": 36, "vel": 100, "dur": 0.5, "tieStart": false, "tieEnd": false, "tieGroup": 0}, {"pitch": 42, "vel": 72, "dur": 0.5, "tieStart": false, "tieEnd": false, "tieGroup": 0}]}, {"start": 2.5, "dur": 0.5, "rest": false, "notes": [{"pitch": 42, "vel": 58, "dur": 0.5, "tieStart": false, "tieEnd": false, "tieGroup": 0}]}, {"start": 3.0, "dur": 0.5, "rest": false, "notes": [{"pitch": 38, "vel": 96, "dur": 0.5, "tieStart": false, "tieEnd": false, "tieGroup": 0}, {"pitch": 42, "vel": 72, "dur": 0.5, "tieStart": false, "tieEnd": false, "tieGroup": 0}]}, {"start": 3.5, "dur": 0.5, "rest": false, "notes": [{"pitch": 42, "vel": 58, "dur": 0.5, "tieStart": false, "tieEnd": false, "tieGroup": 0}]}]}, {"ts_num": 4, "ts_den": 4, "key_fifths": 0, "key_mode": 0, "clef": 1, "tempo": 120, "velocity": 100, "lyrics": "", "expr": [], "segs": [{"start": 0.0, "dur": 0.5, "rest": false, "notes": [{"pitch": 36, "vel": 100, "dur": 0.5, "tieStart": false, "tieEnd": false, "tieGroup": 0}, {"pitch": 42, "vel": 72, "dur": 0.5, "tieStart": false, "tieEnd": false, "tieGroup": 0}]}, {"start": 0.5, "dur": 0.5, "rest": false, "notes": [{"pitch": 42, "vel": 58, "dur": 0.5, "tieStart": false, "tieEnd": false, "tieGroup": 0}]}, {"start": 1.0, "dur": 0.5, "rest": false, "notes": [{"pitch": 38, "vel": 96, "dur": 0.5, "tieStart": false, "tieEnd": false, "tieGroup": 0}, {"pitch": 42, "vel": 72, "dur": 0.5, "tieStart": false, "tieEnd": false, "tieGroup": 0}]}, {"start": 1.5, "dur": 0.5, "rest": false, "notes": [{"pitch": 36, "vel": 100, "dur": 0.5, "tieStart": false, "tieEnd": false, "tieGroup": 0}, {"pitch": 42, "vel": 58, "dur": 0.5, "tieStart": false, "tieEnd": false, "tieGroup": 0}]}, {"start": 2.0, "dur": 0.5, "rest": false, "notes": [{"pitch": 36, "vel": 100, "dur": 0.5, "tieStart": false, "tieEnd": false, "tieGroup": 0}, {"pitch": 42, "vel": 72, "dur": 0.5, "tieStart": false, "tieEnd": false, "tieGroup": 0}]}, {"start": 2.5, "dur": 0.5, "rest": false, "notes": [{"pitch": 42, "vel": 58, "dur": 0.5, "tieStart": false, "tieEnd": false, "tieGroup": 0}]}, {"start": 3.0, "dur": 0.5, "rest": false, "notes": [{"pitch": 38, "vel": 96, "dur": 0.5, "tieStart": false, "tieEnd": false, "tieGroup": 0}, {"pitch": 42, "vel": 72, "dur": 0.5, "tieStart": false, "tieEnd": false, "tieGroup": 0}]}, {"start": 3.5, "dur": 0.5, "rest": false, "notes": [{"pitch": 36, "vel": 96, "dur": 0.5, "tieStart": false, "tieEnd": false, "tieGroup": 0}, {"pitch": 42, "vel": 58, "dur": 0.5, "tieStart": false, "tieEnd": false, "tieGroup": 0}]}]}, {"ts_num": 4, "ts_den": 4, "key_fifths": 0, "key_mode": 0, "clef": 1, "tempo": 120, "velocity": 100, "lyrics": "", "expr": [], "segs": [{"start": 0.0, "dur": 0.5, "rest": false, "notes": [{"pitch": 36, "vel": 100, "dur": 0.5, "tieStart": false, "tieEnd": false, "tieGroup": 0}, {"pitch": 42, "vel": 72, "dur": 0.5, "tieStart": false, "tieEnd": false, "tieGroup": 0}]}, {"start": 0.5, "dur": 0.5, "rest": false, "notes": [{"pitch": 42, "vel": 58, "dur": 0.5, "tieStart": false, "tieEnd": false, "tieGroup": 0}]}, {"start": 1.0, "dur": 0.5, "rest": false, "notes": [{"pitch": 38, "vel": 96, "dur": 0.5, "tieStart": false, "tieEnd": false, "tieGroup": 0}, {"pitch": 42, "vel": 72, "dur": 0.5, "tieStart": false, "tieEnd": false, "tieGroup": 0}]}, {"start": 1.5, "dur": 0.5, "rest": false, "notes": [{"pitch": 36, "vel": 100, "dur": 0.5, "tieStart": false, "tieEnd": false, "tieGroup": 0}, {"pitch": 42, "vel": 58, "dur": 0.5, "tieStart": false, "tieEnd": false, "tieGroup": 0}]}, {"start": 2.0, "dur": 0.5, "rest": false, "notes": [{"pitch": 36, "vel": 100, "dur": 0.5, "tieStart": false, "tieEnd": false, "tieGroup": 0}, {"pitch": 42, "vel": 72, "dur": 0.5, "tieStart": false, "tieEnd": false, "tieGroup": 0}]}, {"start": 2.5, "dur": 0.5, "rest": false, "notes": [{"pitch": 42, "vel": 58, "dur": 0.5, "tieStart": false, "tieEnd": false, "tieGroup": 0}]}, {"start": 3.0, "dur": 0.5, "rest": false, "notes": [{"pitch": 38, "vel": 96, "dur": 0.5, "tieStart": false, "tieEnd": false, "tieGroup": 0}, {"pitch": 42, "vel": 72, "dur": 0.5, "tieStart": false, "tieEnd": false, "tieGroup": 0}]}, {"start": 3.5, "dur": 0.5, "rest": false, "notes": [{"pitch": 42, "vel": 58, "dur": 0.5, "tieStart": false, "tieEnd": false, "tieGroup": 0}]}]}, {"ts_num": 4, "ts_den": 4, "key_fifths": 0, "key_mode": 0, "clef": 1, "tempo": 120, "velocity": 100, "lyrics": "", "expr": [], "segs": [{"start": 0.0, "dur": 0.5, "rest": false, "notes": [{"pitch": 36, "vel": 100, "dur": 0.5, "tieStart": false, "tieEnd": false, "tieGroup": 0}, {"pitch": 42, "vel": 72, "dur": 0.5, "tieStart": false, "tieEnd": false, "tieGroup": 0}]}, {"start": 0.5, "dur": 0.5, "rest": false, "notes": [{"pitch": 42, "vel": 58, "dur": 0.5, "tieStart": false, "tieEnd": false, "tieGroup": 0}]}, {"start": 1.0, "dur": 0.5, "rest": false, "notes": [{"pitch": 38, "vel": 96, "dur": 0.5, "tieStart": false, "tieEnd": false, "tieGroup": 0}, {"pitch": 42, "vel": 72, "dur": 0.5, "tieStart": false, "tieEnd": false, "tieGroup": 0}]}, {"start": 1.5, "dur": 0.5, "rest": false, "notes": [{"pitch": 36, "vel": 100, "dur": 0.5, "tieStart": false, "tieEnd": false, "tieGroup": 0}, {"pitch": 42, "vel": 58, "dur": 0.5, "tieStart": false, "tieEnd": false, "tieGroup": 0}]}, {"start": 2.0, "dur": 0.5, "rest": false, "notes": [{"pitch": 36, "vel": 100, "dur": 0.5, "tieStart": false, "tieEnd": false, "tieGroup": 0}, {"pitch": 42, "vel": 72, "dur": 0.5, "tieStart": false, "tieEnd": false, "tieGroup": 0}]}, {"start": 2.5, "dur": 0.5, "rest": false, "notes": [{"pitch": 42, "vel": 58, "dur": 0.5, "tieStart": false, "tieEnd": false, "tieGroup": 0}]}, {"start": 3.0, "dur": 0.5, "rest": false, "notes": [{"pitch": 38, "vel": 96, "dur": 0.5, "tieStart": false, "tieEnd": false, "tieGroup": 0}, {"pitch": 42, "vel": 72, "dur": 0.5, "tieStart": false, "tieEnd": false, "tieGroup": 0}]}, {"start": 3.5, "dur": 0.5, "rest": false, "notes": [{"pitch": 42, "vel": 58, "dur": 0.5, "tieStart": false, "tieEnd": false, "tieGroup": 0}]}]}, {"ts_num": 4, "ts_den": 4, "key_fifths": 0, "key_mode": 0, "clef": 1, "tempo": 120, "velocity": 100, "lyrics": "", "expr": [], "segs": [{"start": 0.0, "dur": 0.5, "rest": false, "notes": [{"pitch": 36, "vel": 100, "dur": 0.5, "tieStart": false, "tieEnd": false, "tieGroup": 0}, {"pitch": 42, "vel": 72, "dur": 0.5, "tieStart": false, "tieEnd": false, "tieGroup": 0}]}, {"start": 0.5, "dur": 0.5, "rest": false, "notes": [{"pitch": 42, "vel": 58, "dur": 0.5, "tieStart": false, "tieEnd": false, "tieGroup": 0}]}, {"start": 1.0, "dur": 0.5, "rest": false, "notes": [{"pitch": 38, "vel": 96, "dur": 0.5, "tieStart": false, "tieEnd": false, "tieGroup": 0}, {"pitch": 42, "vel": 72, "dur": 0.5, "tieStart": false, "tieEnd": false, "tieGroup": 0}]}, {"start": 1.5, "dur": 0.5, "rest": false, "notes": [{"pitch": 36, "vel": 100, "dur": 0.5, "tieStart": false, "tieEnd": false, "tieGroup": 0}, {"pitch": 42, "vel": 58, "dur": 0.5, "tieStart": false, "tieEnd": false, "tieGroup": 0}]}, {"start": 2.0, "dur": 0.5, "rest": false, "notes": [{"pitch": 36, "vel": 100, "dur": 0.5, "tieStart": false, "tieEnd": false, "tieGroup": 0}, {"pitch": 42, "vel": 72, "dur": 0.5, "tieStart": false, "tieEnd": false, "tieGroup": 0}]}, {"start": 2.5, "dur": 0.5, "rest": false, "notes": [{"pitch": 42, "vel": 58, "dur": 0.5, "tieStart": false, "tieEnd": false, "tieGroup": 0}]}, {"start": 3.0, "dur": 0.5, "rest": false, "notes": [{"pitch": 38, "vel": 96, "dur": 0.5, "tieStart": false, "tieEnd": false, "tieGroup": 0}, {"pitch": 42, "vel": 72, "dur": 0.5, "tieStart": false, "tieEnd": false, "tieGroup": 0}]}, {"start": 3.5, "dur": 0.5, "rest": false, "notes": [{"pitch": 42, "vel": 58, "dur": 0.5, "tieStart": false, "tieEnd": false, "tieGroup": 0}]}]}, {"ts_num": 4, "ts_den": 4, "key_fifths": 0, "key_mode": 0, "clef": 1, "tempo": 120, "velocity": 100, "lyrics": "", "expr": [], "segs": [{"start": 0.0, "dur": 0.5, "rest": false, "notes": [{"pitch": 36, "vel": 100, "dur": 0.5, "tieStart": false, "tieEnd": false, "tieGroup": 0}, {"pitch": 42, "vel": 72, "dur": 0.5, "tieStart": false, "tieEnd": false, "tieGroup": 0}]}, {"start": 0.5, "dur": 0.5, "rest": false, "notes": [{"pitch": 42, "vel": 58, "dur": 0.5, "tieStart": false, "tieEnd": false, "tieGroup": 0}]}, {"start": 1.0, "dur": 0.5, "rest": false, "notes": [{"pitch": 38, "vel": 96, "dur": 0.5, "tieStart": false, "tieEnd": false, "tieGroup": 0}, {"pitch": 42, "vel": 72, "dur": 0.5, "tieStart": false, "tieEnd": false, "tieGroup": 0}]}, {"start": 1.5, "dur": 0.5, "rest": false, "notes": [{"pitch": 36, "vel": 100, "dur": 0.5, "tieStart": false, "tieEnd": false, "tieGroup": 0}, {"pitch": 42, "vel": 58, "dur": 0.5, "tieStart": false, "tieEnd": false, "tieGroup": 0}]}, {"start": 2.0, "dur": 0.5, "rest": false, "notes": [{"pitch": 36, "vel": 100, "dur": 0.5, "tieStart": false, "tieEnd": false, "tieGroup": 0}, {"pitch": 42, "vel": 80, "dur": 0.5, "tieStart": false, "tieEnd": false, "tieGroup": 0}]}, {"start": 2.5, "dur": 0.5, "rest": false, "notes": [{"pitch": 42, "vel": 66, "dur": 0.5, "tieStart": false, "tieEnd": false, "tieGroup": 0}, {"pitch": 46, "vel": 78, "dur": 0.5, "tieStart": false, "tieEnd": false, "tieGroup": 0}]}, {"start": 3.0, "dur": 0.5, "rest": false, "notes": [{"pitch": 38, "vel": 96, "dur": 0.5, "tieStart": false, "tieEnd": false, "tieGroup": 0}, {"pitch": 42, "vel": 80, "dur": 0.5, "tieStart": false, "tieEnd": false, "tieGroup": 0}, {"pitch": 45, "vel": 84, "dur": 0.5, "tieStart": false, "tieEnd": false, "tieGroup": 0}]}, {"start": 3.5, "dur": 0.5, "rest": false, "notes": [{"pitch": 36, "vel": 96, "dur": 0.5, "tieStart": false, "tieEnd": false, "tieGroup": 0}, {"pitch": 42, "vel": 66, "dur": 0.5, "tieStart": false, "tieEnd": false, "tieGroup": 0}, {"pitch": 43, "vel": 88, "dur": 0.5, "tieStart": false, "tieEnd": false, "tieGroup": 0}]}]}, {"ts_num": 4, "ts_den": 4, "key_fifths": 0, "key_mode": 0, "clef": 1, "tempo": 120, "velocity": 100, "lyrics": "", "expr": [], "segs": [{"start": 0.0, "dur": 0.5, "rest": false, "notes": [{"pitch": 36, "vel": 100, "dur": 0.5, "tieStart": false, "tieEnd": false, "tieGroup": 0}, {"pitch": 42, "vel": 72, "dur": 0.5, "tieStart": false, "tieEnd": false, "tieGroup": 0}]}, {"start": 0.5, "dur": 0.5, "rest": false, "notes": [{"pitch": 42, "vel": 58, "dur": 0.5, "tieStart": false, "tieEnd": false, "tieGroup": 0}]}, {"start": 1.0, "dur": 0.5, "rest": false, "notes": [{"pitch": 38, "vel": 96, "dur": 0.5, "tieStart": false, "tieEnd": false, "tieGroup": 0}, {"pitch": 42, "vel": 72, "dur": 0.5, "tieStart": false, "tieEnd": false, "tieGroup": 0}]}, {"start": 1.5, "dur": 0.5, "rest": false, "notes": [{"pitch": 36, "vel": 100, "dur": 0.5, "tieStart": false, "tieEnd": false, "tieGroup": 0}, {"pitch": 42, "vel": 58, "dur": 0.5, "tieStart": false, "tieEnd": false, "tieGroup": 0}]}, {"start": 2.0, "dur": 0.5, "rest": false, "notes": [{"pitch": 36, "vel": 100, "dur": 0.5, "tieStart": false, "tieEnd": false, "tieGroup": 0}, {"pitch": 42, "vel": 72, "dur": 0.5, "tieStart": false, "tieEnd": false, "tieGroup": 0}]}, {"start": 2.5, "dur": 0.5, "rest": false, "notes": [{"pitch": 42, "vel": 58, "dur": 0.5, "tieStart": false, "tieEnd": false, "tieGroup": 0}]}, {"start": 3.0, "dur": 0.5, "rest": false, "notes": [{"pitch": 38, "vel": 96, "dur": 0.5, "tieStart": false, "tieEnd": false, "tieGroup": 0}, {"pitch": 42, "vel": 72, "dur": 0.5, "tieStart": false, "tieEnd": false, "tieGroup": 0}]}, {"start": 3.5, "dur": 0.5, "rest": false, "notes": [{"pitch": 42, "vel": 58, "dur": 0.5, "tieStart": false, "tieEnd": false, "tieGroup": 0}]}]}, {"ts_num": 4, "ts_den": 4, "key_fifths": 0, "key_mode": 0, "clef": 1, "tempo": 120, "velocity": 100, "lyrics": "", "expr": [], "segs": [{"start": 0.0, "dur": 0.5, "rest": false, "notes": [{"pitch": 36, "vel": 100, "dur": 0.5, "tieStart": false, "tieEnd": false, "tieGroup": 0}, {"pitch": 42, "vel": 72, "dur": 0.5, "tieStart": false, "tieEnd": false, "tieGroup": 0}]}, {"start": 0.5, "dur": 0.5, "rest": false, "notes": [{"pitch": 42, "vel": 58, "dur": 0.5, "tieStart": false, "tieEnd": false, "tieGroup": 0}]}, {"start": 1.0, "dur": 0.5, "rest": false, "notes": [{"pitch": 38, "vel": 96, "dur": 0.5, "tieStart": false, "tieEnd": false, "tieGroup": 0}, {"pitch": 42, "vel": 72, "dur": 0.5, "tieStart": false, "tieEnd": false, "tieGroup": 0}]}, {"start": 1.5, "dur": 0.5, "rest": false, "notes": [{"pitch": 36, "vel": 100, "dur": 0.5, "tieStart": false, "tieEnd": false, "tieGroup": 0}, {"pitch": 42, "vel": 58, "dur": 0.5, "tieStart": false, "tieEnd": false, "tieGroup": 0}]}, {"start": 2.0, "dur": 0.5, "rest": false, "notes": [{"pitch": 36, "vel": 100, "dur": 0.5, "tieStart": false, "tieEnd": false, "tieGroup": 0}, {"pitch": 42, "vel": 72, "dur": 0.5, "tieStart": false, "tieEnd": false, "tieGroup": 0}]}, {"start": 2.5, "dur": 0.5, "rest": false, "notes": [{"pitch": 42, "vel": 58, "dur": 0.5, "tieStart": false, "tieEnd": false, "tieGroup": 0}]}, {"start": 3.0, "dur": 0.5, "rest": false, "notes": [{"pitch": 38, "vel": 96, "dur": 0.5, "tieStart": false, "tieEnd": false, "tieGroup": 0}, {"pitch": 42, "vel": 72, "dur": 0.5, "tieStart": false, "tieEnd": false, "tieGroup": 0}]}, {"start": 3.5, "dur": 0.5, "rest": false, "notes": [{"pitch": 42, "vel": 58, "dur": 0.5, "tieStart": false, "tieEnd": false, "tieGroup": 0}]}]}, {"ts_num": 4, "ts_den": 4, "key_fifths": 0, "key_mode": 0, "clef": 1, "tempo": 120, "velocity": 100, "lyrics": "", "expr": [], "segs": [{"start": 0.0, "dur": 0.5, "rest": false, "notes": [{"pitch": 36, "vel": 100, "dur": 0.5, "tieStart": false, "tieEnd": false, "tieGroup": 0}, {"pitch": 42, "vel": 72, "dur": 0.5, "tieStart": false, "tieEnd": false, "tieGroup": 0}]}, {"start": 0.5, "dur": 0.5, "rest": false, "notes": [{"pitch": 42, "vel": 58, "dur": 0.5, "tieStart": false, "tieEnd": false, "tieGroup": 0}]}, {"start": 1.0, "dur": 0.5, "rest": false, "notes": [{"pitch": 38, "vel": 96, "dur": 0.5, "tieStart": false, "tieEnd": false, "tieGroup": 0}, {"pitch": 42, "vel": 72, "dur": 0.5, "tieStart": false, "tieEnd": false, "tieGroup": 0}]}, {"start": 1.5, "dur": 0.5, "rest": false, "notes": [{"pitch": 36, "vel": 100, "dur": 0.5, "tieStart": false, "tieEnd": false, "tieGroup": 0}, {"pitch": 42, "vel": 58, "dur": 0.5, "tieStart": false, "tieEnd": false, "tieGroup": 0}]}, {"start": 2.0, "dur": 0.5, "rest": false, "notes": [{"pitch": 36, "vel": 100, "dur": 0.5, "tieStart": false, "tieEnd": false, "tieGroup": 0}, {"pitch": 42, "vel": 72, "dur": 0.5, "tieStart": false, "tieEnd": false, "tieGroup": 0}]}, {"start": 2.5, "dur": 0.5, "rest": false, "notes": [{"pitch": 42, "vel": 58, "dur": 0.5, "tieStart": false, "tieEnd": false, "tieGroup": 0}]}, {"start": 3.0, "dur": 0.5, "rest": false, "notes": [{"pitch": 38, "vel": 96, "dur": 0.5, "tieStart": false, "tieEnd": false, "tieGroup": 0}, {"pitch": 42, "vel": 72, "dur": 0.5, "tieStart": false, "tieEnd": false, "tieGroup": 0}]}, {"start": 3.5, "dur": 0.5, "rest": false, "notes": [{"pitch": 42, "vel": 58, "dur": 0.5, "tieStart": false, "tieEnd": false, "tieGroup": 0}]}]}, {"ts_num": 4, "ts_den": 4, "key_fifths": 0, "key_mode": 0, "clef": 1, "tempo": 120, "velocity": 100, "lyrics": "", "expr": [], "segs": [{"start": 0.0, "dur": 0.5, "rest": false, "notes": [{"pitch": 36, "vel": 100, "dur": 0.5, "tieStart": false, "tieEnd": false, "tieGroup": 0}, {"pitch": 42, "vel": 72, "dur": 0.5, "tieStart": false, "tieEnd": false, "tieGroup": 0}]}, {"start": 0.5, "dur": 0.5, "rest": false, "notes": [{"pitch": 42, "vel": 58, "dur": 0.5, "tieStart": false, "tieEnd": false, "tieGroup": 0}]}, {"start": 1.0, "dur": 0.5, "rest": false, "notes": [{"pitch": 38, "vel": 96, "dur": 0.5, "tieStart": false, "tieEnd": false, "tieGroup": 0}, {"pitch": 42, "vel": 72, "dur": 0.5, "tieStart": false, "tieEnd": false, "tieGroup": 0}]}, {"start": 1.5, "dur": 0.5, "rest": false, "notes": [{"pitch": 36, "vel": 100, "dur": 0.5, "tieStart": false, "tieEnd": false, "tieGroup": 0}, {"pitch": 42, "vel": 58, "dur": 0.5, "tieStart": false, "tieEnd": false, "tieGroup": 0}]}, {"start": 2.0, "dur": 0.5, "rest": false, "notes": [{"pitch": 36, "vel": 100, "dur": 0.5, "tieStart": false, "tieEnd": false, "tieGroup": 0}, {"pitch": 42, "vel": 80, "dur": 0.5, "tieStart": false, "tieEnd": false, "tieGroup": 0}]}, {"start": 2.5, "dur": 0.5, "rest": false, "notes": [{"pitch": 42, "vel": 66, "dur": 0.5, "tieStart": false, "tieEnd": false, "tieGroup": 0}, {"pitch": 46, "vel": 78, "dur": 0.5, "tieStart": false, "tieEnd": false, "tieGroup": 0}]}, {"start": 3.0, "dur": 0.5, "rest": false, "notes": [{"pitch": 38, "vel": 96, "dur": 0.5, "tieStart": false, "tieEnd": false, "tieGroup": 0}, {"pitch": 42, "vel": 80, "dur": 0.5, "tieStart": false, "tieEnd": false, "tieGroup": 0}, {"pitch": 45, "vel": 84, "dur": 0.5, "tieStart": false, "tieEnd": false, "tieGroup": 0}]}, {"start": 3.5, "dur": 0.5, "rest": false, "notes": [{"pitch": 36, "vel": 96, "dur": 0.5, "tieStart": false, "tieEnd": false, "tieGroup": 0}, {"pitch": 42, "vel": 66, "dur": 0.5, "tieStart": false, "tieEnd": false, "tieGroup": 0}, {"pitch": 43, "vel": 88, "dur": 0.5, "tieStart": false, "tieEnd": false, "tieGroup": 0}]}]}, {"ts_num": 4, "ts_den": 4, "key_fifths": 0, "key_mode": 0, "clef": 1, "tempo": 120, "velocity": 100, "lyrics": "", "expr": [], "segs": [{"start": 0.0, "dur": 4.0, "rest": true, "notes": []}]}, {"ts_num": 4, "ts_den": 4, "key_fifths": 0, "key_mode": 0, "clef": 1, "tempo": 120, "velocity": 100, "lyrics": "", "expr": [], "segs": [{"start": 0.0, "dur": 4.0, "rest": true, "notes": []}]}, {"ts_num": 4, "ts_den": 4, "key_fifths": 0, "key_mode": 0, "clef": 1, "tempo": 120, "velocity": 100, "lyrics": "", "expr": [], "segs": [{"start": 0.0, "dur": 4.0, "rest": true, "notes": []}]}, {"ts_num": 4, "ts_den": 4, "key_fifths": 0, "key_mode": 0, "clef": 1, "tempo": 120, "velocity": 100, "lyrics": "", "expr": [], "segs": [{"start": 0.0, "dur": 4.0, "rest": true, "notes": []}]}]}], "output_filters": []}