{"format": "arkscore", "version": 2, "title": "Trendy", "measure_width_scale": 2.450000047683716, "harmony_reference_track": 0, "tracks": [{"name": "Keys", "instrument": {"name": "Tine Electric Piano", "bankMSB": 0, "bankLSB": 0, "program": 4, "channelHint": -1, "percussion": false, "volume": 120, "pan": 64, "transpose": 0}, "measures": [{"ts_num": 4, "ts_den": 4, "key_fifths": -4, "key_mode": 1, "clef": 0, "tempo": 104, "velocity": 100, "lyrics": "", "expr": [], "segs": [{"start": 0.0, "dur": 3.0, "rest": true, "notes": []}, {"start": 3.0, "dur": 1.0, "rest": false, "notes": [{"pitch": 84, "vel": 82, "dur": 1.0, "tieStart": false, "tieEnd": false, "tieGroup": 323}]}]}, {"ts_num": 4, "ts_den": 4, "key_fifths": -4, "key_mode": 1, "clef": 0, "tempo": 104, "velocity": 100, "lyrics": "", "expr": [], "segs": [{"start": 0.0, "dur": 2.0, "rest": false, "notes": [{"pitch": 61, "vel": 84, "dur": 2.0, "tieStart": false, "tieEnd": false, "tieGroup": 0}, {"pitch": 65, "vel": 84, "dur": 2.0, "tieStart": false, "tieEnd": false, "tieGroup": 0}, {"pitch": 68, "vel": 84, "dur": 2.0, "tieStart": false, "tieEnd": false, "tieGroup": 0}, {"pitch": 72, "vel": 84, "dur": 2.0, "tieStart": false, "tieEnd": false, "tieGroup": 0}, {"pitch": 75, "vel": 84, "dur": 2.0, "tieStart": false, "tieEnd": false, "tieGroup": 0}]}, {"start": 2.0, "dur": 1.0, "rest": true, "notes": []}, {"start": 3.0, "dur": 1.0, "rest": false, "notes": [{"pitch": 80, "vel": 88, "dur": 1.0, "tieStart": false, "tieEnd": false, "tieGroup": 324}]}]}, {"ts_num": 4, "ts_den": 4, "key_fifths": -4, "key_mode": 1, "clef": 0, "tempo": 104, "velocity": 100, "lyrics": "", "expr": [], "segs": [{"start": 0.0, "dur": 1.0, "rest": false, "notes": [{"pitch": 56, "vel": 84, "dur": 1.0, "tieStart": false, "tieEnd": false, "tieGroup": 0}, {"pitch": 60, "vel": 84, "dur": 1.0, "tieStart": false, "tieEnd": false, "tieGroup": 0}, {"pitch": 63, "vel": 84, "dur": 1.0, "tieStart": false, "tieEnd": false, "tieGroup": 0}, {"pitch": 67, "vel": 84, "dur": 1.0, "tieStart": false, "tieEnd": false, "tieGroup": 0}, {"pitch": 70, "vel": 84, "dur": 1.0, "tieStart": false, "tieEnd": false, "tieGroup": 0}]}, {"start": 1.0, "dur": 1.0, "rest": true, "notes": []}, {"start": 2.0, "dur": 1.0, "rest": false, "notes": [{"pitch": 56, "vel": 84, "dur": 1.0, "tieStart": false, "tieEnd": false, "tieGroup": 326}, {"pitch": 60, "vel": 84, "dur": 1.0, "tieStart": false, "tieEnd": false, "tieGroup": 0}, {"pitch": 63, "vel": 84, "dur": 1.0, "tieStart": false, "tieEnd": false, "tieGroup": 0}, {"pitch": 67, "vel": 84, "dur": 1.0, "tieStart": false, "tieEnd": false, "tieGroup": 0}, {"pitch": 70, "vel": 84, "dur": 1.0, "tieStart": false, "tieEnd": false, "tieGroup": 0}]}, {"start": 3.0, "dur": 1.0, "rest": false, "notes": [{"pitch": 79, "vel": 88, "dur": 1.0, "tieStart": false, "tieEnd": false, "tieGroup": 0}]}]}, {"ts_num": 4, "ts_den": 4, "key_fifths": -4, "key_mode": 1, "clef": 0, "tempo": 104, "velocity": 100, "lyrics": "", "expr": [], "segs": [{"start": 0.0, "dur": 2.0, "rest": false, "notes": [{"pitch": 63, "vel": 86, "dur": 2.0, "tieStart": false, "tieEnd": false, "tieGroup": 0}, {"pitch": 68, "vel": 86, "dur": 2.0, "tieStart": false, "tieEnd": false, "tieGroup": 0}, {"pitch": 73, "vel": 86, "dur": 2.0, "tieStart": false, "tieEnd": false, "tieGroup": 0}, {"pitch": 77, "vel": 86, "dur": 2.0, "tieStart": false, "tieEnd": false, "tieGroup": 0}, {"pitch": 84, "vel": 86, "dur": 2.0, "tieStart": false, "tieEnd": false, "tieGroup": 0}]}, {"start": 2.0, "dur": 1.0, "rest": false, "notes": [{"pitch": 82, "vel": 90, "dur": 1.0, "tieStart": false, "tieEnd": false, "tieGroup": 0}]}, {"start": 3.0, "dur": 1.0, "rest": false, "notes": [{"pitch": 63, "vel": 92, "dur": 1.0, "tieStart": false, "tieEnd": false, "tieGroup": 0}, {"pitch": 68, "vel": 92, "dur": 1.0, "tieStart": false, "tieEnd": false, "tieGroup": 0}, {"pitch": 73, "vel": 92, "dur": 1.0, "tieStart": false, "tieEnd": false, "tieGroup": 0}, {"pitch": 77, "vel": 92, "dur": 1.0, "tieStart": false, "tieEnd": false, "tieGroup": 0}, {"pitch": 84, "vel": 92, "dur": 1.0, "tieStart": false, "tieEnd": false, "tieGroup": 0}]}]}, {"ts_num": 4, "ts_den": 4, "key_fifths": -4, "key_mode": 1, "clef": 0, "tempo": 104, "velocity": 100, "lyrics": "", "expr": [], "segs": [{"start": 0.0, "dur": 0.5, "rest": false, "notes": [{"pitch": 65, "vel": 94, "dur": 0.5, "tieStart": false, "tieEnd": false, "tieGroup": 0}, {"pitch": 68, "vel": 94, "dur": 0.5, "tieStart": false, "tieEnd": false, "tieGroup": 0}, {"pitch": 72, "vel": 94, "dur": 0.5, "tieStart": false, "tieEnd": false, "tieGroup": 0}, {"pitch": 75, "vel": 94, "dur": 0.5, "tieStart": false, "tieEnd": false, "tieGroup": 0}, {"pitch": 79, "vel": 94, "dur": 0.5, "tieStart": false, "tieEnd": false, "tieGroup": 0}]}, {"start": 0.5, "dur": 0.25, "rest": true, "notes": []}, {"start": 0.75, "dur": 0.25, "rest": false, "notes": [{"pitch": 84, "vel": 98, "dur": 0.25, "tieStart": false, "tieEnd": false, "tieGroup": 1}]}, {"start": 1.0, "dur": 0.5, "rest": true, "notes": []}, {"start": 1.5, "dur": 0.5, "rest": false, "notes": [{"pitch": 65, "vel": 92, "dur": 0.5, "tieStart": false, "tieEnd": false, "tieGroup": 2}, {"pitch": 68, "vel": 92, "dur": 0.5, "tieStart": false, "tieEnd": false, "tieGroup": 0}, {"pitch": 72, "vel": 92, "dur": 0.5, "tieStart": false, "tieEnd": false, "tieGroup": 0}, {"pitch": 75, "vel": 92, "dur": 0.5, "tieStart": false, "tieEnd": false, "tieGroup": 0}, {"pitch": 79, "vel": 92, "dur": 0.5, "tieStart": false, "tieEnd": false, "tieGroup": 0}]}, {"start": 2.0, "dur": 0.5, "rest": true, "notes": []}, {"start": 2.5, "dur": 0.25, "rest": false, "notes": [{"pitch": 87, "vel": 96, "dur": 0.25, "tieStart": false, "tieEnd": false, "tieGroup": 3}]}, {"start": 2.75, "dur": 0.25, "rest": true, "notes": []}, {"start": 3.0, "dur": 0.5, "rest": false, "notes": [{"pitch": 65, "vel": 95, "dur": 0.5, "tieStart": false, "tieEnd": false, "tieGroup": 4}, {"pitch": 68, "vel": 95, "dur": 0.5, "tieStart": false, "tieEnd": false, "tieGroup": 0}, {"pitch": 72, "vel": 95, "dur": 0.5, "tieStart": false, "tieEnd": false, "tieGroup": 0}, {"pitch": 75, "vel": 95, "dur": 0.5, "tieStart": false, "tieEnd": false, "tieGroup": 0}, {"pitch": 79, "vel": 95, "dur": 0.5, "tieStart": false, "tieEnd": false, "tieGroup": 0}]}, {"start": 3.5, "dur": 0.5, "rest": true, "notes": []}]}, {"ts_num": 4, "ts_den": 4, "key_fifths": -4, "key_mode": 1, "clef": 0, "tempo": 104, "velocity": 100, "lyrics": "", "expr": [], "segs": [{"start": 0.0, "dur": 0.5, "rest": false, "notes": [{"pitch": 61, "vel": 94, "dur": 0.5, "tieStart": false, "tieEnd": false, "tieGroup": 0}, {"pitch": 65, "vel": 94, "dur": 0.5, "tieStart": false, "tieEnd": false, "tieGroup": 0}, {"pitch": 68, "vel": 94, "dur": 0.5, "tieStart": false, "tieEnd": false, "tieGroup": 0}, {"pitch": 72, "vel": 94, "dur": 0.5, "tieStart": false, "tieEnd": false, "tieGroup": 0}, {"pitch": 75, "vel": 94, "dur": 0.5, "tieStart": false, "tieEnd": false, "tieGroup": 0}]}, {"start": 0.5, "dur": 0.25, "rest": true, "notes": []}, {"start": 0.75, "dur": 0.25, "rest": false, "notes": [{"pitch": 80, "vel": 98, "dur": 0.25, "tieStart": false, "tieEnd": false, "tieGroup": 5}]}, {"start": 1.0, "dur": 0.5, "rest": true, "notes": []}, {"start": 1.5, "dur": 0.5, "rest": false, "notes": [{"pitch": 61, "vel": 92, "dur": 0.5, "tieStart": false, "tieEnd": false, "tieGroup": 6}, {"pitch": 65, "vel": 92, "dur": 0.5, "tieStart": false, "tieEnd": false, "tieGroup": 0}, {"pitch": 68, "vel": 92, "dur": 0.5, "tieStart": false, "tieEnd": false, "tieGroup": 0}, {"pitch": 72, "vel": 92, "dur": 0.5, "tieStart": false, "tieEnd": false, "tieGroup": 0}, {"pitch": 75, "vel": 92, "dur": 0.5, "tieStart": false, "tieEnd": false, "tieGroup": 0}]}, {"start": 2.0, "dur": 0.5, "rest": true, "notes": []}, {"start": 2.5, "dur": 0.25, "rest": false, "notes": [{"pitch": 77, "vel": 96, "dur": 0.25, "tieStart": false, "tieEnd": false, "tieGroup": 7}]}, {"start": 2.75, "dur": 0.25, "rest": true, "notes": []}, {"start": 3.0, "dur": 0.5, "rest": false, "notes": [{"pitch": 61, "vel": 95, "dur": 0.5, "tieStart": false, "tieEnd": false, "tieGroup": 8}, {"pitch": 65, "vel": 95, "dur": 0.5, "tieStart": false, "tieEnd": false, "tieGroup": 0}, {"pitch": 68, "vel": 95, "dur": 0.5, "tieStart": false, "tieEnd": false, "tieGroup": 0}, {"pitch": 72, "vel": 95, "dur": 0.5, "tieStart": false, "tieEnd": false, "tieGroup": 0}, {"pitch": 75, "vel": 95, "dur": 0.5, "tieStart": false, "tieEnd": false, "tieGroup": 0}]}, {"start": 3.5, "dur": 0.5, "rest": true, "notes": []}]}, {"ts_num": 4, "ts_den": 4, "key_fifths": -4, "key_mode": 1, "clef": 0, "tempo": 104, "velocity": 100, "lyrics": "", "expr": [], "segs": [{"start": 0.0, "dur": 0.75, "rest": false, "notes": [{"pitch": 56, "vel": 95, "dur": 0.75, "tieStart": false, "tieEnd": false, "tieGroup": 0}, {"pitch": 60, "vel": 95, "dur": 0.75, "tieStart": false, "tieEnd": false, "tieGroup": 0}, {"pitch": 63, "vel": 95, "dur": 0.75, "tieStart": false, "tieEnd": false, "tieGroup": 0}, {"pitch": 67, "vel": 95, "dur": 0.75, "tieStart": false, "tieEnd": false, "tieGroup": 0}, {"pitch": 70, "vel": 95, "dur": 0.75, "tieStart": false, "tieEnd": false, "tieGroup": 0}]}, {"start": 0.75, "dur": 0.5, "rest": true, "notes": []}, {"start": 1.25, "dur": 0.25, "rest": false, "notes": [{"pitch": 79, "vel": 99, "dur": 0.25, "tieStart": false, "tieEnd": false, "tieGroup": 9}]}, {"start": 1.5, "dur": 0.5, "rest": true, "notes": []}, {"start": 2.0, "dur": 0.5, "rest": false, "notes": [{"pitch": 56, "vel": 92, "dur": 0.5, "tieStart": false, "tieEnd": false, "tieGroup": 10}, {"pitch": 60, "vel": 92, "dur": 0.5, "tieStart": false, "tieEnd": false, "tieGroup": 0}, {"pitch": 63, "vel": 92, "dur": 0.5, "tieStart": false, "tieEnd": false, "tieGroup": 0}, {"pitch": 67, "vel": 92, "dur": 0.5, "tieStart": false, "tieEnd": false, "tieGroup": 0}, {"pitch": 70, "vel": 92, "dur": 0.5, "tieStart": false, "tieEnd": false, "tieGroup": 0}]}, {"start": 2.5, "dur": 0.25, "rest": true, "notes": []}, {"start": 2.75, "dur": 0.25, "rest": false, "notes": [{"pitch": 82, "vel": 97, "dur": 0.25, "tieStart": false, "tieEnd": false, "tieGroup": 11}]}, {"start": 3.0, "dur": 0.25, "rest": true, "notes": []}, {"start": 3.25, "dur": 0.25, "rest": false, "notes": [{"pitch": 56, "vel": 93, "dur": 0.25, "tieStart": false, "tieEnd": false, "tieGroup": 12}, {"pitch": 60, "vel": 93, "dur": 0.25, "tieStart": false, "tieEnd": false, "tieGroup": 0}, {"pitch": 63, "vel": 93, "dur": 0.25, "tieStart": false, "tieEnd": false, "tieGroup": 0}, {"pitch": 67, "vel": 93, "dur": 0.25, "tieStart": false, "tieEnd": false, "tieGroup": 0}, {"pitch": 70, "vel": 93, "dur": 0.25, "tieStart": false, "tieEnd": false, "tieGroup": 0}]}, {"start": 3.5, "dur": 0.5, "rest": true, "notes": []}]}, {"ts_num": 4, "ts_den": 4, "key_fifths": -4, "key_mode": 1, "clef": 0, "tempo": 104, "velocity": 100, "lyrics": "", "expr": [], "segs": [{"start": 0.0, "dur": 0.5, "rest": false, "notes": [{"pitch": 63, "vel": 94, "dur": 0.5, "tieStart": false, "tieEnd": false, "tieGroup": 0}, {"pitch": 68, "vel": 94, "dur": 0.5, "tieStart": false, "tieEnd": false, "tieGroup": 0}, {"pitch": 73, "vel": 94, "dur": 0.5, "tieStart": false, "tieEnd": false, "tieGroup": 0}, {"pitch": 77, "vel": 94, "dur": 0.5, "tieStart": false, "tieEnd": false, "tieGroup": 0}, {"pitch": 84, "vel": 94, "dur": 0.5, "tieStart": false, "tieEnd": false, "tieGroup": 0}]}, {"start": 0.5, "dur": 0.25, "rest": true, "notes": []}, {"start": 0.75, "dur": 0.25, "rest": false, "notes": [{"pitch": 77, "vel": 98, "dur": 0.25, "tieStart": false, "tieEnd": false, "tieGroup": 13}]}, {"start": 1.0, "dur": 0.5, "rest": true, "notes": []}, {"start": 1.5, "dur": 0.5, "rest": false, "notes": [{"pitch": 63, "vel": 92, "dur": 0.5, "tieStart": false, "tieEnd": false, "tieGroup": 14}, {"pitch": 68, "vel": 92, "dur": 0.5, "tieStart": false, "tieEnd": false, "tieGroup": 0}, {"pitch": 73, "vel": 92, "dur": 0.5, "tieStart": false, "tieEnd": false, "tieGroup": 0}, {"pitch": 77, "vel": 92, "dur": 0.5, "tieStart": false, "tieEnd": false, "tieGroup": 0}, {"pitch": 84, "vel": 92, "dur": 0.5, "tieStart": false, "tieEnd": false, "tieGroup": 0}]}, {"start": 2.0, "dur": 0.5, "rest": true, "notes": []}, {"start": 2.5, "dur": 0.25, "rest": false, "notes": [{"pitch": 84, "vel": 96, "dur": 0.25, "tieStart": false, "tieEnd": false, "tieGroup": 15}]}, {"start": 2.75, "dur": 0.25, "rest": true, "notes": []}, {"start": 3.0, "dur": 0.5, "rest": false, "notes": [{"pitch": 63, "vel": 95, "dur": 0.5, "tieStart": false, "tieEnd": false, "tieGroup": 16}, {"pitch": 68, "vel": 95, "dur": 0.5, "tieStart": false, "tieEnd": false, "tieGroup": 0}, {"pitch": 73, "vel": 95, "dur": 0.5, "tieStart": false, "tieEnd": false, "tieGroup": 0}, {"pitch": 77, "vel": 95, "dur": 0.5, "tieStart": false, "tieEnd": false, "tieGroup": 0}, {"pitch": 84, "vel": 95, "dur": 0.5, "tieStart": false, "tieEnd": false, "tieGroup": 0}]}, {"start": 3.5, "dur": 0.5, "rest": true, "notes": []}]}, {"ts_num": 4, "ts_den": 4, "key_fifths": -4, "key_mode": 1, "clef": 0, "tempo": 104, "velocity": 100, "lyrics": "", "expr": [], "segs": [{"start": 0.0, "dur": 0.75, "rest": false, "notes": [{"pitch": 65, "vel": 95, "dur": 0.75, "tieStart": false, "tieEnd": false, "tieGroup": 0}, {"pitch": 68, "vel": 95, "dur": 0.75, "tieStart": false, "tieEnd": false, "tieGroup": 0}, {"pitch": 72, "vel": 95, "dur": 0.75, "tieStart": false, "tieEnd": false, "tieGroup": 0}, {"pitch": 75, "vel": 95, "dur": 0.75, "tieStart": false, "tieEnd": false, "tieGroup": 0}, {"pitch": 79, "vel": 95, "dur": 0.75, "tieStart": false, "tieEnd": false, "tieGroup": 0}]}, {"start": 0.75, "dur": 0.5, "rest": true, "notes": []}, {"start": 1.25, "dur": 0.25, "rest": false, "notes": [{"pitch": 84, "vel": 99, "dur": 0.25, "tieStart": false, "tieEnd": false, "tieGroup": 17}]}, {"start": 1.5, "dur": 0.5, "rest": true, "notes": []}, {"start": 2.0, "dur": 0.5, "rest": false, "notes": [{"pitch": 65, "vel": 92, "dur": 0.5, "tieStart": false, "tieEnd": false, "tieGroup": 18}, {"pitch": 68, "vel": 92, "dur": 0.5, "tieStart": false, "tieEnd": false, "tieGroup": 0}, {"pitch": 72, "vel": 92, "dur": 0.5, "tieStart": false, "tieEnd": false, "tieGroup": 0}, {"pitch": 75, "vel": 92, "dur": 0.5, "tieStart": false, "tieEnd": false, "tieGroup": 0}, {"pitch": 79, "vel": 92, "dur": 0.5, "tieStart": false, "tieEnd": false, "tieGroup": 0}]}, {"start": 2.5, "dur": 0.25, "rest": true, "notes": []}, {"start": 2.75, "dur": 0.25, "rest": false, "notes": [{"pitch": 87, "vel": 97, "dur": 0.25, "tieStart": false, "tieEnd": false, "tieGroup": 19}]}, {"start": 3.0, "dur": 0.25, "rest": true, "notes": []}, {"start": 3.25, "dur": 0.25, "rest": false, "notes": [{"pitch": 65, "vel": 93, "dur": 0.25, "tieStart": false, "tieEnd": false, "tieGroup": 20}, {"pitch": 68, "vel": 93, "dur": 0.25, "tieStart": false, "tieEnd": false, "tieGroup": 0}, {"pitch": 72, "vel": 93, "dur": 0.25, "tieStart": false, "tieEnd": false, "tieGroup": 0}, {"pitch": 75, "vel": 93, "dur": 0.25, "tieStart": false, "tieEnd": false, "tieGroup": 0}, {"pitch": 79, "vel": 93, "dur": 0.25, "tieStart": false, "tieEnd": false, "tieGroup": 0}]}, {"start": 3.5, "dur": 0.5, "rest": true, "notes": []}]}, {"ts_num": 4, "ts_den": 4, "key_fifths": -4, "key_mode": 1, "clef": 0, "tempo": 104, "velocity": 100, "lyrics": "", "expr": [], "segs": [{"start": 0.0, "dur": 0.5, "rest": false, "notes": [{"pitch": 61, "vel": 94, "dur": 0.5, "tieStart": false, "tieEnd": false, "tieGroup": 0}, {"pitch": 65, "vel": 94, "dur": 0.5, "tieStart": false, "tieEnd": false, "tieGroup": 0}, {"pitch": 68, "vel": 94, "dur": 0.5, "tieStart": false, "tieEnd": false, "tieGroup": 0}, {"pitch": 72, "vel": 94, "dur": 0.5, "tieStart": false, "tieEnd": false, "tieGroup": 0}, {"pitch": 75, "vel": 94, "dur": 0.5, "tieStart": false, "tieEnd": false, "tieGroup": 0}]}, {"start": 0.5, "dur": 0.25, "rest": true, "notes": []}, {"start": 0.75, "dur": 0.25, "rest": false, "notes": [{"pitch": 80, "vel": 98, "dur": 0.25, "tieStart": false, "tieEnd": false, "tieGroup": 21}]}, {"start": 1.0, "dur": 0.5, "rest": true, "notes": []}, {"start": 1.5, "dur": 0.5, "rest": false, "notes": [{"pitch": 61, "vel": 92, "dur": 0.5, "tieStart": false, "tieEnd": false, "tieGroup": 22}, {"pitch": 65, "vel": 92, "dur": 0.5, "tieStart": false, "tieEnd": false, "tieGroup": 0}, {"pitch": 68, "vel": 92, "dur": 0.5, "tieStart": false, "tieEnd": false, "tieGroup": 0}, {"pitch": 72, "vel": 92, "dur": 0.5, "tieStart": false, "tieEnd": false, "tieGroup": 0}, {"pitch": 75, "vel": 92, "dur": 0.5, "tieStart": false, "tieEnd": false, "tieGroup": 0}]}, {"start": 2.0, "dur": 0.5, "rest": true, "notes": []}, {"start": 2.5, "dur": 0.25, "rest": false, "notes": [{"pitch": 77, "vel": 96, "dur": 0.25, "tieStart": false, "tieEnd": false, "tieGroup": 23}]}, {"start": 2.75, "dur": 0.25, "rest": true, "notes": []}, {"start": 3.0, "dur": 0.5, "rest": false, "notes": [{"pitch": 61, "vel": 95, "dur": 0.5, "tieStart": false, "tieEnd": false, "tieGroup": 24}, {"pitch": 65, "vel": 95, "dur": 0.5, "tieStart": false, "tieEnd": false, "tieGroup": 0}, {"pitch": 68, "vel": 95, "dur": 0.5, "tieStart": false, "tieEnd": false, "tieGroup": 0}, {"pitch": 72, "vel": 95, "dur": 0.5, "tieStart": false, "tieEnd": false, "tieGroup": 0}, {"pitch": 75, "vel": 95, "dur": 0.5, "tieStart": false, "tieEnd": false, "tieGroup": 0}]}, {"start": 3.5, "dur": 0.5, "rest": true, "notes": []}]}, {"ts_num": 4, "ts_den": 4, "key_fifths": -4, "key_mode": 1, "clef": 0, "tempo": 104, "velocity": 100, "lyrics": "", "expr": [], "segs": [{"start": 0.0, "dur": 0.25, "rest": false, "notes": [{"pitch": 77, "vel": 98, "dur": 0.25, "tieStart": false, "tieEnd": false, "tieGroup": 0}]}, {"start": 0.25, "dur": 0.25, "rest": true, "notes": []}, {"start": 0.5, "dur": 0.5, "rest": false, "notes": [{"pitch": 58, "vel": 93, "dur": 0.5, "tieStart": false, "tieEnd": false, "tieGroup": 25}, {"pitch": 61, "vel": 93, "dur": 0.5, "tieStart": false, "tieEnd": false, "tieGroup": 0}, {"pitch": 65, "vel": 93, "dur": 0.5, "tieStart": false, "tieEnd": false, "tieGroup": 0}, {"pitch": 68, "vel": 93, "dur": 0.5, "tieStart": false, "tieEnd": false, "tieGroup": 0}, {"pitch": 72, "vel": 93, "dur": 0.5, "tieStart": false, "tieEnd": false, "tieGroup": 0}]}, {"start": 1.0, "dur": 0.5, "rest": true, "notes": []}, {"start": 1.5, "dur": 0.5, "rest": false, "notes": [{"pitch": 58, "vel": 91, "dur": 0.5, "tieStart": false, "tieEnd": false, "tieGroup": 26}, {"pitch": 61, "vel": 91, "dur": 0.5, "tieStart": false, "tieEnd": false, "tieGroup": 0}, {"pitch": 65, "vel": 91, "dur": 0.5, "tieStart": false, "tieEnd": false, "tieGroup": 0}, {"pitch": 68, "vel": 91, "dur": 0.5, "tieStart": false, "tieEnd": false, "tieGroup": 0}, {"pitch": 72, "vel": 91, "dur": 0.5, "tieStart": false, "tieEnd": false, "tieGroup": 0}]}, {"start": 2.0, "dur": 1.0, "rest": true, "notes": []}, {"start": 3.0, "dur": 0.25, "rest": false, "notes": [{"pitch": 73, "vel": 97, "dur": 0.25, "tieStart": false, "tieEnd": false, "tieGroup": 27}]}, {"start": 3.25, "dur": 0.25, "rest": true, "notes": []}, {"start": 3.5, "dur": 0.25, "rest": false, "notes": [{"pitch": 58, "vel": 94, "dur": 0.25, "tieStart": false, "tieEnd": false, "tieGroup": 28}, {"pitch": 61, "vel": 94, "dur": 0.25, "tieStart": false, "tieEnd": false, "tieGroup": 0}, {"pitch": 65, "vel": 94, "dur": 0.25, "tieStart": false, "tieEnd": false, "tieGroup": 0}, {"pitch": 68, "vel": 94, "dur": 0.25, "tieStart": false, "tieEnd": false, "tieGroup": 0}, {"pitch": 72, "vel": 94, "dur": 0.25, "tieStart": false, "tieEnd": false, "tieGroup": 0}]}, {"start": 3.75, "dur": 0.25, "rest": true, "notes": []}]}, {"ts_num": 4, "ts_den": 4, "key_fifths": -4, "key_mode": 1, "clef": 0, "tempo": 104, "velocity": 100, "lyrics": "", "expr": [], "segs": [{"start": 0.0, "dur": 0.75, "rest": false, "notes": [{"pitch": 60, "vel": 95, "dur": 0.75, "tieStart": false, "tieEnd": false, "tieGroup": 0}, {"pitch": 64, "vel": 95, "dur": 0.75, "tieStart": false, "tieEnd": false, "tieGroup": 0}, {"pitch": 70, "vel": 95, "dur": 0.75, "tieStart": false, "tieEnd": false, "tieGroup": 0}, {"pitch": 73, "vel": 95, "dur": 0.75, "tieStart": false, "tieEnd": false, "tieGroup": 0}, {"pitch": 80, "vel": 95, "dur": 0.75, "tieStart": false, "tieEnd": false, "tieGroup": 0}]}, {"start": 0.75, "dur": 0.5, "rest": true, "notes": []}, {"start": 1.25, "dur": 0.25, "rest": false, "notes": [{"pitch": 76, "vel": 99, "dur": 0.25, "tieStart": false, "tieEnd": false, "tieGroup": 29}]}, {"start": 1.5, "dur": 0.5, "rest": true, "notes": []}, {"start": 2.0, "dur": 0.5, "rest": false, "notes": [{"pitch": 60, "vel": 92, "dur": 0.5, "tieStart": false, "tieEnd": false, "tieGroup": 30}, {"pitch": 64, "vel": 92, "dur": 0.5, "tieStart": false, "tieEnd": false, "tieGroup": 0}, {"pitch": 70, "vel": 92, "dur": 0.5, "tieStart": false, "tieEnd": false, "tieGroup": 0}, {"pitch": 73, "vel": 92, "dur": 0.5, "tieStart": false, "tieEnd": false, "tieGroup": 0}, {"pitch": 80, "vel": 92, "dur": 0.5, "tieStart": false, "tieEnd": false, "tieGroup": 0}]}, {"start": 2.5, "dur": 0.25, "rest": true, "notes": []}, {"start": 2.75, "dur": 0.25, "rest": false, "notes": [{"pitch": 73, "vel": 97, "dur": 0.25, "tieStart": false, "tieEnd": false, "tieGroup": 31}]}, {"start": 3.0, "dur": 0.25, "rest": true, "notes": []}, {"start": 3.25, "dur": 0.25, "rest": false, "notes": [{"pitch": 60, "vel": 93, "dur": 0.25, "tieStart": false, "tieEnd": false, "tieGroup": 32}, {"pitch": 64, "vel": 93, "dur": 0.25, "tieStart": false, "tieEnd": false, "tieGroup": 0}, {"pitch": 70, "vel": 93, "dur": 0.25, "tieStart": false, "tieEnd": false, "tieGroup": 0}, {"pitch": 73, "vel": 93, "dur": 0.25, "tieStart": false, "tieEnd": false, "tieGroup": 0}, {"pitch": 80, "vel": 93, "dur": 0.25, "tieStart": false, "tieEnd": false, "tieGroup": 0}]}, {"start": 3.5, "dur": 0.5, "rest": true, "notes": []}]}, {"ts_num": 4, "ts_den": 4, "key_fifths": -4, "key_mode": 1, "clef": 0, "tempo": 104, "velocity": 100, "lyrics": "", "expr": [], "segs": [{"start": 0.0, "dur": 0.5, "rest": false, "notes": [{"pitch": 56, "vel": 94, "dur": 0.5, "tieStart": false, "tieEnd": false, "tieGroup": 0}, {"pitch": 60, "vel": 94, "dur": 0.5, "tieStart": false, "tieEnd": false, "tieGroup": 0}, {"pitch": 63, "vel": 94, "dur": 0.5, "tieStart": false, "tieEnd": false, "tieGroup": 0}, {"pitch": 67, "vel": 94, "dur": 0.5, "tieStart": false, "tieEnd": false, "tieGroup": 0}, {"pitch": 70, "vel": 94, "dur": 0.5, "tieStart": false, "tieEnd": false, "tieGroup": 0}]}, {"start": 0.5, "dur": 0.25, "rest": true, "notes": []}, {"start": 0.75, "dur": 0.25, "rest": false, "notes": [{"pitch": 79, "vel": 98, "dur": 0.25, "tieStart": false, "tieEnd": false, "tieGroup": 33}]}, {"start": 1.0, "dur": 0.5, "rest": true, "notes": []}, {"start": 1.5, "dur": 0.5, "rest": false, "notes": [{"pitch": 56, "vel": 92, "dur": 0.5, "tieStart": false, "tieEnd": false, "tieGroup": 34}, {"pitch": 60, "vel": 92, "dur": 0.5, "tieStart": false, "tieEnd": false, "tieGroup": 0}, {"pitch": 63, "vel": 92, "dur": 0.5, "tieStart": false, "tieEnd": false, "tieGroup": 0}, {"pitch": 67, "vel": 92, "dur": 0.5, "tieStart": false, "tieEnd": false, "tieGroup": 0}, {"pitch": 70, "vel": 92, "dur": 0.5, "tieStart": false, "tieEnd": false, "tieGroup": 0}]}, {"start": 2.0, "dur": 0.5, "rest": true, "notes": []}, {"start": 2.5, "dur": 0.25, "rest": false, "notes": [{"pitch": 82, "vel": 96, "dur": 0.25, "tieStart": false, "tieEnd": false, "tieGroup": 35}]}, {"start": 2.75, "dur": 0.25, "rest": true, "notes": []}, {"start": 3.0, "dur": 0.5, "rest": false, "notes": [{"pitch": 56, "vel": 95, "dur": 0.5, "tieStart": false, "tieEnd": false, "tieGroup": 36}, {"pitch": 60, "vel": 95, "dur": 0.5, "tieStart": false, "tieEnd": false, "tieGroup": 0}, {"pitch": 63, "vel": 95, "dur": 0.5, "tieStart": false, "tieEnd": false, "tieGroup": 0}, {"pitch": 67, "vel": 95, "dur": 0.5, "tieStart": false, "tieEnd": false, "tieGroup": 0}, {"pitch": 70, "vel": 95, "dur": 0.5, "tieStart": false, "tieEnd": false, "tieGroup": 0}]}, {"start": 3.5, "dur": 0.5, "rest": true, "notes": []}]}, {"ts_num": 4, "ts_den": 4, "key_fifths": -4, "key_mode": 1, "clef": 0, "tempo": 104, "velocity": 100, "lyrics": "", "expr": [], "segs": [{"start": 0.0, "dur": 0.25, "rest": false, "notes": [{"pitch": 77, "vel": 98, "dur": 0.25, "tieStart": false, "tieEnd": false, "tieGroup": 0}]}, {"start": 0.25, "dur": 0.25, "rest": true, "notes": []}, {"start": 0.5, "dur": 0.5, "rest": false, "notes": [{"pitch": 63, "vel": 93, "dur": 0.5, "tieStart": false, "tieEnd": false, "tieGroup": 37}, {"pitch": 68, "vel": 93, "dur": 0.5, "tieStart": false, "tieEnd": false, "tieGroup": 0}, {"pitch": 73, "vel": 93, "dur": 0.5, "tieStart": false, "tieEnd": false, "tieGroup": 0}, {"pitch": 77, "vel": 93, "dur": 0.5, "tieStart": false, "tieEnd": false, "tieGroup": 0}, {"pitch": 84, "vel": 93, "dur": 0.5, "tieStart": false, "tieEnd": false, "tieGroup": 0}]}, {"start": 1.0, "dur": 0.5, "rest": true, "notes": []}, {"start": 1.5, "dur": 0.5, "rest": false, "notes": [{"pitch": 63, "vel": 91, "dur": 0.5, "tieStart": false, "tieEnd": false, "tieGroup": 38}, {"pitch": 68, "vel": 91, "dur": 0.5, "tieStart": false, "tieEnd": false, "tieGroup": 0}, {"pitch": 73, "vel": 91, "dur": 0.5, "tieStart": false, "tieEnd": false, "tieGroup": 0}, {"pitch": 77, "vel": 91, "dur": 0.5, "tieStart": false, "tieEnd": false, "tieGroup": 0}, {"pitch": 84, "vel": 91, "dur": 0.5, "tieStart": false, "tieEnd": false, "tieGroup": 0}]}, {"start": 2.0, "dur": 1.0, "rest": true, "notes": []}, {"start": 3.0, "dur": 0.25, "rest": false, "notes": [{"pitch": 84, "vel": 97, "dur": 0.25, "tieStart": false, "tieEnd": false, "tieGroup": 39}]}, {"start": 3.25, "dur": 0.25, "rest": true, "notes": []}, {"start": 3.5, "dur": 0.25, "rest": false, "notes": [{"pitch": 63, "vel": 94, "dur": 0.25, "tieStart": false, "tieEnd": false, "tieGroup": 40}, {"pitch": 68, "vel": 94, "dur": 0.25, "tieStart": false, "tieEnd": false, "tieGroup": 0}, {"pitch": 73, "vel": 94, "dur": 0.25, "tieStart": false, "tieEnd": false, "tieGroup": 0}, {"pitch": 77, "vel": 94, "dur": 0.25, "tieStart": false, "tieEnd": false, "tieGroup": 0}, {"pitch": 84, "vel": 94, "dur": 0.25, "tieStart": false, "tieEnd": false, "tieGroup": 0}]}, {"start": 3.75, "dur": 0.25, "rest": true, "notes": []}]}, {"ts_num": 4, "ts_den": 4, "key_fifths": -4, "key_mode": 1, "clef": 0, "tempo": 104, "velocity": 100, "lyrics": "", "expr": [], "segs": [{"start": 0.0, "dur": 0.5, "rest": false, "notes": [{"pitch": 58, "vel": 94, "dur": 0.5, "tieStart": false, "tieEnd": false, "tieGroup": 0}, {"pitch": 61, "vel": 94, "dur": 0.5, "tieStart": false, "tieEnd": false, "tieGroup": 0}, {"pitch": 65, "vel": 94, "dur": 0.5, "tieStart": false, "tieEnd": false, "tieGroup": 0}, {"pitch": 68, "vel": 94, "dur": 0.5, "tieStart": false, "tieEnd": false, "tieGroup": 0}, {"pitch": 72, "vel": 94, "dur": 0.5, "tieStart": false, "tieEnd": false, "tieGroup": 0}]}, {"start": 0.5, "dur": 0.25, "rest": true, "notes": []}, {"start": 0.75, "dur": 0.25, "rest": false, "notes": [{"pitch": 77, "vel": 98, "dur": 0.25, "tieStart": false, "tieEnd": false, "tieGroup": 41}]}, {"start": 1.0, "dur": 0.5, "rest": true, "notes": []}, {"start": 1.5, "dur": 0.5, "rest": false, "notes": [{"pitch": 58, "vel": 92, "dur": 0.5, "tieStart": false, "tieEnd": false, "tieGroup": 42}, {"pitch": 61, "vel": 92, "dur": 0.5, "tieStart": false, "tieEnd": false, "tieGroup": 0}, {"pitch": 65, "vel": 92, "dur": 0.5, "tieStart": false, "tieEnd": false, "tieGroup": 0}, {"pitch": 68, "vel": 92, "dur": 0.5, "tieStart": false, "tieEnd": false, "tieGroup": 0}, {"pitch": 72, "vel": 92, "dur": 0.5, "tieStart": false, "tieEnd": false, "tieGroup": 0}]}, {"start": 2.0, "dur": 0.5, "rest": true, "notes": []}, {"start": 2.5, "dur": 0.25, "rest": false, "notes": [{"pitch": 73, "vel": 96, "dur": 0.25, "tieStart": false, "tieEnd": false, "tieGroup": 43}]}, {"start": 2.75, "dur": 0.25, "rest": true, "notes": []}, {"start": 3.0, "dur": 0.5, "rest": false, "notes": [{"pitch": 58, "vel": 95, "dur": 0.5, "tieStart": false, "tieEnd": false, "tieGroup": 44}, {"pitch": 61, "vel": 95, "dur": 0.5, "tieStart": false, "tieEnd": false, "tieGroup": 0}, {"pitch": 65, "vel": 95, "dur": 0.5, "tieStart": false, "tieEnd": false, "tieGroup": 0}, {"pitch": 68, "vel": 95, "dur": 0.5, "tieStart": false, "tieEnd": false, "tieGroup": 0}, {"pitch": 72, "vel": 95, "dur": 0.5, "tieStart": false, "tieEnd": false, "tieGroup": 0}]}, {"start": 3.5, "dur": 0.5, "rest": true, "notes": []}]}, {"ts_num": 4, "ts_den": 4, "key_fifths": -4, "key_mode": 1, "clef": 0, "tempo": 104, "velocity": 100, "lyrics": "", "expr": [], "segs": [{"start": 0.0, "dur": 0.75, "rest": false, "notes": [{"pitch": 60, "vel": 95, "dur": 0.75, "tieStart": false, "tieEnd": false, "tieGroup": 0}, {"pitch": 64, "vel": 95, "dur": 0.75, "tieStart": false, "tieEnd": false, "tieGroup": 0}, {"pitch": 70, "vel": 95, "dur": 0.75, "tieStart": false, "tieEnd": false, "tieGroup": 0}, {"pitch": 73, "vel": 95, "dur": 0.75, "tieStart": false, "tieEnd": false, "tieGroup": 0}, {"pitch": 80, "vel": 95, "dur": 0.75, "tieStart": false, "tieEnd": false, "tieGroup": 0}]}, {"start": 0.75, "dur": 0.5, "rest": true, "notes": []}, {"start": 1.25, "dur": 0.25, "rest": false, "notes": [{"pitch": 76, "vel": 99, "dur": 0.25, "tieStart": false, "tieEnd": false, "tieGroup": 45}]}, {"start": 1.5, "dur": 0.5, "rest": true, "notes": []}, {"start": 2.0, "dur": 0.5, "rest": false, "notes": [{"pitch": 60, "vel": 92, "dur": 0.5, "tieStart": false, "tieEnd": false, "tieGroup": 46}, {"pitch": 64, "vel": 92, "dur": 0.5, "tieStart": false, "tieEnd": false, "tieGroup": 0}, {"pitch": 70, "vel": 92, "dur": 0.5, "tieStart": false, "tieEnd": false, "tieGroup": 0}, {"pitch": 73, "vel": 92, "dur": 0.5, "tieStart": false, "tieEnd": false, "tieGroup": 0}, {"pitch": 80, "vel": 92, "dur": 0.5, "tieStart": false, "tieEnd": false, "tieGroup": 0}]}, {"start": 2.5, "dur": 0.25, "rest": true, "notes": []}, {"start": 2.75, "dur": 0.25, "rest": false, "notes": [{"pitch": 73, "vel": 97, "dur": 0.25, "tieStart": false, "tieEnd": false, "tieGroup": 47}]}, {"start": 3.0, "dur": 0.25, "rest": true, "notes": []}, {"start": 3.25, "dur": 0.25, "rest": false, "notes": [{"pitch": 60, "vel": 93, "dur": 0.25, "tieStart": false, "tieEnd": false, "tieGroup": 48}, {"pitch": 64, "vel": 93, "dur": 0.25, "tieStart": false, "tieEnd": false, "tieGroup": 0}, {"pitch": 70, "vel": 93, "dur": 0.25, "tieStart": false, "tieEnd": false, "tieGroup": 0}, {"pitch": 73, "vel": 93, "dur": 0.25, "tieStart": false, "tieEnd": false, "tieGroup": 0}, {"pitch": 80, "vel": 93, "dur": 0.25, "tieStart": false, "tieEnd": false, "tieGroup": 0}]}, {"start": 3.5, "dur": 0.5, "rest": true, "notes": []}]}, {"ts_num": 4, "ts_den": 4, "key_fifths": -4, "key_mode": 1, "clef": 0, "tempo": 104, "velocity": 100, "lyrics": "", "expr": [], "segs": [{"start": 0.0, "dur": 0.5, "rest": false, "notes": [{"pitch": 65, "vel": 94, "dur": 0.5, "tieStart": false, "tieEnd": false, "tieGroup": 0}, {"pitch": 68, "vel": 94, "dur": 0.5, "tieStart": false, "tieEnd": false, "tieGroup": 0}, {"pitch": 72, "vel": 94, "dur": 0.5, "tieStart": false, "tieEnd": false, "tieGroup": 0}, {"pitch": 75, "vel": 94, "dur": 0.5, "tieStart": false, "tieEnd": false, "tieGroup": 0}, {"pitch": 79, "vel": 94, "dur": 0.5, "tieStart": false, "tieEnd": false, "tieGroup": 0}]}, {"start": 0.5, "dur": 0.25, "rest": true, "notes": []}, {"start": 0.75, "dur": 0.25, "rest": false, "notes": [{"pitch": 84, "vel": 98, "dur": 0.25, "tieStart": false, "tieEnd": false, "tieGroup": 49}]}, {"start": 1.0, "dur": 0.5, "rest": true, "notes": []}, {"start": 1.5, "dur": 0.5, "rest": false, "notes": [{"pitch": 65, "vel": 92, "dur": 0.5, "tieStart": false, "tieEnd": false, "tieGroup": 50}, {"pitch": 68, "vel": 92, "dur": 0.5, "tieStart": false, "tieEnd": false, "tieGroup": 0}, {"pitch": 72, "vel": 92, "dur": 0.5, "tieStart": false, "tieEnd": false, "tieGroup": 0}, {"pitch": 75, "vel": 92, "dur": 0.5, "tieStart": false, "tieEnd": false, "tieGroup": 0}, {"pitch": 79, "vel": 92, "dur": 0.5, "tieStart": false, "tieEnd": false, "tieGroup": 0}]}, {"start": 2.0, "dur": 0.5, "rest": true, "notes": []}, {"start": 2.5, "dur": 0.25, "rest": false, "notes": [{"pitch": 87, "vel": 96, "dur": 0.25, "tieStart": false, "tieEnd": false, "tieGroup": 51}]}, {"start": 2.75, "dur": 0.25, "rest": true, "notes": []}, {"start": 3.0, "dur": 0.5, "rest": false, "notes": [{"pitch": 65, "vel": 95, "dur": 0.5, "tieStart": false, "tieEnd": false, "tieGroup": 52}, {"pitch": 68, "vel": 95, "dur": 0.5, "tieStart": false, "tieEnd": false, "tieGroup": 0}, {"pitch": 72, "vel": 95, "dur": 0.5, "tieStart": false, "tieEnd": false, "tieGroup": 0}, {"pitch": 75, "vel": 95, "dur": 0.5, "tieStart": false, "tieEnd": false, "tieGroup": 0}, {"pitch": 79, "vel": 95, "dur": 0.5, "tieStart": false, "tieEnd": false, "tieGroup": 0}]}, {"start": 3.5, "dur": 0.5, "rest": true, "notes": []}]}, {"ts_num": 4, "ts_den": 4, "key_fifths": -4, "key_mode": 1, "clef": 0, "tempo": 104, "velocity": 100, "lyrics": "", "expr": [], "segs": [{"start": 0.0, "dur": 0.5, "rest": false, "notes": [{"pitch": 61, "vel": 94, "dur": 0.5, "tieStart": false, "tieEnd": false, "tieGroup": 0}, {"pitch": 65, "vel": 94, "dur": 0.5, "tieStart": false, "tieEnd": false, "tieGroup": 0}, {"pitch": 68, "vel": 94, "dur": 0.5, "tieStart": false, "tieEnd": false, "tieGroup": 0}, {"pitch": 72, "vel": 94, "dur": 0.5, "tieStart": false, "tieEnd": false, "tieGroup": 0}, {"pitch": 75, "vel": 94, "dur": 0.5, "tieStart": false, "tieEnd": false, "tieGroup": 0}]}, {"start": 0.5, "dur": 0.25, "rest": true, "notes": []}, {"start": 0.75, "dur": 0.25, "rest": false, "notes": [{"pitch": 80, "vel": 98, "dur": 0.25, "tieStart": false, "tieEnd": false, "tieGroup": 53}]}, {"start": 1.0, "dur": 0.5, "rest": true, "notes": []}, {"start": 1.5, "dur": 0.5, "rest": false, "notes": [{"pitch": 61, "vel": 92, "dur": 0.5, "tieStart": false, "tieEnd": false, "tieGroup": 54}, {"pitch": 65, "vel": 92, "dur": 0.5, "tieStart": false, "tieEnd": false, "tieGroup": 0}, {"pitch": 68, "vel": 92, "dur": 0.5, "tieStart": false, "tieEnd": false, "tieGroup": 0}, {"pitch": 72, "vel": 92, "dur": 0.5, "tieStart": false, "tieEnd": false, "tieGroup": 0}, {"pitch": 75, "vel": 92, "dur": 0.5, "tieStart": false, "tieEnd": false, "tieGroup": 0}]}, {"start": 2.0, "dur": 0.5, "rest": true, "notes": []}, {"start": 2.5, "dur": 0.25, "rest": false, "notes": [{"pitch": 77, "vel": 96, "dur": 0.25, "tieStart": false, "tieEnd": false, "tieGroup": 55}]}, {"start": 2.75, "dur": 0.25, "rest": true, "notes": []}, {"start": 3.0, "dur": 0.5, "rest": false, "notes": [{"pitch": 61, "vel": 95, "dur": 0.5, "tieStart": false, "tieEnd": false, "tieGroup": 56}, {"pitch": 65, "vel": 95, "dur": 0.5, "tieStart": false, "tieEnd": false, "tieGroup": 0}, {"pitch": 68, "vel": 95, "dur": 0.5, "tieStart": false, "tieEnd": false, "tieGroup": 0}, {"pitch": 72, "vel": 95, "dur": 0.5, "tieStart": false, "tieEnd": false, "tieGroup": 0}, {"pitch": 75, "vel": 95, "dur": 0.5, "tieStart": false, "tieEnd": false, "tieGroup": 0}]}, {"start": 3.5, "dur": 0.5, "rest": true, "notes": []}]}, {"ts_num": 4, "ts_den": 4, "key_fifths": -4, "key_mode": 1, "clef": 0, "tempo": 104, "velocity": 100, "lyrics": "", "expr": [], "segs": [{"start": 0.0, "dur": 0.75, "rest": false, "notes": [{"pitch": 56, "vel": 95, "dur": 0.75, "tieStart": false, "tieEnd": false, "tieGroup": 0}, {"pitch": 60, "vel": 95, "dur": 0.75, "tieStart": false, "tieEnd": false, "tieGroup": 0}, {"pitch": 63, "vel": 95, "dur": 0.75, "tieStart": false, "tieEnd": false, "tieGroup": 0}, {"pitch": 67, "vel": 95, "dur": 0.75, "tieStart": false, "tieEnd": false, "tieGroup": 0}, {"pitch": 70, "vel": 95, "dur": 0.75, "tieStart": false, "tieEnd": false, "tieGroup": 0}]}, {"start": 0.75, "dur": 0.5, "rest": true, "notes": []}, {"start": 1.25, "dur": 0.25, "rest": false, "notes": [{"pitch": 79, "vel": 99, "dur": 0.25, "tieStart": false, "tieEnd": false, "tieGroup": 57}]}, {"start": 1.5, "dur": 0.5, "rest": true, "notes": []}, {"start": 2.0, "dur": 0.5, "rest": false, "notes": [{"pitch": 56, "vel": 92, "dur": 0.5, "tieStart": false, "tieEnd": false, "tieGroup": 58}, {"pitch": 60, "vel": 92, "dur": 0.5, "tieStart": false, "tieEnd": false, "tieGroup": 0}, {"pitch": 63, "vel": 92, "dur": 0.5, "tieStart": false, "tieEnd": false, "tieGroup": 0}, {"pitch": 67, "vel": 92, "dur": 0.5, "tieStart": false, "tieEnd": false, "tieGroup": 0}, {"pitch": 70, "vel": 92, "dur": 0.5, "tieStart": false, "tieEnd": false, "tieGroup": 0}]}, {"start": 2.5, "dur": 0.25, "rest": true, "notes": []}, {"start": 2.75, "dur": 0.25, "rest": false, "notes": [{"pitch": 82, "vel": 97, "dur": 0.25, "tieStart": false, "tieEnd": false, "tieGroup": 59}]}, {"start": 3.0, "dur": 0.25, "rest": true, "notes": []}, {"start": 3.25, "dur": 0.25, "rest": false, "notes": [{"pitch": 56, "vel": 93, "dur": 0.25, "tieStart": false, "tieEnd": false, "tieGroup": 60}, {"pitch": 60, "vel": 93, "dur": 0.25, "tieStart": false, "tieEnd": false, "tieGroup": 0}, {"pitch": 63, "vel": 93, "dur": 0.25, "tieStart": false, "tieEnd": false, "tieGroup": 0}, {"pitch": 67, "vel": 93, "dur": 0.25, "tieStart": false, "tieEnd": false, "tieGroup": 0}, {"pitch": 70, "vel": 93, "dur": 0.25, "tieStart": false, "tieEnd": false, "tieGroup": 0}]}, {"start": 3.5, "dur": 0.5, "rest": true, "notes": []}]}, {"ts_num": 4, "ts_den": 4, "key_fifths": -4, "key_mode": 1, "clef": 0, "tempo": 104, "velocity": 100, "lyrics": "", "expr": [], "segs": [{"start": 0.0, "dur": 0.5, "rest": false, "notes": [{"pitch": 63, "vel": 94, "dur": 0.5, "tieStart": false, "tieEnd": false, "tieGroup": 0}, {"pitch": 68, "vel": 94, "dur": 0.5, "tieStart": false, "tieEnd": false, "tieGroup": 0}, {"pitch": 73, "vel": 94, "dur": 0.5, "tieStart": false, "tieEnd": false, "tieGroup": 0}, {"pitch": 77, "vel": 94, "dur": 0.5, "tieStart": false, "tieEnd": false, "tieGroup": 0}, {"pitch": 84, "vel": 94, "dur": 0.5, "tieStart": false, "tieEnd": false, "tieGroup": 0}]}, {"start": 0.5, "dur": 0.25, "rest": true, "notes": []}, {"start": 0.75, "dur": 0.25, "rest": false, "notes": [{"pitch": 77, "vel": 98, "dur": 0.25, "tieStart": false, "tieEnd": false, "tieGroup": 61}]}, {"start": 1.0, "dur": 0.5, "rest": true, "notes": []}, {"start": 1.5, "dur": 0.5, "rest": false, "notes": [{"pitch": 63, "vel": 92, "dur": 0.5, "tieStart": false, "tieEnd": false, "tieGroup": 62}, {"pitch": 68, "vel": 92, "dur": 0.5, "tieStart": false, "tieEnd": false, "tieGroup": 0}, {"pitch": 73, "vel": 92, "dur": 0.5, "tieStart": false, "tieEnd": false, "tieGroup": 0}, {"pitch": 77, "vel": 92, "dur": 0.5, "tieStart": false, "tieEnd": false, "tieGroup": 0}, {"pitch": 84, "vel": 92, "dur": 0.5, "tieStart": false, "tieEnd": false, "tieGroup": 0}]}, {"start": 2.0, "dur": 0.5, "rest": true, "notes": []}, {"start": 2.5, "dur": 0.25, "rest": false, "notes": [{"pitch": 84, "vel": 96, "dur": 0.25, "tieStart": false, "tieEnd": false, "tieGroup": 63}]}, {"start": 2.75, "dur": 0.25, "rest": true, "notes": []}, {"start": 3.0, "dur": 0.5, "rest": false, "notes": [{"pitch": 63, "vel": 95, "dur": 0.5, "tieStart": false, "tieEnd": false, "tieGroup": 64}, {"pitch": 68, "vel": 95, "dur": 0.5, "tieStart": false, "tieEnd": false, "tieGroup": 0}, {"pitch": 73, "vel": 95, "dur": 0.5, "tieStart": false, "tieEnd": false, "tieGroup": 0}, {"pitch": 77, "vel": 95, "dur": 0.5, "tieStart": false, "tieEnd": false, "tieGroup": 0}, {"pitch": 84, "vel": 95, "dur": 0.5, "tieStart": false, "tieEnd": false, "tieGroup": 0}]}, {"start": 3.5, "dur": 0.5, "rest": true, "notes": []}]}, {"ts_num": 4, "ts_den": 4, "key_fifths": -4, "key_mode": 1, "clef": 0, "tempo": 104, "velocity": 100, "lyrics": "", "expr": [], "segs": [{"start": 0.0, "dur": 0.25, "rest": false, "notes": [{"pitch": 77, "vel": 98, "dur": 0.25, "tieStart": false, "tieEnd": false, "tieGroup": 0}]}, {"start": 0.25, "dur": 0.25, "rest": true, "notes": []}, {"start": 0.5, "dur": 0.5, "rest": false, "notes": [{"pitch": 58, "vel": 93, "dur": 0.5, "tieStart": false, "tieEnd": false, "tieGroup": 65}, {"pitch": 61, "vel": 93, "dur": 0.5, "tieStart": false, "tieEnd": false, "tieGroup": 0}, {"pitch": 65, "vel": 93, "dur": 0.5, "tieStart": false, "tieEnd": false, "tieGroup": 0}, {"pitch": 68, "vel": 93, "dur": 0.5, "tieStart": false, "tieEnd": false, "tieGroup": 0}, {"pitch": 72, "vel": 93, "dur": 0.5, "tieStart": false, "tieEnd": false, "tieGroup": 0}]}, {"start": 1.0, "dur": 0.5, "rest": true, "notes": []}, {"start": 1.5, "dur": 0.5, "rest": false, "notes": [{"pitch": 58, "vel": 91, "dur": 0.5, "tieStart": false, "tieEnd": false, "tieGroup": 66}, {"pitch": 61, "vel": 91, "dur": 0.5, "tieStart": false, "tieEnd": false, "tieGroup": 0}, {"pitch": 65, "vel": 91, "dur": 0.5, "tieStart": false, "tieEnd": false, "tieGroup": 0}, {"pitch": 68, "vel": 91, "dur": 0.5, "tieStart": false, "tieEnd": false, "tieGroup": 0}, {"pitch": 72, "vel": 91, "dur": 0.5, "tieStart": false, "tieEnd": false, "tieGroup": 0}]}, {"start": 2.0, "dur": 1.0, "rest": true, "notes": []}, {"start": 3.0, "dur": 0.25, "rest": false, "notes": [{"pitch": 73, "vel": 97, "dur": 0.25, "tieStart": false, "tieEnd": false, "tieGroup": 67}]}, {"start": 3.25, "dur": 0.25, "rest": true, "notes": []}, {"start": 3.5, "dur": 0.25, "rest": false, "notes": [{"pitch": 58, "vel": 94, "dur": 0.25, "tieStart": false, "tieEnd": false, "tieGroup": 68}, {"pitch": 61, "vel": 94, "dur": 0.25, "tieStart": false, "tieEnd": false, "tieGroup": 0}, {"pitch": 65, "vel": 94, "dur": 0.25, "tieStart": false, "tieEnd": false, "tieGroup": 0}, {"pitch": 68, "vel": 94, "dur": 0.25, "tieStart": false, "tieEnd": false, "tieGroup": 0}, {"pitch": 72, "vel": 94, "dur": 0.25, "tieStart": false, "tieEnd": false, "tieGroup": 0}]}, {"start": 3.75, "dur": 0.25, "rest": true, "notes": []}]}, {"ts_num": 4, "ts_den": 4, "key_fifths": -4, "key_mode": 1, "clef": 0, "tempo": 104, "velocity": 100, "lyrics": "", "expr": [], "segs": [{"start": 0.0, "dur": 0.75, "rest": false, "notes": [{"pitch": 60, "vel": 95, "dur": 0.75, "tieStart": false, "tieEnd": false, "tieGroup": 0}, {"pitch": 64, "vel": 95, "dur": 0.75, "tieStart": false, "tieEnd": false, "tieGroup": 0}, {"pitch": 70, "vel": 95, "dur": 0.75, "tieStart": false, "tieEnd": false, "tieGroup": 0}, {"pitch": 73, "vel": 95, "dur": 0.75, "tieStart": false, "tieEnd": false, "tieGroup": 0}, {"pitch": 80, "vel": 95, "dur": 0.75, "tieStart": false, "tieEnd": false, "tieGroup": 0}]}, {"start": 0.75, "dur": 0.5, "rest": true, "notes": []}, {"start": 1.25, "dur": 0.25, "rest": false, "notes": [{"pitch": 76, "vel": 99, "dur": 0.25, "tieStart": false, "tieEnd": false, "tieGroup": 69}]}, {"start": 1.5, "dur": 0.5, "rest": true, "notes": []}, {"start": 2.0, "dur": 0.5, "rest": false, "notes": [{"pitch": 60, "vel": 92, "dur": 0.5, "tieStart": false, "tieEnd": false, "tieGroup": 70}, {"pitch": 64, "vel": 92, "dur": 0.5, "tieStart": false, "tieEnd": false, "tieGroup": 0}, {"pitch": 70, "vel": 92, "dur": 0.5, "tieStart": false, "tieEnd": false, "tieGroup": 0}, {"pitch": 73, "vel": 92, "dur": 0.5, "tieStart": false, "tieEnd": false, "tieGroup": 0}, {"pitch": 80, "vel": 92, "dur": 0.5, "tieStart": false, "tieEnd": false, "tieGroup": 0}]}, {"start": 2.5, "dur": 0.25, "rest": true, "notes": []}, {"start": 2.75, "dur": 0.25, "rest": false, "notes": [{"pitch": 73, "vel": 97, "dur": 0.25, "tieStart": false, "tieEnd": false, "tieGroup": 71}]}, {"start": 3.0, "dur": 0.25, "rest": true, "notes": []}, {"start": 3.25, "dur": 0.25, "rest": false, "notes": [{"pitch": 60, "vel": 93, "dur": 0.25, "tieStart": false, "tieEnd": false, "tieGroup": 72}, {"pitch": 64, "vel": 93, "dur": 0.25, "tieStart": false, "tieEnd": false, "tieGroup": 0}, {"pitch": 70, "vel": 93, "dur": 0.25, "tieStart": false, "tieEnd": false, "tieGroup": 0}, {"pitch": 73, "vel": 93, "dur": 0.25, "tieStart": false, "tieEnd": false, "tieGroup": 0}, {"pitch": 80, "vel": 93, "dur": 0.25, "tieStart": false, "tieEnd": false, "tieGroup": 0}]}, {"start": 3.5, "dur": 0.5, "rest": true, "notes": []}]}, {"ts_num": 4, "ts_den": 4, "key_fifths": -4, "key_mode": 1, "clef": 0, "tempo": 104, "velocity": 100, "lyrics": "", "expr": [], "segs": [{"start": 0.0, "dur": 0.5, "rest": false, "notes": [{"pitch": 65, "vel": 94, "dur": 0.5, "tieStart": false, "tieEnd": false, "tieGroup": 0}, {"pitch": 68, "vel": 94, "dur": 0.5, "tieStart": false, "tieEnd": false, "tieGroup": 0}, {"pitch": 72, "vel": 94, "dur": 0.5, "tieStart": false, "tieEnd": false, "tieGroup": 0}, {"pitch": 75, "vel": 94, "dur": 0.5, "tieStart": false, "tieEnd": false, "tieGroup": 0}, {"pitch": 79, "vel": 94, "dur": 0.5, "tieStart": false, "tieEnd": false, "tieGroup": 0}]}, {"start": 0.5, "dur": 0.25, "rest": true, "notes": []}, {"start": 0.75, "dur": 0.25, "rest": false, "notes": [{"pitch": 84, "vel": 98, "dur": 0.25, "tieStart": false, "tieEnd": false, "tieGroup": 73}]}, {"start": 1.0, "dur": 0.5, "rest": true, "notes": []}, {"start": 1.5, "dur": 0.5, "rest": false, "notes": [{"pitch": 65, "vel": 92, "dur": 0.5, "tieStart": false, "tieEnd": false, "tieGroup": 74}, {"pitch": 68, "vel": 92, "dur": 0.5, "tieStart": false, "tieEnd": false, "tieGroup": 0}, {"pitch": 72, "vel": 92, "dur": 0.5, "tieStart": false, "tieEnd": false, "tieGroup": 0}, {"pitch": 75, "vel": 92, "dur": 0.5, "tieStart": false, "tieEnd": false, "tieGroup": 0}, {"pitch": 79, "vel": 92, "dur": 0.5, "tieStart": false, "tieEnd": false, "tieGroup": 0}]}, {"start": 2.0, "dur": 0.5, "rest": true, "notes": []}, {"start": 2.5, "dur": 0.25, "rest": false, "notes": [{"pitch": 87, "vel": 96, "dur": 0.25, "tieStart": false, "tieEnd": false, "tieGroup": 75}]}, {"start": 2.75, "dur": 0.25, "rest": true, "notes": []}, {"start": 3.0, "dur": 0.5, "rest": false, "notes": [{"pitch": 65, "vel": 95, "dur": 0.5, "tieStart": false, "tieEnd": false, "tieGroup": 76}, {"pitch": 68, "vel": 95, "dur": 0.5, "tieStart": false, "tieEnd": false, "tieGroup": 0}, {"pitch": 72, "vel": 95, "dur": 0.5, "tieStart": false, "tieEnd": false, "tieGroup": 0}, {"pitch": 75, "vel": 95, "dur": 0.5, "tieStart": false, "tieEnd": false, "tieGroup": 0}, {"pitch": 79, "vel": 95, "dur": 0.5, "tieStart": false, "tieEnd": false, "tieGroup": 0}]}, {"start": 3.5, "dur": 0.5, "rest": true, "notes": []}]}, {"ts_num": 4, "ts_den": 4, "key_fifths": -4, "key_mode": 1, "clef": 0, "tempo": 104, "velocity": 100, "lyrics": "", "expr": [], "segs": [{"start": 0.0, "dur": 1.0, "rest": false, "notes": [{"pitch": 65, "vel": 98, "dur": 1.0, "tieStart": false, "tieEnd": false, "tieGroup": 0}, {"pitch": 68, "vel": 98, "dur": 1.0, "tieStart": false, "tieEnd": false, "tieGroup": 0}, {"pitch": 72, "vel": 98, "dur": 1.0, "tieStart": false, "tieEnd": false, "tieGroup": 0}, {"pitch": 75, "vel": 98, "dur": 1.0, "tieStart": false, "tieEnd": false, "tieGroup": 0}, {"pitch": 79, "vel": 98, "dur": 1.0, "tieStart": false, "tieEnd": false, "tieGroup": 0}]}, {"start": 1.0, "dur": 0.5, "rest": true, "notes": []}, {"start": 1.5, "dur": 0.5, "rest": false, "notes": [{"pitch": 84, "vel": 100, "dur": 0.5, "tieStart": false, "tieEnd": false, "tieGroup": 77}]}, {"start": 2.0, "dur": 0.5, "rest": true, "notes": []}, {"start": 2.5, "dur": 1.0, "rest": false, "notes": [{"pitch": 65, "vel": 102, "dur": 1.0, "tieStart": false, "tieEnd": false, "tieGroup": 78}, {"pitch": 68, "vel": 102, "dur": 1.0, "tieStart": false, "tieEnd": false, "tieGroup": 0}, {"pitch": 72, "vel": 102, "dur": 1.0, "tieStart": false, "tieEnd": false, "tieGroup": 0}, {"pitch": 75, "vel": 102, "dur": 1.0, "tieStart": false, "tieEnd": false, "tieGroup": 0}, {"pitch": 79, "vel": 102, "dur": 1.0, "tieStart": false, "tieEnd": false, "tieGroup": 0}]}, {"start": 3.5, "dur": 0.5, "rest": true, "notes": []}]}, {"ts_num": 4, "ts_den": 4, "key_fifths": -4, "key_mode": 1, "clef": 0, "tempo": 104, "velocity": 100, "lyrics": "", "expr": [], "segs": [{"start": 0.0, "dur": 4.0, "rest": true, "notes": []}]}, {"ts_num": 4, "ts_den": 4, "key_fifths": -4, "key_mode": 1, "clef": 0, "tempo": 104, "velocity": 100, "lyrics": "", "expr": [], "segs": [{"start": 0.0, "dur": 4.0, "rest": true, "notes": []}]}, {"ts_num": 4, "ts_den": 4, "key_fifths": -4, "key_mode": 1, "clef": 0, "tempo": 104, "velocity": 100, "lyrics": "", "expr": [], "segs": [{"start": 0.0, "dur": 4.0, "rest": true, "notes": []}]}, {"ts_num": 4, "ts_den": 4, "key_fifths": -4, "key_mode": 1, "clef": 0, "tempo": 104, "velocity": 100, "lyrics": "", "expr": [], "segs": [{"start": 0.0, "dur": 4.0, "rest": true, "notes": []}]}, {"ts_num": 4, "ts_den": 4, "key_fifths": -4, "key_mode": 1, "clef": 0, "tempo": 104, "velocity": 100, "lyrics": "", "expr": [], "segs": [{"start": 0.0, "dur": 4.0, "rest": true, "notes": []}]}]}, {"name": "Bass", "instrument": {"name": "Finger Bass", "bankMSB": 0, "bankLSB": 0, "program": 33, "channelHint": -1, "percussion": false, "volume": 89, "pan": 64, "transpose": 0}, "measures": [{"ts_num": 4, "ts_den": 4, "key_fifths": -4, "key_mode": 1, "clef": 1, "tempo": 104, "velocity": 100, "lyrics": "", "expr": [], "segs": [{"start": 0.0, "dur": 4.0, "rest": false, "notes": [{"pitch": 41, "vel": 88, "dur": 4.0, "tieStart": false, "tieEnd": false, "tieGroup": 0}]}]}, {"ts_num": 4, "ts_den": 4, "key_fifths": -4, "key_mode": 1, "clef": 1, "tempo": 104, "velocity": 100, "lyrics": "", "expr": [], "segs": [{"start": 0.0, "dur": 2.0, "rest": false, "notes": [{"pitch": 37, "vel": 88, "dur": 2.0, "tieStart": false, "tieEnd": false, "tieGroup": 0}]}, {"start": 2.0, "dur": 1.0, "rest": false, "notes": [{"pitch": 44, "vel": 84, "dur": 1.0, "tieStart": false, "tieEnd": false, "tieGroup": 0}]}, {"start": 3.0, "dur": 1.0, "rest": false, "notes": [{"pitch": 48, "vel": 84, "dur": 1.0, "tieStart": false, "tieEnd": false, "tieGroup": 0}]}]}, {"ts_num": 4, "ts_den": 4, "key_fifths": -4, "key_mode": 1, "clef": 1, "tempo": 104, "velocity": 100, "lyrics": "", "expr": [], "segs": [{"start": 0.0, "dur": 2.0, "rest": false, "notes": [{"pitch": 44, "vel": 88, "dur": 2.0, "tieStart": false, "tieEnd": false, "tieGroup": 0}]}, {"start": 2.0, "dur": 1.0, "rest": false, "notes": [{"pitch": 51, "vel": 84, "dur": 1.0, "tieStart": false, "tieEnd": false, "tieGroup": 0}]}, {"start": 3.0, "dur": 1.0, "rest": false, "notes": [{"pitch": 43, "vel": 84, "dur": 1.0, "tieStart": false, "tieEnd": false, "tieGroup": 0}]}]}, {"ts_num": 4, "ts_den": 4, "key_fifths": -4, "key_mode": 1, "clef": 1, "tempo": 104, "velocity": 100, "lyrics": "", "expr": [], "segs": [{"start": 0.0, "dur": 2.0, "rest": false, "notes": [{"pitch": 39, "vel": 88, "dur": 2.0, "tieStart": false, "tieEnd": false, "tieGroup": 0}]}, {"start": 2.0, "dur": 1.0, "rest": false, "notes": [{"pitch": 46, "vel": 84, "dur": 1.0, "tieStart": false, "tieEnd": false, "tieGroup": 0}]}, {"start": 3.0, "dur": 1.0, "rest": false, "notes": [{"pitch": 48, "vel": 86, "dur": 1.0, "tieStart": false, "tieEnd": false, "tieGroup": 0}]}]}, {"ts_num": 4, "ts_den": 4, "key_fifths": -4, "key_mode": 1, "clef": 1, "tempo": 104, "velocity": 100, "lyrics": "", "expr": [], "segs": [{"start": 0.0, "dur": 0.5, "rest": false, "notes": [{"pitch": 41, "vel": 102, "dur": 0.5, "tieStart": true, "tieEnd": false, "tieGroup": 279}, {"pitch": 53, "vel": 89, "dur": 0.5, "tieStart": false, "tieEnd": false, "tieGroup": 0}, {"pitch": 68, "vel": 85, "dur": 0.5, "tieStart": false, "tieEnd": false, "tieGroup": 0}]}, {"start": 0.5, "dur": 0.5, "rest": false, "notes": [{"pitch": 41, "vel": 102, "dur": 0.5, "tieStart": false, "tieEnd": true, "tieGroup": 279}, {"pitch": 44, "vel": 114, "dur": 0.5, "tieStart": false, "tieEnd": false, "tieGroup": 0}]}, {"start": 1.0, "dur": 0.5, "rest": false, "notes": [{"pitch": 48, "vel": 96, "dur": 0.5, "tieStart": false, "tieEnd": false, "tieGroup": 0}, {"pitch": 65, "vel": 110, "dur": 0.5, "tieStart": false, "tieEnd": false, "tieGroup": 0}]}, {"start": 1.5, "dur": 0.5, "rest": false, "notes": [{"pitch": 51, "vel": 94, "dur": 0.5, "tieStart": false, "tieEnd": false, "tieGroup": 0}]}, {"start": 2.0, "dur": 1.0, "rest": false, "notes": [{"pitch": 41, "vel": 101, "dur": 1.0, "tieStart": false, "tieEnd": false, "tieGroup": 0}]}, {"start": 3.0, "dur": 0.5, "rest": false, "notes": [{"pitch": 44, "vel": 96, "dur": 0.5, "tieStart": false, "tieEnd": false, "tieGroup": 0}]}, {"start": 3.5, "dur": 0.5, "rest": false, "notes": [{"pitch": 48, "vel": 97, "dur": 0.5, "tieStart": false, "tieEnd": false, "tieGroup": 0}]}]}, {"ts_num": 4, "ts_den": 4, "key_fifths": -4, "key_mode": 1, "clef": 1, "tempo": 104, "velocity": 100, "lyrics": "", "expr": [], "segs": [{"start": 0.0, "dur": 0.5, "rest": false, "notes": [{"pitch": 37, "vel": 81, "dur": 0.5, "tieStart": false, "tieEnd": false, "tieGroup": 0}, {"pitch": 53, "vel": 77, "dur": 0.5, "tieStart": false, "tieEnd": false, "tieGroup": 0}]}, {"start": 0.5, "dur": 0.5, "rest": false, "notes": [{"pitch": 37, "vel": 100, "dur": 0.5, "tieStart": false, "tieEnd": false, "tieGroup": 280}, {"pitch": 53, "vel": 81, "dur": 0.5, "tieStart": false, "tieEnd": false, "tieGroup": 0}]}, {"start": 1.0, "dur": 0.5, "rest": false, "notes": [{"pitch": 44, "vel": 95, "dur": 0.5, "tieStart": false, "tieEnd": false, "tieGroup": 0}, {"pitch": 49, "vel": 81, "dur": 0.5, "tieStart": false, "tieEnd": false, "tieGroup": 0}, {"pitch": 56, "vel": 77, "dur": 0.5, "tieStart": false, "tieEnd": false, "tieGroup": 0}]}, {"start": 1.5, "dur": 0.5, "rest": false, "notes": [{"pitch": 48, "vel": 94, "dur": 0.5, "tieStart": false, "tieEnd": false, "tieGroup": 0}, {"pitch": 58, "vel": 89, "dur": 0.5, "tieStart": false, "tieEnd": false, "tieGroup": 0}]}, {"start": 2.0, "dur": 1.0, "rest": false, "notes": [{"pitch": 37, "vel": 99, "dur": 1.0, "tieStart": false, "tieEnd": false, "tieGroup": 0}, {"pitch": 61, "vel": 81, "dur": 1.0, "tieStart": false, "tieEnd": false, "tieGroup": 0}]}, {"start": 3.0, "dur": 0.5, "rest": false, "notes": [{"pitch": 41, "vel": 95, "dur": 0.5, "tieStart": false, "tieEnd": false, "tieGroup": 0}, {"pitch": 53, "vel": 81, "dur": 0.5, "tieStart": false, "tieEnd": false, "tieGroup": 0}]}, {"start": 3.5, "dur": 0.5, "rest": false, "notes": [{"pitch": 44, "vel": 96, "dur": 0.5, "tieStart": false, "tieEnd": false, "tieGroup": 0}, {"pitch": 56, "vel": 81, "dur": 0.5, "tieStart": false, "tieEnd": false, "tieGroup": 0}]}]}, {"ts_num": 4, "ts_den": 4, "key_fifths": -4, "key_mode": 1, "clef": 1, "tempo": 104, "velocity": 100, "lyrics": "", "expr": [], "segs": [{"start": 0.0, "dur": 1.0, "rest": false, "notes": [{"pitch": 44, "vel": 100, "dur": 1.0, "tieStart": false, "tieEnd": false, "tieGroup": 0}, {"pitch": 60, "vel": 85, "dur": 1.0, "tieStart": false, "tieEnd": false, "tieGroup": 0}]}, {"start": 1.0, "dur": 0.5, "rest": false, "notes": [{"pitch": 43, "vel": 89, "dur": 0.5, "tieStart": false, "tieEnd": false, "tieGroup": 0}, {"pitch": 51, "vel": 95, "dur": 0.5, "tieStart": false, "tieEnd": false, "tieGroup": 0}]}, {"start": 1.5, "dur": 0.5, "rest": false, "notes": [{"pitch": 48, "vel": 89, "dur": 0.5, "tieStart": false, "tieEnd": false, "tieGroup": 0}, {"pitch": 55, "vel": 94, "dur": 0.5, "tieStart": false, "tieEnd": false, "tieGroup": 0}]}, {"start": 2.0, "dur": 1.0, "rest": false, "notes": [{"pitch": 44, "vel": 99, "dur": 1.0, "tieStart": false, "tieEnd": false, "tieGroup": 281}]}, {"start": 3.0, "dur": 0.5, "rest": false, "notes": [{"pitch": 48, "vel": 95, "dur": 0.5, "tieStart": false, "tieEnd": false, "tieGroup": 0}, {"pitch": 68, "vel": 89, "dur": 0.5, "tieStart": false, "tieEnd": false, "tieGroup": 282}]}, {"start": 3.5, "dur": 0.5, "rest": false, "notes": [{"pitch": 43, "vel": 89, "dur": 0.5, "tieStart": false, "tieEnd": false, "tieGroup": 0}, {"pitch": 51, "vel": 96, "dur": 0.5, "tieStart": false, "tieEnd": false, "tieGroup": 0}]}]}, {"ts_num": 4, "ts_den": 4, "key_fifths": -4, "key_mode": 1, "clef": 1, "tempo": 104, "velocity": 100, "lyrics": "", "expr": [], "segs": [{"start": 0.0, "dur": 1.0, "rest": false, "notes": [{"pitch": 39, "vel": 101, "dur": 1.0, "tieStart": false, "tieEnd": false, "tieGroup": 283}]}, {"start": 1.0, "dur": 0.5, "rest": false, "notes": [{"pitch": 46, "vel": 95, "dur": 0.5, "tieStart": false, "tieEnd": false, "tieGroup": 0}, {"pitch": 60, "vel": 105, "dur": 0.5, "tieStart": false, "tieEnd": false, "tieGroup": 0}]}, {"start": 1.5, "dur": 0.5, "rest": false, "notes": [{"pitch": 49, "vel": 94, "dur": 0.5, "tieStart": false, "tieEnd": false, "tieGroup": 0}, {"pitch": 53, "vel": 89, "dur": 0.5, "tieStart": false, "tieEnd": false, "tieGroup": 0}, {"pitch": 60, "vel": 85, "dur": 0.5, "tieStart": false, "tieEnd": false, "tieGroup": 0}]}, {"start": 2.0, "dur": 1.0, "rest": false, "notes": [{"pitch": 39, "vel": 100, "dur": 1.0, "tieStart": false, "tieEnd": false, "tieGroup": 284}]}, {"start": 3.0, "dur": 0.5, "rest": false, "notes": [{"pitch": 43, "vel": 95, "dur": 0.5, "tieStart": false, "tieEnd": false, "tieGroup": 0}, {"pitch": 60, "vel": 105, "dur": 0.5, "tieStart": false, "tieEnd": false, "tieGroup": 0}]}, {"start": 3.5, "dur": 0.5, "rest": false, "notes": [{"pitch": 48, "vel": 97, "dur": 0.5, "tieStart": false, "tieEnd": false, "tieGroup": 0}, {"pitch": 60, "vel": 89, "dur": 0.5, "tieStart": false, "tieEnd": false, "tieGroup": 0}]}]}, {"ts_num": 4, "ts_den": 4, "key_fifths": -4, "key_mode": 1, "clef": 1, "tempo": 104, "velocity": 100, "lyrics": "", "expr": [], "segs": [{"start": 0.0, "dur": 0.5, "rest": false, "notes": [{"pitch": 39, "vel": 114, "dur": 0.5, "tieStart": false, "tieEnd": false, "tieGroup": 0}, {"pitch": 41, "vel": 102, "dur": 0.5, "tieStart": true, "tieEnd": false, "tieGroup": 285}, {"pitch": 55, "vel": 110, "dur": 0.5, "tieStart": false, "tieEnd": false, "tieGroup": 0}]}, {"start": 0.5, "dur": 0.5, "rest": false, "notes": [{"pitch": 41, "vel": 102, "dur": 0.5, "tieStart": false, "tieEnd": true, "tieGroup": 285}, {"pitch": 55, "vel": 114, "dur": 0.5, "tieStart": true, "tieEnd": false, "tieGroup": 286}]}, {"start": 1.0, "dur": 0.5, "rest": false, "notes": [{"pitch": 48, "vel": 96, "dur": 0.5, "tieStart": false, "tieEnd": false, "tieGroup": 0}, {"pitch": 55, "vel": 114, "dur": 0.5, "tieStart": false, "tieEnd": true, "tieGroup": 286}]}, {"start": 1.5, "dur": 0.5, "rest": false, "notes": [{"pitch": 51, "vel": 94, "dur": 0.5, "tieStart": false, "tieEnd": false, "tieGroup": 0}, {"pitch": 58, "vel": 110, "dur": 0.5, "tieStart": false, "tieEnd": false, "tieGroup": 0}]}, {"start": 2.0, "dur": 0.5, "rest": false, "notes": [{"pitch": 41, "vel": 101, "dur": 0.5, "tieStart": true, "tieEnd": false, "tieGroup": 287}, {"pitch": 58, "vel": 114, "dur": 0.5, "tieStart": false, "tieEnd": false, "tieGroup": 0}]}, {"start": 2.5, "dur": 0.5, "rest": false, "notes": [{"pitch": 41, "vel": 101, "dur": 0.5, "tieStart": false, "tieEnd": true, "tieGroup": 287}, {"pitch": 63, "vel": 114, "dur": 0.5, "tieStart": false, "tieEnd": false, "tieGroup": 0}]}, {"start": 3.0, "dur": 0.5, "rest": false, "notes": [{"pitch": 44, "vel": 96, "dur": 0.5, "tieStart": false, "tieEnd": false, "tieGroup": 0}, {"pitch": 55, "vel": 114, "dur": 0.5, "tieStart": false, "tieEnd": false, "tieGroup": 0}]}, {"start": 3.5, "dur": 0.5, "rest": false, "notes": [{"pitch": 48, "vel": 97, "dur": 0.5, "tieStart": false, "tieEnd": false, "tieGroup": 0}, {"pitch": 58, "vel": 114, "dur": 0.5, "tieStart": false, "tieEnd": false, "tieGroup": 0}]}]}, {"ts_num": 4, "ts_den": 4, "key_fifths": -4, "key_mode": 1, "clef": 1, "tempo": 104, "velocity": 100, "lyrics": "", "expr": [], "segs": [{"start": 0.0, "dur": 1.0, "rest": false, "notes": [{"pitch": 37, "vel": 100, "dur": 1.0, "tieStart": false, "tieEnd": false, "tieGroup": 0}, {"pitch": 49, "vel": 105, "dur": 1.0, "tieStart": false, "tieEnd": false, "tieGroup": 0}, {"pitch": 65, "vel": 101, "dur": 1.0, "tieStart": false, "tieEnd": false, "tieGroup": 0}]}, {"start": 1.0, "dur": 0.5, "rest": false, "notes": [{"pitch": 44, "vel": 95, "dur": 0.5, "tieStart": false, "tieEnd": false, "tieGroup": 0}]}, {"start": 1.5, "dur": 0.5, "rest": false, "notes": [{"pitch": 48, "vel": 94, "dur": 0.5, "tieStart": false, "tieEnd": false, "tieGroup": 0}]}, {"start": 2.0, "dur": 0.5, "rest": false, "notes": [{"pitch": 37, "vel": 99, "dur": 0.5, "tieStart": false, "tieEnd": false, "tieGroup": 288}, {"pitch": 49, "vel": 114, "dur": 0.5, "tieStart": false, "tieEnd": false, "tieGroup": 0}]}, {"start": 2.5, "dur": 1.0, "rest": false, "notes": [{"pitch": 61, "vel": 105, "dur": 1.0, "tieStart": false, "tieEnd": false, "tieGroup": 289}]}, {"start": 3.5, "dur": 0.5, "rest": false, "notes": [{"pitch": 44, "vel": 96, "dur": 0.5, "tieStart": false, "tieEnd": false, "tieGroup": 0}]}]}, {"ts_num": 4, "ts_den": 4, "key_fifths": -4, "key_mode": 1, "clef": 1, "tempo": 104, "velocity": 100, "lyrics": "", "expr": [], "segs": [{"start": 0.0, "dur": 1.0, "rest": false, "notes": [{"pitch": 34, "vel": 101, "dur": 1.0, "tieStart": false, "tieEnd": false, "tieGroup": 0}, {"pitch": 49, "vel": 77, "dur": 1.0, "tieStart": false, "tieEnd": false, "tieGroup": 0}]}, {"start": 1.0, "dur": 0.5, "rest": false, "notes": [{"pitch": 41, "vel": 95, "dur": 0.5, "tieStart": false, "tieEnd": false, "tieGroup": 0}, {"pitch": 49, "vel": 81, "dur": 0.5, "tieStart": false, "tieEnd": false, "tieGroup": 0}]}, {"start": 1.5, "dur": 0.5, "rest": false, "notes": [{"pitch": 44, "vel": 94, "dur": 0.5, "tieStart": false, "tieEnd": false, "tieGroup": 0}, {"pitch": 53, "vel": 81, "dur": 0.5, "tieStart": false, "tieEnd": false, "tieGroup": 0}]}, {"start": 2.0, "dur": 0.5, "rest": false, "notes": [{"pitch": 34, "vel": 100, "dur": 0.5, "tieStart": false, "tieEnd": false, "tieGroup": 290}, {"pitch": 46, "vel": 97, "dur": 0.5, "tieStart": false, "tieEnd": false, "tieGroup": 0}, {"pitch": 56, "vel": 93, "dur": 0.5, "tieStart": false, "tieEnd": false, "tieGroup": 0}]}, {"start": 2.5, "dur": 1.0, "rest": false, "notes": [{"pitch": 58, "vel": 81, "dur": 1.0, "tieStart": false, "tieEnd": false, "tieGroup": 291}]}, {"start": 3.5, "dur": 0.5, "rest": false, "notes": [{"pitch": 41, "vel": 96, "dur": 0.5, "tieStart": false, "tieEnd": false, "tieGroup": 0}, {"pitch": 49, "vel": 81, "dur": 0.5, "tieStart": false, "tieEnd": false, "tieGroup": 0}]}]}, {"ts_num": 4, "ts_den": 4, "key_fifths": -4, "key_mode": 1, "clef": 1, "tempo": 104, "velocity": 100, "lyrics": "", "expr": [], "segs": [{"start": 0.0, "dur": 0.5, "rest": false, "notes": [{"pitch": 36, "vel": 102, "dur": 0.5, "tieStart": false, "tieEnd": false, "tieGroup": 292}, {"pitch": 37, "vel": 81, "dur": 0.5, "tieStart": false, "tieEnd": false, "tieGroup": 0}, {"pitch": 49, "vel": 77, "dur": 0.5, "tieStart": false, "tieEnd": false, "tieGroup": 0}]}, {"start": 0.5, "dur": 0.5, "rest": false, "notes": [{"pitch": 49, "vel": 113, "dur": 0.5, "tieStart": false, "tieEnd": false, "tieGroup": 293}]}, {"start": 1.0, "dur": 0.5, "rest": false, "notes": [{"pitch": 43, "vel": 96, "dur": 0.5, "tieStart": false, "tieEnd": false, "tieGroup": 0}]}, {"start": 1.5, "dur": 0.5, "rest": false, "notes": [{"pitch": 46, "vel": 95, "dur": 0.5, "tieStart": false, "tieEnd": false, "tieGroup": 0}, {"pitch": 53, "vel": 105, "dur": 0.5, "tieStart": false, "tieEnd": false, "tieGroup": 0}]}, {"start": 2.0, "dur": 0.5, "rest": false, "notes": [{"pitch": 36, "vel": 101, "dur": 0.5, "tieStart": false, "tieEnd": false, "tieGroup": 0}, {"pitch": 49, "vel": 105, "dur": 0.5, "tieStart": false, "tieEnd": false, "tieGroup": 0}, {"pitch": 56, "vel": 101, "dur": 0.5, "tieStart": false, "tieEnd": false, "tieGroup": 0}]}, {"start": 2.5, "dur": 0.5, "rest": false, "notes": [{"pitch": 49, "vel": 97, "dur": 0.5, "tieStart": false, "tieEnd": false, "tieGroup": 0}, {"pitch": 58, "vel": 81, "dur": 0.5, "tieStart": false, "tieEnd": false, "tieGroup": 0}]}, {"start": 3.0, "dur": 0.5, "rest": false, "notes": [{"pitch": 40, "vel": 98, "dur": 0.5, "tieStart": false, "tieEnd": false, "tieGroup": 0}, {"pitch": 49, "vel": 113, "dur": 0.5, "tieStart": false, "tieEnd": false, "tieGroup": 0}]}, {"start": 3.5, "dur": 0.5, "rest": false, "notes": [{"pitch": 43, "vel": 96, "dur": 0.5, "tieStart": false, "tieEnd": false, "tieGroup": 0}, {"pitch": 53, "vel": 105, "dur": 0.5, "tieStart": false, "tieEnd": false, "tieGroup": 0}]}]}, {"ts_num": 4, "ts_den": 4, "key_fifths": -4, "key_mode": 1, "clef": 1, "tempo": 104, "velocity": 100, "lyrics": "", "expr": [], "segs": [{"start": 0.0, "dur": 0.5, "rest": false, "notes": [{"pitch": 44, "vel": 105, "dur": 0.5, "tieStart": false, "tieEnd": false, "tieGroup": 0}, {"pitch": 48, "vel": 101, "dur": 0.5, "tieStart": false, "tieEnd": false, "tieGroup": 0}]}, {"start": 0.5, "dur": 0.5, "rest": false, "notes": [{"pitch": 43, "vel": 113, "dur": 0.5, "tieStart": false, "tieEnd": false, "tieGroup": 0}, {"pitch": 44, "vel": 100, "dur": 0.5, "tieStart": false, "tieEnd": false, "tieGroup": 294}]}, {"start": 1.0, "dur": 0.5, "rest": false, "notes": [{"pitch": 51, "vel": 95, "dur": 0.5, "tieStart": false, "tieEnd": false, "tieGroup": 0}, {"pitch": 63, "vel": 105, "dur": 0.5, "tieStart": false, "tieEnd": false, "tieGroup": 0}]}, {"start": 1.5, "dur": 0.5, "rest": false, "notes": [{"pitch": 55, "vel": 94, "dur": 0.5, "tieStart": false, "tieEnd": false, "tieGroup": 0}, {"pitch": 56, "vel": 105, "dur": 0.5, "tieStart": false, "tieEnd": false, "tieGroup": 0}]}, {"start": 2.0, "dur": 1.0, "rest": false, "notes": [{"pitch": 44, "vel": 99, "dur": 1.0, "tieStart": false, "tieEnd": false, "tieGroup": 0}, {"pitch": 56, "vel": 105, "dur": 1.0, "tieStart": false, "tieEnd": false, "tieGroup": 0}]}, {"start": 3.0, "dur": 0.5, "rest": false, "notes": [{"pitch": 43, "vel": 113, "dur": 0.5, "tieStart": false, "tieEnd": false, "tieGroup": 0}, {"pitch": 48, "vel": 95, "dur": 0.5, "tieStart": false, "tieEnd": false, "tieGroup": 0}, {"pitch": 56, "vel": 109, "dur": 0.5, "tieStart": false, "tieEnd": false, "tieGroup": 0}]}, {"start": 3.5, "dur": 0.5, "rest": false, "notes": [{"pitch": 51, "vel": 96, "dur": 0.5, "tieStart": false, "tieEnd": false, "tieGroup": 0}, {"pitch": 63, "vel": 105, "dur": 0.5, "tieStart": false, "tieEnd": false, "tieGroup": 0}]}]}, {"ts_num": 4, "ts_den": 4, "key_fifths": -4, "key_mode": 1, "clef": 1, "tempo": 104, "velocity": 100, "lyrics": "", "expr": [], "segs": [{"start": 0.0, "dur": 0.5, "rest": false, "notes": [{"pitch": 39, "vel": 101, "dur": 0.5, "tieStart": true, "tieEnd": false, "tieGroup": 295}, {"pitch": 41, "vel": 105, "dur": 0.5, "tieStart": false, "tieEnd": false, "tieGroup": 0}, {"pitch": 53, "vel": 101, "dur": 0.5, "tieStart": false, "tieEnd": false, "tieGroup": 0}]}, {"start": 0.5, "dur": 0.5, "rest": false, "notes": [{"pitch": 39, "vel": 101, "dur": 0.5, "tieStart": false, "tieEnd": true, "tieGroup": 295}, {"pitch": 56, "vel": 97, "dur": 0.5, "tieStart": true, "tieEnd": false, "tieGroup": 296}]}, {"start": 1.0, "dur": 0.5, "rest": false, "notes": [{"pitch": 46, "vel": 95, "dur": 0.5, "tieStart": false, "tieEnd": false, "tieGroup": 0}, {"pitch": 56, "vel": 97, "dur": 0.5, "tieStart": false, "tieEnd": true, "tieGroup": 296}]}, {"start": 1.5, "dur": 0.5, "rest": false, "notes": [{"pitch": 49, "vel": 94, "dur": 0.5, "tieStart": false, "tieEnd": false, "tieGroup": 0}, {"pitch": 53, "vel": 97, "dur": 0.5, "tieStart": false, "tieEnd": false, "tieGroup": 0}]}, {"start": 2.0, "dur": 0.5, "rest": false, "notes": [{"pitch": 39, "vel": 100, "dur": 0.5, "tieStart": true, "tieEnd": false, "tieGroup": 297}, {"pitch": 53, "vel": 89, "dur": 0.5, "tieStart": false, "tieEnd": false, "tieGroup": 0}, {"pitch": 60, "vel": 85, "dur": 0.5, "tieStart": false, "tieEnd": false, "tieGroup": 0}]}, {"start": 2.5, "dur": 0.5, "rest": false, "notes": [{"pitch": 39, "vel": 100, "dur": 0.5, "tieStart": false, "tieEnd": true, "tieGroup": 297}, {"pitch": 63, "vel": 105, "dur": 0.5, "tieStart": false, "tieEnd": false, "tieGroup": 0}]}, {"start": 3.0, "dur": 0.5, "rest": false, "notes": [{"pitch": 43, "vel": 95, "dur": 0.5, "tieStart": false, "tieEnd": false, "tieGroup": 0}, {"pitch": 56, "vel": 97, "dur": 0.5, "tieStart": false, "tieEnd": false, "tieGroup": 0}]}, {"start": 3.5, "dur": 0.5, "rest": false, "notes": [{"pitch": 48, "vel": 97, "dur": 0.5, "tieStart": false, "tieEnd": false, "tieGroup": 0}, {"pitch": 53, "vel": 97, "dur": 0.5, "tieStart": false, "tieEnd": false, "tieGroup": 0}]}]}, {"ts_num": 4, "ts_den": 4, "key_fifths": -4, "key_mode": 1, "clef": 1, "tempo": 104, "velocity": 100, "lyrics": "", "expr": [], "segs": [{"start": 0.0, "dur": 0.5, "rest": false, "notes": [{"pitch": 34, "vel": 101, "dur": 0.5, "tieStart": true, "tieEnd": false, "tieGroup": 298}, {"pitch": 46, "vel": 81, "dur": 0.5, "tieStart": false, "tieEnd": false, "tieGroup": 0}, {"pitch": 58, "vel": 77, "dur": 0.5, "tieStart": false, "tieEnd": false, "tieGroup": 0}]}, {"start": 0.5, "dur": 0.5, "rest": false, "notes": [{"pitch": 34, "vel": 101, "dur": 0.5, "tieStart": false, "tieEnd": true, "tieGroup": 298}, {"pitch": 53, "vel": 81, "dur": 0.5, "tieStart": false, "tieEnd": false, "tieGroup": 0}]}, {"start": 1.0, "dur": 0.5, "rest": false, "notes": [{"pitch": 41, "vel": 95, "dur": 0.5, "tieStart": false, "tieEnd": false, "tieGroup": 0}, {"pitch": 56, "vel": 89, "dur": 0.5, "tieStart": false, "tieEnd": false, "tieGroup": 0}]}, {"start": 1.5, "dur": 0.5, "rest": false, "notes": [{"pitch": 44, "vel": 94, "dur": 0.5, "tieStart": false, "tieEnd": false, "tieGroup": 0}, {"pitch": 58, "vel": 81, "dur": 0.5, "tieStart": false, "tieEnd": false, "tieGroup": 0}]}, {"start": 2.0, "dur": 0.5, "rest": false, "notes": [{"pitch": 34, "vel": 100, "dur": 0.5, "tieStart": true, "tieEnd": false, "tieGroup": 299}, {"pitch": 58, "vel": 81, "dur": 0.5, "tieStart": false, "tieEnd": false, "tieGroup": 0}, {"pitch": 68, "vel": 77, "dur": 0.5, "tieStart": false, "tieEnd": false, "tieGroup": 0}]}, {"start": 2.5, "dur": 0.5, "rest": false, "notes": [{"pitch": 34, "vel": 100, "dur": 0.5, "tieStart": false, "tieEnd": true, "tieGroup": 299}, {"pitch": 53, "vel": 81, "dur": 0.5, "tieStart": false, "tieEnd": false, "tieGroup": 0}]}, {"start": 3.0, "dur": 0.5, "rest": false, "notes": [{"pitch": 37, "vel": 95, "dur": 0.5, "tieStart": false, "tieEnd": false, "tieGroup": 0}, {"pitch": 56, "vel": 89, "dur": 0.5, "tieStart": false, "tieEnd": false, "tieGroup": 0}]}, {"start": 3.5, "dur": 0.5, "rest": false, "notes": [{"pitch": 41, "vel": 96, "dur": 0.5, "tieStart": false, "tieEnd": false, "tieGroup": 0}, {"pitch": 58, "vel": 81, "dur": 0.5, "tieStart": false, "tieEnd": false, "tieGroup": 0}]}]}, {"ts_num": 4, "ts_den": 4, "key_fifths": -4, "key_mode": 1, "clef": 1, "tempo": 104, "velocity": 100, "lyrics": "", "expr": [], "segs": [{"start": 0.0, "dur": 0.5, "rest": false, "notes": [{"pitch": 36, "vel": 102, "dur": 0.5, "tieStart": true, "tieEnd": false, "tieGroup": 300}, {"pitch": 37, "vel": 89, "dur": 0.5, "tieStart": false, "tieEnd": false, "tieGroup": 0}, {"pitch": 53, "vel": 85, "dur": 0.5, "tieStart": false, "tieEnd": false, "tieGroup": 0}]}, {"start": 0.5, "dur": 0.5, "rest": false, "notes": [{"pitch": 36, "vel": 102, "dur": 0.5, "tieStart": false, "tieEnd": true, "tieGroup": 300}, {"pitch": 53, "vel": 97, "dur": 0.5, "tieStart": false, "tieEnd": false, "tieGroup": 0}]}, {"start": 1.0, "dur": 0.5, "rest": false, "notes": [{"pitch": 43, "vel": 96, "dur": 0.5, "tieStart": false, "tieEnd": false, "tieGroup": 0}, {"pitch": 56, "vel": 89, "dur": 0.5, "tieStart": false, "tieEnd": false, "tieGroup": 0}]}, {"start": 1.5, "dur": 0.5, "rest": false, "notes": [{"pitch": 46, "vel": 95, "dur": 0.5, "tieStart": false, "tieEnd": false, "tieGroup": 0}, {"pitch": 49, "vel": 73, "dur": 0.5, "tieStart": false, "tieEnd": false, "tieGroup": 0}]}, {"start": 2.0, "dur": 0.5, "rest": false, "notes": [{"pitch": 36, "vel": 101, "dur": 0.5, "tieStart": false, "tieEnd": false, "tieGroup": 0}, {"pitch": 61, "vel": 89, "dur": 0.5, "tieStart": true, "tieEnd": false, "tieGroup": 301}]}, {"start": 2.5, "dur": 0.5, "rest": false, "notes": [{"pitch": 49, "vel": 97, "dur": 0.5, "tieStart": false, "tieEnd": false, "tieGroup": 0}, {"pitch": 61, "vel": 89, "dur": 0.5, "tieStart": false, "tieEnd": true, "tieGroup": 301}]}, {"start": 3.0, "dur": 0.5, "rest": false, "notes": [{"pitch": 40, "vel": 98, "dur": 0.5, "tieStart": false, "tieEnd": false, "tieGroup": 0}, {"pitch": 49, "vel": 97, "dur": 0.5, "tieStart": false, "tieEnd": false, "tieGroup": 0}, {"pitch": 53, "vel": 93, "dur": 0.5, "tieStart": false, "tieEnd": false, "tieGroup": 0}]}, {"start": 3.5, "dur": 0.5, "rest": false, "notes": [{"pitch": 43, "vel": 96, "dur": 0.5, "tieStart": false, "tieEnd": false, "tieGroup": 0}, {"pitch": 56, "vel": 89, "dur": 0.5, "tieStart": false, "tieEnd": false, "tieGroup": 0}]}]}, {"ts_num": 4, "ts_den": 4, "key_fifths": -4, "key_mode": 1, "clef": 1, "tempo": 104, "velocity": 100, "lyrics": "", "expr": [], "segs": [{"start": 0.0, "dur": 1.0, "rest": false, "notes": [{"pitch": 39, "vel": 89, "dur": 1.0, "tieStart": false, "tieEnd": false, "tieGroup": 0}, {"pitch": 41, "vel": 102, "dur": 1.0, "tieStart": false, "tieEnd": false, "tieGroup": 0}, {"pitch": 55, "vel": 85, "dur": 1.0, "tieStart": false, "tieEnd": false, "tieGroup": 0}]}, {"start": 1.0, "dur": 0.5, "rest": false, "notes": [{"pitch": 48, "vel": 96, "dur": 0.5, "tieStart": false, "tieEnd": false, "tieGroup": 0}, {"pitch": 55, "vel": 81, "dur": 0.5, "tieStart": false, "tieEnd": false, "tieGroup": 0}]}, {"start": 1.5, "dur": 0.5, "rest": false, "notes": [{"pitch": 51, "vel": 94, "dur": 0.5, "tieStart": false, "tieEnd": false, "tieGroup": 0}, {"pitch": 58, "vel": 81, "dur": 0.5, "tieStart": false, "tieEnd": false, "tieGroup": 0}]}, {"start": 2.0, "dur": 0.5, "rest": false, "notes": [{"pitch": 41, "vel": 101, "dur": 0.5, "tieStart": false, "tieEnd": false, "tieGroup": 302}, {"pitch": 61, "vel": 89, "dur": 0.5, "tieStart": false, "tieEnd": false, "tieGroup": 0}]}, {"start": 2.5, "dur": 1.0, "rest": false, "notes": [{"pitch": 63, "vel": 89, "dur": 1.0, "tieStart": false, "tieEnd": false, "tieGroup": 303}]}, {"start": 3.5, "dur": 0.5, "rest": false, "notes": [{"pitch": 48, "vel": 97, "dur": 0.5, "tieStart": false, "tieEnd": false, "tieGroup": 0}, {"pitch": 51, "vel": 81, "dur": 0.5, "tieStart": false, "tieEnd": false, "tieGroup": 0}, {"pitch": 55, "vel": 77, "dur": 0.5, "tieStart": false, "tieEnd": false, "tieGroup": 0}]}]}, {"ts_num": 4, "ts_den": 4, "key_fifths": -4, "key_mode": 1, "clef": 1, "tempo": 104, "velocity": 100, "lyrics": "", "expr": [], "segs": [{"start": 0.0, "dur": 0.5, "rest": false, "notes": [{"pitch": 37, "vel": 89, "dur": 0.5, "tieStart": false, "tieEnd": false, "tieGroup": 0}]}, {"start": 0.5, "dur": 1.0, "rest": false, "notes": [{"pitch": 49, "vel": 81, "dur": 1.0, "tieStart": false, "tieEnd": false, "tieGroup": 305}]}, {"start": 1.5, "dur": 0.5, "rest": false, "notes": [{"pitch": 48, "vel": 94, "dur": 0.5, "tieStart": false, "tieEnd": false, "tieGroup": 0}, {"pitch": 53, "vel": 81, "dur": 0.5, "tieStart": false, "tieEnd": false, "tieGroup": 0}]}, {"start": 2.0, "dur": 0.5, "rest": false, "notes": [{"pitch": 37, "vel": 99, "dur": 0.5, "tieStart": true, "tieEnd": false, "tieGroup": 306}, {"pitch": 56, "vel": 81, "dur": 0.5, "tieStart": false, "tieEnd": false, "tieGroup": 0}]}, {"start": 2.5, "dur": 0.5, "rest": false, "notes": [{"pitch": 37, "vel": 99, "dur": 0.5, "tieStart": false, "tieEnd": true, "tieGroup": 306}, {"pitch": 58, "vel": 89, "dur": 0.5, "tieStart": false, "tieEnd": false, "tieGroup": 0}]}, {"start": 3.0, "dur": 0.5, "rest": false, "notes": [{"pitch": 41, "vel": 95, "dur": 0.5, "tieStart": false, "tieEnd": false, "tieGroup": 0}, {"pitch": 49, "vel": 81, "dur": 0.5, "tieStart": false, "tieEnd": false, "tieGroup": 0}]}, {"start": 3.5, "dur": 0.5, "rest": false, "notes": [{"pitch": 44, "vel": 96, "dur": 0.5, "tieStart": false, "tieEnd": false, "tieGroup": 0}, {"pitch": 53, "vel": 81, "dur": 0.5, "tieStart": false, "tieEnd": false, "tieGroup": 0}]}]}, {"ts_num": 4, "ts_den": 4, "key_fifths": -4, "key_mode": 1, "clef": 1, "tempo": 104, "velocity": 100, "lyrics": "", "expr": [], "segs": [{"start": 0.0, "dur": 0.5, "rest": false, "notes": [{"pitch": 44, "vel": 81, "dur": 0.5, "tieStart": false, "tieEnd": false, "tieGroup": 0}, {"pitch": 55, "vel": 77, "dur": 0.5, "tieStart": false, "tieEnd": false, "tieGroup": 0}]}, {"start": 0.5, "dur": 0.5, "rest": false, "notes": [{"pitch": 44, "vel": 100, "dur": 0.5, "tieStart": false, "tieEnd": false, "tieGroup": 307}, {"pitch": 53, "vel": 113, "dur": 0.5, "tieStart": true, "tieEnd": false, "tieGroup": 308}]}, {"start": 1.0, "dur": 0.5, "rest": false, "notes": [{"pitch": 51, "vel": 95, "dur": 0.5, "tieStart": false, "tieEnd": false, "tieGroup": 0}, {"pitch": 53, "vel": 113, "dur": 0.5, "tieStart": false, "tieEnd": true, "tieGroup": 308}]}, {"start": 1.5, "dur": 0.5, "rest": false, "notes": [{"pitch": 44, "vel": 114, "dur": 0.5, "tieStart": false, "tieEnd": false, "tieGroup": 0}, {"pitch": 55, "vel": 94, "dur": 0.5, "tieStart": false, "tieEnd": false, "tieGroup": 0}]}, {"start": 2.0, "dur": 0.5, "rest": false, "notes": [{"pitch": 44, "vel": 99, "dur": 0.5, "tieStart": true, "tieEnd": false, "tieGroup": 309}, {"pitch": 51, "vel": 114, "dur": 0.5, "tieStart": false, "tieEnd": false, "tieGroup": 0}]}, {"start": 2.5, "dur": 0.5, "rest": false, "notes": [{"pitch": 44, "vel": 99, "dur": 0.5, "tieStart": false, "tieEnd": true, "tieGroup": 309}, {"pitch": 56, "vel": 81, "dur": 0.5, "tieStart": false, "tieEnd": false, "tieGroup": 0}, {"pitch": 63, "vel": 77, "dur": 0.5, "tieStart": false, "tieEnd": false, "tieGroup": 0}]}, {"start": 3.0, "dur": 0.5, "rest": false, "notes": [{"pitch": 48, "vel": 95, "dur": 0.5, "tieStart": false, "tieEnd": false, "tieGroup": 0}, {"pitch": 53, "vel": 113, "dur": 0.5, "tieStart": false, "tieEnd": false, "tieGroup": 0}]}, {"start": 3.5, "dur": 0.5, "rest": false, "notes": [{"pitch": 44, "vel": 114, "dur": 0.5, "tieStart": false, "tieEnd": false, "tieGroup": 0}, {"pitch": 51, "vel": 96, "dur": 0.5, "tieStart": false, "tieEnd": false, "tieGroup": 0}]}]}, {"ts_num": 4, "ts_den": 4, "key_fifths": -4, "key_mode": 1, "clef": 1, "tempo": 104, "velocity": 100, "lyrics": "", "expr": [], "segs": [{"start": 0.0, "dur": 0.5, "rest": false, "notes": [{"pitch": 39, "vel": 101, "dur": 0.5, "tieStart": true, "tieEnd": false, "tieGroup": 310}, {"pitch": 41, "vel": 81, "dur": 0.5, "tieStart": false, "tieEnd": false, "tieGroup": 0}, {"pitch": 53, "vel": 77, "dur": 0.5, "tieStart": false, "tieEnd": false, "tieGroup": 0}]}, {"start": 0.5, "dur": 0.5, "rest": false, "notes": [{"pitch": 39, "vel": 101, "dur": 0.5, "tieStart": false, "tieEnd": true, "tieGroup": 310}, {"pitch": 51, "vel": 81, "dur": 0.5, "tieStart": true, "tieEnd": false, "tieGroup": 311}]}, {"start": 1.0, "dur": 0.5, "rest": false, "notes": [{"pitch": 46, "vel": 95, "dur": 0.5, "tieStart": false, "tieEnd": false, "tieGroup": 0}, {"pitch": 51, "vel": 81, "dur": 0.5, "tieStart": false, "tieEnd": true, "tieGroup": 311}]}, {"start": 1.5, "dur": 0.5, "rest": false, "notes": [{"pitch": 49, "vel": 94, "dur": 0.5, "tieStart": false, "tieEnd": false, "tieGroup": 0}, {"pitch": 60, "vel": 105, "dur": 0.5, "tieStart": false, "tieEnd": false, "tieGroup": 0}]}, {"start": 2.0, "dur": 0.5, "rest": false, "notes": [{"pitch": 39, "vel": 100, "dur": 0.5, "tieStart": true, "tieEnd": false, "tieGroup": 312}, {"pitch": 56, "vel": 81, "dur": 0.5, "tieStart": false, "tieEnd": false, "tieGroup": 0}]}, {"start": 2.5, "dur": 0.5, "rest": false, "notes": [{"pitch": 39, "vel": 100, "dur": 0.5, "tieStart": false, "tieEnd": true, "tieGroup": 312}, {"pitch": 63, "vel": 81, "dur": 0.5, "tieStart": false, "tieEnd": false, "tieGroup": 0}]}, {"start": 3.0, "dur": 0.5, "rest": false, "notes": [{"pitch": 43, "vel": 95, "dur": 0.5, "tieStart": false, "tieEnd": false, "tieGroup": 0}, {"pitch": 51, "vel": 81, "dur": 0.5, "tieStart": false, "tieEnd": false, "tieGroup": 0}, {"pitch": 53, "vel": 77, "dur": 0.5, "tieStart": false, "tieEnd": false, "tieGroup": 0}]}, {"start": 3.5, "dur": 0.5, "rest": false, "notes": [{"pitch": 48, "vel": 97, "dur": 0.5, "tieStart": false, "tieEnd": false, "tieGroup": 0}, {"pitch": 60, "vel": 105, "dur": 0.5, "tieStart": false, "tieEnd": false, "tieGroup": 0}]}]}, {"ts_num": 4, "ts_den": 4, "key_fifths": -4, "key_mode": 1, "clef": 1, "tempo": 104, "velocity": 100, "lyrics": "", "expr": [], "segs": [{"start": 0.0, "dur": 1.0, "rest": false, "notes": [{"pitch": 34, "vel": 101, "dur": 1.0, "tieStart": false, "tieEnd": false, "tieGroup": 0}, {"pitch": 49, "vel": 110, "dur": 1.0, "tieStart": false, "tieEnd": false, "tieGroup": 0}]}, {"start": 1.0, "dur": 0.5, "rest": false, "notes": [{"pitch": 41, "vel": 95, "dur": 0.5, "tieStart": false, "tieEnd": false, "tieGroup": 0}, {"pitch": 44, "vel": 114, "dur": 0.5, "tieStart": false, "tieEnd": false, "tieGroup": 0}, {"pitch": 46, "vel": 110, "dur": 0.5, "tieStart": false, "tieEnd": false, "tieGroup": 0}]}, {"start": 1.5, "dur": 0.5, "rest": false, "notes": [{"pitch": 44, "vel": 94, "dur": 0.5, "tieStart": false, "tieEnd": false, "tieGroup": 0}, {"pitch": 46, "vel": 114, "dur": 0.5, "tieStart": false, "tieEnd": false, "tieGroup": 0}]}, {"start": 2.0, "dur": 0.5, "rest": false, "notes": [{"pitch": 34, "vel": 100, "dur": 0.5, "tieStart": true, "tieEnd": false, "tieGroup": 313}, {"pitch": 56, "vel": 114, "dur": 0.5, "tieStart": false, "tieEnd": false, "tieGroup": 0}]}, {"start": 2.5, "dur": 0.5, "rest": false, "notes": [{"pitch": 34, "vel": 100, "dur": 0.5, "tieStart": false, "tieEnd": true, "tieGroup": 313}, {"pitch": 58, "vel": 114, "dur": 0.5, "tieStart": true, "tieEnd": false, "tieGroup": 314}]}, {"start": 3.0, "dur": 0.5, "rest": false, "notes": [{"pitch": 37, "vel": 95, "dur": 0.5, "tieStart": false, "tieEnd": false, "tieGroup": 0}, {"pitch": 58, "vel": 114, "dur": 0.5, "tieStart": false, "tieEnd": true, "tieGroup": 314}]}, {"start": 3.5, "dur": 0.5, "rest": false, "notes": [{"pitch": 41, "vel": 96, "dur": 0.5, "tieStart": false, "tieEnd": false, "tieGroup": 0}, {"pitch": 44, "vel": 114, "dur": 0.5, "tieStart": false, "tieEnd": false, "tieGroup": 0}]}]}, {"ts_num": 4, "ts_den": 4, "key_fifths": -4, "key_mode": 1, "clef": 1, "tempo": 104, "velocity": 100, "lyrics": "", "expr": [], "segs": [{"start": 0.0, "dur": 0.5, "rest": false, "notes": [{"pitch": 34, "vel": 81, "dur": 0.5, "tieStart": false, "tieEnd": false, "tieGroup": 0}, {"pitch": 36, "vel": 102, "dur": 0.5, "tieStart": true, "tieEnd": false, "tieGroup": 315}, {"pitch": 49, "vel": 77, "dur": 0.5, "tieStart": false, "tieEnd": false, "tieGroup": 0}]}, {"start": 0.5, "dur": 0.5, "rest": false, "notes": [{"pitch": 36, "vel": 102, "dur": 0.5, "tieStart": false, "tieEnd": true, "tieGroup": 315}, {"pitch": 49, "vel": 81, "dur": 0.5, "tieStart": true, "tieEnd": false, "tieGroup": 316}]}, {"start": 1.0, "dur": 0.5, "rest": false, "notes": [{"pitch": 43, "vel": 96, "dur": 0.5, "tieStart": false, "tieEnd": false, "tieGroup": 0}, {"pitch": 49, "vel": 81, "dur": 0.5, "tieStart": false, "tieEnd": true, "tieGroup": 316}]}, {"start": 1.5, "dur": 0.5, "rest": false, "notes": [{"pitch": 46, "vel": 95, "dur": 0.5, "tieStart": false, "tieEnd": false, "tieGroup": 0}, {"pitch": 49, "vel": 89, "dur": 0.5, "tieStart": false, "tieEnd": false, "tieGroup": 0}]}, {"start": 2.0, "dur": 0.5, "rest": false, "notes": [{"pitch": 36, "vel": 101, "dur": 0.5, "tieStart": false, "tieEnd": false, "tieGroup": 0}, {"pitch": 53, "vel": 97, "dur": 0.5, "tieStart": false, "tieEnd": false, "tieGroup": 0}]}, {"start": 2.5, "dur": 0.5, "rest": false, "notes": [{"pitch": 46, "vel": 81, "dur": 0.5, "tieStart": false, "tieEnd": false, "tieGroup": 0}, {"pitch": 49, "vel": 97, "dur": 0.5, "tieStart": false, "tieEnd": false, "tieGroup": 0}, {"pitch": 58, "vel": 77, "dur": 0.5, "tieStart": false, "tieEnd": false, "tieGroup": 0}]}, {"start": 3.0, "dur": 0.5, "rest": false, "notes": [{"pitch": 40, "vel": 98, "dur": 0.5, "tieStart": false, "tieEnd": false, "tieGroup": 0}, {"pitch": 49, "vel": 81, "dur": 0.5, "tieStart": false, "tieEnd": false, "tieGroup": 0}]}, {"start": 3.5, "dur": 0.5, "rest": false, "notes": [{"pitch": 43, "vel": 96, "dur": 0.5, "tieStart": false, "tieEnd": false, "tieGroup": 0}, {"pitch": 49, "vel": 89, "dur": 0.5, "tieStart": false, "tieEnd": false, "tieGroup": 0}]}]}, {"ts_num": 4, "ts_den": 4, "key_fifths": -4, "key_mode": 1, "clef": 1, "tempo": 104, "velocity": 100, "lyrics": "", "expr": [], "segs": [{"start": 0.0, "dur": 0.5, "rest": false, "notes": [{"pitch": 41, "vel": 65, "dur": 0.5, "tieStart": false, "tieEnd": false, "tieGroup": 0}, {"pitch": 53, "vel": 61, "dur": 0.5, "tieStart": false, "tieEnd": false, "tieGroup": 0}]}, {"start": 0.5, "dur": 0.5, "rest": false, "notes": [{"pitch": 41, "vel": 102, "dur": 0.5, "tieStart": false, "tieEnd": false, "tieGroup": 317}, {"pitch": 53, "vel": 81, "dur": 0.5, "tieStart": true, "tieEnd": false, "tieGroup": 318}]}, {"start": 1.0, "dur": 0.5, "rest": false, "notes": [{"pitch": 48, "vel": 96, "dur": 0.5, "tieStart": false, "tieEnd": false, "tieGroup": 0}, {"pitch": 53, "vel": 81, "dur": 0.5, "tieStart": false, "tieEnd": true, "tieGroup": 318}]}, {"start": 1.5, "dur": 0.5, "rest": false, "notes": [{"pitch": 51, "vel": 94, "dur": 0.5, "tieStart": false, "tieEnd": false, "tieGroup": 0}, {"pitch": 56, "vel": 73, "dur": 0.5, "tieStart": false, "tieEnd": false, "tieGroup": 0}]}, {"start": 2.0, "dur": 0.5, "rest": false, "notes": [{"pitch": 41, "vel": 101, "dur": 0.5, "tieStart": true, "tieEnd": false, "tieGroup": 319}, {"pitch": 60, "vel": 97, "dur": 0.5, "tieStart": false, "tieEnd": false, "tieGroup": 0}]}, {"start": 2.5, "dur": 0.5, "rest": false, "notes": [{"pitch": 41, "vel": 101, "dur": 0.5, "tieStart": false, "tieEnd": true, "tieGroup": 319}, {"pitch": 53, "vel": 65, "dur": 0.5, "tieStart": false, "tieEnd": false, "tieGroup": 0}, {"pitch": 63, "vel": 61, "dur": 0.5, "tieStart": false, "tieEnd": false, "tieGroup": 0}]}, {"start": 3.0, "dur": 0.5, "rest": false, "notes": [{"pitch": 44, "vel": 96, "dur": 0.5, "tieStart": false, "tieEnd": false, "tieGroup": 0}, {"pitch": 53, "vel": 81, "dur": 0.5, "tieStart": false, "tieEnd": false, "tieGroup": 0}]}, {"start": 3.5, "dur": 0.5, "rest": false, "notes": [{"pitch": 48, "vel": 97, "dur": 0.5, "tieStart": false, "tieEnd": false, "tieGroup": 0}, {"pitch": 56, "vel": 73, "dur": 0.5, "tieStart": false, "tieEnd": false, "tieGroup": 0}]}]}, {"ts_num": 4, "ts_den": 4, "key_fifths": -4, "key_mode": 1, "clef": 1, "tempo": 104, "velocity": 100, "lyrics": "", "expr": [], "segs": [{"start": 0.0, "dur": 1.0, "rest": false, "notes": [{"pitch": 41, "vel": 104, "dur": 1.0, "tieStart": true, "tieEnd": false, "tieGroup": 320}, {"pitch": 53, "vel": 89, "dur": 1.0, "tieStart": false, "tieEnd": false, "tieGroup": 0}, {"pitch": 68, "vel": 85, "dur": 1.0, "tieStart": false, "tieEnd": false, "tieGroup": 0}]}, {"start": 1.0, "dur": 0.5, "rest": false, "notes": [{"pitch": 41, "vel": 104, "dur": 0.5, "tieStart": false, "tieEnd": true, "tieGroup": 320}, {"pitch": 44, "vel": 97, "dur": 0.5, "tieStart": false, "tieEnd": false, "tieGroup": 0}]}, {"start": 1.5, "dur": 0.5, "rest": false, "notes": [{"pitch": 48, "vel": 89, "dur": 0.5, "tieStart": false, "tieEnd": false, "tieGroup": 0}]}, {"start": 2.0, "dur": 0.5, "rest": false, "notes": [{"pitch": 48, "vel": 98, "dur": 0.5, "tieStart": false, "tieEnd": false, "tieGroup": 79}, {"pitch": 51, "vel": 89, "dur": 0.5, "tieStart": false, "tieEnd": false, "tieGroup": 0}, {"pitch": 65, "vel": 85, "dur": 0.5, "tieStart": false, "tieEnd": false, "tieGroup": 0}]}, {"start": 2.5, "dur": 1.0, "rest": false, "notes": [{"pitch": 77, "vel": 89, "dur": 1.0, "tieStart": false, "tieEnd": false, "tieGroup": 321}]}, {"start": 3.5, "dur": 0.5, "rest": false, "notes": [{"pitch": 41, "vel": 106, "dur": 0.5, "tieStart": false, "tieEnd": false, "tieGroup": 80}, {"pitch": 44, "vel": 97, "dur": 0.5, "tieStart": false, "tieEnd": false, "tieGroup": 0}]}]}, {"ts_num": 4, "ts_den": 4, "key_fifths": -4, "key_mode": 1, "clef": 1, "tempo": 104, "velocity": 100, "lyrics": "", "expr": [], "segs": [{"start": 0.0, "dur": 0.5, "rest": false, "notes": [{"pitch": 41, "vel": 73, "dur": 0.5, "tieStart": false, "tieEnd": false, "tieGroup": 0}, {"pitch": 48, "vel": 69, "dur": 0.5, "tieStart": false, "tieEnd": false, "tieGroup": 0}]}, {"start": 0.5, "dur": 1.0, "rest": false, "notes": [{"pitch": 44, "vel": 65, "dur": 1.0, "tieStart": false, "tieEnd": false, "tieGroup": 0}]}, {"start": 1.5, "dur": 0.5, "rest": false, "notes": [{"pitch": 56, "vel": 97, "dur": 0.5, "tieStart": false, "tieEnd": false, "tieGroup": 0}]}, {"start": 2.0, "dur": 0.5, "rest": false, "notes": [{"pitch": 53, "vel": 73, "dur": 0.5, "tieStart": false, "tieEnd": false, "tieGroup": 0}, {"pitch": 60, "vel": 69, "dur": 0.5, "tieStart": false, "tieEnd": false, "tieGroup": 0}]}, {"start": 2.5, "dur": 0.5, "rest": false, "notes": [{"pitch": 56, "vel": 73, "dur": 0.5, "tieStart": false, "tieEnd": false, "tieGroup": 0}]}, {"start": 3.0, "dur": 0.5, "rest": false, "notes": [{"pitch": 44, "vel": 65, "dur": 0.5, "tieStart": false, "tieEnd": false, "tieGroup": 0}]}, {"start": 3.5, "dur": 0.5, "rest": false, "notes": [{"pitch": 56, "vel": 97, "dur": 0.5, "tieStart": false, "tieEnd": false, "tieGroup": 0}]}]}, {"ts_num": 4, "ts_den": 4, "key_fifths": -4, "key_mode": 1, "clef": 1, "tempo": 104, "velocity": 100, "lyrics": "", "expr": [], "segs": [{"start": 0.0, "dur": 0.5, "rest": false, "notes": [{"pitch": 44, "vel": 97, "dur": 0.5, "tieStart": false, "tieEnd": false, "tieGroup": 0}, {"pitch": 53, "vel": 93, "dur": 0.5, "tieStart": false, "tieEnd": false, "tieGroup": 0}]}, {"start": 0.5, "dur": 0.5, "rest": false, "notes": [{"pitch": 60, "vel": 97, "dur": 0.5, "tieStart": false, "tieEnd": false, "tieGroup": 0}]}, {"start": 1.0, "dur": 0.5, "rest": false, "notes": [{"pitch": 65, "vel": 97, "dur": 0.5, "tieStart": false, "tieEnd": false, "tieGroup": 0}]}, {"start": 1.5, "dur": 0.5, "rest": false, "notes": [{"pitch": 51, "vel": 97, "dur": 0.5, "tieStart": false, "tieEnd": false, "tieGroup": 0}]}, {"start": 2.0, "dur": 1.0, "rest": false, "notes": [{"pitch": 53, "vel": 97, "dur": 1.0, "tieStart": false, "tieEnd": false, "tieGroup": 0}]}, {"start": 3.0, "dur": 0.5, "rest": false, "notes": [{"pitch": 60, "vel": 97, "dur": 0.5, "tieStart": false, "tieEnd": false, "tieGroup": 0}]}, {"start": 3.5, "dur": 0.5, "rest": false, "notes": [{"pitch": 65, "vel": 97, "dur": 0.5, "tieStart": false, "tieEnd": false, "tieGroup": 0}]}]}, {"ts_num": 4, "ts_den": 4, "key_fifths": -4, "key_mode": 1, "clef": 1, "tempo": 104, "velocity": 100, "lyrics": "", "expr": [], "segs": [{"start": 0.0, "dur": 1.0, "rest": false, "notes": [{"pitch": 41, "vel": 97, "dur": 1.0, "tieStart": false, "tieEnd": false, "tieGroup": 0}, {"pitch": 56, "vel": 93, "dur": 1.0, "tieStart": false, "tieEnd": false, "tieGroup": 0}]}, {"start": 1.0, "dur": 0.5, "rest": false, "notes": [{"pitch": 44, "vel": 97, "dur": 0.5, "tieStart": false, "tieEnd": false, "tieGroup": 0}]}, {"start": 1.5, "dur": 0.5, "rest": false, "notes": [{"pitch": 56, "vel": 97, "dur": 0.5, "tieStart": false, "tieEnd": false, "tieGroup": 0}]}, {"start": 2.0, "dur": 0.5, "rest": false, "notes": [{"pitch": 65, "vel": 89, "dur": 0.5, "tieStart": false, "tieEnd": false, "tieGroup": 0}]}, {"start": 2.5, "dur": 1.0, "rest": false, "notes": [{"pitch": 67, "vel": 97, "dur": 1.0, "tieStart": false, "tieEnd": false, "tieGroup": 0}]}, {"start": 3.5, "dur": 0.5, "rest": false, "notes": [{"pitch": 48, "vel": 97, "dur": 0.5, "tieStart": false, "tieEnd": false, "tieGroup": 0}, {"pitch": 53, "vel": 93, "dur": 0.5, "tieStart": false, "tieEnd": false, "tieGroup": 0}]}]}, {"ts_num": 4, "ts_den": 4, "key_fifths": -4, "key_mode": 1, "clef": 1, "tempo": 104, "velocity": 100, "lyrics": "", "expr": [], "segs": [{"start": 0.0, "dur": 4.0, "rest": true, "notes": []}]}, {"ts_num": 4, "ts_den": 4, "key_fifths": -4, "key_mode": 1, "clef": 1, "tempo": 104, "velocity": 100, "lyrics": "", "expr": [], "segs": [{"start": 0.0, "dur": 4.0, "rest": true, "notes": []}]}]}, {"name": "Accomp AI Delicate High", "instrument": {"name": "Stereo Grand", "bankMSB": 0, "bankLSB": 0, "program": 0, "channelHint": -1, "percussion": false, "volume": 80, "pan": 64, "transpose": 0}, "measures": [{"ts_num": 4, "ts_den": 4, "key_fifths": -4, "key_mode": 1, "clef": 0, "tempo": 104, "velocity": 100, "lyrics": "", "expr": [], "segs": [{"start": 0.0, "dur": 2.0, "rest": true, "notes": []}, {"start": 2.0, "dur": 2.0, "rest": false, "notes": [{"pitch": 72, "vel": 70, "dur": 2.0, "tieStart": false, "tieEnd": false, "tieGroup": 322}, {"pitch": 75, "vel": 70, "dur": 2.0, "tieStart": false, "tieEnd": false, "tieGroup": 0}, {"pitch": 79, "vel": 70, "dur": 2.0, "tieStart": false, "tieEnd": false, "tieGroup": 0}]}]}, {"ts_num": 4, "ts_den": 4, "key_fifths": -4, "key_mode": 1, "clef": 0, "tempo": 104, "velocity": 100, "lyrics": "", "expr": [], "segs": [{"start": 0.0, "dur": 1.0, "rest": true, "notes": []}, {"start": 1.0, "dur": 2.0, "rest": false, "notes": [{"pitch": 68, "vel": 72, "dur": 2.0, "tieStart": false, "tieEnd": false, "tieGroup": 325}, {"pitch": 72, "vel": 72, "dur": 2.0, "tieStart": false, "tieEnd": false, "tieGroup": 0}, {"pitch": 75, "vel": 72, "dur": 2.0, "tieStart": false, "tieEnd": false, "tieGroup": 0}]}, {"start": 3.0, "dur": 1.0, "rest": true, "notes": []}]}, {"ts_num": 4, "ts_den": 4, "key_fifths": -4, "key_mode": 1, "clef": 0, "tempo": 104, "velocity": 100, "lyrics": "", "expr": [], "segs": [{"start": 0.0, "dur": 0.5, "rest": true, "notes": []}, {"start": 0.5, "dur": 1.0, "rest": false, "notes": [{"pitch": 70, "vel": 76, "dur": 1.0, "tieStart": false, "tieEnd": false, "tieGroup": 327}]}, {"start": 1.5, "dur": 1.0, "rest": false, "notes": [{"pitch": 72, "vel": 74, "dur": 1.0, "tieStart": false, "tieEnd": false, "tieGroup": 0}, {"pitch": 75, "vel": 74, "dur": 1.0, "tieStart": false, "tieEnd": false, "tieGroup": 0}]}, {"start": 2.5, "dur": 1.0, "rest": false, "notes": [{"pitch": 79, "vel": 78, "dur": 1.0, "tieStart": false, "tieEnd": false, "tieGroup": 0}]}, {"start": 3.5, "dur": 0.5, "rest": true, "notes": []}]}, {"ts_num": 4, "ts_den": 4, "key_fifths": -4, "key_mode": 1, "clef": 0, "tempo": 104, "velocity": 100, "lyrics": "", "expr": [], "segs": [{"start": 0.0, "dur": 1.0, "rest": false, "notes": [{"pitch": 68, "vel": 76, "dur": 1.0, "tieStart": false, "tieEnd": false, "tieGroup": 0}, {"pitch": 73, "vel": 76, "dur": 1.0, "tieStart": false, "tieEnd": false, "tieGroup": 0}]}, {"start": 1.0, "dur": 1.0, "rest": false, "notes": [{"pitch": 72, "vel": 78, "dur": 1.0, "tieStart": false, "tieEnd": false, "tieGroup": 0}, {"pitch": 77, "vel": 78, "dur": 1.0, "tieStart": false, "tieEnd": false, "tieGroup": 0}]}, {"start": 2.0, "dur": 1.0, "rest": false, "notes": [{"pitch": 70, "vel": 80, "dur": 1.0, "tieStart": false, "tieEnd": false, "tieGroup": 0}, {"pitch": 73, "vel": 80, "dur": 1.0, "tieStart": false, "tieEnd": false, "tieGroup": 0}]}, {"start": 3.0, "dur": 1.0, "rest": false, "notes": [{"pitch": 84, "vel": 84, "dur": 1.0, "tieStart": false, "tieEnd": false, "tieGroup": 0}]}]}, {"ts_num": 4, "ts_den": 4, "key_fifths": -4, "key_mode": 1, "clef": 0, "tempo": 120, "velocity": 100, "lyrics": "", "expr": [], "segs": [{"start": 0.0, "dur": 0.25, "rest": true, "notes": []}, {"start": 0.25, "dur": 0.5, "rest": false, "notes": [{"pitch": 60, "vel": 98, "dur": 0.5, "tieStart": false, "tieEnd": false, "tieGroup": 248}]}, {"start": 0.75, "dur": 0.25, "rest": false, "notes": [{"pitch": 63, "vel": 102, "dur": 0.25, "tieStart": true, "tieEnd": false, "tieGroup": 125}]}, {"start": 1.0, "dur": 0.25, "rest": false, "notes": [{"pitch": 56, "vel": 85, "dur": 0.25, "tieStart": true, "tieEnd": false, "tieGroup": 120}, {"pitch": 63, "vel": 102, "dur": 0.25, "tieStart": false, "tieEnd": true, "tieGroup": 125}]}, {"start": 1.25, "dur": 0.5, "rest": false, "notes": [{"pitch": 56, "vel": 85, "dur": 0.5, "tieStart": true, "tieEnd": true, "tieGroup": 120}, {"pitch": 63, "vel": 81, "dur": 0.5, "tieStart": true, "tieEnd": false, "tieGroup": 121}]}, {"start": 1.75, "dur": 0.25, "rest": false, "notes": [{"pitch": 56, "vel": 85, "dur": 0.25, "tieStart": false, "tieEnd": true, "tieGroup": 120}, {"pitch": 63, "vel": 81, "dur": 0.25, "tieStart": false, "tieEnd": true, "tieGroup": 121}, {"pitch": 67, "vel": 102, "dur": 0.25, "tieStart": false, "tieEnd": false, "tieGroup": 249}]}, {"start": 2.0, "dur": 0.5, "rest": true, "notes": []}, {"start": 2.5, "dur": 1.0, "rest": false, "notes": [{"pitch": 56, "vel": 89, "dur": 1.0, "tieStart": false, "tieEnd": false, "tieGroup": 250}, {"pitch": 60, "vel": 85, "dur": 1.0, "tieStart": false, "tieEnd": false, "tieGroup": 0}]}, {"start": 3.5, "dur": 0.5, "rest": true, "notes": []}]}, {"ts_num": 4, "ts_den": 4, "key_fifths": -4, "key_mode": 1, "clef": 0, "tempo": 120, "velocity": 100, "lyrics": "", "expr": [], "segs": [{"start": 0.0, "dur": 2.75, "rest": false, "notes": [{"pitch": 65, "vel": 69, "dur": 2.75, "tieStart": true, "tieEnd": false, "tieGroup": 130}, {"pitch": 68, "vel": 65, "dur": 2.75, "tieStart": true, "tieEnd": false, "tieGroup": 131}]}, {"start": 2.75, "dur": 0.5, "rest": false, "notes": [{"pitch": 60, "vel": 110, "dur": 0.5, "tieStart": false, "tieEnd": false, "tieGroup": 0}, {"pitch": 65, "vel": 69, "dur": 0.5, "tieStart": true, "tieEnd": true, "tieGroup": 130}, {"pitch": 68, "vel": 65, "dur": 0.5, "tieStart": true, "tieEnd": true, "tieGroup": 131}, {"pitch": 77, "vel": 98, "dur": 0.5, "tieStart": false, "tieEnd": false, "tieGroup": 0}]}, {"start": 3.25, "dur": 0.25, "rest": false, "notes": [{"pitch": 65, "vel": 69, "dur": 0.25, "tieStart": false, "tieEnd": true, "tieGroup": 130}, {"pitch": 68, "vel": 65, "dur": 0.25, "tieStart": false, "tieEnd": true, "tieGroup": 131}]}, {"start": 3.5, "dur": 0.5, "rest": false, "notes": [{"pitch": 61, "vel": 81, "dur": 0.5, "tieStart": false, "tieEnd": false, "tieGroup": 0}]}]}, {"ts_num": 4, "ts_den": 4, "key_fifths": -4, "key_mode": 1, "clef": 0, "tempo": 120, "velocity": 100, "lyrics": "", "expr": [], "segs": [{"start": 0.0, "dur": 0.25, "rest": true, "notes": []}, {"start": 0.25, "dur": 0.25, "rest": false, "notes": [{"pitch": 56, "vel": 77, "dur": 0.25, "tieStart": false, "tieEnd": false, "tieGroup": 251}, {"pitch": 60, "vel": 73, "dur": 0.25, "tieStart": false, "tieEnd": false, "tieGroup": 0}, {"pitch": 63, "vel": 69, "dur": 0.25, "tieStart": false, "tieEnd": false, "tieGroup": 0}, {"pitch": 68, "vel": 65, "dur": 0.25, "tieStart": false, "tieEnd": false, "tieGroup": 0}]}, {"start": 0.5, "dur": 0.25, "rest": false, "notes": [{"pitch": 56, "vel": 77, "dur": 0.25, "tieStart": false, "tieEnd": false, "tieGroup": 0}, {"pitch": 60, "vel": 73, "dur": 0.25, "tieStart": false, "tieEnd": false, "tieGroup": 0}, {"pitch": 63, "vel": 69, "dur": 0.25, "tieStart": false, "tieEnd": false, "tieGroup": 0}, {"pitch": 72, "vel": 65, "dur": 0.25, "tieStart": false, "tieEnd": false, "tieGroup": 0}]}, {"start": 0.75, "dur": 0.25, "rest": false, "notes": [{"pitch": 67, "vel": 73, "dur": 0.25, "tieStart": false, "tieEnd": false, "tieGroup": 0}, {"pitch": 79, "vel": 65, "dur": 0.25, "tieStart": false, "tieEnd": false, "tieGroup": 0}]}, {"start": 1.0, "dur": 0.25, "rest": false, "notes": [{"pitch": 65, "vel": 77, "dur": 0.25, "tieStart": false, "tieEnd": false, "tieGroup": 0}, {"pitch": 68, "vel": 73, "dur": 0.25, "tieStart": false, "tieEnd": false, "tieGroup": 0}, {"pitch": 72, "vel": 69, "dur": 0.25, "tieStart": false, "tieEnd": false, "tieGroup": 0}, {"pitch": 84, "vel": 65, "dur": 0.25, "tieStart": false, "tieEnd": false, "tieGroup": 0}]}, {"start": 1.25, "dur": 0.5, "rest": false, "notes": [{"pitch": 63, "vel": 101, "dur": 0.5, "tieStart": false, "tieEnd": false, "tieGroup": 0}, {"pitch": 67, "vel": 97, "dur": 0.5, "tieStart": false, "tieEnd": false, "tieGroup": 0}, {"pitch": 79, "vel": 89, "dur": 0.5, "tieStart": false, "tieEnd": false, "tieGroup": 0}]}, {"start": 1.75, "dur": 0.5, "rest": false, "notes": [{"pitch": 65, "vel": 93, "dur": 0.5, "tieStart": false, "tieEnd": false, "tieGroup": 147}, {"pitch": 68, "vel": 89, "dur": 0.5, "tieStart": false, "tieEnd": false, "tieGroup": 148}, {"pitch": 72, "vel": 85, "dur": 0.5, "tieStart": false, "tieEnd": false, "tieGroup": 149}, {"pitch": 84, "vel": 81, "dur": 0.5, "tieStart": false, "tieEnd": false, "tieGroup": 150}]}, {"start": 2.25, "dur": 0.25, "rest": false, "notes": [{"pitch": 67, "vel": 77, "dur": 0.25, "tieStart": true, "tieEnd": false, "tieGroup": 151}, {"pitch": 72, "vel": 104, "dur": 0.25, "tieStart": false, "tieEnd": false, "tieGroup": 145}]}, {"start": 2.5, "dur": 0.5, "rest": false, "notes": [{"pitch": 67, "vel": 77, "dur": 0.5, "tieStart": false, "tieEnd": true, "tieGroup": 151}, {"pitch": 84, "vel": 89, "dur": 0.5, "tieStart": false, "tieEnd": false, "tieGroup": 0}]}, {"start": 3.0, "dur": 0.25, "rest": false, "notes": [{"pitch": 72, "vel": 77, "dur": 0.25, "tieStart": false, "tieEnd": false, "tieGroup": 0}, {"pitch": 75, "vel": 73, "dur": 0.25, "tieStart": false, "tieEnd": false, "tieGroup": 0}, {"pitch": 77, "vel": 69, "dur": 0.25, "tieStart": false, "tieEnd": false, "tieGroup": 0}, {"pitch": 87, "vel": 65, "dur": 0.25, "tieStart": false, "tieEnd": false, "tieGroup": 0}]}, {"start": 3.25, "dur": 0.75, "rest": true, "notes": []}]}, {"ts_num": 4, "ts_den": 4, "key_fifths": -4, "key_mode": 1, "clef": 0, "tempo": 120, "velocity": 100, "lyrics": "", "expr": [], "segs": [{"start": 0.0, "dur": 0.5, "rest": false, "notes": [{"pitch": 56, "vel": 106, "dur": 0.5, "tieStart": false, "tieEnd": false, "tieGroup": 0}, {"pitch": 68, "vel": 102, "dur": 0.5, "tieStart": false, "tieEnd": false, "tieGroup": 0}]}, {"start": 0.5, "dur": 0.5, "rest": false, "notes": [{"pitch": 56, "vel": 110, "dur": 0.5, "tieStart": false, "tieEnd": false, "tieGroup": 0}, {"pitch": 60, "vel": 106, "dur": 0.5, "tieStart": false, "tieEnd": false, "tieGroup": 0}, {"pitch": 63, "vel": 102, "dur": 0.5, "tieStart": false, "tieEnd": false, "tieGroup": 0}, {"pitch": 72, "vel": 98, "dur": 0.5, "tieStart": false, "tieEnd": false, "tieGroup": 0}]}, {"start": 1.0, "dur": 0.5, "rest": false, "notes": [{"pitch": 63, "vel": 106, "dur": 0.5, "tieStart": false, "tieEnd": false, "tieGroup": 0}]}, {"start": 1.5, "dur": 0.5, "rest": false, "notes": [{"pitch": 56, "vel": 61, "dur": 0.5, "tieStart": false, "tieEnd": false, "tieGroup": 0}, {"pitch": 63, "vel": 57, "dur": 0.5, "tieStart": false, "tieEnd": false, "tieGroup": 0}, {"pitch": 72, "vel": 53, "dur": 0.5, "tieStart": false, "tieEnd": false, "tieGroup": 0}]}, {"start": 2.0, "dur": 0.5, "rest": false, "notes": [{"pitch": 63, "vel": 57, "dur": 0.5, "tieStart": false, "tieEnd": false, "tieGroup": 0}]}, {"start": 2.5, "dur": 0.5, "rest": false, "notes": [{"pitch": 63, "vel": 61, "dur": 0.5, "tieStart": false, "tieEnd": false, "tieGroup": 0}, {"pitch": 65, "vel": 57, "dur": 0.5, "tieStart": false, "tieEnd": false, "tieGroup": 0}, {"pitch": 68, "vel": 53, "dur": 0.5, "tieStart": false, "tieEnd": false, "tieGroup": 0}, {"pitch": 80, "vel": 49, "dur": 0.5, "tieStart": false, "tieEnd": false, "tieGroup": 0}]}, {"start": 3.0, "dur": 0.25, "rest": false, "notes": [{"pitch": 60, "vel": 69, "dur": 0.25, "tieStart": true, "tieEnd": false, "tieGroup": 152}, {"pitch": 72, "vel": 77, "dur": 0.25, "tieStart": false, "tieEnd": false, "tieGroup": 0}]}, {"start": 3.25, "dur": 0.5, "rest": false, "notes": [{"pitch": 60, "vel": 69, "dur": 0.5, "tieStart": false, "tieEnd": true, "tieGroup": 152}, {"pitch": 68, "vel": 85, "dur": 0.5, "tieStart": false, "tieEnd": false, "tieGroup": 0}, {"pitch": 75, "vel": 81, "dur": 0.5, "tieStart": false, "tieEnd": false, "tieGroup": 0}]}, {"start": 3.75, "dur": 0.25, "rest": false, "notes": [{"pitch": 63, "vel": 106, "dur": 0.25, "tieStart": false, "tieEnd": false, "tieGroup": 0}, {"pitch": 65, "vel": 73, "dur": 0.25, "tieStart": false, "tieEnd": false, "tieGroup": 0}, {"pitch": 77, "vel": 98, "dur": 0.25, "tieStart": false, "tieEnd": false, "tieGroup": 0}]}]}, {"ts_num": 4, "ts_den": 4, "key_fifths": -4, "key_mode": 1, "clef": 0, "tempo": 120, "velocity": 100, "lyrics": "", "expr": [], "segs": [{"start": 0.0, "dur": 0.75, "rest": true, "notes": []}, {"start": 0.75, "dur": 0.75, "rest": false, "notes": [{"pitch": 68, "vel": 85, "dur": 0.75, "tieStart": false, "tieEnd": false, "tieGroup": 255}, {"pitch": 72, "vel": 81, "dur": 0.75, "tieStart": false, "tieEnd": false, "tieGroup": 0}, {"pitch": 75, "vel": 77, "dur": 0.75, "tieStart": false, "tieEnd": false, "tieGroup": 0}, {"pitch": 84, "vel": 73, "dur": 0.75, "tieStart": false, "tieEnd": false, "tieGroup": 0}]}, {"start": 1.5, "dur": 0.5, "rest": false, "notes": [{"pitch": 65, "vel": 73, "dur": 0.5, "tieStart": false, "tieEnd": false, "tieGroup": 0}, {"pitch": 68, "vel": 73, "dur": 0.5, "tieStart": false, "tieEnd": false, "tieGroup": 97}, {"pitch": 80, "vel": 69, "dur": 0.5, "tieStart": true, "tieEnd": false, "tieGroup": 154}]}, {"start": 2.0, "dur": 0.25, "rest": false, "notes": [{"pitch": 68, "vel": 77, "dur": 0.25, "tieStart": true, "tieEnd": false, "tieGroup": 155}, {"pitch": 75, "vel": 69, "dur": 0.25, "tieStart": true, "tieEnd": false, "tieGroup": 156}, {"pitch": 80, "vel": 69, "dur": 0.25, "tieStart": false, "tieEnd": true, "tieGroup": 154}, {"pitch": 82, "vel": 65, "dur": 0.25, "tieStart": true, "tieEnd": false, "tieGroup": 157}]}, {"start": 2.25, "dur": 0.75, "rest": false, "notes": [{"pitch": 68, "vel": 77, "dur": 0.75, "tieStart": false, "tieEnd": true, "tieGroup": 155}, {"pitch": 75, "vel": 69, "dur": 0.75, "tieStart": false, "tieEnd": true, "tieGroup": 156}, {"pitch": 82, "vel": 65, "dur": 0.75, "tieStart": false, "tieEnd": true, "tieGroup": 157}]}, {"start": 3.0, "dur": 0.5, "rest": false, "notes": [{"pitch": 60, "vel": 85, "dur": 0.5, "tieStart": false, "tieEnd": false, "tieGroup": 0}, {"pitch": 63, "vel": 81, "dur": 0.5, "tieStart": false, "tieEnd": false, "tieGroup": 0}, {"pitch": 65, "vel": 77, "dur": 0.5, "tieStart": false, "tieEnd": false, "tieGroup": 0}, {"pitch": 72, "vel": 73, "dur": 0.5, "tieStart": false, "tieEnd": false, "tieGroup": 0}]}, {"start": 3.5, "dur": 0.25, "rest": false, "notes": [{"pitch": 68, "vel": 85, "dur": 0.25, "tieStart": false, "tieEnd": false, "tieGroup": 0}, {"pitch": 75, "vel": 81, "dur": 0.25, "tieStart": false, "tieEnd": false, "tieGroup": 0}]}, {"start": 3.75, "dur": 0.25, "rest": false, "notes": [{"pitch": 72, "vel": 73, "dur": 0.25, "tieStart": false, "tieEnd": false, "tieGroup": 0}, {"pitch": 75, "vel": 69, "dur": 0.25, "tieStart": false, "tieEnd": false, "tieGroup": 0}, {"pitch": 84, "vel": 65, "dur": 0.25, "tieStart": false, "tieEnd": false, "tieGroup": 0}]}]}, {"ts_num": 4, "ts_den": 4, "key_fifths": -4, "key_mode": 1, "clef": 0, "tempo": 120, "velocity": 100, "lyrics": "", "expr": [], "segs": [{"start": 0.0, "dur": 0.5, "rest": true, "notes": []}, {"start": 0.5, "dur": 0.25, "rest": false, "notes": [{"pitch": 56, "vel": 100, "dur": 0.25, "tieStart": false, "tieEnd": false, "tieGroup": 258}]}, {"start": 0.75, "dur": 1.0, "rest": false, "notes": [{"pitch": 61, "vel": 85, "dur": 1.0, "tieStart": false, "tieEnd": false, "tieGroup": 0}]}, {"start": 1.75, "dur": 1.0, "rest": false, "notes": [{"pitch": 60, "vel": 89, "dur": 1.0, "tieStart": false, "tieEnd": false, "tieGroup": 0}, {"pitch": 68, "vel": 85, "dur": 1.0, "tieStart": false, "tieEnd": false, "tieGroup": 0}]}, {"start": 2.75, "dur": 0.5, "rest": false, "notes": [{"pitch": 65, "vel": 85, "dur": 0.5, "tieStart": false, "tieEnd": false, "tieGroup": 0}]}, {"start": 3.25, "dur": 0.25, "rest": false, "notes": [{"pitch": 68, "vel": 85, "dur": 0.25, "tieStart": true, "tieEnd": false, "tieGroup": 158}]}, {"start": 3.5, "dur": 0.25, "rest": false, "notes": [{"pitch": 68, "vel": 85, "dur": 0.25, "tieStart": false, "tieEnd": true, "tieGroup": 158}, {"pitch": 72, "vel": 89, "dur": 0.25, "tieStart": false, "tieEnd": false, "tieGroup": 99}]}, {"start": 3.75, "dur": 0.25, "rest": false, "notes": [{"pitch": 61, "vel": 101, "dur": 0.25, "tieStart": false, "tieEnd": false, "tieGroup": 0}, {"pitch": 80, "vel": 81, "dur": 0.25, "tieStart": false, "tieEnd": false, "tieGroup": 0}]}]}, {"ts_num": 4, "ts_den": 4, "key_fifths": -4, "key_mode": 1, "clef": 0, "tempo": 120, "velocity": 100, "lyrics": "", "expr": [], "segs": [{"start": 0.0, "dur": 0.25, "rest": false, "notes": [{"pitch": 56, "vel": 93, "dur": 0.25, "tieStart": true, "tieEnd": false, "tieGroup": 162}, {"pitch": 65, "vel": 89, "dur": 0.25, "tieStart": true, "tieEnd": false, "tieGroup": 163}]}, {"start": 0.25, "dur": 0.25, "rest": false, "notes": [{"pitch": 56, "vel": 93, "dur": 0.25, "tieStart": true, "tieEnd": true, "tieGroup": 162}, {"pitch": 58, "vel": 100, "dur": 0.25, "tieStart": false, "tieEnd": false, "tieGroup": 0}, {"pitch": 65, "vel": 89, "dur": 0.25, "tieStart": true, "tieEnd": true, "tieGroup": 163}]}, {"start": 0.5, "dur": 0.75, "rest": false, "notes": [{"pitch": 56, "vel": 93, "dur": 0.75, "tieStart": false, "tieEnd": true, "tieGroup": 162}, {"pitch": 65, "vel": 89, "dur": 0.75, "tieStart": false, "tieEnd": true, "tieGroup": 163}]}, {"start": 1.25, "dur": 1.5, "rest": false, "notes": [{"pitch": 75, "vel": 102, "dur": 1.5, "tieStart": false, "tieEnd": false, "tieGroup": 0}]}, {"start": 2.75, "dur": 0.75, "rest": false, "notes": [{"pitch": 58, "vel": 61, "dur": 0.75, "tieStart": true, "tieEnd": false, "tieGroup": 167}]}, {"start": 3.5, "dur": 0.25, "rest": false, "notes": [{"pitch": 58, "vel": 61, "dur": 0.25, "tieStart": false, "tieEnd": true, "tieGroup": 167}, {"pitch": 63, "vel": 104, "dur": 0.25, "tieStart": false, "tieEnd": false, "tieGroup": 100}]}, {"start": 3.75, "dur": 0.25, "rest": false, "notes": [{"pitch": 61, "vel": 104, "dur": 0.25, "tieStart": false, "tieEnd": false, "tieGroup": 0}, {"pitch": 65, "vel": 77, "dur": 0.25, "tieStart": false, "tieEnd": false, "tieGroup": 0}, {"pitch": 68, "vel": 73, "dur": 0.25, "tieStart": false, "tieEnd": false, "tieGroup": 0}]}]}, {"ts_num": 4, "ts_den": 4, "key_fifths": -4, "key_mode": 1, "clef": 0, "tempo": 120, "velocity": 100, "lyrics": "", "expr": [], "segs": [{"start": 0.0, "dur": 0.5, "rest": true, "notes": []}, {"start": 0.5, "dur": 0.25, "rest": false, "notes": [{"pitch": 65, "vel": 110, "dur": 0.25, "tieStart": false, "tieEnd": false, "tieGroup": 261}, {"pitch": 68, "vel": 106, "dur": 0.25, "tieStart": false, "tieEnd": false, "tieGroup": 0}, {"pitch": 72, "vel": 102, "dur": 0.25, "tieStart": false, "tieEnd": false, "tieGroup": 0}, {"pitch": 80, "vel": 98, "dur": 0.25, "tieStart": false, "tieEnd": false, "tieGroup": 0}]}, {"start": 0.75, "dur": 0.25, "rest": false, "notes": [{"pitch": 70, "vel": 102, "dur": 0.25, "tieStart": true, "tieEnd": false, "tieGroup": 169}, {"pitch": 72, "vel": 89, "dur": 0.25, "tieStart": false, "tieEnd": false, "tieGroup": 101}, {"pitch": 82, "vel": 98, "dur": 0.25, "tieStart": true, "tieEnd": false, "tieGroup": 170}]}, {"start": 1.0, "dur": 0.25, "rest": false, "notes": [{"pitch": 70, "vel": 102, "dur": 0.25, "tieStart": false, "tieEnd": true, "tieGroup": 169}, {"pitch": 82, "vel": 98, "dur": 0.25, "tieStart": false, "tieEnd": true, "tieGroup": 170}]}, {"start": 1.25, "dur": 0.75, "rest": false, "notes": [{"pitch": 68, "vel": 110, "dur": 0.75, "tieStart": false, "tieEnd": false, "tieGroup": 0}, {"pitch": 72, "vel": 106, "dur": 0.75, "tieStart": false, "tieEnd": false, "tieGroup": 0}, {"pitch": 73, "vel": 102, "dur": 0.75, "tieStart": false, "tieEnd": false, "tieGroup": 0}, {"pitch": 85, "vel": 98, "dur": 0.75, "tieStart": false, "tieEnd": false, "tieGroup": 0}]}, {"start": 2.0, "dur": 1.25, "rest": true, "notes": []}, {"start": 3.25, "dur": 0.25, "rest": false, "notes": [{"pitch": 65, "vel": 85, "dur": 0.25, "tieStart": false, "tieEnd": false, "tieGroup": 171}, {"pitch": 70, "vel": 77, "dur": 0.25, "tieStart": false, "tieEnd": false, "tieGroup": 0}, {"pitch": 75, "vel": 73, "dur": 0.25, "tieStart": false, "tieEnd": false, "tieGroup": 0}]}, {"start": 3.5, "dur": 0.25, "rest": false, "notes": [{"pitch": 68, "vel": 81, "dur": 0.25, "tieStart": false, "tieEnd": false, "tieGroup": 0}, {"pitch": 72, "vel": 77, "dur": 0.25, "tieStart": false, "tieEnd": false, "tieGroup": 0}, {"pitch": 73, "vel": 73, "dur": 0.25, "tieStart": false, "tieEnd": false, "tieGroup": 0}]}, {"start": 3.75, "dur": 0.25, "rest": false, "notes": [{"pitch": 65, "vel": 85, "dur": 0.25, "tieStart": false, "tieEnd": false, "tieGroup": 0}, {"pitch": 70, "vel": 77, "dur": 0.25, "tieStart": false, "tieEnd": false, "tieGroup": 0}, {"pitch": 75, "vel": 73, "dur": 0.25, "tieStart": false, "tieEnd": false, "tieGroup": 0}]}]}, {"ts_num": 4, "ts_den": 4, "key_fifths": -4, "key_mode": 1, "clef": 0, "tempo": 120, "velocity": 100, "lyrics": "", "expr": [], "segs": [{"start": 0.0, "dur": 1.0, "rest": true, "notes": []}, {"start": 1.0, "dur": 0.5, "rest": false, "notes": [{"pitch": 60, "vel": 110, "dur": 0.5, "tieStart": false, "tieEnd": false, "tieGroup": 264}, {"pitch": 67, "vel": 106, "dur": 0.5, "tieStart": false, "tieEnd": false, "tieGroup": 0}, {"pitch": 77, "vel": 102, "dur": 0.5, "tieStart": false, "tieEnd": false, "tieGroup": 0}]}, {"start": 1.5, "dur": 0.5, "rest": false, "notes": [{"pitch": 63, "vel": 106, "dur": 0.5, "tieStart": false, "tieEnd": false, "tieGroup": 0}, {"pitch": 65, "vel": 102, "dur": 0.5, "tieStart": false, "tieEnd": false, "tieGroup": 0}, {"pitch": 75, "vel": 89, "dur": 0.5, "tieStart": true, "tieEnd": false, "tieGroup": 102}]}, {"start": 2.0, "dur": 0.5, "rest": false, "notes": [{"pitch": 63, "vel": 110, "dur": 0.5, "tieStart": false, "tieEnd": false, "tieGroup": 0}, {"pitch": 67, "vel": 106, "dur": 0.5, "tieStart": false, "tieEnd": false, "tieGroup": 0}, {"pitch": 68, "vel": 102, "dur": 0.5, "tieStart": false, "tieEnd": false, "tieGroup": 0}, {"pitch": 75, "vel": 89, "dur": 0.5, "tieStart": true, "tieEnd": true, "tieGroup": 102}, {"pitch": 80, "vel": 98, "dur": 0.5, "tieStart": false, "tieEnd": false, "tieGroup": 0}]}, {"start": 2.5, "dur": 0.5, "rest": false, "notes": [{"pitch": 75, "vel": 89, "dur": 0.5, "tieStart": true, "tieEnd": true, "tieGroup": 102}]}, {"start": 3.0, "dur": 0.25, "rest": false, "notes": [{"pitch": 60, "vel": 110, "dur": 0.25, "tieStart": false, "tieEnd": false, "tieGroup": 173}, {"pitch": 65, "vel": 106, "dur": 0.25, "tieStart": false, "tieEnd": false, "tieGroup": 0}, {"pitch": 75, "vel": 89, "dur": 0.25, "tieStart": true, "tieEnd": true, "tieGroup": 102}, {"pitch": 77, "vel": 102, "dur": 0.25, "tieStart": false, "tieEnd": false, "tieGroup": 0}]}, {"start": 3.25, "dur": 0.5, "rest": false, "notes": [{"pitch": 56, "vel": 77, "dur": 0.5, "tieStart": false, "tieEnd": false, "tieGroup": 0}, {"pitch": 63, "vel": 69, "dur": 0.5, "tieStart": false, "tieEnd": false, "tieGroup": 0}, {"pitch": 70, "vel": 65, "dur": 0.5, "tieStart": false, "tieEnd": false, "tieGroup": 0}, {"pitch": 75, "vel": 89, "dur": 0.5, "tieStart": false, "tieEnd": true, "tieGroup": 102}]}, {"start": 3.75, "dur": 0.25, "rest": false, "notes": [{"pitch": 60, "vel": 77, "dur": 0.25, "tieStart": false, "tieEnd": false, "tieGroup": 0}, {"pitch": 65, "vel": 69, "dur": 0.25, "tieStart": false, "tieEnd": false, "tieGroup": 0}, {"pitch": 77, "vel": 65, "dur": 0.25, "tieStart": false, "tieEnd": false, "tieGroup": 0}]}]}, {"ts_num": 4, "ts_den": 4, "key_fifths": -4, "key_mode": 1, "clef": 0, "tempo": 120, "velocity": 100, "lyrics": "", "expr": [], "segs": [{"start": 0.0, "dur": 1.0, "rest": false, "notes": [{"pitch": 68, "vel": 77, "dur": 1.0, "tieStart": true, "tieEnd": false, "tieGroup": 177}, {"pitch": 72, "vel": 73, "dur": 1.0, "tieStart": true, "tieEnd": false, "tieGroup": 178}, {"pitch": 75, "vel": 69, "dur": 1.0, "tieStart": true, "tieEnd": false, "tieGroup": 179}, {"pitch": 84, "vel": 65, "dur": 1.0, "tieStart": true, "tieEnd": false, "tieGroup": 180}]}, {"start": 1.0, "dur": 0.25, "rest": false, "notes": [{"pitch": 68, "vel": 77, "dur": 0.25, "tieStart": false, "tieEnd": true, "tieGroup": 177}, {"pitch": 72, "vel": 73, "dur": 0.25, "tieStart": false, "tieEnd": true, "tieGroup": 178}, {"pitch": 75, "vel": 69, "dur": 0.25, "tieStart": false, "tieEnd": true, "tieGroup": 179}, {"pitch": 77, "vel": 73, "dur": 0.25, "tieStart": true, "tieEnd": false, "tieGroup": 175}, {"pitch": 84, "vel": 65, "dur": 0.25, "tieStart": false, "tieEnd": true, "tieGroup": 180}]}, {"start": 1.25, "dur": 0.5, "rest": false, "notes": [{"pitch": 68, "vel": 77, "dur": 0.5, "tieStart": false, "tieEnd": false, "tieGroup": 174}, {"pitch": 75, "vel": 85, "dur": 0.5, "tieStart": true, "tieEnd": false, "tieGroup": 181}, {"pitch": 77, "vel": 73, "dur": 0.5, "tieStart": false, "tieEnd": true, "tieGroup": 175}]}, {"start": 1.75, "dur": 0.75, "rest": false, "notes": [{"pitch": 75, "vel": 85, "dur": 0.75, "tieStart": false, "tieEnd": true, "tieGroup": 181}, {"pitch": 80, "vel": 77, "dur": 0.75, "tieStart": false, "tieEnd": false, "tieGroup": 0}, {"pitch": 84, "vel": 73, "dur": 0.75, "tieStart": false, "tieEnd": false, "tieGroup": 0}]}, {"start": 2.5, "dur": 1.0, "rest": false, "notes": [{"pitch": 68, "vel": 53, "dur": 1.0, "tieStart": true, "tieEnd": false, "tieGroup": 183}, {"pitch": 75, "vel": 49, "dur": 1.0, "tieStart": true, "tieEnd": false, "tieGroup": 184}, {"pitch": 84, "vel": 45, "dur": 1.0, "tieStart": true, "tieEnd": false, "tieGroup": 185}]}, {"start": 3.5, "dur": 0.25, "rest": false, "notes": [{"pitch": 65, "vel": 81, "dur": 0.25, "tieStart": false, "tieEnd": false, "tieGroup": 104}, {"pitch": 68, "vel": 53, "dur": 0.25, "tieStart": true, "tieEnd": true, "tieGroup": 183}, {"pitch": 70, "vel": 77, "dur": 0.25, "tieStart": false, "tieEnd": false, "tieGroup": 0}, {"pitch": 75, "vel": 49, "dur": 0.25, "tieStart": true, "tieEnd": true, "tieGroup": 184}, {"pitch": 84, "vel": 45, "dur": 0.25, "tieStart": true, "tieEnd": true, "tieGroup": 185}]}, {"start": 3.75, "dur": 0.25, "rest": false, "notes": [{"pitch": 68, "vel": 53, "dur": 0.25, "tieStart": false, "tieEnd": true, "tieGroup": 183}, {"pitch": 75, "vel": 49, "dur": 0.25, "tieStart": false, "tieEnd": true, "tieGroup": 184}, {"pitch": 84, "vel": 45, "dur": 0.25, "tieStart": false, "tieEnd": true, "tieGroup": 185}]}]}, {"ts_num": 4, "ts_den": 4, "key_fifths": -4, "key_mode": 1, "clef": 0, "tempo": 120, "velocity": 100, "lyrics": "", "expr": [], "segs": [{"start": 0.0, "dur": 1.0, "rest": false, "notes": [{"pitch": 56, "vel": 102, "dur": 1.0, "tieStart": false, "tieEnd": false, "tieGroup": 0}]}, {"start": 1.0, "dur": 0.5, "rest": false, "notes": [{"pitch": 58, "vel": 69, "dur": 0.5, "tieStart": false, "tieEnd": false, "tieGroup": 0}]}, {"start": 1.5, "dur": 2.5, "rest": true, "notes": []}]}, {"ts_num": 4, "ts_den": 4, "key_fifths": -4, "key_mode": 1, "clef": 0, "tempo": 120, "velocity": 100, "lyrics": "", "expr": [], "segs": [{"start": 0.0, "dur": 1.5, "rest": true, "notes": []}, {"start": 1.5, "dur": 2.0, "rest": false, "notes": [{"pitch": 61, "vel": 46, "dur": 2.0, "tieStart": true, "tieEnd": false, "tieGroup": 189}, {"pitch": 68, "vel": 42, "dur": 2.0, "tieStart": true, "tieEnd": false, "tieGroup": 190}, {"pitch": 80, "vel": 38, "dur": 2.0, "tieStart": true, "tieEnd": false, "tieGroup": 191}]}, {"start": 3.5, "dur": 0.25, "rest": false, "notes": [{"pitch": 61, "vel": 46, "dur": 0.25, "tieStart": true, "tieEnd": true, "tieGroup": 189}, {"pitch": 68, "vel": 42, "dur": 0.25, "tieStart": true, "tieEnd": true, "tieGroup": 190}, {"pitch": 73, "vel": 89, "dur": 0.25, "tieStart": false, "tieEnd": false, "tieGroup": 0}, {"pitch": 80, "vel": 38, "dur": 0.25, "tieStart": true, "tieEnd": true, "tieGroup": 191}]}, {"start": 3.75, "dur": 0.25, "rest": false, "notes": [{"pitch": 61, "vel": 46, "dur": 0.25, "tieStart": false, "tieEnd": true, "tieGroup": 189}, {"pitch": 68, "vel": 42, "dur": 0.25, "tieStart": false, "tieEnd": true, "tieGroup": 190}, {"pitch": 77, "vel": 89, "dur": 0.25, "tieStart": false, "tieEnd": false, "tieGroup": 0}, {"pitch": 80, "vel": 38, "dur": 0.25, "tieStart": false, "tieEnd": true, "tieGroup": 191}, {"pitch": 85, "vel": 85, "dur": 0.25, "tieStart": false, "tieEnd": false, "tieGroup": 0}]}]}, {"ts_num": 4, "ts_den": 4, "key_fifths": -4, "key_mode": 1, "clef": 0, "tempo": 120, "velocity": 100, "lyrics": "", "expr": [], "segs": [{"start": 0.0, "dur": 4.0, "rest": false, "notes": [{"pitch": 68, "vel": 85, "dur": 4.0, "tieStart": false, "tieEnd": false, "tieGroup": 193}, {"pitch": 72, "vel": 81, "dur": 4.0, "tieStart": false, "tieEnd": false, "tieGroup": 194}, {"pitch": 75, "vel": 77, "dur": 4.0, "tieStart": false, "tieEnd": false, "tieGroup": 195}, {"pitch": 84, "vel": 73, "dur": 4.0, "tieStart": false, "tieEnd": false, "tieGroup": 196}]}]}, {"ts_num": 4, "ts_den": 4, "key_fifths": -4, "key_mode": 1, "clef": 0, "tempo": 120, "velocity": 100, "lyrics": "", "expr": [], "segs": [{"start": 0.0, "dur": 0.75, "rest": true, "notes": []}, {"start": 0.75, "dur": 0.5, "rest": false, "notes": [{"pitch": 56, "vel": 81, "dur": 0.5, "tieStart": false, "tieEnd": false, "tieGroup": 267}, {"pitch": 60, "vel": 77, "dur": 0.5, "tieStart": false, "tieEnd": false, "tieGroup": 0}, {"pitch": 68, "vel": 73, "dur": 0.5, "tieStart": false, "tieEnd": false, "tieGroup": 0}]}, {"start": 1.25, "dur": 0.5, "rest": false, "notes": [{"pitch": 70, "vel": 73, "dur": 0.5, "tieStart": false, "tieEnd": false, "tieGroup": 0}, {"pitch": 75, "vel": 69, "dur": 0.5, "tieStart": false, "tieEnd": false, "tieGroup": 0}, {"pitch": 77, "vel": 89, "dur": 0.5, "tieStart": false, "tieEnd": false, "tieGroup": 107}]}, {"start": 1.75, "dur": 2.25, "rest": false, "notes": [{"pitch": 65, "vel": 69, "dur": 2.25, "tieStart": false, "tieEnd": false, "tieGroup": 199}, {"pitch": 68, "vel": 65, "dur": 2.25, "tieStart": false, "tieEnd": false, "tieGroup": 0}, {"pitch": 72, "vel": 61, "dur": 2.25, "tieStart": false, "tieEnd": false, "tieGroup": 0}, {"pitch": 80, "vel": 57, "dur": 2.25, "tieStart": false, "tieEnd": false, "tieGroup": 0}]}]}, {"ts_num": 4, "ts_den": 4, "key_fifths": -4, "key_mode": 1, "clef": 0, "tempo": 120, "velocity": 100, "lyrics": "", "expr": [], "segs": [{"start": 0.0, "dur": 0.25, "rest": false, "notes": [{"pitch": 58, "vel": 65, "dur": 0.25, "tieStart": false, "tieEnd": false, "tieGroup": 0}]}, {"start": 0.25, "dur": 0.5, "rest": false, "notes": [{"pitch": 56, "vel": 81, "dur": 0.5, "tieStart": false, "tieEnd": false, "tieGroup": 0}, {"pitch": 60, "vel": 77, "dur": 0.5, "tieStart": false, "tieEnd": false, "tieGroup": 0}, {"pitch": 70, "vel": 73, "dur": 0.5, "tieStart": false, "tieEnd": false, "tieGroup": 0}]}, {"start": 0.75, "dur": 1.75, "rest": true, "notes": []}, {"start": 2.5, "dur": 0.75, "rest": false, "notes": [{"pitch": 60, "vel": 77, "dur": 0.75, "tieStart": false, "tieEnd": false, "tieGroup": 268}, {"pitch": 63, "vel": 73, "dur": 0.75, "tieStart": false, "tieEnd": false, "tieGroup": 0}, {"pitch": 67, "vel": 69, "dur": 0.75, "tieStart": false, "tieEnd": false, "tieGroup": 0}, {"pitch": 70, "vel": 65, "dur": 0.75, "tieStart": false, "tieEnd": false, "tieGroup": 0}]}, {"start": 3.25, "dur": 0.5, "rest": false, "notes": [{"pitch": 65, "vel": 65, "dur": 0.5, "tieStart": true, "tieEnd": false, "tieGroup": 200}]}, {"start": 3.75, "dur": 0.25, "rest": false, "notes": [{"pitch": 65, "vel": 65, "dur": 0.25, "tieStart": false, "tieEnd": true, "tieGroup": 200}, {"pitch": 67, "vel": 89, "dur": 0.25, "tieStart": false, "tieEnd": false, "tieGroup": 108}]}]}, {"ts_num": 4, "ts_den": 4, "key_fifths": -4, "key_mode": 1, "clef": 0, "tempo": 120, "velocity": 100, "lyrics": "", "expr": [], "segs": [{"start": 0.0, "dur": 1.0, "rest": false, "notes": [{"pitch": 56, "vel": 69, "dur": 1.0, "tieStart": false, "tieEnd": false, "tieGroup": 203}, {"pitch": 60, "vel": 65, "dur": 1.0, "tieStart": false, "tieEnd": false, "tieGroup": 204}]}, {"start": 1.0, "dur": 1.25, "rest": false, "notes": [{"pitch": 56, "vel": 69, "dur": 1.25, "tieStart": false, "tieEnd": false, "tieGroup": 0}, {"pitch": 65, "vel": 65, "dur": 1.25, "tieStart": false, "tieEnd": false, "tieGroup": 0}]}, {"start": 2.25, "dur": 1.0, "rest": false, "notes": [{"pitch": 68, "vel": 73, "dur": 1.0, "tieStart": false, "tieEnd": false, "tieGroup": 0}]}, {"start": 3.25, "dur": 0.5, "rest": false, "notes": [{"pitch": 56, "vel": 81, "dur": 0.5, "tieStart": false, "tieEnd": false, "tieGroup": 0}, {"pitch": 60, "vel": 77, "dur": 0.5, "tieStart": false, "tieEnd": false, "tieGroup": 0}]}, {"start": 3.75, "dur": 0.25, "rest": true, "notes": []}]}, {"ts_num": 4, "ts_den": 4, "key_fifths": -4, "key_mode": 1, "clef": 0, "tempo": 120, "velocity": 100, "lyrics": "", "expr": [], "segs": [{"start": 0.0, "dur": 0.25, "rest": false, "notes": [{"pitch": 58, "vel": 109, "dur": 0.25, "tieStart": false, "tieEnd": false, "tieGroup": 0}, {"pitch": 61, "vel": 105, "dur": 0.25, "tieStart": false, "tieEnd": false, "tieGroup": 0}, {"pitch": 65, "vel": 101, "dur": 0.25, "tieStart": false, "tieEnd": false, "tieGroup": 0}, {"pitch": 68, "vel": 97, "dur": 0.25, "tieStart": false, "tieEnd": false, "tieGroup": 0}]}, {"start": 0.25, "dur": 0.25, "rest": false, "notes": [{"pitch": 58, "vel": 85, "dur": 0.25, "tieStart": false, "tieEnd": false, "tieGroup": 0}, {"pitch": 61, "vel": 81, "dur": 0.25, "tieStart": false, "tieEnd": false, "tieGroup": 0}, {"pitch": 65, "vel": 77, "dur": 0.25, "tieStart": false, "tieEnd": false, "tieGroup": 0}, {"pitch": 70, "vel": 73, "dur": 0.25, "tieStart": false, "tieEnd": false, "tieGroup": 0}]}, {"start": 0.5, "dur": 0.25, "rest": false, "notes": [{"pitch": 75, "vel": 65, "dur": 0.25, "tieStart": false, "tieEnd": false, "tieGroup": 0}]}, {"start": 0.75, "dur": 0.5, "rest": false, "notes": [{"pitch": 58, "vel": 77, "dur": 0.5, "tieStart": false, "tieEnd": false, "tieGroup": 0}, {"pitch": 61, "vel": 73, "dur": 0.5, "tieStart": false, "tieEnd": false, "tieGroup": 0}, {"pitch": 65, "vel": 69, "dur": 0.5, "tieStart": false, "tieEnd": false, "tieGroup": 0}, {"pitch": 73, "vel": 65, "dur": 0.5, "tieStart": false, "tieEnd": false, "tieGroup": 0}]}, {"start": 1.25, "dur": 2.25, "rest": false, "notes": [{"pitch": 58, "vel": 69, "dur": 2.25, "tieStart": true, "tieEnd": false, "tieGroup": 209}, {"pitch": 61, "vel": 65, "dur": 2.25, "tieStart": true, "tieEnd": false, "tieGroup": 210}, {"pitch": 65, "vel": 61, "dur": 2.25, "tieStart": true, "tieEnd": false, "tieGroup": 211}, {"pitch": 70, "vel": 57, "dur": 2.25, "tieStart": true, "tieEnd": false, "tieGroup": 212}]}, {"start": 3.5, "dur": 0.25, "rest": false, "notes": [{"pitch": 58, "vel": 69, "dur": 0.25, "tieStart": true, "tieEnd": true, "tieGroup": 209}, {"pitch": 61, "vel": 65, "dur": 0.25, "tieStart": true, "tieEnd": true, "tieGroup": 210}, {"pitch": 65, "vel": 61, "dur": 0.25, "tieStart": true, "tieEnd": true, "tieGroup": 211}, {"pitch": 68, "vel": 89, "dur": 0.25, "tieStart": false, "tieEnd": false, "tieGroup": 109}, {"pitch": 70, "vel": 57, "dur": 0.25, "tieStart": true, "tieEnd": true, "tieGroup": 212}]}, {"start": 3.75, "dur": 0.25, "rest": false, "notes": [{"pitch": 58, "vel": 69, "dur": 0.25, "tieStart": false, "tieEnd": true, "tieGroup": 209}, {"pitch": 61, "vel": 65, "dur": 0.25, "tieStart": false, "tieEnd": true, "tieGroup": 210}, {"pitch": 65, "vel": 61, "dur": 0.25, "tieStart": false, "tieEnd": true, "tieGroup": 211}, {"pitch": 70, "vel": 57, "dur": 0.25, "tieStart": false, "tieEnd": true, "tieGroup": 212}]}]}, {"ts_num": 4, "ts_den": 4, "key_fifths": -4, "key_mode": 1, "clef": 0, "tempo": 120, "velocity": 100, "lyrics": "", "expr": [], "segs": [{"start": 0.0, "dur": 1.0, "rest": true, "notes": []}, {"start": 1.0, "dur": 0.25, "rest": false, "notes": [{"pitch": 75, "vel": 89, "dur": 0.25, "tieStart": false, "tieEnd": false, "tieGroup": 270}]}, {"start": 1.25, "dur": 0.25, "rest": false, "notes": [{"pitch": 73, "vel": 81, "dur": 0.25, "tieStart": false, "tieEnd": false, "tieGroup": 0}]}, {"start": 1.5, "dur": 0.25, "rest": false, "notes": [{"pitch": 68, "vel": 85, "dur": 0.25, "tieStart": false, "tieEnd": false, "tieGroup": 0}, {"pitch": 72, "vel": 81, "dur": 0.25, "tieStart": false, "tieEnd": false, "tieGroup": 0}, {"pitch": 73, "vel": 77, "dur": 0.25, "tieStart": false, "tieEnd": false, "tieGroup": 0}, {"pitch": 85, "vel": 73, "dur": 0.25, "tieStart": false, "tieEnd": false, "tieGroup": 0}]}, {"start": 1.75, "dur": 0.25, "rest": false, "notes": [{"pitch": 70, "vel": 81, "dur": 0.25, "tieStart": false, "tieEnd": false, "tieGroup": 0}]}, {"start": 2.0, "dur": 0.25, "rest": false, "notes": [{"pitch": 68, "vel": 77, "dur": 0.25, "tieStart": false, "tieEnd": false, "tieGroup": 0}, {"pitch": 72, "vel": 73, "dur": 0.25, "tieStart": false, "tieEnd": false, "tieGroup": 0}, {"pitch": 73, "vel": 69, "dur": 0.25, "tieStart": false, "tieEnd": false, "tieGroup": 0}, {"pitch": 85, "vel": 65, "dur": 0.25, "tieStart": false, "tieEnd": false, "tieGroup": 0}]}, {"start": 2.25, "dur": 0.25, "rest": false, "notes": [{"pitch": 70, "vel": 73, "dur": 0.25, "tieStart": false, "tieEnd": false, "tieGroup": 0}]}, {"start": 2.5, "dur": 0.5, "rest": true, "notes": []}, {"start": 3.0, "dur": 0.25, "rest": false, "notes": [{"pitch": 65, "vel": 77, "dur": 0.25, "tieStart": false, "tieEnd": false, "tieGroup": 273}, {"pitch": 68, "vel": 73, "dur": 0.25, "tieStart": false, "tieEnd": false, "tieGroup": 0}, {"pitch": 72, "vel": 69, "dur": 0.25, "tieStart": false, "tieEnd": false, "tieGroup": 0}, {"pitch": 73, "vel": 65, "dur": 0.25, "tieStart": false, "tieEnd": false, "tieGroup": 0}]}, {"start": 3.25, "dur": 0.25, "rest": false, "notes": [{"pitch": 70, "vel": 69, "dur": 0.25, "tieStart": false, "tieEnd": false, "tieGroup": 0}, {"pitch": 75, "vel": 65, "dur": 0.25, "tieStart": false, "tieEnd": false, "tieGroup": 0}]}, {"start": 3.5, "dur": 0.5, "rest": false, "notes": [{"pitch": 65, "vel": 93, "dur": 0.5, "tieStart": false, "tieEnd": false, "tieGroup": 0}, {"pitch": 68, "vel": 89, "dur": 0.5, "tieStart": false, "tieEnd": false, "tieGroup": 0}, {"pitch": 72, "vel": 85, "dur": 0.5, "tieStart": false, "tieEnd": false, "tieGroup": 0}, {"pitch": 80, "vel": 81, "dur": 0.5, "tieStart": false, "tieEnd": false, "tieGroup": 0}]}]}, {"ts_num": 4, "ts_den": 4, "key_fifths": -4, "key_mode": 1, "clef": 0, "tempo": 120, "velocity": 100, "lyrics": "", "expr": [], "segs": [{"start": 0.0, "dur": 1.5, "rest": true, "notes": []}, {"start": 1.5, "dur": 0.25, "rest": false, "notes": [{"pitch": 60, "vel": 69, "dur": 0.25, "tieStart": false, "tieEnd": false, "tieGroup": 275}]}, {"start": 1.75, "dur": 2.0, "rest": true, "notes": []}, {"start": 3.75, "dur": 0.25, "rest": false, "notes": [{"pitch": 56, "vel": 53, "dur": 0.25, "tieStart": false, "tieEnd": false, "tieGroup": 276}, {"pitch": 63, "vel": 45, "dur": 0.25, "tieStart": false, "tieEnd": false, "tieGroup": 0}, {"pitch": 70, "vel": 41, "dur": 0.25, "tieStart": false, "tieEnd": false, "tieGroup": 0}]}]}, {"ts_num": 4, "ts_den": 4, "key_fifths": -4, "key_mode": 1, "clef": 0, "tempo": 120, "velocity": 100, "lyrics": "", "expr": [], "segs": [{"start": 0.0, "dur": 0.5, "rest": false, "notes": [{"pitch": 56, "vel": 89, "dur": 0.5, "tieStart": false, "tieEnd": false, "tieGroup": 0}, {"pitch": 68, "vel": 85, "dur": 0.5, "tieStart": false, "tieEnd": false, "tieGroup": 0}]}, {"start": 0.5, "dur": 0.5, "rest": false, "notes": [{"pitch": 75, "vel": 89, "dur": 0.5, "tieStart": false, "tieEnd": false, "tieGroup": 0}, {"pitch": 84, "vel": 85, "dur": 0.5, "tieStart": false, "tieEnd": false, "tieGroup": 0}]}, {"start": 1.0, "dur": 0.5, "rest": false, "notes": [{"pitch": 68, "vel": 93, "dur": 0.5, "tieStart": false, "tieEnd": false, "tieGroup": 0}, {"pitch": 75, "vel": 85, "dur": 0.5, "tieStart": false, "tieEnd": false, "tieGroup": 0}]}, {"start": 1.5, "dur": 0.5, "rest": false, "notes": [{"pitch": 72, "vel": 85, "dur": 0.5, "tieStart": false, "tieEnd": false, "tieGroup": 0}]}, {"start": 2.0, "dur": 0.5, "rest": false, "notes": [{"pitch": 56, "vel": 100, "dur": 0.5, "tieStart": true, "tieEnd": false, "tieGroup": 225}, {"pitch": 63, "vel": 96, "dur": 0.5, "tieStart": true, "tieEnd": false, "tieGroup": 226}, {"pitch": 68, "vel": 93, "dur": 0.5, "tieStart": false, "tieEnd": false, "tieGroup": 0}, {"pitch": 75, "vel": 89, "dur": 0.5, "tieStart": false, "tieEnd": false, "tieGroup": 0}, {"pitch": 84, "vel": 85, "dur": 0.5, "tieStart": false, "tieEnd": false, "tieGroup": 0}]}, {"start": 2.5, "dur": 0.5, "rest": false, "notes": [{"pitch": 56, "vel": 100, "dur": 0.5, "tieStart": false, "tieEnd": true, "tieGroup": 225}, {"pitch": 63, "vel": 96, "dur": 0.5, "tieStart": false, "tieEnd": true, "tieGroup": 226}, {"pitch": 65, "vel": 101, "dur": 0.5, "tieStart": false, "tieEnd": false, "tieGroup": 0}, {"pitch": 68, "vel": 97, "dur": 0.5, "tieStart": false, "tieEnd": false, "tieGroup": 0}, {"pitch": 72, "vel": 93, "dur": 0.5, "tieStart": false, "tieEnd": false, "tieGroup": 0}, {"pitch": 77, "vel": 89, "dur": 0.5, "tieStart": false, "tieEnd": false, "tieGroup": 0}]}, {"start": 3.0, "dur": 0.5, "rest": false, "notes": [{"pitch": 67, "vel": 104, "dur": 0.5, "tieStart": true, "tieEnd": false, "tieGroup": 227}, {"pitch": 72, "vel": 100, "dur": 0.5, "tieStart": true, "tieEnd": false, "tieGroup": 228}, {"pitch": 75, "vel": 85, "dur": 0.5, "tieStart": false, "tieEnd": false, "tieGroup": 0}]}, {"start": 3.5, "dur": 0.5, "rest": false, "notes": [{"pitch": 67, "vel": 104, "dur": 0.5, "tieStart": false, "tieEnd": true, "tieGroup": 227}, {"pitch": 68, "vel": 93, "dur": 0.5, "tieStart": false, "tieEnd": false, "tieGroup": 0}, {"pitch": 72, "vel": 100, "dur": 0.5, "tieStart": false, "tieEnd": true, "tieGroup": 228}, {"pitch": 75, "vel": 89, "dur": 0.5, "tieStart": false, "tieEnd": false, "tieGroup": 0}, {"pitch": 84, "vel": 85, "dur": 0.5, "tieStart": false, "tieEnd": false, "tieGroup": 0}]}]}, {"ts_num": 4, "ts_den": 4, "key_fifths": -4, "key_mode": 1, "clef": 0, "tempo": 120, "velocity": 100, "lyrics": "", "expr": [], "segs": [{"start": 0.0, "dur": 1.0, "rest": false, "notes": [{"pitch": 56, "vel": 93, "dur": 1.0, "tieStart": false, "tieEnd": false, "tieGroup": 0}, {"pitch": 68, "vel": 89, "dur": 1.0, "tieStart": false, "tieEnd": false, "tieGroup": 0}]}, {"start": 1.0, "dur": 0.75, "rest": false, "notes": [{"pitch": 68, "vel": 93, "dur": 0.75, "tieStart": false, "tieEnd": false, "tieGroup": 229}, {"pitch": 72, "vel": 85, "dur": 0.75, "tieStart": false, "tieEnd": false, "tieGroup": 0}, {"pitch": 75, "vel": 81, "dur": 0.75, "tieStart": false, "tieEnd": false, "tieGroup": 0}]}, {"start": 1.75, "dur": 0.25, "rest": false, "notes": [{"pitch": 65, "vel": 69, "dur": 0.25, "tieStart": true, "tieEnd": false, "tieGroup": 232}, {"pitch": 68, "vel": 65, "dur": 0.25, "tieStart": true, "tieEnd": false, "tieGroup": 233}, {"pitch": 70, "vel": 61, "dur": 0.25, "tieStart": true, "tieEnd": false, "tieGroup": 234}, {"pitch": 72, "vel": 89, "dur": 0.25, "tieStart": false, "tieEnd": false, "tieGroup": 230}]}, {"start": 2.0, "dur": 0.75, "rest": false, "notes": [{"pitch": 65, "vel": 69, "dur": 0.75, "tieStart": false, "tieEnd": true, "tieGroup": 232}, {"pitch": 68, "vel": 65, "dur": 0.75, "tieStart": false, "tieEnd": true, "tieGroup": 233}, {"pitch": 70, "vel": 61, "dur": 0.75, "tieStart": false, "tieEnd": true, "tieGroup": 234}]}, {"start": 2.75, "dur": 0.25, "rest": false, "notes": [{"pitch": 68, "vel": 85, "dur": 0.25, "tieStart": true, "tieEnd": false, "tieGroup": 238}, {"pitch": 72, "vel": 81, "dur": 0.25, "tieStart": true, "tieEnd": false, "tieGroup": 239}, {"pitch": 84, "vel": 77, "dur": 0.25, "tieStart": true, "tieEnd": false, "tieGroup": 240}]}, {"start": 3.0, "dur": 0.75, "rest": false, "notes": [{"pitch": 56, "vel": 93, "dur": 0.75, "tieStart": true, "tieEnd": false, "tieGroup": 235}, {"pitch": 65, "vel": 89, "dur": 0.75, "tieStart": true, "tieEnd": false, "tieGroup": 236}, {"pitch": 68, "vel": 85, "dur": 0.75, "tieStart": false, "tieEnd": true, "tieGroup": 238}, {"pitch": 72, "vel": 81, "dur": 0.75, "tieStart": false, "tieEnd": true, "tieGroup": 239}, {"pitch": 84, "vel": 77, "dur": 0.75, "tieStart": false, "tieEnd": true, "tieGroup": 240}]}, {"start": 3.75, "dur": 0.25, "rest": false, "notes": [{"pitch": 56, "vel": 93, "dur": 0.25, "tieStart": false, "tieEnd": true, "tieGroup": 235}, {"pitch": 65, "vel": 89, "dur": 0.25, "tieStart": false, "tieEnd": true, "tieGroup": 236}, {"pitch": 68, "vel": 65, "dur": 0.25, "tieStart": false, "tieEnd": false, "tieGroup": 0}, {"pitch": 72, "vel": 61, "dur": 0.25, "tieStart": false, "tieEnd": false, "tieGroup": 0}]}]}, {"ts_num": 4, "ts_den": 4, "key_fifths": -4, "key_mode": 1, "clef": 0, "tempo": 120, "velocity": 100, "lyrics": "", "expr": [], "segs": [{"start": 0.0, "dur": 1.0, "rest": false, "notes": [{"pitch": 60, "vel": 61, "dur": 1.0, "tieStart": true, "tieEnd": false, "tieGroup": 247}]}, {"start": 1.0, "dur": 1.0, "rest": false, "notes": [{"pitch": 60, "vel": 61, "dur": 1.0, "tieStart": true, "tieEnd": true, "tieGroup": 247}, {"pitch": 68, "vel": 93, "dur": 1.0, "tieStart": false, "tieEnd": false, "tieGroup": 278}, {"pitch": 72, "vel": 89, "dur": 1.0, "tieStart": false, "tieEnd": false, "tieGroup": 0}]}, {"start": 2.0, "dur": 1.5, "rest": false, "notes": [{"pitch": 60, "vel": 61, "dur": 1.5, "tieStart": false, "tieEnd": true, "tieGroup": 247}, {"pitch": 80, "vel": 93, "dur": 1.5, "tieStart": true, "tieEnd": false, "tieGroup": 242}, {"pitch": 84, "vel": 89, "dur": 1.5, "tieStart": true, "tieEnd": false, "tieGroup": 243}]}, {"start": 3.5, "dur": 0.5, "rest": false, "notes": [{"pitch": 60, "vel": 85, "dur": 0.5, "tieStart": false, "tieEnd": false, "tieGroup": 0}, {"pitch": 65, "vel": 81, "dur": 0.5, "tieStart": false, "tieEnd": false, "tieGroup": 0}, {"pitch": 67, "vel": 77, "dur": 0.5, "tieStart": false, "tieEnd": false, "tieGroup": 0}, {"pitch": 77, "vel": 73, "dur": 0.5, "tieStart": false, "tieEnd": false, "tieGroup": 0}, {"pitch": 80, "vel": 93, "dur": 0.5, "tieStart": false, "tieEnd": true, "tieGroup": 242}, {"pitch": 84, "vel": 89, "dur": 0.5, "tieStart": false, "tieEnd": true, "tieGroup": 243}]}]}, {"ts_num": 4, "ts_den": 4, "key_fifths": -4, "key_mode": 1, "clef": 0, "tempo": 120, "velocity": 100, "lyrics": "", "expr": [], "segs": [{"start": 0.0, "dur": 4.0, "rest": true, "notes": []}]}, {"ts_num": 4, "ts_den": 4, "key_fifths": -4, "key_mode": 1, "clef": 0, "tempo": 120, "velocity": 100, "lyrics": "", "expr": [], "segs": [{"start": 0.0, "dur": 4.0, "rest": true, "notes": []}]}, {"ts_num": 4, "ts_den": 4, "key_fifths": -4, "key_mode": 1, "clef": 0, "tempo": 120, "velocity": 100, "lyrics": "", "expr": [], "segs": [{"start": 0.0, "dur": 4.0, "rest": true, "notes": []}]}]}, {"name": "Accomp AI Delicate Low", "instrument": {"name": "Stereo Grand", "bankMSB": 0, "bankLSB": 0, "program": 0, "channelHint": -1, "percussion": false, "volume": 65, "pan": 64, "transpose": 0}, "measures": [{"ts_num": 4, "ts_den": 4, "key_fifths": -4, "key_mode": 1, "clef": 1, "tempo": 104, "velocity": 100, "lyrics": "", "expr": [], "segs": [{"start": 0.0, "dur": 4.0, "rest": false, "notes": [{"pitch": 41, "vel": 65, "dur": 4.0, "tieStart": false, "tieEnd": false, "tieGroup": 0}, {"pitch": 48, "vel": 65, "dur": 4.0, "tieStart": false, "tieEnd": false, "tieGroup": 0}, {"pitch": 56, "vel": 65, "dur": 4.0, "tieStart": false, "tieEnd": false, "tieGroup": 0}]}]}, {"ts_num": 4, "ts_den": 4, "key_fifths": -4, "key_mode": 1, "clef": 1, "tempo": 104, "velocity": 100, "lyrics": "", "expr": [], "segs": [{"start": 0.0, "dur": 4.0, "rest": false, "notes": [{"pitch": 37, "vel": 66, "dur": 4.0, "tieStart": false, "tieEnd": false, "tieGroup": 0}, {"pitch": 44, "vel": 66, "dur": 4.0, "tieStart": false, "tieEnd": false, "tieGroup": 0}, {"pitch": 48, "vel": 66, "dur": 4.0, "tieStart": false, "tieEnd": false, "tieGroup": 0}]}]}, {"ts_num": 4, "ts_den": 4, "key_fifths": -4, "key_mode": 1, "clef": 1, "tempo": 104, "velocity": 100, "lyrics": "", "expr": [], "segs": [{"start": 0.0, "dur": 4.0, "rest": false, "notes": [{"pitch": 44, "vel": 68, "dur": 4.0, "tieStart": false, "tieEnd": false, "tieGroup": 0}, {"pitch": 51, "vel": 68, "dur": 4.0, "tieStart": false, "tieEnd": false, "tieGroup": 0}, {"pitch": 55, "vel": 68, "dur": 4.0, "tieStart": false, "tieEnd": false, "tieGroup": 0}]}]}, {"ts_num": 4, "ts_den": 4, "key_fifths": -4, "key_mode": 1, "clef": 1, "tempo": 104, "velocity": 100, "lyrics": "", "expr": [], "segs": [{"start": 0.0, "dur": 2.0, "rest": false, "notes": [{"pitch": 39, "vel": 68, "dur": 2.0, "tieStart": false, "tieEnd": false, "tieGroup": 0}, {"pitch": 46, "vel": 68, "dur": 2.0, "tieStart": false, "tieEnd": false, "tieGroup": 0}, {"pitch": 49, "vel": 68, "dur": 2.0, "tieStart": false, "tieEnd": false, "tieGroup": 0}]}, {"start": 2.0, "dur": 2.0, "rest": false, "notes": [{"pitch": 39, "vel": 70, "dur": 2.0, "tieStart": false, "tieEnd": false, "tieGroup": 0}, {"pitch": 46, "vel": 70, "dur": 2.0, "tieStart": false, "tieEnd": false, "tieGroup": 0}, {"pitch": 53, "vel": 70, "dur": 2.0, "tieStart": false, "tieEnd": false, "tieGroup": 0}]}]}, {"ts_num": 4, "ts_den": 4, "key_fifths": -4, "key_mode": 1, "clef": 1, "tempo": 120, "velocity": 100, "lyrics": "", "expr": [], "segs": [{"start": 0.0, "dur": 0.25, "rest": false, "notes": [{"pitch": 39, "vel": 89, "dur": 0.25, "tieStart": true, "tieEnd": false, "tieGroup": 116}, {"pitch": 44, "vel": 114, "dur": 0.25, "tieStart": false, "tieEnd": false, "tieGroup": 0}, {"pitch": 48, "vel": 110, "dur": 0.25, "tieStart": false, "tieEnd": false, "tieGroup": 0}, {"pitch": 51, "vel": 106, "dur": 0.25, "tieStart": false, "tieEnd": false, "tieGroup": 0}, {"pitch": 53, "vel": 81, "dur": 0.25, "tieStart": true, "tieEnd": false, "tieGroup": 118}]}, {"start": 0.25, "dur": 0.5, "rest": false, "notes": [{"pitch": 39, "vel": 89, "dur": 0.5, "tieStart": true, "tieEnd": true, "tieGroup": 116}, {"pitch": 44, "vel": 114, "dur": 0.5, "tieStart": false, "tieEnd": false, "tieGroup": 0}, {"pitch": 48, "vel": 110, "dur": 0.5, "tieStart": false, "tieEnd": false, "tieGroup": 0}, {"pitch": 51, "vel": 106, "dur": 0.5, "tieStart": false, "tieEnd": false, "tieGroup": 0}, {"pitch": 53, "vel": 81, "dur": 0.5, "tieStart": false, "tieEnd": true, "tieGroup": 118}]}, {"start": 0.75, "dur": 0.25, "rest": false, "notes": [{"pitch": 39, "vel": 89, "dur": 0.25, "tieStart": false, "tieEnd": true, "tieGroup": 116}, {"pitch": 44, "vel": 85, "dur": 0.25, "tieStart": false, "tieEnd": false, "tieGroup": 117}, {"pitch": 48, "vel": 114, "dur": 0.25, "tieStart": true, "tieEnd": false, "tieGroup": 122}, {"pitch": 51, "vel": 110, "dur": 0.25, "tieStart": true, "tieEnd": false, "tieGroup": 123}, {"pitch": 53, "vel": 106, "dur": 0.25, "tieStart": true, "tieEnd": false, "tieGroup": 124}]}, {"start": 1.0, "dur": 0.25, "rest": false, "notes": [{"pitch": 48, "vel": 114, "dur": 0.25, "tieStart": false, "tieEnd": true, "tieGroup": 122}, {"pitch": 51, "vel": 110, "dur": 0.25, "tieStart": false, "tieEnd": true, "tieGroup": 123}, {"pitch": 53, "vel": 106, "dur": 0.25, "tieStart": false, "tieEnd": true, "tieGroup": 124}]}, {"start": 1.25, "dur": 0.5, "rest": false, "notes": [{"pitch": 48, "vel": 114, "dur": 0.5, "tieStart": false, "tieEnd": false, "tieGroup": 0}, {"pitch": 51, "vel": 110, "dur": 0.5, "tieStart": false, "tieEnd": false, "tieGroup": 0}, {"pitch": 53, "vel": 89, "dur": 0.5, "tieStart": true, "tieEnd": false, "tieGroup": 119}]}, {"start": 1.75, "dur": 0.25, "rest": false, "notes": [{"pitch": 51, "vel": 114, "dur": 0.25, "tieStart": false, "tieEnd": false, "tieGroup": 0}, {"pitch": 53, "vel": 89, "dur": 0.25, "tieStart": false, "tieEnd": true, "tieGroup": 119}]}, {"start": 2.0, "dur": 0.5, "rest": false, "notes": [{"pitch": 43, "vel": 89, "dur": 0.5, "tieStart": false, "tieEnd": false, "tieGroup": 0}, {"pitch": 48, "vel": 110, "dur": 0.5, "tieStart": true, "tieEnd": false, "tieGroup": 126}, {"pitch": 51, "vel": 106, "dur": 0.5, "tieStart": true, "tieEnd": false, "tieGroup": 127}, {"pitch": 53, "vel": 102, "dur": 0.5, "tieStart": true, "tieEnd": false, "tieGroup": 128}]}, {"start": 2.5, "dur": 1.0, "rest": false, "notes": [{"pitch": 48, "vel": 110, "dur": 1.0, "tieStart": false, "tieEnd": true, "tieGroup": 126}, {"pitch": 51, "vel": 106, "dur": 1.0, "tieStart": false, "tieEnd": true, "tieGroup": 127}, {"pitch": 53, "vel": 102, "dur": 1.0, "tieStart": false, "tieEnd": true, "tieGroup": 128}]}, {"start": 3.5, "dur": 0.5, "rest": false, "notes": [{"pitch": 44, "vel": 114, "dur": 0.5, "tieStart": false, "tieEnd": false, "tieGroup": 0}, {"pitch": 51, "vel": 106, "dur": 0.5, "tieStart": false, "tieEnd": false, "tieGroup": 0}, {"pitch": 55, "vel": 98, "dur": 0.5, "tieStart": false, "tieEnd": false, "tieGroup": 0}]}]}, {"ts_num": 4, "ts_den": 4, "key_fifths": -4, "key_mode": 1, "clef": 1, "tempo": 120, "velocity": 100, "lyrics": "", "expr": [], "segs": [{"start": 0.0, "dur": 0.25, "rest": false, "notes": [{"pitch": 44, "vel": 114, "dur": 0.25, "tieStart": false, "tieEnd": false, "tieGroup": 0}, {"pitch": 46, "vel": 110, "dur": 0.25, "tieStart": false, "tieEnd": false, "tieGroup": 0}, {"pitch": 49, "vel": 73, "dur": 0.25, "tieStart": true, "tieEnd": false, "tieGroup": 129}, {"pitch": 53, "vel": 102, "dur": 0.25, "tieStart": false, "tieEnd": false, "tieGroup": 0}]}, {"start": 0.25, "dur": 1.0, "rest": false, "notes": [{"pitch": 49, "vel": 73, "dur": 1.0, "tieStart": true, "tieEnd": true, "tieGroup": 129}]}, {"start": 1.25, "dur": 0.5, "rest": false, "notes": [{"pitch": 48, "vel": 69, "dur": 0.5, "tieStart": false, "tieEnd": false, "tieGroup": 132}, {"pitch": 49, "vel": 73, "dur": 0.5, "tieStart": true, "tieEnd": true, "tieGroup": 129}]}, {"start": 1.75, "dur": 1.0, "rest": false, "notes": [{"pitch": 44, "vel": 89, "dur": 1.0, "tieStart": false, "tieEnd": false, "tieGroup": 133}, {"pitch": 46, "vel": 85, "dur": 1.0, "tieStart": false, "tieEnd": false, "tieGroup": 0}, {"pitch": 49, "vel": 73, "dur": 1.0, "tieStart": true, "tieEnd": true, "tieGroup": 129}, {"pitch": 53, "vel": 77, "dur": 1.0, "tieStart": false, "tieEnd": false, "tieGroup": 0}]}, {"start": 2.75, "dur": 0.5, "rest": false, "notes": [{"pitch": 49, "vel": 73, "dur": 0.5, "tieStart": false, "tieEnd": true, "tieGroup": 129}]}, {"start": 3.25, "dur": 0.75, "rest": false, "notes": [{"pitch": 44, "vel": 73, "dur": 0.75, "tieStart": false, "tieEnd": false, "tieGroup": 134}, {"pitch": 46, "vel": 69, "dur": 0.75, "tieStart": false, "tieEnd": false, "tieGroup": 135}, {"pitch": 49, "vel": 65, "dur": 0.75, "tieStart": false, "tieEnd": false, "tieGroup": 136}, {"pitch": 53, "vel": 61, "dur": 0.75, "tieStart": false, "tieEnd": false, "tieGroup": 137}]}]}, {"ts_num": 4, "ts_den": 4, "key_fifths": -4, "key_mode": 1, "clef": 1, "tempo": 120, "velocity": 100, "lyrics": "", "expr": [], "segs": [{"start": 0.0, "dur": 0.25, "rest": false, "notes": [{"pitch": 39, "vel": 104, "dur": 0.25, "tieStart": true, "tieEnd": false, "tieGroup": 138}, {"pitch": 41, "vel": 100, "dur": 0.25, "tieStart": true, "tieEnd": false, "tieGroup": 139}, {"pitch": 44, "vel": 96, "dur": 0.25, "tieStart": false, "tieEnd": false, "tieGroup": 140}]}, {"start": 0.25, "dur": 0.25, "rest": false, "notes": [{"pitch": 39, "vel": 104, "dur": 0.25, "tieStart": true, "tieEnd": true, "tieGroup": 138}, {"pitch": 41, "vel": 100, "dur": 0.25, "tieStart": true, "tieEnd": true, "tieGroup": 139}, {"pitch": 44, "vel": 81, "dur": 0.25, "tieStart": false, "tieEnd": false, "tieGroup": 141}]}, {"start": 0.5, "dur": 0.25, "rest": false, "notes": [{"pitch": 39, "vel": 104, "dur": 0.25, "tieStart": true, "tieEnd": true, "tieGroup": 138}, {"pitch": 41, "vel": 100, "dur": 0.25, "tieStart": true, "tieEnd": true, "tieGroup": 139}, {"pitch": 44, "vel": 81, "dur": 0.25, "tieStart": false, "tieEnd": false, "tieGroup": 0}]}, {"start": 0.75, "dur": 0.25, "rest": false, "notes": [{"pitch": 39, "vel": 104, "dur": 0.25, "tieStart": false, "tieEnd": true, "tieGroup": 138}, {"pitch": 41, "vel": 100, "dur": 0.25, "tieStart": false, "tieEnd": true, "tieGroup": 139}]}, {"start": 1.0, "dur": 0.25, "rest": false, "notes": [{"pitch": 39, "vel": 104, "dur": 0.25, "tieStart": true, "tieEnd": false, "tieGroup": 142}, {"pitch": 41, "vel": 100, "dur": 0.25, "tieStart": true, "tieEnd": false, "tieGroup": 143}, {"pitch": 44, "vel": 81, "dur": 0.25, "tieStart": false, "tieEnd": false, "tieGroup": 0}]}, {"start": 1.25, "dur": 0.5, "rest": false, "notes": [{"pitch": 39, "vel": 104, "dur": 0.5, "tieStart": true, "tieEnd": true, "tieGroup": 142}, {"pitch": 41, "vel": 100, "dur": 0.5, "tieStart": true, "tieEnd": true, "tieGroup": 143}, {"pitch": 44, "vel": 96, "dur": 0.5, "tieStart": false, "tieEnd": false, "tieGroup": 144}]}, {"start": 1.75, "dur": 0.25, "rest": false, "notes": [{"pitch": 39, "vel": 104, "dur": 0.25, "tieStart": false, "tieEnd": true, "tieGroup": 142}, {"pitch": 41, "vel": 100, "dur": 0.25, "tieStart": false, "tieEnd": true, "tieGroup": 143}, {"pitch": 44, "vel": 97, "dur": 0.25, "tieStart": true, "tieEnd": false, "tieGroup": 146}]}, {"start": 2.0, "dur": 0.25, "rest": false, "notes": [{"pitch": 44, "vel": 97, "dur": 0.25, "tieStart": false, "tieEnd": true, "tieGroup": 146}]}, {"start": 2.25, "dur": 0.75, "rest": true, "notes": []}, {"start": 3.0, "dur": 0.25, "rest": false, "notes": [{"pitch": 44, "vel": 81, "dur": 0.25, "tieStart": false, "tieEnd": false, "tieGroup": 252}]}, {"start": 3.25, "dur": 0.75, "rest": true, "notes": []}]}, {"ts_num": 4, "ts_den": 4, "key_fifths": -4, "key_mode": 1, "clef": 1, "tempo": 120, "velocity": 100, "lyrics": "", "expr": [], "segs": [{"start": 0.0, "dur": 0.5, "rest": false, "notes": [{"pitch": 51, "vel": 114, "dur": 0.5, "tieStart": false, "tieEnd": false, "tieGroup": 0}, {"pitch": 53, "vel": 110, "dur": 0.5, "tieStart": false, "tieEnd": false, "tieGroup": 0}]}, {"start": 0.5, "dur": 0.5, "rest": false, "notes": [{"pitch": 53, "vel": 114, "dur": 0.5, "tieStart": false, "tieEnd": false, "tieGroup": 0}]}, {"start": 1.0, "dur": 0.5, "rest": true, "notes": []}, {"start": 1.5, "dur": 0.5, "rest": false, "notes": [{"pitch": 53, "vel": 65, "dur": 0.5, "tieStart": false, "tieEnd": false, "tieGroup": 253}]}, {"start": 2.0, "dur": 0.5, "rest": true, "notes": []}, {"start": 2.5, "dur": 0.5, "rest": false, "notes": [{"pitch": 53, "vel": 65, "dur": 0.5, "tieStart": false, "tieEnd": false, "tieGroup": 254}]}, {"start": 3.0, "dur": 0.25, "rest": false, "notes": [{"pitch": 53, "vel": 81, "dur": 0.25, "tieStart": false, "tieEnd": false, "tieGroup": 96}]}, {"start": 3.25, "dur": 0.5, "rest": false, "notes": [{"pitch": 53, "vel": 89, "dur": 0.5, "tieStart": false, "tieEnd": false, "tieGroup": 0}]}, {"start": 3.75, "dur": 0.25, "rest": false, "notes": [{"pitch": 53, "vel": 114, "dur": 0.25, "tieStart": false, "tieEnd": false, "tieGroup": 0}]}]}, {"ts_num": 4, "ts_den": 4, "key_fifths": -4, "key_mode": 1, "clef": 1, "tempo": 120, "velocity": 100, "lyrics": "", "expr": [], "segs": [{"start": 0.0, "dur": 0.75, "rest": true, "notes": []}, {"start": 0.75, "dur": 0.75, "rest": false, "notes": [{"pitch": 53, "vel": 89, "dur": 0.75, "tieStart": false, "tieEnd": false, "tieGroup": 153}]}, {"start": 1.5, "dur": 0.5, "rest": false, "notes": [{"pitch": 48, "vel": 81, "dur": 0.5, "tieStart": false, "tieEnd": false, "tieGroup": 0}, {"pitch": 53, "vel": 77, "dur": 0.5, "tieStart": false, "tieEnd": false, "tieGroup": 0}]}, {"start": 2.0, "dur": 1.0, "rest": true, "notes": []}, {"start": 3.0, "dur": 0.5, "rest": false, "notes": [{"pitch": 53, "vel": 89, "dur": 0.5, "tieStart": false, "tieEnd": false, "tieGroup": 256}]}, {"start": 3.5, "dur": 0.25, "rest": true, "notes": []}, {"start": 3.75, "dur": 0.25, "rest": false, "notes": [{"pitch": 53, "vel": 81, "dur": 0.25, "tieStart": false, "tieEnd": false, "tieGroup": 257}]}]}, {"ts_num": 4, "ts_den": 4, "key_fifths": -4, "key_mode": 1, "clef": 1, "tempo": 120, "velocity": 100, "lyrics": "", "expr": [], "segs": [{"start": 0.0, "dur": 0.5, "rest": true, "notes": []}, {"start": 0.5, "dur": 0.25, "rest": false, "notes": [{"pitch": 53, "vel": 104, "dur": 0.25, "tieStart": false, "tieEnd": false, "tieGroup": 98}]}, {"start": 0.75, "dur": 1.0, "rest": false, "notes": [{"pitch": 46, "vel": 97, "dur": 1.0, "tieStart": false, "tieEnd": false, "tieGroup": 0}, {"pitch": 49, "vel": 93, "dur": 1.0, "tieStart": false, "tieEnd": false, "tieGroup": 0}, {"pitch": 53, "vel": 89, "dur": 1.0, "tieStart": false, "tieEnd": false, "tieGroup": 0}]}, {"start": 1.75, "dur": 1.0, "rest": true, "notes": []}, {"start": 2.75, "dur": 0.5, "rest": false, "notes": [{"pitch": 49, "vel": 97, "dur": 0.5, "tieStart": false, "tieEnd": false, "tieGroup": 259}, {"pitch": 53, "vel": 93, "dur": 0.5, "tieStart": false, "tieEnd": false, "tieGroup": 0}]}, {"start": 3.25, "dur": 0.5, "rest": true, "notes": []}, {"start": 3.75, "dur": 0.25, "rest": false, "notes": [{"pitch": 49, "vel": 105, "dur": 0.25, "tieStart": false, "tieEnd": false, "tieGroup": 260}]}]}, {"ts_num": 4, "ts_den": 4, "key_fifths": -4, "key_mode": 1, "clef": 1, "tempo": 120, "velocity": 100, "lyrics": "", "expr": [], "segs": [{"start": 0.0, "dur": 1.25, "rest": false, "notes": [{"pitch": 46, "vel": 105, "dur": 1.25, "tieStart": false, "tieEnd": false, "tieGroup": 159}, {"pitch": 49, "vel": 101, "dur": 1.25, "tieStart": false, "tieEnd": false, "tieGroup": 160}, {"pitch": 53, "vel": 97, "dur": 1.25, "tieStart": false, "tieEnd": false, "tieGroup": 161}]}, {"start": 1.25, "dur": 1.5, "rest": true, "notes": []}, {"start": 2.75, "dur": 1.0, "rest": false, "notes": [{"pitch": 44, "vel": 73, "dur": 1.0, "tieStart": false, "tieEnd": false, "tieGroup": 164}, {"pitch": 46, "vel": 69, "dur": 1.0, "tieStart": false, "tieEnd": false, "tieGroup": 165}, {"pitch": 49, "vel": 65, "dur": 1.0, "tieStart": false, "tieEnd": false, "tieGroup": 166}]}, {"start": 3.75, "dur": 0.25, "rest": true, "notes": []}]}, {"ts_num": 4, "ts_den": 4, "key_fifths": -4, "key_mode": 1, "clef": 1, "tempo": 120, "velocity": 100, "lyrics": "", "expr": [], "segs": [{"start": 0.0, "dur": 0.5, "rest": true, "notes": []}, {"start": 0.5, "dur": 0.25, "rest": false, "notes": [{"pitch": 49, "vel": 114, "dur": 0.25, "tieStart": false, "tieEnd": false, "tieGroup": 168}]}, {"start": 0.75, "dur": 0.5, "rest": true, "notes": []}, {"start": 1.25, "dur": 0.75, "rest": false, "notes": [{"pitch": 49, "vel": 114, "dur": 0.75, "tieStart": false, "tieEnd": false, "tieGroup": 262}]}, {"start": 2.0, "dur": 1.5, "rest": true, "notes": []}, {"start": 3.5, "dur": 0.25, "rest": false, "notes": [{"pitch": 49, "vel": 89, "dur": 0.25, "tieStart": false, "tieEnd": false, "tieGroup": 263}]}, {"start": 3.75, "dur": 0.25, "rest": true, "notes": []}]}, {"ts_num": 4, "ts_den": 4, "key_fifths": -4, "key_mode": 1, "clef": 1, "tempo": 120, "velocity": 100, "lyrics": "", "expr": [], "segs": [{"start": 0.0, "dur": 1.0, "rest": true, "notes": []}, {"start": 1.0, "dur": 0.5, "rest": false, "notes": [{"pitch": 44, "vel": 114, "dur": 0.5, "tieStart": false, "tieEnd": false, "tieGroup": 172}]}, {"start": 1.5, "dur": 0.5, "rest": true, "notes": []}, {"start": 2.0, "dur": 0.5, "rest": false, "notes": [{"pitch": 44, "vel": 114, "dur": 0.5, "tieStart": false, "tieEnd": false, "tieGroup": 265}]}, {"start": 2.5, "dur": 0.75, "rest": true, "notes": []}, {"start": 3.25, "dur": 0.5, "rest": false, "notes": [{"pitch": 44, "vel": 81, "dur": 0.5, "tieStart": false, "tieEnd": false, "tieGroup": 266}]}, {"start": 3.75, "dur": 0.25, "rest": true, "notes": []}]}, {"ts_num": 4, "ts_den": 4, "key_fifths": -4, "key_mode": 1, "clef": 1, "tempo": 120, "velocity": 100, "lyrics": "", "expr": [], "segs": [{"start": 0.0, "dur": 1.25, "rest": false, "notes": [{"pitch": 53, "vel": 81, "dur": 1.25, "tieStart": false, "tieEnd": false, "tieGroup": 176}]}, {"start": 1.25, "dur": 0.5, "rest": false, "notes": [{"pitch": 53, "vel": 81, "dur": 0.5, "tieStart": false, "tieEnd": false, "tieGroup": 103}]}, {"start": 1.75, "dur": 0.75, "rest": false, "notes": [{"pitch": 53, "vel": 81, "dur": 0.75, "tieStart": false, "tieEnd": false, "tieGroup": 0}]}, {"start": 2.5, "dur": 1.5, "rest": false, "notes": [{"pitch": 53, "vel": 57, "dur": 1.5, "tieStart": false, "tieEnd": false, "tieGroup": 182}]}]}, {"ts_num": 4, "ts_den": 4, "key_fifths": -4, "key_mode": 1, "clef": 1, "tempo": 120, "velocity": 100, "lyrics": "", "expr": [], "segs": [{"start": 0.0, "dur": 1.0, "rest": false, "notes": [{"pitch": 39, "vel": 73, "dur": 1.0, "tieStart": true, "tieEnd": false, "tieGroup": 186}, {"pitch": 44, "vel": 114, "dur": 1.0, "tieStart": false, "tieEnd": false, "tieGroup": 0}, {"pitch": 46, "vel": 69, "dur": 1.0, "tieStart": true, "tieEnd": false, "tieGroup": 187}, {"pitch": 49, "vel": 106, "dur": 1.0, "tieStart": false, "tieEnd": false, "tieGroup": 0}]}, {"start": 1.0, "dur": 0.5, "rest": false, "notes": [{"pitch": 39, "vel": 73, "dur": 0.5, "tieStart": true, "tieEnd": true, "tieGroup": 186}, {"pitch": 44, "vel": 81, "dur": 0.5, "tieStart": false, "tieEnd": false, "tieGroup": 0}, {"pitch": 46, "vel": 69, "dur": 0.5, "tieStart": true, "tieEnd": true, "tieGroup": 187}, {"pitch": 49, "vel": 73, "dur": 0.5, "tieStart": false, "tieEnd": false, "tieGroup": 0}]}, {"start": 1.5, "dur": 0.5, "rest": false, "notes": [{"pitch": 39, "vel": 73, "dur": 0.5, "tieStart": true, "tieEnd": true, "tieGroup": 186}, {"pitch": 44, "vel": 97, "dur": 0.5, "tieStart": false, "tieEnd": false, "tieGroup": 0}, {"pitch": 46, "vel": 69, "dur": 0.5, "tieStart": true, "tieEnd": true, "tieGroup": 187}, {"pitch": 55, "vel": 85, "dur": 0.5, "tieStart": false, "tieEnd": false, "tieGroup": 0}]}, {"start": 2.0, "dur": 0.5, "rest": false, "notes": [{"pitch": 39, "vel": 73, "dur": 0.5, "tieStart": true, "tieEnd": true, "tieGroup": 186}, {"pitch": 44, "vel": 105, "dur": 0.5, "tieStart": false, "tieEnd": false, "tieGroup": 0}, {"pitch": 46, "vel": 69, "dur": 0.5, "tieStart": true, "tieEnd": true, "tieGroup": 187}, {"pitch": 49, "vel": 97, "dur": 0.5, "tieStart": false, "tieEnd": false, "tieGroup": 0}]}, {"start": 2.5, "dur": 0.5, "rest": false, "notes": [{"pitch": 39, "vel": 73, "dur": 0.5, "tieStart": true, "tieEnd": true, "tieGroup": 186}, {"pitch": 44, "vel": 97, "dur": 0.5, "tieStart": false, "tieEnd": false, "tieGroup": 0}, {"pitch": 46, "vel": 69, "dur": 0.5, "tieStart": true, "tieEnd": true, "tieGroup": 187}, {"pitch": 55, "vel": 85, "dur": 0.5, "tieStart": false, "tieEnd": false, "tieGroup": 0}]}, {"start": 3.0, "dur": 0.5, "rest": false, "notes": [{"pitch": 39, "vel": 73, "dur": 0.5, "tieStart": true, "tieEnd": true, "tieGroup": 186}, {"pitch": 44, "vel": 97, "dur": 0.5, "tieStart": false, "tieEnd": false, "tieGroup": 0}, {"pitch": 46, "vel": 69, "dur": 0.5, "tieStart": true, "tieEnd": true, "tieGroup": 187}, {"pitch": 49, "vel": 89, "dur": 0.5, "tieStart": false, "tieEnd": false, "tieGroup": 0}, {"pitch": 53, "vel": 85, "dur": 0.5, "tieStart": false, "tieEnd": false, "tieGroup": 0}]}, {"start": 3.5, "dur": 0.25, "rest": false, "notes": [{"pitch": 39, "vel": 73, "dur": 0.25, "tieStart": true, "tieEnd": true, "tieGroup": 186}, {"pitch": 44, "vel": 97, "dur": 0.25, "tieStart": false, "tieEnd": false, "tieGroup": 0}, {"pitch": 46, "vel": 69, "dur": 0.25, "tieStart": true, "tieEnd": true, "tieGroup": 187}, {"pitch": 53, "vel": 85, "dur": 0.25, "tieStart": false, "tieEnd": false, "tieGroup": 0}]}, {"start": 3.75, "dur": 0.25, "rest": false, "notes": [{"pitch": 39, "vel": 73, "dur": 0.25, "tieStart": false, "tieEnd": true, "tieGroup": 186}, {"pitch": 44, "vel": 114, "dur": 0.25, "tieStart": false, "tieEnd": false, "tieGroup": 0}, {"pitch": 46, "vel": 69, "dur": 0.25, "tieStart": false, "tieEnd": true, "tieGroup": 187}, {"pitch": 49, "vel": 106, "dur": 0.25, "tieStart": false, "tieEnd": false, "tieGroup": 0}, {"pitch": 55, "vel": 102, "dur": 0.25, "tieStart": false, "tieEnd": false, "tieGroup": 0}]}]}, {"ts_num": 4, "ts_den": 4, "key_fifths": -4, "key_mode": 1, "clef": 1, "tempo": 120, "velocity": 100, "lyrics": "", "expr": [], "segs": [{"start": 0.0, "dur": 1.5, "rest": true, "notes": []}, {"start": 1.5, "dur": 2.5, "rest": false, "notes": [{"pitch": 49, "vel": 50, "dur": 2.5, "tieStart": false, "tieEnd": false, "tieGroup": 188}]}]}, {"ts_num": 4, "ts_den": 4, "key_fifths": -4, "key_mode": 1, "clef": 1, "tempo": 120, "velocity": 100, "lyrics": "", "expr": [], "segs": [{"start": 0.0, "dur": 1.75, "rest": false, "notes": [{"pitch": 39, "vel": 81, "dur": 1.75, "tieStart": false, "tieEnd": false, "tieGroup": 0}, {"pitch": 41, "vel": 77, "dur": 1.75, "tieStart": false, "tieEnd": false, "tieGroup": 0}, {"pitch": 53, "vel": 89, "dur": 1.75, "tieStart": true, "tieEnd": false, "tieGroup": 192}]}, {"start": 1.75, "dur": 0.5, "rest": false, "notes": [{"pitch": 39, "vel": 81, "dur": 0.5, "tieStart": false, "tieEnd": false, "tieGroup": 0}, {"pitch": 41, "vel": 77, "dur": 0.5, "tieStart": false, "tieEnd": false, "tieGroup": 0}, {"pitch": 53, "vel": 89, "dur": 0.5, "tieStart": true, "tieEnd": true, "tieGroup": 192}]}, {"start": 2.25, "dur": 1.75, "rest": false, "notes": [{"pitch": 53, "vel": 89, "dur": 1.75, "tieStart": false, "tieEnd": true, "tieGroup": 192}]}]}, {"ts_num": 4, "ts_den": 4, "key_fifths": -4, "key_mode": 1, "clef": 1, "tempo": 120, "velocity": 100, "lyrics": "", "expr": [], "segs": [{"start": 0.0, "dur": 0.25, "rest": false, "notes": [{"pitch": 44, "vel": 81, "dur": 0.25, "tieStart": false, "tieEnd": false, "tieGroup": 0}, {"pitch": 49, "vel": 77, "dur": 0.25, "tieStart": false, "tieEnd": false, "tieGroup": 0}]}, {"start": 0.25, "dur": 0.25, "rest": false, "notes": [{"pitch": 41, "vel": 89, "dur": 0.25, "tieStart": false, "tieEnd": false, "tieGroup": 0}, {"pitch": 49, "vel": 85, "dur": 0.25, "tieStart": false, "tieEnd": false, "tieGroup": 0}]}, {"start": 0.5, "dur": 0.25, "rest": true, "notes": []}, {"start": 0.75, "dur": 0.5, "rest": false, "notes": [{"pitch": 49, "vel": 89, "dur": 0.5, "tieStart": false, "tieEnd": false, "tieGroup": 197}, {"pitch": 53, "vel": 85, "dur": 0.5, "tieStart": false, "tieEnd": false, "tieGroup": 0}]}, {"start": 1.25, "dur": 0.5, "rest": true, "notes": []}, {"start": 1.75, "dur": 2.25, "rest": false, "notes": [{"pitch": 49, "vel": 73, "dur": 2.25, "tieStart": false, "tieEnd": false, "tieGroup": 198}]}]}, {"ts_num": 4, "ts_den": 4, "key_fifths": -4, "key_mode": 1, "clef": 1, "tempo": 120, "velocity": 100, "lyrics": "", "expr": [], "segs": [{"start": 0.0, "dur": 0.25, "rest": false, "notes": [{"pitch": 43, "vel": 104, "dur": 0.25, "tieStart": false, "tieEnd": false, "tieGroup": 0}, {"pitch": 44, "vel": 100, "dur": 0.25, "tieStart": false, "tieEnd": false, "tieGroup": 0}, {"pitch": 51, "vel": 69, "dur": 0.25, "tieStart": false, "tieEnd": false, "tieGroup": 0}]}, {"start": 0.25, "dur": 0.5, "rest": false, "notes": [{"pitch": 44, "vel": 89, "dur": 0.5, "tieStart": false, "tieEnd": false, "tieGroup": 0}, {"pitch": 55, "vel": 85, "dur": 0.5, "tieStart": false, "tieEnd": false, "tieGroup": 0}]}, {"start": 0.75, "dur": 0.5, "rest": false, "notes": [{"pitch": 51, "vel": 65, "dur": 0.5, "tieStart": false, "tieEnd": false, "tieGroup": 0}]}, {"start": 1.25, "dur": 0.5, "rest": false, "notes": [{"pitch": 43, "vel": 81, "dur": 0.5, "tieStart": false, "tieEnd": false, "tieGroup": 0}, {"pitch": 44, "vel": 77, "dur": 0.5, "tieStart": false, "tieEnd": false, "tieGroup": 0}, {"pitch": 48, "vel": 73, "dur": 0.5, "tieStart": false, "tieEnd": false, "tieGroup": 0}, {"pitch": 55, "vel": 69, "dur": 0.5, "tieStart": false, "tieEnd": false, "tieGroup": 0}]}, {"start": 1.75, "dur": 0.75, "rest": false, "notes": [{"pitch": 51, "vel": 81, "dur": 0.75, "tieStart": false, "tieEnd": false, "tieGroup": 0}]}, {"start": 2.5, "dur": 0.75, "rest": false, "notes": [{"pitch": 44, "vel": 81, "dur": 0.75, "tieStart": false, "tieEnd": false, "tieGroup": 0}]}, {"start": 3.25, "dur": 0.75, "rest": true, "notes": []}]}, {"ts_num": 4, "ts_den": 4, "key_fifths": -4, "key_mode": 1, "clef": 1, "tempo": 120, "velocity": 100, "lyrics": "", "expr": [], "segs": [{"start": 0.0, "dur": 0.25, "rest": false, "notes": [{"pitch": 53, "vel": 73, "dur": 0.25, "tieStart": false, "tieEnd": false, "tieGroup": 202}]}, {"start": 0.25, "dur": 3.75, "rest": false, "notes": [{"pitch": 44, "vel": 81, "dur": 3.75, "tieStart": false, "tieEnd": false, "tieGroup": 201}, {"pitch": 48, "vel": 77, "dur": 3.75, "tieStart": false, "tieEnd": false, "tieGroup": 205}, {"pitch": 51, "vel": 73, "dur": 3.75, "tieStart": false, "tieEnd": false, "tieGroup": 206}, {"pitch": 53, "vel": 69, "dur": 3.75, "tieStart": false, "tieEnd": false, "tieGroup": 207}]}]}, {"ts_num": 4, "ts_den": 4, "key_fifths": -4, "key_mode": 1, "clef": 1, "tempo": 120, "velocity": 100, "lyrics": "", "expr": [], "segs": [{"start": 0.0, "dur": 0.25, "rest": false, "notes": [{"pitch": 46, "vel": 113, "dur": 0.25, "tieStart": false, "tieEnd": false, "tieGroup": 0}]}, {"start": 0.25, "dur": 0.25, "rest": false, "notes": [{"pitch": 46, "vel": 89, "dur": 0.25, "tieStart": false, "tieEnd": false, "tieGroup": 0}]}, {"start": 0.5, "dur": 0.25, "rest": true, "notes": []}, {"start": 0.75, "dur": 0.5, "rest": false, "notes": [{"pitch": 46, "vel": 81, "dur": 0.5, "tieStart": false, "tieEnd": false, "tieGroup": 269}]}, {"start": 1.25, "dur": 2.75, "rest": false, "notes": [{"pitch": 46, "vel": 73, "dur": 2.75, "tieStart": false, "tieEnd": false, "tieGroup": 208}]}]}, {"ts_num": 4, "ts_den": 4, "key_fifths": -4, "key_mode": 1, "clef": 1, "tempo": 120, "velocity": 100, "lyrics": "", "expr": [], "segs": [{"start": 0.0, "dur": 0.75, "rest": false, "notes": [{"pitch": 39, "vel": 81, "dur": 0.75, "tieStart": false, "tieEnd": false, "tieGroup": 0}, {"pitch": 41, "vel": 77, "dur": 0.75, "tieStart": false, "tieEnd": false, "tieGroup": 0}, {"pitch": 49, "vel": 73, "dur": 0.75, "tieStart": false, "tieEnd": false, "tieGroup": 0}]}, {"start": 0.75, "dur": 0.25, "rest": false, "notes": [{"pitch": 39, "vel": 89, "dur": 0.25, "tieStart": false, "tieEnd": false, "tieGroup": 0}, {"pitch": 41, "vel": 85, "dur": 0.25, "tieStart": false, "tieEnd": false, "tieGroup": 0}]}, {"start": 1.0, "dur": 0.5, "rest": true, "notes": []}, {"start": 1.5, "dur": 0.25, "rest": false, "notes": [{"pitch": 49, "vel": 89, "dur": 0.25, "tieStart": false, "tieEnd": false, "tieGroup": 271}]}, {"start": 1.75, "dur": 0.25, "rest": true, "notes": []}, {"start": 2.0, "dur": 0.25, "rest": false, "notes": [{"pitch": 49, "vel": 81, "dur": 0.25, "tieStart": false, "tieEnd": false, "tieGroup": 272}]}, {"start": 2.25, "dur": 0.75, "rest": true, "notes": []}, {"start": 3.0, "dur": 0.25, "rest": false, "notes": [{"pitch": 49, "vel": 81, "dur": 0.25, "tieStart": false, "tieEnd": false, "tieGroup": 213}]}, {"start": 3.25, "dur": 0.25, "rest": true, "notes": []}, {"start": 3.5, "dur": 0.5, "rest": false, "notes": [{"pitch": 49, "vel": 97, "dur": 0.5, "tieStart": false, "tieEnd": false, "tieGroup": 274}]}]}, {"ts_num": 4, "ts_den": 4, "key_fifths": -4, "key_mode": 1, "clef": 1, "tempo": 120, "velocity": 100, "lyrics": "", "expr": [], "segs": [{"start": 0.0, "dur": 0.25, "rest": false, "notes": [{"pitch": 44, "vel": 89, "dur": 0.25, "tieStart": false, "tieEnd": false, "tieGroup": 0}, {"pitch": 53, "vel": 85, "dur": 0.25, "tieStart": false, "tieEnd": false, "tieGroup": 0}]}, {"start": 0.25, "dur": 0.25, "rest": false, "notes": [{"pitch": 53, "vel": 73, "dur": 0.25, "tieStart": false, "tieEnd": false, "tieGroup": 0}]}, {"start": 0.5, "dur": 0.5, "rest": false, "notes": [{"pitch": 44, "vel": 89, "dur": 0.5, "tieStart": false, "tieEnd": false, "tieGroup": 215}, {"pitch": 48, "vel": 85, "dur": 0.5, "tieStart": true, "tieEnd": false, "tieGroup": 216}]}, {"start": 1.0, "dur": 0.5, "rest": false, "notes": [{"pitch": 44, "vel": 114, "dur": 0.5, "tieStart": false, "tieEnd": false, "tieGroup": 214}, {"pitch": 48, "vel": 85, "dur": 0.5, "tieStart": false, "tieEnd": true, "tieGroup": 216}, {"pitch": 51, "vel": 106, "dur": 0.5, "tieStart": false, "tieEnd": false, "tieGroup": 0}, {"pitch": 53, "vel": 102, "dur": 0.5, "tieStart": false, "tieEnd": false, "tieGroup": 0}, {"pitch": 55, "vel": 98, "dur": 0.5, "tieStart": false, "tieEnd": false, "tieGroup": 0}]}, {"start": 1.5, "dur": 0.25, "rest": false, "notes": [{"pitch": 55, "vel": 73, "dur": 0.25, "tieStart": false, "tieEnd": false, "tieGroup": 0}]}, {"start": 1.75, "dur": 0.25, "rest": true, "notes": []}, {"start": 2.0, "dur": 0.75, "rest": false, "notes": [{"pitch": 44, "vel": 114, "dur": 0.75, "tieStart": false, "tieEnd": false, "tieGroup": 217}, {"pitch": 48, "vel": 110, "dur": 0.75, "tieStart": false, "tieEnd": false, "tieGroup": 0}, {"pitch": 51, "vel": 106, "dur": 0.75, "tieStart": false, "tieEnd": false, "tieGroup": 0}, {"pitch": 53, "vel": 102, "dur": 0.75, "tieStart": false, "tieEnd": false, "tieGroup": 0}, {"pitch": 55, "vel": 98, "dur": 0.75, "tieStart": false, "tieEnd": false, "tieGroup": 0}]}, {"start": 2.75, "dur": 0.75, "rest": false, "notes": [{"pitch": 51, "vel": 110, "dur": 0.75, "tieStart": false, "tieEnd": false, "tieGroup": 0}]}, {"start": 3.5, "dur": 0.25, "rest": false, "notes": [{"pitch": 48, "vel": 73, "dur": 0.25, "tieStart": false, "tieEnd": false, "tieGroup": 0}, {"pitch": 51, "vel": 69, "dur": 0.25, "tieStart": false, "tieEnd": false, "tieGroup": 0}, {"pitch": 53, "vel": 65, "dur": 0.25, "tieStart": false, "tieEnd": false, "tieGroup": 0}]}, {"start": 3.75, "dur": 0.25, "rest": true, "notes": []}]}, {"ts_num": 4, "ts_den": 4, "key_fifths": -4, "key_mode": 1, "clef": 1, "tempo": 120, "velocity": 100, "lyrics": "", "expr": [], "segs": [{"start": 0.0, "dur": 0.5, "rest": false, "notes": [{"pitch": 39, "vel": 104, "dur": 0.5, "tieStart": true, "tieEnd": false, "tieGroup": 218}, {"pitch": 41, "vel": 100, "dur": 0.5, "tieStart": true, "tieEnd": false, "tieGroup": 219}, {"pitch": 51, "vel": 97, "dur": 0.5, "tieStart": false, "tieEnd": false, "tieGroup": 0}, {"pitch": 53, "vel": 96, "dur": 0.5, "tieStart": true, "tieEnd": false, "tieGroup": 220}]}, {"start": 0.5, "dur": 0.5, "rest": false, "notes": [{"pitch": 39, "vel": 104, "dur": 0.5, "tieStart": false, "tieEnd": true, "tieGroup": 218}, {"pitch": 41, "vel": 100, "dur": 0.5, "tieStart": false, "tieEnd": true, "tieGroup": 219}, {"pitch": 53, "vel": 96, "dur": 0.5, "tieStart": false, "tieEnd": true, "tieGroup": 220}]}, {"start": 1.0, "dur": 0.5, "rest": false, "notes": [{"pitch": 39, "vel": 104, "dur": 0.5, "tieStart": true, "tieEnd": false, "tieGroup": 221}, {"pitch": 41, "vel": 100, "dur": 0.5, "tieStart": true, "tieEnd": false, "tieGroup": 222}, {"pitch": 53, "vel": 97, "dur": 0.5, "tieStart": false, "tieEnd": false, "tieGroup": 0}]}, {"start": 1.5, "dur": 0.5, "rest": false, "notes": [{"pitch": 39, "vel": 104, "dur": 0.5, "tieStart": false, "tieEnd": true, "tieGroup": 221}, {"pitch": 41, "vel": 100, "dur": 0.5, "tieStart": false, "tieEnd": true, "tieGroup": 222}, {"pitch": 53, "vel": 96, "dur": 0.5, "tieStart": false, "tieEnd": false, "tieGroup": 223}]}, {"start": 2.0, "dur": 0.5, "rest": false, "notes": [{"pitch": 53, "vel": 97, "dur": 0.5, "tieStart": false, "tieEnd": false, "tieGroup": 0}]}, {"start": 2.5, "dur": 0.5, "rest": false, "notes": [{"pitch": 53, "vel": 104, "dur": 0.5, "tieStart": false, "tieEnd": false, "tieGroup": 224}]}, {"start": 3.0, "dur": 0.5, "rest": true, "notes": []}, {"start": 3.5, "dur": 0.5, "rest": false, "notes": [{"pitch": 53, "vel": 97, "dur": 0.5, "tieStart": false, "tieEnd": false, "tieGroup": 277}]}]}, {"ts_num": 4, "ts_den": 4, "key_fifths": -4, "key_mode": 1, "clef": 1, "tempo": 120, "velocity": 100, "lyrics": "", "expr": [], "segs": [{"start": 0.0, "dur": 1.0, "rest": false, "notes": [{"pitch": 53, "vel": 97, "dur": 1.0, "tieStart": false, "tieEnd": false, "tieGroup": 0}]}, {"start": 1.0, "dur": 0.75, "rest": false, "notes": [{"pitch": 53, "vel": 97, "dur": 0.75, "tieStart": false, "tieEnd": false, "tieGroup": 110}]}, {"start": 1.75, "dur": 1.0, "rest": false, "notes": [{"pitch": 53, "vel": 73, "dur": 1.0, "tieStart": false, "tieEnd": false, "tieGroup": 231}]}, {"start": 2.75, "dur": 1.0, "rest": false, "notes": [{"pitch": 53, "vel": 89, "dur": 1.0, "tieStart": false, "tieEnd": false, "tieGroup": 237}]}, {"start": 3.75, "dur": 0.25, "rest": false, "notes": [{"pitch": 53, "vel": 97, "dur": 0.25, "tieStart": false, "tieEnd": false, "tieGroup": 111}]}]}, {"ts_num": 4, "ts_den": 4, "key_fifths": -4, "key_mode": 1, "clef": 1, "tempo": 120, "velocity": 100, "lyrics": "", "expr": [], "segs": [{"start": 0.0, "dur": 3.5, "rest": false, "notes": [{"pitch": 44, "vel": 73, "dur": 3.5, "tieStart": false, "tieEnd": false, "tieGroup": 244}, {"pitch": 48, "vel": 69, "dur": 3.5, "tieStart": false, "tieEnd": false, "tieGroup": 245}, {"pitch": 53, "vel": 65, "dur": 3.5, "tieStart": false, "tieEnd": false, "tieGroup": 246}]}, {"start": 3.5, "dur": 0.5, "rest": false, "notes": [{"pitch": 53, "vel": 97, "dur": 0.5, "tieStart": false, "tieEnd": false, "tieGroup": 241}]}]}, {"ts_num": 4, "ts_den": 4, "key_fifths": -4, "key_mode": 1, "clef": 1, "tempo": 120, "velocity": 100, "lyrics": "", "expr": [], "segs": [{"start": 0.0, "dur": 4.0, "rest": true, "notes": []}]}, {"ts_num": 4, "ts_den": 4, "key_fifths": -4, "key_mode": 1, "clef": 1, "tempo": 120, "velocity": 100, "lyrics": "", "expr": [], "segs": [{"start": 0.0, "dur": 4.0, "rest": true, "notes": []}]}, {"ts_num": 4, "ts_den": 4, "key_fifths": -4, "key_mode": 1, "clef": 1, "tempo": 120, "velocity": 100, "lyrics": "", "expr": [], "segs": [{"start": 0.0, "dur": 4.0, "rest": true, "notes": []}]}]}, {"name": "Accomp Drum Groove", "instrument": {"name": "Accomp Drum Groove", "bankMSB": 0, "bankLSB": 0, "program": 0, "channelHint": -1, "percussion": true, "volume": 100, "pan": 64, "transpose": 0}, "measures": [{"ts_num": 4, "ts_den": 4, "key_fifths": -4, "key_mode": 1, "clef": 1, "tempo": 104, "velocity": 100, "lyrics": "", "expr": [], "segs": [{"start": 0.0, "dur": 4.0, "rest": true, "notes": []}]}, {"ts_num": 4, "ts_den": 4, "key_fifths": -4, "key_mode": 1, "clef": 1, "tempo": 104, "velocity": 100, "lyrics": "", "expr": [], "segs": [{"start": 0.0, "dur": 1.0, "rest": false, "notes": [{"pitch": 42, "vel": 60, "dur": 1.0, "tieStart": false, "tieEnd": false, "tieGroup": 0}]}, {"start": 1.0, "dur": 1.0, "rest": false, "notes": [{"pitch": 42, "vel": 60, "dur": 1.0, "tieStart": false, "tieEnd": false, "tieGroup": 0}]}, {"start": 2.0, "dur": 1.0, "rest": false, "notes": [{"pitch": 42, "vel": 60, "dur": 1.0, "tieStart": false, "tieEnd": false, "tieGroup": 0}]}, {"start": 3.0, "dur": 1.0, "rest": false, "notes": [{"pitch": 42, "vel": 60, "dur": 1.0, "tieStart": false, "tieEnd": false, "tieGroup": 0}]}]}, {"ts_num": 4, "ts_den": 4, "key_fifths": -4, "key_mode": 1, "clef": 1, "tempo": 104, "velocity": 100, "lyrics": "", "expr": [], "segs": [{"start": 0.0, "dur": 1.0, "rest": false, "notes": [{"pitch": 36, "vel": 82, "dur": 1.0, "tieStart": false, "tieEnd": false, "tieGroup": 0}, {"pitch": 42, "vel": 82, "dur": 1.0, "tieStart": false, "tieEnd": false, "tieGroup": 0}]}, {"start": 1.0, "dur": 1.0, "rest": false, "notes": [{"pitch": 42, "vel": 62, "dur": 1.0, "tieStart": false, "tieEnd": false, "tieGroup": 0}]}, {"start": 2.0, "dur": 1.0, "rest": false, "notes": [{"pitch": 38, "vel": 80, "dur": 1.0, "tieStart": false, "tieEnd": false, "tieGroup": 0}, {"pitch": 42, "vel": 80, "dur": 1.0, "tieStart": false, "tieEnd": false, "tieGroup": 0}]}, {"start": 3.0, "dur": 1.0, "rest": false, "notes": [{"pitch": 42, "vel": 64, "dur": 1.0, "tieStart": false, "tieEnd": false, "tieGroup": 0}]}]}, {"ts_num": 4, "ts_den": 4, "key_fifths": -4, "key_mode": 1, "clef": 1, "tempo": 104, "velocity": 100, "lyrics": "", "expr": [], "segs": [{"start": 0.0, "dur": 1.0, "rest": false, "notes": [{"pitch": 36, "vel": 86, "dur": 1.0, "tieStart": false, "tieEnd": false, "tieGroup": 0}, {"pitch": 42, "vel": 86, "dur": 1.0, "tieStart": false, "tieEnd": false, "tieGroup": 0}]}, {"start": 1.0, "dur": 1.0, "rest": false, "notes": [{"pitch": 42, "vel": 64, "dur": 1.0, "tieStart": false, "tieEnd": false, "tieGroup": 0}]}, {"start": 2.0, "dur": 1.0, "rest": false, "notes": [{"pitch": 38, "vel": 84, "dur": 1.0, "tieStart": false, "tieEnd": false, "tieGroup": 0}, {"pitch": 42, "vel": 84, "dur": 1.0, "tieStart": false, "tieEnd": false, "tieGroup": 0}]}, {"start": 3.0, "dur": 1.0, "rest": false, "notes": [{"pitch": 36, "vel": 88, "dur": 1.0, "tieStart": false, "tieEnd": false, "tieGroup": 0}, {"pitch": 42, "vel": 88, "dur": 1.0, "tieStart": false, "tieEnd": false, "tieGroup": 0}]}]}, {"ts_num": 4, "ts_den": 4, "key_fifths": -4, "key_mode": 1, "clef": 1, "tempo": 120, "velocity": 100, "lyrics": "", "expr": [], "segs": [{"start": 0.0, "dur": 1.0, "rest": false, "notes": [{"pitch": 36, "vel": 100, "dur": 1.0, "tieStart": false, "tieEnd": false, "tieGroup": 0}, {"pitch": 42, "vel": 70, "dur": 1.0, "tieStart": false, "tieEnd": false, "tieGroup": 0}]}, {"start": 1.0, "dur": 1.0, "rest": false, "notes": [{"pitch": 42, "vel": 70, "dur": 1.0, "tieStart": false, "tieEnd": false, "tieGroup": 0}]}, {"start": 2.0, "dur": 1.0, "rest": false, "notes": [{"pitch": 38, "vel": 95, "dur": 1.0, "tieStart": false, "tieEnd": false, "tieGroup": 0}, {"pitch": 42, "vel": 70, "dur": 1.0, "tieStart": false, "tieEnd": false, "tieGroup": 0}]}, {"start": 3.0, "dur": 1.0, "rest": false, "notes": [{"pitch": 42, "vel": 70, "dur": 1.0, "tieStart": false, "tieEnd": false, "tieGroup": 0}]}]}, {"ts_num": 4, "ts_den": 4, "key_fifths": -4, "key_mode": 1, "clef": 1, "tempo": 120, "velocity": 100, "lyrics": "", "expr": [], "segs": [{"start": 0.0, "dur": 1.0, "rest": false, "notes": [{"pitch": 36, "vel": 100, "dur": 1.0, "tieStart": false, "tieEnd": false, "tieGroup": 0}, {"pitch": 42, "vel": 70, "dur": 1.0, "tieStart": false, "tieEnd": false, "tieGroup": 0}]}, {"start": 1.0, "dur": 1.0, "rest": false, "notes": [{"pitch": 42, "vel": 70, "dur": 1.0, "tieStart": false, "tieEnd": false, "tieGroup": 0}]}, {"start": 2.0, "dur": 1.0, "rest": false, "notes": [{"pitch": 38, "vel": 95, "dur": 1.0, "tieStart": false, "tieEnd": false, "tieGroup": 0}, {"pitch": 42, "vel": 70, "dur": 1.0, "tieStart": false, "tieEnd": false, "tieGroup": 0}]}, {"start": 3.0, "dur": 1.0, "rest": false, "notes": [{"pitch": 42, "vel": 70, "dur": 1.0, "tieStart": false, "tieEnd": false, "tieGroup": 0}]}]}, {"ts_num": 4, "ts_den": 4, "key_fifths": -4, "key_mode": 1, "clef": 1, "tempo": 120, "velocity": 100, "lyrics": "", "expr": [], "segs": [{"start": 0.0, "dur": 1.0, "rest": false, "notes": [{"pitch": 36, "vel": 100, "dur": 1.0, "tieStart": false, "tieEnd": false, "tieGroup": 0}, {"pitch": 42, "vel": 70, "dur": 1.0, "tieStart": false, "tieEnd": false, "tieGroup": 0}]}, {"start": 1.0, "dur": 1.0, "rest": false, "notes": [{"pitch": 42, "vel": 70, "dur": 1.0, "tieStart": false, "tieEnd": false, "tieGroup": 0}]}, {"start": 2.0, "dur": 1.0, "rest": false, "notes": [{"pitch": 38, "vel": 95, "dur": 1.0, "tieStart": false, "tieEnd": false, "tieGroup": 0}, {"pitch": 42, "vel": 70, "dur": 1.0, "tieStart": false, "tieEnd": false, "tieGroup": 0}]}, {"start": 3.0, "dur": 1.0, "rest": false, "notes": [{"pitch": 42, "vel": 70, "dur": 1.0, "tieStart": false, "tieEnd": false, "tieGroup": 0}]}]}, {"ts_num": 4, "ts_den": 4, "key_fifths": -4, "key_mode": 1, "clef": 1, "tempo": 120, "velocity": 100, "lyrics": "", "expr": [], "segs": [{"start": 0.0, "dur": 1.5, "rest": false, "notes": [{"pitch": 36, "vel": 100, "dur": 1.5, "tieStart": false, "tieEnd": false, "tieGroup": 0}, {"pitch": 42, "vel": 70, "dur": 1.5, "tieStart": false, "tieEnd": false, "tieGroup": 0}]}, {"start": 1.5, "dur": 1.5, "rest": false, "notes": [{"pitch": 38, "vel": 95, "dur": 1.5, "tieStart": false, "tieEnd": false, "tieGroup": 0}, {"pitch": 42, "vel": 70, "dur": 1.5, "tieStart": false, "tieEnd": false, "tieGroup": 0}]}, {"start": 3.0, "dur": 1.0, "rest": false, "notes": [{"pitch": 42, "vel": 70, "dur": 1.0, "tieStart": false, "tieEnd": false, "tieGroup": 0}]}]}, {"ts_num": 4, "ts_den": 4, "key_fifths": -4, "key_mode": 1, "clef": 1, "tempo": 120, "velocity": 100, "lyrics": "", "expr": [], "segs": [{"start": 0.0, "dur": 1.5, "rest": false, "notes": [{"pitch": 36, "vel": 100, "dur": 1.5, "tieStart": false, "tieEnd": false, "tieGroup": 0}, {"pitch": 42, "vel": 70, "dur": 1.5, "tieStart": false, "tieEnd": false, "tieGroup": 0}]}, {"start": 1.5, "dur": 1.5, "rest": false, "notes": [{"pitch": 38, "vel": 95, "dur": 1.5, "tieStart": false, "tieEnd": false, "tieGroup": 0}, {"pitch": 42, "vel": 70, "dur": 1.5, "tieStart": false, "tieEnd": false, "tieGroup": 0}]}, {"start": 3.0, "dur": 1.0, "rest": false, "notes": [{"pitch": 42, "vel": 70, "dur": 1.0, "tieStart": false, "tieEnd": false, "tieGroup": 0}]}]}, {"ts_num": 4, "ts_den": 4, "key_fifths": -4, "key_mode": 1, "clef": 1, "tempo": 120, "velocity": 100, "lyrics": "", "expr": [], "segs": [{"start": 0.0, "dur": 1.5, "rest": false, "notes": [{"pitch": 36, "vel": 100, "dur": 1.5, "tieStart": false, "tieEnd": false, "tieGroup": 0}, {"pitch": 42, "vel": 70, "dur": 1.5, "tieStart": false, "tieEnd": false, "tieGroup": 0}]}, {"start": 1.5, "dur": 1.5, "rest": false, "notes": [{"pitch": 38, "vel": 95, "dur": 1.5, "tieStart": false, "tieEnd": false, "tieGroup": 0}, {"pitch": 42, "vel": 70, "dur": 1.5, "tieStart": false, "tieEnd": false, "tieGroup": 0}]}, {"start": 3.0, "dur": 1.0, "rest": false, "notes": [{"pitch": 42, "vel": 70, "dur": 1.0, "tieStart": false, "tieEnd": false, "tieGroup": 0}]}]}, {"ts_num": 4, "ts_den": 4, "key_fifths": -4, "key_mode": 1, "clef": 1, "tempo": 120, "velocity": 100, "lyrics": "", "expr": [], "segs": [{"start": 0.0, "dur": 1.0, "rest": false, "notes": [{"pitch": 36, "vel": 100, "dur": 1.0, "tieStart": false, "tieEnd": false, "tieGroup": 0}, {"pitch": 42, "vel": 70, "dur": 1.0, "tieStart": false, "tieEnd": false, "tieGroup": 0}]}, {"start": 1.0, "dur": 1.0, "rest": false, "notes": [{"pitch": 42, "vel": 70, "dur": 1.0, "tieStart": false, "tieEnd": false, "tieGroup": 0}]}, {"start": 2.0, "dur": 1.0, "rest": false, "notes": [{"pitch": 38, "vel": 95, "dur": 1.0, "tieStart": false, "tieEnd": false, "tieGroup": 0}, {"pitch": 42, "vel": 70, "dur": 1.0, "tieStart": false, "tieEnd": false, "tieGroup": 0}]}, {"start": 3.0, "dur": 1.0, "rest": false, "notes": [{"pitch": 42, "vel": 70, "dur": 1.0, "tieStart": false, "tieEnd": false, "tieGroup": 0}]}]}, {"ts_num": 4, "ts_den": 4, "key_fifths": -4, "key_mode": 1, "clef": 1, "tempo": 120, "velocity": 100, "lyrics": "", "expr": [], "segs": [{"start": 0.0, "dur": 1.0, "rest": false, "notes": [{"pitch": 36, "vel": 100, "dur": 1.0, "tieStart": false, "tieEnd": false, "tieGroup": 0}, {"pitch": 42, "vel": 70, "dur": 1.0, "tieStart": false, "tieEnd": false, "tieGroup": 0}]}, {"start": 1.0, "dur": 1.0, "rest": false, "notes": [{"pitch": 42, "vel": 70, "dur": 1.0, "tieStart": false, "tieEnd": false, "tieGroup": 0}]}, {"start": 2.0, "dur": 1.0, "rest": false, "notes": [{"pitch": 38, "vel": 95, "dur": 1.0, "tieStart": false, "tieEnd": false, "tieGroup": 0}, {"pitch": 42, "vel": 70, "dur": 1.0, "tieStart": false, "tieEnd": false, "tieGroup": 0}]}, {"start": 3.0, "dur": 1.0, "rest": false, "notes": [{"pitch": 42, "vel": 70, "dur": 1.0, "tieStart": false, "tieEnd": false, "tieGroup": 0}]}]}, {"ts_num": 4, "ts_den": 4, "key_fifths": -4, "key_mode": 1, "clef": 1, "tempo": 120, "velocity": 100, "lyrics": "", "expr": [], "segs": [{"start": 0.0, "dur": 1.0, "rest": false, "notes": [{"pitch": 36, "vel": 100, "dur": 1.0, "tieStart": false, "tieEnd": false, "tieGroup": 0}, {"pitch": 42, "vel": 70, "dur": 1.0, "tieStart": false, "tieEnd": false, "tieGroup": 0}]}, {"start": 1.0, "dur": 1.0, "rest": false, "notes": [{"pitch": 42, "vel": 70, "dur": 1.0, "tieStart": false, "tieEnd": false, "tieGroup": 0}]}, {"start": 2.0, "dur": 1.0, "rest": false, "notes": [{"pitch": 38, "vel": 95, "dur": 1.0, "tieStart": false, "tieEnd": false, "tieGroup": 0}, {"pitch": 42, "vel": 70, "dur": 1.0, "tieStart": false, "tieEnd": false, "tieGroup": 0}]}, {"start": 3.0, "dur": 1.0, "rest": false, "notes": [{"pitch": 42, "vel": 70, "dur": 1.0, "tieStart": false, "tieEnd": false, "tieGroup": 0}]}]}, {"ts_num": 4, "ts_den": 4, "key_fifths": -4, "key_mode": 1, "clef": 1, "tempo": 120, "velocity": 100, "lyrics": "", "expr": [], "segs": [{"start": 0.0, "dur": 0.5, "rest": false, "notes": [{"pitch": 36, "vel": 100, "dur": 0.5, "tieStart": false, "tieEnd": false, "tieGroup": 0}]}, {"start": 0.5, "dur": 0.5, "rest": false, "notes": [{"pitch": 42, "vel": 70, "dur": 0.5, "tieStart": false, "tieEnd": false, "tieGroup": 0}]}, {"start": 1.0, "dur": 0.5, "rest": false, "notes": [{"pitch": 42, "vel": 70, "dur": 0.5, "tieStart": false, "tieEnd": false, "tieGroup": 0}]}, {"start": 1.5, "dur": 0.5, "rest": false, "notes": [{"pitch": 38, "vel": 95, "dur": 0.5, "tieStart": false, "tieEnd": false, "tieGroup": 0}]}, {"start": 2.0, "dur": 0.5, "rest": true, "notes": []}, {"start": 2.5, "dur": 0.5, "rest": false, "notes": [{"pitch": 42, "vel": 70, "dur": 0.5, "tieStart": false, "tieEnd": false, "tieGroup": 113}]}, {"start": 3.0, "dur": 1.0, "rest": false, "notes": [{"pitch": 42, "vel": 70, "dur": 1.0, "tieStart": false, "tieEnd": false, "tieGroup": 0}]}]}, {"ts_num": 4, "ts_den": 4, "key_fifths": -4, "key_mode": 1, "clef": 1, "tempo": 120, "velocity": 100, "lyrics": "", "expr": [], "segs": [{"start": 0.0, "dur": 0.5, "rest": false, "notes": [{"pitch": 36, "vel": 100, "dur": 0.5, "tieStart": false, "tieEnd": false, "tieGroup": 0}]}, {"start": 0.5, "dur": 0.5, "rest": false, "notes": [{"pitch": 42, "vel": 70, "dur": 0.5, "tieStart": false, "tieEnd": false, "tieGroup": 0}]}, {"start": 1.0, "dur": 0.5, "rest": false, "notes": [{"pitch": 42, "vel": 70, "dur": 0.5, "tieStart": false, "tieEnd": false, "tieGroup": 0}]}, {"start": 1.5, "dur": 0.5, "rest": false, "notes": [{"pitch": 38, "vel": 95, "dur": 0.5, "tieStart": false, "tieEnd": false, "tieGroup": 0}]}, {"start": 2.0, "dur": 0.5, "rest": true, "notes": []}, {"start": 2.5, "dur": 0.5, "rest": false, "notes": [{"pitch": 42, "vel": 70, "dur": 0.5, "tieStart": false, "tieEnd": false, "tieGroup": 114}]}, {"start": 3.0, "dur": 1.0, "rest": false, "notes": [{"pitch": 42, "vel": 70, "dur": 1.0, "tieStart": false, "tieEnd": false, "tieGroup": 0}]}]}, {"ts_num": 4, "ts_den": 4, "key_fifths": -4, "key_mode": 1, "clef": 1, "tempo": 120, "velocity": 100, "lyrics": "", "expr": [], "segs": [{"start": 0.0, "dur": 0.5, "rest": false, "notes": [{"pitch": 36, "vel": 100, "dur": 0.5, "tieStart": false, "tieEnd": false, "tieGroup": 0}]}, {"start": 0.5, "dur": 0.5, "rest": false, "notes": [{"pitch": 42, "vel": 70, "dur": 0.5, "tieStart": false, "tieEnd": false, "tieGroup": 0}]}, {"start": 1.0, "dur": 0.5, "rest": false, "notes": [{"pitch": 42, "vel": 70, "dur": 0.5, "tieStart": false, "tieEnd": false, "tieGroup": 0}]}, {"start": 1.5, "dur": 0.5, "rest": false, "notes": [{"pitch": 38, "vel": 95, "dur": 0.5, "tieStart": false, "tieEnd": false, "tieGroup": 0}]}, {"start": 2.0, "dur": 0.5, "rest": true, "notes": []}, {"start": 2.5, "dur": 0.5, "rest": false, "notes": [{"pitch": 42, "vel": 70, "dur": 0.5, "tieStart": false, "tieEnd": false, "tieGroup": 115}]}, {"start": 3.0, "dur": 1.0, "rest": false, "notes": [{"pitch": 42, "vel": 70, "dur": 1.0, "tieStart": false, "tieEnd": false, "tieGroup": 0}]}]}, {"ts_num": 4, "ts_den": 4, "key_fifths": -4, "key_mode": 1, "clef": 1, "tempo": 120, "velocity": 100, "lyrics": "", "expr": [], "segs": [{"start": 0.0, "dur": 1.0, "rest": false, "notes": [{"pitch": 36, "vel": 100, "dur": 1.0, "tieStart": false, "tieEnd": false, "tieGroup": 0}, {"pitch": 42, "vel": 70, "dur": 1.0, "tieStart": false, "tieEnd": false, "tieGroup": 0}]}, {"start": 1.0, "dur": 1.0, "rest": false, "notes": [{"pitch": 42, "vel": 70, "dur": 1.0, "tieStart": false, "tieEnd": false, "tieGroup": 0}]}, {"start": 2.0, "dur": 1.0, "rest": false, "notes": [{"pitch": 38, "vel": 95, "dur": 1.0, "tieStart": false, "tieEnd": false, "tieGroup": 0}, {"pitch": 42, "vel": 70, "dur": 1.0, "tieStart": false, "tieEnd": false, "tieGroup": 0}]}, {"start": 3.0, "dur": 1.0, "rest": false, "notes": [{"pitch": 42, "vel": 70, "dur": 1.0, "tieStart": false, "tieEnd": false, "tieGroup": 0}]}]}, {"ts_num": 4, "ts_den": 4, "key_fifths": -4, "key_mode": 1, "clef": 1, "tempo": 120, "velocity": 100, "lyrics": "", "expr": [], "segs": [{"start": 0.0, "dur": 1.0, "rest": false, "notes": [{"pitch": 36, "vel": 100, "dur": 1.0, "tieStart": false, "tieEnd": false, "tieGroup": 0}, {"pitch": 42, "vel": 70, "dur": 1.0, "tieStart": false, "tieEnd": false, "tieGroup": 0}]}, {"start": 1.0, "dur": 1.0, "rest": false, "notes": [{"pitch": 42, "vel": 70, "dur": 1.0, "tieStart": false, "tieEnd": false, "tieGroup": 0}]}, {"start": 2.0, "dur": 1.0, "rest": false, "notes": [{"pitch": 38, "vel": 95, "dur": 1.0, "tieStart": false, "tieEnd": false, "tieGroup": 0}, {"pitch": 42, "vel": 70, "dur": 1.0, "tieStart": false, "tieEnd": false, "tieGroup": 0}]}, {"start": 3.0, "dur": 1.0, "rest": false, "notes": [{"pitch": 42, "vel": 70, "dur": 1.0, "tieStart": false, "tieEnd": false, "tieGroup": 0}]}]}, {"ts_num": 4, "ts_den": 4, "key_fifths": -4, "key_mode": 1, "clef": 1, "tempo": 120, "velocity": 100, "lyrics": "", "expr": [], "segs": [{"start": 0.0, "dur": 1.0, "rest": false, "notes": [{"pitch": 36, "vel": 100, "dur": 1.0, "tieStart": false, "tieEnd": false, "tieGroup": 0}, {"pitch": 42, "vel": 70, "dur": 1.0, "tieStart": false, "tieEnd": false, "tieGroup": 0}]}, {"start": 1.0, "dur": 1.0, "rest": false, "notes": [{"pitch": 42, "vel": 70, "dur": 1.0, "tieStart": false, "tieEnd": false, "tieGroup": 0}]}, {"start": 2.0, "dur": 1.0, "rest": false, "notes": [{"pitch": 38, "vel": 95, "dur": 1.0, "tieStart": false, "tieEnd": false, "tieGroup": 0}, {"pitch": 42, "vel": 70, "dur": 1.0, "tieStart": false, "tieEnd": false, "tieGroup": 0}]}, {"start": 3.0, "dur": 1.0, "rest": false, "notes": [{"pitch": 42, "vel": 70, "dur": 1.0, "tieStart": false, "tieEnd": false, "tieGroup": 0}]}]}, {"ts_num": 4, "ts_den": 4, "key_fifths": -4, "key_mode": 1, "clef": 1, "tempo": 120, "velocity": 100, "lyrics": "", "expr": [], "segs": [{"start": 0.0, "dur": 1.0, "rest": false, "notes": [{"pitch": 36, "vel": 100, "dur": 1.0, "tieStart": false, "tieEnd": false, "tieGroup": 0}, {"pitch": 42, "vel": 70, "dur": 1.0, "tieStart": false, "tieEnd": false, "tieGroup": 0}]}, {"start": 1.0, "dur": 1.0, "rest": false, "notes": [{"pitch": 42, "vel": 70, "dur": 1.0, "tieStart": false, "tieEnd": false, "tieGroup": 0}]}, {"start": 2.0, "dur": 1.0, "rest": false, "notes": [{"pitch": 38, "vel": 95, "dur": 1.0, "tieStart": false, "tieEnd": false, "tieGroup": 0}, {"pitch": 42, "vel": 70, "dur": 1.0, "tieStart": false, "tieEnd": false, "tieGroup": 0}]}, {"start": 3.0, "dur": 1.0, "rest": false, "notes": [{"pitch": 42, "vel": 70, "dur": 1.0, "tieStart": false, "tieEnd": false, "tieGroup": 0}]}]}, {"ts_num": 4, "ts_den": 4, "key_fifths": -4, "key_mode": 1, "clef": 1, "tempo": 120, "velocity": 100, "lyrics": "", "expr": [], "segs": [{"start": 0.0, "dur": 1.0, "rest": false, "notes": [{"pitch": 36, "vel": 100, "dur": 1.0, "tieStart": false, "tieEnd": false, "tieGroup": 0}, {"pitch": 42, "vel": 70, "dur": 1.0, "tieStart": false, "tieEnd": false, "tieGroup": 0}]}, {"start": 1.0, "dur": 1.0, "rest": false, "notes": [{"pitch": 42, "vel": 70, "dur": 1.0, "tieStart": false, "tieEnd": false, "tieGroup": 0}]}, {"start": 2.0, "dur": 1.0, "rest": false, "notes": [{"pitch": 38, "vel": 95, "dur": 1.0, "tieStart": false, "tieEnd": false, "tieGroup": 0}, {"pitch": 42, "vel": 70, "dur": 1.0, "tieStart": false, "tieEnd": false, "tieGroup": 0}]}, {"start": 3.0, "dur": 1.0, "rest": false, "notes": [{"pitch": 42, "vel": 70, "dur": 1.0, "tieStart": false, "tieEnd": false, "tieGroup": 0}]}]}, {"ts_num": 4, "ts_den": 4, "key_fifths": -4, "key_mode": 1, "clef": 1, "tempo": 120, "velocity": 100, "lyrics": "", "expr": [], "segs": [{"start": 0.0, "dur": 1.0, "rest": false, "notes": [{"pitch": 36, "vel": 100, "dur": 1.0, "tieStart": false, "tieEnd": false, "tieGroup": 0}, {"pitch": 42, "vel": 70, "dur": 1.0, "tieStart": false, "tieEnd": false, "tieGroup": 0}]}, {"start": 1.0, "dur": 1.0, "rest": false, "notes": [{"pitch": 42, "vel": 70, "dur": 1.0, "tieStart": false, "tieEnd": false, "tieGroup": 0}]}, {"start": 2.0, "dur": 1.0, "rest": false, "notes": [{"pitch": 38, "vel": 95, "dur": 1.0, "tieStart": false, "tieEnd": false, "tieGroup": 0}, {"pitch": 42, "vel": 70, "dur": 1.0, "tieStart": false, "tieEnd": false, "tieGroup": 0}]}, {"start": 3.0, "dur": 1.0, "rest": false, "notes": [{"pitch": 42, "vel": 70, "dur": 1.0, "tieStart": false, "tieEnd": false, "tieGroup": 0}]}]}, {"ts_num": 4, "ts_den": 4, "key_fifths": -4, "key_mode": 1, "clef": 1, "tempo": 120, "velocity": 100, "lyrics": "", "expr": [], "segs": [{"start": 0.0, "dur": 1.0, "rest": false, "notes": [{"pitch": 36, "vel": 100, "dur": 1.0, "tieStart": false, "tieEnd": false, "tieGroup": 0}, {"pitch": 42, "vel": 70, "dur": 1.0, "tieStart": false, "tieEnd": false, "tieGroup": 0}]}, {"start": 1.0, "dur": 1.0, "rest": false, "notes": [{"pitch": 42, "vel": 70, "dur": 1.0, "tieStart": false, "tieEnd": false, "tieGroup": 0}]}, {"start": 2.0, "dur": 1.0, "rest": false, "notes": [{"pitch": 38, "vel": 95, "dur": 1.0, "tieStart": false, "tieEnd": false, "tieGroup": 0}, {"pitch": 42, "vel": 70, "dur": 1.0, "tieStart": false, "tieEnd": false, "tieGroup": 0}]}, {"start": 3.0, "dur": 1.0, "rest": false, "notes": [{"pitch": 42, "vel": 70, "dur": 1.0, "tieStart": false, "tieEnd": false, "tieGroup": 0}]}]}, {"ts_num": 4, "ts_den": 4, "key_fifths": -4, "key_mode": 1, "clef": 1, "tempo": 120, "velocity": 100, "lyrics": "", "expr": [], "segs": [{"start": 0.0, "dur": 1.0, "rest": false, "notes": [{"pitch": 36, "vel": 100, "dur": 1.0, "tieStart": false, "tieEnd": false, "tieGroup": 0}, {"pitch": 42, "vel": 70, "dur": 1.0, "tieStart": false, "tieEnd": false, "tieGroup": 0}]}, {"start": 1.0, "dur": 1.0, "rest": false, "notes": [{"pitch": 42, "vel": 70, "dur": 1.0, "tieStart": false, "tieEnd": false, "tieGroup": 0}]}, {"start": 2.0, "dur": 1.0, "rest": false, "notes": [{"pitch": 38, "vel": 95, "dur": 1.0, "tieStart": false, "tieEnd": false, "tieGroup": 0}, {"pitch": 42, "vel": 70, "dur": 1.0, "tieStart": false, "tieEnd": false, "tieGroup": 0}]}, {"start": 3.0, "dur": 1.0, "rest": false, "notes": [{"pitch": 42, "vel": 70, "dur": 1.0, "tieStart": false, "tieEnd": false, "tieGroup": 0}]}]}, {"ts_num": 4, "ts_den": 4, "key_fifths": -4, "key_mode": 1, "clef": 1, "tempo": 120, "velocity": 100, "lyrics": "", "expr": [], "segs": [{"start": 0.0, "dur": 1.0, "rest": false, "notes": [{"pitch": 36, "vel": 100, "dur": 1.0, "tieStart": false, "tieEnd": false, "tieGroup": 0}, {"pitch": 42, "vel": 70, "dur": 1.0, "tieStart": false, "tieEnd": false, "tieGroup": 0}]}, {"start": 1.0, "dur": 1.0, "rest": false, "notes": [{"pitch": 42, "vel": 70, "dur": 1.0, "tieStart": false, "tieEnd": false, "tieGroup": 0}]}, {"start": 2.0, "dur": 1.0, "rest": false, "notes": [{"pitch": 38, "vel": 95, "dur": 1.0, "tieStart": false, "tieEnd": false, "tieGroup": 0}, {"pitch": 42, "vel": 70, "dur": 1.0, "tieStart": false, "tieEnd": false, "tieGroup": 0}]}, {"start": 3.0, "dur": 1.0, "rest": false, "notes": [{"pitch": 42, "vel": 70, "dur": 1.0, "tieStart": false, "tieEnd": false, "tieGroup": 0}]}]}, {"ts_num": 4, "ts_den": 4, "key_fifths": -4, "key_mode": 1, "clef": 1, "tempo": 120, "velocity": 100, "lyrics": "", "expr": [], "segs": [{"start": 0.0, "dur": 1.0, "rest": false, "notes": [{"pitch": 36, "vel": 100, "dur": 1.0, "tieStart": false, "tieEnd": false, "tieGroup": 0}, {"pitch": 42, "vel": 70, "dur": 1.0, "tieStart": false, "tieEnd": false, "tieGroup": 0}]}, {"start": 1.0, "dur": 1.0, "rest": false, "notes": [{"pitch": 42, "vel": 70, "dur": 1.0, "tieStart": false, "tieEnd": false, "tieGroup": 0}]}, {"start": 2.0, "dur": 1.0, "rest": false, "notes": [{"pitch": 38, "vel": 95, "dur": 1.0, "tieStart": false, "tieEnd": false, "tieGroup": 0}, {"pitch": 42, "vel": 70, "dur": 1.0, "tieStart": false, "tieEnd": false, "tieGroup": 0}]}, {"start": 3.0, "dur": 1.0, "rest": false, "notes": [{"pitch": 42, "vel": 70, "dur": 1.0, "tieStart": false, "tieEnd": false, "tieGroup": 0}]}]}, {"ts_num": 4, "ts_den": 4, "key_fifths": 0, "key_mode": 0, "clef": 1, "tempo": 120, "velocity": 100, "lyrics": "", "expr": [], "segs": [{"start": 0.0, "dur": 4.0, "rest": true, "notes": []}]}, {"ts_num": 4, "ts_den": 4, "key_fifths": 0, "key_mode": 0, "clef": 1, "tempo": 120, "velocity": 100, "lyrics": "", "expr": [], "segs": [{"start": 0.0, "dur": 4.0, "rest": true, "notes": []}]}, {"ts_num": 4, "ts_den": 4, "key_fifths": 0, "key_mode": 0, "clef": 1, "tempo": 120, "velocity": 100, "lyrics": "", "expr": [], "segs": [{"start": 0.0, "dur": 4.0, "rest": true, "notes": []}]}]}], "output_filters": []}