{"format": "arkscore", "version": 2, "title": "Trendy", "measure_width_scale": 1.299999952316284, "harmony_reference_track": 0, "tracks": [{"name": "Keys", "instrument": {"name": "Electric Piano 1", "bankMSB": 0, "bankLSB": 0, "program": 4, "channelHint": -1, "percussion": false, "volume": 102, "pan": 64, "transpose": 0}, "measures": [{"ts_num": 4, "ts_den": 4, "key_fifths": -4, "key_mode": 1, "clef": 0, "tempo": 104, "velocity": 100, "lyrics": "", "expr": [], "segs": [{"start": 0.0, "dur": 0.5, "rest": false, "notes": [{"pitch": 65, "vel": 94, "dur": 0.5, "tieStart": false, "tieEnd": false, "tieGroup": 0}, {"pitch": 68, "vel": 94, "dur": 0.5, "tieStart": false, "tieEnd": false, "tieGroup": 0}, {"pitch": 72, "vel": 94, "dur": 0.5, "tieStart": false, "tieEnd": false, "tieGroup": 0}, {"pitch": 75, "vel": 94, "dur": 0.5, "tieStart": false, "tieEnd": false, "tieGroup": 0}, {"pitch": 79, "vel": 94, "dur": 0.5, "tieStart": false, "tieEnd": false, "tieGroup": 0}]}, {"start": 0.5, "dur": 0.25, "rest": true, "notes": []}, {"start": 0.75, "dur": 0.25, "rest": false, "notes": [{"pitch": 84, "vel": 98, "dur": 0.25, "tieStart": false, "tieEnd": false, "tieGroup": 1}]}, {"start": 1.0, "dur": 0.5, "rest": true, "notes": []}, {"start": 1.5, "dur": 0.5, "rest": false, "notes": [{"pitch": 65, "vel": 92, "dur": 0.5, "tieStart": false, "tieEnd": false, "tieGroup": 2}, {"pitch": 68, "vel": 92, "dur": 0.5, "tieStart": false, "tieEnd": false, "tieGroup": 0}, {"pitch": 72, "vel": 92, "dur": 0.5, "tieStart": false, "tieEnd": false, "tieGroup": 0}, {"pitch": 75, "vel": 92, "dur": 0.5, "tieStart": false, "tieEnd": false, "tieGroup": 0}, {"pitch": 79, "vel": 92, "dur": 0.5, "tieStart": false, "tieEnd": false, "tieGroup": 0}]}, {"start": 2.0, "dur": 0.5, "rest": true, "notes": []}, {"start": 2.5, "dur": 0.25, "rest": false, "notes": [{"pitch": 87, "vel": 96, "dur": 0.25, "tieStart": false, "tieEnd": false, "tieGroup": 3}]}, {"start": 2.75, "dur": 0.25, "rest": true, "notes": []}, {"start": 3.0, "dur": 0.5, "rest": false, "notes": [{"pitch": 65, "vel": 95, "dur": 0.5, "tieStart": false, "tieEnd": false, "tieGroup": 4}, {"pitch": 68, "vel": 95, "dur": 0.5, "tieStart": false, "tieEnd": false, "tieGroup": 0}, {"pitch": 72, "vel": 95, "dur": 0.5, "tieStart": false, "tieEnd": false, "tieGroup": 0}, {"pitch": 75, "vel": 95, "dur": 0.5, "tieStart": false, "tieEnd": false, "tieGroup": 0}, {"pitch": 79, "vel": 95, "dur": 0.5, "tieStart": false, "tieEnd": false, "tieGroup": 0}]}, {"start": 3.5, "dur": 0.5, "rest": true, "notes": []}]}, {"ts_num": 4, "ts_den": 4, "key_fifths": -4, "key_mode": 1, "clef": 0, "tempo": 104, "velocity": 100, "lyrics": "", "expr": [], "segs": [{"start": 0.0, "dur": 0.5, "rest": false, "notes": [{"pitch": 61, "vel": 94, "dur": 0.5, "tieStart": false, "tieEnd": false, "tieGroup": 0}, {"pitch": 65, "vel": 94, "dur": 0.5, "tieStart": false, "tieEnd": false, "tieGroup": 0}, {"pitch": 68, "vel": 94, "dur": 0.5, "tieStart": false, "tieEnd": false, "tieGroup": 0}, {"pitch": 72, "vel": 94, "dur": 0.5, "tieStart": false, "tieEnd": false, "tieGroup": 0}, {"pitch": 75, "vel": 94, "dur": 0.5, "tieStart": false, "tieEnd": false, "tieGroup": 0}]}, {"start": 0.5, "dur": 0.25, "rest": true, "notes": []}, {"start": 0.75, "dur": 0.25, "rest": false, "notes": [{"pitch": 80, "vel": 98, "dur": 0.25, "tieStart": false, "tieEnd": false, "tieGroup": 5}]}, {"start": 1.0, "dur": 0.5, "rest": true, "notes": []}, {"start": 1.5, "dur": 0.5, "rest": false, "notes": [{"pitch": 61, "vel": 92, "dur": 0.5, "tieStart": false, "tieEnd": false, "tieGroup": 6}, {"pitch": 65, "vel": 92, "dur": 0.5, "tieStart": false, "tieEnd": false, "tieGroup": 0}, {"pitch": 68, "vel": 92, "dur": 0.5, "tieStart": false, "tieEnd": false, "tieGroup": 0}, {"pitch": 72, "vel": 92, "dur": 0.5, "tieStart": false, "tieEnd": false, "tieGroup": 0}, {"pitch": 75, "vel": 92, "dur": 0.5, "tieStart": false, "tieEnd": false, "tieGroup": 0}]}, {"start": 2.0, "dur": 0.5, "rest": true, "notes": []}, {"start": 2.5, "dur": 0.25, "rest": false, "notes": [{"pitch": 77, "vel": 96, "dur": 0.25, "tieStart": false, "tieEnd": false, "tieGroup": 7}]}, {"start": 2.75, "dur": 0.25, "rest": true, "notes": []}, {"start": 3.0, "dur": 0.5, "rest": false, "notes": [{"pitch": 61, "vel": 95, "dur": 0.5, "tieStart": false, "tieEnd": false, "tieGroup": 8}, {"pitch": 65, "vel": 95, "dur": 0.5, "tieStart": false, "tieEnd": false, "tieGroup": 0}, {"pitch": 68, "vel": 95, "dur": 0.5, "tieStart": false, "tieEnd": false, "tieGroup": 0}, {"pitch": 72, "vel": 95, "dur": 0.5, "tieStart": false, "tieEnd": false, "tieGroup": 0}, {"pitch": 75, "vel": 95, "dur": 0.5, "tieStart": false, "tieEnd": false, "tieGroup": 0}]}, {"start": 3.5, "dur": 0.5, "rest": true, "notes": []}]}, {"ts_num": 4, "ts_den": 4, "key_fifths": -4, "key_mode": 1, "clef": 0, "tempo": 104, "velocity": 100, "lyrics": "", "expr": [], "segs": [{"start": 0.0, "dur": 0.75, "rest": false, "notes": [{"pitch": 56, "vel": 95, "dur": 0.75, "tieStart": false, "tieEnd": false, "tieGroup": 0}, {"pitch": 60, "vel": 95, "dur": 0.75, "tieStart": false, "tieEnd": false, "tieGroup": 0}, {"pitch": 63, "vel": 95, "dur": 0.75, "tieStart": false, "tieEnd": false, "tieGroup": 0}, {"pitch": 67, "vel": 95, "dur": 0.75, "tieStart": false, "tieEnd": false, "tieGroup": 0}, {"pitch": 70, "vel": 95, "dur": 0.75, "tieStart": false, "tieEnd": false, "tieGroup": 0}]}, {"start": 0.75, "dur": 0.5, "rest": true, "notes": []}, {"start": 1.25, "dur": 0.25, "rest": false, "notes": [{"pitch": 79, "vel": 99, "dur": 0.25, "tieStart": false, "tieEnd": false, "tieGroup": 9}]}, {"start": 1.5, "dur": 0.5, "rest": true, "notes": []}, {"start": 2.0, "dur": 0.5, "rest": false, "notes": [{"pitch": 56, "vel": 92, "dur": 0.5, "tieStart": false, "tieEnd": false, "tieGroup": 10}, {"pitch": 60, "vel": 92, "dur": 0.5, "tieStart": false, "tieEnd": false, "tieGroup": 0}, {"pitch": 63, "vel": 92, "dur": 0.5, "tieStart": false, "tieEnd": false, "tieGroup": 0}, {"pitch": 67, "vel": 92, "dur": 0.5, "tieStart": false, "tieEnd": false, "tieGroup": 0}, {"pitch": 70, "vel": 92, "dur": 0.5, "tieStart": false, "tieEnd": false, "tieGroup": 0}]}, {"start": 2.5, "dur": 0.25, "rest": true, "notes": []}, {"start": 2.75, "dur": 0.25, "rest": false, "notes": [{"pitch": 82, "vel": 97, "dur": 0.25, "tieStart": false, "tieEnd": false, "tieGroup": 11}]}, {"start": 3.0, "dur": 0.25, "rest": true, "notes": []}, {"start": 3.25, "dur": 0.25, "rest": false, "notes": [{"pitch": 56, "vel": 93, "dur": 0.25, "tieStart": false, "tieEnd": false, "tieGroup": 12}, {"pitch": 60, "vel": 93, "dur": 0.25, "tieStart": false, "tieEnd": false, "tieGroup": 0}, {"pitch": 63, "vel": 93, "dur": 0.25, "tieStart": false, "tieEnd": false, "tieGroup": 0}, {"pitch": 67, "vel": 93, "dur": 0.25, "tieStart": false, "tieEnd": false, "tieGroup": 0}, {"pitch": 70, "vel": 93, "dur": 0.25, "tieStart": false, "tieEnd": false, "tieGroup": 0}]}, {"start": 3.5, "dur": 0.5, "rest": true, "notes": []}]}, {"ts_num": 4, "ts_den": 4, "key_fifths": -4, "key_mode": 1, "clef": 0, "tempo": 104, "velocity": 100, "lyrics": "", "expr": [], "segs": [{"start": 0.0, "dur": 0.5, "rest": false, "notes": [{"pitch": 63, "vel": 94, "dur": 0.5, "tieStart": false, "tieEnd": false, "tieGroup": 0}, {"pitch": 68, "vel": 94, "dur": 0.5, "tieStart": false, "tieEnd": false, "tieGroup": 0}, {"pitch": 73, "vel": 94, "dur": 0.5, "tieStart": false, "tieEnd": false, "tieGroup": 0}, {"pitch": 77, "vel": 94, "dur": 0.5, "tieStart": false, "tieEnd": false, "tieGroup": 0}, {"pitch": 84, "vel": 94, "dur": 0.5, "tieStart": false, "tieEnd": false, "tieGroup": 0}]}, {"start": 0.5, "dur": 0.25, "rest": true, "notes": []}, {"start": 0.75, "dur": 0.25, "rest": false, "notes": [{"pitch": 77, "vel": 98, "dur": 0.25, "tieStart": false, "tieEnd": false, "tieGroup": 13}]}, {"start": 1.0, "dur": 0.5, "rest": true, "notes": []}, {"start": 1.5, "dur": 0.5, "rest": false, "notes": [{"pitch": 63, "vel": 92, "dur": 0.5, "tieStart": false, "tieEnd": false, "tieGroup": 14}, {"pitch": 68, "vel": 92, "dur": 0.5, "tieStart": false, "tieEnd": false, "tieGroup": 0}, {"pitch": 73, "vel": 92, "dur": 0.5, "tieStart": false, "tieEnd": false, "tieGroup": 0}, {"pitch": 77, "vel": 92, "dur": 0.5, "tieStart": false, "tieEnd": false, "tieGroup": 0}, {"pitch": 84, "vel": 92, "dur": 0.5, "tieStart": false, "tieEnd": false, "tieGroup": 0}]}, {"start": 2.0, "dur": 0.5, "rest": true, "notes": []}, {"start": 2.5, "dur": 0.25, "rest": false, "notes": [{"pitch": 84, "vel": 96, "dur": 0.25, "tieStart": false, "tieEnd": false, "tieGroup": 15}]}, {"start": 2.75, "dur": 0.25, "rest": true, "notes": []}, {"start": 3.0, "dur": 0.5, "rest": false, "notes": [{"pitch": 63, "vel": 95, "dur": 0.5, "tieStart": false, "tieEnd": false, "tieGroup": 16}, {"pitch": 68, "vel": 95, "dur": 0.5, "tieStart": false, "tieEnd": false, "tieGroup": 0}, {"pitch": 73, "vel": 95, "dur": 0.5, "tieStart": false, "tieEnd": false, "tieGroup": 0}, {"pitch": 77, "vel": 95, "dur": 0.5, "tieStart": false, "tieEnd": false, "tieGroup": 0}, {"pitch": 84, "vel": 95, "dur": 0.5, "tieStart": false, "tieEnd": false, "tieGroup": 0}]}, {"start": 3.5, "dur": 0.5, "rest": true, "notes": []}]}, {"ts_num": 4, "ts_den": 4, "key_fifths": -4, "key_mode": 1, "clef": 0, "tempo": 104, "velocity": 100, "lyrics": "", "expr": [], "segs": [{"start": 0.0, "dur": 0.75, "rest": false, "notes": [{"pitch": 65, "vel": 95, "dur": 0.75, "tieStart": false, "tieEnd": false, "tieGroup": 0}, {"pitch": 68, "vel": 95, "dur": 0.75, "tieStart": false, "tieEnd": false, "tieGroup": 0}, {"pitch": 72, "vel": 95, "dur": 0.75, "tieStart": false, "tieEnd": false, "tieGroup": 0}, {"pitch": 75, "vel": 95, "dur": 0.75, "tieStart": false, "tieEnd": false, "tieGroup": 0}, {"pitch": 79, "vel": 95, "dur": 0.75, "tieStart": false, "tieEnd": false, "tieGroup": 0}]}, {"start": 0.75, "dur": 0.5, "rest": true, "notes": []}, {"start": 1.25, "dur": 0.25, "rest": false, "notes": [{"pitch": 84, "vel": 99, "dur": 0.25, "tieStart": false, "tieEnd": false, "tieGroup": 17}]}, {"start": 1.5, "dur": 0.5, "rest": true, "notes": []}, {"start": 2.0, "dur": 0.5, "rest": false, "notes": [{"pitch": 65, "vel": 92, "dur": 0.5, "tieStart": false, "tieEnd": false, "tieGroup": 18}, {"pitch": 68, "vel": 92, "dur": 0.5, "tieStart": false, "tieEnd": false, "tieGroup": 0}, {"pitch": 72, "vel": 92, "dur": 0.5, "tieStart": false, "tieEnd": false, "tieGroup": 0}, {"pitch": 75, "vel": 92, "dur": 0.5, "tieStart": false, "tieEnd": false, "tieGroup": 0}, {"pitch": 79, "vel": 92, "dur": 0.5, "tieStart": false, "tieEnd": false, "tieGroup": 0}]}, {"start": 2.5, "dur": 0.25, "rest": true, "notes": []}, {"start": 2.75, "dur": 0.25, "rest": false, "notes": [{"pitch": 87, "vel": 97, "dur": 0.25, "tieStart": false, "tieEnd": false, "tieGroup": 19}]}, {"start": 3.0, "dur": 0.25, "rest": true, "notes": []}, {"start": 3.25, "dur": 0.25, "rest": false, "notes": [{"pitch": 65, "vel": 93, "dur": 0.25, "tieStart": false, "tieEnd": false, "tieGroup": 20}, {"pitch": 68, "vel": 93, "dur": 0.25, "tieStart": false, "tieEnd": false, "tieGroup": 0}, {"pitch": 72, "vel": 93, "dur": 0.25, "tieStart": false, "tieEnd": false, "tieGroup": 0}, {"pitch": 75, "vel": 93, "dur": 0.25, "tieStart": false, "tieEnd": false, "tieGroup": 0}, {"pitch": 79, "vel": 93, "dur": 0.25, "tieStart": false, "tieEnd": false, "tieGroup": 0}]}, {"start": 3.5, "dur": 0.5, "rest": true, "notes": []}]}, {"ts_num": 4, "ts_den": 4, "key_fifths": -4, "key_mode": 1, "clef": 0, "tempo": 104, "velocity": 100, "lyrics": "", "expr": [], "segs": [{"start": 0.0, "dur": 0.5, "rest": false, "notes": [{"pitch": 61, "vel": 94, "dur": 0.5, "tieStart": false, "tieEnd": false, "tieGroup": 0}, {"pitch": 65, "vel": 94, "dur": 0.5, "tieStart": false, "tieEnd": false, "tieGroup": 0}, {"pitch": 68, "vel": 94, "dur": 0.5, "tieStart": false, "tieEnd": false, "tieGroup": 0}, {"pitch": 72, "vel": 94, "dur": 0.5, "tieStart": false, "tieEnd": false, "tieGroup": 0}, {"pitch": 75, "vel": 94, "dur": 0.5, "tieStart": false, "tieEnd": false, "tieGroup": 0}]}, {"start": 0.5, "dur": 0.25, "rest": true, "notes": []}, {"start": 0.75, "dur": 0.25, "rest": false, "notes": [{"pitch": 80, "vel": 98, "dur": 0.25, "tieStart": false, "tieEnd": false, "tieGroup": 21}]}, {"start": 1.0, "dur": 0.5, "rest": true, "notes": []}, {"start": 1.5, "dur": 0.5, "rest": false, "notes": [{"pitch": 61, "vel": 92, "dur": 0.5, "tieStart": false, "tieEnd": false, "tieGroup": 22}, {"pitch": 65, "vel": 92, "dur": 0.5, "tieStart": false, "tieEnd": false, "tieGroup": 0}, {"pitch": 68, "vel": 92, "dur": 0.5, "tieStart": false, "tieEnd": false, "tieGroup": 0}, {"pitch": 72, "vel": 92, "dur": 0.5, "tieStart": false, "tieEnd": false, "tieGroup": 0}, {"pitch": 75, "vel": 92, "dur": 0.5, "tieStart": false, "tieEnd": false, "tieGroup": 0}]}, {"start": 2.0, "dur": 0.5, "rest": true, "notes": []}, {"start": 2.5, "dur": 0.25, "rest": false, "notes": [{"pitch": 77, "vel": 96, "dur": 0.25, "tieStart": false, "tieEnd": false, "tieGroup": 23}]}, {"start": 2.75, "dur": 0.25, "rest": true, "notes": []}, {"start": 3.0, "dur": 0.5, "rest": false, "notes": [{"pitch": 61, "vel": 95, "dur": 0.5, "tieStart": false, "tieEnd": false, "tieGroup": 24}, {"pitch": 65, "vel": 95, "dur": 0.5, "tieStart": false, "tieEnd": false, "tieGroup": 0}, {"pitch": 68, "vel": 95, "dur": 0.5, "tieStart": false, "tieEnd": false, "tieGroup": 0}, {"pitch": 72, "vel": 95, "dur": 0.5, "tieStart": false, "tieEnd": false, "tieGroup": 0}, {"pitch": 75, "vel": 95, "dur": 0.5, "tieStart": false, "tieEnd": false, "tieGroup": 0}]}, {"start": 3.5, "dur": 0.5, "rest": true, "notes": []}]}, {"ts_num": 4, "ts_den": 4, "key_fifths": -4, "key_mode": 1, "clef": 0, "tempo": 104, "velocity": 100, "lyrics": "", "expr": [], "segs": [{"start": 0.0, "dur": 0.25, "rest": false, "notes": [{"pitch": 77, "vel": 98, "dur": 0.25, "tieStart": false, "tieEnd": false, "tieGroup": 0}]}, {"start": 0.25, "dur": 0.25, "rest": true, "notes": []}, {"start": 0.5, "dur": 0.5, "rest": false, "notes": [{"pitch": 58, "vel": 93, "dur": 0.5, "tieStart": false, "tieEnd": false, "tieGroup": 25}, {"pitch": 61, "vel": 93, "dur": 0.5, "tieStart": false, "tieEnd": false, "tieGroup": 0}, {"pitch": 65, "vel": 93, "dur": 0.5, "tieStart": false, "tieEnd": false, "tieGroup": 0}, {"pitch": 68, "vel": 93, "dur": 0.5, "tieStart": false, "tieEnd": false, "tieGroup": 0}, {"pitch": 72, "vel": 93, "dur": 0.5, "tieStart": false, "tieEnd": false, "tieGroup": 0}]}, {"start": 1.0, "dur": 0.5, "rest": true, "notes": []}, {"start": 1.5, "dur": 0.5, "rest": false, "notes": [{"pitch": 58, "vel": 91, "dur": 0.5, "tieStart": false, "tieEnd": false, "tieGroup": 26}, {"pitch": 61, "vel": 91, "dur": 0.5, "tieStart": false, "tieEnd": false, "tieGroup": 0}, {"pitch": 65, "vel": 91, "dur": 0.5, "tieStart": false, "tieEnd": false, "tieGroup": 0}, {"pitch": 68, "vel": 91, "dur": 0.5, "tieStart": false, "tieEnd": false, "tieGroup": 0}, {"pitch": 72, "vel": 91, "dur": 0.5, "tieStart": false, "tieEnd": false, "tieGroup": 0}]}, {"start": 2.0, "dur": 1.0, "rest": true, "notes": []}, {"start": 3.0, "dur": 0.25, "rest": false, "notes": [{"pitch": 73, "vel": 97, "dur": 0.25, "tieStart": false, "tieEnd": false, "tieGroup": 27}]}, {"start": 3.25, "dur": 0.25, "rest": true, "notes": []}, {"start": 3.5, "dur": 0.25, "rest": false, "notes": [{"pitch": 58, "vel": 94, "dur": 0.25, "tieStart": false, "tieEnd": false, "tieGroup": 28}, {"pitch": 61, "vel": 94, "dur": 0.25, "tieStart": false, "tieEnd": false, "tieGroup": 0}, {"pitch": 65, "vel": 94, "dur": 0.25, "tieStart": false, "tieEnd": false, "tieGroup": 0}, {"pitch": 68, "vel": 94, "dur": 0.25, "tieStart": false, "tieEnd": false, "tieGroup": 0}, {"pitch": 72, "vel": 94, "dur": 0.25, "tieStart": false, "tieEnd": false, "tieGroup": 0}]}, {"start": 3.75, "dur": 0.25, "rest": true, "notes": []}]}, {"ts_num": 4, "ts_den": 4, "key_fifths": -4, "key_mode": 1, "clef": 0, "tempo": 104, "velocity": 100, "lyrics": "", "expr": [], "segs": [{"start": 0.0, "dur": 0.75, "rest": false, "notes": [{"pitch": 60, "vel": 95, "dur": 0.75, "tieStart": false, "tieEnd": false, "tieGroup": 0}, {"pitch": 64, "vel": 95, "dur": 0.75, "tieStart": false, "tieEnd": false, "tieGroup": 0}, {"pitch": 70, "vel": 95, "dur": 0.75, "tieStart": false, "tieEnd": false, "tieGroup": 0}, {"pitch": 73, "vel": 95, "dur": 0.75, "tieStart": false, "tieEnd": false, "tieGroup": 0}, {"pitch": 80, "vel": 95, "dur": 0.75, "tieStart": false, "tieEnd": false, "tieGroup": 0}]}, {"start": 0.75, "dur": 0.5, "rest": true, "notes": []}, {"start": 1.25, "dur": 0.25, "rest": false, "notes": [{"pitch": 76, "vel": 99, "dur": 0.25, "tieStart": false, "tieEnd": false, "tieGroup": 29}]}, {"start": 1.5, "dur": 0.5, "rest": true, "notes": []}, {"start": 2.0, "dur": 0.5, "rest": false, "notes": [{"pitch": 60, "vel": 92, "dur": 0.5, "tieStart": false, "tieEnd": false, "tieGroup": 30}, {"pitch": 64, "vel": 92, "dur": 0.5, "tieStart": false, "tieEnd": false, "tieGroup": 0}, {"pitch": 70, "vel": 92, "dur": 0.5, "tieStart": false, "tieEnd": false, "tieGroup": 0}, {"pitch": 73, "vel": 92, "dur": 0.5, "tieStart": false, "tieEnd": false, "tieGroup": 0}, {"pitch": 80, "vel": 92, "dur": 0.5, "tieStart": false, "tieEnd": false, "tieGroup": 0}]}, {"start": 2.5, "dur": 0.25, "rest": true, "notes": []}, {"start": 2.75, "dur": 0.25, "rest": false, "notes": [{"pitch": 73, "vel": 97, "dur": 0.25, "tieStart": false, "tieEnd": false, "tieGroup": 31}]}, {"start": 3.0, "dur": 0.25, "rest": true, "notes": []}, {"start": 3.25, "dur": 0.25, "rest": false, "notes": [{"pitch": 60, "vel": 93, "dur": 0.25, "tieStart": false, "tieEnd": false, "tieGroup": 32}, {"pitch": 64, "vel": 93, "dur": 0.25, "tieStart": false, "tieEnd": false, "tieGroup": 0}, {"pitch": 70, "vel": 93, "dur": 0.25, "tieStart": false, "tieEnd": false, "tieGroup": 0}, {"pitch": 73, "vel": 93, "dur": 0.25, "tieStart": false, "tieEnd": false, "tieGroup": 0}, {"pitch": 80, "vel": 93, "dur": 0.25, "tieStart": false, "tieEnd": false, "tieGroup": 0}]}, {"start": 3.5, "dur": 0.5, "rest": true, "notes": []}]}, {"ts_num": 4, "ts_den": 4, "key_fifths": -4, "key_mode": 1, "clef": 0, "tempo": 104, "velocity": 100, "lyrics": "", "expr": [], "segs": [{"start": 0.0, "dur": 0.5, "rest": false, "notes": [{"pitch": 56, "vel": 94, "dur": 0.5, "tieStart": false, "tieEnd": false, "tieGroup": 0}, {"pitch": 60, "vel": 94, "dur": 0.5, "tieStart": false, "tieEnd": false, "tieGroup": 0}, {"pitch": 63, "vel": 94, "dur": 0.5, "tieStart": false, "tieEnd": false, "tieGroup": 0}, {"pitch": 67, "vel": 94, "dur": 0.5, "tieStart": false, "tieEnd": false, "tieGroup": 0}, {"pitch": 70, "vel": 94, "dur": 0.5, "tieStart": false, "tieEnd": false, "tieGroup": 0}]}, {"start": 0.5, "dur": 0.25, "rest": true, "notes": []}, {"start": 0.75, "dur": 0.25, "rest": false, "notes": [{"pitch": 79, "vel": 98, "dur": 0.25, "tieStart": false, "tieEnd": false, "tieGroup": 33}]}, {"start": 1.0, "dur": 0.5, "rest": true, "notes": []}, {"start": 1.5, "dur": 0.5, "rest": false, "notes": [{"pitch": 56, "vel": 92, "dur": 0.5, "tieStart": false, "tieEnd": false, "tieGroup": 34}, {"pitch": 60, "vel": 92, "dur": 0.5, "tieStart": false, "tieEnd": false, "tieGroup": 0}, {"pitch": 63, "vel": 92, "dur": 0.5, "tieStart": false, "tieEnd": false, "tieGroup": 0}, {"pitch": 67, "vel": 92, "dur": 0.5, "tieStart": false, "tieEnd": false, "tieGroup": 0}, {"pitch": 70, "vel": 92, "dur": 0.5, "tieStart": false, "tieEnd": false, "tieGroup": 0}]}, {"start": 2.0, "dur": 0.5, "rest": true, "notes": []}, {"start": 2.5, "dur": 0.25, "rest": false, "notes": [{"pitch": 82, "vel": 96, "dur": 0.25, "tieStart": false, "tieEnd": false, "tieGroup": 35}]}, {"start": 2.75, "dur": 0.25, "rest": true, "notes": []}, {"start": 3.0, "dur": 0.5, "rest": false, "notes": [{"pitch": 56, "vel": 95, "dur": 0.5, "tieStart": false, "tieEnd": false, "tieGroup": 36}, {"pitch": 60, "vel": 95, "dur": 0.5, "tieStart": false, "tieEnd": false, "tieGroup": 0}, {"pitch": 63, "vel": 95, "dur": 0.5, "tieStart": false, "tieEnd": false, "tieGroup": 0}, {"pitch": 67, "vel": 95, "dur": 0.5, "tieStart": false, "tieEnd": false, "tieGroup": 0}, {"pitch": 70, "vel": 95, "dur": 0.5, "tieStart": false, "tieEnd": false, "tieGroup": 0}]}, {"start": 3.5, "dur": 0.5, "rest": true, "notes": []}]}, {"ts_num": 4, "ts_den": 4, "key_fifths": -4, "key_mode": 1, "clef": 0, "tempo": 104, "velocity": 100, "lyrics": "", "expr": [], "segs": [{"start": 0.0, "dur": 0.25, "rest": false, "notes": [{"pitch": 77, "vel": 98, "dur": 0.25, "tieStart": false, "tieEnd": false, "tieGroup": 0}]}, {"start": 0.25, "dur": 0.25, "rest": true, "notes": []}, {"start": 0.5, "dur": 0.5, "rest": false, "notes": [{"pitch": 63, "vel": 93, "dur": 0.5, "tieStart": false, "tieEnd": false, "tieGroup": 37}, {"pitch": 68, "vel": 93, "dur": 0.5, "tieStart": false, "tieEnd": false, "tieGroup": 0}, {"pitch": 73, "vel": 93, "dur": 0.5, "tieStart": false, "tieEnd": false, "tieGroup": 0}, {"pitch": 77, "vel": 93, "dur": 0.5, "tieStart": false, "tieEnd": false, "tieGroup": 0}, {"pitch": 84, "vel": 93, "dur": 0.5, "tieStart": false, "tieEnd": false, "tieGroup": 0}]}, {"start": 1.0, "dur": 0.5, "rest": true, "notes": []}, {"start": 1.5, "dur": 0.5, "rest": false, "notes": [{"pitch": 63, "vel": 91, "dur": 0.5, "tieStart": false, "tieEnd": false, "tieGroup": 38}, {"pitch": 68, "vel": 91, "dur": 0.5, "tieStart": false, "tieEnd": false, "tieGroup": 0}, {"pitch": 73, "vel": 91, "dur": 0.5, "tieStart": false, "tieEnd": false, "tieGroup": 0}, {"pitch": 77, "vel": 91, "dur": 0.5, "tieStart": false, "tieEnd": false, "tieGroup": 0}, {"pitch": 84, "vel": 91, "dur": 0.5, "tieStart": false, "tieEnd": false, "tieGroup": 0}]}, {"start": 2.0, "dur": 1.0, "rest": true, "notes": []}, {"start": 3.0, "dur": 0.25, "rest": false, "notes": [{"pitch": 84, "vel": 97, "dur": 0.25, "tieStart": false, "tieEnd": false, "tieGroup": 39}]}, {"start": 3.25, "dur": 0.25, "rest": true, "notes": []}, {"start": 3.5, "dur": 0.25, "rest": false, "notes": [{"pitch": 63, "vel": 94, "dur": 0.25, "tieStart": false, "tieEnd": false, "tieGroup": 40}, {"pitch": 68, "vel": 94, "dur": 0.25, "tieStart": false, "tieEnd": false, "tieGroup": 0}, {"pitch": 73, "vel": 94, "dur": 0.25, "tieStart": false, "tieEnd": false, "tieGroup": 0}, {"pitch": 77, "vel": 94, "dur": 0.25, "tieStart": false, "tieEnd": false, "tieGroup": 0}, {"pitch": 84, "vel": 94, "dur": 0.25, "tieStart": false, "tieEnd": false, "tieGroup": 0}]}, {"start": 3.75, "dur": 0.25, "rest": true, "notes": []}]}, {"ts_num": 4, "ts_den": 4, "key_fifths": -4, "key_mode": 1, "clef": 0, "tempo": 104, "velocity": 100, "lyrics": "", "expr": [], "segs": [{"start": 0.0, "dur": 0.5, "rest": false, "notes": [{"pitch": 58, "vel": 94, "dur": 0.5, "tieStart": false, "tieEnd": false, "tieGroup": 0}, {"pitch": 61, "vel": 94, "dur": 0.5, "tieStart": false, "tieEnd": false, "tieGroup": 0}, {"pitch": 65, "vel": 94, "dur": 0.5, "tieStart": false, "tieEnd": false, "tieGroup": 0}, {"pitch": 68, "vel": 94, "dur": 0.5, "tieStart": false, "tieEnd": false, "tieGroup": 0}, {"pitch": 72, "vel": 94, "dur": 0.5, "tieStart": false, "tieEnd": false, "tieGroup": 0}]}, {"start": 0.5, "dur": 0.25, "rest": true, "notes": []}, {"start": 0.75, "dur": 0.25, "rest": false, "notes": [{"pitch": 77, "vel": 98, "dur": 0.25, "tieStart": false, "tieEnd": false, "tieGroup": 41}]}, {"start": 1.0, "dur": 0.5, "rest": true, "notes": []}, {"start": 1.5, "dur": 0.5, "rest": false, "notes": [{"pitch": 58, "vel": 92, "dur": 0.5, "tieStart": false, "tieEnd": false, "tieGroup": 42}, {"pitch": 61, "vel": 92, "dur": 0.5, "tieStart": false, "tieEnd": false, "tieGroup": 0}, {"pitch": 65, "vel": 92, "dur": 0.5, "tieStart": false, "tieEnd": false, "tieGroup": 0}, {"pitch": 68, "vel": 92, "dur": 0.5, "tieStart": false, "tieEnd": false, "tieGroup": 0}, {"pitch": 72, "vel": 92, "dur": 0.5, "tieStart": false, "tieEnd": false, "tieGroup": 0}]}, {"start": 2.0, "dur": 0.5, "rest": true, "notes": []}, {"start": 2.5, "dur": 0.25, "rest": false, "notes": [{"pitch": 73, "vel": 96, "dur": 0.25, "tieStart": false, "tieEnd": false, "tieGroup": 43}]}, {"start": 2.75, "dur": 0.25, "rest": true, "notes": []}, {"start": 3.0, "dur": 0.5, "rest": false, "notes": [{"pitch": 58, "vel": 95, "dur": 0.5, "tieStart": false, "tieEnd": false, "tieGroup": 44}, {"pitch": 61, "vel": 95, "dur": 0.5, "tieStart": false, "tieEnd": false, "tieGroup": 0}, {"pitch": 65, "vel": 95, "dur": 0.5, "tieStart": false, "tieEnd": false, "tieGroup": 0}, {"pitch": 68, "vel": 95, "dur": 0.5, "tieStart": false, "tieEnd": false, "tieGroup": 0}, {"pitch": 72, "vel": 95, "dur": 0.5, "tieStart": false, "tieEnd": false, "tieGroup": 0}]}, {"start": 3.5, "dur": 0.5, "rest": true, "notes": []}]}, {"ts_num": 4, "ts_den": 4, "key_fifths": -4, "key_mode": 1, "clef": 0, "tempo": 104, "velocity": 100, "lyrics": "", "expr": [], "segs": [{"start": 0.0, "dur": 0.75, "rest": false, "notes": [{"pitch": 60, "vel": 95, "dur": 0.75, "tieStart": false, "tieEnd": false, "tieGroup": 0}, {"pitch": 64, "vel": 95, "dur": 0.75, "tieStart": false, "tieEnd": false, "tieGroup": 0}, {"pitch": 70, "vel": 95, "dur": 0.75, "tieStart": false, "tieEnd": false, "tieGroup": 0}, {"pitch": 73, "vel": 95, "dur": 0.75, "tieStart": false, "tieEnd": false, "tieGroup": 0}, {"pitch": 80, "vel": 95, "dur": 0.75, "tieStart": false, "tieEnd": false, "tieGroup": 0}]}, {"start": 0.75, "dur": 0.5, "rest": true, "notes": []}, {"start": 1.25, "dur": 0.25, "rest": false, "notes": [{"pitch": 76, "vel": 99, "dur": 0.25, "tieStart": false, "tieEnd": false, "tieGroup": 45}]}, {"start": 1.5, "dur": 0.5, "rest": true, "notes": []}, {"start": 2.0, "dur": 0.5, "rest": false, "notes": [{"pitch": 60, "vel": 92, "dur": 0.5, "tieStart": false, "tieEnd": false, "tieGroup": 46}, {"pitch": 64, "vel": 92, "dur": 0.5, "tieStart": false, "tieEnd": false, "tieGroup": 0}, {"pitch": 70, "vel": 92, "dur": 0.5, "tieStart": false, "tieEnd": false, "tieGroup": 0}, {"pitch": 73, "vel": 92, "dur": 0.5, "tieStart": false, "tieEnd": false, "tieGroup": 0}, {"pitch": 80, "vel": 92, "dur": 0.5, "tieStart": false, "tieEnd": false, "tieGroup": 0}]}, {"start": 2.5, "dur": 0.25, "rest": true, "notes": []}, {"start": 2.75, "dur": 0.25, "rest": false, "notes": [{"pitch": 73, "vel": 97, "dur": 0.25, "tieStart": false, "tieEnd": false, "tieGroup": 47}]}, {"start": 3.0, "dur": 0.25, "rest": true, "notes": []}, {"start": 3.25, "dur": 0.25, "rest": false, "notes": [{"pitch": 60, "vel": 93, "dur": 0.25, "tieStart": false, "tieEnd": false, "tieGroup": 48}, {"pitch": 64, "vel": 93, "dur": 0.25, "tieStart": false, "tieEnd": false, "tieGroup": 0}, {"pitch": 70, "vel": 93, "dur": 0.25, "tieStart": false, "tieEnd": false, "tieGroup": 0}, {"pitch": 73, "vel": 93, "dur": 0.25, "tieStart": false, "tieEnd": false, "tieGroup": 0}, {"pitch": 80, "vel": 93, "dur": 0.25, "tieStart": false, "tieEnd": false, "tieGroup": 0}]}, {"start": 3.5, "dur": 0.5, "rest": true, "notes": []}]}, {"ts_num": 4, "ts_den": 4, "key_fifths": -4, "key_mode": 1, "clef": 0, "tempo": 104, "velocity": 100, "lyrics": "", "expr": [], "segs": [{"start": 0.0, "dur": 0.5, "rest": false, "notes": [{"pitch": 65, "vel": 94, "dur": 0.5, "tieStart": false, "tieEnd": false, "tieGroup": 0}, {"pitch": 68, "vel": 94, "dur": 0.5, "tieStart": false, "tieEnd": false, "tieGroup": 0}, {"pitch": 72, "vel": 94, "dur": 0.5, "tieStart": false, "tieEnd": false, "tieGroup": 0}, {"pitch": 75, "vel": 94, "dur": 0.5, "tieStart": false, "tieEnd": false, "tieGroup": 0}, {"pitch": 79, "vel": 94, "dur": 0.5, "tieStart": false, "tieEnd": false, "tieGroup": 0}]}, {"start": 0.5, "dur": 0.25, "rest": true, "notes": []}, {"start": 0.75, "dur": 0.25, "rest": false, "notes": [{"pitch": 84, "vel": 98, "dur": 0.25, "tieStart": false, "tieEnd": false, "tieGroup": 49}]}, {"start": 1.0, "dur": 0.5, "rest": true, "notes": []}, {"start": 1.5, "dur": 0.5, "rest": false, "notes": [{"pitch": 65, "vel": 92, "dur": 0.5, "tieStart": false, "tieEnd": false, "tieGroup": 50}, {"pitch": 68, "vel": 92, "dur": 0.5, "tieStart": false, "tieEnd": false, "tieGroup": 0}, {"pitch": 72, "vel": 92, "dur": 0.5, "tieStart": false, "tieEnd": false, "tieGroup": 0}, {"pitch": 75, "vel": 92, "dur": 0.5, "tieStart": false, "tieEnd": false, "tieGroup": 0}, {"pitch": 79, "vel": 92, "dur": 0.5, "tieStart": false, "tieEnd": false, "tieGroup": 0}]}, {"start": 2.0, "dur": 0.5, "rest": true, "notes": []}, {"start": 2.5, "dur": 0.25, "rest": false, "notes": [{"pitch": 87, "vel": 96, "dur": 0.25, "tieStart": false, "tieEnd": false, "tieGroup": 51}]}, {"start": 2.75, "dur": 0.25, "rest": true, "notes": []}, {"start": 3.0, "dur": 0.5, "rest": false, "notes": [{"pitch": 65, "vel": 95, "dur": 0.5, "tieStart": false, "tieEnd": false, "tieGroup": 52}, {"pitch": 68, "vel": 95, "dur": 0.5, "tieStart": false, "tieEnd": false, "tieGroup": 0}, {"pitch": 72, "vel": 95, "dur": 0.5, "tieStart": false, "tieEnd": false, "tieGroup": 0}, {"pitch": 75, "vel": 95, "dur": 0.5, "tieStart": false, "tieEnd": false, "tieGroup": 0}, {"pitch": 79, "vel": 95, "dur": 0.5, "tieStart": false, "tieEnd": false, "tieGroup": 0}]}, {"start": 3.5, "dur": 0.5, "rest": true, "notes": []}]}, {"ts_num": 4, "ts_den": 4, "key_fifths": -4, "key_mode": 1, "clef": 0, "tempo": 104, "velocity": 100, "lyrics": "", "expr": [], "segs": [{"start": 0.0, "dur": 0.5, "rest": false, "notes": [{"pitch": 61, "vel": 94, "dur": 0.5, "tieStart": false, "tieEnd": false, "tieGroup": 0}, {"pitch": 65, "vel": 94, "dur": 0.5, "tieStart": false, "tieEnd": false, "tieGroup": 0}, {"pitch": 68, "vel": 94, "dur": 0.5, "tieStart": false, "tieEnd": false, "tieGroup": 0}, {"pitch": 72, "vel": 94, "dur": 0.5, "tieStart": false, "tieEnd": false, "tieGroup": 0}, {"pitch": 75, "vel": 94, "dur": 0.5, "tieStart": false, "tieEnd": false, "tieGroup": 0}]}, {"start": 0.5, "dur": 0.25, "rest": true, "notes": []}, {"start": 0.75, "dur": 0.25, "rest": false, "notes": [{"pitch": 80, "vel": 98, "dur": 0.25, "tieStart": false, "tieEnd": false, "tieGroup": 53}]}, {"start": 1.0, "dur": 0.5, "rest": true, "notes": []}, {"start": 1.5, "dur": 0.5, "rest": false, "notes": [{"pitch": 61, "vel": 92, "dur": 0.5, "tieStart": false, "tieEnd": false, "tieGroup": 54}, {"pitch": 65, "vel": 92, "dur": 0.5, "tieStart": false, "tieEnd": false, "tieGroup": 0}, {"pitch": 68, "vel": 92, "dur": 0.5, "tieStart": false, "tieEnd": false, "tieGroup": 0}, {"pitch": 72, "vel": 92, "dur": 0.5, "tieStart": false, "tieEnd": false, "tieGroup": 0}, {"pitch": 75, "vel": 92, "dur": 0.5, "tieStart": false, "tieEnd": false, "tieGroup": 0}]}, {"start": 2.0, "dur": 0.5, "rest": true, "notes": []}, {"start": 2.5, "dur": 0.25, "rest": false, "notes": [{"pitch": 77, "vel": 96, "dur": 0.25, "tieStart": false, "tieEnd": false, "tieGroup": 55}]}, {"start": 2.75, "dur": 0.25, "rest": true, "notes": []}, {"start": 3.0, "dur": 0.5, "rest": false, "notes": [{"pitch": 61, "vel": 95, "dur": 0.5, "tieStart": false, "tieEnd": false, "tieGroup": 56}, {"pitch": 65, "vel": 95, "dur": 0.5, "tieStart": false, "tieEnd": false, "tieGroup": 0}, {"pitch": 68, "vel": 95, "dur": 0.5, "tieStart": false, "tieEnd": false, "tieGroup": 0}, {"pitch": 72, "vel": 95, "dur": 0.5, "tieStart": false, "tieEnd": false, "tieGroup": 0}, {"pitch": 75, "vel": 95, "dur": 0.5, "tieStart": false, "tieEnd": false, "tieGroup": 0}]}, {"start": 3.5, "dur": 0.5, "rest": true, "notes": []}]}, {"ts_num": 4, "ts_den": 4, "key_fifths": -4, "key_mode": 1, "clef": 0, "tempo": 104, "velocity": 100, "lyrics": "", "expr": [], "segs": [{"start": 0.0, "dur": 0.75, "rest": false, "notes": [{"pitch": 56, "vel": 95, "dur": 0.75, "tieStart": false, "tieEnd": false, "tieGroup": 0}, {"pitch": 60, "vel": 95, "dur": 0.75, "tieStart": false, "tieEnd": false, "tieGroup": 0}, {"pitch": 63, "vel": 95, "dur": 0.75, "tieStart": false, "tieEnd": false, "tieGroup": 0}, {"pitch": 67, "vel": 95, "dur": 0.75, "tieStart": false, "tieEnd": false, "tieGroup": 0}, {"pitch": 70, "vel": 95, "dur": 0.75, "tieStart": false, "tieEnd": false, "tieGroup": 0}]}, {"start": 0.75, "dur": 0.5, "rest": true, "notes": []}, {"start": 1.25, "dur": 0.25, "rest": false, "notes": [{"pitch": 79, "vel": 99, "dur": 0.25, "tieStart": false, "tieEnd": false, "tieGroup": 57}]}, {"start": 1.5, "dur": 0.5, "rest": true, "notes": []}, {"start": 2.0, "dur": 0.5, "rest": false, "notes": [{"pitch": 56, "vel": 92, "dur": 0.5, "tieStart": false, "tieEnd": false, "tieGroup": 58}, {"pitch": 60, "vel": 92, "dur": 0.5, "tieStart": false, "tieEnd": false, "tieGroup": 0}, {"pitch": 63, "vel": 92, "dur": 0.5, "tieStart": false, "tieEnd": false, "tieGroup": 0}, {"pitch": 67, "vel": 92, "dur": 0.5, "tieStart": false, "tieEnd": false, "tieGroup": 0}, {"pitch": 70, "vel": 92, "dur": 0.5, "tieStart": false, "tieEnd": false, "tieGroup": 0}]}, {"start": 2.5, "dur": 0.25, "rest": true, "notes": []}, {"start": 2.75, "dur": 0.25, "rest": false, "notes": [{"pitch": 82, "vel": 97, "dur": 0.25, "tieStart": false, "tieEnd": false, "tieGroup": 59}]}, {"start": 3.0, "dur": 0.25, "rest": true, "notes": []}, {"start": 3.25, "dur": 0.25, "rest": false, "notes": [{"pitch": 56, "vel": 93, "dur": 0.25, "tieStart": false, "tieEnd": false, "tieGroup": 60}, {"pitch": 60, "vel": 93, "dur": 0.25, "tieStart": false, "tieEnd": false, "tieGroup": 0}, {"pitch": 63, "vel": 93, "dur": 0.25, "tieStart": false, "tieEnd": false, "tieGroup": 0}, {"pitch": 67, "vel": 93, "dur": 0.25, "tieStart": false, "tieEnd": false, "tieGroup": 0}, {"pitch": 70, "vel": 93, "dur": 0.25, "tieStart": false, "tieEnd": false, "tieGroup": 0}]}, {"start": 3.5, "dur": 0.5, "rest": true, "notes": []}]}, {"ts_num": 4, "ts_den": 4, "key_fifths": -4, "key_mode": 1, "clef": 0, "tempo": 104, "velocity": 100, "lyrics": "", "expr": [], "segs": [{"start": 0.0, "dur": 0.5, "rest": false, "notes": [{"pitch": 63, "vel": 94, "dur": 0.5, "tieStart": false, "tieEnd": false, "tieGroup": 0}, {"pitch": 68, "vel": 94, "dur": 0.5, "tieStart": false, "tieEnd": false, "tieGroup": 0}, {"pitch": 73, "vel": 94, "dur": 0.5, "tieStart": false, "tieEnd": false, "tieGroup": 0}, {"pitch": 77, "vel": 94, "dur": 0.5, "tieStart": false, "tieEnd": false, "tieGroup": 0}, {"pitch": 84, "vel": 94, "dur": 0.5, "tieStart": false, "tieEnd": false, "tieGroup": 0}]}, {"start": 0.5, "dur": 0.25, "rest": true, "notes": []}, {"start": 0.75, "dur": 0.25, "rest": false, "notes": [{"pitch": 77, "vel": 98, "dur": 0.25, "tieStart": false, "tieEnd": false, "tieGroup": 61}]}, {"start": 1.0, "dur": 0.5, "rest": true, "notes": []}, {"start": 1.5, "dur": 0.5, "rest": false, "notes": [{"pitch": 63, "vel": 92, "dur": 0.5, "tieStart": false, "tieEnd": false, "tieGroup": 62}, {"pitch": 68, "vel": 92, "dur": 0.5, "tieStart": false, "tieEnd": false, "tieGroup": 0}, {"pitch": 73, "vel": 92, "dur": 0.5, "tieStart": false, "tieEnd": false, "tieGroup": 0}, {"pitch": 77, "vel": 92, "dur": 0.5, "tieStart": false, "tieEnd": false, "tieGroup": 0}, {"pitch": 84, "vel": 92, "dur": 0.5, "tieStart": false, "tieEnd": false, "tieGroup": 0}]}, {"start": 2.0, "dur": 0.5, "rest": true, "notes": []}, {"start": 2.5, "dur": 0.25, "rest": false, "notes": [{"pitch": 84, "vel": 96, "dur": 0.25, "tieStart": false, "tieEnd": false, "tieGroup": 63}]}, {"start": 2.75, "dur": 0.25, "rest": true, "notes": []}, {"start": 3.0, "dur": 0.5, "rest": false, "notes": [{"pitch": 63, "vel": 95, "dur": 0.5, "tieStart": false, "tieEnd": false, "tieGroup": 64}, {"pitch": 68, "vel": 95, "dur": 0.5, "tieStart": false, "tieEnd": false, "tieGroup": 0}, {"pitch": 73, "vel": 95, "dur": 0.5, "tieStart": false, "tieEnd": false, "tieGroup": 0}, {"pitch": 77, "vel": 95, "dur": 0.5, "tieStart": false, "tieEnd": false, "tieGroup": 0}, {"pitch": 84, "vel": 95, "dur": 0.5, "tieStart": false, "tieEnd": false, "tieGroup": 0}]}, {"start": 3.5, "dur": 0.5, "rest": true, "notes": []}]}, {"ts_num": 4, "ts_den": 4, "key_fifths": -4, "key_mode": 1, "clef": 0, "tempo": 104, "velocity": 100, "lyrics": "", "expr": [], "segs": [{"start": 0.0, "dur": 0.25, "rest": false, "notes": [{"pitch": 77, "vel": 98, "dur": 0.25, "tieStart": false, "tieEnd": false, "tieGroup": 0}]}, {"start": 0.25, "dur": 0.25, "rest": true, "notes": []}, {"start": 0.5, "dur": 0.5, "rest": false, "notes": [{"pitch": 58, "vel": 93, "dur": 0.5, "tieStart": false, "tieEnd": false, "tieGroup": 65}, {"pitch": 61, "vel": 93, "dur": 0.5, "tieStart": false, "tieEnd": false, "tieGroup": 0}, {"pitch": 65, "vel": 93, "dur": 0.5, "tieStart": false, "tieEnd": false, "tieGroup": 0}, {"pitch": 68, "vel": 93, "dur": 0.5, "tieStart": false, "tieEnd": false, "tieGroup": 0}, {"pitch": 72, "vel": 93, "dur": 0.5, "tieStart": false, "tieEnd": false, "tieGroup": 0}]}, {"start": 1.0, "dur": 0.5, "rest": true, "notes": []}, {"start": 1.5, "dur": 0.5, "rest": false, "notes": [{"pitch": 58, "vel": 91, "dur": 0.5, "tieStart": false, "tieEnd": false, "tieGroup": 66}, {"pitch": 61, "vel": 91, "dur": 0.5, "tieStart": false, "tieEnd": false, "tieGroup": 0}, {"pitch": 65, "vel": 91, "dur": 0.5, "tieStart": false, "tieEnd": false, "tieGroup": 0}, {"pitch": 68, "vel": 91, "dur": 0.5, "tieStart": false, "tieEnd": false, "tieGroup": 0}, {"pitch": 72, "vel": 91, "dur": 0.5, "tieStart": false, "tieEnd": false, "tieGroup": 0}]}, {"start": 2.0, "dur": 1.0, "rest": true, "notes": []}, {"start": 3.0, "dur": 0.25, "rest": false, "notes": [{"pitch": 73, "vel": 97, "dur": 0.25, "tieStart": false, "tieEnd": false, "tieGroup": 67}]}, {"start": 3.25, "dur": 0.25, "rest": true, "notes": []}, {"start": 3.5, "dur": 0.25, "rest": false, "notes": [{"pitch": 58, "vel": 94, "dur": 0.25, "tieStart": false, "tieEnd": false, "tieGroup": 68}, {"pitch": 61, "vel": 94, "dur": 0.25, "tieStart": false, "tieEnd": false, "tieGroup": 0}, {"pitch": 65, "vel": 94, "dur": 0.25, "tieStart": false, "tieEnd": false, "tieGroup": 0}, {"pitch": 68, "vel": 94, "dur": 0.25, "tieStart": false, "tieEnd": false, "tieGroup": 0}, {"pitch": 72, "vel": 94, "dur": 0.25, "tieStart": false, "tieEnd": false, "tieGroup": 0}]}, {"start": 3.75, "dur": 0.25, "rest": true, "notes": []}]}, {"ts_num": 4, "ts_den": 4, "key_fifths": -4, "key_mode": 1, "clef": 0, "tempo": 104, "velocity": 100, "lyrics": "", "expr": [], "segs": [{"start": 0.0, "dur": 0.75, "rest": false, "notes": [{"pitch": 60, "vel": 95, "dur": 0.75, "tieStart": false, "tieEnd": false, "tieGroup": 0}, {"pitch": 64, "vel": 95, "dur": 0.75, "tieStart": false, "tieEnd": false, "tieGroup": 0}, {"pitch": 70, "vel": 95, "dur": 0.75, "tieStart": false, "tieEnd": false, "tieGroup": 0}, {"pitch": 73, "vel": 95, "dur": 0.75, "tieStart": false, "tieEnd": false, "tieGroup": 0}, {"pitch": 80, "vel": 95, "dur": 0.75, "tieStart": false, "tieEnd": false, "tieGroup": 0}]}, {"start": 0.75, "dur": 0.5, "rest": true, "notes": []}, {"start": 1.25, "dur": 0.25, "rest": false, "notes": [{"pitch": 76, "vel": 99, "dur": 0.25, "tieStart": false, "tieEnd": false, "tieGroup": 69}]}, {"start": 1.5, "dur": 0.5, "rest": true, "notes": []}, {"start": 2.0, "dur": 0.5, "rest": false, "notes": [{"pitch": 60, "vel": 92, "dur": 0.5, "tieStart": false, "tieEnd": false, "tieGroup": 70}, {"pitch": 64, "vel": 92, "dur": 0.5, "tieStart": false, "tieEnd": false, "tieGroup": 0}, {"pitch": 70, "vel": 92, "dur": 0.5, "tieStart": false, "tieEnd": false, "tieGroup": 0}, {"pitch": 73, "vel": 92, "dur": 0.5, "tieStart": false, "tieEnd": false, "tieGroup": 0}, {"pitch": 80, "vel": 92, "dur": 0.5, "tieStart": false, "tieEnd": false, "tieGroup": 0}]}, {"start": 2.5, "dur": 0.25, "rest": true, "notes": []}, {"start": 2.75, "dur": 0.25, "rest": false, "notes": [{"pitch": 73, "vel": 97, "dur": 0.25, "tieStart": false, "tieEnd": false, "tieGroup": 71}]}, {"start": 3.0, "dur": 0.25, "rest": true, "notes": []}, {"start": 3.25, "dur": 0.25, "rest": false, "notes": [{"pitch": 60, "vel": 93, "dur": 0.25, "tieStart": false, "tieEnd": false, "tieGroup": 72}, {"pitch": 64, "vel": 93, "dur": 0.25, "tieStart": false, "tieEnd": false, "tieGroup": 0}, {"pitch": 70, "vel": 93, "dur": 0.25, "tieStart": false, "tieEnd": false, "tieGroup": 0}, {"pitch": 73, "vel": 93, "dur": 0.25, "tieStart": false, "tieEnd": false, "tieGroup": 0}, {"pitch": 80, "vel": 93, "dur": 0.25, "tieStart": false, "tieEnd": false, "tieGroup": 0}]}, {"start": 3.5, "dur": 0.5, "rest": true, "notes": []}]}, {"ts_num": 4, "ts_den": 4, "key_fifths": -4, "key_mode": 1, "clef": 0, "tempo": 104, "velocity": 100, "lyrics": "", "expr": [], "segs": [{"start": 0.0, "dur": 0.5, "rest": false, "notes": [{"pitch": 65, "vel": 94, "dur": 0.5, "tieStart": false, "tieEnd": false, "tieGroup": 0}, {"pitch": 68, "vel": 94, "dur": 0.5, "tieStart": false, "tieEnd": false, "tieGroup": 0}, {"pitch": 72, "vel": 94, "dur": 0.5, "tieStart": false, "tieEnd": false, "tieGroup": 0}, {"pitch": 75, "vel": 94, "dur": 0.5, "tieStart": false, "tieEnd": false, "tieGroup": 0}, {"pitch": 79, "vel": 94, "dur": 0.5, "tieStart": false, "tieEnd": false, "tieGroup": 0}]}, {"start": 0.5, "dur": 0.25, "rest": true, "notes": []}, {"start": 0.75, "dur": 0.25, "rest": false, "notes": [{"pitch": 84, "vel": 98, "dur": 0.25, "tieStart": false, "tieEnd": false, "tieGroup": 73}]}, {"start": 1.0, "dur": 0.5, "rest": true, "notes": []}, {"start": 1.5, "dur": 0.5, "rest": false, "notes": [{"pitch": 65, "vel": 92, "dur": 0.5, "tieStart": false, "tieEnd": false, "tieGroup": 74}, {"pitch": 68, "vel": 92, "dur": 0.5, "tieStart": false, "tieEnd": false, "tieGroup": 0}, {"pitch": 72, "vel": 92, "dur": 0.5, "tieStart": false, "tieEnd": false, "tieGroup": 0}, {"pitch": 75, "vel": 92, "dur": 0.5, "tieStart": false, "tieEnd": false, "tieGroup": 0}, {"pitch": 79, "vel": 92, "dur": 0.5, "tieStart": false, "tieEnd": false, "tieGroup": 0}]}, {"start": 2.0, "dur": 0.5, "rest": true, "notes": []}, {"start": 2.5, "dur": 0.25, "rest": false, "notes": [{"pitch": 87, "vel": 96, "dur": 0.25, "tieStart": false, "tieEnd": false, "tieGroup": 75}]}, {"start": 2.75, "dur": 0.25, "rest": true, "notes": []}, {"start": 3.0, "dur": 0.5, "rest": false, "notes": [{"pitch": 65, "vel": 95, "dur": 0.5, "tieStart": false, "tieEnd": false, "tieGroup": 76}, {"pitch": 68, "vel": 95, "dur": 0.5, "tieStart": false, "tieEnd": false, "tieGroup": 0}, {"pitch": 72, "vel": 95, "dur": 0.5, "tieStart": false, "tieEnd": false, "tieGroup": 0}, {"pitch": 75, "vel": 95, "dur": 0.5, "tieStart": false, "tieEnd": false, "tieGroup": 0}, {"pitch": 79, "vel": 95, "dur": 0.5, "tieStart": false, "tieEnd": false, "tieGroup": 0}]}, {"start": 3.5, "dur": 0.5, "rest": true, "notes": []}]}, {"ts_num": 4, "ts_den": 4, "key_fifths": -4, "key_mode": 1, "clef": 0, "tempo": 104, "velocity": 100, "lyrics": "", "expr": [], "segs": [{"start": 0.0, "dur": 1.0, "rest": false, "notes": [{"pitch": 65, "vel": 98, "dur": 1.0, "tieStart": false, "tieEnd": false, "tieGroup": 0}, {"pitch": 68, "vel": 98, "dur": 1.0, "tieStart": false, "tieEnd": false, "tieGroup": 0}, {"pitch": 72, "vel": 98, "dur": 1.0, "tieStart": false, "tieEnd": false, "tieGroup": 0}, {"pitch": 75, "vel": 98, "dur": 1.0, "tieStart": false, "tieEnd": false, "tieGroup": 0}, {"pitch": 79, "vel": 98, "dur": 1.0, "tieStart": false, "tieEnd": false, "tieGroup": 0}]}, {"start": 1.0, "dur": 0.5, "rest": true, "notes": []}, {"start": 1.5, "dur": 0.5, "rest": false, "notes": [{"pitch": 84, "vel": 100, "dur": 0.5, "tieStart": false, "tieEnd": false, "tieGroup": 77}]}, {"start": 2.0, "dur": 0.5, "rest": true, "notes": []}, {"start": 2.5, "dur": 1.0, "rest": false, "notes": [{"pitch": 65, "vel": 102, "dur": 1.0, "tieStart": false, "tieEnd": false, "tieGroup": 78}, {"pitch": 68, "vel": 102, "dur": 1.0, "tieStart": false, "tieEnd": false, "tieGroup": 0}, {"pitch": 72, "vel": 102, "dur": 1.0, "tieStart": false, "tieEnd": false, "tieGroup": 0}, {"pitch": 75, "vel": 102, "dur": 1.0, "tieStart": false, "tieEnd": false, "tieGroup": 0}, {"pitch": 79, "vel": 102, "dur": 1.0, "tieStart": false, "tieEnd": false, "tieGroup": 0}]}, {"start": 3.5, "dur": 0.5, "rest": true, "notes": []}]}, {"ts_num": 4, "ts_den": 4, "key_fifths": -4, "key_mode": 1, "clef": 0, "tempo": 104, "velocity": 100, "lyrics": "", "expr": [], "segs": [{"start": 0.0, "dur": 4.0, "rest": true, "notes": []}]}, {"ts_num": 4, "ts_den": 4, "key_fifths": -4, "key_mode": 1, "clef": 0, "tempo": 104, "velocity": 100, "lyrics": "", "expr": [], "segs": [{"start": 0.0, "dur": 4.0, "rest": true, "notes": []}]}, {"ts_num": 4, "ts_den": 4, "key_fifths": -4, "key_mode": 1, "clef": 0, "tempo": 104, "velocity": 100, "lyrics": "", "expr": [], "segs": [{"start": 0.0, "dur": 4.0, "rest": true, "notes": []}]}, {"ts_num": 4, "ts_den": 4, "key_fifths": -4, "key_mode": 1, "clef": 0, "tempo": 104, "velocity": 100, "lyrics": "", "expr": [], "segs": [{"start": 0.0, "dur": 4.0, "rest": true, "notes": []}]}]}, {"name": "Bass", "instrument": {"name": "Fingered Bass", "bankMSB": 0, "bankLSB": 0, "program": 33, "channelHint": -1, "percussion": false, "volume": 108, "pan": 64, "transpose": 0}, "measures": [{"ts_num": 4, "ts_den": 4, "key_fifths": -4, "key_mode": 1, "clef": 1, "tempo": 104, "velocity": 100, "lyrics": "", "expr": [], "segs": [{"start": 0.0, "dur": 1.0, "rest": false, "notes": [{"pitch": 41, "vel": 102, "dur": 1.0, "tieStart": false, "tieEnd": false, "tieGroup": 0}]}, {"start": 1.0, "dur": 0.5, "rest": false, "notes": [{"pitch": 48, "vel": 96, "dur": 0.5, "tieStart": false, "tieEnd": false, "tieGroup": 0}]}, {"start": 1.5, "dur": 0.5, "rest": false, "notes": [{"pitch": 51, "vel": 94, "dur": 0.5, "tieStart": false, "tieEnd": false, "tieGroup": 0}]}, {"start": 2.0, "dur": 1.0, "rest": false, "notes": [{"pitch": 41, "vel": 101, "dur": 1.0, "tieStart": false, "tieEnd": false, "tieGroup": 0}]}, {"start": 3.0, "dur": 0.5, "rest": false, "notes": [{"pitch": 44, "vel": 96, "dur": 0.5, "tieStart": false, "tieEnd": false, "tieGroup": 0}]}, {"start": 3.5, "dur": 0.5, "rest": false, "notes": [{"pitch": 48, "vel": 97, "dur": 0.5, "tieStart": false, "tieEnd": false, "tieGroup": 0}]}]}, {"ts_num": 4, "ts_den": 4, "key_fifths": -4, "key_mode": 1, "clef": 1, "tempo": 104, "velocity": 100, "lyrics": "", "expr": [], "segs": [{"start": 0.0, "dur": 1.0, "rest": false, "notes": [{"pitch": 37, "vel": 100, "dur": 1.0, "tieStart": false, "tieEnd": false, "tieGroup": 0}]}, {"start": 1.0, "dur": 0.5, "rest": false, "notes": [{"pitch": 44, "vel": 95, "dur": 0.5, "tieStart": false, "tieEnd": false, "tieGroup": 0}]}, {"start": 1.5, "dur": 0.5, "rest": false, "notes": [{"pitch": 48, "vel": 94, "dur": 0.5, "tieStart": false, "tieEnd": false, "tieGroup": 0}]}, {"start": 2.0, "dur": 1.0, "rest": false, "notes": [{"pitch": 37, "vel": 99, "dur": 1.0, "tieStart": false, "tieEnd": false, "tieGroup": 0}]}, {"start": 3.0, "dur": 0.5, "rest": false, "notes": [{"pitch": 41, "vel": 95, "dur": 0.5, "tieStart": false, "tieEnd": false, "tieGroup": 0}]}, {"start": 3.5, "dur": 0.5, "rest": false, "notes": [{"pitch": 44, "vel": 96, "dur": 0.5, "tieStart": false, "tieEnd": false, "tieGroup": 0}]}]}, {"ts_num": 4, "ts_den": 4, "key_fifths": -4, "key_mode": 1, "clef": 1, "tempo": 104, "velocity": 100, "lyrics": "", "expr": [], "segs": [{"start": 0.0, "dur": 1.0, "rest": false, "notes": [{"pitch": 44, "vel": 100, "dur": 1.0, "tieStart": false, "tieEnd": false, "tieGroup": 0}]}, {"start": 1.0, "dur": 0.5, "rest": false, "notes": [{"pitch": 51, "vel": 95, "dur": 0.5, "tieStart": false, "tieEnd": false, "tieGroup": 0}]}, {"start": 1.5, "dur": 0.5, "rest": false, "notes": [{"pitch": 55, "vel": 94, "dur": 0.5, "tieStart": false, "tieEnd": false, "tieGroup": 0}]}, {"start": 2.0, "dur": 1.0, "rest": false, "notes": [{"pitch": 44, "vel": 99, "dur": 1.0, "tieStart": false, "tieEnd": false, "tieGroup": 0}]}, {"start": 3.0, "dur": 0.5, "rest": false, "notes": [{"pitch": 48, "vel": 95, "dur": 0.5, "tieStart": false, "tieEnd": false, "tieGroup": 0}]}, {"start": 3.5, "dur": 0.5, "rest": false, "notes": [{"pitch": 51, "vel": 96, "dur": 0.5, "tieStart": false, "tieEnd": false, "tieGroup": 0}]}]}, {"ts_num": 4, "ts_den": 4, "key_fifths": -4, "key_mode": 1, "clef": 1, "tempo": 104, "velocity": 100, "lyrics": "", "expr": [], "segs": [{"start": 0.0, "dur": 1.0, "rest": false, "notes": [{"pitch": 39, "vel": 101, "dur": 1.0, "tieStart": false, "tieEnd": false, "tieGroup": 0}]}, {"start": 1.0, "dur": 0.5, "rest": false, "notes": [{"pitch": 46, "vel": 95, "dur": 0.5, "tieStart": false, "tieEnd": false, "tieGroup": 0}]}, {"start": 1.5, "dur": 0.5, "rest": false, "notes": [{"pitch": 49, "vel": 94, "dur": 0.5, "tieStart": false, "tieEnd": false, "tieGroup": 0}]}, {"start": 2.0, "dur": 1.0, "rest": false, "notes": [{"pitch": 39, "vel": 100, "dur": 1.0, "tieStart": false, "tieEnd": false, "tieGroup": 0}]}, {"start": 3.0, "dur": 0.5, "rest": false, "notes": [{"pitch": 43, "vel": 95, "dur": 0.5, "tieStart": false, "tieEnd": false, "tieGroup": 0}]}, {"start": 3.5, "dur": 0.5, "rest": false, "notes": [{"pitch": 48, "vel": 97, "dur": 0.5, "tieStart": false, "tieEnd": false, "tieGroup": 0}]}]}, {"ts_num": 4, "ts_den": 4, "key_fifths": -4, "key_mode": 1, "clef": 1, "tempo": 104, "velocity": 100, "lyrics": "", "expr": [], "segs": [{"start": 0.0, "dur": 1.0, "rest": false, "notes": [{"pitch": 41, "vel": 102, "dur": 1.0, "tieStart": false, "tieEnd": false, "tieGroup": 0}]}, {"start": 1.0, "dur": 0.5, "rest": false, "notes": [{"pitch": 48, "vel": 96, "dur": 0.5, "tieStart": false, "tieEnd": false, "tieGroup": 0}]}, {"start": 1.5, "dur": 0.5, "rest": false, "notes": [{"pitch": 51, "vel": 94, "dur": 0.5, "tieStart": false, "tieEnd": false, "tieGroup": 0}]}, {"start": 2.0, "dur": 1.0, "rest": false, "notes": [{"pitch": 41, "vel": 101, "dur": 1.0, "tieStart": false, "tieEnd": false, "tieGroup": 0}]}, {"start": 3.0, "dur": 0.5, "rest": false, "notes": [{"pitch": 44, "vel": 96, "dur": 0.5, "tieStart": false, "tieEnd": false, "tieGroup": 0}]}, {"start": 3.5, "dur": 0.5, "rest": false, "notes": [{"pitch": 48, "vel": 97, "dur": 0.5, "tieStart": false, "tieEnd": false, "tieGroup": 0}]}]}, {"ts_num": 4, "ts_den": 4, "key_fifths": -4, "key_mode": 1, "clef": 1, "tempo": 104, "velocity": 100, "lyrics": "", "expr": [], "segs": [{"start": 0.0, "dur": 1.0, "rest": false, "notes": [{"pitch": 37, "vel": 100, "dur": 1.0, "tieStart": false, "tieEnd": false, "tieGroup": 0}]}, {"start": 1.0, "dur": 0.5, "rest": false, "notes": [{"pitch": 44, "vel": 95, "dur": 0.5, "tieStart": false, "tieEnd": false, "tieGroup": 0}]}, {"start": 1.5, "dur": 0.5, "rest": false, "notes": [{"pitch": 48, "vel": 94, "dur": 0.5, "tieStart": false, "tieEnd": false, "tieGroup": 0}]}, {"start": 2.0, "dur": 1.0, "rest": false, "notes": [{"pitch": 37, "vel": 99, "dur": 1.0, "tieStart": false, "tieEnd": false, "tieGroup": 0}]}, {"start": 3.0, "dur": 0.5, "rest": false, "notes": [{"pitch": 41, "vel": 95, "dur": 0.5, "tieStart": false, "tieEnd": false, "tieGroup": 0}]}, {"start": 3.5, "dur": 0.5, "rest": false, "notes": [{"pitch": 44, "vel": 96, "dur": 0.5, "tieStart": false, "tieEnd": false, "tieGroup": 0}]}]}, {"ts_num": 4, "ts_den": 4, "key_fifths": -4, "key_mode": 1, "clef": 1, "tempo": 104, "velocity": 100, "lyrics": "", "expr": [], "segs": [{"start": 0.0, "dur": 1.0, "rest": false, "notes": [{"pitch": 34, "vel": 101, "dur": 1.0, "tieStart": false, "tieEnd": false, "tieGroup": 0}]}, {"start": 1.0, "dur": 0.5, "rest": false, "notes": [{"pitch": 41, "vel": 95, "dur": 0.5, "tieStart": false, "tieEnd": false, "tieGroup": 0}]}, {"start": 1.5, "dur": 0.5, "rest": false, "notes": [{"pitch": 44, "vel": 94, "dur": 0.5, "tieStart": false, "tieEnd": false, "tieGroup": 0}]}, {"start": 2.0, "dur": 1.0, "rest": false, "notes": [{"pitch": 34, "vel": 100, "dur": 1.0, "tieStart": false, "tieEnd": false, "tieGroup": 0}]}, {"start": 3.0, "dur": 0.5, "rest": false, "notes": [{"pitch": 37, "vel": 95, "dur": 0.5, "tieStart": false, "tieEnd": false, "tieGroup": 0}]}, {"start": 3.5, "dur": 0.5, "rest": false, "notes": [{"pitch": 41, "vel": 96, "dur": 0.5, "tieStart": false, "tieEnd": false, "tieGroup": 0}]}]}, {"ts_num": 4, "ts_den": 4, "key_fifths": -4, "key_mode": 1, "clef": 1, "tempo": 104, "velocity": 100, "lyrics": "", "expr": [], "segs": [{"start": 0.0, "dur": 1.0, "rest": false, "notes": [{"pitch": 36, "vel": 102, "dur": 1.0, "tieStart": false, "tieEnd": false, "tieGroup": 0}]}, {"start": 1.0, "dur": 0.5, "rest": false, "notes": [{"pitch": 43, "vel": 96, "dur": 0.5, "tieStart": false, "tieEnd": false, "tieGroup": 0}]}, {"start": 1.5, "dur": 0.5, "rest": false, "notes": [{"pitch": 46, "vel": 95, "dur": 0.5, "tieStart": false, "tieEnd": false, "tieGroup": 0}]}, {"start": 2.0, "dur": 0.5, "rest": false, "notes": [{"pitch": 36, "vel": 101, "dur": 0.5, "tieStart": false, "tieEnd": false, "tieGroup": 0}]}, {"start": 2.5, "dur": 0.5, "rest": false, "notes": [{"pitch": 49, "vel": 97, "dur": 0.5, "tieStart": false, "tieEnd": false, "tieGroup": 0}]}, {"start": 3.0, "dur": 0.5, "rest": false, "notes": [{"pitch": 40, "vel": 98, "dur": 0.5, "tieStart": false, "tieEnd": false, "tieGroup": 0}]}, {"start": 3.5, "dur": 0.5, "rest": false, "notes": [{"pitch": 43, "vel": 96, "dur": 0.5, "tieStart": false, "tieEnd": false, "tieGroup": 0}]}]}, {"ts_num": 4, "ts_den": 4, "key_fifths": -4, "key_mode": 1, "clef": 1, "tempo": 104, "velocity": 100, "lyrics": "", "expr": [], "segs": [{"start": 0.0, "dur": 1.0, "rest": false, "notes": [{"pitch": 44, "vel": 100, "dur": 1.0, "tieStart": false, "tieEnd": false, "tieGroup": 0}]}, {"start": 1.0, "dur": 0.5, "rest": false, "notes": [{"pitch": 51, "vel": 95, "dur": 0.5, "tieStart": false, "tieEnd": false, "tieGroup": 0}]}, {"start": 1.5, "dur": 0.5, "rest": false, "notes": [{"pitch": 55, "vel": 94, "dur": 0.5, "tieStart": false, "tieEnd": false, "tieGroup": 0}]}, {"start": 2.0, "dur": 1.0, "rest": false, "notes": [{"pitch": 44, "vel": 99, "dur": 1.0, "tieStart": false, "tieEnd": false, "tieGroup": 0}]}, {"start": 3.0, "dur": 0.5, "rest": false, "notes": [{"pitch": 48, "vel": 95, "dur": 0.5, "tieStart": false, "tieEnd": false, "tieGroup": 0}]}, {"start": 3.5, "dur": 0.5, "rest": false, "notes": [{"pitch": 51, "vel": 96, "dur": 0.5, "tieStart": false, "tieEnd": false, "tieGroup": 0}]}]}, {"ts_num": 4, "ts_den": 4, "key_fifths": -4, "key_mode": 1, "clef": 1, "tempo": 104, "velocity": 100, "lyrics": "", "expr": [], "segs": [{"start": 0.0, "dur": 1.0, "rest": false, "notes": [{"pitch": 39, "vel": 101, "dur": 1.0, "tieStart": false, "tieEnd": false, "tieGroup": 0}]}, {"start": 1.0, "dur": 0.5, "rest": false, "notes": [{"pitch": 46, "vel": 95, "dur": 0.5, "tieStart": false, "tieEnd": false, "tieGroup": 0}]}, {"start": 1.5, "dur": 0.5, "rest": false, "notes": [{"pitch": 49, "vel": 94, "dur": 0.5, "tieStart": false, "tieEnd": false, "tieGroup": 0}]}, {"start": 2.0, "dur": 1.0, "rest": false, "notes": [{"pitch": 39, "vel": 100, "dur": 1.0, "tieStart": false, "tieEnd": false, "tieGroup": 0}]}, {"start": 3.0, "dur": 0.5, "rest": false, "notes": [{"pitch": 43, "vel": 95, "dur": 0.5, "tieStart": false, "tieEnd": false, "tieGroup": 0}]}, {"start": 3.5, "dur": 0.5, "rest": false, "notes": [{"pitch": 48, "vel": 97, "dur": 0.5, "tieStart": false, "tieEnd": false, "tieGroup": 0}]}]}, {"ts_num": 4, "ts_den": 4, "key_fifths": -4, "key_mode": 1, "clef": 1, "tempo": 104, "velocity": 100, "lyrics": "", "expr": [], "segs": [{"start": 0.0, "dur": 1.0, "rest": false, "notes": [{"pitch": 34, "vel": 101, "dur": 1.0, "tieStart": false, "tieEnd": false, "tieGroup": 0}]}, {"start": 1.0, "dur": 0.5, "rest": false, "notes": [{"pitch": 41, "vel": 95, "dur": 0.5, "tieStart": false, "tieEnd": false, "tieGroup": 0}]}, {"start": 1.5, "dur": 0.5, "rest": false, "notes": [{"pitch": 44, "vel": 94, "dur": 0.5, "tieStart": false, "tieEnd": false, "tieGroup": 0}]}, {"start": 2.0, "dur": 1.0, "rest": false, "notes": [{"pitch": 34, "vel": 100, "dur": 1.0, "tieStart": false, "tieEnd": false, "tieGroup": 0}]}, {"start": 3.0, "dur": 0.5, "rest": false, "notes": [{"pitch": 37, "vel": 95, "dur": 0.5, "tieStart": false, "tieEnd": false, "tieGroup": 0}]}, {"start": 3.5, "dur": 0.5, "rest": false, "notes": [{"pitch": 41, "vel": 96, "dur": 0.5, "tieStart": false, "tieEnd": false, "tieGroup": 0}]}]}, {"ts_num": 4, "ts_den": 4, "key_fifths": -4, "key_mode": 1, "clef": 1, "tempo": 104, "velocity": 100, "lyrics": "", "expr": [], "segs": [{"start": 0.0, "dur": 1.0, "rest": false, "notes": [{"pitch": 36, "vel": 102, "dur": 1.0, "tieStart": false, "tieEnd": false, "tieGroup": 0}]}, {"start": 1.0, "dur": 0.5, "rest": false, "notes": [{"pitch": 43, "vel": 96, "dur": 0.5, "tieStart": false, "tieEnd": false, "tieGroup": 0}]}, {"start": 1.5, "dur": 0.5, "rest": false, "notes": [{"pitch": 46, "vel": 95, "dur": 0.5, "tieStart": false, "tieEnd": false, "tieGroup": 0}]}, {"start": 2.0, "dur": 0.5, "rest": false, "notes": [{"pitch": 36, "vel": 101, "dur": 0.5, "tieStart": false, "tieEnd": false, "tieGroup": 0}]}, {"start": 2.5, "dur": 0.5, "rest": false, "notes": [{"pitch": 49, "vel": 97, "dur": 0.5, "tieStart": false, "tieEnd": false, "tieGroup": 0}]}, {"start": 3.0, "dur": 0.5, "rest": false, "notes": [{"pitch": 40, "vel": 98, "dur": 0.5, "tieStart": false, "tieEnd": false, "tieGroup": 0}]}, {"start": 3.5, "dur": 0.5, "rest": false, "notes": [{"pitch": 43, "vel": 96, "dur": 0.5, "tieStart": false, "tieEnd": false, "tieGroup": 0}]}]}, {"ts_num": 4, "ts_den": 4, "key_fifths": -4, "key_mode": 1, "clef": 1, "tempo": 104, "velocity": 100, "lyrics": "", "expr": [], "segs": [{"start": 0.0, "dur": 1.0, "rest": false, "notes": [{"pitch": 41, "vel": 102, "dur": 1.0, "tieStart": false, "tieEnd": false, "tieGroup": 0}]}, {"start": 1.0, "dur": 0.5, "rest": false, "notes": [{"pitch": 48, "vel": 96, "dur": 0.5, "tieStart": false, "tieEnd": false, "tieGroup": 0}]}, {"start": 1.5, "dur": 0.5, "rest": false, "notes": [{"pitch": 51, "vel": 94, "dur": 0.5, "tieStart": false, "tieEnd": false, "tieGroup": 0}]}, {"start": 2.0, "dur": 1.0, "rest": false, "notes": [{"pitch": 41, "vel": 101, "dur": 1.0, "tieStart": false, "tieEnd": false, "tieGroup": 0}]}, {"start": 3.0, "dur": 0.5, "rest": false, "notes": [{"pitch": 44, "vel": 96, "dur": 0.5, "tieStart": false, "tieEnd": false, "tieGroup": 0}]}, {"start": 3.5, "dur": 0.5, "rest": false, "notes": [{"pitch": 48, "vel": 97, "dur": 0.5, "tieStart": false, "tieEnd": false, "tieGroup": 0}]}]}, {"ts_num": 4, "ts_den": 4, "key_fifths": -4, "key_mode": 1, "clef": 1, "tempo": 104, "velocity": 100, "lyrics": "", "expr": [], "segs": [{"start": 0.0, "dur": 1.0, "rest": false, "notes": [{"pitch": 37, "vel": 100, "dur": 1.0, "tieStart": false, "tieEnd": false, "tieGroup": 0}]}, {"start": 1.0, "dur": 0.5, "rest": false, "notes": [{"pitch": 44, "vel": 95, "dur": 0.5, "tieStart": false, "tieEnd": false, "tieGroup": 0}]}, {"start": 1.5, "dur": 0.5, "rest": false, "notes": [{"pitch": 48, "vel": 94, "dur": 0.5, "tieStart": false, "tieEnd": false, "tieGroup": 0}]}, {"start": 2.0, "dur": 1.0, "rest": false, "notes": [{"pitch": 37, "vel": 99, "dur": 1.0, "tieStart": false, "tieEnd": false, "tieGroup": 0}]}, {"start": 3.0, "dur": 0.5, "rest": false, "notes": [{"pitch": 41, "vel": 95, "dur": 0.5, "tieStart": false, "tieEnd": false, "tieGroup": 0}]}, {"start": 3.5, "dur": 0.5, "rest": false, "notes": [{"pitch": 44, "vel": 96, "dur": 0.5, "tieStart": false, "tieEnd": false, "tieGroup": 0}]}]}, {"ts_num": 4, "ts_den": 4, "key_fifths": -4, "key_mode": 1, "clef": 1, "tempo": 104, "velocity": 100, "lyrics": "", "expr": [], "segs": [{"start": 0.0, "dur": 1.0, "rest": false, "notes": [{"pitch": 44, "vel": 100, "dur": 1.0, "tieStart": false, "tieEnd": false, "tieGroup": 0}]}, {"start": 1.0, "dur": 0.5, "rest": false, "notes": [{"pitch": 51, "vel": 95, "dur": 0.5, "tieStart": false, "tieEnd": false, "tieGroup": 0}]}, {"start": 1.5, "dur": 0.5, "rest": false, "notes": [{"pitch": 55, "vel": 94, "dur": 0.5, "tieStart": false, "tieEnd": false, "tieGroup": 0}]}, {"start": 2.0, "dur": 1.0, "rest": false, "notes": [{"pitch": 44, "vel": 99, "dur": 1.0, "tieStart": false, "tieEnd": false, "tieGroup": 0}]}, {"start": 3.0, "dur": 0.5, "rest": false, "notes": [{"pitch": 48, "vel": 95, "dur": 0.5, "tieStart": false, "tieEnd": false, "tieGroup": 0}]}, {"start": 3.5, "dur": 0.5, "rest": false, "notes": [{"pitch": 51, "vel": 96, "dur": 0.5, "tieStart": false, "tieEnd": false, "tieGroup": 0}]}]}, {"ts_num": 4, "ts_den": 4, "key_fifths": -4, "key_mode": 1, "clef": 1, "tempo": 104, "velocity": 100, "lyrics": "", "expr": [], "segs": [{"start": 0.0, "dur": 1.0, "rest": false, "notes": [{"pitch": 39, "vel": 101, "dur": 1.0, "tieStart": false, "tieEnd": false, "tieGroup": 0}]}, {"start": 1.0, "dur": 0.5, "rest": false, "notes": [{"pitch": 46, "vel": 95, "dur": 0.5, "tieStart": false, "tieEnd": false, "tieGroup": 0}]}, {"start": 1.5, "dur": 0.5, "rest": false, "notes": [{"pitch": 49, "vel": 94, "dur": 0.5, "tieStart": false, "tieEnd": false, "tieGroup": 0}]}, {"start": 2.0, "dur": 1.0, "rest": false, "notes": [{"pitch": 39, "vel": 100, "dur": 1.0, "tieStart": false, "tieEnd": false, "tieGroup": 0}]}, {"start": 3.0, "dur": 0.5, "rest": false, "notes": [{"pitch": 43, "vel": 95, "dur": 0.5, "tieStart": false, "tieEnd": false, "tieGroup": 0}]}, {"start": 3.5, "dur": 0.5, "rest": false, "notes": [{"pitch": 48, "vel": 97, "dur": 0.5, "tieStart": false, "tieEnd": false, "tieGroup": 0}]}]}, {"ts_num": 4, "ts_den": 4, "key_fifths": -4, "key_mode": 1, "clef": 1, "tempo": 104, "velocity": 100, "lyrics": "", "expr": [], "segs": [{"start": 0.0, "dur": 1.0, "rest": false, "notes": [{"pitch": 34, "vel": 101, "dur": 1.0, "tieStart": false, "tieEnd": false, "tieGroup": 0}]}, {"start": 1.0, "dur": 0.5, "rest": false, "notes": [{"pitch": 41, "vel": 95, "dur": 0.5, "tieStart": false, "tieEnd": false, "tieGroup": 0}]}, {"start": 1.5, "dur": 0.5, "rest": false, "notes": [{"pitch": 44, "vel": 94, "dur": 0.5, "tieStart": false, "tieEnd": false, "tieGroup": 0}]}, {"start": 2.0, "dur": 1.0, "rest": false, "notes": [{"pitch": 34, "vel": 100, "dur": 1.0, "tieStart": false, "tieEnd": false, "tieGroup": 0}]}, {"start": 3.0, "dur": 0.5, "rest": false, "notes": [{"pitch": 37, "vel": 95, "dur": 0.5, "tieStart": false, "tieEnd": false, "tieGroup": 0}]}, {"start": 3.5, "dur": 0.5, "rest": false, "notes": [{"pitch": 41, "vel": 96, "dur": 0.5, "tieStart": false, "tieEnd": false, "tieGroup": 0}]}]}, {"ts_num": 4, "ts_den": 4, "key_fifths": -4, "key_mode": 1, "clef": 1, "tempo": 104, "velocity": 100, "lyrics": "", "expr": [], "segs": [{"start": 0.0, "dur": 1.0, "rest": false, "notes": [{"pitch": 36, "vel": 102, "dur": 1.0, "tieStart": false, "tieEnd": false, "tieGroup": 0}]}, {"start": 1.0, "dur": 0.5, "rest": false, "notes": [{"pitch": 43, "vel": 96, "dur": 0.5, "tieStart": false, "tieEnd": false, "tieGroup": 0}]}, {"start": 1.5, "dur": 0.5, "rest": false, "notes": [{"pitch": 46, "vel": 95, "dur": 0.5, "tieStart": false, "tieEnd": false, "tieGroup": 0}]}, {"start": 2.0, "dur": 0.5, "rest": false, "notes": [{"pitch": 36, "vel": 101, "dur": 0.5, "tieStart": false, "tieEnd": false, "tieGroup": 0}]}, {"start": 2.5, "dur": 0.5, "rest": false, "notes": [{"pitch": 49, "vel": 97, "dur": 0.5, "tieStart": false, "tieEnd": false, "tieGroup": 0}]}, {"start": 3.0, "dur": 0.5, "rest": false, "notes": [{"pitch": 40, "vel": 98, "dur": 0.5, "tieStart": false, "tieEnd": false, "tieGroup": 0}]}, {"start": 3.5, "dur": 0.5, "rest": false, "notes": [{"pitch": 43, "vel": 96, "dur": 0.5, "tieStart": false, "tieEnd": false, "tieGroup": 0}]}]}, {"ts_num": 4, "ts_den": 4, "key_fifths": -4, "key_mode": 1, "clef": 1, "tempo": 104, "velocity": 100, "lyrics": "", "expr": [], "segs": [{"start": 0.0, "dur": 1.0, "rest": false, "notes": [{"pitch": 41, "vel": 102, "dur": 1.0, "tieStart": false, "tieEnd": false, "tieGroup": 0}]}, {"start": 1.0, "dur": 0.5, "rest": false, "notes": [{"pitch": 48, "vel": 96, "dur": 0.5, "tieStart": false, "tieEnd": false, "tieGroup": 0}]}, {"start": 1.5, "dur": 0.5, "rest": false, "notes": [{"pitch": 51, "vel": 94, "dur": 0.5, "tieStart": false, "tieEnd": false, "tieGroup": 0}]}, {"start": 2.0, "dur": 1.0, "rest": false, "notes": [{"pitch": 41, "vel": 101, "dur": 1.0, "tieStart": false, "tieEnd": false, "tieGroup": 0}]}, {"start": 3.0, "dur": 0.5, "rest": false, "notes": [{"pitch": 44, "vel": 96, "dur": 0.5, "tieStart": false, "tieEnd": false, "tieGroup": 0}]}, {"start": 3.5, "dur": 0.5, "rest": false, "notes": [{"pitch": 48, "vel": 97, "dur": 0.5, "tieStart": false, "tieEnd": false, "tieGroup": 0}]}]}, {"ts_num": 4, "ts_den": 4, "key_fifths": -4, "key_mode": 1, "clef": 1, "tempo": 104, "velocity": 100, "lyrics": "", "expr": [], "segs": [{"start": 0.0, "dur": 1.5, "rest": false, "notes": [{"pitch": 41, "vel": 104, "dur": 1.5, "tieStart": false, "tieEnd": false, "tieGroup": 0}]}, {"start": 1.5, "dur": 0.5, "rest": true, "notes": []}, {"start": 2.0, "dur": 0.5, "rest": false, "notes": [{"pitch": 48, "vel": 98, "dur": 0.5, "tieStart": false, "tieEnd": false, "tieGroup": 79}]}, {"start": 2.5, "dur": 0.5, "rest": true, "notes": []}, {"start": 3.0, "dur": 1.0, "rest": false, "notes": [{"pitch": 41, "vel": 106, "dur": 1.0, "tieStart": false, "tieEnd": false, "tieGroup": 80}]}]}, {"ts_num": 4, "ts_den": 4, "key_fifths": -4, "key_mode": 1, "clef": 1, "tempo": 104, "velocity": 100, "lyrics": "", "expr": [], "segs": [{"start": 0.0, "dur": 4.0, "rest": true, "notes": []}]}, {"ts_num": 4, "ts_den": 4, "key_fifths": -4, "key_mode": 1, "clef": 1, "tempo": 104, "velocity": 100, "lyrics": "", "expr": [], "segs": [{"start": 0.0, "dur": 4.0, "rest": true, "notes": []}]}, {"ts_num": 4, "ts_den": 4, "key_fifths": -4, "key_mode": 1, "clef": 1, "tempo": 104, "velocity": 100, "lyrics": "", "expr": [], "segs": [{"start": 0.0, "dur": 4.0, "rest": true, "notes": []}]}, {"ts_num": 4, "ts_den": 4, "key_fifths": -4, "key_mode": 1, "clef": 1, "tempo": 104, "velocity": 100, "lyrics": "", "expr": [], "segs": [{"start": 0.0, "dur": 4.0, "rest": true, "notes": []}]}]}, {"name": "Accomp AI Free", "instrument": {"name": "Stereo Grand", "bankMSB": 0, "bankLSB": 0, "program": 0, "channelHint": -1, "percussion": false, "volume": 66, "pan": 64, "transpose": 0}, "measures": [{"ts_num": 4, "ts_den": 4, "key_fifths": -4, "key_mode": 1, "clef": 1, "tempo": 120, "velocity": 100, "lyrics": "", "expr": [], "segs": [{"start": 0.0, "dur": 0.25, "rest": false, "notes": [{"pitch": 44, "vel": 114, "dur": 0.25, "tieStart": false, "tieEnd": false, "tieGroup": 0}, {"pitch": 48, "vel": 110, "dur": 0.25, "tieStart": false, "tieEnd": false, "tieGroup": 0}, {"pitch": 51, "vel": 106, "dur": 0.25, "tieStart": false, "tieEnd": false, "tieGroup": 0}, {"pitch": 53, "vel": 102, "dur": 0.25, "tieStart": false, "tieEnd": false, "tieGroup": 0}]}, {"start": 0.25, "dur": 0.5, "rest": false, "notes": [{"pitch": 44, "vel": 114, "dur": 0.5, "tieStart": false, "tieEnd": false, "tieGroup": 0}, {"pitch": 48, "vel": 110, "dur": 0.5, "tieStart": false, "tieEnd": false, "tieGroup": 0}, {"pitch": 51, "vel": 106, "dur": 0.5, "tieStart": false, "tieEnd": false, "tieGroup": 0}, {"pitch": 53, "vel": 102, "dur": 0.5, "tieStart": false, "tieEnd": false, "tieGroup": 0}, {"pitch": 60, "vel": 98, "dur": 0.5, "tieStart": false, "tieEnd": false, "tieGroup": 0}]}, {"start": 0.75, "dur": 0.5, "rest": false, "notes": [{"pitch": 48, "vel": 114, "dur": 0.5, "tieStart": false, "tieEnd": false, "tieGroup": 0}, {"pitch": 51, "vel": 110, "dur": 0.5, "tieStart": false, "tieEnd": false, "tieGroup": 0}, {"pitch": 53, "vel": 106, "dur": 0.5, "tieStart": false, "tieEnd": false, "tieGroup": 0}, {"pitch": 63, "vel": 102, "dur": 0.5, "tieStart": false, "tieEnd": false, "tieGroup": 0}]}, {"start": 1.25, "dur": 0.5, "rest": false, "notes": [{"pitch": 48, "vel": 114, "dur": 0.5, "tieStart": false, "tieEnd": false, "tieGroup": 0}, {"pitch": 51, "vel": 110, "dur": 0.5, "tieStart": false, "tieEnd": false, "tieGroup": 0}, {"pitch": 53, "vel": 106, "dur": 0.5, "tieStart": false, "tieEnd": false, "tieGroup": 0}, {"pitch": 63, "vel": 102, "dur": 0.5, "tieStart": false, "tieEnd": false, "tieGroup": 0}]}, {"start": 1.75, "dur": 0.25, "rest": false, "notes": [{"pitch": 51, "vel": 114, "dur": 0.25, "tieStart": false, "tieEnd": false, "tieGroup": 0}, {"pitch": 56, "vel": 106, "dur": 0.25, "tieStart": false, "tieEnd": false, "tieGroup": 0}, {"pitch": 67, "vel": 102, "dur": 0.25, "tieStart": false, "tieEnd": false, "tieGroup": 0}]}, {"start": 2.0, "dur": 1.5, "rest": false, "notes": [{"pitch": 48, "vel": 110, "dur": 1.5, "tieStart": false, "tieEnd": false, "tieGroup": 0}, {"pitch": 51, "vel": 106, "dur": 1.5, "tieStart": false, "tieEnd": false, "tieGroup": 0}, {"pitch": 53, "vel": 102, "dur": 1.5, "tieStart": false, "tieEnd": false, "tieGroup": 0}]}, {"start": 3.5, "dur": 0.5, "rest": false, "notes": [{"pitch": 44, "vel": 114, "dur": 0.5, "tieStart": false, "tieEnd": false, "tieGroup": 0}, {"pitch": 51, "vel": 106, "dur": 0.5, "tieStart": false, "tieEnd": false, "tieGroup": 0}, {"pitch": 55, "vel": 98, "dur": 0.5, "tieStart": false, "tieEnd": false, "tieGroup": 0}]}]}, {"ts_num": 4, "ts_den": 4, "key_fifths": -4, "key_mode": 1, "clef": 1, "tempo": 120, "velocity": 100, "lyrics": "", "expr": [], "segs": [{"start": 0.0, "dur": 0.25, "rest": false, "notes": [{"pitch": 44, "vel": 114, "dur": 0.25, "tieStart": false, "tieEnd": false, "tieGroup": 0}, {"pitch": 46, "vel": 110, "dur": 0.25, "tieStart": false, "tieEnd": false, "tieGroup": 0}, {"pitch": 49, "vel": 106, "dur": 0.25, "tieStart": false, "tieEnd": false, "tieGroup": 0}, {"pitch": 53, "vel": 102, "dur": 0.25, "tieStart": false, "tieEnd": false, "tieGroup": 0}]}, {"start": 0.25, "dur": 1.0, "rest": true, "notes": []}, {"start": 1.25, "dur": 0.5, "rest": false, "notes": [{"pitch": 48, "vel": 69, "dur": 0.5, "tieStart": false, "tieEnd": false, "tieGroup": 81}]}, {"start": 1.75, "dur": 1.0, "rest": false, "notes": [{"pitch": 44, "vel": 89, "dur": 1.0, "tieStart": false, "tieEnd": false, "tieGroup": 0}, {"pitch": 46, "vel": 85, "dur": 1.0, "tieStart": false, "tieEnd": false, "tieGroup": 0}, {"pitch": 49, "vel": 81, "dur": 1.0, "tieStart": false, "tieEnd": false, "tieGroup": 0}, {"pitch": 53, "vel": 77, "dur": 1.0, "tieStart": false, "tieEnd": false, "tieGroup": 0}]}, {"start": 2.75, "dur": 0.5, "rest": false, "notes": [{"pitch": 60, "vel": 110, "dur": 0.5, "tieStart": false, "tieEnd": false, "tieGroup": 0}, {"pitch": 65, "vel": 102, "dur": 0.5, "tieStart": false, "tieEnd": false, "tieGroup": 0}, {"pitch": 77, "vel": 98, "dur": 0.5, "tieStart": false, "tieEnd": false, "tieGroup": 0}]}, {"start": 3.25, "dur": 0.75, "rest": false, "notes": [{"pitch": 44, "vel": 73, "dur": 0.75, "tieStart": false, "tieEnd": false, "tieGroup": 0}, {"pitch": 46, "vel": 69, "dur": 0.75, "tieStart": false, "tieEnd": false, "tieGroup": 0}, {"pitch": 49, "vel": 65, "dur": 0.75, "tieStart": false, "tieEnd": false, "tieGroup": 0}, {"pitch": 53, "vel": 61, "dur": 0.75, "tieStart": false, "tieEnd": false, "tieGroup": 0}]}]}, {"ts_num": 4, "ts_den": 4, "key_fifths": -4, "key_mode": 1, "clef": 1, "tempo": 120, "velocity": 100, "lyrics": "", "expr": [], "segs": [{"start": 0.0, "dur": 0.25, "rest": true, "notes": []}, {"start": 0.25, "dur": 0.25, "rest": false, "notes": [{"pitch": 44, "vel": 81, "dur": 0.25, "tieStart": false, "tieEnd": false, "tieGroup": 82}, {"pitch": 56, "vel": 77, "dur": 0.25, "tieStart": false, "tieEnd": false, "tieGroup": 0}, {"pitch": 60, "vel": 73, "dur": 0.25, "tieStart": false, "tieEnd": false, "tieGroup": 0}, {"pitch": 63, "vel": 69, "dur": 0.25, "tieStart": false, "tieEnd": false, "tieGroup": 0}, {"pitch": 68, "vel": 65, "dur": 0.25, "tieStart": false, "tieEnd": false, "tieGroup": 0}]}, {"start": 0.5, "dur": 0.25, "rest": false, "notes": [{"pitch": 44, "vel": 81, "dur": 0.25, "tieStart": false, "tieEnd": false, "tieGroup": 0}, {"pitch": 56, "vel": 77, "dur": 0.25, "tieStart": false, "tieEnd": false, "tieGroup": 0}, {"pitch": 60, "vel": 73, "dur": 0.25, "tieStart": false, "tieEnd": false, "tieGroup": 0}, {"pitch": 63, "vel": 69, "dur": 0.25, "tieStart": false, "tieEnd": false, "tieGroup": 0}, {"pitch": 72, "vel": 65, "dur": 0.25, "tieStart": false, "tieEnd": false, "tieGroup": 0}]}, {"start": 0.75, "dur": 0.25, "rest": false, "notes": [{"pitch": 67, "vel": 73, "dur": 0.25, "tieStart": false, "tieEnd": false, "tieGroup": 0}, {"pitch": 79, "vel": 65, "dur": 0.25, "tieStart": false, "tieEnd": false, "tieGroup": 0}]}, {"start": 1.0, "dur": 0.25, "rest": false, "notes": [{"pitch": 44, "vel": 81, "dur": 0.25, "tieStart": false, "tieEnd": false, "tieGroup": 0}, {"pitch": 65, "vel": 77, "dur": 0.25, "tieStart": false, "tieEnd": false, "tieGroup": 0}, {"pitch": 68, "vel": 73, "dur": 0.25, "tieStart": false, "tieEnd": false, "tieGroup": 0}, {"pitch": 72, "vel": 69, "dur": 0.25, "tieStart": false, "tieEnd": false, "tieGroup": 0}, {"pitch": 84, "vel": 65, "dur": 0.25, "tieStart": false, "tieEnd": false, "tieGroup": 0}]}, {"start": 1.25, "dur": 0.5, "rest": false, "notes": [{"pitch": 63, "vel": 101, "dur": 0.5, "tieStart": false, "tieEnd": false, "tieGroup": 0}, {"pitch": 67, "vel": 97, "dur": 0.5, "tieStart": false, "tieEnd": false, "tieGroup": 0}, {"pitch": 79, "vel": 89, "dur": 0.5, "tieStart": false, "tieEnd": false, "tieGroup": 0}]}, {"start": 1.75, "dur": 0.5, "rest": false, "notes": [{"pitch": 44, "vel": 97, "dur": 0.5, "tieStart": false, "tieEnd": false, "tieGroup": 0}, {"pitch": 65, "vel": 93, "dur": 0.5, "tieStart": false, "tieEnd": false, "tieGroup": 0}, {"pitch": 68, "vel": 89, "dur": 0.5, "tieStart": false, "tieEnd": false, "tieGroup": 0}, {"pitch": 72, "vel": 85, "dur": 0.5, "tieStart": false, "tieEnd": false, "tieGroup": 0}, {"pitch": 84, "vel": 81, "dur": 0.5, "tieStart": false, "tieEnd": false, "tieGroup": 0}]}, {"start": 2.25, "dur": 0.75, "rest": false, "notes": [{"pitch": 67, "vel": 77, "dur": 0.75, "tieStart": false, "tieEnd": false, "tieGroup": 0}]}, {"start": 3.0, "dur": 0.25, "rest": false, "notes": [{"pitch": 44, "vel": 81, "dur": 0.25, "tieStart": false, "tieEnd": false, "tieGroup": 0}, {"pitch": 72, "vel": 77, "dur": 0.25, "tieStart": false, "tieEnd": false, "tieGroup": 0}, {"pitch": 75, "vel": 73, "dur": 0.25, "tieStart": false, "tieEnd": false, "tieGroup": 0}, {"pitch": 77, "vel": 69, "dur": 0.25, "tieStart": false, "tieEnd": false, "tieGroup": 0}, {"pitch": 87, "vel": 65, "dur": 0.25, "tieStart": false, "tieEnd": false, "tieGroup": 0}]}, {"start": 3.25, "dur": 0.75, "rest": true, "notes": []}]}, {"ts_num": 4, "ts_den": 4, "key_fifths": -4, "key_mode": 1, "clef": 1, "tempo": 120, "velocity": 100, "lyrics": "", "expr": [], "segs": [{"start": 0.0, "dur": 0.5, "rest": false, "notes": [{"pitch": 51, "vel": 114, "dur": 0.5, "tieStart": false, "tieEnd": false, "tieGroup": 0}, {"pitch": 53, "vel": 110, "dur": 0.5, "tieStart": false, "tieEnd": false, "tieGroup": 0}, {"pitch": 56, "vel": 106, "dur": 0.5, "tieStart": false, "tieEnd": false, "tieGroup": 0}, {"pitch": 68, "vel": 102, "dur": 0.5, "tieStart": false, "tieEnd": false, "tieGroup": 0}]}, {"start": 0.5, "dur": 0.5, "rest": false, "notes": [{"pitch": 53, "vel": 114, "dur": 0.5, "tieStart": false, "tieEnd": false, "tieGroup": 0}, {"pitch": 56, "vel": 110, "dur": 0.5, "tieStart": false, "tieEnd": false, "tieGroup": 0}, {"pitch": 60, "vel": 106, "dur": 0.5, "tieStart": false, "tieEnd": false, "tieGroup": 0}, {"pitch": 63, "vel": 102, "dur": 0.5, "tieStart": false, "tieEnd": false, "tieGroup": 0}, {"pitch": 72, "vel": 98, "dur": 0.5, "tieStart": false, "tieEnd": false, "tieGroup": 0}]}, {"start": 1.0, "dur": 0.5, "rest": false, "notes": [{"pitch": 63, "vel": 106, "dur": 0.5, "tieStart": false, "tieEnd": false, "tieGroup": 0}]}, {"start": 1.5, "dur": 0.5, "rest": false, "notes": [{"pitch": 53, "vel": 65, "dur": 0.5, "tieStart": false, "tieEnd": false, "tieGroup": 0}, {"pitch": 56, "vel": 61, "dur": 0.5, "tieStart": false, "tieEnd": false, "tieGroup": 0}, {"pitch": 63, "vel": 57, "dur": 0.5, "tieStart": false, "tieEnd": false, "tieGroup": 0}, {"pitch": 72, "vel": 53, "dur": 0.5, "tieStart": false, "tieEnd": false, "tieGroup": 0}]}, {"start": 2.0, "dur": 0.5, "rest": false, "notes": [{"pitch": 63, "vel": 57, "dur": 0.5, "tieStart": false, "tieEnd": false, "tieGroup": 0}]}, {"start": 2.5, "dur": 0.5, "rest": false, "notes": [{"pitch": 53, "vel": 65, "dur": 0.5, "tieStart": false, "tieEnd": false, "tieGroup": 0}, {"pitch": 63, "vel": 61, "dur": 0.5, "tieStart": false, "tieEnd": false, "tieGroup": 0}, {"pitch": 65, "vel": 57, "dur": 0.5, "tieStart": false, "tieEnd": false, "tieGroup": 0}, {"pitch": 68, "vel": 53, "dur": 0.5, "tieStart": false, "tieEnd": false, "tieGroup": 0}, {"pitch": 80, "vel": 49, "dur": 0.5, "tieStart": false, "tieEnd": false, "tieGroup": 0}]}, {"start": 3.0, "dur": 0.75, "rest": false, "notes": [{"pitch": 60, "vel": 69, "dur": 0.75, "tieStart": false, "tieEnd": false, "tieGroup": 0}]}, {"start": 3.75, "dur": 0.25, "rest": false, "notes": [{"pitch": 53, "vel": 114, "dur": 0.25, "tieStart": false, "tieEnd": false, "tieGroup": 0}, {"pitch": 63, "vel": 106, "dur": 0.25, "tieStart": false, "tieEnd": false, "tieGroup": 0}, {"pitch": 65, "vel": 102, "dur": 0.25, "tieStart": false, "tieEnd": false, "tieGroup": 0}, {"pitch": 77, "vel": 98, "dur": 0.25, "tieStart": false, "tieEnd": false, "tieGroup": 0}]}]}, {"ts_num": 4, "ts_den": 4, "key_fifths": -4, "key_mode": 1, "clef": 1, "tempo": 120, "velocity": 100, "lyrics": "", "expr": [], "segs": [{"start": 0.0, "dur": 0.75, "rest": true, "notes": []}, {"start": 0.75, "dur": 0.75, "rest": false, "notes": [{"pitch": 53, "vel": 89, "dur": 0.75, "tieStart": false, "tieEnd": false, "tieGroup": 83}, {"pitch": 68, "vel": 85, "dur": 0.75, "tieStart": false, "tieEnd": false, "tieGroup": 0}, {"pitch": 72, "vel": 81, "dur": 0.75, "tieStart": false, "tieEnd": false, "tieGroup": 0}, {"pitch": 75, "vel": 77, "dur": 0.75, "tieStart": false, "tieEnd": false, "tieGroup": 0}, {"pitch": 84, "vel": 73, "dur": 0.75, "tieStart": false, "tieEnd": false, "tieGroup": 0}]}, {"start": 1.5, "dur": 0.5, "rest": false, "notes": [{"pitch": 48, "vel": 81, "dur": 0.5, "tieStart": false, "tieEnd": false, "tieGroup": 0}, {"pitch": 53, "vel": 77, "dur": 0.5, "tieStart": false, "tieEnd": false, "tieGroup": 0}, {"pitch": 65, "vel": 73, "dur": 0.5, "tieStart": false, "tieEnd": false, "tieGroup": 0}]}, {"start": 2.0, "dur": 1.0, "rest": false, "notes": [{"pitch": 68, "vel": 77, "dur": 1.0, "tieStart": false, "tieEnd": false, "tieGroup": 0}, {"pitch": 75, "vel": 69, "dur": 1.0, "tieStart": false, "tieEnd": false, "tieGroup": 0}, {"pitch": 82, "vel": 65, "dur": 1.0, "tieStart": false, "tieEnd": false, "tieGroup": 0}]}, {"start": 3.0, "dur": 0.5, "rest": false, "notes": [{"pitch": 53, "vel": 89, "dur": 0.5, "tieStart": false, "tieEnd": false, "tieGroup": 0}, {"pitch": 60, "vel": 85, "dur": 0.5, "tieStart": false, "tieEnd": false, "tieGroup": 0}, {"pitch": 63, "vel": 81, "dur": 0.5, "tieStart": false, "tieEnd": false, "tieGroup": 0}, {"pitch": 65, "vel": 77, "dur": 0.5, "tieStart": false, "tieEnd": false, "tieGroup": 0}, {"pitch": 72, "vel": 73, "dur": 0.5, "tieStart": false, "tieEnd": false, "tieGroup": 0}]}, {"start": 3.5, "dur": 0.25, "rest": false, "notes": [{"pitch": 68, "vel": 85, "dur": 0.25, "tieStart": false, "tieEnd": false, "tieGroup": 0}, {"pitch": 75, "vel": 81, "dur": 0.25, "tieStart": false, "tieEnd": false, "tieGroup": 0}]}, {"start": 3.75, "dur": 0.25, "rest": false, "notes": [{"pitch": 53, "vel": 81, "dur": 0.25, "tieStart": false, "tieEnd": false, "tieGroup": 0}, {"pitch": 72, "vel": 73, "dur": 0.25, "tieStart": false, "tieEnd": false, "tieGroup": 0}, {"pitch": 75, "vel": 69, "dur": 0.25, "tieStart": false, "tieEnd": false, "tieGroup": 0}, {"pitch": 84, "vel": 65, "dur": 0.25, "tieStart": false, "tieEnd": false, "tieGroup": 0}]}]}, {"ts_num": 4, "ts_den": 4, "key_fifths": -4, "key_mode": 1, "clef": 1, "tempo": 120, "velocity": 100, "lyrics": "", "expr": [], "segs": [{"start": 0.0, "dur": 0.75, "rest": true, "notes": []}, {"start": 0.75, "dur": 1.0, "rest": false, "notes": [{"pitch": 46, "vel": 97, "dur": 1.0, "tieStart": false, "tieEnd": false, "tieGroup": 84}, {"pitch": 49, "vel": 93, "dur": 1.0, "tieStart": false, "tieEnd": false, "tieGroup": 0}, {"pitch": 53, "vel": 89, "dur": 1.0, "tieStart": false, "tieEnd": false, "tieGroup": 0}, {"pitch": 61, "vel": 85, "dur": 1.0, "tieStart": false, "tieEnd": false, "tieGroup": 0}]}, {"start": 1.75, "dur": 1.0, "rest": false, "notes": [{"pitch": 60, "vel": 89, "dur": 1.0, "tieStart": false, "tieEnd": false, "tieGroup": 0}, {"pitch": 68, "vel": 85, "dur": 1.0, "tieStart": false, "tieEnd": false, "tieGroup": 0}]}, {"start": 2.75, "dur": 0.5, "rest": false, "notes": [{"pitch": 49, "vel": 97, "dur": 0.5, "tieStart": false, "tieEnd": false, "tieGroup": 0}, {"pitch": 53, "vel": 93, "dur": 0.5, "tieStart": false, "tieEnd": false, "tieGroup": 0}, {"pitch": 65, "vel": 85, "dur": 0.5, "tieStart": false, "tieEnd": false, "tieGroup": 0}]}, {"start": 3.25, "dur": 0.5, "rest": false, "notes": [{"pitch": 68, "vel": 85, "dur": 0.5, "tieStart": false, "tieEnd": false, "tieGroup": 0}]}, {"start": 3.75, "dur": 0.25, "rest": false, "notes": [{"pitch": 49, "vel": 105, "dur": 0.25, "tieStart": false, "tieEnd": false, "tieGroup": 0}, {"pitch": 61, "vel": 101, "dur": 0.25, "tieStart": false, "tieEnd": false, "tieGroup": 0}]}]}, {"ts_num": 4, "ts_den": 4, "key_fifths": -4, "key_mode": 1, "clef": 1, "tempo": 120, "velocity": 100, "lyrics": "", "expr": [], "segs": [{"start": 0.0, "dur": 1.25, "rest": false, "notes": [{"pitch": 46, "vel": 105, "dur": 1.25, "tieStart": false, "tieEnd": false, "tieGroup": 0}, {"pitch": 49, "vel": 101, "dur": 1.25, "tieStart": false, "tieEnd": false, "tieGroup": 0}, {"pitch": 53, "vel": 97, "dur": 1.25, "tieStart": false, "tieEnd": false, "tieGroup": 0}, {"pitch": 56, "vel": 93, "dur": 1.25, "tieStart": false, "tieEnd": false, "tieGroup": 0}, {"pitch": 65, "vel": 89, "dur": 1.25, "tieStart": false, "tieEnd": false, "tieGroup": 0}]}, {"start": 1.25, "dur": 1.5, "rest": false, "notes": [{"pitch": 75, "vel": 102, "dur": 1.5, "tieStart": false, "tieEnd": false, "tieGroup": 0}]}, {"start": 2.75, "dur": 1.0, "rest": false, "notes": [{"pitch": 44, "vel": 73, "dur": 1.0, "tieStart": false, "tieEnd": false, "tieGroup": 0}, {"pitch": 46, "vel": 69, "dur": 1.0, "tieStart": false, "tieEnd": false, "tieGroup": 0}, {"pitch": 49, "vel": 65, "dur": 1.0, "tieStart": false, "tieEnd": false, "tieGroup": 0}, {"pitch": 58, "vel": 61, "dur": 1.0, "tieStart": false, "tieEnd": false, "tieGroup": 0}]}, {"start": 3.75, "dur": 0.25, "rest": false, "notes": [{"pitch": 65, "vel": 77, "dur": 0.25, "tieStart": false, "tieEnd": false, "tieGroup": 0}, {"pitch": 68, "vel": 73, "dur": 0.25, "tieStart": false, "tieEnd": false, "tieGroup": 0}]}]}, {"ts_num": 4, "ts_den": 4, "key_fifths": -4, "key_mode": 1, "clef": 1, "tempo": 120, "velocity": 100, "lyrics": "", "expr": [], "segs": [{"start": 0.0, "dur": 0.5, "rest": true, "notes": []}, {"start": 0.5, "dur": 0.25, "rest": false, "notes": [{"pitch": 49, "vel": 114, "dur": 0.25, "tieStart": false, "tieEnd": false, "tieGroup": 85}, {"pitch": 65, "vel": 110, "dur": 0.25, "tieStart": false, "tieEnd": false, "tieGroup": 0}, {"pitch": 68, "vel": 106, "dur": 0.25, "tieStart": false, "tieEnd": false, "tieGroup": 0}, {"pitch": 72, "vel": 102, "dur": 0.25, "tieStart": false, "tieEnd": false, "tieGroup": 0}, {"pitch": 80, "vel": 98, "dur": 0.25, "tieStart": false, "tieEnd": false, "tieGroup": 0}]}, {"start": 0.75, "dur": 0.5, "rest": false, "notes": [{"pitch": 70, "vel": 102, "dur": 0.5, "tieStart": false, "tieEnd": false, "tieGroup": 0}, {"pitch": 82, "vel": 98, "dur": 0.5, "tieStart": false, "tieEnd": false, "tieGroup": 0}]}, {"start": 1.25, "dur": 0.75, "rest": false, "notes": [{"pitch": 49, "vel": 114, "dur": 0.75, "tieStart": false, "tieEnd": false, "tieGroup": 0}, {"pitch": 68, "vel": 110, "dur": 0.75, "tieStart": false, "tieEnd": false, "tieGroup": 0}, {"pitch": 72, "vel": 106, "dur": 0.75, "tieStart": false, "tieEnd": false, "tieGroup": 0}, {"pitch": 73, "vel": 102, "dur": 0.75, "tieStart": false, "tieEnd": false, "tieGroup": 0}, {"pitch": 85, "vel": 98, "dur": 0.75, "tieStart": false, "tieEnd": false, "tieGroup": 0}]}, {"start": 2.0, "dur": 1.25, "rest": true, "notes": []}, {"start": 3.25, "dur": 0.25, "rest": false, "notes": [{"pitch": 65, "vel": 85, "dur": 0.25, "tieStart": false, "tieEnd": false, "tieGroup": 86}, {"pitch": 70, "vel": 77, "dur": 0.25, "tieStart": false, "tieEnd": false, "tieGroup": 0}, {"pitch": 75, "vel": 73, "dur": 0.25, "tieStart": false, "tieEnd": false, "tieGroup": 0}]}, {"start": 3.5, "dur": 0.25, "rest": false, "notes": [{"pitch": 49, "vel": 89, "dur": 0.25, "tieStart": false, "tieEnd": false, "tieGroup": 0}, {"pitch": 68, "vel": 81, "dur": 0.25, "tieStart": false, "tieEnd": false, "tieGroup": 0}, {"pitch": 72, "vel": 77, "dur": 0.25, "tieStart": false, "tieEnd": false, "tieGroup": 0}, {"pitch": 73, "vel": 73, "dur": 0.25, "tieStart": false, "tieEnd": false, "tieGroup": 0}]}, {"start": 3.75, "dur": 0.25, "rest": false, "notes": [{"pitch": 65, "vel": 85, "dur": 0.25, "tieStart": false, "tieEnd": false, "tieGroup": 0}, {"pitch": 70, "vel": 77, "dur": 0.25, "tieStart": false, "tieEnd": false, "tieGroup": 0}, {"pitch": 75, "vel": 73, "dur": 0.25, "tieStart": false, "tieEnd": false, "tieGroup": 0}]}]}, {"ts_num": 4, "ts_den": 4, "key_fifths": -4, "key_mode": 1, "clef": 1, "tempo": 120, "velocity": 100, "lyrics": "", "expr": [], "segs": [{"start": 0.0, "dur": 1.0, "rest": true, "notes": []}, {"start": 1.0, "dur": 0.5, "rest": false, "notes": [{"pitch": 44, "vel": 114, "dur": 0.5, "tieStart": false, "tieEnd": false, "tieGroup": 87}, {"pitch": 60, "vel": 110, "dur": 0.5, "tieStart": false, "tieEnd": false, "tieGroup": 0}, {"pitch": 67, "vel": 106, "dur": 0.5, "tieStart": false, "tieEnd": false, "tieGroup": 0}, {"pitch": 77, "vel": 102, "dur": 0.5, "tieStart": false, "tieEnd": false, "tieGroup": 0}]}, {"start": 1.5, "dur": 0.5, "rest": false, "notes": [{"pitch": 63, "vel": 106, "dur": 0.5, "tieStart": false, "tieEnd": false, "tieGroup": 0}, {"pitch": 65, "vel": 102, "dur": 0.5, "tieStart": false, "tieEnd": false, "tieGroup": 0}]}, {"start": 2.0, "dur": 0.5, "rest": false, "notes": [{"pitch": 44, "vel": 114, "dur": 0.5, "tieStart": false, "tieEnd": false, "tieGroup": 0}, {"pitch": 63, "vel": 110, "dur": 0.5, "tieStart": false, "tieEnd": false, "tieGroup": 0}, {"pitch": 67, "vel": 106, "dur": 0.5, "tieStart": false, "tieEnd": false, "tieGroup": 0}, {"pitch": 68, "vel": 102, "dur": 0.5, "tieStart": false, "tieEnd": false, "tieGroup": 0}, {"pitch": 80, "vel": 98, "dur": 0.5, "tieStart": false, "tieEnd": false, "tieGroup": 0}]}, {"start": 2.5, "dur": 0.5, "rest": true, "notes": []}, {"start": 3.0, "dur": 0.25, "rest": false, "notes": [{"pitch": 60, "vel": 110, "dur": 0.25, "tieStart": false, "tieEnd": false, "tieGroup": 88}, {"pitch": 65, "vel": 106, "dur": 0.25, "tieStart": false, "tieEnd": false, "tieGroup": 0}, {"pitch": 77, "vel": 102, "dur": 0.25, "tieStart": false, "tieEnd": false, "tieGroup": 0}]}, {"start": 3.25, "dur": 0.5, "rest": false, "notes": [{"pitch": 44, "vel": 81, "dur": 0.5, "tieStart": false, "tieEnd": false, "tieGroup": 0}, {"pitch": 56, "vel": 77, "dur": 0.5, "tieStart": false, "tieEnd": false, "tieGroup": 0}, {"pitch": 63, "vel": 69, "dur": 0.5, "tieStart": false, "tieEnd": false, "tieGroup": 0}, {"pitch": 70, "vel": 65, "dur": 0.5, "tieStart": false, "tieEnd": false, "tieGroup": 0}]}, {"start": 3.75, "dur": 0.25, "rest": false, "notes": [{"pitch": 60, "vel": 77, "dur": 0.25, "tieStart": false, "tieEnd": false, "tieGroup": 0}, {"pitch": 65, "vel": 69, "dur": 0.25, "tieStart": false, "tieEnd": false, "tieGroup": 0}, {"pitch": 77, "vel": 65, "dur": 0.25, "tieStart": false, "tieEnd": false, "tieGroup": 0}]}]}, {"ts_num": 4, "ts_den": 4, "key_fifths": -4, "key_mode": 1, "clef": 1, "tempo": 120, "velocity": 100, "lyrics": "", "expr": [], "segs": [{"start": 0.0, "dur": 1.25, "rest": false, "notes": [{"pitch": 53, "vel": 81, "dur": 1.25, "tieStart": false, "tieEnd": false, "tieGroup": 0}, {"pitch": 68, "vel": 77, "dur": 1.25, "tieStart": false, "tieEnd": false, "tieGroup": 0}, {"pitch": 72, "vel": 73, "dur": 1.25, "tieStart": false, "tieEnd": false, "tieGroup": 0}, {"pitch": 75, "vel": 69, "dur": 1.25, "tieStart": false, "tieEnd": false, "tieGroup": 0}, {"pitch": 84, "vel": 65, "dur": 1.25, "tieStart": false, "tieEnd": false, "tieGroup": 0}]}, {"start": 1.25, "dur": 1.25, "rest": false, "notes": [{"pitch": 75, "vel": 85, "dur": 1.25, "tieStart": false, "tieEnd": false, "tieGroup": 0}]}, {"start": 2.5, "dur": 1.5, "rest": false, "notes": [{"pitch": 53, "vel": 57, "dur": 1.5, "tieStart": false, "tieEnd": false, "tieGroup": 0}, {"pitch": 68, "vel": 53, "dur": 1.5, "tieStart": false, "tieEnd": false, "tieGroup": 0}, {"pitch": 75, "vel": 49, "dur": 1.5, "tieStart": false, "tieEnd": false, "tieGroup": 0}, {"pitch": 84, "vel": 45, "dur": 1.5, "tieStart": false, "tieEnd": false, "tieGroup": 0}]}]}, {"ts_num": 4, "ts_den": 4, "key_fifths": -4, "key_mode": 1, "clef": 1, "tempo": 120, "velocity": 100, "lyrics": "", "expr": [], "segs": [{"start": 0.0, "dur": 1.0, "rest": false, "notes": [{"pitch": 44, "vel": 114, "dur": 1.0, "tieStart": false, "tieEnd": false, "tieGroup": 0}, {"pitch": 46, "vel": 110, "dur": 1.0, "tieStart": false, "tieEnd": false, "tieGroup": 0}, {"pitch": 49, "vel": 106, "dur": 1.0, "tieStart": false, "tieEnd": false, "tieGroup": 0}, {"pitch": 56, "vel": 102, "dur": 1.0, "tieStart": false, "tieEnd": false, "tieGroup": 0}]}, {"start": 1.0, "dur": 0.5, "rest": false, "notes": [{"pitch": 44, "vel": 81, "dur": 0.5, "tieStart": false, "tieEnd": false, "tieGroup": 0}, {"pitch": 46, "vel": 77, "dur": 0.5, "tieStart": false, "tieEnd": false, "tieGroup": 0}, {"pitch": 49, "vel": 73, "dur": 0.5, "tieStart": false, "tieEnd": false, "tieGroup": 0}, {"pitch": 58, "vel": 69, "dur": 0.5, "tieStart": false, "tieEnd": false, "tieGroup": 0}]}, {"start": 1.5, "dur": 0.5, "rest": false, "notes": [{"pitch": 44, "vel": 97, "dur": 0.5, "tieStart": false, "tieEnd": false, "tieGroup": 0}, {"pitch": 55, "vel": 85, "dur": 0.5, "tieStart": false, "tieEnd": false, "tieGroup": 0}]}, {"start": 2.0, "dur": 0.5, "rest": false, "notes": [{"pitch": 44, "vel": 105, "dur": 0.5, "tieStart": false, "tieEnd": false, "tieGroup": 0}, {"pitch": 46, "vel": 101, "dur": 0.5, "tieStart": false, "tieEnd": false, "tieGroup": 0}, {"pitch": 49, "vel": 97, "dur": 0.5, "tieStart": false, "tieEnd": false, "tieGroup": 0}]}, {"start": 2.5, "dur": 0.5, "rest": false, "notes": [{"pitch": 44, "vel": 97, "dur": 0.5, "tieStart": false, "tieEnd": false, "tieGroup": 0}, {"pitch": 55, "vel": 85, "dur": 0.5, "tieStart": false, "tieEnd": false, "tieGroup": 0}]}, {"start": 3.0, "dur": 0.5, "rest": false, "notes": [{"pitch": 44, "vel": 97, "dur": 0.5, "tieStart": false, "tieEnd": false, "tieGroup": 0}, {"pitch": 46, "vel": 93, "dur": 0.5, "tieStart": false, "tieEnd": false, "tieGroup": 0}, {"pitch": 49, "vel": 89, "dur": 0.5, "tieStart": false, "tieEnd": false, "tieGroup": 0}, {"pitch": 53, "vel": 85, "dur": 0.5, "tieStart": false, "tieEnd": false, "tieGroup": 0}]}, {"start": 3.5, "dur": 0.25, "rest": false, "notes": [{"pitch": 44, "vel": 97, "dur": 0.25, "tieStart": false, "tieEnd": false, "tieGroup": 0}, {"pitch": 53, "vel": 85, "dur": 0.25, "tieStart": false, "tieEnd": false, "tieGroup": 0}]}, {"start": 3.75, "dur": 0.25, "rest": false, "notes": [{"pitch": 44, "vel": 114, "dur": 0.25, "tieStart": false, "tieEnd": false, "tieGroup": 0}, {"pitch": 46, "vel": 110, "dur": 0.25, "tieStart": false, "tieEnd": false, "tieGroup": 0}, {"pitch": 49, "vel": 106, "dur": 0.25, "tieStart": false, "tieEnd": false, "tieGroup": 0}, {"pitch": 55, "vel": 102, "dur": 0.25, "tieStart": false, "tieEnd": false, "tieGroup": 0}]}]}, {"ts_num": 4, "ts_den": 4, "key_fifths": -4, "key_mode": 1, "clef": 1, "tempo": 120, "velocity": 100, "lyrics": "", "expr": [], "segs": [{"start": 0.0, "dur": 1.5, "rest": true, "notes": []}, {"start": 1.5, "dur": 2.5, "rest": false, "notes": [{"pitch": 49, "vel": 50, "dur": 2.5, "tieStart": false, "tieEnd": false, "tieGroup": 89}, {"pitch": 61, "vel": 46, "dur": 2.5, "tieStart": false, "tieEnd": false, "tieGroup": 0}, {"pitch": 68, "vel": 42, "dur": 2.5, "tieStart": false, "tieEnd": false, "tieGroup": 0}, {"pitch": 80, "vel": 38, "dur": 2.5, "tieStart": false, "tieEnd": false, "tieGroup": 0}]}]}, {"ts_num": 4, "ts_den": 4, "key_fifths": -4, "key_mode": 1, "clef": 1, "tempo": 120, "velocity": 100, "lyrics": "", "expr": [], "segs": [{"start": 0.0, "dur": 4.0, "rest": false, "notes": [{"pitch": 53, "vel": 89, "dur": 4.0, "tieStart": false, "tieEnd": false, "tieGroup": 0}, {"pitch": 68, "vel": 85, "dur": 4.0, "tieStart": false, "tieEnd": false, "tieGroup": 0}, {"pitch": 72, "vel": 81, "dur": 4.0, "tieStart": false, "tieEnd": false, "tieGroup": 0}, {"pitch": 75, "vel": 77, "dur": 4.0, "tieStart": false, "tieEnd": false, "tieGroup": 0}, {"pitch": 84, "vel": 73, "dur": 4.0, "tieStart": false, "tieEnd": false, "tieGroup": 0}]}]}, {"ts_num": 4, "ts_den": 4, "key_fifths": -4, "key_mode": 1, "clef": 1, "tempo": 120, "velocity": 100, "lyrics": "", "expr": [], "segs": [{"start": 0.0, "dur": 0.75, "rest": true, "notes": []}, {"start": 0.75, "dur": 0.5, "rest": false, "notes": [{"pitch": 49, "vel": 89, "dur": 0.5, "tieStart": false, "tieEnd": false, "tieGroup": 90}, {"pitch": 53, "vel": 85, "dur": 0.5, "tieStart": false, "tieEnd": false, "tieGroup": 0}, {"pitch": 56, "vel": 81, "dur": 0.5, "tieStart": false, "tieEnd": false, "tieGroup": 0}, {"pitch": 60, "vel": 77, "dur": 0.5, "tieStart": false, "tieEnd": false, "tieGroup": 0}, {"pitch": 68, "vel": 73, "dur": 0.5, "tieStart": false, "tieEnd": false, "tieGroup": 0}]}, {"start": 1.25, "dur": 0.5, "rest": false, "notes": [{"pitch": 70, "vel": 73, "dur": 0.5, "tieStart": false, "tieEnd": false, "tieGroup": 0}, {"pitch": 75, "vel": 69, "dur": 0.5, "tieStart": false, "tieEnd": false, "tieGroup": 0}]}, {"start": 1.75, "dur": 2.25, "rest": false, "notes": [{"pitch": 49, "vel": 73, "dur": 2.25, "tieStart": false, "tieEnd": false, "tieGroup": 0}, {"pitch": 65, "vel": 69, "dur": 2.25, "tieStart": false, "tieEnd": false, "tieGroup": 0}, {"pitch": 68, "vel": 65, "dur": 2.25, "tieStart": false, "tieEnd": false, "tieGroup": 0}, {"pitch": 72, "vel": 61, "dur": 2.25, "tieStart": false, "tieEnd": false, "tieGroup": 0}, {"pitch": 80, "vel": 57, "dur": 2.25, "tieStart": false, "tieEnd": false, "tieGroup": 0}]}]}, {"ts_num": 4, "ts_den": 4, "key_fifths": -4, "key_mode": 1, "clef": 1, "tempo": 120, "velocity": 100, "lyrics": "", "expr": [], "segs": [{"start": 0.0, "dur": 0.25, "rest": false, "notes": [{"pitch": 44, "vel": 73, "dur": 0.25, "tieStart": false, "tieEnd": false, "tieGroup": 0}, {"pitch": 51, "vel": 69, "dur": 0.25, "tieStart": false, "tieEnd": false, "tieGroup": 0}, {"pitch": 58, "vel": 65, "dur": 0.25, "tieStart": false, "tieEnd": false, "tieGroup": 0}]}, {"start": 0.25, "dur": 0.5, "rest": false, "notes": [{"pitch": 44, "vel": 89, "dur": 0.5, "tieStart": false, "tieEnd": false, "tieGroup": 0}, {"pitch": 55, "vel": 85, "dur": 0.5, "tieStart": false, "tieEnd": false, "tieGroup": 0}, {"pitch": 56, "vel": 81, "dur": 0.5, "tieStart": false, "tieEnd": false, "tieGroup": 0}, {"pitch": 60, "vel": 77, "dur": 0.5, "tieStart": false, "tieEnd": false, "tieGroup": 0}, {"pitch": 70, "vel": 73, "dur": 0.5, "tieStart": false, "tieEnd": false, "tieGroup": 0}]}, {"start": 0.75, "dur": 0.5, "rest": false, "notes": [{"pitch": 51, "vel": 65, "dur": 0.5, "tieStart": false, "tieEnd": false, "tieGroup": 0}]}, {"start": 1.25, "dur": 0.5, "rest": false, "notes": [{"pitch": 43, "vel": 81, "dur": 0.5, "tieStart": false, "tieEnd": false, "tieGroup": 0}, {"pitch": 44, "vel": 77, "dur": 0.5, "tieStart": false, "tieEnd": false, "tieGroup": 0}, {"pitch": 48, "vel": 73, "dur": 0.5, "tieStart": false, "tieEnd": false, "tieGroup": 0}, {"pitch": 55, "vel": 69, "dur": 0.5, "tieStart": false, "tieEnd": false, "tieGroup": 0}]}, {"start": 1.75, "dur": 0.75, "rest": false, "notes": [{"pitch": 51, "vel": 81, "dur": 0.75, "tieStart": false, "tieEnd": false, "tieGroup": 0}]}, {"start": 2.5, "dur": 0.75, "rest": false, "notes": [{"pitch": 44, "vel": 81, "dur": 0.75, "tieStart": false, "tieEnd": false, "tieGroup": 0}, {"pitch": 60, "vel": 77, "dur": 0.75, "tieStart": false, "tieEnd": false, "tieGroup": 0}, {"pitch": 63, "vel": 73, "dur": 0.75, "tieStart": false, "tieEnd": false, "tieGroup": 0}, {"pitch": 67, "vel": 69, "dur": 0.75, "tieStart": false, "tieEnd": false, "tieGroup": 0}, {"pitch": 70, "vel": 65, "dur": 0.75, "tieStart": false, "tieEnd": false, "tieGroup": 0}]}, {"start": 3.25, "dur": 0.75, "rest": false, "notes": [{"pitch": 65, "vel": 65, "dur": 0.75, "tieStart": false, "tieEnd": false, "tieGroup": 0}]}]}, {"ts_num": 4, "ts_den": 4, "key_fifths": -4, "key_mode": 1, "clef": 1, "tempo": 120, "velocity": 100, "lyrics": "", "expr": [], "segs": [{"start": 0.0, "dur": 0.25, "rest": true, "notes": []}, {"start": 0.25, "dur": 3.75, "rest": false, "notes": [{"pitch": 44, "vel": 81, "dur": 3.75, "tieStart": false, "tieEnd": false, "tieGroup": 91}, {"pitch": 48, "vel": 77, "dur": 3.75, "tieStart": false, "tieEnd": false, "tieGroup": 0}, {"pitch": 51, "vel": 73, "dur": 3.75, "tieStart": false, "tieEnd": false, "tieGroup": 0}, {"pitch": 53, "vel": 69, "dur": 3.75, "tieStart": false, "tieEnd": false, "tieGroup": 0}]}]}, {"ts_num": 4, "ts_den": 4, "key_fifths": -4, "key_mode": 1, "clef": 1, "tempo": 120, "velocity": 100, "lyrics": "", "expr": [], "segs": [{"start": 0.0, "dur": 0.25, "rest": false, "notes": [{"pitch": 46, "vel": 113, "dur": 0.25, "tieStart": false, "tieEnd": false, "tieGroup": 0}, {"pitch": 58, "vel": 109, "dur": 0.25, "tieStart": false, "tieEnd": false, "tieGroup": 0}, {"pitch": 61, "vel": 105, "dur": 0.25, "tieStart": false, "tieEnd": false, "tieGroup": 0}, {"pitch": 65, "vel": 101, "dur": 0.25, "tieStart": false, "tieEnd": false, "tieGroup": 0}, {"pitch": 68, "vel": 97, "dur": 0.25, "tieStart": false, "tieEnd": false, "tieGroup": 0}]}, {"start": 0.25, "dur": 0.25, "rest": false, "notes": [{"pitch": 46, "vel": 89, "dur": 0.25, "tieStart": false, "tieEnd": false, "tieGroup": 0}, {"pitch": 58, "vel": 85, "dur": 0.25, "tieStart": false, "tieEnd": false, "tieGroup": 0}, {"pitch": 61, "vel": 81, "dur": 0.25, "tieStart": false, "tieEnd": false, "tieGroup": 0}, {"pitch": 65, "vel": 77, "dur": 0.25, "tieStart": false, "tieEnd": false, "tieGroup": 0}, {"pitch": 70, "vel": 73, "dur": 0.25, "tieStart": false, "tieEnd": false, "tieGroup": 0}]}, {"start": 0.5, "dur": 0.25, "rest": false, "notes": [{"pitch": 75, "vel": 65, "dur": 0.25, "tieStart": false, "tieEnd": false, "tieGroup": 0}]}, {"start": 0.75, "dur": 0.5, "rest": false, "notes": [{"pitch": 46, "vel": 81, "dur": 0.5, "tieStart": false, "tieEnd": false, "tieGroup": 0}, {"pitch": 58, "vel": 77, "dur": 0.5, "tieStart": false, "tieEnd": false, "tieGroup": 0}, {"pitch": 61, "vel": 73, "dur": 0.5, "tieStart": false, "tieEnd": false, "tieGroup": 0}, {"pitch": 65, "vel": 69, "dur": 0.5, "tieStart": false, "tieEnd": false, "tieGroup": 0}, {"pitch": 73, "vel": 65, "dur": 0.5, "tieStart": false, "tieEnd": false, "tieGroup": 0}]}, {"start": 1.25, "dur": 2.75, "rest": false, "notes": [{"pitch": 46, "vel": 73, "dur": 2.75, "tieStart": false, "tieEnd": false, "tieGroup": 0}, {"pitch": 58, "vel": 69, "dur": 2.75, "tieStart": false, "tieEnd": false, "tieGroup": 0}, {"pitch": 61, "vel": 65, "dur": 2.75, "tieStart": false, "tieEnd": false, "tieGroup": 0}, {"pitch": 65, "vel": 61, "dur": 2.75, "tieStart": false, "tieEnd": false, "tieGroup": 0}, {"pitch": 70, "vel": 57, "dur": 2.75, "tieStart": false, "tieEnd": false, "tieGroup": 0}]}]}, {"ts_num": 4, "ts_den": 4, "key_fifths": -4, "key_mode": 1, "clef": 1, "tempo": 120, "velocity": 100, "lyrics": "", "expr": [], "segs": [{"start": 0.0, "dur": 1.5, "rest": true, "notes": []}, {"start": 1.5, "dur": 0.25, "rest": false, "notes": [{"pitch": 49, "vel": 89, "dur": 0.25, "tieStart": false, "tieEnd": false, "tieGroup": 92}, {"pitch": 68, "vel": 85, "dur": 0.25, "tieStart": false, "tieEnd": false, "tieGroup": 0}, {"pitch": 72, "vel": 81, "dur": 0.25, "tieStart": false, "tieEnd": false, "tieGroup": 0}, {"pitch": 73, "vel": 77, "dur": 0.25, "tieStart": false, "tieEnd": false, "tieGroup": 0}, {"pitch": 85, "vel": 73, "dur": 0.25, "tieStart": false, "tieEnd": false, "tieGroup": 0}]}, {"start": 1.75, "dur": 0.25, "rest": false, "notes": [{"pitch": 70, "vel": 81, "dur": 0.25, "tieStart": false, "tieEnd": false, "tieGroup": 0}]}, {"start": 2.0, "dur": 0.25, "rest": false, "notes": [{"pitch": 49, "vel": 81, "dur": 0.25, "tieStart": false, "tieEnd": false, "tieGroup": 0}, {"pitch": 68, "vel": 77, "dur": 0.25, "tieStart": false, "tieEnd": false, "tieGroup": 0}, {"pitch": 72, "vel": 73, "dur": 0.25, "tieStart": false, "tieEnd": false, "tieGroup": 0}, {"pitch": 73, "vel": 69, "dur": 0.25, "tieStart": false, "tieEnd": false, "tieGroup": 0}, {"pitch": 85, "vel": 65, "dur": 0.25, "tieStart": false, "tieEnd": false, "tieGroup": 0}]}, {"start": 2.25, "dur": 0.25, "rest": false, "notes": [{"pitch": 70, "vel": 73, "dur": 0.25, "tieStart": false, "tieEnd": false, "tieGroup": 0}]}, {"start": 2.5, "dur": 0.5, "rest": true, "notes": []}, {"start": 3.0, "dur": 0.25, "rest": false, "notes": [{"pitch": 49, "vel": 81, "dur": 0.25, "tieStart": false, "tieEnd": false, "tieGroup": 93}, {"pitch": 65, "vel": 77, "dur": 0.25, "tieStart": false, "tieEnd": false, "tieGroup": 0}, {"pitch": 68, "vel": 73, "dur": 0.25, "tieStart": false, "tieEnd": false, "tieGroup": 0}, {"pitch": 72, "vel": 69, "dur": 0.25, "tieStart": false, "tieEnd": false, "tieGroup": 0}, {"pitch": 73, "vel": 65, "dur": 0.25, "tieStart": false, "tieEnd": false, "tieGroup": 0}]}, {"start": 3.25, "dur": 0.25, "rest": false, "notes": [{"pitch": 70, "vel": 69, "dur": 0.25, "tieStart": false, "tieEnd": false, "tieGroup": 0}, {"pitch": 75, "vel": 65, "dur": 0.25, "tieStart": false, "tieEnd": false, "tieGroup": 0}]}, {"start": 3.5, "dur": 0.5, "rest": false, "notes": [{"pitch": 49, "vel": 97, "dur": 0.5, "tieStart": false, "tieEnd": false, "tieGroup": 0}, {"pitch": 65, "vel": 93, "dur": 0.5, "tieStart": false, "tieEnd": false, "tieGroup": 0}, {"pitch": 68, "vel": 89, "dur": 0.5, "tieStart": false, "tieEnd": false, "tieGroup": 0}, {"pitch": 72, "vel": 85, "dur": 0.5, "tieStart": false, "tieEnd": false, "tieGroup": 0}, {"pitch": 80, "vel": 81, "dur": 0.5, "tieStart": false, "tieEnd": false, "tieGroup": 0}]}]}, {"ts_num": 4, "ts_den": 4, "key_fifths": -4, "key_mode": 1, "clef": 1, "tempo": 120, "velocity": 100, "lyrics": "", "expr": [], "segs": [{"start": 0.0, "dur": 1.0, "rest": true, "notes": []}, {"start": 1.0, "dur": 0.5, "rest": false, "notes": [{"pitch": 44, "vel": 114, "dur": 0.5, "tieStart": false, "tieEnd": false, "tieGroup": 94}, {"pitch": 48, "vel": 110, "dur": 0.5, "tieStart": false, "tieEnd": false, "tieGroup": 0}, {"pitch": 51, "vel": 106, "dur": 0.5, "tieStart": false, "tieEnd": false, "tieGroup": 0}, {"pitch": 53, "vel": 102, "dur": 0.5, "tieStart": false, "tieEnd": false, "tieGroup": 0}, {"pitch": 55, "vel": 98, "dur": 0.5, "tieStart": false, "tieEnd": false, "tieGroup": 0}]}, {"start": 1.5, "dur": 0.5, "rest": true, "notes": []}, {"start": 2.0, "dur": 0.75, "rest": false, "notes": [{"pitch": 44, "vel": 114, "dur": 0.75, "tieStart": false, "tieEnd": false, "tieGroup": 95}, {"pitch": 48, "vel": 110, "dur": 0.75, "tieStart": false, "tieEnd": false, "tieGroup": 0}, {"pitch": 51, "vel": 106, "dur": 0.75, "tieStart": false, "tieEnd": false, "tieGroup": 0}, {"pitch": 53, "vel": 102, "dur": 0.75, "tieStart": false, "tieEnd": false, "tieGroup": 0}, {"pitch": 55, "vel": 98, "dur": 0.75, "tieStart": false, "tieEnd": false, "tieGroup": 0}]}, {"start": 2.75, "dur": 0.75, "rest": false, "notes": [{"pitch": 51, "vel": 110, "dur": 0.75, "tieStart": false, "tieEnd": false, "tieGroup": 0}]}, {"start": 3.5, "dur": 0.25, "rest": false, "notes": [{"pitch": 48, "vel": 73, "dur": 0.25, "tieStart": false, "tieEnd": false, "tieGroup": 0}, {"pitch": 51, "vel": 69, "dur": 0.25, "tieStart": false, "tieEnd": false, "tieGroup": 0}, {"pitch": 53, "vel": 65, "dur": 0.25, "tieStart": false, "tieEnd": false, "tieGroup": 0}]}, {"start": 3.75, "dur": 0.25, "rest": false, "notes": [{"pitch": 56, "vel": 53, "dur": 0.25, "tieStart": false, "tieEnd": false, "tieGroup": 0}, {"pitch": 63, "vel": 45, "dur": 0.25, "tieStart": false, "tieEnd": false, "tieGroup": 0}, {"pitch": 70, "vel": 41, "dur": 0.25, "tieStart": false, "tieEnd": false, "tieGroup": 0}]}]}, {"ts_num": 4, "ts_den": 4, "key_fifths": -4, "key_mode": 1, "clef": 1, "tempo": 120, "velocity": 100, "lyrics": "", "expr": [], "segs": [{"start": 0.0, "dur": 0.5, "rest": false, "notes": [{"pitch": 51, "vel": 97, "dur": 0.5, "tieStart": false, "tieEnd": false, "tieGroup": 0}, {"pitch": 53, "vel": 93, "dur": 0.5, "tieStart": false, "tieEnd": false, "tieGroup": 0}, {"pitch": 56, "vel": 89, "dur": 0.5, "tieStart": false, "tieEnd": false, "tieGroup": 0}, {"pitch": 68, "vel": 85, "dur": 0.5, "tieStart": false, "tieEnd": false, "tieGroup": 0}]}, {"start": 0.5, "dur": 0.5, "rest": false, "notes": [{"pitch": 75, "vel": 89, "dur": 0.5, "tieStart": false, "tieEnd": false, "tieGroup": 0}, {"pitch": 84, "vel": 85, "dur": 0.5, "tieStart": false, "tieEnd": false, "tieGroup": 0}]}, {"start": 1.0, "dur": 0.5, "rest": false, "notes": [{"pitch": 53, "vel": 97, "dur": 0.5, "tieStart": false, "tieEnd": false, "tieGroup": 0}, {"pitch": 68, "vel": 93, "dur": 0.5, "tieStart": false, "tieEnd": false, "tieGroup": 0}, {"pitch": 75, "vel": 85, "dur": 0.5, "tieStart": false, "tieEnd": false, "tieGroup": 0}]}, {"start": 1.5, "dur": 0.5, "rest": false, "notes": [{"pitch": 72, "vel": 85, "dur": 0.5, "tieStart": false, "tieEnd": false, "tieGroup": 0}]}, {"start": 2.0, "dur": 0.5, "rest": false, "notes": [{"pitch": 53, "vel": 97, "dur": 0.5, "tieStart": false, "tieEnd": false, "tieGroup": 0}, {"pitch": 68, "vel": 93, "dur": 0.5, "tieStart": false, "tieEnd": false, "tieGroup": 0}, {"pitch": 75, "vel": 89, "dur": 0.5, "tieStart": false, "tieEnd": false, "tieGroup": 0}, {"pitch": 84, "vel": 85, "dur": 0.5, "tieStart": false, "tieEnd": false, "tieGroup": 0}]}, {"start": 2.5, "dur": 0.5, "rest": false, "notes": [{"pitch": 53, "vel": 105, "dur": 0.5, "tieStart": false, "tieEnd": false, "tieGroup": 0}, {"pitch": 65, "vel": 101, "dur": 0.5, "tieStart": false, "tieEnd": false, "tieGroup": 0}, {"pitch": 68, "vel": 97, "dur": 0.5, "tieStart": false, "tieEnd": false, "tieGroup": 0}, {"pitch": 72, "vel": 93, "dur": 0.5, "tieStart": false, "tieEnd": false, "tieGroup": 0}, {"pitch": 77, "vel": 89, "dur": 0.5, "tieStart": false, "tieEnd": false, "tieGroup": 0}]}, {"start": 3.0, "dur": 0.5, "rest": false, "notes": [{"pitch": 75, "vel": 85, "dur": 0.5, "tieStart": false, "tieEnd": false, "tieGroup": 0}]}, {"start": 3.5, "dur": 0.5, "rest": false, "notes": [{"pitch": 53, "vel": 97, "dur": 0.5, "tieStart": false, "tieEnd": false, "tieGroup": 0}, {"pitch": 68, "vel": 93, "dur": 0.5, "tieStart": false, "tieEnd": false, "tieGroup": 0}, {"pitch": 75, "vel": 89, "dur": 0.5, "tieStart": false, "tieEnd": false, "tieGroup": 0}, {"pitch": 84, "vel": 85, "dur": 0.5, "tieStart": false, "tieEnd": false, "tieGroup": 0}]}]}, {"ts_num": 4, "ts_den": 4, "key_fifths": -4, "key_mode": 1, "clef": 1, "tempo": 120, "velocity": 100, "lyrics": "", "expr": [], "segs": [{"start": 0.0, "dur": 1.0, "rest": false, "notes": [{"pitch": 53, "vel": 97, "dur": 1.0, "tieStart": false, "tieEnd": false, "tieGroup": 0}, {"pitch": 56, "vel": 93, "dur": 1.0, "tieStart": false, "tieEnd": false, "tieGroup": 0}, {"pitch": 68, "vel": 89, "dur": 1.0, "tieStart": false, "tieEnd": false, "tieGroup": 0}]}, {"start": 1.0, "dur": 0.75, "rest": false, "notes": [{"pitch": 72, "vel": 85, "dur": 0.75, "tieStart": false, "tieEnd": false, "tieGroup": 0}, {"pitch": 75, "vel": 81, "dur": 0.75, "tieStart": false, "tieEnd": false, "tieGroup": 0}]}, {"start": 1.75, "dur": 1.0, "rest": false, "notes": [{"pitch": 53, "vel": 73, "dur": 1.0, "tieStart": false, "tieEnd": false, "tieGroup": 0}, {"pitch": 65, "vel": 69, "dur": 1.0, "tieStart": false, "tieEnd": false, "tieGroup": 0}, {"pitch": 68, "vel": 65, "dur": 1.0, "tieStart": false, "tieEnd": false, "tieGroup": 0}, {"pitch": 70, "vel": 61, "dur": 1.0, "tieStart": false, "tieEnd": false, "tieGroup": 0}]}, {"start": 2.75, "dur": 1.0, "rest": false, "notes": [{"pitch": 53, "vel": 89, "dur": 1.0, "tieStart": false, "tieEnd": false, "tieGroup": 0}, {"pitch": 68, "vel": 85, "dur": 1.0, "tieStart": false, "tieEnd": false, "tieGroup": 0}, {"pitch": 72, "vel": 81, "dur": 1.0, "tieStart": false, "tieEnd": false, "tieGroup": 0}, {"pitch": 84, "vel": 77, "dur": 1.0, "tieStart": false, "tieEnd": false, "tieGroup": 0}]}, {"start": 3.75, "dur": 0.25, "rest": false, "notes": [{"pitch": 53, "vel": 73, "dur": 0.25, "tieStart": false, "tieEnd": false, "tieGroup": 0}, {"pitch": 65, "vel": 69, "dur": 0.25, "tieStart": false, "tieEnd": false, "tieGroup": 0}, {"pitch": 68, "vel": 65, "dur": 0.25, "tieStart": false, "tieEnd": false, "tieGroup": 0}, {"pitch": 72, "vel": 61, "dur": 0.25, "tieStart": false, "tieEnd": false, "tieGroup": 0}]}]}, {"ts_num": 4, "ts_den": 4, "key_fifths": -4, "key_mode": 1, "clef": 1, "tempo": 120, "velocity": 100, "lyrics": "", "expr": [], "segs": [{"start": 0.0, "dur": 3.5, "rest": false, "notes": [{"pitch": 44, "vel": 73, "dur": 3.5, "tieStart": false, "tieEnd": false, "tieGroup": 0}, {"pitch": 48, "vel": 69, "dur": 3.5, "tieStart": false, "tieEnd": false, "tieGroup": 0}, {"pitch": 53, "vel": 65, "dur": 3.5, "tieStart": false, "tieEnd": false, "tieGroup": 0}, {"pitch": 60, "vel": 61, "dur": 3.5, "tieStart": false, "tieEnd": false, "tieGroup": 0}]}, {"start": 3.5, "dur": 0.5, "rest": false, "notes": [{"pitch": 53, "vel": 89, "dur": 0.5, "tieStart": false, "tieEnd": false, "tieGroup": 0}, {"pitch": 60, "vel": 85, "dur": 0.5, "tieStart": false, "tieEnd": false, "tieGroup": 0}, {"pitch": 65, "vel": 81, "dur": 0.5, "tieStart": false, "tieEnd": false, "tieGroup": 0}, {"pitch": 67, "vel": 77, "dur": 0.5, "tieStart": false, "tieEnd": false, "tieGroup": 0}, {"pitch": 77, "vel": 73, "dur": 0.5, "tieStart": false, "tieEnd": false, "tieGroup": 0}]}]}, {"ts_num": 4, "ts_den": 4, "key_fifths": -4, "key_mode": 1, "clef": 1, "tempo": 120, "velocity": 100, "lyrics": "", "expr": [], "segs": [{"start": 0.0, "dur": 4.0, "rest": true, "notes": []}]}, {"ts_num": 4, "ts_den": 4, "key_fifths": -4, "key_mode": 1, "clef": 1, "tempo": 120, "velocity": 100, "lyrics": "", "expr": [], "segs": [{"start": 0.0, "dur": 4.0, "rest": true, "notes": []}]}]}, {"name": "Accomp AI Delicate", "instrument": {"name": "Stereo Grand", "bankMSB": 0, "bankLSB": 0, "program": 0, "channelHint": -1, "percussion": false, "volume": 107, "pan": 64, "transpose": 0}, "measures": [{"ts_num": 4, "ts_den": 4, "key_fifths": -4, "key_mode": 1, "clef": 1, "tempo": 120, "velocity": 100, "lyrics": "", "expr": [], "segs": [{"start": 0.0, "dur": 1.0, "rest": false, "notes": [{"pitch": 39, "vel": 89, "dur": 1.0, "tieStart": false, "tieEnd": false, "tieGroup": 0}, {"pitch": 44, "vel": 85, "dur": 1.0, "tieStart": false, "tieEnd": false, "tieGroup": 0}, {"pitch": 53, "vel": 81, "dur": 1.0, "tieStart": false, "tieEnd": false, "tieGroup": 0}]}, {"start": 1.0, "dur": 1.0, "rest": false, "notes": [{"pitch": 53, "vel": 89, "dur": 1.0, "tieStart": false, "tieEnd": false, "tieGroup": 0}, {"pitch": 56, "vel": 85, "dur": 1.0, "tieStart": false, "tieEnd": false, "tieGroup": 0}, {"pitch": 63, "vel": 81, "dur": 1.0, "tieStart": false, "tieEnd": false, "tieGroup": 0}]}, {"start": 2.0, "dur": 0.5, "rest": false, "notes": [{"pitch": 43, "vel": 89, "dur": 0.5, "tieStart": false, "tieEnd": false, "tieGroup": 0}]}, {"start": 2.5, "dur": 1.0, "rest": false, "notes": [{"pitch": 56, "vel": 89, "dur": 1.0, "tieStart": false, "tieEnd": false, "tieGroup": 0}, {"pitch": 60, "vel": 85, "dur": 1.0, "tieStart": false, "tieEnd": false, "tieGroup": 0}]}, {"start": 3.5, "dur": 0.5, "rest": true, "notes": []}]}, {"ts_num": 4, "ts_den": 4, "key_fifths": -4, "key_mode": 1, "clef": 1, "tempo": 120, "velocity": 100, "lyrics": "", "expr": [], "segs": [{"start": 0.0, "dur": 3.5, "rest": false, "notes": [{"pitch": 49, "vel": 73, "dur": 3.5, "tieStart": false, "tieEnd": false, "tieGroup": 0}, {"pitch": 65, "vel": 69, "dur": 3.5, "tieStart": false, "tieEnd": false, "tieGroup": 0}, {"pitch": 68, "vel": 65, "dur": 3.5, "tieStart": false, "tieEnd": false, "tieGroup": 0}]}, {"start": 3.5, "dur": 0.5, "rest": false, "notes": [{"pitch": 61, "vel": 81, "dur": 0.5, "tieStart": false, "tieEnd": false, "tieGroup": 0}]}]}, {"ts_num": 4, "ts_den": 4, "key_fifths": -4, "key_mode": 1, "clef": 1, "tempo": 120, "velocity": 100, "lyrics": "", "expr": [], "segs": [{"start": 0.0, "dur": 1.0, "rest": false, "notes": [{"pitch": 39, "vel": 104, "dur": 1.0, "tieStart": false, "tieEnd": false, "tieGroup": 0}, {"pitch": 41, "vel": 100, "dur": 1.0, "tieStart": false, "tieEnd": false, "tieGroup": 0}, {"pitch": 44, "vel": 96, "dur": 1.0, "tieStart": false, "tieEnd": false, "tieGroup": 0}]}, {"start": 1.0, "dur": 1.0, "rest": false, "notes": [{"pitch": 39, "vel": 104, "dur": 1.0, "tieStart": false, "tieEnd": false, "tieGroup": 0}, {"pitch": 41, "vel": 100, "dur": 1.0, "tieStart": false, "tieEnd": false, "tieGroup": 0}, {"pitch": 44, "vel": 96, "dur": 1.0, "tieStart": false, "tieEnd": false, "tieGroup": 0}]}, {"start": 2.0, "dur": 0.5, "rest": false, "notes": [{"pitch": 72, "vel": 104, "dur": 0.5, "tieStart": false, "tieEnd": false, "tieGroup": 0}]}, {"start": 2.5, "dur": 0.5, "rest": false, "notes": [{"pitch": 84, "vel": 89, "dur": 0.5, "tieStart": false, "tieEnd": false, "tieGroup": 0}]}, {"start": 3.0, "dur": 1.0, "rest": true, "notes": []}]}, {"ts_num": 4, "ts_den": 4, "key_fifths": -4, "key_mode": 1, "clef": 1, "tempo": 120, "velocity": 100, "lyrics": "", "expr": [], "segs": [{"start": 0.0, "dur": 3.0, "rest": true, "notes": []}, {"start": 3.0, "dur": 0.25, "rest": false, "notes": [{"pitch": 53, "vel": 81, "dur": 0.25, "tieStart": false, "tieEnd": false, "tieGroup": 97}, {"pitch": 72, "vel": 77, "dur": 0.25, "tieStart": false, "tieEnd": false, "tieGroup": 0}]}, {"start": 3.25, "dur": 0.5, "rest": false, "notes": [{"pitch": 53, "vel": 89, "dur": 0.5, "tieStart": false, "tieEnd": false, "tieGroup": 0}, {"pitch": 68, "vel": 85, "dur": 0.5, "tieStart": false, "tieEnd": false, "tieGroup": 0}, {"pitch": 75, "vel": 81, "dur": 0.5, "tieStart": false, "tieEnd": false, "tieGroup": 0}]}, {"start": 3.75, "dur": 0.25, "rest": false, "notes": [{"pitch": 65, "vel": 73, "dur": 0.25, "tieStart": false, "tieEnd": false, "tieGroup": 0}]}]}, {"ts_num": 4, "ts_den": 4, "key_fifths": -4, "key_mode": 1, "clef": 1, "tempo": 120, "velocity": 100, "lyrics": "", "expr": [], "segs": [{"start": 0.0, "dur": 3.25, "rest": true, "notes": []}, {"start": 3.25, "dur": 0.75, "rest": false, "notes": [{"pitch": 68, "vel": 73, "dur": 0.75, "tieStart": false, "tieEnd": false, "tieGroup": 98}, {"pitch": 80, "vel": 69, "dur": 0.75, "tieStart": false, "tieEnd": false, "tieGroup": 0}]}]}, {"ts_num": 4, "ts_den": 4, "key_fifths": -4, "key_mode": 1, "clef": 1, "tempo": 120, "velocity": 100, "lyrics": "", "expr": [], "segs": [{"start": 0.0, "dur": 0.5, "rest": true, "notes": []}, {"start": 0.5, "dur": 0.25, "rest": false, "notes": [{"pitch": 53, "vel": 104, "dur": 0.25, "tieStart": false, "tieEnd": false, "tieGroup": 99}, {"pitch": 56, "vel": 100, "dur": 0.25, "tieStart": false, "tieEnd": false, "tieGroup": 0}]}, {"start": 0.75, "dur": 2.75, "rest": true, "notes": []}, {"start": 3.5, "dur": 0.25, "rest": false, "notes": [{"pitch": 72, "vel": 89, "dur": 0.25, "tieStart": false, "tieEnd": false, "tieGroup": 100}]}, {"start": 3.75, "dur": 0.25, "rest": false, "notes": [{"pitch": 80, "vel": 81, "dur": 0.25, "tieStart": false, "tieEnd": false, "tieGroup": 0}]}]}, {"ts_num": 4, "ts_den": 4, "key_fifths": -4, "key_mode": 1, "clef": 1, "tempo": 120, "velocity": 100, "lyrics": "", "expr": [], "segs": [{"start": 0.0, "dur": 0.25, "rest": false, "notes": [{"pitch": 46, "vel": 104, "dur": 0.25, "tieStart": false, "tieEnd": false, "tieGroup": 0}, {"pitch": 65, "vel": 100, "dur": 0.25, "tieStart": false, "tieEnd": false, "tieGroup": 0}]}, {"start": 0.25, "dur": 0.25, "rest": false, "notes": [{"pitch": 49, "vel": 104, "dur": 0.25, "tieStart": false, "tieEnd": false, "tieGroup": 0}, {"pitch": 58, "vel": 100, "dur": 0.25, "tieStart": false, "tieEnd": false, "tieGroup": 0}]}, {"start": 0.5, "dur": 3.0, "rest": true, "notes": []}, {"start": 3.5, "dur": 0.25, "rest": false, "notes": [{"pitch": 63, "vel": 104, "dur": 0.25, "tieStart": false, "tieEnd": false, "tieGroup": 101}]}, {"start": 3.75, "dur": 0.25, "rest": false, "notes": [{"pitch": 61, "vel": 104, "dur": 0.25, "tieStart": false, "tieEnd": false, "tieGroup": 0}]}]}, {"ts_num": 4, "ts_den": 4, "key_fifths": -4, "key_mode": 1, "clef": 1, "tempo": 120, "velocity": 100, "lyrics": "", "expr": [], "segs": [{"start": 0.0, "dur": 3.75, "rest": true, "notes": []}, {"start": 3.75, "dur": 0.25, "rest": false, "notes": [{"pitch": 72, "vel": 89, "dur": 0.25, "tieStart": false, "tieEnd": false, "tieGroup": 102}]}]}, {"ts_num": 4, "ts_den": 4, "key_fifths": -4, "key_mode": 1, "clef": 1, "tempo": 120, "velocity": 100, "lyrics": "", "expr": [], "segs": [{"start": 0.0, "dur": 1.75, "rest": true, "notes": []}, {"start": 1.75, "dur": 2.25, "rest": false, "notes": [{"pitch": 75, "vel": 89, "dur": 2.25, "tieStart": false, "tieEnd": false, "tieGroup": 103}]}]}, {"ts_num": 4, "ts_den": 4, "key_fifths": -4, "key_mode": 1, "clef": 1, "tempo": 120, "velocity": 100, "lyrics": "", "expr": [], "segs": [{"start": 0.0, "dur": 1.0, "rest": true, "notes": []}, {"start": 1.0, "dur": 0.75, "rest": false, "notes": [{"pitch": 53, "vel": 81, "dur": 0.75, "tieStart": false, "tieEnd": false, "tieGroup": 104}, {"pitch": 68, "vel": 77, "dur": 0.75, "tieStart": false, "tieEnd": false, "tieGroup": 0}, {"pitch": 77, "vel": 73, "dur": 0.75, "tieStart": false, "tieEnd": false, "tieGroup": 0}]}, {"start": 1.75, "dur": 0.75, "rest": false, "notes": [{"pitch": 53, "vel": 81, "dur": 0.75, "tieStart": false, "tieEnd": false, "tieGroup": 0}, {"pitch": 80, "vel": 77, "dur": 0.75, "tieStart": false, "tieEnd": false, "tieGroup": 0}, {"pitch": 84, "vel": 73, "dur": 0.75, "tieStart": false, "tieEnd": false, "tieGroup": 0}]}, {"start": 2.5, "dur": 1.0, "rest": true, "notes": []}, {"start": 3.5, "dur": 0.25, "rest": false, "notes": [{"pitch": 65, "vel": 81, "dur": 0.25, "tieStart": false, "tieEnd": false, "tieGroup": 105}, {"pitch": 70, "vel": 77, "dur": 0.25, "tieStart": false, "tieEnd": false, "tieGroup": 0}]}, {"start": 3.75, "dur": 0.25, "rest": false, "notes": [{"pitch": 68, "vel": 81, "dur": 0.25, "tieStart": false, "tieEnd": false, "tieGroup": 0}]}]}, {"ts_num": 4, "ts_den": 4, "key_fifths": -4, "key_mode": 1, "clef": 1, "tempo": 120, "velocity": 100, "lyrics": "", "expr": [], "segs": [{"start": 0.0, "dur": 4.0, "rest": false, "notes": [{"pitch": 39, "vel": 73, "dur": 4.0, "tieStart": false, "tieEnd": false, "tieGroup": 0}, {"pitch": 46, "vel": 69, "dur": 4.0, "tieStart": false, "tieEnd": false, "tieGroup": 0}]}]}, {"ts_num": 4, "ts_den": 4, "key_fifths": -4, "key_mode": 1, "clef": 1, "tempo": 120, "velocity": 100, "lyrics": "", "expr": [], "segs": [{"start": 0.0, "dur": 3.25, "rest": true, "notes": []}, {"start": 3.25, "dur": 0.25, "rest": false, "notes": [{"pitch": 80, "vel": 89, "dur": 0.25, "tieStart": false, "tieEnd": false, "tieGroup": 106}]}, {"start": 3.5, "dur": 0.25, "rest": false, "notes": [{"pitch": 73, "vel": 89, "dur": 0.25, "tieStart": false, "tieEnd": false, "tieGroup": 0}]}, {"start": 3.75, "dur": 0.25, "rest": false, "notes": [{"pitch": 77, "vel": 89, "dur": 0.25, "tieStart": false, "tieEnd": false, "tieGroup": 0}, {"pitch": 85, "vel": 85, "dur": 0.25, "tieStart": false, "tieEnd": false, "tieGroup": 0}]}]}, {"ts_num": 4, "ts_den": 4, "key_fifths": -4, "key_mode": 1, "clef": 1, "tempo": 120, "velocity": 100, "lyrics": "", "expr": [], "segs": [{"start": 0.0, "dur": 1.75, "rest": false, "notes": [{"pitch": 39, "vel": 81, "dur": 1.75, "tieStart": false, "tieEnd": false, "tieGroup": 0}, {"pitch": 41, "vel": 77, "dur": 1.75, "tieStart": false, "tieEnd": false, "tieGroup": 0}, {"pitch": 53, "vel": 73, "dur": 1.75, "tieStart": false, "tieEnd": false, "tieGroup": 0}]}, {"start": 1.75, "dur": 0.5, "rest": false, "notes": [{"pitch": 39, "vel": 81, "dur": 0.5, "tieStart": false, "tieEnd": false, "tieGroup": 0}, {"pitch": 41, "vel": 77, "dur": 0.5, "tieStart": false, "tieEnd": false, "tieGroup": 0}]}, {"start": 2.25, "dur": 1.0, "rest": true, "notes": []}, {"start": 3.25, "dur": 0.75, "rest": false, "notes": [{"pitch": 68, "vel": 81, "dur": 0.75, "tieStart": false, "tieEnd": false, "tieGroup": 107}]}]}, {"ts_num": 4, "ts_den": 4, "key_fifths": -4, "key_mode": 1, "clef": 1, "tempo": 120, "velocity": 100, "lyrics": "", "expr": [], "segs": [{"start": 0.0, "dur": 0.25, "rest": false, "notes": [{"pitch": 44, "vel": 81, "dur": 0.25, "tieStart": false, "tieEnd": false, "tieGroup": 0}, {"pitch": 49, "vel": 77, "dur": 0.25, "tieStart": false, "tieEnd": false, "tieGroup": 0}]}, {"start": 0.25, "dur": 0.25, "rest": false, "notes": [{"pitch": 41, "vel": 89, "dur": 0.25, "tieStart": false, "tieEnd": false, "tieGroup": 0}, {"pitch": 49, "vel": 85, "dur": 0.25, "tieStart": false, "tieEnd": false, "tieGroup": 0}]}, {"start": 0.5, "dur": 2.5, "rest": true, "notes": []}, {"start": 3.0, "dur": 0.5, "rest": false, "notes": [{"pitch": 77, "vel": 89, "dur": 0.5, "tieStart": false, "tieEnd": false, "tieGroup": 108}]}, {"start": 3.5, "dur": 0.5, "rest": false, "notes": [{"pitch": 65, "vel": 81, "dur": 0.5, "tieStart": false, "tieEnd": false, "tieGroup": 0}]}]}, {"ts_num": 4, "ts_den": 4, "key_fifths": -4, "key_mode": 1, "clef": 1, "tempo": 120, "velocity": 100, "lyrics": "", "expr": [], "segs": [{"start": 0.0, "dur": 0.25, "rest": false, "notes": [{"pitch": 43, "vel": 104, "dur": 0.25, "tieStart": false, "tieEnd": false, "tieGroup": 0}, {"pitch": 44, "vel": 100, "dur": 0.25, "tieStart": false, "tieEnd": false, "tieGroup": 0}]}, {"start": 0.25, "dur": 3.5, "rest": true, "notes": []}, {"start": 3.75, "dur": 0.25, "rest": false, "notes": [{"pitch": 67, "vel": 89, "dur": 0.25, "tieStart": false, "tieEnd": false, "tieGroup": 109}]}]}, {"ts_num": 4, "ts_den": 4, "key_fifths": -4, "key_mode": 1, "clef": 1, "tempo": 120, "velocity": 100, "lyrics": "", "expr": [], "segs": [{"start": 0.0, "dur": 1.0, "rest": false, "notes": [{"pitch": 53, "vel": 73, "dur": 1.0, "tieStart": false, "tieEnd": false, "tieGroup": 0}, {"pitch": 56, "vel": 69, "dur": 1.0, "tieStart": false, "tieEnd": false, "tieGroup": 0}, {"pitch": 60, "vel": 65, "dur": 1.0, "tieStart": false, "tieEnd": false, "tieGroup": 0}]}, {"start": 1.0, "dur": 1.25, "rest": false, "notes": [{"pitch": 53, "vel": 73, "dur": 1.25, "tieStart": false, "tieEnd": false, "tieGroup": 0}, {"pitch": 56, "vel": 69, "dur": 1.25, "tieStart": false, "tieEnd": false, "tieGroup": 0}, {"pitch": 65, "vel": 65, "dur": 1.25, "tieStart": false, "tieEnd": false, "tieGroup": 0}]}, {"start": 2.25, "dur": 1.0, "rest": false, "notes": [{"pitch": 68, "vel": 73, "dur": 1.0, "tieStart": false, "tieEnd": false, "tieGroup": 0}]}, {"start": 3.25, "dur": 0.5, "rest": false, "notes": [{"pitch": 56, "vel": 81, "dur": 0.5, "tieStart": false, "tieEnd": false, "tieGroup": 0}, {"pitch": 60, "vel": 77, "dur": 0.5, "tieStart": false, "tieEnd": false, "tieGroup": 0}]}, {"start": 3.75, "dur": 0.25, "rest": true, "notes": []}]}, {"ts_num": 4, "ts_den": 4, "key_fifths": -4, "key_mode": 1, "clef": 1, "tempo": 120, "velocity": 100, "lyrics": "", "expr": [], "segs": [{"start": 0.0, "dur": 3.5, "rest": true, "notes": []}, {"start": 3.5, "dur": 0.25, "rest": false, "notes": [{"pitch": 68, "vel": 89, "dur": 0.25, "tieStart": false, "tieEnd": false, "tieGroup": 110}]}, {"start": 3.75, "dur": 0.25, "rest": false, "notes": [{"pitch": 61, "vel": 73, "dur": 0.25, "tieStart": false, "tieEnd": false, "tieGroup": 0}, {"pitch": 70, "vel": 69, "dur": 0.25, "tieStart": false, "tieEnd": false, "tieGroup": 0}]}]}, {"ts_num": 4, "ts_den": 4, "key_fifths": -4, "key_mode": 1, "clef": 1, "tempo": 120, "velocity": 100, "lyrics": "", "expr": [], "segs": [{"start": 0.0, "dur": 0.75, "rest": false, "notes": [{"pitch": 39, "vel": 81, "dur": 0.75, "tieStart": false, "tieEnd": false, "tieGroup": 0}, {"pitch": 41, "vel": 77, "dur": 0.75, "tieStart": false, "tieEnd": false, "tieGroup": 0}, {"pitch": 49, "vel": 73, "dur": 0.75, "tieStart": false, "tieEnd": false, "tieGroup": 0}]}, {"start": 0.75, "dur": 0.25, "rest": false, "notes": [{"pitch": 39, "vel": 89, "dur": 0.25, "tieStart": false, "tieEnd": false, "tieGroup": 0}, {"pitch": 41, "vel": 85, "dur": 0.25, "tieStart": false, "tieEnd": false, "tieGroup": 0}]}, {"start": 1.0, "dur": 0.25, "rest": false, "notes": [{"pitch": 75, "vel": 89, "dur": 0.25, "tieStart": false, "tieEnd": false, "tieGroup": 0}]}, {"start": 1.25, "dur": 0.25, "rest": false, "notes": [{"pitch": 73, "vel": 81, "dur": 0.25, "tieStart": false, "tieEnd": false, "tieGroup": 0}]}, {"start": 1.5, "dur": 2.5, "rest": true, "notes": []}]}, {"ts_num": 4, "ts_den": 4, "key_fifths": -4, "key_mode": 1, "clef": 1, "tempo": 120, "velocity": 100, "lyrics": "", "expr": [], "segs": [{"start": 0.0, "dur": 0.25, "rest": false, "notes": [{"pitch": 44, "vel": 89, "dur": 0.25, "tieStart": false, "tieEnd": false, "tieGroup": 0}, {"pitch": 53, "vel": 85, "dur": 0.25, "tieStart": false, "tieEnd": false, "tieGroup": 0}]}, {"start": 0.25, "dur": 0.25, "rest": false, "notes": [{"pitch": 53, "vel": 73, "dur": 0.25, "tieStart": false, "tieEnd": false, "tieGroup": 0}]}, {"start": 0.5, "dur": 1.0, "rest": false, "notes": [{"pitch": 44, "vel": 89, "dur": 1.0, "tieStart": false, "tieEnd": false, "tieGroup": 0}, {"pitch": 48, "vel": 85, "dur": 1.0, "tieStart": false, "tieEnd": false, "tieGroup": 0}]}, {"start": 1.5, "dur": 0.25, "rest": false, "notes": [{"pitch": 55, "vel": 73, "dur": 0.25, "tieStart": false, "tieEnd": false, "tieGroup": 0}, {"pitch": 60, "vel": 69, "dur": 0.25, "tieStart": false, "tieEnd": false, "tieGroup": 0}]}, {"start": 1.75, "dur": 2.25, "rest": true, "notes": []}]}, {"ts_num": 4, "ts_den": 4, "key_fifths": -4, "key_mode": 1, "clef": 1, "tempo": 120, "velocity": 100, "lyrics": "", "expr": [], "segs": [{"start": 0.0, "dur": 1.0, "rest": false, "notes": [{"pitch": 39, "vel": 104, "dur": 1.0, "tieStart": false, "tieEnd": false, "tieGroup": 0}, {"pitch": 41, "vel": 100, "dur": 1.0, "tieStart": false, "tieEnd": false, "tieGroup": 0}, {"pitch": 53, "vel": 96, "dur": 1.0, "tieStart": false, "tieEnd": false, "tieGroup": 0}]}, {"start": 1.0, "dur": 1.0, "rest": false, "notes": [{"pitch": 39, "vel": 104, "dur": 1.0, "tieStart": false, "tieEnd": false, "tieGroup": 0}, {"pitch": 41, "vel": 100, "dur": 1.0, "tieStart": false, "tieEnd": false, "tieGroup": 0}, {"pitch": 53, "vel": 96, "dur": 1.0, "tieStart": false, "tieEnd": false, "tieGroup": 0}]}, {"start": 2.0, "dur": 1.0, "rest": false, "notes": [{"pitch": 53, "vel": 104, "dur": 1.0, "tieStart": false, "tieEnd": false, "tieGroup": 0}, {"pitch": 56, "vel": 100, "dur": 1.0, "tieStart": false, "tieEnd": false, "tieGroup": 0}, {"pitch": 63, "vel": 96, "dur": 1.0, "tieStart": false, "tieEnd": false, "tieGroup": 0}]}, {"start": 3.0, "dur": 1.0, "rest": false, "notes": [{"pitch": 67, "vel": 104, "dur": 1.0, "tieStart": false, "tieEnd": false, "tieGroup": 0}, {"pitch": 72, "vel": 100, "dur": 1.0, "tieStart": false, "tieEnd": false, "tieGroup": 0}]}]}, {"ts_num": 4, "ts_den": 4, "key_fifths": -4, "key_mode": 1, "clef": 1, "tempo": 120, "velocity": 100, "lyrics": "", "expr": [], "segs": [{"start": 0.0, "dur": 1.0, "rest": true, "notes": []}, {"start": 1.0, "dur": 1.0, "rest": false, "notes": [{"pitch": 53, "vel": 97, "dur": 1.0, "tieStart": false, "tieEnd": false, "tieGroup": 111}, {"pitch": 68, "vel": 93, "dur": 1.0, "tieStart": false, "tieEnd": false, "tieGroup": 0}, {"pitch": 72, "vel": 89, "dur": 1.0, "tieStart": false, "tieEnd": false, "tieGroup": 0}]}, {"start": 2.0, "dur": 1.0, "rest": true, "notes": []}, {"start": 3.0, "dur": 1.0, "rest": false, "notes": [{"pitch": 53, "vel": 97, "dur": 1.0, "tieStart": false, "tieEnd": false, "tieGroup": 112}, {"pitch": 56, "vel": 93, "dur": 1.0, "tieStart": false, "tieEnd": false, "tieGroup": 0}, {"pitch": 65, "vel": 89, "dur": 1.0, "tieStart": false, "tieEnd": false, "tieGroup": 0}]}]}, {"ts_num": 4, "ts_den": 4, "key_fifths": -4, "key_mode": 1, "clef": 1, "tempo": 120, "velocity": 100, "lyrics": "", "expr": [], "segs": [{"start": 0.0, "dur": 1.0, "rest": true, "notes": []}, {"start": 1.0, "dur": 1.0, "rest": false, "notes": [{"pitch": 53, "vel": 97, "dur": 1.0, "tieStart": false, "tieEnd": false, "tieGroup": 113}, {"pitch": 68, "vel": 93, "dur": 1.0, "tieStart": false, "tieEnd": false, "tieGroup": 0}, {"pitch": 72, "vel": 89, "dur": 1.0, "tieStart": false, "tieEnd": false, "tieGroup": 0}]}, {"start": 2.0, "dur": 2.0, "rest": false, "notes": [{"pitch": 53, "vel": 97, "dur": 2.0, "tieStart": false, "tieEnd": false, "tieGroup": 0}, {"pitch": 80, "vel": 93, "dur": 2.0, "tieStart": false, "tieEnd": false, "tieGroup": 0}, {"pitch": 84, "vel": 89, "dur": 2.0, "tieStart": false, "tieEnd": false, "tieGroup": 0}]}]}, {"ts_num": 4, "ts_den": 4, "key_fifths": -4, "key_mode": 1, "clef": 1, "tempo": 120, "velocity": 100, "lyrics": "", "expr": [], "segs": [{"start": 0.0, "dur": 4.0, "rest": true, "notes": []}]}, {"ts_num": 4, "ts_den": 4, "key_fifths": -4, "key_mode": 1, "clef": 1, "tempo": 120, "velocity": 100, "lyrics": "", "expr": [], "segs": [{"start": 0.0, "dur": 4.0, "rest": true, "notes": []}]}]}, {"name": "Accomp Drum Groove", "instrument": {"name": "Accomp Drum Groove", "bankMSB": 0, "bankLSB": 0, "program": 0, "channelHint": -1, "percussion": true, "volume": 100, "pan": 64, "transpose": 0}, "measures": [{"ts_num": 4, "ts_den": 4, "key_fifths": -4, "key_mode": 1, "clef": 1, "tempo": 120, "velocity": 100, "lyrics": "", "expr": [], "segs": [{"start": 0.0, "dur": 1.0, "rest": false, "notes": [{"pitch": 36, "vel": 100, "dur": 1.0, "tieStart": false, "tieEnd": false, "tieGroup": 0}, {"pitch": 42, "vel": 70, "dur": 1.0, "tieStart": false, "tieEnd": false, "tieGroup": 0}]}, {"start": 1.0, "dur": 1.0, "rest": false, "notes": [{"pitch": 42, "vel": 70, "dur": 1.0, "tieStart": false, "tieEnd": false, "tieGroup": 0}]}, {"start": 2.0, "dur": 1.0, "rest": false, "notes": [{"pitch": 38, "vel": 95, "dur": 1.0, "tieStart": false, "tieEnd": false, "tieGroup": 0}, {"pitch": 42, "vel": 70, "dur": 1.0, "tieStart": false, "tieEnd": false, "tieGroup": 0}]}, {"start": 3.0, "dur": 1.0, "rest": false, "notes": [{"pitch": 42, "vel": 70, "dur": 1.0, "tieStart": false, "tieEnd": false, "tieGroup": 0}]}]}, {"ts_num": 4, "ts_den": 4, "key_fifths": -4, "key_mode": 1, "clef": 1, "tempo": 120, "velocity": 100, "lyrics": "", "expr": [], "segs": [{"start": 0.0, "dur": 1.0, "rest": false, "notes": [{"pitch": 36, "vel": 100, "dur": 1.0, "tieStart": false, "tieEnd": false, "tieGroup": 0}, {"pitch": 42, "vel": 70, "dur": 1.0, "tieStart": false, "tieEnd": false, "tieGroup": 0}]}, {"start": 1.0, "dur": 1.0, "rest": false, "notes": [{"pitch": 42, "vel": 70, "dur": 1.0, "tieStart": false, "tieEnd": false, "tieGroup": 0}]}, {"start": 2.0, "dur": 1.0, "rest": false, "notes": [{"pitch": 38, "vel": 95, "dur": 1.0, "tieStart": false, "tieEnd": false, "tieGroup": 0}, {"pitch": 42, "vel": 70, "dur": 1.0, "tieStart": false, "tieEnd": false, "tieGroup": 0}]}, {"start": 3.0, "dur": 1.0, "rest": false, "notes": [{"pitch": 42, "vel": 70, "dur": 1.0, "tieStart": false, "tieEnd": false, "tieGroup": 0}]}]}, {"ts_num": 4, "ts_den": 4, "key_fifths": -4, "key_mode": 1, "clef": 1, "tempo": 120, "velocity": 100, "lyrics": "", "expr": [], "segs": [{"start": 0.0, "dur": 1.0, "rest": false, "notes": [{"pitch": 36, "vel": 100, "dur": 1.0, "tieStart": false, "tieEnd": false, "tieGroup": 0}, {"pitch": 42, "vel": 70, "dur": 1.0, "tieStart": false, "tieEnd": false, "tieGroup": 0}]}, {"start": 1.0, "dur": 1.0, "rest": false, "notes": [{"pitch": 42, "vel": 70, "dur": 1.0, "tieStart": false, "tieEnd": false, "tieGroup": 0}]}, {"start": 2.0, "dur": 1.0, "rest": false, "notes": [{"pitch": 38, "vel": 95, "dur": 1.0, "tieStart": false, "tieEnd": false, "tieGroup": 0}, {"pitch": 42, "vel": 70, "dur": 1.0, "tieStart": false, "tieEnd": false, "tieGroup": 0}]}, {"start": 3.0, "dur": 1.0, "rest": false, "notes": [{"pitch": 42, "vel": 70, "dur": 1.0, "tieStart": false, "tieEnd": false, "tieGroup": 0}]}]}, {"ts_num": 4, "ts_den": 4, "key_fifths": -4, "key_mode": 1, "clef": 1, "tempo": 120, "velocity": 100, "lyrics": "", "expr": [], "segs": [{"start": 0.0, "dur": 1.5, "rest": false, "notes": [{"pitch": 36, "vel": 100, "dur": 1.5, "tieStart": false, "tieEnd": false, "tieGroup": 0}, {"pitch": 42, "vel": 70, "dur": 1.5, "tieStart": false, "tieEnd": false, "tieGroup": 0}]}, {"start": 1.5, "dur": 1.5, "rest": false, "notes": [{"pitch": 38, "vel": 95, "dur": 1.5, "tieStart": false, "tieEnd": false, "tieGroup": 151}, {"pitch": 42, "vel": 70, "dur": 1.5, "tieStart": false, "tieEnd": false, "tieGroup": 152}]}, {"start": 3.0, "dur": 1.0, "rest": false, "notes": [{"pitch": 42, "vel": 70, "dur": 1.0, "tieStart": false, "tieEnd": false, "tieGroup": 150}]}]}, {"ts_num": 4, "ts_den": 4, "key_fifths": -4, "key_mode": 1, "clef": 1, "tempo": 120, "velocity": 100, "lyrics": "", "expr": [], "segs": [{"start": 0.0, "dur": 1.5, "rest": false, "notes": [{"pitch": 36, "vel": 100, "dur": 1.5, "tieStart": false, "tieEnd": false, "tieGroup": 0}, {"pitch": 42, "vel": 70, "dur": 1.5, "tieStart": false, "tieEnd": false, "tieGroup": 0}]}, {"start": 1.5, "dur": 1.5, "rest": false, "notes": [{"pitch": 38, "vel": 95, "dur": 1.5, "tieStart": false, "tieEnd": false, "tieGroup": 154}, {"pitch": 42, "vel": 70, "dur": 1.5, "tieStart": false, "tieEnd": false, "tieGroup": 155}]}, {"start": 3.0, "dur": 1.0, "rest": false, "notes": [{"pitch": 42, "vel": 70, "dur": 1.0, "tieStart": false, "tieEnd": false, "tieGroup": 153}]}]}, {"ts_num": 4, "ts_den": 4, "key_fifths": -4, "key_mode": 1, "clef": 1, "tempo": 120, "velocity": 100, "lyrics": "", "expr": [], "segs": [{"start": 0.0, "dur": 1.5, "rest": false, "notes": [{"pitch": 36, "vel": 100, "dur": 1.5, "tieStart": false, "tieEnd": false, "tieGroup": 0}, {"pitch": 42, "vel": 70, "dur": 1.5, "tieStart": false, "tieEnd": false, "tieGroup": 0}]}, {"start": 1.5, "dur": 1.5, "rest": false, "notes": [{"pitch": 38, "vel": 95, "dur": 1.5, "tieStart": false, "tieEnd": false, "tieGroup": 157}, {"pitch": 42, "vel": 70, "dur": 1.5, "tieStart": false, "tieEnd": false, "tieGroup": 158}]}, {"start": 3.0, "dur": 1.0, "rest": false, "notes": [{"pitch": 42, "vel": 70, "dur": 1.0, "tieStart": false, "tieEnd": false, "tieGroup": 156}]}]}, {"ts_num": 4, "ts_den": 4, "key_fifths": -4, "key_mode": 1, "clef": 1, "tempo": 120, "velocity": 100, "lyrics": "", "expr": [], "segs": [{"start": 0.0, "dur": 1.0, "rest": false, "notes": [{"pitch": 36, "vel": 100, "dur": 1.0, "tieStart": false, "tieEnd": false, "tieGroup": 0}, {"pitch": 42, "vel": 70, "dur": 1.0, "tieStart": false, "tieEnd": false, "tieGroup": 0}]}, {"start": 1.0, "dur": 1.0, "rest": false, "notes": [{"pitch": 42, "vel": 70, "dur": 1.0, "tieStart": false, "tieEnd": false, "tieGroup": 0}]}, {"start": 2.0, "dur": 1.0, "rest": false, "notes": [{"pitch": 38, "vel": 95, "dur": 1.0, "tieStart": false, "tieEnd": false, "tieGroup": 0}, {"pitch": 42, "vel": 70, "dur": 1.0, "tieStart": false, "tieEnd": false, "tieGroup": 0}]}, {"start": 3.0, "dur": 1.0, "rest": false, "notes": [{"pitch": 42, "vel": 70, "dur": 1.0, "tieStart": false, "tieEnd": false, "tieGroup": 0}]}]}, {"ts_num": 4, "ts_den": 4, "key_fifths": -4, "key_mode": 1, "clef": 1, "tempo": 120, "velocity": 100, "lyrics": "", "expr": [], "segs": [{"start": 0.0, "dur": 1.0, "rest": false, "notes": [{"pitch": 36, "vel": 100, "dur": 1.0, "tieStart": false, "tieEnd": false, "tieGroup": 0}, {"pitch": 42, "vel": 70, "dur": 1.0, "tieStart": false, "tieEnd": false, "tieGroup": 0}]}, {"start": 1.0, "dur": 1.0, "rest": false, "notes": [{"pitch": 42, "vel": 70, "dur": 1.0, "tieStart": false, "tieEnd": false, "tieGroup": 0}]}, {"start": 2.0, "dur": 1.0, "rest": false, "notes": [{"pitch": 38, "vel": 95, "dur": 1.0, "tieStart": false, "tieEnd": false, "tieGroup": 0}, {"pitch": 42, "vel": 70, "dur": 1.0, "tieStart": false, "tieEnd": false, "tieGroup": 0}]}, {"start": 3.0, "dur": 1.0, "rest": false, "notes": [{"pitch": 42, "vel": 70, "dur": 1.0, "tieStart": false, "tieEnd": false, "tieGroup": 0}]}]}, {"ts_num": 4, "ts_den": 4, "key_fifths": -4, "key_mode": 1, "clef": 1, "tempo": 120, "velocity": 100, "lyrics": "", "expr": [], "segs": [{"start": 0.0, "dur": 1.0, "rest": false, "notes": [{"pitch": 36, "vel": 100, "dur": 1.0, "tieStart": false, "tieEnd": false, "tieGroup": 0}, {"pitch": 42, "vel": 70, "dur": 1.0, "tieStart": false, "tieEnd": false, "tieGroup": 0}]}, {"start": 1.0, "dur": 1.0, "rest": false, "notes": [{"pitch": 42, "vel": 70, "dur": 1.0, "tieStart": false, "tieEnd": false, "tieGroup": 0}]}, {"start": 2.0, "dur": 1.0, "rest": false, "notes": [{"pitch": 38, "vel": 95, "dur": 1.0, "tieStart": false, "tieEnd": false, "tieGroup": 0}, {"pitch": 42, "vel": 70, "dur": 1.0, "tieStart": false, "tieEnd": false, "tieGroup": 0}]}, {"start": 3.0, "dur": 1.0, "rest": false, "notes": [{"pitch": 42, "vel": 70, "dur": 1.0, "tieStart": false, "tieEnd": false, "tieGroup": 0}]}]}, {"ts_num": 4, "ts_den": 4, "key_fifths": -4, "key_mode": 1, "clef": 1, "tempo": 120, "velocity": 100, "lyrics": "", "expr": [], "segs": [{"start": 0.0, "dur": 0.5, "rest": false, "notes": [{"pitch": 36, "vel": 100, "dur": 0.5, "tieStart": false, "tieEnd": false, "tieGroup": 0}]}, {"start": 0.5, "dur": 0.5, "rest": false, "notes": [{"pitch": 42, "vel": 70, "dur": 0.5, "tieStart": false, "tieEnd": false, "tieGroup": 0}]}, {"start": 1.0, "dur": 0.5, "rest": false, "notes": [{"pitch": 42, "vel": 70, "dur": 0.5, "tieStart": false, "tieEnd": false, "tieGroup": 0}]}, {"start": 1.5, "dur": 0.5, "rest": false, "notes": [{"pitch": 38, "vel": 95, "dur": 0.5, "tieStart": false, "tieEnd": false, "tieGroup": 0}]}, {"start": 2.0, "dur": 0.5, "rest": true, "notes": []}, {"start": 2.5, "dur": 0.5, "rest": false, "notes": [{"pitch": 42, "vel": 70, "dur": 0.5, "tieStart": false, "tieEnd": false, "tieGroup": 159}]}, {"start": 3.0, "dur": 1.0, "rest": false, "notes": [{"pitch": 42, "vel": 70, "dur": 1.0, "tieStart": false, "tieEnd": false, "tieGroup": 0}]}]}, {"ts_num": 4, "ts_den": 4, "key_fifths": -4, "key_mode": 1, "clef": 1, "tempo": 120, "velocity": 100, "lyrics": "", "expr": [], "segs": [{"start": 0.0, "dur": 0.5, "rest": false, "notes": [{"pitch": 36, "vel": 100, "dur": 0.5, "tieStart": false, "tieEnd": false, "tieGroup": 0}]}, {"start": 0.5, "dur": 0.5, "rest": false, "notes": [{"pitch": 42, "vel": 70, "dur": 0.5, "tieStart": false, "tieEnd": false, "tieGroup": 0}]}, {"start": 1.0, "dur": 0.5, "rest": false, "notes": [{"pitch": 42, "vel": 70, "dur": 0.5, "tieStart": false, "tieEnd": false, "tieGroup": 0}]}, {"start": 1.5, "dur": 0.5, "rest": false, "notes": [{"pitch": 38, "vel": 95, "dur": 0.5, "tieStart": false, "tieEnd": false, "tieGroup": 0}]}, {"start": 2.0, "dur": 0.5, "rest": true, "notes": []}, {"start": 2.5, "dur": 0.5, "rest": false, "notes": [{"pitch": 42, "vel": 70, "dur": 0.5, "tieStart": false, "tieEnd": false, "tieGroup": 160}]}, {"start": 3.0, "dur": 1.0, "rest": false, "notes": [{"pitch": 42, "vel": 70, "dur": 1.0, "tieStart": false, "tieEnd": false, "tieGroup": 0}]}]}, {"ts_num": 4, "ts_den": 4, "key_fifths": -4, "key_mode": 1, "clef": 1, "tempo": 120, "velocity": 100, "lyrics": "", "expr": [], "segs": [{"start": 0.0, "dur": 0.5, "rest": false, "notes": [{"pitch": 36, "vel": 100, "dur": 0.5, "tieStart": false, "tieEnd": false, "tieGroup": 0}]}, {"start": 0.5, "dur": 0.5, "rest": false, "notes": [{"pitch": 42, "vel": 70, "dur": 0.5, "tieStart": false, "tieEnd": false, "tieGroup": 0}]}, {"start": 1.0, "dur": 0.5, "rest": false, "notes": [{"pitch": 42, "vel": 70, "dur": 0.5, "tieStart": false, "tieEnd": false, "tieGroup": 0}]}, {"start": 1.5, "dur": 0.5, "rest": false, "notes": [{"pitch": 38, "vel": 95, "dur": 0.5, "tieStart": false, "tieEnd": false, "tieGroup": 0}]}, {"start": 2.0, "dur": 0.5, "rest": true, "notes": []}, {"start": 2.5, "dur": 0.5, "rest": false, "notes": [{"pitch": 42, "vel": 70, "dur": 0.5, "tieStart": false, "tieEnd": false, "tieGroup": 161}]}, {"start": 3.0, "dur": 1.0, "rest": false, "notes": [{"pitch": 42, "vel": 70, "dur": 1.0, "tieStart": false, "tieEnd": false, "tieGroup": 0}]}]}, {"ts_num": 4, "ts_den": 4, "key_fifths": -4, "key_mode": 1, "clef": 1, "tempo": 120, "velocity": 100, "lyrics": "", "expr": [], "segs": [{"start": 0.0, "dur": 1.0, "rest": false, "notes": [{"pitch": 36, "vel": 100, "dur": 1.0, "tieStart": false, "tieEnd": false, "tieGroup": 0}, {"pitch": 42, "vel": 70, "dur": 1.0, "tieStart": false, "tieEnd": false, "tieGroup": 0}]}, {"start": 1.0, "dur": 1.0, "rest": false, "notes": [{"pitch": 42, "vel": 70, "dur": 1.0, "tieStart": false, "tieEnd": false, "tieGroup": 0}]}, {"start": 2.0, "dur": 1.0, "rest": false, "notes": [{"pitch": 38, "vel": 95, "dur": 1.0, "tieStart": false, "tieEnd": false, "tieGroup": 0}, {"pitch": 42, "vel": 70, "dur": 1.0, "tieStart": false, "tieEnd": false, "tieGroup": 0}]}, {"start": 3.0, "dur": 1.0, "rest": false, "notes": [{"pitch": 42, "vel": 70, "dur": 1.0, "tieStart": false, "tieEnd": false, "tieGroup": 0}]}]}, {"ts_num": 4, "ts_den": 4, "key_fifths": -4, "key_mode": 1, "clef": 1, "tempo": 120, "velocity": 100, "lyrics": "", "expr": [], "segs": [{"start": 0.0, "dur": 1.0, "rest": false, "notes": [{"pitch": 36, "vel": 100, "dur": 1.0, "tieStart": false, "tieEnd": false, "tieGroup": 0}, {"pitch": 42, "vel": 70, "dur": 1.0, "tieStart": false, "tieEnd": false, "tieGroup": 0}]}, {"start": 1.0, "dur": 1.0, "rest": false, "notes": [{"pitch": 42, "vel": 70, "dur": 1.0, "tieStart": false, "tieEnd": false, "tieGroup": 0}]}, {"start": 2.0, "dur": 1.0, "rest": false, "notes": [{"pitch": 38, "vel": 95, "dur": 1.0, "tieStart": false, "tieEnd": false, "tieGroup": 0}, {"pitch": 42, "vel": 70, "dur": 1.0, "tieStart": false, "tieEnd": false, "tieGroup": 0}]}, {"start": 3.0, "dur": 1.0, "rest": false, "notes": [{"pitch": 42, "vel": 70, "dur": 1.0, "tieStart": false, "tieEnd": false, "tieGroup": 0}]}]}, {"ts_num": 4, "ts_den": 4, "key_fifths": -4, "key_mode": 1, "clef": 1, "tempo": 120, "velocity": 100, "lyrics": "", "expr": [], "segs": [{"start": 0.0, "dur": 1.0, "rest": false, "notes": [{"pitch": 36, "vel": 100, "dur": 1.0, "tieStart": false, "tieEnd": false, "tieGroup": 0}, {"pitch": 42, "vel": 70, "dur": 1.0, "tieStart": false, "tieEnd": false, "tieGroup": 0}]}, {"start": 1.0, "dur": 1.0, "rest": false, "notes": [{"pitch": 42, "vel": 70, "dur": 1.0, "tieStart": false, "tieEnd": false, "tieGroup": 0}]}, {"start": 2.0, "dur": 1.0, "rest": false, "notes": [{"pitch": 38, "vel": 95, "dur": 1.0, "tieStart": false, "tieEnd": false, "tieGroup": 0}, {"pitch": 42, "vel": 70, "dur": 1.0, "tieStart": false, "tieEnd": false, "tieGroup": 0}]}, {"start": 3.0, "dur": 1.0, "rest": false, "notes": [{"pitch": 42, "vel": 70, "dur": 1.0, "tieStart": false, "tieEnd": false, "tieGroup": 0}]}]}, {"ts_num": 4, "ts_den": 4, "key_fifths": -4, "key_mode": 1, "clef": 1, "tempo": 120, "velocity": 100, "lyrics": "", "expr": [], "segs": [{"start": 0.0, "dur": 1.0, "rest": false, "notes": [{"pitch": 36, "vel": 100, "dur": 1.0, "tieStart": false, "tieEnd": false, "tieGroup": 0}, {"pitch": 42, "vel": 70, "dur": 1.0, "tieStart": false, "tieEnd": false, "tieGroup": 0}]}, {"start": 1.0, "dur": 1.0, "rest": false, "notes": [{"pitch": 42, "vel": 70, "dur": 1.0, "tieStart": false, "tieEnd": false, "tieGroup": 0}]}, {"start": 2.0, "dur": 1.0, "rest": false, "notes": [{"pitch": 38, "vel": 95, "dur": 1.0, "tieStart": false, "tieEnd": false, "tieGroup": 0}, {"pitch": 42, "vel": 70, "dur": 1.0, "tieStart": false, "tieEnd": false, "tieGroup": 0}]}, {"start": 3.0, "dur": 1.0, "rest": false, "notes": [{"pitch": 42, "vel": 70, "dur": 1.0, "tieStart": false, "tieEnd": false, "tieGroup": 0}]}]}, {"ts_num": 4, "ts_den": 4, "key_fifths": -4, "key_mode": 1, "clef": 1, "tempo": 120, "velocity": 100, "lyrics": "", "expr": [], "segs": [{"start": 0.0, "dur": 1.0, "rest": false, "notes": [{"pitch": 36, "vel": 100, "dur": 1.0, "tieStart": false, "tieEnd": false, "tieGroup": 0}, {"pitch": 42, "vel": 70, "dur": 1.0, "tieStart": false, "tieEnd": false, "tieGroup": 0}]}, {"start": 1.0, "dur": 1.0, "rest": false, "notes": [{"pitch": 42, "vel": 70, "dur": 1.0, "tieStart": false, "tieEnd": false, "tieGroup": 0}]}, {"start": 2.0, "dur": 1.0, "rest": false, "notes": [{"pitch": 38, "vel": 95, "dur": 1.0, "tieStart": false, "tieEnd": false, "tieGroup": 0}, {"pitch": 42, "vel": 70, "dur": 1.0, "tieStart": false, "tieEnd": false, "tieGroup": 0}]}, {"start": 3.0, "dur": 1.0, "rest": false, "notes": [{"pitch": 42, "vel": 70, "dur": 1.0, "tieStart": false, "tieEnd": false, "tieGroup": 0}]}]}, {"ts_num": 4, "ts_den": 4, "key_fifths": -4, "key_mode": 1, "clef": 1, "tempo": 120, "velocity": 100, "lyrics": "", "expr": [], "segs": [{"start": 0.0, "dur": 1.0, "rest": false, "notes": [{"pitch": 36, "vel": 100, "dur": 1.0, "tieStart": false, "tieEnd": false, "tieGroup": 0}, {"pitch": 42, "vel": 70, "dur": 1.0, "tieStart": false, "tieEnd": false, "tieGroup": 0}]}, {"start": 1.0, "dur": 1.0, "rest": false, "notes": [{"pitch": 42, "vel": 70, "dur": 1.0, "tieStart": false, "tieEnd": false, "tieGroup": 0}]}, {"start": 2.0, "dur": 1.0, "rest": false, "notes": [{"pitch": 38, "vel": 95, "dur": 1.0, "tieStart": false, "tieEnd": false, "tieGroup": 0}, {"pitch": 42, "vel": 70, "dur": 1.0, "tieStart": false, "tieEnd": false, "tieGroup": 0}]}, {"start": 3.0, "dur": 1.0, "rest": false, "notes": [{"pitch": 42, "vel": 70, "dur": 1.0, "tieStart": false, "tieEnd": false, "tieGroup": 0}]}]}, {"ts_num": 4, "ts_den": 4, "key_fifths": -4, "key_mode": 1, "clef": 1, "tempo": 120, "velocity": 100, "lyrics": "", "expr": [], "segs": [{"start": 0.0, "dur": 1.0, "rest": false, "notes": [{"pitch": 36, "vel": 100, "dur": 1.0, "tieStart": false, "tieEnd": false, "tieGroup": 0}, {"pitch": 42, "vel": 70, "dur": 1.0, "tieStart": false, "tieEnd": false, "tieGroup": 0}]}, {"start": 1.0, "dur": 1.0, "rest": false, "notes": [{"pitch": 42, "vel": 70, "dur": 1.0, "tieStart": false, "tieEnd": false, "tieGroup": 0}]}, {"start": 2.0, "dur": 1.0, "rest": false, "notes": [{"pitch": 38, "vel": 95, "dur": 1.0, "tieStart": false, "tieEnd": false, "tieGroup": 0}, {"pitch": 42, "vel": 70, "dur": 1.0, "tieStart": false, "tieEnd": false, "tieGroup": 0}]}, {"start": 3.0, "dur": 1.0, "rest": false, "notes": [{"pitch": 42, "vel": 70, "dur": 1.0, "tieStart": false, "tieEnd": false, "tieGroup": 0}]}]}, {"ts_num": 4, "ts_den": 4, "key_fifths": -4, "key_mode": 1, "clef": 1, "tempo": 120, "velocity": 100, "lyrics": "", "expr": [], "segs": [{"start": 0.0, "dur": 1.0, "rest": false, "notes": [{"pitch": 36, "vel": 100, "dur": 1.0, "tieStart": false, "tieEnd": false, "tieGroup": 0}, {"pitch": 42, "vel": 70, "dur": 1.0, "tieStart": false, "tieEnd": false, "tieGroup": 0}]}, {"start": 1.0, "dur": 1.0, "rest": false, "notes": [{"pitch": 42, "vel": 70, "dur": 1.0, "tieStart": false, "tieEnd": false, "tieGroup": 0}]}, {"start": 2.0, "dur": 1.0, "rest": false, "notes": [{"pitch": 38, "vel": 95, "dur": 1.0, "tieStart": false, "tieEnd": false, "tieGroup": 0}, {"pitch": 42, "vel": 70, "dur": 1.0, "tieStart": false, "tieEnd": false, "tieGroup": 0}]}, {"start": 3.0, "dur": 1.0, "rest": false, "notes": [{"pitch": 42, "vel": 70, "dur": 1.0, "tieStart": false, "tieEnd": false, "tieGroup": 0}]}]}, {"ts_num": 4, "ts_den": 4, "key_fifths": -4, "key_mode": 1, "clef": 1, "tempo": 120, "velocity": 100, "lyrics": "", "expr": [], "segs": [{"start": 0.0, "dur": 1.0, "rest": false, "notes": [{"pitch": 36, "vel": 100, "dur": 1.0, "tieStart": false, "tieEnd": false, "tieGroup": 0}, {"pitch": 42, "vel": 70, "dur": 1.0, "tieStart": false, "tieEnd": false, "tieGroup": 0}]}, {"start": 1.0, "dur": 1.0, "rest": false, "notes": [{"pitch": 42, "vel": 70, "dur": 1.0, "tieStart": false, "tieEnd": false, "tieGroup": 0}]}, {"start": 2.0, "dur": 1.0, "rest": false, "notes": [{"pitch": 38, "vel": 95, "dur": 1.0, "tieStart": false, "tieEnd": false, "tieGroup": 0}, {"pitch": 42, "vel": 70, "dur": 1.0, "tieStart": false, "tieEnd": false, "tieGroup": 0}]}, {"start": 3.0, "dur": 1.0, "rest": false, "notes": [{"pitch": 42, "vel": 70, "dur": 1.0, "tieStart": false, "tieEnd": false, "tieGroup": 0}]}]}, {"ts_num": 4, "ts_den": 4, "key_fifths": -4, "key_mode": 1, "clef": 1, "tempo": 120, "velocity": 100, "lyrics": "", "expr": [], "segs": [{"start": 0.0, "dur": 1.0, "rest": false, "notes": [{"pitch": 36, "vel": 100, "dur": 1.0, "tieStart": false, "tieEnd": false, "tieGroup": 0}, {"pitch": 42, "vel": 70, "dur": 1.0, "tieStart": false, "tieEnd": false, "tieGroup": 0}]}, {"start": 1.0, "dur": 1.0, "rest": false, "notes": [{"pitch": 42, "vel": 70, "dur": 1.0, "tieStart": false, "tieEnd": false, "tieGroup": 0}]}, {"start": 2.0, "dur": 1.0, "rest": false, "notes": [{"pitch": 38, "vel": 95, "dur": 1.0, "tieStart": false, "tieEnd": false, "tieGroup": 0}, {"pitch": 42, "vel": 70, "dur": 1.0, "tieStart": false, "tieEnd": false, "tieGroup": 0}]}, {"start": 3.0, "dur": 1.0, "rest": false, "notes": [{"pitch": 42, "vel": 70, "dur": 1.0, "tieStart": false, "tieEnd": false, "tieGroup": 0}]}]}, {"ts_num": 4, "ts_den": 4, "key_fifths": 0, "key_mode": 0, "clef": 1, "tempo": 120, "velocity": 100, "lyrics": "", "expr": [], "segs": [{"start": 0.0, "dur": 4.0, "rest": true, "notes": []}]}, {"ts_num": 4, "ts_den": 4, "key_fifths": 0, "key_mode": 0, "clef": 1, "tempo": 120, "velocity": 100, "lyrics": "", "expr": [], "segs": [{"start": 0.0, "dur": 4.0, "rest": true, "notes": []}]}]}], "output_filters": []}